<svg xmlns="http://www.w3.org/2000/svg" xmlns:xlink="http://www.w3.org/1999/xlink" width="303.34" height="216.745" viewBox="0 0 303.34 216.745"><defs><clipPath id="a"><rect width="303.34" height="184.618" fill="none"/></clipPath><filter id="c" x="88.2" y="52.111" width="56.858" height="168.613" filterUnits="userSpaceOnUse"><feOffset dy="3" input="SourceAlpha"/><feGaussianBlur stdDeviation="3" result="d"/><feFlood flood-opacity="0.161"/><feComposite operator="in" in2="d"/><feComposite in="SourceGraphic"/></filter><filter id="e" x="141.292" y="18.352" width="72.257" height="72.259" filterUnits="userSpaceOnUse"><feOffset dy="3" input="SourceAlpha"/><feGaussianBlur stdDeviation="3" result="f"/><feFlood flood-opacity="0.161"/><feComposite operator="in" in2="f"/><feComposite in="SourceGraphic"/></filter><filter id="g" x="173.866" y="18.602" width="38.407" height="38.79" filterUnits="userSpaceOnUse"><feOffset dy="3" input="SourceAlpha"/><feGaussianBlur stdDeviation="3" result="h"/><feFlood flood-opacity="0.161"/><feComposite operator="in" in2="h"/><feComposite in="SourceGraphic"/></filter><filter id="i" x="-0.778" y="24.614" width="47.235" height="47.37" filterUnits="userSpaceOnUse"><feOffset dy="3" input="SourceAlpha"/><feGaussianBlur stdDeviation="3" result="j"/><feFlood flood-opacity="0.161"/><feComposite operator="in" in2="j"/><feComposite in="SourceGraphic"/></filter></defs><g transform="translate(2283 7408.832)"><g transform="translate(-2249.953 -7408.832)"><g transform="translate(0 0)"><circle cx="102.166" cy="102.166" r="102.166" fill="#fdab64"/><ellipse cx="109.156" cy="8.474" rx="109.156" ry="8.474" transform="translate(44.934 199.796)" fill="#fc8116"/><line y2="16.953" transform="translate(94.742 124.958)" fill="#003889"/></g></g><g transform="translate(-2283 -7384.479)"><g clip-path="url(#a)"><rect width="39.639" height="121.426" transform="translate(0.234 63.192)" fill="#f5f5f5"/><rect width="31.328" height="121.426" transform="translate(39.75 63.192)" fill="#fafafa"/><rect width="33.625" height="9.466" transform="translate(2.362 82.625)" fill="#e0e0e0"/><rect width="1.883" height="7.245" transform="translate(3.3 83.815)" fill="#f5f5f5"/><g clip-path="url(#a)"><path d="M15.015,189.328a.6.6,0,1,1-.6-.6.6.6,0,0,1,.6.6" transform="translate(-7.614 -103.988)" fill="#fafafa"/><path d="M15.015,195.029a.6.6,0,1,1-.6-.6.6.6,0,0,1,.6.6" transform="translate(-7.614 -107.129)" fill="#fafafa"/><rect width="1.85" height="5.565" transform="translate(9.793 84.741)" fill="#f5f5f5"/><rect width="1.85" height="5.565" transform="translate(12.466 84.741)" fill="#f5f5f5"/><rect width="1.85" height="5.565" transform="translate(15.139 84.741)" fill="#f5f5f5"/><rect width="1.85" height="5.565" transform="translate(17.811 84.741)" fill="#f5f5f5"/><rect width="1.85" height="5.565" transform="translate(20.484 84.741)" fill="#f5f5f5"/><rect width="1.85" height="5.565" transform="translate(23.156 84.741)" fill="#f5f5f5"/><rect width="1.85" height="5.565" transform="translate(25.829 84.741)" fill="#f5f5f5"/><rect width="1.85" height="5.565" transform="translate(28.502 84.741)" fill="#f5f5f5"/><rect width="1.85" height="5.565" transform="translate(31.174 84.741)" fill="#f5f5f5"/><rect width="1.85" height="5.565" transform="translate(33.847 84.741)" fill="#f5f5f5"/><rect width="33.625" height="9.466" transform="translate(2.362 97.788)" fill="#e0e0e0"/><rect width="1.883" height="7.245" transform="translate(3.3 98.978)" fill="#f5f5f5"/><path d="M15.015,223.1a.6.6,0,1,1-.6-.6.6.6,0,0,1,.6.6" transform="translate(-7.614 -122.594)" fill="#fafafa"/><path d="M15.015,228.8a.6.6,0,1,1-.6-.6.6.6,0,0,1,.6.6" transform="translate(-7.614 -125.736)" fill="#fafafa"/><rect width="1.85" height="5.565" transform="translate(9.793 99.904)" fill="#f5f5f5"/><rect width="1.85" height="5.565" transform="translate(12.466 99.904)" fill="#f5f5f5"/><rect width="1.85" height="5.565" transform="translate(15.139 99.904)" fill="#f5f5f5"/><rect width="1.85" height="5.565" transform="translate(17.811 99.904)" fill="#f5f5f5"/><rect width="1.85" height="5.565" transform="translate(20.484 99.904)" fill="#f5f5f5"/><rect width="1.85" height="5.565" transform="translate(23.156 99.904)" fill="#f5f5f5"/><rect width="1.85" height="5.565" transform="translate(25.829 99.904)" fill="#f5f5f5"/><rect width="1.85" height="5.565" transform="translate(28.502 99.904)" fill="#f5f5f5"/><rect width="1.85" height="5.565" transform="translate(31.174 99.904)" fill="#f5f5f5"/><rect width="1.85" height="5.565" transform="translate(33.847 99.904)" fill="#f5f5f5"/><rect width="33.625" height="9.466" transform="translate(2.362 112.951)" fill="#e0e0e0"/><rect width="1.883" height="7.245" transform="translate(3.3 114.141)" fill="#f5f5f5"/><path d="M15.015,256.866a.6.6,0,1,1-.6-.6.6.6,0,0,1,.6.6" transform="translate(-7.614 -141.201)" fill="#fafafa"/><path d="M15.015,262.568a.6.6,0,1,1-.6-.6.6.6,0,0,1,.6.6" transform="translate(-7.614 -144.343)" fill="#fafafa"/><rect width="1.85" height="5.565" transform="translate(9.793 115.067)" fill="#f5f5f5"/><rect width="1.85" height="5.565" transform="translate(12.466 115.067)" fill="#f5f5f5"/><rect width="1.85" height="5.565" transform="translate(15.139 115.067)" fill="#f5f5f5"/><rect width="1.85" height="5.565" transform="translate(17.811 115.067)" fill="#f5f5f5"/><rect width="1.85" height="5.565" transform="translate(20.484 115.067)" fill="#f5f5f5"/><rect width="1.85" height="5.565" transform="translate(23.156 115.067)" fill="#f5f5f5"/><rect width="1.85" height="5.565" transform="translate(25.829 115.067)" fill="#f5f5f5"/><rect width="1.85" height="5.565" transform="translate(28.502 115.067)" fill="#f5f5f5"/><rect width="1.85" height="5.565" transform="translate(31.174 115.067)" fill="#f5f5f5"/><rect width="1.85" height="5.565" transform="translate(33.847 115.067)" fill="#f5f5f5"/><rect width="33.625" height="9.466" transform="translate(2.362 128.113)" fill="#e0e0e0"/><rect width="1.883" height="7.245" transform="translate(3.3 129.303)" fill="#f5f5f5"/><path d="M15.015,290.636a.6.6,0,1,1-.6-.6.6.6,0,0,1,.6.6" transform="translate(-7.614 -159.808)" fill="#fafafa"/><path d="M15.015,296.337a.6.6,0,1,1-.6-.6.6.6,0,0,1,.6.6" transform="translate(-7.614 -162.949)" fill="#fafafa"/><rect width="1.85" height="5.565" transform="translate(9.793 130.229)" fill="#f5f5f5"/><rect width="1.85" height="5.565" transform="translate(12.466 130.229)" fill="#f5f5f5"/><rect width="1.85" height="5.565" transform="translate(15.139 130.229)" fill="#f5f5f5"/><rect width="1.85" height="5.565" transform="translate(17.811 130.229)" fill="#f5f5f5"/><rect width="1.85" height="5.565" transform="translate(20.484 130.229)" fill="#f5f5f5"/><rect width="1.85" height="5.565" transform="translate(23.156 130.229)" fill="#f5f5f5"/><rect width="1.85" height="5.565" transform="translate(25.829 130.229)" fill="#f5f5f5"/><rect width="1.85" height="5.565" transform="translate(28.502 130.229)" fill="#f5f5f5"/><rect width="1.85" height="5.565" transform="translate(31.174 130.229)" fill="#f5f5f5"/><rect width="1.85" height="5.565" transform="translate(33.847 130.229)" fill="#f5f5f5"/><rect width="33.625" height="9.466" transform="translate(2.362 143.276)" fill="#e0e0e0"/><rect width="1.883" height="7.245" transform="translate(3.3 144.466)" fill="#f5f5f5"/><path d="M15.015,324.4a.6.6,0,1,1-.6-.6.6.6,0,0,1,.6.6" transform="translate(-7.614 -178.414)" fill="#fafafa"/><path d="M15.015,330.106a.6.6,0,1,1-.6-.6.6.6,0,0,1,.6.6" transform="translate(-7.614 -181.555)" fill="#fafafa"/><rect width="1.85" height="5.565" transform="translate(9.793 145.392)" fill="#f5f5f5"/><rect width="1.85" height="5.565" transform="translate(12.466 145.392)" fill="#f5f5f5"/><rect width="1.85" height="5.565" transform="translate(15.139 145.392)" fill="#f5f5f5"/><rect width="1.85" height="5.565" transform="translate(17.811 145.392)" fill="#f5f5f5"/><rect width="1.85" height="5.565" transform="translate(20.484 145.392)" fill="#f5f5f5"/><rect width="1.85" height="5.565" transform="translate(23.156 145.392)" fill="#f5f5f5"/><rect width="1.85" height="5.565" transform="translate(25.829 145.392)" fill="#f5f5f5"/><rect width="1.85" height="5.565" transform="translate(28.502 145.392)" fill="#f5f5f5"/><rect width="1.85" height="5.565" transform="translate(31.174 145.392)" fill="#f5f5f5"/><rect width="1.85" height="5.565" transform="translate(33.847 145.392)" fill="#f5f5f5"/><rect width="33.625" height="9.466" transform="translate(2.362 158.439)" fill="#e0e0e0"/><rect width="1.883" height="7.245" transform="translate(3.3 159.629)" fill="#f5f5f5"/><path d="M15.015,358.174a.6.6,0,1,1-.6-.6.6.6,0,0,1,.6.6" transform="translate(-7.614 -197.021)" fill="#fafafa"/><path d="M15.015,363.876a.6.6,0,1,1-.6-.6.6.6,0,0,1,.6.6" transform="translate(-7.614 -200.162)" fill="#fafafa"/><rect width="1.85" height="5.565" transform="translate(9.793 160.555)" fill="#f5f5f5"/><rect width="1.85" height="5.565" transform="translate(12.466 160.555)" fill="#f5f5f5"/><rect width="1.85" height="5.565" transform="translate(15.139 160.555)" fill="#f5f5f5"/><rect width="1.85" height="5.565" transform="translate(17.811 160.555)" fill="#f5f5f5"/><rect width="1.85" height="5.565" transform="translate(20.484 160.555)" fill="#f5f5f5"/><rect width="1.85" height="5.565" transform="translate(23.156 160.555)" fill="#f5f5f5"/><rect width="1.85" height="5.565" transform="translate(25.829 160.555)" fill="#f5f5f5"/><rect width="1.85" height="5.565" transform="translate(28.502 160.555)" fill="#f5f5f5"/><rect width="1.85" height="5.565" transform="translate(31.174 160.555)" fill="#f5f5f5"/><rect width="1.85" height="5.565" transform="translate(33.847 160.555)" fill="#f5f5f5"/><rect width="33.625" height="9.466" transform="translate(2.362 173.602)" fill="#e0e0e0"/><rect width="1.883" height="7.245" transform="translate(3.3 174.792)" fill="#f5f5f5"/><path d="M15.015,391.944a.6.6,0,1,1-.6-.6.6.6,0,0,1,.6.6" transform="translate(-7.614 -215.628)" fill="#fafafa"/><path d="M15.015,397.645a.6.6,0,1,1-.6-.6.6.6,0,0,1,.6.6" transform="translate(-7.614 -218.769)" fill="#fafafa"/><rect width="1.85" height="5.565" transform="translate(9.793 175.717)" fill="#f5f5f5"/><rect width="1.85" height="5.565" transform="translate(12.466 175.717)" fill="#f5f5f5"/><rect width="1.85" height="5.565" transform="translate(15.139 175.717)" fill="#f5f5f5"/><rect width="1.85" height="5.565" transform="translate(17.811 175.717)" fill="#f5f5f5"/><rect width="1.85" height="5.565" transform="translate(20.484 175.717)" fill="#f5f5f5"/><rect width="1.85" height="5.565" transform="translate(23.156 175.717)" fill="#f5f5f5"/><rect width="1.85" height="5.565" transform="translate(25.829 175.717)" fill="#f5f5f5"/><rect width="1.85" height="5.565" transform="translate(28.502 175.717)" fill="#f5f5f5"/><rect width="1.85" height="5.565" transform="translate(31.174 175.717)" fill="#f5f5f5"/><rect width="1.85" height="5.565" transform="translate(33.847 175.717)" fill="#f5f5f5"/><path d="M23.362,172.824a1.272,1.272,0,0,1-.037-.292c-.014-.192-.026-.476-.036-.841s-.018-.811-.043-1.328a8.409,8.409,0,0,0-.232-1.725,6.176,6.176,0,0,0-.9-1.889,4.178,4.178,0,0,0-1.838-1.477,8.908,8.908,0,0,0-2.61-.529l-2.9-.251c-3.969-.344-7.568-.566-10.176-.616-1.3-.029-2.36-.022-3.09-.02l-.84.007a1.32,1.32,0,0,1-.294-.014,1.336,1.336,0,0,1,.292-.035l.84-.053c.73-.031,1.787-.065,3.094-.057,2.615.006,6.223.2,10.194.545l2.9.256a9.018,9.018,0,0,1,2.674.559,4.369,4.369,0,0,1,1.917,1.567,6.25,6.25,0,0,1,.9,1.961,8.226,8.226,0,0,1,.2,1.765c.013.52.006.967,0,1.332,0,.344-.007.622-.01.841a1.381,1.381,0,0,1-.012.294" transform="translate(-0.206 -90.199)" fill="#e0e0e0"/><path d="M12.956,176.351a1.17,1.17,0,0,1-.023-.276c0-.207-.007-.469-.011-.791,0-.343,0-.763-.042-1.246a3.836,3.836,0,0,0-.414-1.555,2.977,2.977,0,0,0-1.515-1.163,4.169,4.169,0,0,0-2.208-.224,3.737,3.737,0,0,0-1.139.388,2.168,2.168,0,0,0-.883.836,1.187,1.187,0,0,0,0,1.174,1.573,1.573,0,0,0,1,.75,1.268,1.268,0,0,0,1.167-.337,1.732,1.732,0,0,0,.525-1.114,1.692,1.692,0,0,0-.35-1.141,2.5,2.5,0,0,0-.885-.782,3.279,3.279,0,0,0-1.107-.286c-.379-.057-.748-.106-1.105-.146-.715-.081-1.384-.128-2-.153-1.224-.049-2.218-.031-2.905-.033l-.791,0A1.222,1.222,0,0,1,0,170.231a1.149,1.149,0,0,1,.275-.031l.79-.042c.687-.028,1.681-.072,2.913-.045.616.015,1.29.052,2.012.124.361.036.733.083,1.115.136.192.03.382.054.584.091a2.266,2.266,0,0,1,.595.207,2.716,2.716,0,0,1,.973.848,1.928,1.928,0,0,1,.4,1.293,1.965,1.965,0,0,1-.6,1.271,1.511,1.511,0,0,1-1.388.4,1.81,1.81,0,0,1-1.157-.871,1.43,1.43,0,0,1,0-1.4,2.39,2.39,0,0,1,.982-.927,3.947,3.947,0,0,1,1.214-.405,4.349,4.349,0,0,1,2.32.257,3.131,3.131,0,0,1,1.59,1.266,3.9,3.9,0,0,1,.4,1.631c.026.492.012.913,0,1.257l-.034.79a1.2,1.2,0,0,1-.026.276" transform="translate(0 -93.726)" fill="#e0e0e0"/><path d="M26.107,171.732a1.557,1.557,0,0,1-.071-.313c-.038-.206-.1-.51-.18-.9a17.6,17.6,0,0,0-.994-3.2,9.342,9.342,0,0,0-2.925-3.921,5.508,5.508,0,0,0-2.676-1.018,27.845,27.845,0,0,0-3.151-.169c-4.345-.082-8.284-.067-11.134-.18-1.425-.051-2.576-.119-3.371-.177l-.915-.079a1.631,1.631,0,0,1-.318-.044,1.556,1.556,0,0,1,.321,0l.916.033c.8.029,1.947.071,3.371.1,2.847.07,6.782.027,11.133.109a27.345,27.345,0,0,1,3.18.176,5.713,5.713,0,0,1,2.778,1.075,8.515,8.515,0,0,1,1.852,1.961,11.369,11.369,0,0,1,1.1,2.073,16.1,16.1,0,0,1,.928,3.253c.07.393.114.7.135.909a1.584,1.584,0,0,1,.023.32" transform="translate(-0.206 -89.107)" fill="#e0e0e0"/><rect width="32.7" height="4.747" transform="translate(2.825 64.702)" fill="#e0e0e0"/><rect width="17.803" height="2.373" transform="translate(10.016 67.075)" fill="#f5f5f5"/><rect width="49.167" height="150.613" transform="translate(48.186 33.759)" fill="#f5f5f5"/><g transform="matrix(1, 0, 0, 1, 0, -24.35)" filter="url(#c)"><rect width="38.858" height="150.613" transform="translate(97.2 58.11)" fill="#fafafa"/></g><rect width="41.708" height="11.742" transform="translate(50.825 57.864)" fill="#e0e0e0"/><rect width="2.336" height="8.986" transform="translate(51.989 59.34)" fill="#f5f5f5"/><path d="M125.293,135.456a.742.742,0,1,1-.742-.742.742.742,0,0,1,.742.742" transform="translate(-68.218 -74.226)" fill="#fafafa"/><path d="M125.293,142.528a.742.742,0,1,1-.742-.742.742.742,0,0,1,.742.742" transform="translate(-68.218 -78.123)" fill="#fafafa"/><rect width="2.295" height="6.903" transform="translate(60.043 60.488)" fill="#f5f5f5"/><rect width="2.295" height="6.903" transform="translate(63.358 60.488)" fill="#f5f5f5"/><rect width="2.295" height="6.903" transform="translate(66.673 60.488)" fill="#f5f5f5"/><rect width="2.295" height="6.903" transform="translate(69.988 60.488)" fill="#f5f5f5"/><rect width="2.295" height="6.903" transform="translate(73.303 60.488)" fill="#f5f5f5"/><rect width="2.295" height="6.903" transform="translate(76.618 60.488)" fill="#f5f5f5"/><rect width="2.295" height="6.903" transform="translate(79.933 60.488)" fill="#f5f5f5"/><rect width="2.295" height="6.903" transform="translate(83.248 60.488)" fill="#f5f5f5"/><rect width="2.295" height="6.903" transform="translate(86.563 60.488)" fill="#f5f5f5"/><rect width="2.295" height="6.903" transform="translate(89.878 60.488)" fill="#f5f5f5"/><rect width="41.708" height="11.742" transform="translate(50.825 76.671)" fill="#e0e0e0"/><rect width="2.336" height="8.986" transform="translate(51.989 78.147)" fill="#f5f5f5"/><path d="M125.293,177.343a.742.742,0,1,1-.742-.742.742.742,0,0,1,.742.742" transform="translate(-68.218 -97.306)" fill="#fafafa"/><path d="M125.293,184.414a.742.742,0,1,1-.742-.742.743.743,0,0,1,.742.742" transform="translate(-68.218 -101.202)" fill="#fafafa"/><rect width="2.295" height="6.903" transform="translate(60.043 79.295)" fill="#f5f5f5"/><rect width="2.295" height="6.903" transform="translate(63.358 79.295)" fill="#f5f5f5"/><rect width="2.295" height="6.903" transform="translate(66.673 79.295)" fill="#f5f5f5"/><rect width="2.295" height="6.903" transform="translate(69.988 79.295)" fill="#f5f5f5"/><rect width="2.295" height="6.903" transform="translate(73.303 79.295)" fill="#f5f5f5"/><rect width="2.295" height="6.903" transform="translate(76.618 79.295)" fill="#f5f5f5"/><rect width="2.295" height="6.903" transform="translate(79.933 79.295)" fill="#f5f5f5"/><rect width="2.295" height="6.903" transform="translate(83.248 79.295)" fill="#f5f5f5"/><rect width="2.295" height="6.903" transform="translate(86.563 79.295)" fill="#f5f5f5"/><rect width="2.295" height="6.903" transform="translate(89.878 79.295)" fill="#f5f5f5"/><rect width="41.708" height="11.742" transform="translate(50.825 95.479)" fill="#e0e0e0"/><rect width="2.336" height="8.986" transform="translate(51.989 96.954)" fill="#f5f5f5"/><path d="M125.293,219.229a.742.742,0,1,1-.742-.742.742.742,0,0,1,.742.742" transform="translate(-68.218 -120.384)" fill="#fafafa"/><path d="M125.293,226.3a.742.742,0,1,1-.742-.742.742.742,0,0,1,.742.742" transform="translate(-68.218 -124.281)" fill="#fafafa"/><rect width="2.295" height="6.903" transform="translate(60.043 98.103)" fill="#f5f5f5"/><rect width="2.295" height="6.903" transform="translate(63.358 98.103)" fill="#f5f5f5"/><rect width="2.295" height="6.903" transform="translate(66.673 98.103)" fill="#f5f5f5"/><rect width="2.295" height="6.903" transform="translate(69.988 98.103)" fill="#f5f5f5"/><rect width="2.295" height="6.903" transform="translate(73.303 98.103)" fill="#f5f5f5"/><rect width="2.295" height="6.903" transform="translate(76.618 98.103)" fill="#f5f5f5"/><rect width="2.295" height="6.903" transform="translate(79.933 98.103)" fill="#f5f5f5"/><rect width="2.295" height="6.903" transform="translate(83.248 98.103)" fill="#f5f5f5"/><rect width="2.295" height="6.903" transform="translate(86.563 98.103)" fill="#f5f5f5"/><rect width="2.295" height="6.903" transform="translate(89.878 98.103)" fill="#f5f5f5"/><rect width="41.708" height="11.742" transform="translate(50.825 114.286)" fill="#e0e0e0"/><rect width="2.336" height="8.986" transform="translate(51.989 115.762)" fill="#f5f5f5"/><path d="M125.293,261.116a.742.742,0,1,1-.742-.742.742.742,0,0,1,.742.742" transform="translate(-68.218 -143.464)" fill="#fafafa"/><path d="M125.293,268.187a.742.742,0,1,1-.742-.742.742.742,0,0,1,.742.742" transform="translate(-68.218 -147.36)" fill="#fafafa"/><rect width="2.295" height="6.903" transform="translate(60.043 116.91)" fill="#f5f5f5"/><rect width="2.295" height="6.903" transform="translate(63.358 116.91)" fill="#f5f5f5"/><rect width="2.295" height="6.903" transform="translate(66.673 116.91)" fill="#f5f5f5"/><rect width="2.295" height="6.903" transform="translate(69.988 116.91)" fill="#f5f5f5"/><rect width="2.295" height="6.903" transform="translate(73.303 116.91)" fill="#f5f5f5"/><rect width="2.295" height="6.903" transform="translate(76.618 116.91)" fill="#f5f5f5"/><rect width="2.295" height="6.903" transform="translate(79.933 116.91)" fill="#f5f5f5"/><rect width="2.295" height="6.903" transform="translate(83.248 116.91)" fill="#f5f5f5"/><rect width="2.295" height="6.903" transform="translate(86.563 116.91)" fill="#f5f5f5"/><rect width="2.295" height="6.903" transform="translate(89.878 116.91)" fill="#f5f5f5"/><rect width="41.708" height="11.742" transform="translate(50.825 133.093)" fill="#e0e0e0"/><rect width="2.336" height="8.986" transform="translate(51.989 134.569)" fill="#f5f5f5"/><path d="M125.293,303a.742.742,0,1,1-.742-.742.742.742,0,0,1,.742.742" transform="translate(-68.218 -166.543)" fill="#fafafa"/><path d="M125.293,310.074a.742.742,0,1,1-.742-.742.742.742,0,0,1,.742.742" transform="translate(-68.218 -170.439)" fill="#fafafa"/><rect width="2.295" height="6.903" transform="translate(60.043 135.717)" fill="#f5f5f5"/><rect width="2.295" height="6.903" transform="translate(63.358 135.717)" fill="#f5f5f5"/><rect width="2.295" height="6.903" transform="translate(66.673 135.717)" fill="#f5f5f5"/><rect width="2.295" height="6.903" transform="translate(69.988 135.717)" fill="#f5f5f5"/><rect width="2.295" height="6.903" transform="translate(73.303 135.717)" fill="#f5f5f5"/><rect width="2.295" height="6.903" transform="translate(76.618 135.717)" fill="#f5f5f5"/><rect width="2.295" height="6.903" transform="translate(79.933 135.717)" fill="#f5f5f5"/><rect width="2.295" height="6.903" transform="translate(83.248 135.717)" fill="#f5f5f5"/><rect width="2.295" height="6.903" transform="translate(86.563 135.717)" fill="#f5f5f5"/><rect width="2.295" height="6.903" transform="translate(89.878 135.717)" fill="#f5f5f5"/><rect width="41.708" height="11.742" transform="translate(50.825 151.901)" fill="#e0e0e0"/><rect width="2.336" height="8.986" transform="translate(51.989 153.377)" fill="#f5f5f5"/><path d="M125.293,344.888a.742.742,0,1,1-.742-.742.742.742,0,0,1,.742.742" transform="translate(-68.218 -189.621)" fill="#fafafa"/><path d="M125.293,351.96a.742.742,0,1,1-.742-.742.742.742,0,0,1,.742.742" transform="translate(-68.218 -193.518)" fill="#fafafa"/><rect width="2.295" height="6.903" transform="translate(60.043 154.525)" fill="#f5f5f5"/><rect width="2.295" height="6.903" transform="translate(63.358 154.525)" fill="#f5f5f5"/><rect width="2.295" height="6.903" transform="translate(66.673 154.525)" fill="#f5f5f5"/><rect width="2.295" height="6.903" transform="translate(69.988 154.525)" fill="#f5f5f5"/><rect width="2.295" height="6.903" transform="translate(73.303 154.525)" fill="#f5f5f5"/><rect width="2.295" height="6.903" transform="translate(76.618 154.525)" fill="#f5f5f5"/><rect width="2.295" height="6.903" transform="translate(79.933 154.525)" fill="#f5f5f5"/><rect width="2.295" height="6.903" transform="translate(83.248 154.525)" fill="#f5f5f5"/><rect width="2.295" height="6.903" transform="translate(86.563 154.525)" fill="#f5f5f5"/><rect width="2.295" height="6.903" transform="translate(89.878 154.525)" fill="#f5f5f5"/><rect width="41.708" height="11.742" transform="translate(50.825 170.708)" fill="#e0e0e0"/><rect width="2.336" height="8.986" transform="translate(51.989 172.184)" fill="#f5f5f5"/><path d="M125.293,386.775a.742.742,0,1,1-.742-.742.742.742,0,0,1,.742.742" transform="translate(-68.218 -212.701)" fill="#fafafa"/><path d="M125.293,393.847a.742.742,0,1,1-.742-.742.742.742,0,0,1,.742.742" transform="translate(-68.218 -216.597)" fill="#fafafa"/><rect width="2.295" height="6.903" transform="translate(60.043 173.332)" fill="#f5f5f5"/><rect width="2.295" height="6.903" transform="translate(63.358 173.332)" fill="#f5f5f5"/><rect width="2.295" height="6.903" transform="translate(66.673 173.332)" fill="#f5f5f5"/><rect width="2.295" height="6.903" transform="translate(69.988 173.332)" fill="#f5f5f5"/><rect width="2.295" height="6.903" transform="translate(73.303 173.332)" fill="#f5f5f5"/><rect width="2.295" height="6.903" transform="translate(76.618 173.332)" fill="#f5f5f5"/><rect width="2.295" height="6.903" transform="translate(79.933 173.332)" fill="#f5f5f5"/><rect width="2.295" height="6.903" transform="translate(83.248 173.332)" fill="#f5f5f5"/><rect width="2.295" height="6.903" transform="translate(86.563 173.332)" fill="#f5f5f5"/><rect width="2.295" height="6.903" transform="translate(89.878 173.332)" fill="#f5f5f5"/><path d="M135.646,114.987a1.58,1.58,0,0,1-.046-.362c-.018-.238-.032-.59-.044-1.043s-.022-1.007-.053-1.647a10.474,10.474,0,0,0-.288-2.14,7.657,7.657,0,0,0-1.114-2.343,5.186,5.186,0,0,0-2.281-1.832,11.057,11.057,0,0,0-3.237-.657l-3.592-.31c-4.923-.427-9.387-.7-12.622-.764-1.617-.036-2.927-.028-3.832-.025l-1.043.009a1.693,1.693,0,0,1-.365-.017,1.675,1.675,0,0,1,.362-.044l1.042-.065c.905-.039,2.217-.08,3.838-.071,3.243.007,7.718.249,12.645.676l3.594.317a11.182,11.182,0,0,1,3.317.695,5.411,5.411,0,0,1,2.377,1.944,7.76,7.76,0,0,1,1.116,2.433,10.251,10.251,0,0,1,.25,2.189c.016.645.007,1.2,0,1.652,0,.427-.009.772-.012,1.043a1.748,1.748,0,0,1-.015.364" transform="translate(-59.028 -57.123)" fill="#e0e0e0"/><path d="M122.739,119.362a1.483,1.483,0,0,1-.028-.343c0-.257-.009-.582-.014-.982,0-.425,0-.947-.052-1.545a4.755,4.755,0,0,0-.513-1.929,3.689,3.689,0,0,0-1.88-1.443,5.172,5.172,0,0,0-2.739-.277,4.644,4.644,0,0,0-1.413.48,2.687,2.687,0,0,0-1.095,1.036,1.472,1.472,0,0,0,0,1.457,1.951,1.951,0,0,0,1.238.931,1.573,1.573,0,0,0,1.448-.418,2.148,2.148,0,0,0,.652-1.382,2.1,2.1,0,0,0-.433-1.414,3.1,3.1,0,0,0-1.1-.97,4.091,4.091,0,0,0-1.374-.354c-.471-.07-.928-.132-1.371-.182-.887-.1-1.717-.158-2.476-.19-1.518-.061-2.751-.039-3.6-.04l-.982,0a1.427,1.427,0,0,1-.343-.022,1.478,1.478,0,0,1,.341-.039l.98-.052c.851-.035,2.085-.089,3.613-.056.764.018,1.6.064,2.5.154.448.045.909.1,1.383.168.238.038.473.067.724.113a2.821,2.821,0,0,1,.738.256,3.367,3.367,0,0,1,1.206,1.052,2.39,2.39,0,0,1,.493,1.6,2.438,2.438,0,0,1-.74,1.577,1.874,1.874,0,0,1-1.721.495,2.246,2.246,0,0,1-1.435-1.08,1.774,1.774,0,0,1,0-1.741,2.964,2.964,0,0,1,1.218-1.15,4.88,4.88,0,0,1,1.505-.5,5.394,5.394,0,0,1,2.878.319,3.884,3.884,0,0,1,1.973,1.57,4.846,4.846,0,0,1,.5,2.022c.031.61.014,1.133,0,1.559-.017.4-.031.723-.042.981a1.467,1.467,0,0,1-.033.342" transform="translate(-58.774 -61.498)" fill="#e0e0e0"/><path d="M139.051,113.632a1.972,1.972,0,0,1-.088-.388c-.046-.256-.119-.632-.223-1.114a21.845,21.845,0,0,0-1.233-3.975,11.6,11.6,0,0,0-3.628-4.864,6.832,6.832,0,0,0-3.32-1.263,34.709,34.709,0,0,0-3.909-.21c-5.389-.1-10.275-.082-13.809-.223-1.767-.062-3.2-.147-4.182-.219l-1.135-.1a1.99,1.99,0,0,1-.394-.055,1.934,1.934,0,0,1,.4-.006l1.137.041c.987.036,2.415.088,4.181.123,3.531.086,8.413.033,13.81.135a33.9,33.9,0,0,1,3.945.219,7.082,7.082,0,0,1,3.445,1.333,10.545,10.545,0,0,1,2.3,2.432,14.072,14.072,0,0,1,1.36,2.571,19.959,19.959,0,0,1,1.151,4.034c.087.488.141.868.168,1.128a1.965,1.965,0,0,1,.028.4" transform="translate(-59.028 -55.768)" fill="#e0e0e0"/><rect width="40.56" height="5.888" transform="translate(51.398 35.632)" fill="#e0e0e0"/><rect width="22.083" height="2.944" transform="translate(60.319 38.576)" fill="#f5f5f5"/><g transform="matrix(1, 0, 0, 1, 0, -24.35)" filter="url(#e)"><path d="M361.847,27.13l26.819-4.1A27.131,27.131,0,1,1,364.826.164Z" transform="translate(-184.43 24.35)" fill="#f5f5f5"/></g><g transform="matrix(1, 0, 0, 1, 0, -24.35)" filter="url(#g)"><path d="M410.521.556l-3.256,20.79,20.407-3.832s-3-11.651-17.151-16.957" transform="translate(-224.4 24.05)" fill="#529d2e"/></g><g transform="matrix(1, 0, 0, 1, 0, -24.35)" filter="url(#i)"><path d="M18.314,28.867A14.618,14.618,0,1,1,33.164,43.315,14.671,14.671,0,0,1,18.314,28.867m21.6-.348a6.989,6.989,0,1,0-6.876,7.133,7.012,7.012,0,0,0,6.876-7.133" transform="translate(-10.09 16.67)" fill="#f5f5f5"/></g><path d="M18.315,28.871A14.67,14.67,0,0,1,32.7,13.952l.123,7.662a7.021,7.021,0,0,0,.224,14.041l.122,7.662a14.665,14.665,0,0,1-14.85-14.447" transform="translate(-10.09 -7.687)" fill="#529d2e"/><path d="M47.422,11.324a16.7,16.7,0,0,1,17.1,16.637L55.6,28.1c-.072-4.529-3.518-7.38-8.026-7.307Z" transform="translate(-26.129 -6.238)" fill="#dbf049"/><path d="M548.352,341.1A14.618,14.618,0,1,1,563.2,355.551,14.671,14.671,0,0,1,548.352,341.1m21.6-.349a6.989,6.989,0,1,0-6.876,7.133,7.012,7.012,0,0,0,6.876-7.133" transform="translate(-302.136 -179.724)" fill="#f5f5f5"/><path d="M548.352,341.107a14.67,14.67,0,0,1,14.381-14.919l.123,7.662a7.021,7.021,0,0,0,.224,14.041l.122,7.662a14.665,14.665,0,0,1-14.85-14.447" transform="translate(-302.136 -179.727)" fill="#e0e0e0"/><path d="M577.459,323.56a16.7,16.7,0,0,1,17.1,16.637l-8.924.144c-.072-4.529-3.518-7.38-8.026-7.307Z" transform="translate(-318.175 -178.277)" fill="#ebebeb"/><rect width="60.821" height="69.414" transform="translate(233.759 17.01)" fill="#fff"/><path d="M581.294,107.158s0-.113-.006-.33,0-.541-.006-.964c0-.852-.006-2.109-.012-3.747-.006-3.277-.015-8.073-.026-14.163-.013-12.17-.03-29.511-.051-50.21l.1.1-60.815.013h-.006l.113-.113c-.006,25.592-.012,49.457-.018,69.414l-.1-.1,44.114.049,12.334.025,3.251.011c.736,0,1.122.011,1.122.011s-.371.007-1.1.011l-3.232.011-12.313.025-44.175.049h-.1v-.1c0-19.957-.011-43.822-.018-69.414v-.113h.119l60.815.013h.1v.1c-.021,20.725-.038,38.089-.051,50.274-.011,6.08-.02,10.868-.026,14.14-.005,1.629-.009,2.88-.012,3.727q0,.628-.006.954c0,.213-.006.319-.006.319" transform="translate(-286.714 -20.734)" fill="#263238"/><path d="M585.361,114.9c-.02.041-.673-.337-1.955-.743a12.572,12.572,0,0,0-5.609-.416,12.256,12.256,0,0,0-3.7,1.189,17.447,17.447,0,0,0-3.637,2.616c-1.193,1.052-2.377,2.247-3.742,3.352a12.91,12.91,0,0,1-4.777,2.585,7.224,7.224,0,0,1-2.789.168,9.051,9.051,0,0,1-2.584-.8,45.212,45.212,0,0,1-4.329-2.574,13.5,13.5,0,0,0-4.072-1.826,12.1,12.1,0,0,0-3.873-.3,12.476,12.476,0,0,0-5.346,1.741c-1.147.7-1.688,1.228-1.719,1.191a2.7,2.7,0,0,1,.388-.382,9.33,9.33,0,0,1,1.245-.947,12.2,12.2,0,0,1,9.386-1.642,13.719,13.719,0,0,1,4.191,1.833,46.246,46.246,0,0,0,4.3,2.532,7.365,7.365,0,0,0,5.1.6,12.61,12.61,0,0,0,4.624-2.5c1.344-1.08,2.534-2.268,3.744-3.322a17.505,17.505,0,0,1,3.735-2.637,12.388,12.388,0,0,1,9.514-.618,9.884,9.884,0,0,1,1.436.618,2.683,2.683,0,0,1,.469.278" transform="translate(-296.008 -62.445)" fill="#529d2e"/><rect width="5.171" height="13.984" transform="translate(250.5 61.776)" fill="#529d2e"/><rect width="5.171" height="13.984" transform="translate(272.442 61.776)" fill="#529d2e"/><rect width="5.171" height="22.197" transform="translate(279.756 53.564)" fill="#529d2e"/><rect width="5.171" height="4.707" transform="translate(243.809 71.358)" fill="#529d2e"/><rect width="5.171" height="7.67" transform="translate(257.814 68.091)" fill="#529d2e"/><rect width="5.171" height="9.43" transform="translate(265.128 66.331)" fill="#529d2e"/><path d="M563.02,172.144a18.875,18.875,0,0,1-5.587,0,18.872,18.872,0,0,1,5.587,0" transform="translate(-307.141 -94.735)" fill="#263238"/><path d="M548.69,172.144a18.878,18.878,0,0,1-5.588,0,18.875,18.875,0,0,1,5.588,0" transform="translate(-299.244 -94.735)" fill="#263238"/><path d="M629.087,172.144a24.091,24.091,0,0,1-6.316,0,24.087,24.087,0,0,1,6.316,0" transform="translate(-343.141 -94.735)" fill="#263238"/><path d="M611.978,172.144a24.094,24.094,0,0,1-6.316,0,24.09,24.09,0,0,1,6.316,0" transform="translate(-333.714 -94.735)" fill="#263238"/><path d="M595.134,172.144a18.833,18.833,0,0,1-5.587,0,18.871,18.871,0,0,1,5.587,0" transform="translate(-324.835 -94.735)" fill="#263238"/><path d="M578.3,172.144a18.837,18.837,0,0,1-5.588,0,18.875,18.875,0,0,1,5.588,0" transform="translate(-315.561 -94.735)" fill="#263238"/><rect width="42.258" height="17.55" transform="translate(243.687 27.129)" fill="#e0e0e0"/><path d="M557.44,70.356a1.97,1.97,0,1,1-1.97-1.97,1.97,1.97,0,0,1,1.97,1.97" transform="translate(-304.974 -37.68)" fill="#263238"/><rect width="13.727" height="0.762" transform="translate(254.436 31.315)" fill="#263238"/><rect width="26.703" height="0.762" transform="translate(254.436 33.047)" fill="#fff"/><path d="M557.44,83.845a1.97,1.97,0,1,1-1.97-1.97,1.97,1.97,0,0,1,1.97,1.97" transform="translate(-304.974 -45.112)" fill="#529d2e"/><rect width="7.009" height="0.762" transform="translate(254.437 37.372)" fill="#529d2e"/><rect width="26.703" height="0.762" transform="translate(254.436 39.104)" fill="#fff"/><rect width="51.115" height="36.504" transform="matrix(0.009, -1, 1, 0.009, 266.28, 155.154)" fill="#fff"/><path d="M593.033,282.693s0-.078,0-.236,0-.4,0-.709c0-.634.006-1.563.011-2.77.014-2.434.035-5.984.062-10.476.065-9.015.156-21.8.264-36.923v-.106h.107l36.5.3h.121v.117c-.172,19.139-.332,36.841-.461,51.113v.1h-.1l-26.594-.278-7.341-.087-1.918-.027c-.432-.007-.649-.016-.649-.016s.231,0,.669,0l1.936.006,7.363.039,26.536.178-.1.094c.116-14.273.261-31.975.417-51.114l.116.118h0l-36.5-.324.107-.106c-.151,15.091-.279,27.855-.369,36.852-.051,4.5-.091,8.061-.119,10.5-.016,1.216-.028,2.153-.037,2.791-.005.314-.009.554-.012.721s-.009.248-.009.248" transform="translate(-326.753 -127.54)" fill="#263238"/><path d="M604.388,259.29c0-.118,6.046-.161,13.5-.1s13.5.211,13.5.329-6.045.161-13.5.1-13.5-.211-13.5-.329" transform="translate(-333.012 -142.797)" fill="#263238"/><path d="M604.319,267.328c0-.118,6.046-.161,13.5-.1s13.5.211,13.5.329-6.045.161-13.5.1-13.5-.211-13.5-.329" transform="translate(-332.974 -147.225)" fill="#263238"/><path d="M604.25,275.367c0-.118,6.046-.161,13.5-.1s13.5.212,13.5.329-6.044.161-13.5.1-13.5-.211-13.5-.329" transform="translate(-332.936 -151.655)" fill="#263238"/><path d="M604.181,283.4c0-.118,6.046-.161,13.5-.1s13.5.211,13.5.329-6.045.161-13.5.1-13.5-.211-13.5-.329" transform="translate(-332.898 -156.084)" fill="#263238"/><path d="M604.112,291.443c0-.118,6.046-.161,13.5-.1s13.5.211,13.5.329-6.045.161-13.5.1-13.5-.211-13.5-.329" transform="translate(-332.86 -160.512)" fill="#263238"/><rect width="4.344" height="13.569" transform="translate(276.573 135.12)" fill="#455a64"/><rect width="4.344" height="10.469" transform="translate(283.06 138.22)" fill="#455a64"/><rect width="4.344" height="6.217" transform="translate(289.065 142.472)" fill="#455a64"/><path d="M521.624,212.114a.781.781,0,0,1,.157-.012l.46-.011,1.77-.022,6.509-.037L551.992,212l19.188.026h.113v.09c-.021,2.737-.038,4.972-.049,6.542-.013.763-.023,1.363-.031,1.791-.007.194-.012.348-.016.467a.081.081,0,1,1-.034,0c0-.12-.009-.274-.016-.467-.007-.428-.018-1.028-.03-1.791-.012-1.57-.029-3.805-.049-6.542l.113.09-19.188.027-21.473-.034-6.509-.037-1.77-.022-.46-.012a.781.781,0,0,1-.157-.012" transform="translate(-287.41 -116.808)" fill="#263238"/><path d="M502.712,63.768a1.394,1.394,0,0,1-.282.022l-.811.02-3.011.035-10.16.039.115-.117c.007.759.014,1.556.022,2.367.038,4.594.044,8.753.022,11.763-.013,1.506-.033,2.723-.062,3.565-.015.421-.032.748-.05.969a1.81,1.81,0,0,1-.048.336s.017-1.859-.006-4.87c-.023-3.032-.055-7.178-.09-11.761-.007-.81-.013-1.607-.019-2.366v-.118h.117l10.16.039,3.011.035.811.02a1.438,1.438,0,0,1,.282.022" transform="translate(-269.066 -35.072)" fill="#263238"/><path d="M520.1,62.5a1.152,1.152,0,1,1-1.153-1.153A1.152,1.152,0,0,1,520.1,62.5" transform="translate(-285.3 -33.8)" fill="#263238"/><path d="M631.78,230.8a1.153,1.153,0,1,1-1.153-1.153,1.153,1.153,0,0,1,1.153,1.153" transform="translate(-346.835 -126.532)" fill="#263238"/><path d="M319.822,103.755H163.905a4.867,4.867,0,0,0-4.867,4.867V218.75a4.867,4.867,0,0,0,4.867,4.867h59.84s3.807,11.771-7.994,17.861h55.955s-13.323-4.567-9.9-17.861h58.014a4.867,4.867,0,0,0,4.867-4.867V108.622a4.867,4.867,0,0,0-4.867-4.867" transform="translate(-87.629 -57.168)" fill="#455a64"/><path d="M341.807,343.767A3,3,0,0,1,337.576,348a1.082,1.082,0,0,1-.26-.261,3,3,0,0,1,4.23-4.23,1.068,1.068,0,0,1,.261.261" transform="translate(-185.49 -188.901)" fill="#263238"/><path d="M325.3,205.946H165.017V112.6a4.354,4.354,0,0,1,4.354-4.354H320.945A4.354,4.354,0,0,1,325.3,112.6Z" transform="translate(-90.923 -59.644)" fill="#fff"/><path d="M325.3,116.366H165.017v-4.008a4.11,4.11,0,0,1,4.11-4.11h152.8a3.375,3.375,0,0,1,3.375,3.375Z" transform="translate(-90.923 -59.644)" fill="#ebebeb"/><path d="M176.129,116.286A1.126,1.126,0,1,1,175,115.16a1.126,1.126,0,0,1,1.126,1.126" transform="translate(-95.805 -63.452)" fill="#e0e0e0"/><path d="M183.6,116.286a1.126,1.126,0,1,1-1.126-1.126,1.126,1.126,0,0,1,1.126,1.126" transform="translate(-99.924 -63.452)" fill="#e0e0e0"/><path d="M190.714,116.286a1.126,1.126,0,1,1-1.126-1.126,1.126,1.126,0,0,1,1.126,1.126" transform="translate(-103.841 -63.452)" fill="#e0e0e0"/><path d="M333.428,370.623c0,.052-22.187.093-49.55.093s-49.555-.042-49.555-.093,22.182-.093,49.555-.093,49.55.042,49.55.093" transform="translate(-129.11 -204.159)" fill="#263238"/><path d="M225.173,249.576l-44.7.129.088,30.688,37.054-.106,5.024-.014,2.619-.008Z" transform="translate(-99.44 -137.514)" fill="#f5f5f5"/><path d="M187.968,282.345c-.054,0-.113-5.206-.131-11.626s.01-11.628.064-11.628.113,5.2.131,11.627-.01,11.627-.064,11.627" transform="translate(-103.494 -142.757)" fill="#263238"/><path d="M226.722,303.43c0,.054-8.717.123-19.468.154s-19.47.013-19.47-.041,8.715-.123,19.47-.154,19.469-.012,19.469.042" transform="translate(-103.467 -167.156)" fill="#ebebeb"/><path d="M226.7,295.831c0,.054-8.717.123-19.468.154s-19.47.013-19.47-.041,8.715-.123,19.47-.154,19.469-.012,19.469.042" transform="translate(-103.455 -162.969)" fill="#ebebeb"/><path d="M226.678,288.233c0,.054-8.717.123-19.468.154s-19.47.012-19.47-.042,8.715-.123,19.47-.154,19.469-.012,19.469.042" transform="translate(-103.443 -158.783)" fill="#ebebeb"/><path d="M226.656,280.635c0,.054-8.717.123-19.468.154s-19.47.013-19.47-.041,8.715-.123,19.47-.154,19.469-.012,19.469.042" transform="translate(-103.43 -154.596)" fill="#ebebeb"/><path d="M226.633,273.037c0,.054-8.717.123-19.468.154s-19.47.013-19.47-.042,8.715-.123,19.47-.154,19.469-.013,19.469.041" transform="translate(-103.418 -150.41)" fill="#ebebeb"/><path d="M226.612,265.438c0,.054-8.717.123-19.468.154s-19.47.013-19.47-.041,8.715-.123,19.47-.154,19.469-.012,19.469.042" transform="translate(-103.406 -146.223)" fill="#ebebeb"/><path d="M226.59,257.84c0,.054-8.717.123-19.468.154s-19.47.013-19.47-.041,8.715-.123,19.47-.154,19.469-.012,19.469.042" transform="translate(-103.394 -142.037)" fill="#ebebeb"/><rect width="2.792" height="5.317" transform="translate(86.944 134.264) rotate(-0.166)" fill="#529d2e"/><rect width="2.792" height="5.317" transform="translate(107.223 134.206) rotate(-0.166)" fill="#529d2e"/><rect width="2.792" height="9.227" transform="translate(92.41 130.338) rotate(-0.166)" fill="#529d2e"/><rect width="2.792" height="11.627" transform="translate(102.634 127.909) rotate(-0.166)" fill="#529d2e"/><rect width="2.792" height="18.691" transform="translate(97.562 120.859) rotate(-0.166)" fill="#529d2e"/><rect width="2.792" height="15.234" transform="translate(112.605 124.273) rotate(-0.166)" fill="#529d2e"/><path d="M222.513,310.586c0,.054-7.662.12-17.112.147s-17.114.006-17.114-.048,7.661-.119,17.114-.147,17.113-.005,17.113.049" transform="translate(-103.744 -171.097)" fill="#263238"/><path d="M179.569,142.529V187.6h97.49V142.529Z" transform="translate(-98.941 -78.532)" fill="#f5f5f5"/><path d="M194.252,211.861v1.423h-.147v-1.293h-.335v-.13Z" transform="translate(-106.766 -116.734)" fill="#263238"/><path d="M195.6,212.558c0-.453.238-.724.567-.724s.569.271.569.724-.24.723-.569.723-.567-.27-.567-.723m.986,0c0-.38-.171-.59-.419-.59s-.418.209-.418.59.171.589.418.589.419-.209.419-.589" transform="translate(-107.776 -116.719)" fill="#263238"/><path d="M194.853,193.435v.13h-1v-.1l.591-.58c.161-.158.191-.254.191-.351,0-.165-.116-.267-.334-.267a.481.481,0,0,0-.388.159l-.1-.09a.64.64,0,0,1,.5-.2c.289,0,.471.146.471.384a.585.585,0,0,1-.233.445l-.484.476Z" transform="translate(-106.789 -105.862)" fill="#263238"/><path d="M196.523,192.854c0-.454.238-.724.567-.724s.569.27.569.724-.24.724-.569.724-.567-.271-.567-.724m.986,0c0-.38-.171-.589-.419-.589s-.419.209-.419.589.171.59.419.59.419-.209.419-.59" transform="translate(-108.282 -105.862)" fill="#263238"/><path d="M194.8,173.467c0,.238-.173.421-.516.421a.74.74,0,0,1-.512-.183l.071-.116a.622.622,0,0,0,.441.164c.236,0,.366-.11.366-.286s-.12-.282-.384-.282h-.1v-.108l.395-.494h-.728v-.13h.915v.1l-.4.506c.305.016.458.177.458.4" transform="translate(-106.766 -95.02)" fill="#263238"/><path d="M196.523,173.15c0-.453.238-.724.567-.724s.569.271.569.724-.24.724-.569.724-.567-.27-.567-.724m.986,0c0-.38-.171-.59-.419-.59s-.419.209-.419.59.171.589.419.589.419-.209.419-.589" transform="translate(-108.282 -95.005)" fill="#263238"/><path d="M208.833,222.955c0-.454.238-.724.567-.724s.569.27.569.724-.24.723-.569.723-.567-.27-.567-.723m.986,0c0-.38-.171-.59-.419-.59s-.419.209-.419.59.171.589.419.589.419-.209.419-.589" transform="translate(-115.065 -122.447)" fill="#263238"/><path d="M231.7,222.258v1.423h-.147v-1.293h-.335v-.13Z" transform="translate(-127.398 -122.462)" fill="#263238"/><path d="M255.737,223.536v.13h-1v-.1l.591-.58c.161-.158.191-.254.191-.351,0-.165-.116-.267-.333-.267a.483.483,0,0,0-.388.159l-.1-.089a.639.639,0,0,1,.5-.2c.289,0,.472.147.472.384a.586.586,0,0,1-.234.445l-.484.475Z" transform="translate(-140.335 -122.447)" fill="#263238"/><path d="M279.122,223.272c0,.238-.173.421-.516.421a.739.739,0,0,1-.512-.183l.071-.116a.622.622,0,0,0,.441.164c.236,0,.366-.11.366-.286s-.12-.282-.384-.282h-.1v-.108l.395-.494h-.728v-.13h.915v.1l-.4.506c.305.016.458.177.458.4" transform="translate(-153.227 -122.462)" fill="#263238"/><path d="M302.9,223.307h-.285v.374h-.146v-.374h-.8V223.2l.754-.944h.163l-.728.919h.618v-.329h.142v.329h.285Z" transform="translate(-166.218 -122.462)" fill="#263238"/><path d="M326.054,223.263c0,.242-.169.431-.516.431a.736.736,0,0,1-.511-.183l.071-.116a.615.615,0,0,0,.437.165c.242,0,.37-.118.37-.291s-.114-.3-.476-.3h-.3l.074-.713h.779v.13h-.651l-.049.454h.183c.429,0,.591.169.591.421" transform="translate(-179.087 -122.463)" fill="#263238"/><path d="M349.67,223.241a.443.443,0,0,1-.485.437c-.379,0-.584-.262-.584-.711,0-.484.264-.736.65-.736a.656.656,0,0,1,.338.077l-.059.118a.5.5,0,0,0-.276-.067c-.307,0-.5.2-.5.584a1.147,1.147,0,0,0,.006.116.454.454,0,0,1,.435-.244.431.431,0,0,1,.48.427m-.145,0c0-.187-.138-.307-.357-.307a.33.33,0,0,0-.366.311c0,.157.13.3.376.3a.311.311,0,0,0,.347-.309" transform="translate(-192.076 -122.447)" fill="#263238"/><path d="M372.993,222.258v.1l-.6,1.319h-.159l.586-1.293h-.732v.266h-.145v-.4Z" transform="translate(-204.94 -122.462)" fill="#263238"/><path d="M284.168,213.429c0,.076-16.47.138-36.781.138s-36.785-.062-36.785-.138,16.466-.138,36.785-.138,36.781.062,36.781.138" transform="translate(-116.04 -117.521)" fill="#263238"/><path d="M284.168,193.623c0,.076-16.47.138-36.781.138s-36.785-.062-36.785-.138,16.466-.138,36.785-.138,36.781.062,36.781.138" transform="translate(-116.04 -106.609)" fill="#263238"/><path d="M284.168,173.818c0,.076-16.47.138-36.781.138s-36.785-.062-36.785-.138,16.466-.138,36.785-.138,36.781.062,36.781.138" transform="translate(-116.04 -95.696)" fill="#263238"/><path d="M209.443,212.729a.472.472,0,1,1-.472-.472.472.472,0,0,1,.472.472" transform="translate(-114.881 -116.952)" fill="#529d2e"/><path d="M233,212.729a.472.472,0,1,1-.472-.472.472.472,0,0,1,.472.472" transform="translate(-127.86 -116.952)" fill="#529d2e"/><path d="M256.556,212.729a.472.472,0,1,1-.472-.472.472.472,0,0,1,.472.472" transform="translate(-140.839 -116.952)" fill="#529d2e"/><path d="M280.112,212.729a.472.472,0,1,1-.472-.472.472.472,0,0,1,.472.472" transform="translate(-153.819 -116.952)" fill="#529d2e"/><path d="M303.669,212.729a.472.472,0,1,1-.472-.472.472.472,0,0,1,.472.472" transform="translate(-166.798 -116.952)" fill="#529d2e"/><path d="M350.78,212.729a.473.473,0,1,1-.472-.472.472.472,0,0,1,.472.472" transform="translate(-192.756 -116.952)" fill="#529d2e"/><path d="M327.225,212.729a.472.472,0,1,1-.472-.472.472.472,0,0,1,.472.472" transform="translate(-179.777 -116.952)" fill="#529d2e"/><path d="M374.338,212.729a.472.472,0,1,1-.472-.472.472.472,0,0,1,.472.472" transform="translate(-205.736 -116.952)" fill="#529d2e"/><path d="M220.576,213.218a.31.31,0,1,1-.31-.31.31.31,0,0,1,.31.31" transform="translate(-121.193 -117.31)" fill="#e0e0e0"/><path d="M244.221,213.218a.31.31,0,1,1-.31-.31.31.31,0,0,1,.31.31" transform="translate(-134.221 -117.31)" fill="#e0e0e0"/><path d="M267.866,213.218a.31.31,0,1,1-.31-.31.31.31,0,0,1,.31.31" transform="translate(-147.25 -117.31)" fill="#e0e0e0"/><path d="M291.511,213.218a.31.31,0,1,1-.31-.31.31.31,0,0,1,.31.31" transform="translate(-160.278 -117.31)" fill="#e0e0e0"/><path d="M315.156,213.218a.31.31,0,1,1-.31-.31.31.31,0,0,1,.31.31" transform="translate(-173.306 -117.31)" fill="#e0e0e0"/><path d="M338.8,213.218a.31.31,0,1,1-.31-.31.31.31,0,0,1,.31.31" transform="translate(-186.334 -117.31)" fill="#e0e0e0"/><path d="M362.446,213.218a.31.31,0,1,1-.31-.31.31.31,0,0,1,.31.31" transform="translate(-199.362 -117.31)" fill="#e0e0e0"/><path d="M232.843,203.422a1.159,1.159,0,1,1-1.159-1.159,1.159,1.159,0,0,1,1.159,1.159" transform="translate(-127.018 -111.445)" fill="#529d2e"/><path d="M253.4,191.294a1.159,1.159,0,1,1-1.159-1.159,1.159,1.159,0,0,1,1.159,1.159" transform="translate(-138.342 -104.763)" fill="#529d2e"/><path d="M278.9,192.371a1.159,1.159,0,1,1-1.159-1.158,1.159,1.159,0,0,1,1.159,1.158" transform="translate(-152.396 -105.357)" fill="#529d2e"/><path d="M303.807,170.325a1.159,1.159,0,1,1-1.159-1.159,1.159,1.159,0,0,1,1.159,1.159" transform="translate(-166.118 -93.209)" fill="#529d2e"/><path d="M327.068,184.346a1.159,1.159,0,1,1-1.159-1.159,1.158,1.158,0,0,1,1.159,1.159" transform="translate(-178.935 -100.934)" fill="#529d2e"/><path d="M350.625,188.079a1.159,1.159,0,1,1-1.158-1.158,1.158,1.158,0,0,1,1.158,1.158" transform="translate(-191.915 -102.992)" fill="#529d2e"/><path d="M286.239,186.448a1.678,1.678,0,0,1-.272,0,5.591,5.591,0,0,1-.791-.106,5.975,5.975,0,0,1-2.751-1.307,5.7,5.7,0,0,1-1.352-1.758,12.85,12.85,0,0,0-1.416-2.192,4.681,4.681,0,0,0-2.391-1.668,3.052,3.052,0,0,0-1.582.057,4.252,4.252,0,0,0-1.468.831,28.187,28.187,0,0,0-2.439,2.795,4.833,4.833,0,0,1-1.588,1.235,3.2,3.2,0,0,1-2.088.172,2.62,2.62,0,0,1-1.589-1.46,10.1,10.1,0,0,1-.686-2.112,12.184,12.184,0,0,0-.63-2.143,1.685,1.685,0,0,0-.677-.811,2.2,2.2,0,0,0-1.069-.207,17.9,17.9,0,0,0-2.326.41,6.768,6.768,0,0,1-1.227.14,2.772,2.772,0,0,1-1.247-.242,2.546,2.546,0,0,1-.99-.829,6.212,6.212,0,0,1-.606-1.126c-.335-.783-.559-1.6-.863-2.392a5.763,5.763,0,0,0-.559-1.12,2.042,2.042,0,0,0-.918-.765c-.1-.028-.191-.063-.289-.087l-.305-.028a1.1,1.1,0,0,0-.566.116,2.345,2.345,0,0,0-.847.884,10.831,10.831,0,0,0-.982,2.432c-.252.853-.465,1.726-.669,2.607-.338,1.458-.64,2.913-1.015,4.337a21.681,21.681,0,0,1-.651,2.1,5.475,5.475,0,0,1-1.1,1.909,1.527,1.527,0,0,1-1.044.462,2.122,2.122,0,0,1-1.069-.324,5.081,5.081,0,0,1-1.5-1.52,18.466,18.466,0,0,1-1.814-3.683,8.561,8.561,0,0,0-2.025-3.259,3.794,3.794,0,0,0-3.4-.83,5.741,5.741,0,0,0-1.618.713,10.957,10.957,0,0,0-1.413,1.021,18.806,18.806,0,0,0-2.358,2.372l0,.005,0,0a25.413,25.413,0,0,1-3.494,2.9,17.023,17.023,0,0,1-3.578,1.939,7.87,7.87,0,0,1-3.5.584,12.3,12.3,0,0,1-2.918-.706,27.494,27.494,0,0,1-3.79-1.733c-.419-.23-.735-.414-.945-.542s-.313-.2-.313-.2.114.057.329.174l.959.514a29.434,29.434,0,0,0,3.8,1.673,12.27,12.27,0,0,0,2.888.673,6.276,6.276,0,0,0,1.537-.067,9.211,9.211,0,0,0,1.89-.53,16.925,16.925,0,0,0,3.527-1.938,25.393,25.393,0,0,0,3.449-2.891l-.006.007a18.954,18.954,0,0,1,2.381-2.413,11.2,11.2,0,0,1,1.438-1.047,5.962,5.962,0,0,1,1.682-.745A4.036,4.036,0,0,1,241,177.6a8.781,8.781,0,0,1,2.1,3.351,18.238,18.238,0,0,0,1.793,3.631,4.837,4.837,0,0,0,1.419,1.44,1.856,1.856,0,0,0,.936.286,1.256,1.256,0,0,0,.852-.388,5.236,5.236,0,0,0,1.031-1.81,21.394,21.394,0,0,0,.641-2.075c.372-1.413.673-2.867,1.012-4.329.2-.884.418-1.761.674-2.624a11.044,11.044,0,0,1,1.013-2.5,2.6,2.6,0,0,1,.959-.986,1.382,1.382,0,0,1,.7-.144l.346.033c.113.027.224.067.335.1a2.312,2.312,0,0,1,1.045.865,6.028,6.028,0,0,1,.588,1.177c.308.806.531,1.625.856,2.386a3.177,3.177,0,0,0,1.461,1.819,3.835,3.835,0,0,0,2.315.088,17.832,17.832,0,0,1,2.365-.41,2.446,2.446,0,0,1,1.2.242,1.925,1.925,0,0,1,.781.926,12.3,12.3,0,0,1,.641,2.193,9.959,9.959,0,0,0,.661,2.063,2.387,2.387,0,0,0,1.442,1.345,2.981,2.981,0,0,0,1.934-.154,4.628,4.628,0,0,0,1.52-1.176,27.738,27.738,0,0,1,2.471-2.8,4.438,4.438,0,0,1,1.54-.86,3.236,3.236,0,0,1,1.676-.049,4.829,4.829,0,0,1,2.469,1.741,12.873,12.873,0,0,1,1.413,2.23,5.621,5.621,0,0,0,1.305,1.737,6.044,6.044,0,0,0,2.692,1.334,6.764,6.764,0,0,0,.781.132c.178.021.269.023.269.029" transform="translate(-117.638 -94.471)" fill="#529d2e"/><path d="M213.429,160.245c0,.076-4.107.138-9.171.138s-9.171-.062-9.171-.138,4.1-.138,9.171-.138,9.171.062,9.171.138" transform="translate(-107.491 -88.218)" fill="#263238"/><path d="M405.357,143.173v44.065h46.888V143.173Z" transform="translate(-223.348 -78.887)" fill="#f5f5f5"/><path d="M439.353,154.3a14.467,14.467,0,1,0,14.468,14.467A14.467,14.467,0,0,0,439.353,154.3m.218,23.136a8.887,8.887,0,1,1,8.887-8.887,8.887,8.887,0,0,1-8.887,8.887" transform="translate(-234.108 -85.016)" fill="#263238"/><path d="M457.6,154.308c0,1.539,0,3.615,0,5.356a8.891,8.891,0,0,1,8.468,11.582l5.243,1.422a14.461,14.461,0,0,0-13.71-18.36" transform="translate(-252.132 -85.022)" fill="#529d2e"/><path d="M430.684,169.937a8.886,8.886,0,0,1,5.268-8.116l-2.225-5a14.471,14.471,0,0,0-8.841,13.332c0,.2.007.405.016.607h5.822c-.025-.272-.039-.547-.039-.825" transform="translate(-234.108 -86.408)" fill="#455a64"/><path d="M454.086,198.224a8.911,8.911,0,0,1-1.88-.2c-.224,1.29-.646,3.788-.977,5.755A14.454,14.454,0,0,0,467.8,193.454l-5.243-1.422a8.89,8.89,0,0,1-8.47,6.192" transform="translate(-248.623 -105.808)" fill="#fcd03e"/><path d="M449.575,184.445h-.536v.691H448.3v-.691h-1.771v-.512l1.55-2.086h.8l-1.437,1.977h.883v-.615h.718v.615h.536Z" transform="translate(-246.033 -100.196)" fill="#263238"/><path d="M453.816,183.422c0-1.085.6-1.7,1.409-1.7s1.409.615,1.409,1.7-.6,1.7-1.409,1.7-1.409-.615-1.409-1.7m2.053,0c0-.747-.264-1.057-.644-1.057s-.638.31-.638,1.057.262,1.057.638,1.057.644-.31.644-1.057" transform="translate(-250.049 -100.127)" fill="#263238"/><path d="M460.792,182.671a.819.819,0,1,1,.817.907.818.818,0,0,1-.817-.907m1.16,0c0-.353-.136-.521-.343-.521s-.343.174-.343.521.141.521.343.521.343-.169.343-.521m1.616-.869h.559l-2.245,3.288h-.559Zm-.54,2.419a.82.82,0,1,1,.812.907.817.817,0,0,1-.812-.907m1.155,0c0-.348-.136-.521-.343-.521s-.343.169-.343.521.141.521.343.521.343-.174.343-.521" transform="translate(-253.892 -100.15)" fill="#263238"/><path d="M454.387,226.7c0,.076-5.36.137-11.971.137s-11.972-.062-11.972-.137,5.359-.137,11.972-.137,11.971.062,11.971.137" transform="translate(-237.171 -124.833)" fill="#263238"/><path d="M455.6,231.593c0,.076-2.973.137-6.639.137s-6.64-.062-6.64-.137,2.972-.137,6.64-.137,6.639.062,6.639.137" transform="translate(-243.713 -127.53)" fill="#263238"/><rect width="94.109" height="30.918" transform="translate(129.373 111.282)" fill="#fafafa"/><path d="M392.381,264c0,.055-15.993.1-35.717.1s-35.721-.044-35.721-.1,15.99-.1,35.721-.1,35.717.044,35.717.1" transform="translate(-176.837 -145.409)" fill="#ebebeb"/><path d="M392.381,272.153c0,.055-15.993.1-35.717.1s-35.721-.044-35.721-.1,15.99-.1,35.721-.1,35.717.044,35.717.1" transform="translate(-176.837 -149.899)" fill="#ebebeb"/><path d="M392.381,280.3c0,.055-15.993.1-35.717.1s-35.721-.044-35.721-.1,15.99-.1,35.721-.1,35.717.045,35.717.1" transform="translate(-176.837 -154.388)" fill="#ebebeb"/><path d="M392.381,288.448c0,.055-15.993.1-35.717.1s-35.721-.044-35.721-.1,15.99-.1,35.721-.1,35.717.044,35.717.1" transform="translate(-176.837 -158.877)" fill="#ebebeb"/><path d="M392.381,296.6c0,.055-15.993.1-35.717.1s-35.721-.044-35.721-.1,15.99-.1,35.721-.1,35.717.044,35.717.1" transform="translate(-176.837 -163.367)" fill="#ebebeb"/><path d="M385.456,278.437s-.049.057-.155.161a1.914,1.914,0,0,1-.6.33,3.2,3.2,0,0,1-2.607-.415,4.316,4.316,0,0,1-1.227-1.342,20.609,20.609,0,0,1-.935-1.865,5.816,5.816,0,0,0-1.4-1.946,3.223,3.223,0,0,0-1.213-.642,3.687,3.687,0,0,0-1.494-.071,6.041,6.041,0,0,0-2.85,1.31c-.851.666-1.6,1.486-2.514,2.229a6.136,6.136,0,0,1-3.45,1.471,3.546,3.546,0,0,1-1.976-.457,4.325,4.325,0,0,1-1.376-1.375,21.3,21.3,0,0,0-1.993-3.269,3.281,3.281,0,0,0-1.73-1.037,2.682,2.682,0,0,0-2.031.423,4.091,4.091,0,0,0-1.335,1.541,8.757,8.757,0,0,0-.632,1.926,10.7,10.7,0,0,1-.626,2,4.133,4.133,0,0,1-1.421,1.713,5.693,5.693,0,0,1-2.179.944,5.964,5.964,0,0,1-2.4.03,5.789,5.789,0,0,1-2.123-.908c-.627-.405-1.2-.855-1.791-1.257a5.615,5.615,0,0,0-1.93-.911,3.172,3.172,0,0,0-2.066.232,4.668,4.668,0,0,0-1.542,1.244,11.534,11.534,0,0,0-1.043,1.584,11.967,11.967,0,0,1-1.032,1.57,4.621,4.621,0,0,1-1.482,1.219,3.392,3.392,0,0,1-1.934.392,2.91,2.91,0,0,1-1.68-.813,4.013,4.013,0,0,1-.926-1.4,9.338,9.338,0,0,1-.423-1.5,6.448,6.448,0,0,0-.993-2.7,3.489,3.489,0,0,0-2.3-1.48,2.911,2.911,0,0,0-1.322.143,3.591,3.591,0,0,0-1.062.606c-1.206,1-1.786,2.211-2.681,2.911a3.851,3.851,0,0,1-2.4,1.045,2.272,2.272,0,0,1-.7-.107c-.148-.055-.22-.087-.22-.087a2.743,2.743,0,0,0,.919.154,3.817,3.817,0,0,0,2.335-1.06c.871-.7,1.432-1.9,2.655-2.937a3.718,3.718,0,0,1,1.1-.635,3.069,3.069,0,0,1,1.4-.158,3.641,3.641,0,0,1,2.412,1.53,4.475,4.475,0,0,1,.667,1.3c.153.467.255.952.364,1.443a9.173,9.173,0,0,0,.422,1.473,3.863,3.863,0,0,0,.894,1.338,2.712,2.712,0,0,0,1.564.755,3.168,3.168,0,0,0,1.8-.374,4.42,4.42,0,0,0,1.416-1.172A11.89,11.89,0,0,0,338.623,280a11.7,11.7,0,0,1,1.056-1.611,4.877,4.877,0,0,1,1.612-1.3,3.426,3.426,0,0,1,2.225-.253,5.846,5.846,0,0,1,2.015.944c.6.409,1.173.857,1.788,1.254a5.544,5.544,0,0,0,2.038.873,5.7,5.7,0,0,0,2.3-.03,5.448,5.448,0,0,0,2.086-.9,4.382,4.382,0,0,0,.8-.741,4.434,4.434,0,0,0,.551-.894,10.584,10.584,0,0,0,.616-1.966,8.9,8.9,0,0,1,.648-1.966,4.291,4.291,0,0,1,1.406-1.615,2.935,2.935,0,0,1,2.218-.456,3.5,3.5,0,0,1,1.851,1.106,21.026,21.026,0,0,1,2.006,3.3,4.146,4.146,0,0,0,1.308,1.317,3.314,3.314,0,0,0,1.847.43,5.94,5.94,0,0,0,3.333-1.417c.9-.728,1.657-1.548,2.525-2.222a6.221,6.221,0,0,1,2.943-1.335,3.873,3.873,0,0,1,1.567.083,3.36,3.36,0,0,1,1.268.679,5.884,5.884,0,0,1,1.415,1.994c.318.676.581,1.314.913,1.863a4.223,4.223,0,0,0,1.185,1.324,3.153,3.153,0,0,0,2.537.439,1.967,1.967,0,0,0,.772-.454" transform="translate(-176.132 -149.469)" fill="#455a64"/><path d="M389.258,274.117s-.083.009-.248.015c-.082,0-.182-.022-.3-.036a2.933,2.933,0,0,1-.4-.125,6.628,6.628,0,0,1-2.126-1.554q-.3-.3-.609-.644a7.563,7.563,0,0,0-.66-.706,3.759,3.759,0,0,0-2.1-.831,3.133,3.133,0,0,0-2.426.809,24.057,24.057,0,0,0-1.881,2.109,5.313,5.313,0,0,1-1.2,1.015,4.087,4.087,0,0,1-1.647.534,8.372,8.372,0,0,1-3.626-.589c-1.185-.427-2.318-1.015-3.593-1.391a7.561,7.561,0,0,0-1.983-.345,4.885,4.885,0,0,0-2,.379,22.424,22.424,0,0,0-3.475,2.285,7.487,7.487,0,0,1-2.012.956,8.623,8.623,0,0,1-2.306.346,9.5,9.5,0,0,1-4.576-1.1,10.5,10.5,0,0,1-3.472-3,25.717,25.717,0,0,1-2.113-3.833,7.738,7.738,0,0,0-1.229-1.743,5.332,5.332,0,0,0-1.81-1.213,3.567,3.567,0,0,0-3.995.833,5.172,5.172,0,0,0-1.085,1.631,11.607,11.607,0,0,0-.561,1.8c-.149.606-.283,1.21-.474,1.8a7.281,7.281,0,0,1-.777,1.673,8.064,8.064,0,0,1-2.622,2.566,8.394,8.394,0,0,1-3.421,1.2,8.211,8.211,0,0,1-3.382-.339,6.284,6.284,0,0,1-4.078-3.468c-.282-.711-.424-1.4-.627-2.008a4.362,4.362,0,0,0-.814-1.568,3.075,3.075,0,0,0-2.359-1.049,1.989,1.989,0,0,0-.894.282,1.6,1.6,0,0,1,.89-.322,3.127,3.127,0,0,1,2.433,1.041,4.425,4.425,0,0,1,.849,1.59c.211.614.36,1.3.643,2a6.177,6.177,0,0,0,4.012,3.372,8.04,8.04,0,0,0,3.3.32,8.194,8.194,0,0,0,3.334-1.182,7.886,7.886,0,0,0,2.555-2.515,10.494,10.494,0,0,0,1.222-3.424,11.653,11.653,0,0,1,.565-1.831,5.353,5.353,0,0,1,1.121-1.691,3.81,3.81,0,0,1,4.253-.886,5.551,5.551,0,0,1,1.891,1.263,7.914,7.914,0,0,1,1.263,1.787,25.718,25.718,0,0,0,2.1,3.809,10.29,10.29,0,0,0,3.4,2.937,9.259,9.259,0,0,0,4.453,1.074,8.35,8.35,0,0,0,2.237-.334,7.25,7.25,0,0,0,1.952-.925,22.368,22.368,0,0,1,3.516-2.3,5.118,5.118,0,0,1,2.1-.393,7.792,7.792,0,0,1,2.044.359c1.3.387,2.437.983,3.6,1.4a8.19,8.19,0,0,0,3.531.588,3.9,3.9,0,0,0,1.574-.5,5.18,5.18,0,0,0,1.172-.98,23.868,23.868,0,0,1,1.906-2.112,3.283,3.283,0,0,1,2.541-.829,3.867,3.867,0,0,1,2.168.874,7.543,7.543,0,0,1,.662.721q.306.346.6.647a6.707,6.707,0,0,0,2.078,1.568,2.094,2.094,0,0,0,.931.182" transform="translate(-175.416 -146.002)" fill="#ff725e"/><path d="M307.7,264.41a4.527,4.527,0,0,1-1.889,0,4.527,4.527,0,0,1,1.889,0" transform="translate(-168.5 -145.632)" fill="#e0e0e0"/><path d="M307.7,272.153a4.527,4.527,0,0,1-1.889,0,4.527,4.527,0,0,1,1.889,0" transform="translate(-168.5 -149.899)" fill="#e0e0e0"/><path d="M307.7,279.9a4.527,4.527,0,0,1-1.889,0,4.527,4.527,0,0,1,1.889,0" transform="translate(-168.5 -154.165)" fill="#e0e0e0"/><path d="M307.7,287.638a4.527,4.527,0,0,1-1.889,0,4.527,4.527,0,0,1,1.889,0" transform="translate(-168.5 -158.431)" fill="#e0e0e0"/><path d="M307.7,295.381a4.526,4.526,0,0,1-1.889,0,4.526,4.526,0,0,1,1.889,0" transform="translate(-168.5 -162.697)" fill="#e0e0e0"/><path d="M324.722,305.333a17.943,17.943,0,0,1-3.778,0,17.949,17.949,0,0,1,3.778,0" transform="translate(-176.837 -168.181)" fill="#e0e0e0"/><path d="M361.819,305.333a17.943,17.943,0,0,1-3.778,0,17.949,17.949,0,0,1,3.778,0" transform="translate(-197.277 -168.181)" fill="#e0e0e0"/><path d="M398.916,305.333a17.943,17.943,0,0,1-3.778,0,17.949,17.949,0,0,1,3.778,0" transform="translate(-217.718 -168.181)" fill="#e0e0e0"/><path d="M436.013,305.333a17.943,17.943,0,0,1-3.778,0,17.949,17.949,0,0,1,3.778,0" transform="translate(-238.158 -168.181)" fill="#e0e0e0"/><path d="M473.11,305.333a17.948,17.948,0,0,1-3.779,0,17.954,17.954,0,0,1,3.779,0" transform="translate(-258.597 -168.181)" fill="#e0e0e0"/><rect width="49.105" height="34.182" transform="translate(9.402 146.215)" fill="#263238"/><rect width="50.513" height="12.532" transform="translate(2.655 156.355)" fill="#455a64"/><rect width="9.946" height="1.53" transform="translate(4.898 158.937)" fill="#263238"/><rect width="9.946" height="1.53" transform="translate(4.898 161.569)" fill="#263238"/><rect width="9.946" height="1.53" transform="translate(4.898 164.292)" fill="#263238"/><path d="M40.418,355.331a.57.57,0,1,1-.571-.571.571.571,0,0,1,.571.571" transform="translate(-21.641 -195.47)" fill="#263238"/><path d="M46.026,355.331a.57.57,0,1,1-.571-.571.571.571,0,0,1,.571.571" transform="translate(-24.731 -195.47)" fill="#263238"/><path d="M51.633,355.331a.57.57,0,1,1-.571-.571.571.571,0,0,1,.571.571" transform="translate(-27.821 -195.47)" fill="#263238"/><path d="M57.24,355.331a.57.57,0,1,1-.571-.571.571.571,0,0,1,.571.571" transform="translate(-30.91 -195.47)" fill="#263238"/><path d="M100.692,355.331a.57.57,0,1,1-.571-.571.571.571,0,0,1,.571.571" transform="translate(-54.852 -195.47)" fill="#263238"/><path d="M106.41,355.331a.57.57,0,1,1-.571-.571.571.571,0,0,1,.571.571" transform="translate(-58.002 -195.47)" fill="#263238"/><path d="M62.848,355.331a.57.57,0,1,1-.571-.571.571.571,0,0,1,.571.571" transform="translate(-34 -195.47)" fill="#263238"/><path d="M90.385,355.331a.57.57,0,1,1-.571-.571.571.571,0,0,1,.571.571" transform="translate(-49.173 -195.47)" fill="#263238"/><path d="M68.455,355.331a.57.57,0,1,1-.571-.571.571.571,0,0,1,.571.571" transform="translate(-37.089 -195.47)" fill="#f5f5f5"/><path d="M74.062,355.331a.57.57,0,1,1-.571-.571.571.571,0,0,1,.571.571" transform="translate(-40.179 -195.47)" fill="#f5f5f5"/><path d="M85.439,355.331a.57.57,0,1,1-.571-.571.571.571,0,0,1,.571.571" transform="translate(-46.447 -195.47)" fill="#f5f5f5"/><path d="M111.062,355.331a.57.57,0,1,1-.571-.571.571.571,0,0,1,.571.571" transform="translate(-60.566 -195.47)" fill="#f5f5f5"/><path d="M79.67,355.331a.57.57,0,1,1-.571-.571.571.571,0,0,1,.571.571" transform="translate(-43.269 -195.47)" fill="#ff725e"/><path d="M95.724,355.331a.57.57,0,1,1-.571-.571.571.571,0,0,1,.571.571" transform="translate(-52.114 -195.47)" fill="#ff725e"/><path d="M109.921,361.456a.57.57,0,1,1,.571.571.571.571,0,0,1-.571-.571" transform="translate(-60.566 -198.844)" fill="#263238"/><path d="M104.314,361.456a.57.57,0,1,1,.571.571.571.571,0,0,1-.571-.571" transform="translate(-57.476 -198.844)" fill="#263238"/><path d="M98.706,361.456a.57.57,0,1,1,.571.571.571.571,0,0,1-.571-.571" transform="translate(-54.386 -198.844)" fill="#263238"/><path d="M93.1,361.456a.57.57,0,1,1,.571.571.571.571,0,0,1-.571-.571" transform="translate(-51.297 -198.844)" fill="#263238"/><path d="M49.647,361.456a.57.57,0,1,1,.571.571.571.571,0,0,1-.571-.571" transform="translate(-27.355 -198.844)" fill="#263238"/><path d="M43.93,361.456a.57.57,0,1,1,.571.571.57.57,0,0,1-.571-.571" transform="translate(-24.205 -198.844)" fill="#263238"/><path d="M87.492,361.456a.57.57,0,1,1,.571.571.571.571,0,0,1-.571-.571" transform="translate(-48.207 -198.844)" fill="#263238"/><path d="M59.954,361.456a.57.57,0,1,1,.571.571.571.571,0,0,1-.571-.571" transform="translate(-33.034 -198.844)" fill="#263238"/><path d="M81.885,361.456a.57.57,0,1,1,.571.571.571.571,0,0,1-.571-.571" transform="translate(-45.118 -198.844)" fill="#f5f5f5"/><path d="M76.277,361.456a.57.57,0,1,1,.571.571.571.571,0,0,1-.571-.571" transform="translate(-42.028 -198.844)" fill="#f5f5f5"/><path d="M64.9,361.456a.57.57,0,1,1,.571.571.571.571,0,0,1-.571-.571" transform="translate(-35.76 -198.844)" fill="#f5f5f5"/><path d="M39.277,361.456a.57.57,0,1,1,.571.571.571.571,0,0,1-.571-.571" transform="translate(-21.641 -198.844)" fill="#f5f5f5"/><path d="M70.67,361.456a.57.57,0,1,1,.571.571.571.571,0,0,1-.571-.571" transform="translate(-38.939 -198.844)" fill="#ff725e"/><path d="M54.615,361.456a.57.57,0,1,1,.571.571.571.571,0,0,1-.571-.571" transform="translate(-30.092 -198.844)" fill="#ff725e"/><path d="M40.418,366.9a.57.57,0,1,1-.571-.571.571.571,0,0,1,.571.571" transform="translate(-21.641 -201.846)" fill="#263238"/><path d="M46.026,366.9a.57.57,0,1,1-.571-.571.571.571,0,0,1,.571.571" transform="translate(-24.731 -201.846)" fill="#263238"/><path d="M51.633,366.9a.57.57,0,1,1-.571-.571.571.571,0,0,1,.571.571" transform="translate(-27.821 -201.846)" fill="#263238"/><path d="M57.24,366.9a.57.57,0,1,1-.571-.571.571.571,0,0,1,.571.571" transform="translate(-30.91 -201.846)" fill="#263238"/><path d="M100.692,366.9a.57.57,0,1,1-.571-.571.571.571,0,0,1,.571.571" transform="translate(-54.852 -201.846)" fill="#263238"/><path d="M106.41,366.9a.57.57,0,1,1-.571-.571.571.571,0,0,1,.571.571" transform="translate(-58.002 -201.846)" fill="#263238"/><path d="M62.848,366.9a.57.57,0,1,1-.571-.571.571.571,0,0,1,.571.571" transform="translate(-34 -201.846)" fill="#263238"/><path d="M90.385,366.9a.57.57,0,1,1-.571-.571.571.571,0,0,1,.571.571" transform="translate(-49.173 -201.846)" fill="#263238"/><path d="M68.455,366.9a.57.57,0,1,1-.571-.571.571.571,0,0,1,.571.571" transform="translate(-37.089 -201.846)" fill="#f5f5f5"/><path d="M74.062,366.9a.57.57,0,1,1-.571-.571.571.571,0,0,1,.571.571" transform="translate(-40.179 -201.846)" fill="#f5f5f5"/><path d="M85.439,366.9a.57.57,0,1,1-.571-.571.571.571,0,0,1,.571.571" transform="translate(-46.447 -201.846)" fill="#f5f5f5"/><path d="M111.062,366.9a.57.57,0,1,1-.571-.571.571.571,0,0,1,.571.571" transform="translate(-60.566 -201.846)" fill="#f5f5f5"/><path d="M79.67,366.9a.57.57,0,1,1-.571-.571.571.571,0,0,1,.571.571" transform="translate(-43.269 -201.846)" fill="#ff725e"/><path d="M95.724,366.9a.57.57,0,1,1-.571-.571.571.571,0,0,1,.571.571" transform="translate(-52.114 -201.846)" fill="#ff725e"/><rect width="50.513" height="12.532" transform="translate(2.655 171.82)" fill="#455a64"/><path d="M40.14,389.5a.57.57,0,1,1-.571-.571.571.571,0,0,1,.571.571" transform="translate(-21.488 -214.294)" fill="#263238"/><path d="M45.747,389.5a.57.57,0,1,1-.571-.571.571.571,0,0,1,.571.571" transform="translate(-24.578 -214.294)" fill="#263238"/><path d="M51.354,389.5a.57.57,0,1,1-.571-.571.571.571,0,0,1,.571.571" transform="translate(-27.667 -214.294)" fill="#263238"/><path d="M56.962,389.5a.57.57,0,1,1-.571-.571.571.571,0,0,1,.571.571" transform="translate(-30.757 -214.294)" fill="#263238"/><path d="M100.413,389.5a.57.57,0,1,1-.571-.571.571.571,0,0,1,.571.571" transform="translate(-54.698 -214.294)" fill="#263238"/><path d="M106.132,389.5a.57.57,0,1,1-.571-.571.571.571,0,0,1,.571.571" transform="translate(-57.849 -214.294)" fill="#263238"/><path d="M62.569,389.5a.57.57,0,1,1-.571-.571.571.571,0,0,1,.571.571" transform="translate(-33.846 -214.294)" fill="#263238"/><path d="M90.107,389.5a.57.57,0,1,1-.571-.571.571.571,0,0,1,.571.571" transform="translate(-49.019 -214.294)" fill="#263238"/><path d="M68.176,389.5a.57.57,0,1,1-.571-.571.571.571,0,0,1,.571.571" transform="translate(-36.936 -214.294)" fill="#f5f5f5"/><path d="M73.784,389.5a.57.57,0,1,1-.571-.571.571.571,0,0,1,.571.571" transform="translate(-40.026 -214.294)" fill="#f5f5f5"/><path d="M85.16,389.5a.57.57,0,1,1-.571-.571.571.571,0,0,1,.571.571" transform="translate(-46.294 -214.294)" fill="#f5f5f5"/><path d="M110.784,389.5a.57.57,0,1,1-.571-.571.571.571,0,0,1,.571.571" transform="translate(-60.412 -214.294)" fill="#f5f5f5"/><path d="M79.391,389.5a.57.57,0,1,1-.571-.571.571.571,0,0,1,.571.571" transform="translate(-43.115 -214.294)" fill="#ff725e"/><path d="M95.446,389.5a.57.57,0,1,1-.571-.571.571.571,0,0,1,.571.571" transform="translate(-51.961 -214.294)" fill="#ff725e"/><path d="M109.643,395.621a.57.57,0,1,1,.57.571.57.57,0,0,1-.57-.571" transform="translate(-60.412 -217.669)" fill="#263238"/><path d="M104.035,395.621a.57.57,0,1,1,.571.571.571.571,0,0,1-.571-.571" transform="translate(-57.322 -217.669)" fill="#263238"/><path d="M98.428,395.621a.57.57,0,1,1,.571.571.571.571,0,0,1-.571-.571" transform="translate(-54.233 -217.669)" fill="#263238"/><path d="M92.821,395.621a.57.57,0,1,1,.571.571.571.571,0,0,1-.571-.571" transform="translate(-51.144 -217.669)" fill="#263238"/><path d="M49.369,395.621a.57.57,0,1,1,.571.571.571.571,0,0,1-.571-.571" transform="translate(-27.202 -217.669)" fill="#263238"/><path d="M43.651,395.621a.57.57,0,1,1,.571.571.571.571,0,0,1-.571-.571" transform="translate(-24.051 -217.669)" fill="#263238"/><path d="M87.213,395.621a.57.57,0,1,1,.571.571.571.571,0,0,1-.571-.571" transform="translate(-48.054 -217.669)" fill="#263238"/><path d="M59.676,395.621a.57.57,0,1,1,.571.571.571.571,0,0,1-.571-.571" transform="translate(-32.881 -217.669)" fill="#263238"/><path d="M81.606,395.621a.57.57,0,1,1,.571.571.571.571,0,0,1-.571-.571" transform="translate(-44.964 -217.669)" fill="#f5f5f5"/><path d="M76,395.621a.57.57,0,1,1,.571.571.571.571,0,0,1-.571-.571" transform="translate(-41.875 -217.669)" fill="#f5f5f5"/><path d="M64.622,395.621a.57.57,0,1,1,.571.571.571.571,0,0,1-.571-.571" transform="translate(-35.606 -217.669)" fill="#f5f5f5"/><path d="M39,395.621a.57.57,0,1,1,.571.571.571.571,0,0,1-.571-.571" transform="translate(-21.488 -217.669)" fill="#f5f5f5"/><path d="M70.391,395.621a.57.57,0,1,1,.571.571.571.571,0,0,1-.571-.571" transform="translate(-38.785 -217.669)" fill="#ff725e"/><path d="M54.337,395.621a.57.57,0,1,1,.571.571.571.571,0,0,1-.571-.571" transform="translate(-29.939 -217.669)" fill="#ff725e"/><path d="M40.14,401.068a.57.57,0,1,1-.571-.571.571.571,0,0,1,.571.571" transform="translate(-21.488 -220.67)" fill="#263238"/><path d="M45.747,401.068a.57.57,0,1,1-.571-.571.571.571,0,0,1,.571.571" transform="translate(-24.578 -220.67)" fill="#263238"/><path d="M51.354,401.068a.57.57,0,1,1-.571-.571.571.571,0,0,1,.571.571" transform="translate(-27.667 -220.67)" fill="#263238"/><path d="M56.962,401.068a.57.57,0,1,1-.571-.571.571.571,0,0,1,.571.571" transform="translate(-30.757 -220.67)" fill="#263238"/><path d="M100.413,401.068a.57.57,0,1,1-.571-.571.571.571,0,0,1,.571.571" transform="translate(-54.698 -220.67)" fill="#263238"/><path d="M106.132,401.068a.57.57,0,1,1-.571-.571.571.571,0,0,1,.571.571" transform="translate(-57.849 -220.67)" fill="#263238"/><path d="M62.569,401.068A.57.57,0,1,1,62,400.5a.571.571,0,0,1,.571.571" transform="translate(-33.846 -220.67)" fill="#263238"/><path d="M90.107,401.068a.57.57,0,1,1-.571-.571.571.571,0,0,1,.571.571" transform="translate(-49.019 -220.67)" fill="#263238"/><path d="M68.176,401.068a.57.57,0,1,1-.571-.571.571.571,0,0,1,.571.571" transform="translate(-36.936 -220.67)" fill="#f5f5f5"/><path d="M73.784,401.068a.57.57,0,1,1-.571-.571.571.571,0,0,1,.571.571" transform="translate(-40.026 -220.67)" fill="#f5f5f5"/><path d="M85.16,401.068a.57.57,0,1,1-.571-.571.571.571,0,0,1,.571.571" transform="translate(-46.294 -220.67)" fill="#f5f5f5"/><path d="M110.784,401.068a.57.57,0,1,1-.571-.571.571.571,0,0,1,.571.571" transform="translate(-60.412 -220.67)" fill="#f5f5f5"/><path d="M79.391,401.068a.57.57,0,1,1-.571-.571.571.571,0,0,1,.571.571" transform="translate(-43.115 -220.67)" fill="#ff725e"/><path d="M95.446,401.068a.57.57,0,1,1-.571-.571.571.571,0,0,1,.571.571" transform="translate(-51.961 -220.67)" fill="#ff725e"/><rect width="9.946" height="1.53" transform="translate(4.898 174.402)" fill="#263238"/><rect width="9.946" height="1.53" transform="translate(4.898 177.034)" fill="#263238"/><rect width="9.946" height="1.53" transform="translate(4.898 179.757)" fill="#263238"/><path d="M129.089,360.71l-10.678.02V348.2l10.678-.02Z" transform="translate(-65.244 -191.843)" fill="#263238"/><path d="M129.089,394.935l-10.678.02V382.424l10.678-.021Z" transform="translate(-65.244 -210.701)" fill="#263238"/><rect width="9.946" height="1.53" transform="translate(5.264 148.938)" fill="#263238"/><path d="M129.089,326.656l-10.678.021V314.048l10.678-.021Z" transform="translate(-65.244 -173.027)" fill="#263238"/><rect width="50.513" height="12.532" transform="translate(3.021 141.001)" fill="#455a64"/><rect width="9.946" height="1.53" transform="translate(5.264 143.583)" fill="#263238"/><rect width="9.946" height="1.53" transform="translate(5.264 146.215)" fill="#263238"/><path d="M41.233,321.136a.57.57,0,1,1-.571-.571.571.571,0,0,1,.571.571" transform="translate(-22.09 -176.628)" fill="#263238"/><path d="M46.84,321.136a.57.57,0,1,1-.571-.571.571.571,0,0,1,.571.571" transform="translate(-25.18 -176.628)" fill="#263238"/><path d="M52.448,321.136a.57.57,0,1,1-.571-.571.571.571,0,0,1,.571.571" transform="translate(-28.27 -176.628)" fill="#263238"/><path d="M58.055,321.136a.57.57,0,1,1-.571-.571.571.571,0,0,1,.571.571" transform="translate(-31.359 -176.628)" fill="#263238"/><path d="M101.507,321.136a.57.57,0,1,1-.571-.571.571.571,0,0,1,.571.571" transform="translate(-55.301 -176.628)" fill="#263238"/><path d="M107.225,321.136a.57.57,0,1,1-.571-.571.571.571,0,0,1,.571.571" transform="translate(-58.451 -176.628)" fill="#263238"/><path d="M63.662,321.136a.57.57,0,1,1-.571-.571.571.571,0,0,1,.571.571" transform="translate(-34.449 -176.628)" fill="#263238"/><path d="M91.2,321.136a.57.57,0,1,1-.571-.571.571.571,0,0,1,.571.571" transform="translate(-49.622 -176.628)" fill="#263238"/><path d="M69.27,321.136a.57.57,0,1,1-.571-.571.571.571,0,0,1,.571.571" transform="translate(-37.538 -176.628)" fill="#f5f5f5"/><path d="M74.877,321.136a.57.57,0,1,1-.571-.571.571.571,0,0,1,.571.571" transform="translate(-40.628 -176.628)" fill="#f5f5f5"/><path d="M86.253,321.136a.57.57,0,1,1-.571-.571.571.571,0,0,1,.571.571" transform="translate(-46.896 -176.628)" fill="#f5f5f5"/><path d="M111.877,321.136a.57.57,0,1,1-.571-.571.571.571,0,0,1,.571.571" transform="translate(-61.015 -176.628)" fill="#f5f5f5"/><path d="M80.484,321.136a.57.57,0,1,1-.571-.571.571.571,0,0,1,.571.571" transform="translate(-43.717 -176.628)" fill="#ff725e"/><path d="M96.539,321.136a.57.57,0,1,1-.571-.571.571.571,0,0,1,.571.571" transform="translate(-52.563 -176.628)" fill="#ff725e"/><path d="M110.736,327.261a.57.57,0,1,1,.571.571.571.571,0,0,1-.571-.571" transform="translate(-61.015 -180.003)" fill="#263238"/><path d="M105.128,327.261a.57.57,0,1,1,.571.571.571.571,0,0,1-.571-.571" transform="translate(-57.925 -180.003)" fill="#263238"/><path d="M99.521,327.261a.57.57,0,1,1,.571.571.571.571,0,0,1-.571-.571" transform="translate(-54.835 -180.003)" fill="#263238"/><path d="M93.914,327.261a.57.57,0,1,1,.571.571.571.571,0,0,1-.571-.571" transform="translate(-51.746 -180.003)" fill="#263238"/><path d="M50.462,327.261a.57.57,0,1,1,.571.571.571.571,0,0,1-.571-.571" transform="translate(-27.804 -180.003)" fill="#263238"/><path d="M44.744,327.261a.57.57,0,1,1,.571.571.571.571,0,0,1-.571-.571" transform="translate(-24.654 -180.003)" fill="#263238"/><path d="M88.307,327.261a.57.57,0,1,1,.57.571.57.57,0,0,1-.57-.571" transform="translate(-48.656 -180.003)" fill="#263238"/><path d="M60.769,327.261a.57.57,0,1,1,.571.571.571.571,0,0,1-.571-.571" transform="translate(-33.483 -180.003)" fill="#263238"/><path d="M82.7,327.261a.57.57,0,1,1,.57.571.571.571,0,0,1-.57-.571" transform="translate(-45.566 -180.003)" fill="#f5f5f5"/><path d="M77.092,327.261a.57.57,0,1,1,.571.571.571.571,0,0,1-.571-.571" transform="translate(-42.477 -180.003)" fill="#f5f5f5"/><path d="M65.715,327.261a.57.57,0,1,1,.571.571.571.571,0,0,1-.571-.571" transform="translate(-36.208 -180.003)" fill="#f5f5f5"/><path d="M40.092,327.261a.57.57,0,1,1,.571.571.571.571,0,0,1-.571-.571" transform="translate(-22.09 -180.003)" fill="#f5f5f5"/><path d="M71.485,327.261a.57.57,0,1,1,.571.571.571.571,0,0,1-.571-.571" transform="translate(-39.388 -180.003)" fill="#ff725e"/><path d="M55.43,327.261a.57.57,0,1,1,.571.571.571.571,0,0,1-.571-.571" transform="translate(-30.541 -180.003)" fill="#ff725e"/><path d="M41.233,332.708a.57.57,0,1,1-.571-.571.571.571,0,0,1,.571.571" transform="translate(-22.09 -183.005)" fill="#263238"/><path d="M46.84,332.708a.57.57,0,1,1-.571-.571.571.571,0,0,1,.571.571" transform="translate(-25.18 -183.005)" fill="#263238"/><path d="M52.448,332.708a.57.57,0,1,1-.571-.571.571.571,0,0,1,.571.571" transform="translate(-28.27 -183.005)" fill="#263238"/><path d="M58.055,332.708a.57.57,0,1,1-.571-.571.571.571,0,0,1,.571.571" transform="translate(-31.359 -183.005)" fill="#263238"/><path d="M101.507,332.708a.57.57,0,1,1-.571-.571.571.571,0,0,1,.571.571" transform="translate(-55.301 -183.005)" fill="#263238"/><path d="M107.225,332.708a.57.57,0,1,1-.571-.571.571.571,0,0,1,.571.571" transform="translate(-58.451 -183.005)" fill="#263238"/><path d="M63.662,332.708a.57.57,0,1,1-.571-.571.571.571,0,0,1,.571.571" transform="translate(-34.449 -183.005)" fill="#263238"/><path d="M91.2,332.708a.57.57,0,1,1-.571-.571.571.571,0,0,1,.571.571" transform="translate(-49.622 -183.005)" fill="#263238"/><path d="M69.27,332.708a.57.57,0,1,1-.571-.571.571.571,0,0,1,.571.571" transform="translate(-37.538 -183.005)" fill="#f5f5f5"/><path d="M74.877,332.708a.57.57,0,1,1-.571-.571.571.571,0,0,1,.571.571" transform="translate(-40.628 -183.005)" fill="#f5f5f5"/><path d="M86.253,332.708a.57.57,0,1,1-.571-.571.571.571,0,0,1,.571.571" transform="translate(-46.896 -183.005)" fill="#f5f5f5"/><path d="M111.877,332.708a.57.57,0,1,1-.571-.571.571.571,0,0,1,.571.571" transform="translate(-61.015 -183.005)" fill="#f5f5f5"/><path d="M80.484,332.708a.57.57,0,1,1-.571-.571.571.571,0,0,1,.571.571" transform="translate(-43.717 -183.005)" fill="#ff725e"/><path d="M96.539,332.708a.57.57,0,1,1-.571-.571.571.571,0,0,1,.571.571" transform="translate(-52.563 -183.005)" fill="#ff725e"/><path d="M108.5,195.123s-.072.008-.213.012l-.627.012-2.412.025-8.885.048-29.442.071.1-.118V196.5c-.011,14.252-.021,27.152-.028,36.5-.013,4.663-.024,8.44-.031,11.06-.008,1.3-.014,2.311-.018,3.007,0,.337-.008.6-.01.782s-.01.266-.01.266-.007-.09-.01-.266-.006-.445-.01-.782c0-.7-.01-1.708-.018-3.007-.007-2.62-.018-6.4-.031-11.06-.007-9.347-.018-22.247-.029-36.5v-1.449h29.54l8.885.027,2.412.019.627.011c.141,0,.213.012.213.012" transform="translate(-36.817 -107.474)" fill="#263238"/><path d="M158.661,194.19A1.658,1.658,0,1,1,157,192.533a1.658,1.658,0,0,1,1.658,1.657" transform="translate(-85.594 -106.084)" fill="#263238"/><path d="M60.834,197l8.611-20.775a1.138,1.138,0,0,0-1.1-1.717H66.612a1.109,1.109,0,0,1-1.234-1l-.057-.764a1.11,1.11,0,0,0-1.236-1H55.852a2.882,2.882,0,0,0-1.906.843l-.669.647a2.878,2.878,0,0,1-1.9.843H40.888a2.927,2.927,0,0,0-2.5,1.717L29.848,197Z" transform="translate(-16.446 -94.633)" fill="#3a8416"/><path d="M66.243,194.831l3.248-12.556a1.267,1.267,0,0,0-1.081-1.656H42.954a1.16,1.16,0,0,0-1.084.935l-4.727,18.9c-.208.83.124,1.328.878,1.318l25.612.008a1.162,1.162,0,0,0,1.07-.928Z" transform="translate(-20.432 -99.519)" fill="#e0e0e0"/><path d="M65.959,200.863l1.383-19.773a1.213,1.213,0,0,0-1.21-1.3H39.758v21.071Z" transform="translate(-21.906 -99.064)" fill="#ebebeb"/><path d="M58.615,201.316l-3.138-20.385a1.46,1.46,0,0,0-1.434-1.138H27.362a1.442,1.442,0,0,0-1.347,2.009l5.761,18.655Z" transform="translate(-14.267 -99.064)" fill="#fafafa"/><path d="M53.364,202.908l-6.471-19.091a1.916,1.916,0,0,0-1.8-1.327H17.588a1.344,1.344,0,0,0-1.228,1.783l6.019,18.644Z" transform="translate(-8.976 -100.55)" fill="#529d2e"/><path d="M302.065,410.216c0,.065-66.75.117-149.072.117-82.35,0-149.086-.052-149.086-.117s66.736-.117,149.086-.117c82.322,0,149.072.052,149.072.117" transform="translate(-2.153 -225.961)" fill="#263238"/></g></g></g></g></svg>