<svg xmlns="http://www.w3.org/2000/svg" xmlns:xlink="http://www.w3.org/1999/xlink" width="186.786" height="169.061" viewBox="0 0 186.786 169.061"><defs><filter id="a" x="9.648" y="139.556" width="166.196" height="29.505" filterUnits="userSpaceOnUse"><feOffset dy="3" input="SourceAlpha"/><feGaussianBlur stdDeviation="3" result="b"/><feFlood flood-opacity="0.161"/><feComposite operator="in" in2="b"/><feComposite in="SourceGraphic"/></filter><filter id="c" x="14.393" y="3.929" width="156.707" height="156.707" filterUnits="userSpaceOnUse"><feOffset dy="3" input="SourceAlpha"/><feGaussianBlur stdDeviation="3" result="d"/><feFlood flood-opacity="0.161"/><feComposite operator="in" in2="d"/><feComposite in="SourceGraphic"/></filter><filter id="e" x="153.1" y="25.885" width="33.686" height="33.686" filterUnits="userSpaceOnUse"><feOffset dy="3" input="SourceAlpha"/><feGaussianBlur stdDeviation="3" result="f"/><feFlood flood-opacity="0.161"/><feComposite operator="in" in2="f"/><feComposite in="SourceGraphic"/></filter><filter id="g" x="0" y="73.282" width="29.771" height="29.771" filterUnits="userSpaceOnUse"><feOffset dy="3" input="SourceAlpha"/><feGaussianBlur stdDeviation="3" result="h"/><feFlood flood-opacity="0.161"/><feComposite operator="in" in2="h"/><feComposite in="SourceGraphic"/></filter><filter id="i" x="26.452" y="0" width="25.857" height="25.857" filterUnits="userSpaceOnUse"><feOffset dy="3" input="SourceAlpha"/><feGaussianBlur stdDeviation="3" result="j"/><feFlood flood-opacity="0.161"/><feComposite operator="in" in2="j"/><feComposite in="SourceGraphic"/></filter><clipPath id="k"><rect width="146" height="146" transform="translate(498.251 952.397)" fill="#fff" stroke="#707070" stroke-width="1"/></clipPath></defs><g transform="translate(5637.212 10360.567)"><g transform="matrix(1, 0, 0, 1, -5637.21, -10360.57)" filter="url(#a)"><path d="M74.1,0c40.923,0,74.1,2.576,74.1,5.753s-33.175,5.753-74.1,5.753S0,8.93,0,5.753,33.175,0,74.1,0Z" transform="translate(18.65 145.56)" fill="#a1b3d6"/></g><g transform="matrix(1, 0, 0, 1, -5637.21, -10360.57)" filter="url(#c)"><path d="M69.354,0A69.353,69.353,0,1,1,0,69.353,69.353,69.353,0,0,1,69.354,0Z" transform="translate(23.39 9.93)" fill="#f3f9ff"/></g><g transform="matrix(1, 0, 0, 1, -5637.21, -10360.57)" filter="url(#e)"><circle cx="5.546" cy="5.546" r="5.546" transform="translate(162.1 39.73) rotate(-45)" fill="#455a64"/></g><g transform="matrix(1, 0, 0, 1, -5637.21, -10360.57)" filter="url(#g)"><circle cx="4.162" cy="4.162" r="4.162" transform="translate(9 85.17) rotate(-45)" fill="#455a64"/></g><g transform="matrix(1, 0, 0, 1, -5637.21, -10360.57)" filter="url(#i)"><circle cx="2.778" cy="2.778" r="2.778" transform="translate(35.45 9.93) rotate(-45)" fill="#455a64"/></g><g transform="translate(-6115.251 -11306.398)" clip-path="url(#k)"><g transform="translate(500.535 952.655)"><g transform="translate(119.397 52.402)"><path d="M76.045,42.31,74.8,61.846c4.327-1.564,8.456.927,9.1,4.658l2.11-33.163a6.345,6.345,0,0,0-9.722,4.964Z" transform="translate(-74.804 -32.36)" fill="#ffbc85" fill-rule="evenodd"/></g><g transform="translate(93.375 46.891)"><path d="M59.852,95.072l-1.117,14.8,13.034,5.944,13.939-5.944c11.137-10.268,19.709-23,20.884-41.4L108.669,35.7A6.346,6.346,0,1,0,96,34.9l-.033.546-2.11,33.163c-.645-3.732-4.774-6.222-9.1-4.658a9.221,9.221,0,0,0-2.507,1.382l-6.727,5.618L67.05,78.028C60.911,83.149,60.431,87.435,59.852,95.072Z" transform="translate(-58.735 -28.957)" fill="#ffe5c1" fill-rule="evenodd"/></g><g transform="translate(2.183 46.891)"><path d="M44.061,78.028l-8.472-7.075-6.727-5.618a9.342,9.342,0,0,0-2.507-1.382c-4.327-1.564-8.464.927-9.1,4.658l-2.11-33.163L15.11,34.9a6.351,6.351,0,0,0-12.676.8L4.52,68.471c1.167,18.4,9.739,31.136,20.875,41.4l12.679,3.567,14.3-3.567-1.117-14.8c-.579-7.637-1.067-11.923-7.2-17.045Z" transform="translate(-2.421 -28.957)" fill="#ffe5c1" fill-rule="evenodd"/></g><g transform="translate(14.905 52.402)"><path d="M21.489,61.846,20.248,42.31l-.256-4a6.365,6.365,0,0,0-6.735-5.932,6.292,6.292,0,0,0-2.979.968L12.387,66.5C13.024,62.772,17.162,60.282,21.489,61.846Z" transform="translate(-10.278 -32.36)" fill="#ffbc85" fill-rule="evenodd"/></g><g transform="translate(17.37 81.413)"><path d="M26.354,62.193l8.472,7.075c4.509,3.773,4.468,6.793,5.047,14.43l.918,12.974h5.775l-1.117-14.8c-.579-7.637-1.067-11.923-7.2-17.045L29.78,57.749l-6.727-5.618a9.343,9.343,0,0,0-2.507-1.382A6.766,6.766,0,0,0,11.8,54.166c3.152-1.183,6.181,1.274,9.209,3.566Z" transform="translate(-11.8 -50.275)" fill="#fed1a3" fill-rule="evenodd"/></g><g transform="translate(15.74 127.81)"><path d="M47.191,78.926H13.516a2.737,2.737,0,0,0-2.722,2.731V95.193a2.729,2.729,0,0,0,2.722,2.722H51.593a2.729,2.729,0,0,0,2.722-2.722V81.656a2.737,2.737,0,0,0-2.722-2.731Z" transform="translate(-10.794 -78.926)" fill="#ffa726" fill-rule="evenodd"/></g><g transform="translate(86.252 127.81)"><path d="M57.058,78.926a2.737,2.737,0,0,0-2.722,2.731V95.193a2.729,2.729,0,0,0,2.722,2.722H95.135a2.729,2.729,0,0,0,2.722-2.722V81.656a2.737,2.737,0,0,0-2.722-2.731H57.058Z" transform="translate(-54.336 -78.926)" fill="#ffa726" fill-rule="evenodd"/></g><g transform="translate(44.397 33.554)"><path d="M76.9,69.129a28.358,28.358,0,1,0-40.1,0,27.057,27.057,0,0,0,2.433,2.16H74.473A29.574,29.574,0,0,0,76.9,69.129Z" transform="translate(-28.49 -20.72)" fill="#9fd4fe" fill-rule="evenodd"/></g><g transform="translate(55.133 65.083)"><path d="M59.975,43.169c-2.987-3.93-9.043-4.013-14.463,0A17.681,17.681,0,0,0,35.12,59.229a28.35,28.35,0,0,0,35.247,0A17.681,17.681,0,0,0,59.975,43.169Z" transform="translate(-35.12 -40.19)" fill="#fcb954" fill-rule="evenodd"/></g><g transform="translate(28.102 11.234)"><path d="M37.226,29.038l.157-7.5,4.278-6.164-7.082-2.466L30.044,6.938,25.51,12.911l-7.082,2.466L22.7,21.542l.157,7.5,7.182-2.168Z" transform="translate(-18.427 -6.938)" fill="#ffb74d" fill-rule="evenodd"/></g><g transform="translate(61.14 2.182)"><path d="M43.107,15.944l.157,7.5,7.182-2.159,7.182,2.159.157-7.5,4.278-6.156L54.98,7.313,50.445,1.348,45.9,7.313,38.829,9.787Z" transform="translate(-38.829 -1.348)" fill="#ffb74d" fill-rule="evenodd"/></g><g transform="translate(94.178 11.234)"><path d="M59.231,15.377,63.5,21.542l.166,7.5,7.182-2.168,7.174,2.168.166-7.5,4.278-6.164-7.082-2.466L70.847,6.938,66.3,12.911Z" transform="translate(-59.231 -6.938)" fill="#ffb74d" fill-rule="evenodd"/></g><g transform="translate(2.311 46.892)"><path d="M17.2,68.612,15.061,34.9A6.349,6.349,0,0,0,2.5,34.05c8.084-2.466,7.446,1.655,7.728,6.115l1.216,25.054c.29,6.032,1.473,9.929,3.31,11.766,2.83,2.822,10.483,11.228,13.032,13.652s7.347,1.6,4.269-2.714c-2.548-2.424-9.308-9.615-12.138-12.436C17.965,73.535,17.3,71.772,17.2,68.612Z" transform="translate(-2.501 -28.957)" fill="#fed1a3" fill-rule="evenodd"/></g><g transform="translate(46.363 127.81)"><path d="M32.426,81.656V95.193A2.729,2.729,0,0,1,29.7,97.915H39.881A2.729,2.729,0,0,0,42.6,95.193V81.656a2.737,2.737,0,0,0-2.722-2.731H29.7A2.737,2.737,0,0,1,32.426,81.656Z" transform="translate(-29.704 -78.926)" fill="#ffb74d" fill-rule="evenodd"/></g><g transform="translate(113.101 47.062)"><path d="M70.916,109.81h7.248c11.137-10.268,19.709-23,20.884-41.4l2.077-32.766a6.37,6.37,0,0,0-4.882-6.578c-.223,4.551-2.813,38.012-3.285,41.049-.7,4.393-1.448,10.037-3.409,14.678-4.021,9.565-11.07,18.087-18.633,25.021Z" transform="translate(-70.916 -29.062)" fill="#fed1a3" fill-rule="evenodd"/></g><g transform="translate(70.01 33.55)"><path d="M58.116,28.471a28.369,28.369,0,0,1,4.41,34.412,17.417,17.417,0,0,1,2.151,8.407A29.53,29.53,0,0,0,67.1,69.13,28.36,28.36,0,0,0,44.306,20.85,28.2,28.2,0,0,1,58.116,28.471Z" transform="translate(-44.306 -20.718)" fill="#85beef" fill-rule="evenodd"/></g><g transform="translate(38.089 11.234)"><path d="M33.563,21.542l4.278-6.164-7.082-2.466L26.224,6.937l-1.63,2.151a31.933,31.933,0,0,1,.6,18.1l1.026-.315,7.182,2.168Z" transform="translate(-24.594 -6.937)" fill="#eba53c" fill-rule="evenodd"/></g><g transform="translate(71.921 2.182)"><path d="M45.635,2.249a31.94,31.94,0,0,1-.149,19.279l.836-.248L53.5,23.44l.157-7.5,4.278-6.156L50.856,7.313,46.322,1.348Z" transform="translate(-45.486 -1.348)" fill="#eba53c" fill-rule="evenodd"/></g><g transform="translate(104.405 11.234)"><path d="M65.563,8.741a31.915,31.915,0,0,1-.017,18.551l1.39-.422,7.173,2.168.166-7.5,4.278-6.164L71.47,12.911,66.936,6.937Z" transform="translate(-65.546 -6.937)" fill="#eba53c" fill-rule="evenodd"/></g><g transform="translate(76.703 68.062)"><path d="M48.44,43.883C52.792,47.8,55.8,54.259,56.3,61.664a28.15,28.15,0,0,0,5.817-3.574A17.681,17.681,0,0,0,51.725,42.03,11.572,11.572,0,0,1,48.44,43.883Z" transform="translate(-48.44 -42.03)" fill="#eba53c" fill-rule="evenodd"/></g><g transform="translate(61.223 47.542)"><path d="M57.645,49.878a11.534,11.534,0,1,0-7.231,2.548A11.507,11.507,0,0,0,57.645,49.878Z" transform="translate(-38.88 -29.358)" fill="#ffe5c1" fill-rule="evenodd"/></g><g transform="translate(67.519 47.542)"><path d="M53.177,39.693A11.547,11.547,0,0,1,42.768,51.177a11.584,11.584,0,0,0,5.237,1.249,11.534,11.534,0,0,0,0-23.068c-.381,0-.761.025-1.125.058A11.534,11.534,0,0,1,53.177,39.693Z" transform="translate(-42.768 -29.358)" fill="#fed1a3" fill-rule="evenodd"/></g><g transform="translate(115.633 127.81)"><path d="M75.2,95.193a2.729,2.729,0,0,1-2.722,2.722H83.9a2.729,2.729,0,0,0,2.722-2.722V81.656A2.737,2.737,0,0,0,83.9,78.926H72.48A2.737,2.737,0,0,1,75.2,81.656Z" transform="translate(-72.48 -78.926)" fill="#ffb74d" fill-rule="evenodd"/></g><g transform="translate(108.335 81.415)"><path d="M79.532,60.512,68.949,71.649c-2.424,2.548-.091,7.124,4.336,3.07,2.548-2.424,9.308-9.615,12.13-12.436,2.358-2.35,3.078-4.807,2.722-6.876a5.914,5.914,0,0,0-.157-.662c-.968-3.318-4.791-5.411-8.8-4.046,6.214,3.128,2.9,7.273.356,9.813Z" transform="translate(-67.973 -50.276)" fill="#fed1a3" fill-rule="evenodd"/></g><g transform="translate(0 0)"><path d="M21.371,23.08l.144,6.839a2.182,2.182,0,0,0,2.812,2.044l6.551-1.978,6.551,1.978a2.182,2.182,0,0,0,2.812-2.043l.143-6.839,3.9-5.624a2.183,2.183,0,0,0-1.075-3.305L36.753,11.9,32.617,6.453a2.182,2.182,0,0,0-3.477,0L25,11.9l-6.46,2.249a2.183,2.183,0,0,0-1.075,3.305Zm5.691-7.272a2.18,2.18,0,0,0,1.021-.742l2.8-3.684,2.8,3.684a2.184,2.184,0,0,0,1.021.742l4.369,1.521-2.639,3.8a2.179,2.179,0,0,0-.389,1.2l-.1,4.622-4.43-1.337a2.175,2.175,0,0,0-1.261,0l-4.43,1.337-.1-4.622a2.178,2.178,0,0,0-.389-1.2l-2.639-3.8Z" transform="translate(8.84 3.462)"/><path d="M41.773,17.483l.144,6.838a2.182,2.182,0,0,0,2.81,2.044l6.553-1.971,6.553,1.971a2.183,2.183,0,0,0,2.81-2.044l.144-6.838,3.9-5.615a2.182,2.182,0,0,0-1.072-3.306L57.154,6.3,53.018.862A2.182,2.182,0,0,0,51.281,0h0a2.182,2.182,0,0,0-1.736.86L45.4,6.3,38.943,8.562a2.182,2.182,0,0,0-1.072,3.305Zm5.685-7.275a2.176,2.176,0,0,0,1.016-.738l2.8-3.683,2.8,3.681a2.179,2.179,0,0,0,1.018.74l4.371,1.527-2.639,3.8a2.178,2.178,0,0,0-.39,1.2l-.1,4.625-4.432-1.333a2.187,2.187,0,0,0-1.257,0L46.22,21.358l-.1-4.625a2.177,2.177,0,0,0-.39-1.2l-2.639-3.8Z" transform="translate(21.476 0)"/><path d="M62.168,23.08l.151,6.841a2.182,2.182,0,0,0,2.812,2.041l6.551-1.977,6.542,1.977a2.183,2.183,0,0,0,2.813-2.041l.151-6.84,3.9-5.625a2.183,2.183,0,0,0-1.075-3.306L77.557,11.9,73.421,6.453a2.183,2.183,0,0,0-1.737-.863h0a2.184,2.184,0,0,0-1.737.862L65.8,11.9l-6.454,2.249a2.183,2.183,0,0,0-1.076,3.3Zm5.69-7.273a2.182,2.182,0,0,0,1.019-.74l2.8-3.687,2.8,3.686a2.182,2.182,0,0,0,1.021.742l4.369,1.521-2.64,3.8a2.183,2.183,0,0,0-.389,1.2l-.1,4.625-4.424-1.337a2.176,2.176,0,0,0-1.262,0l-4.433,1.338-.1-4.625a2.182,2.182,0,0,0-.388-1.194l-2.636-3.805Z" transform="translate(34.113 3.462)"/><path d="M88.218,49.9a30.517,30.517,0,1,0-8.948,21.6,30.325,30.325,0,0,0,8.948-21.6ZM39.165,31.4A26.174,26.174,0,0,1,76.955,67.6a19.918,19.918,0,0,0-8.49-12.076,13.716,13.716,0,1,0-21.575,0A19.918,19.918,0,0,0,38.4,67.609,26.213,26.213,0,0,1,39.165,31.4Zm9.162,15.675a9.352,9.352,0,1,1,9.351,9.352A9.362,9.362,0,0,1,48.327,47.071Zm-6.053,24A15.507,15.507,0,0,1,50.253,58.6a13.668,13.668,0,0,0,14.85,0,15.509,15.509,0,0,1,7.979,12.471A26.245,26.245,0,0,1,42.274,71.07Z" transform="translate(15.078 12.005)"/><path d="M112.293,30.507A8.533,8.533,0,0,0,97.854,33.3a8.728,8.728,0,0,0-1.165-.161,8.555,8.555,0,0,0-9.061,7.975l-.249,4L86.221,63.336a12.167,12.167,0,0,0-1.728,1.093c-.028.021-.056.043-.083.066l-15.2,12.692c-6.687,5.579-7.361,10.442-7.976,18.556l-.965,12.785H57.893a4.914,4.914,0,0,0-4.9,4.913v13.537a4.91,4.91,0,0,0,4.9,4.9H71.884a2.182,2.182,0,0,0,0-4.365H57.893a.547.547,0,0,1-.54-.54V113.441a.551.551,0,0,1,.54-.548H95.97a.551.551,0,0,1,.54.548v13.537a.547.547,0,0,1-.54.54H81.987a2.182,2.182,0,1,0,0,4.365H95.97a4.91,4.91,0,0,0,4.9-4.9V113.441a4.914,4.914,0,0,0-4.9-4.913H94.615c11.1-11.546,16.757-24.086,17.714-39.084l2.077-32.765a8.462,8.462,0,0,0-2.113-6.172ZM91.736,45.388l.248-4A4.19,4.19,0,0,1,96.4,37.493a4.312,4.312,0,0,1,.852.152L95.615,63.4a8.856,8.856,0,0,0-1.761-.808,9.177,9.177,0,0,0-3.183-.454ZM110.05,36.4l-2.077,32.765C107,84.376,100.775,96.9,88.4,108.528H64.647l.94-12.455c.572-7.534,1.05-11.054,6.421-15.535L87.165,67.881a5.69,5.69,0,0,1,5.317-1.144A4.071,4.071,0,0,1,95.166,69.4c.494,1.683-.221,3.593-2.014,5.381-1.183,1.183-3.027,3.1-4.98,5.132-2.649,2.756-5.653,5.879-7.111,7.267A2.182,2.182,0,1,0,84.07,90.34c1.529-1.454,4.437-4.479,7.249-7.4,1.937-2.015,3.767-3.918,4.917-5.068,2.573-2.565,3.762-5.6,3.373-8.5l2.129-33.5a4.164,4.164,0,0,1,8.312.525Z" transform="translate(31.081 17.1)"/><path d="M57.613,108.528H55.235L54.27,95.742c-.615-8.109-1.288-12.968-7.975-18.555L31.1,64.495l-.083-.066a12.578,12.578,0,0,0-1.729-1.1L27.869,41.108a8.546,8.546,0,0,0-9.06-7.97,8.819,8.819,0,0,0-1.16.158A8.532,8.532,0,0,0,1.091,36.678L3.176,69.444c.951,15,6.609,27.536,17.706,39.084H19.536a4.914,4.914,0,0,0-4.9,4.913v13.537a4.91,4.91,0,0,0,4.9,4.9H33.519a2.182,2.182,0,0,0,0-4.365H19.536a.547.547,0,0,1-.54-.54V113.441a.551.551,0,0,1,.54-.548H57.613a.551.551,0,0,1,.54.548v13.537a.547.547,0,0,1-.54.54H43.63a2.182,2.182,0,1,0,0,4.365H57.613a4.91,4.91,0,0,0,4.9-4.9V113.441A4.914,4.914,0,0,0,57.613,108.528ZM19.1,37.493a4.183,4.183,0,0,1,4.417,3.893l1.319,20.734A9.082,9.082,0,0,0,19.891,63.4L18.253,37.642A4.251,4.251,0,0,1,19.1,37.493ZM7.532,69.167,5.447,36.4a4.168,4.168,0,0,1,8.32-.525l.033.522q0,.035,0,.071l2.09,32.87c-.37,2.619.5,5.665,3.367,8.529,1.178,1.175,3.052,3.123,5.037,5.186,2.768,2.877,5.629,5.851,7.137,7.286a2.182,2.182,0,0,0,3.009-3.162c-1.438-1.368-4.266-4.308-7-7.15-2-2.08-3.891-4.044-5.1-5.248-2.816-2.816-2.484-5.353-1.234-6.787,1.447-1.663,4.39-2.23,7.23-.111L43.5,80.537c5.372,4.487,5.85,8.005,6.421,15.534l.94,12.456H27.093C14.721,96.9,8.5,84.374,7.532,69.167Z" transform="translate(-1.074 17.1)"/></g></g></g></g></svg>