<svg xmlns="http://www.w3.org/2000/svg" width="1240" height="466.257" viewBox="0 0 1240 466.257"><g transform="translate(-180 -3219.768)"><path d="M0,0H1131a109,109,0,0,1,109,109V466.257a0,0,0,0,1,0,0H0a0,0,0,0,1,0,0V0A0,0,0,0,1,0,0Z" transform="translate(180 3219.768)" fill="#ffead8"/><g transform="translate(181.04 3616.958)"><path d="M392.974,292.224l-20.493,1.908,7.542,7.542-17.447,17.447a2.433,2.433,0,1,0,3.441,3.441l17.447-17.447,7.6,7.6Z" transform="translate(-361.863 -255.142)" fill="#529d2e"/><path d="M565.865,168.785l-17.495,1.629,6.439,6.439-14.895,14.894a2.077,2.077,0,1,0,2.938,2.937l14.894-14.894,6.49,6.49Z" transform="translate(-512.498 -168.785)" fill="#fcd03e"/></g><path d="M6.144,299.339a9.348,9.348,0,0,0,3.848.571,4.884,4.884,0,0,1,1.324.094L4.63,317.958a2.554,2.554,0,0,0,1.5,3.284L24.812,328.2l.789-2.12a4.057,4.057,0,0,0,.251-1.533,8.456,8.456,0,0,1,11.736-8.022,8.535,8.535,0,0,1,4.847,10.2,8.389,8.389,0,0,1-2.183,3.635,4.2,4.2,0,0,0-1.01,1.525l-.554,1.486,18.9,7.109a3.136,3.136,0,0,0,4.034-1.844l6.219-16.644,1.291.48c.147.055.293.114.438.181a10.319,10.319,0,1,0,6.932-15.875,3.925,3.925,0,0,1-.816-.206l-1.655-.617,6.921-18.584a3.135,3.135,0,0,0-1.844-4.033L27.419,264.083a2.553,2.553,0,0,0-3.284,1.5l-7.048,18.921a5.062,5.062,0,0,1-.8-.685,9.358,9.358,0,0,0-5.08-2.75,9.519,9.519,0,0,0-5.064,18.267" transform="translate(858.414 2985.846)" fill="#fed5b1" opacity="0.42"/><g transform="translate(1084.41 3240.086)" opacity="0.14"><path d="M360.234,199.428l-88.5,12.186,9.372,64.822,87.781-12.365Z" transform="translate(-268.452 -184.155)" fill="#ebebeb"/><path d="M362.621,179.188l-87.48,18.133,13.726,64.041L375.613,243.1Z" transform="translate(-270.501 -172.002)" fill="#e0e0e0"/><path d="M348.105,161.2,263.83,190.854l22.155,61.635,83.53-29.682Z" transform="translate(-263.709 -161.203)" fill="#fff"/><g transform="translate(0 0)"><path d="M347.923,161.2l21.489,61.576.028.08-.079.028-83.524,29.7-.1.035-.035-.1-.162-.449-21.984-61.189-.032-.09.09-.032L347.923,161.2l-84.244,29.74.058-.121,22,61.182.162.449-.133-.063L369.3,222.727l-.052.108Z" transform="translate(-263.527 -161.203)" fill="#263238"/></g><g transform="translate(69.266 11.948)"><path d="M454.4,238.276c-.161.06-4.21-10.451-9.042-23.475s-8.619-23.634-8.457-23.694,4.209,10.449,9.043,23.477S454.561,238.216,454.4,238.276Z" transform="translate(-436.895 -191.107)" fill="#263238"/></g><g transform="translate(62.069 15.238)"><path d="M436.384,246.51c-.162.06-4.211-10.451-9.042-23.475s-8.619-23.634-8.457-23.694,4.209,10.449,9.043,23.477S436.545,246.45,436.384,246.51Z" transform="translate(-418.879 -199.341)" fill="#263238"/></g><g transform="translate(39.722 24.598)"><path d="M380.453,269.937c-.162.06-4.211-10.451-9.042-23.475s-8.619-23.634-8.457-23.694,4.21,10.449,9.043,23.477S380.614,269.877,380.453,269.937Z" transform="translate(-362.948 -222.768)" fill="#263238"/></g><g transform="translate(46.844 21.73)"><path d="M398.279,262.759c-.162.06-4.21-10.451-9.042-23.475s-8.619-23.634-8.458-23.694,4.209,10.449,9.043,23.477S398.441,262.7,398.279,262.759Z" transform="translate(-380.775 -215.59)" fill="#263238"/></g><g transform="translate(53.967 18.862)"><path d="M416.106,255.581c-.161.06-4.21-10.451-9.042-23.475s-8.619-23.634-8.457-23.694,4.209,10.449,9.043,23.477S416.267,255.521,416.106,255.581Z" transform="translate(-398.601 -208.411)" fill="#263238"/></g><g transform="translate(31.472 26.971)"><path d="M359.8,275.879c-.162.06-4.21-10.451-9.042-23.475s-8.619-23.634-8.458-23.694,4.209,10.449,9.043,23.477S359.966,275.819,359.8,275.879Z" transform="translate(-342.3 -228.709)" fill="#263238"/></g><g transform="translate(23.582 29.865)"><path d="M340.056,283.121c-.162.06-4.21-10.451-9.042-23.475s-8.619-23.634-8.458-23.694,4.21,10.449,9.043,23.477S340.218,283.061,340.056,283.121Z" transform="translate(-322.552 -235.951)" fill="#263238"/></g><g transform="translate(15.692 32.758)"><path d="M320.308,290.362c-.162.06-4.21-10.451-9.042-23.475s-8.619-23.634-8.458-23.694,4.209,10.449,9.043,23.477S320.47,290.3,320.308,290.362Z" transform="translate(-302.804 -243.193)" fill="#263238"/></g></g><path d="M607.325,206a12,12,0,0,0,4.877,1.119,6.351,6.351,0,0,1,1.69.254l-10.384,22.353a3.285,3.285,0,0,0,1.6,4.363l23.258,10.8,1.225-2.64a5.221,5.221,0,0,0,.477-1.94,10.765,10.765,0,0,1,.991-4.011,10.892,10.892,0,1,1,16.892,12.912,5.4,5.4,0,0,0-1.448,1.854l-.861,1.852,23.53,11.02a4.034,4.034,0,0,0,5.358-1.959l9.652-20.72,1.606.747q.274.126.544.274a13.274,13.274,0,1,0,10.488-19.66,5.065,5.065,0,0,1-1.025-.346l-2.062-.958,10.747-23.137a4.032,4.032,0,0,0-1.958-5.358l-64.359-29.9a3.284,3.284,0,0,0-4.363,1.595L622.854,188.08a6.467,6.467,0,0,1-.958-.958,12.04,12.04,0,0,0-6.238-4.039A12.246,12.246,0,0,0,607.325,206" transform="translate(656.089 3081.76)" fill="#fedcbf" opacity="0.42"/><g transform="translate(1257.723 3526.604)" opacity="0.14"><path d="M371.4,199.428,271.73,213.151l10.554,73,98.854-13.925Z" transform="translate(-268.039 -182.229)" fill="#ebebeb"/><path d="M373.656,179.188l-98.516,20.42,15.458,72.12,97.688-20.567Z" transform="translate(-269.915 -171.096)" fill="#e0e0e0"/><path d="M358.736,161.2,263.83,194.595,288.779,264l94.067-33.427Z" transform="translate(-263.693 -161.203)" fill="#fff"/><g transform="translate(0 0)"><path d="M358.57,161.2c.26.744,9.539,27.333,24.2,69.343l.031.09-.089.031-94.06,33.447-.11.039-.04-.11-.182-.506-24.757-68.907-.036-.1.1-.036L358.57,161.2,263.7,194.695l.065-.136,24.777,68.9.182.506-.149-.071,94.074-33.407-.059.121Z" transform="translate(-263.527 -161.203)" fill="#263238"/></g><g transform="translate(78.004 13.455)"><path d="M456.607,244.226c-.182.068-4.741-11.77-10.182-26.436s-9.706-26.615-9.524-26.683,4.74,11.767,10.183,26.439S456.789,244.159,456.607,244.226Z" transform="translate(-436.895 -191.107)" fill="#263238"/></g><g transform="translate(69.898 17.16)"><path d="M438.592,252.46c-.182.067-4.742-11.77-10.183-26.436s-9.706-26.615-9.524-26.683,4.741,11.767,10.183,26.439S438.774,252.393,438.592,252.46Z" transform="translate(-418.879 -199.341)" fill="#263238"/></g><g transform="translate(44.733 27.701)"><path d="M382.661,275.887c-.182.067-4.742-11.77-10.183-26.436s-9.706-26.615-9.524-26.683,4.741,11.767,10.183,26.439S382.843,275.82,382.661,275.887Z" transform="translate(-362.948 -222.768)" fill="#263238"/></g><g transform="translate(52.754 24.471)"><path d="M400.487,268.71c-.182.067-4.741-11.77-10.182-26.436s-9.706-26.615-9.525-26.683,4.74,11.767,10.183,26.438S400.669,268.642,400.487,268.71Z" transform="translate(-380.775 -215.59)" fill="#263238"/></g><g transform="translate(60.775 21.241)"><path d="M418.314,261.531c-.182.067-4.741-11.77-10.182-26.436s-9.706-26.616-9.524-26.683,4.74,11.768,10.183,26.439S418.5,261.463,418.314,261.531Z" transform="translate(-398.602 -208.411)" fill="#263238"/></g><g transform="translate(35.442 30.374)"><path d="M362.012,281.829c-.182.068-4.741-11.77-10.182-26.436s-9.706-26.615-9.525-26.683,4.741,11.768,10.183,26.439S362.194,281.761,362.012,281.829Z" transform="translate(-342.3 -228.709)" fill="#263238"/></g><g transform="translate(26.557 33.632)"><path d="M342.264,289.071c-.182.068-4.741-11.77-10.182-26.436s-9.706-26.615-9.525-26.683,4.741,11.767,10.183,26.439S342.446,289,342.264,289.071Z" transform="translate(-322.552 -235.951)" fill="#263238"/></g><g transform="translate(17.672 36.89)"><path d="M322.516,296.312c-.182.068-4.741-11.769-10.182-26.436s-9.706-26.615-9.525-26.683,4.74,11.767,10.183,26.439S322.7,296.245,322.516,296.312Z" transform="translate(-302.804 -243.193)" fill="#263238"/></g></g><path d="M66.974,101.726c0,.086-6.458.157-14.421.157s-14.424-.071-14.424-.157,6.457-.156,14.424-.156,14.421.07,14.421.156" transform="translate(820.285 3267.209)" fill="#e0e0e0"/><g transform="translate(1348.208 3219.768)"><path d="M384.815,292.224,369.7,293.632l5.564,5.565-12.872,12.872a1.8,1.8,0,1,0,2.539,2.539L377.8,301.735l5.608,5.61Z" transform="translate(-357.517 -247.849)" fill="#529d2e"/><path d="M652.883,258.188l-29.308,2.728L634.36,271.7l-24.95,24.95a3.48,3.48,0,1,0,4.921,4.922l24.952-24.952L650.154,287.5Z" transform="translate(-581.091 -218.563)" fill="#fc8116"/><path d="M571.865,168.785l-21.447,2,7.893,7.893-18.259,18.259a2.546,2.546,0,1,0,3.6,3.6l18.259-18.258,7.956,7.957Z" transform="translate(-500.074 -168.785)" fill="#fcd03e"/></g></g></svg>