<svg xmlns="http://www.w3.org/2000/svg" xmlns:xlink="http://www.w3.org/1999/xlink" width="186.786" height="172.989" viewBox="0 0 186.786 172.989"><defs><filter id="a" x="9.648" y="143.484" width="166.196" height="29.505" filterUnits="userSpaceOnUse"><feOffset dy="3" input="SourceAlpha"/><feGaussianBlur stdDeviation="3" result="b"/><feFlood flood-opacity="0.161"/><feComposite operator="in" in2="b"/><feComposite in="SourceGraphic"/></filter><filter id="c" x="14.393" y="7.857" width="156.707" height="156.707" filterUnits="userSpaceOnUse"><feOffset dy="3" input="SourceAlpha"/><feGaussianBlur stdDeviation="3" result="d"/><feFlood flood-opacity="0.161"/><feComposite operator="in" in2="d"/><feComposite in="SourceGraphic"/></filter><filter id="e" x="153.1" y="29.813" width="33.686" height="33.686" filterUnits="userSpaceOnUse"><feOffset dy="3" input="SourceAlpha"/><feGaussianBlur stdDeviation="3" result="f"/><feFlood flood-opacity="0.161"/><feComposite operator="in" in2="f"/><feComposite in="SourceGraphic"/></filter><filter id="g" x="0" y="77.211" width="29.771" height="29.771" filterUnits="userSpaceOnUse"><feOffset dy="3" input="SourceAlpha"/><feGaussianBlur stdDeviation="3" result="h"/><feFlood flood-opacity="0.161"/><feComposite operator="in" in2="h"/><feComposite in="SourceGraphic"/></filter><filter id="i" x="25.452" y="0" width="25.857" height="25.857" filterUnits="userSpaceOnUse"><feOffset dy="3" input="SourceAlpha"/><feGaussianBlur stdDeviation="3" result="j"/><feFlood flood-opacity="0.161"/><feComposite operator="in" in2="j"/><feComposite in="SourceGraphic"/></filter><clipPath id="k"><rect width="140.166" height="140.166" transform="translate(180.954 8284.954)" fill="#fff" stroke="#707070" stroke-width="1"/></clipPath></defs><g transform="translate(5637.212 10711.393)"><g transform="translate(-5618.564 -10697.535)"><g transform="matrix(1, 0, 0, 1, -18.65, -13.86)" filter="url(#a)"><path d="M74.1,0c40.923,0,74.1,2.576,74.1,5.753s-33.175,5.753-74.1,5.753S0,8.93,0,5.753,33.175,0,74.1,0Z" transform="translate(18.65 149.48)" fill="#a1b3d6"/></g><g transform="matrix(1, 0, 0, 1, -18.65, -13.86)" filter="url(#c)"><path d="M69.354,0A69.353,69.353,0,1,1,0,69.353,69.353,69.353,0,0,1,69.354,0Z" transform="translate(23.39 13.86)" fill="#f3f9ff"/></g><g transform="matrix(1, 0, 0, 1, -18.65, -13.86)" filter="url(#e)"><circle cx="5.546" cy="5.546" r="5.546" transform="translate(162.1 43.66) rotate(-45)" fill="#455a64"/></g><g transform="matrix(1, 0, 0, 1, -18.65, -13.86)" filter="url(#g)"><circle cx="4.162" cy="4.162" r="4.162" transform="translate(9 89.1) rotate(-45)" fill="#455a64"/></g><g transform="matrix(1, 0, 0, 1, -18.65, -13.86)" filter="url(#i)"><circle cx="2.778" cy="2.778" r="2.778" transform="translate(34.45 9.93) rotate(-45)" fill="#455a64"/></g><g transform="translate(-174.924 -8289.709)" clip-path="url(#k)"><g transform="translate(183.973 8283.182)"><circle cx="62.274" cy="62.274" r="62.274" transform="translate(2.395 7.185)" fill="#64b5f6"/><path d="M85.18,10.4A62.266,62.266,0,0,1,21.56,116.544,62.268,62.268,0,1,0,85.18,10.4Z" transform="translate(5.311 2.393)" fill="#42a5f5"/><circle cx="43.112" cy="43.112" r="43.112" transform="translate(21.556 26.346)" fill="#eee"/><path d="M71.192,20.228A43.077,43.077,0,0,1,27.434,93.143,43.092,43.092,0,1,0,71.192,20.228Z" transform="translate(9.368 9.181)" fill="#e0e0e0"/><circle cx="23.951" cy="23.951" r="23.951" transform="translate(40.717 45.507)" fill="#ffccbc"/><path d="M75.128,53.408A23.945,23.945,0,0,1,33.405,69.455a23.289,23.289,0,0,0,5.8.719,23.944,23.944,0,0,0,17.772-40A23.949,23.949,0,0,1,75.128,53.408Z" transform="translate(13.492 16.051)" fill="#ffab91"/><path d="M59.5,21.016V37.782L76.266,21.016V4.25Z" transform="translate(31.515 -1.855)" fill="#ffa726"/><path d="M69.081,14.112V8.5L59.5,18.081v9.581l6.774-6.774A9.58,9.58,0,0,0,69.081,14.112Z" transform="translate(31.515 1.08)" fill="#ffb74d"/><path d="M80.516,18.417,63.75,35.183H80.516L97.282,18.417Z" transform="translate(34.451 7.93)" fill="#ffa726"/><path d="M68,32.247h9.581l9.581-9.581H81.549a9.58,9.58,0,0,0-6.774,2.806Z" transform="translate(37.386 10.865)" fill="#ffb74d"/><rect width="80.472" height="10.162" rx="3.005" transform="translate(57.774 69.168) rotate(-45)" fill="#616161"/><path d="M41.268,66.332a5.059,5.059,0,0,0,4.891-1.3L91.085,20.107a5.081,5.081,0,0,0,0-7.185L42.566,61.441A5.059,5.059,0,0,0,41.268,66.332Z" transform="translate(18.801 4.134)" fill="#757575"/><path d="M108.015,105.986V82.035A23.951,23.951,0,0,0,84.064,58.083H40.951A23.951,23.951,0,0,0,17,82.035v23.951Z" transform="translate(2.161 35.327)" fill="#ffb74d"/><path d="M108.015,82.035v23.951H17V94.01a4.8,4.8,0,0,0,4.79,4.79H91.249a4.8,4.8,0,0,0,4.79-4.79V82.035A23.96,23.96,0,0,0,72.088,58.083H84.064A23.951,23.951,0,0,1,108.015,82.035Z" transform="translate(2.161 35.327)" fill="#ffa726"/><path d="M29.618,72.292a40.431,40.431,0,0,0,4.255,18.03,2.394,2.394,0,0,1-4.294,2.119A45.473,45.473,0,0,1,88.044,30.379a2.4,2.4,0,0,1-1.885,4.4,39.991,39.991,0,0,0-15.823-3.208A40.763,40.763,0,0,0,29.618,72.292ZM107.886,93.53a2.4,2.4,0,0,0,3.207-1.089,45.248,45.248,0,0,0,1.155-37.858,2.394,2.394,0,1,0-4.4,1.885,39.982,39.982,0,0,1,3.207,15.823,40.431,40.431,0,0,1-4.255,18.03,2.394,2.394,0,0,0,1.088,3.208ZM10.457,72.292A59.924,59.924,0,0,1,90.624,15.936a2.4,2.4,0,1,0,1.623-4.507,64.673,64.673,0,0,0-76.01,96.283,2.4,2.4,0,1,0,4.009-2.624,59.687,59.687,0,0,1-9.789-32.8ZM128.132,48.937A2.394,2.394,0,0,0,126.691,52a59.965,59.965,0,0,1-6.266,53.085,2.4,2.4,0,1,0,4.009,2.624A64.749,64.749,0,0,0,131.2,50.379a2.393,2.393,0,0,0-3.064-1.442Zm10.96-18.064L122.327,47.639a2.393,2.393,0,0,1-1.693.7H104.859L93.474,59.726a26.262,26.262,0,0,1-8.038,34.123h6.456a26.376,26.376,0,0,1,26.347,26.346v23.951a2.4,2.4,0,0,1-4.79,0V120.195A21.581,21.581,0,0,0,91.892,98.639H48.779a21.581,21.581,0,0,0-21.556,21.556v23.951a2.4,2.4,0,0,1-4.79,0V120.195A26.376,26.376,0,0,1,48.779,93.848h6.455A26.323,26.323,0,0,1,82.9,49.153L94.287,37.768V21.994a2.4,2.4,0,0,1,.7-1.693L111.754,3.535a2.395,2.395,0,0,1,4.089,1.693V16.357a7.437,7.437,0,0,1,10.428,10.428H137.4a2.395,2.395,0,0,1,1.693,4.088ZM118.444,20.385,68.726,70.1a2.686,2.686,0,1,0,3.8,3.8l49.718-49.718a2.686,2.686,0,1,0-3.8-3.8ZM99.077,32.978,111.053,21V11.01L99.077,22.986ZM89.906,63.294,75.911,77.288A7.476,7.476,0,0,1,65.339,66.716L79.334,52.722A21.6,21.6,0,1,0,89.906,63.294Zm41.711-31.719h-9.992L109.649,43.551h9.992ZM43.989,117.8a2.4,2.4,0,0,0-2.4,2.4v23.951a2.4,2.4,0,0,0,4.79,0V120.195A2.4,2.4,0,0,0,43.989,117.8Zm52.693,0a2.4,2.4,0,0,0-2.4,2.4v23.951a2.4,2.4,0,0,0,4.79,0V120.195a2.394,2.394,0,0,0-2.4-2.4Z" transform="translate(-5.667 -2.833)"/></g></g></g></g></svg>