<svg xmlns="http://www.w3.org/2000/svg" xmlns:xlink="http://www.w3.org/1999/xlink" width="344.085" height="286.593" viewBox="0 0 344.085 286.593"><defs><clipPath id="a"><rect width="344.085" height="286.593" fill="none"/></clipPath><clipPath id="c"><rect width="331.079" height="286.593" fill="#fd963d"/></clipPath><clipPath id="e"><rect width="13.765" height="26.333" fill="#529d2e"/></clipPath><clipPath id="h"><path d="M260.139,185.033s-2.993,6.446-3.224,7.826,1.151,3.223,1.151,3.914-1.841,2.762-1.841,5.984-.23,10.59,2.533,12.431,7.366-.231,7.366-.231l4.374,8.517,17.495-10.128-2.533-3.914s3.684-9.9.921-17.495-12.66-8.748-16.574-8.977c-1.305-.077-2.661-.179-3.94-.179-2.558,0-4.807.409-5.728,2.25" transform="translate(-256.22 -182.783)" fill="none"/></clipPath><clipPath id="i"><rect width="28.114" height="34.057" fill="none"/></clipPath><clipPath id="k"><path d="M265.513,229.586s-5.064,6.906-6.906,10.358-9.669,23.71-13.121,30.846a68.314,68.314,0,0,0-4.777,12.818h48.282s5.525-27.55,5.525-39.52a69.966,69.966,0,0,0-3.683-23.249c-.921-2.3-4.374-4.143-4.374-4.143Z" transform="translate(-240.71 -216.696)" fill="none"/></clipPath><clipPath id="o"><path d="M292.89,215.557l1.59,49.605s-45.472,8.9-48.016,9.222-16.218-3.18-18.126-3.18-10.493,9.223-12.082,9.54.953,1.273,3.18,1.273,4.77-3.181,5.723-3.5,2.862,0,5.088,1.591,8.268,2.225,11.765,2.225a59.573,59.573,0,0,0,7.632-.635s44.518,1.272,51.832.953,11.766-.318,13.038-4.134.954-51.854.954-51.854l-16.218-22.873c-7.949,3.18-6.359,11.766-6.359,11.766" transform="translate(-215.758 -203.791)" fill="#3a8416"/></clipPath><clipPath id="p"><rect width="60.789" height="74.112" fill="#3a8416"/></clipPath><clipPath id="r"><rect width="148.361" height="159.28" fill="none"/></clipPath><clipPath id="s"><path d="M148.888,204.953c-4.66,3.552-10.431,20.641-12.651,23.526a51.024,51.024,0,0,0-4.441,7.584s-4.214,6.4-2.439,9.506,8.211,9.544,21.529,8.656,5.326-23.3,6.879-37.064c1.124-9.949-1.581-13.749-4.927-13.749a6.711,6.711,0,0,0-3.949,1.541" transform="translate(-128.92 -203.412)" fill="none"/></clipPath><clipPath id="t"><rect width="30.727" height="51.798" fill="none"/></clipPath><clipPath id="v"><path d="M159.392,170.747c-3.107.443-6.658-.444-6.88,1.331s-2.219,30.185-2.219,30.185-.223,25.524,0,29.518-1.776,5.327,1.553,5.993,30.407,1.331,33.07.888,2.663-1.776,3.329-3.108,9.544-58.371,7.546-59.925-14.648-6.214-15.758-6.214-17.534.888-20.642,1.332" transform="translate(-149.899 -169.415)" fill="none"/></clipPath><clipPath id="x"><path d="M147.718,168.621c-2.7.6-9.013,15.923-9.915,18.025s-10.815,11.717-10.815,11.717l-28.54-11.115-3,8.412s23.133,15.022,27.039,16.824,9.313,1.5,11.115,1.5a6.746,6.746,0,0,0,3.606-1.5l-8.713,20.128s14.119-16.824,18.327-24.936,13.819-31.845,14.72-32.446,2.195-6.066,2.195-6.066-8.348-.717-13.164-.717a15.655,15.655,0,0,0-2.85.175" transform="translate(-95.443 -168.446)" fill="none"/></clipPath><clipPath id="y"><rect width="45.453" height="19.136" fill="none"/></clipPath><clipPath id="aa"><path d="M159.862,129.39c1.538,2.049,2.818,1.025,2.818,1.025s-3.987,6.122-3.731,7.4.913,2.588.913,3.612-4.5,4.612-3.987,5.38,3.074,2.05,3.074,2.05-.111,9.992,2.195,11.272,6.66-.769,6.66-.769l2.306,12.809,13.065-9.223v-9.222s7.686-8.711,8.2-15.628-8.967-14.6-18.445-15.884a18.3,18.3,0,0,0-2.442-.168c-7.9,0-12.023,5.475-10.624,7.342" transform="translate(-155.834 -122.048)" fill="none"/></clipPath><clipPath id="ab"><rect width="28.237" height="40.836" fill="none"/></clipPath><clipPath id="ad"><path d="M178.581,192.744c-3.551,12.873-2.885,52.823-2.885,55.042s5.1,10.21,10.875,12.429a46.85,46.85,0,0,0,11.763,2.664s-4-26.412-4-33.958,3.551-19.309,3.551-19.309,5.327,13.316,7.546,15.092,11.1,3.774,10.876-4.439-7.769-37.509-9.766-40.394S195,174.1,195,174.1l-9.986-4.438s-2.887,10.209-6.437,23.082" transform="translate(-175.646 -169.662)" fill="none"/></clipPath><clipPath id="ae"><rect width="31.062" height="63.639" fill="none"/></clipPath><clipPath id="ag"><path d="M170.358,230.59c-1.332,0-2,.888-1.11,1.554a4.827,4.827,0,0,0,2.442.666s-3.107,1.776-2.885,2.663,2,1.554,2,1.554a8.124,8.124,0,0,0,3.773,3.107c2.22.666,9.987-2,9.987-2l5.993-.443-2.442-6.881s-8.433-3.773-9.1-3.773-7.325,3.551-8.656,3.551" transform="translate(-168.792 -227.039)" fill="none"/></clipPath><clipPath id="ah"><rect width="19.753" height="9.643" fill="none"/></clipPath><clipPath id="aj"><path d="M210.354,220.418l-20.864,8.433,1.555,8.878s27.965-3.994,29.3-5.993-3.773-13.316-3.773-13.316Z" transform="translate(-189.49 -218.42)" fill="none"/></clipPath><clipPath id="ak"><rect width="29.996" height="19.309" fill="none"/></clipPath></defs><g clip-path="url(#a)"><g clip-path="url(#a)"><path d="M288.762,39.825S250.357-3.05,190.882.173,81.45,46.517,40.094,80.338-11.578,165.679,13.6,205.287,77.312,227.3,127.291,252.377s59.652,39.665,114.663,32.308,95.776-72.808,88.222-141.573S288.762,39.825,288.762,39.825" transform="translate(0 0)" fill="#c6ff00"/><g opacity="0.7"><g clip-path="url(#c)"><path d="M288.762,39.825S250.357-3.05,190.882.173,81.45,46.517,40.094,80.338-11.578,165.679,13.6,205.287,77.312,227.3,127.291,252.377s59.652,39.665,114.663,32.308,95.776-72.808,88.222-141.573S288.762,39.825,288.762,39.825" transform="translate(0 0)" fill="#fd963d"/></g></g></g><rect width="246.949" height="160.427" transform="translate(16.923 51.048)" fill="#fff"/><rect width="140.416" height="88.913" transform="translate(107.137 106.426)" fill="#fff"/><rect width="140.416" height="88.913" transform="translate(107.137 106.426)" fill="none" stroke="#263238" stroke-miterlimit="10" stroke-width="1"/><path d="M162.56,105.764l-2.716-7.792h-44V211.481H261.719V105.764Zm96.43,99.247H118.574V116.1H258.99Z" transform="translate(-11.437 -9.673)" fill="#3a8416"/><path d="M162.56,105.764l-2.716-7.792h-44V211.481H261.719V105.764Zm96.43,99.247H118.574V116.1H258.99Z" transform="translate(-11.437 -9.673)" fill="none" stroke="#263238" stroke-miterlimit="10" stroke-width="1"/><rect width="69.761" height="4.271" transform="translate(151.103 99.035)" fill="#fff"/><rect width="69.761" height="4.271" transform="translate(151.103 99.035)" fill="none" stroke="#263238" stroke-miterlimit="10" stroke-width="1"/><path d="M122.4,109.126l-2.013,1.939,2.087,2.236" transform="translate(-11.885 -10.774)" fill="none" stroke="#263238" stroke-linecap="round" stroke-linejoin="round" stroke-width="1"/><line x2="4.473" transform="translate(108.501 100.291)" fill="none" stroke="#263238" stroke-linecap="round" stroke-linejoin="round" stroke-width="1"/><path d="M135.267,109.126l2.013,1.939-2.087,2.236" transform="translate(-13.347 -10.774)" fill="none" stroke="#263238" stroke-linecap="round" stroke-linejoin="round" stroke-width="1"/><line x1="4.473" transform="translate(119.46 100.291)" fill="none" stroke="#263238" stroke-linecap="round" stroke-linejoin="round" stroke-width="1"/><g clip-path="url(#a)"><path d="M147.726,110.812a2.2,2.2,0,0,0-2.049-1.6,2.013,2.013,0,1,0,1.274,3.571" transform="translate(-14.184 -10.782)" fill="none" stroke="#263238" stroke-linecap="round" stroke-linejoin="round" stroke-width="1"/><path d="M146.667,111.034h1.566v-1.862" transform="translate(-14.48 -10.778)" fill="none" stroke="#263238" stroke-linecap="round" stroke-linejoin="round" stroke-width="1"/><path d="M159.6,110.341l-1.857-1.5-1.768,1.5v3.271H159.6Z" transform="translate(-15.399 -10.745)" fill="none" stroke="#263238" stroke-linecap="round" stroke-linejoin="round" stroke-width="1"/><rect width="1.414" height="2.269" transform="translate(141.642 100.48)" fill="#263238"/><line x1="1.061" y2="0.972" transform="translate(139.52 99.596)" fill="none" stroke="#263238" stroke-linecap="round" stroke-linejoin="round" stroke-width="1"/><line x2="0.999" y2="0.887" transform="translate(144.205 99.596)" fill="none" stroke="#263238" stroke-linecap="round" stroke-linejoin="round" stroke-width="1"/><line x2="2.827" y2="2.916" transform="translate(143.536 92.334)" fill="none" stroke="#263238" stroke-linecap="round" stroke-linejoin="round" stroke-width="1"/><line x1="2.916" y2="2.827" transform="translate(143.492 92.378)" fill="none" stroke="#263238" stroke-linecap="round" stroke-linejoin="round" stroke-width="1"/><line x2="5.595" transform="translate(240.156 99.818)" fill="none" stroke="#263238" stroke-linecap="round" stroke-linejoin="round" stroke-width="1"/><line x2="5.595" transform="translate(240.156 101.079)" fill="none" stroke="#263238" stroke-linecap="round" stroke-linejoin="round" stroke-width="1"/><line x2="5.595" transform="translate(240.156 102.341)" fill="none" stroke="#263238" stroke-linecap="round" stroke-linejoin="round" stroke-width="1"/><line x2="5.595" transform="translate(240.156 103.603)" fill="none" stroke="#263238" stroke-linecap="round" stroke-linejoin="round" stroke-width="1"/><line x2="7.052" transform="translate(210.787 116.92)" fill="#fff"/><line x2="7.052" transform="translate(210.787 116.92)" fill="none" stroke="#263238" stroke-linecap="round" stroke-linejoin="round" stroke-width="1"/><line x2="6.19" transform="translate(201.665 116.92)" fill="#fff"/><line x2="6.19" transform="translate(201.665 116.92)" fill="none" stroke="#263238" stroke-linecap="round" stroke-linejoin="round" stroke-width="1"/><line x2="12.884" transform="translate(186.5 116.92)" fill="#fff"/><line x2="12.884" transform="translate(186.5 116.92)" fill="none" stroke="#263238" stroke-linecap="round" stroke-linejoin="round" stroke-width="1"/><line x2="31.339" transform="translate(186.5 121.223)" fill="#fff"/><line x2="31.339" transform="translate(186.5 121.223)" fill="none" stroke="#263238" stroke-linecap="round" stroke-linejoin="round" stroke-width="1"/><line x2="4.609" transform="translate(213.23 125.526)" fill="#fff"/><line x2="4.609" transform="translate(213.23 125.526)" fill="none" stroke="#263238" stroke-linecap="round" stroke-linejoin="round" stroke-width="1"/><line x2="18.733" transform="translate(191.565 125.526)" fill="#fff"/><line x2="18.733" transform="translate(191.565 125.526)" fill="none" stroke="#263238" stroke-linecap="round" stroke-linejoin="round" stroke-width="1"/><line x2="2.459" transform="translate(186.5 125.526)" fill="#fff"/><line x2="2.459" transform="translate(186.5 125.526)" fill="none" stroke="#263238" stroke-linecap="round" stroke-linejoin="round" stroke-width="1"/><line x2="31.339" transform="translate(186.5 129.829)" fill="#fff"/><line x2="31.339" transform="translate(186.5 129.829)" fill="none" stroke="#263238" stroke-linecap="round" stroke-linejoin="round" stroke-width="1"/><rect width="6.97" height="21.409" transform="translate(190.455 165.716)" fill="#263238"/><rect width="6.97" height="21.409" transform="translate(190.455 165.716)" fill="none" stroke="#263238" stroke-linecap="round" stroke-linejoin="round" stroke-width="1"/><rect width="6.97" height="46.801" transform="translate(200.413 140.324)" fill="#fcd03e"/><rect width="6.97" height="46.801" transform="translate(200.413 140.324)" fill="none" stroke="#263238" stroke-miterlimit="10" stroke-width="1"/><rect width="6.97" height="32.86" transform="translate(210.371 154.265)" fill="#263238"/><rect width="6.97" height="32.86" transform="translate(210.371 154.265)" fill="none" stroke="#263238" stroke-linecap="round" stroke-linejoin="round" stroke-width="1"/><rect width="6.97" height="46.801" transform="translate(220.329 140.324)" fill="#fcd03e"/><rect width="6.97" height="46.801" transform="translate(220.329 140.324)" fill="none" stroke="#263238" stroke-miterlimit="10" stroke-width="1"/><rect width="6.97" height="67.214" transform="translate(230.286 119.911)" fill="#263238"/><rect width="6.97" height="67.214" transform="translate(230.286 119.911)" fill="none" stroke="#263238" stroke-linecap="round" stroke-linejoin="round" stroke-width="1"/><rect width="140.416" height="88.913" transform="translate(27.994 79.383)" fill="#fff"/><rect width="140.416" height="88.913" transform="translate(27.994 79.383)" fill="none" stroke="#263238" stroke-miterlimit="10" stroke-width="1"/><path d="M74.747,75.759,72.03,67.968h-44V181.476H173.906V75.759Zm96.43,99.248H30.761V86.093H171.177Z" transform="translate(-2.768 -6.71)" fill="#3a8416"/><path d="M74.747,75.759,72.03,67.968h-44V181.476H173.906V75.759Zm96.43,99.248H30.761V86.093H171.177Z" transform="translate(-2.768 -6.71)" fill="none" stroke="#263238" stroke-miterlimit="10" stroke-width="1"/><rect width="69.761" height="4.271" transform="translate(71.959 71.992)" fill="#fff"/><rect width="69.761" height="4.271" transform="translate(71.959 71.992)" fill="none" stroke="#263238" stroke-miterlimit="10" stroke-width="1"/><path d="M34.586,79.121,32.573,81.06,34.661,83.3" transform="translate(-3.216 -7.811)" fill="none" stroke="#263238" stroke-linecap="round" stroke-linejoin="round" stroke-width="1"/><line x2="4.473" transform="translate(29.357 73.248)" fill="none" stroke="#263238" stroke-linecap="round" stroke-linejoin="round" stroke-width="1"/><path d="M47.454,79.121l2.013,1.939L47.379,83.3" transform="translate(-4.678 -7.811)" fill="none" stroke="#263238" stroke-linecap="round" stroke-linejoin="round" stroke-width="1"/><line x1="4.473" transform="translate(40.316 73.248)" fill="none" stroke="#263238" stroke-linecap="round" stroke-linejoin="round" stroke-width="1"/><path d="M59.913,80.806a2.2,2.2,0,0,0-2.049-1.6,2.013,2.013,0,1,0,1.274,3.571" transform="translate(-5.514 -7.82)" fill="none" stroke="#263238" stroke-linecap="round" stroke-linejoin="round" stroke-width="1"/><path d="M58.854,81.029H60.42V79.167" transform="translate(-5.81 -7.816)" fill="none" stroke="#263238" stroke-linecap="round" stroke-linejoin="round" stroke-width="1"/><path d="M71.792,80.336l-1.857-1.5-1.768,1.5v3.271h3.625Z" transform="translate(-6.73 -7.783)" fill="none" stroke="#263238" stroke-linecap="round" stroke-linejoin="round" stroke-width="1"/><rect width="1.414" height="2.269" transform="translate(62.498 73.438)" fill="#263238"/><line x1="1.061" y2="0.972" transform="translate(60.376 72.553)" fill="none" stroke="#263238" stroke-linecap="round" stroke-linejoin="round" stroke-width="1"/><line x2="0.999" y2="0.887" transform="translate(65.062 72.553)" fill="none" stroke="#263238" stroke-linecap="round" stroke-linejoin="round" stroke-width="1"/><line x2="2.827" y2="2.916" transform="translate(64.393 65.291)" fill="none" stroke="#263238" stroke-linecap="round" stroke-linejoin="round" stroke-width="1"/><line x1="2.916" y2="2.827" transform="translate(64.349 65.335)" fill="none" stroke="#263238" stroke-linecap="round" stroke-linejoin="round" stroke-width="1"/><line x2="5.595" transform="translate(161.013 72.775)" fill="none" stroke="#263238" stroke-linecap="round" stroke-linejoin="round" stroke-width="1"/><line x2="5.595" transform="translate(161.013 74.036)" fill="none" stroke="#263238" stroke-linecap="round" stroke-linejoin="round" stroke-width="1"/><line x2="5.595" transform="translate(161.013 75.298)" fill="none" stroke="#263238" stroke-linecap="round" stroke-linejoin="round" stroke-width="1"/><line x2="5.595" transform="translate(161.013 76.56)" fill="none" stroke="#263238" stroke-linecap="round" stroke-linejoin="round" stroke-width="1"/><path d="M39.07,173.847V143.134l9.767,20.689,8.3-3.626,9.4,7.421,16-10.407,9.766,13.65,6.837-3.412,5.86,3.412,7.326-.854,9.766,2.347,10.256-.854,6.523,2.346Z" transform="translate(-3.857 -14.131)" fill="#263238"/><line x2="10.652" transform="translate(138.044 106.426)" fill="#fff"/><line x2="10.652" transform="translate(138.044 106.426)" fill="none" stroke="#263238" stroke-linecap="round" stroke-linejoin="round" stroke-width="1"/><line x2="9.35" transform="translate(124.266 106.426)" fill="#fff"/><line x2="9.35" transform="translate(124.266 106.426)" fill="none" stroke="#263238" stroke-linecap="round" stroke-linejoin="round" stroke-width="1"/><line x2="19.459" transform="translate(101.362 106.426)" fill="#fff"/><line x2="19.459" transform="translate(101.362 106.426)" fill="none" stroke="#263238" stroke-linecap="round" stroke-linejoin="round" stroke-width="1"/><line x2="47.335" transform="translate(101.362 110.729)" fill="#fff"/><line x2="47.335" transform="translate(101.362 110.729)" fill="none" stroke="#263238" stroke-linecap="round" stroke-linejoin="round" stroke-width="1"/><line x2="6.961" transform="translate(141.735 115.032)" fill="#fff"/><line x2="6.961" transform="translate(141.735 115.032)" fill="none" stroke="#263238" stroke-linecap="round" stroke-linejoin="round" stroke-width="1"/><line x2="28.295" transform="translate(109.011 115.032)" fill="#fff"/><line x2="28.295" transform="translate(109.011 115.032)" fill="none" stroke="#263238" stroke-linecap="round" stroke-linejoin="round" stroke-width="1"/><line x2="3.713" transform="translate(101.362 115.032)" fill="#fff"/><line x2="3.713" transform="translate(101.362 115.032)" fill="none" stroke="#263238" stroke-linecap="round" stroke-linejoin="round" stroke-width="1"/><line x2="47.335" transform="translate(101.362 119.335)" fill="#fff"/><line x2="47.335" transform="translate(101.362 119.335)" fill="none" stroke="#263238" stroke-linecap="round" stroke-linejoin="round" stroke-width="1"/><line x1="10.652" transform="translate(138.044 126.254)" fill="#fff"/><line x1="10.652" transform="translate(138.044 126.254)" fill="none" stroke="#263238" stroke-linecap="round" stroke-linejoin="round" stroke-width="1"/><line x2="9.35" transform="translate(124.266 126.254)" fill="#fff"/><line x2="9.35" transform="translate(124.266 126.254)" fill="none" stroke="#263238" stroke-linecap="round" stroke-linejoin="round" stroke-width="1"/><line x2="19.459" transform="translate(101.362 126.254)" fill="#fff"/><line x2="19.459" transform="translate(101.362 126.254)" fill="none" stroke="#263238" stroke-linecap="round" stroke-linejoin="round" stroke-width="1"/><line x2="47.335" transform="translate(101.362 130.557)" fill="#fff"/><line x2="47.335" transform="translate(101.362 130.557)" fill="none" stroke="#263238" stroke-linecap="round" stroke-linejoin="round" stroke-width="1"/><line x1="6.961" transform="translate(141.735 134.86)" fill="#fff"/><line x1="6.961" transform="translate(141.735 134.86)" fill="none" stroke="#263238" stroke-linecap="round" stroke-linejoin="round" stroke-width="1"/><line x2="28.295" transform="translate(109.011 134.86)" fill="#fff"/><line x2="28.295" transform="translate(109.011 134.86)" fill="none" stroke="#263238" stroke-linecap="round" stroke-linejoin="round" stroke-width="1"/><line x2="3.713" transform="translate(101.362 134.86)" fill="#fff"/><line x2="3.713" transform="translate(101.362 134.86)" fill="none" stroke="#263238" stroke-linecap="round" stroke-linejoin="round" stroke-width="1"/><line x2="47.335" transform="translate(101.362 139.163)" fill="#fff"/><line x2="47.335" transform="translate(101.362 139.163)" fill="none" stroke="#263238" stroke-linecap="round" stroke-linejoin="round" stroke-width="1"/><path d="M51.036,124.444l-5.6,12.572a13.762,13.762,0,0,1-6.974-18.17,13.589,13.589,0,0,1,12.572-8.164Z" transform="translate(-3.68 -10.927)" fill="#c6ff00"/><g transform="translate(33.591 99.755)" opacity="0.47"><g clip-path="url(#e)"><path d="M51.036,124.444l-5.6,12.572a13.762,13.762,0,0,1-6.974-18.17,13.589,13.589,0,0,1,12.572-8.164Z" transform="translate(-37.271 -110.682)" fill="#529d2e"/></g></g><path d="M51.931,125.951l6.46,12.151a13.385,13.385,0,0,1-12.058.421Z" transform="translate(-4.574 -12.435)" fill="#263238"/><path d="M52.544,125l10.695-8.66A13.761,13.761,0,0,1,61.2,135.7a13.019,13.019,0,0,1-2.2,1.456Z" transform="translate(-5.188 -11.486)" fill="#fcd03e"/><path d="M52.544,124.444V110.682a13.14,13.14,0,0,1,10.695,5.1Z" transform="translate(-5.188 -10.927)" fill="#263238"/><path d="M59.211,125.155a7.49,7.49,0,1,0-7.49,7.49,7.49,7.49,0,0,0,7.49-7.49" transform="translate(-4.367 -11.617)" fill="#fff"/><path d="M92.409,124.444l-5.6,12.572a13.762,13.762,0,0,1-6.974-18.17,13.589,13.589,0,0,1,12.572-8.164Z" transform="translate(-7.764 -10.927)" fill="#c6ff00"/><g transform="translate(70.88 99.755)" opacity="0.47"><g clip-path="url(#e)"><path d="M92.409,124.444l-5.6,12.572a13.762,13.762,0,0,1-6.974-18.17,13.589,13.589,0,0,1,12.572-8.164Z" transform="translate(-78.644 -110.682)" fill="#529d2e"/></g></g><path d="M93.3,125.951,99.765,138.1a13.387,13.387,0,0,1-12.059.421Z" transform="translate(-8.659 -12.435)" fill="#263238"/><path d="M93.917,125l10.694-8.66a13.761,13.761,0,0,1-2.034,19.355,13.047,13.047,0,0,1-2.2,1.456Z" transform="translate(-9.272 -11.486)" fill="#fcd03e"/><path d="M93.917,124.444V110.682a13.14,13.14,0,0,1,10.694,5.1Z" transform="translate(-9.272 -10.927)" fill="#263238"/><path d="M100.585,125.155a7.49,7.49,0,1,0-7.49,7.49,7.49,7.49,0,0,0,7.49-7.49" transform="translate(-8.452 -11.617)" fill="#fff"/><line x2="88.409" transform="translate(34.727 89.08)" fill="#fff"/><line x2="88.409" transform="translate(34.727 89.08)" fill="none" stroke="#263238" stroke-linecap="round" stroke-linejoin="round" stroke-width="1"/><line x2="104.84" transform="translate(34.727 93.383)" fill="#fff"/><line x2="104.84" transform="translate(34.727 93.383)" fill="none" stroke="#263238" stroke-linecap="round" stroke-linejoin="round" stroke-width="1"/></g><g clip-path="url(#a)"><path d="M257.581,197.233s-4.374,5.064-3.913,5.985,4.143,3.222,4.374,1.841a58.461,58.461,0,0,0,.92-6.676c0-1.611.231-2.072-1.381-1.151" transform="translate(-25.04 -19.426)" fill="#fff"/><path d="M257.581,197.233s-4.374,5.064-3.913,5.985,4.143,3.222,4.374,1.841a58.461,58.461,0,0,0,.92-6.676C258.961,196.772,259.192,196.311,257.581,197.233Z" transform="translate(-25.04 -19.426)" fill="none" stroke="#263238" stroke-linecap="round" stroke-linejoin="round" stroke-width="1"/><path d="M260.139,185.033s-2.992,6.445-3.223,7.827,1.151,3.223,1.151,3.913-1.841,2.762-1.841,5.984-.23,10.589,2.533,12.43,7.366-.23,7.366-.23l4.373,8.517,17.495-10.128-2.532-3.913s3.683-9.9.921-17.495-12.661-8.747-16.574-8.978-8.286-.69-9.668,2.072" transform="translate(-25.296 -18.046)" fill="#fff"/></g><g transform="translate(230.924 164.737)"><g clip-path="url(#h)"><path d="M285.86,209.44s3.684-9.9.921-17.495-12.661-8.748-16.574-8.978c-.645-.038-1.3-.081-1.959-.116l-5.117,4.015s-4.206,6.008-2.4,8.412a10.491,10.491,0,0,1,2.4,8.713c-.6,3.905-4.595,10.656-.6,10.815.826.032,2.125.142,3.659.3.208-.081.335-.137.335-.137l.092.179c5.9.6,14.84,1.765,14.84,1.765l.882-.051,6.054-3.5Z" transform="translate(-256.62 -182.79)" fill="#c6ff00"/><g transform="translate(3.658 0.062)" opacity="0.5"><g clip-path="url(#i)"><path d="M285.86,209.44s3.684-9.9.921-17.495-12.661-8.748-16.574-8.978c-.645-.038-1.3-.081-1.959-.116l-5.117,4.015s-4.206,6.008-2.4,8.412a10.491,10.491,0,0,1,2.4,8.713c-.6,3.905-4.595,10.656-.6,10.815.826.032,2.125.142,3.659.3.208-.081.335-.137.335-.137l.092.179c5.9.6,14.84,1.765,14.84,1.765l.882-.051,6.054-3.5Z" transform="translate(-260.278 -182.852)" fill="#fff"/></g></g></g></g><g clip-path="url(#a)"><path d="M260.139,185.033s-2.992,6.445-3.223,7.827,1.151,3.223,1.151,3.913-1.841,2.762-1.841,5.984-.23,10.589,2.533,12.43,7.366-.23,7.366-.23l4.373,8.517,17.495-10.128-2.532-3.913s3.683-9.9.921-17.495-12.661-8.747-16.574-8.978S261.52,182.271,260.139,185.033Z" transform="translate(-25.296 -18.046)" fill="none" stroke="#263238" stroke-linecap="round" stroke-linejoin="round" stroke-width="1"/><path d="M283.8,177.108s-8.517-2.532-15.883-2.3-14.732,2.3-14.5,6.215,7.136,5.294,7.136,5.294,3.913.231,2.762,1.382-4.144,3.453-1.842,6.215,4.6,5.064,3.913,5.984.231,2.993,1.151,2.3-.46-3.453,2.072-4.373,5.064,2.992,4.143,5.525-2.532,2.3-1.611,4.143,6.676,4.834,10.589,4.834,5.064-5.064,9.208-13.121,1.381-19.8-7.136-22.1" transform="translate(-25.018 -17.257)" fill="#263238"/><path d="M283.8,177.108s-8.517-2.532-15.883-2.3-14.732,2.3-14.5,6.215,7.136,5.294,7.136,5.294,3.913.231,2.762,1.382-4.144,3.453-1.842,6.215,4.6,5.064,3.913,5.984.231,2.993,1.151,2.3-.46-3.453,2.072-4.373,5.064,2.992,4.143,5.525-2.532,2.3-1.611,4.143,6.676,4.834,10.589,4.834,5.064-5.064,9.208-13.121S292.318,179.41,283.8,177.108Z" transform="translate(-25.018 -17.257)" fill="none" stroke="#263238" stroke-linecap="round" stroke-linejoin="round" stroke-width="1"/><path d="M262.866,228.568l2.3,4.374,25.321-16.574-2.532-2.992s-21.178,11.74-25.091,15.193" transform="translate(-25.952 -21.066)" fill="#fff"/><path d="M262.866,228.568l2.3,4.374,25.321-16.574-2.532-2.992S266.779,225.115,262.866,228.568Z" transform="translate(-25.952 -21.066)" fill="none" stroke="#263238" stroke-linecap="round" stroke-linejoin="round" stroke-width="1"/><path d="M265.513,229.586s-5.064,6.906-6.906,10.358-9.668,23.71-13.122,30.846a68.344,68.344,0,0,0-4.776,12.818h48.283s5.524-27.55,5.524-39.52a69.978,69.978,0,0,0-3.683-23.25c-.921-2.3-4.374-4.143-4.374-4.143Z" transform="translate(-23.765 -21.394)" fill="#fff"/></g><g transform="translate(216.945 195.302)"><g clip-path="url(#k)"><path d="M265.513,229.586s-5.064,6.906-6.906,10.358-9.668,23.71-13.122,30.846a68.344,68.344,0,0,0-4.776,12.818h48.283s5.524-27.55,5.524-39.52a69.978,69.978,0,0,0-3.683-23.25c-.921-2.3-4.374-4.143-4.374-4.143Z" transform="translate(-240.71 -216.696)" fill="#bdbdbd"/><path d="M265.513,229.586s-5.064,6.906-6.906,10.358-9.668,23.71-13.122,30.846a68.344,68.344,0,0,0-4.776,12.818h48.283s5.524-27.55,5.524-39.52a69.978,69.978,0,0,0-3.683-23.25c-.921-2.3-4.374-4.143-4.374-4.143Z" transform="translate(-240.71 -216.696)" fill="none" stroke="#263238" stroke-linecap="round" stroke-linejoin="round" stroke-width="1"/><path d="M253.541,255.394s10.8-16.932,14.888-21.311S292.7,219.335,292.7,219.335l-3.183-3.455s-20.8,10.32-24.01,13.532-12.553,22.187-11.969,25.982" transform="translate(-241.974 -216.615)" fill="#bdbdbd"/><path d="M253.541,255.394s10.8-16.932,14.888-21.311S292.7,219.335,292.7,219.335l-3.183-3.455s-20.8,10.32-24.01,13.532S252.957,251.6,253.541,255.394Z" transform="translate(-241.974 -216.615)" fill="none" stroke="#263238" stroke-linecap="round" stroke-linejoin="round" stroke-width="1"/></g></g><g clip-path="url(#a)"><path d="M265.513,229.586s-5.064,6.906-6.906,10.358-9.668,23.71-13.122,30.846a68.344,68.344,0,0,0-4.776,12.818h48.283s5.524-27.55,5.524-39.52a69.978,69.978,0,0,0-3.683-23.25c-.921-2.3-4.374-4.143-4.374-4.143Z" transform="translate(-23.765 -21.394)" fill="none" stroke="#263238" stroke-linecap="round" stroke-linejoin="round" stroke-width="1"/><path d="M280.143,231s-12.66,8.287-14.5,11.509-.23,8.287-.23,8.978-1.841,2.993-1.841,3.684v2.3l-9.9,26.7H276.23s9.668-23.479,11.509-28.083,2.762-12.891,1.842-17.5" transform="translate(-25.044 -22.806)" fill="none" stroke="#263238" stroke-linecap="round" stroke-linejoin="round" stroke-width="1"/><path d="M269,252.156s5.525-6.445,13.811-7.366" transform="translate(-26.557 -24.167)" fill="none" stroke="#263238" stroke-linecap="round" stroke-linejoin="round" stroke-width="1"/></g><g clip-path="url(#a)"><path d="M325.548,200.48s-15.9-3.18-20.352.636-1.908,27.028-3.18,33.07-4.451,12.4-3.18,18.761,4.134,10.812,5.406,13.992-.318,14.945-.318,14.945h46.426s8.267-21.941,8.267-38.476-5.088-30.845-12.72-36.251-20.351-6.678-20.351-6.678" transform="translate(-29.474 -19.67)" fill="#529d2e"/></g><g clip-path="url(#a)"><path d="M325.548,200.48s-15.9-3.18-20.352.636-1.908,27.028-3.18,33.07-4.451,12.4-3.18,18.761,4.134,10.812,5.406,13.992-.318,14.945-.318,14.945h46.426s8.267-21.941,8.267-38.476-5.088-30.845-12.72-36.251S325.548,200.48,325.548,200.48Z" transform="translate(-29.474 -19.67)" fill="none" stroke="#263238" stroke-linecap="round" stroke-linejoin="round" stroke-width="1"/><path d="M324.8,136.77s-7-5.724-13.673-1.59S293,158.393,294.271,167.932s12.72,18.444,5.088,23.531-4.77,14.309-.954,16.854l2.226.317s0-9.221,6.359-11.765,15.581-.318,17.807,2.544-1.908,17.489,3.5,21.305,13.038,4.451,11.448,8.267-7,9.857-3.5,15.263,12.083,10.812,14.945,8.9-1.272-4.133.318-5.406,14.628-5.723,12.4-11.129-7-8.268-4.77-10.494,10.493-7.632,9.539-15.264-19.079-13.355-19.715-21.623,10.812-9.221,7-27.983-15.581-27.029-21.305-27.029a20.5,20.5,0,0,0-9.857,2.544" transform="translate(-29.043 -13.198)" fill="#263238"/><path d="M324.8,136.77s-7-5.724-13.673-1.59S293,158.393,294.271,167.932s12.72,18.444,5.088,23.531-4.77,14.309-.954,16.854l2.226.317s0-9.221,6.359-11.765,15.581-.318,17.807,2.544-1.908,17.489,3.5,21.305,13.038,4.451,11.448,8.267-7,9.857-3.5,15.263,12.083,10.812,14.945,8.9-1.272-4.133.318-5.406,14.628-5.723,12.4-11.129-7-8.268-4.77-10.494,10.493-7.632,9.539-15.264-19.079-13.355-19.715-21.623,10.812-9.221,7-27.983-15.581-27.029-21.305-27.029A20.5,20.5,0,0,0,324.8,136.77Z" transform="translate(-29.043 -13.198)" fill="none" stroke="#263238" stroke-linecap="round" stroke-linejoin="round" stroke-width="1"/><path d="M334.967,148.182c4.8,6.645,10.841,16.444,11.022,23.854.3,12.338-10.532,17.454-8.727,27.084s22.844,11.285,24.375,19.86-8.125,5.417-5.718,10.231,11.736,9.027,7.825,14.445" transform="translate(-33.07 -14.63)" fill="none" stroke="#fff" stroke-linecap="round" stroke-linejoin="round" stroke-width="1"/><path d="M328.5,139.924s1.009,1.156,2.534,3.084" transform="translate(-32.432 -13.814)" fill="none" stroke="#fff" stroke-linecap="round" stroke-linejoin="round" stroke-width="1"/><path d="M323.208,194.046a5.118,5.118,0,0,1,1.758,3.282" transform="translate(-31.909 -19.158)" fill="none" stroke="#fff" stroke-linecap="round" stroke-linejoin="round" stroke-width="1"/><path d="M302.617,153.28s-4.815,13.241,2.407,22.269c3.848,4.809,8.635,8.338,12.268,11.222" transform="translate(-29.721 -15.133)" fill="none" stroke="#fff" stroke-linecap="round" stroke-linejoin="round" stroke-width="1"/><path d="M350.885,214.173c1.4.508,2.92.94,4.5,1.392" transform="translate(-34.642 -21.145)" fill="none" stroke="#fff" stroke-linecap="round" stroke-linejoin="round" stroke-width="1"/><path d="M351.883,150.275s10.231,12.94,6.621,24.074-15.649,17.153-15.649,24.375a8.52,8.52,0,0,0,2.048,6.03" transform="translate(-33.849 -14.836)" fill="none" stroke="#fff" stroke-linecap="round" stroke-linejoin="round" stroke-width="1"/><path d="M217.73,279.065s-1.91,2.35-1.91,3.819-.735,4.405.148,4.552,1.468-3.084,2.349-4.258,3.084-1.469,2.938-3.084-2.2-3.084-3.525-1.028" transform="translate(-21.279 -27.452)" fill="#fff"/><path d="M217.73,279.065s-1.91,2.35-1.91,3.819-.735,4.405.148,4.552,1.468-3.084,2.349-4.258,3.084-1.469,2.938-3.084S219.053,277.009,217.73,279.065Z" transform="translate(-21.279 -27.452)" fill="none" stroke="#263238" stroke-linecap="round" stroke-linejoin="round" stroke-width="1"/><path d="M239.206,280.611s-8.224-6.9-10.282-7.637-6.168,3.966-8.665,8.519-1.174,5.581.147,5.728,7.05-2.35,7.05-2.35a17.845,17.845,0,0,0,6.9,3.378c3.965.881,9.693-1.468,9.839-3.818s-4.992-3.819-4.992-3.819" transform="translate(-21.607 -26.942)" fill="#fff"/><path d="M239.206,280.611s-8.224-6.9-10.282-7.637-6.168,3.966-8.665,8.519-1.174,5.581.147,5.728,7.05-2.35,7.05-2.35a17.845,17.845,0,0,0,6.9,3.378c3.965.881,9.693-1.468,9.839-3.818S239.206,280.611,239.206,280.611Z" transform="translate(-21.607 -26.942)" fill="none" stroke="#263238" stroke-linecap="round" stroke-linejoin="round" stroke-width="1"/><path d="M315.467,226.664s.318,48.038-.954,51.854-5.723,3.816-13.037,4.134-51.832-.953-51.832-.953a59.592,59.592,0,0,1-7.632.635c-3.5,0-9.539-.635-11.765-2.226s-4.134-1.907-5.088-1.59-3.5,3.5-5.724,3.5-4.77-.953-3.18-1.272,10.175-9.54,12.083-9.54,15.581,3.5,18.125,3.181,48.016-9.222,48.016-9.222l-1.59-49.606s-1.59-8.586,6.359-11.766" transform="translate(-21.301 -20.12)" fill="#529d2e"/><g transform="translate(194.458 183.671)" clip-path="url(#o)"><g transform="translate(38.954 4.8)" opacity="0.26"><g clip-path="url(#p)"><path d="M307.065,209.117a5.919,5.919,0,0,0-2.443,2.274c-4.506,7.51.6,48.669,1.8,52.574s-7.51.3-4.806,2.4,7.811,5.708,7.811,5.708-14.721-6.309-10.815-2.4,11.717,8.412,11.717,8.412l-51.349,4.279c11.882.322,40.975,1.065,46.763.814,7.312-.318,11.764-.318,13.037-4.134s.954-52.786.954-52.786Z" transform="translate(-258.98 -209.117)" fill="#3a8416"/></g></g></g></g><g clip-path="url(#a)"><path d="M315.467,226.664s.318,48.038-.954,51.854-5.723,3.816-13.037,4.134-51.832-.953-51.832-.953a59.592,59.592,0,0,1-7.632.635c-3.5,0-9.539-.635-11.765-2.226s-4.134-1.907-5.088-1.59-3.5,3.5-5.724,3.5-4.77-.953-3.18-1.272,10.175-9.54,12.083-9.54,15.581,3.5,18.125,3.181,48.016-9.222,48.016-9.222l-1.59-49.606s-1.59-8.586,6.359-11.766" transform="translate(-21.301 -20.12)" fill="none" stroke="#263238" stroke-linecap="round" stroke-linejoin="round" stroke-width="1"/><path d="M262.886,289.436a17.1,17.1,0,0,1,.625-10.868c-8.688,1.675-16.065,3.076-17.047,3.2-2.544.318-16.217-3.18-18.125-3.18s-10.494,9.221-12.083,9.539.954,1.272,3.18,1.272,4.77-3.18,5.724-3.5,2.862,0,5.088,1.59,8.267,2.226,11.765,2.226a59.568,59.568,0,0,0,7.632-.635s5.645.161,13.242.354" transform="translate(-21.301 -27.502)" fill="#fff"/><path d="M262.886,289.436a17.1,17.1,0,0,1,.625-10.868c-8.688,1.675-16.065,3.076-17.047,3.2-2.544.318-16.217-3.18-18.125-3.18s-10.494,9.221-12.083,9.539.954,1.272,3.18,1.272,4.77-3.18,5.724-3.5,2.862,0,5.088,1.59,8.267,2.226,11.765,2.226a59.568,59.568,0,0,0,7.632-.635S255.288,289.243,262.886,289.436Z" transform="translate(-21.301 -27.502)" fill="none" stroke="#263238" stroke-linecap="round" stroke-linejoin="round" stroke-width="1"/><path d="M221.309,275.427a9.631,9.631,0,0,0-3.378,3.378c-.881,1.909,0,7.783,1.469,7.783s2.5-1.615,2.5-3.671-.588-7.49-.588-7.49" transform="translate(-21.481 -27.192)" fill="#fff"/><path d="M221.309,275.427a9.631,9.631,0,0,0-3.378,3.378c-.881,1.909,0,7.783,1.469,7.783s2.5-1.615,2.5-3.671S221.309,275.427,221.309,275.427Z" transform="translate(-21.481 -27.192)" fill="none" stroke="#263238" stroke-linecap="round" stroke-linejoin="round" stroke-width="1"/><path d="M223.586,274.124a4.159,4.159,0,0,0-3.231,1.909c-.881,1.763-.735,9.253.735,9.546s2.056-2.2,2.056-3.819.441-7.636.441-7.636" transform="translate(-21.701 -27.063)" fill="#fff"/><path d="M223.586,274.124a4.159,4.159,0,0,0-3.231,1.909c-.881,1.763-.735,9.253.735,9.546s2.056-2.2,2.056-3.819S223.586,274.124,223.586,274.124Z" transform="translate(-21.701 -27.063)" fill="none" stroke="#263238" stroke-linecap="round" stroke-linejoin="round" stroke-width="1"/><path d="M229.335,272.965s-3.525-.588-4.993.441-1.763,10.134-.735,10.868,2.79-1.174,2.79-2.2,2.056-6.609,2.056-6.609" transform="translate(-22.016 -26.933)" fill="#fff"/><path d="M229.335,272.965s-3.525-.588-4.993.441-1.763,10.134-.735,10.868,2.79-1.174,2.79-2.2,2.056-6.609,2.056-6.609" transform="translate(-22.016 -26.933)" fill="none" stroke="#263238" stroke-linecap="round" stroke-linejoin="round" stroke-width="1"/></g><g transform="translate(57.078 103)"><g clip-path="url(#r)"><path d="M131.8,236.063s-4.214,6.4-2.439,9.506,8.211,9.544,21.529,8.656,5.326-23.3,6.88-37.065-4.217-15.758-8.878-12.207-10.43,20.641-12.65,23.526a51.074,51.074,0,0,0-4.441,7.584" transform="translate(-69.805 -123.082)" fill="#c6ff00"/></g></g><g transform="translate(116.192 183.33)"><g clip-path="url(#s)"><g transform="translate(-0.45 -0.451)" opacity="0.42"><g clip-path="url(#t)"><path d="M131.8,236.063s-4.214,6.4-2.439,9.506,8.211,9.544,21.529,8.656,5.326-23.3,6.88-37.065-4.217-15.758-8.878-12.207-10.43,20.641-12.65,23.526a51.074,51.074,0,0,0-4.441,7.584" transform="translate(-128.469 -202.961)"/><path d="M131.8,236.063s-4.214,6.4-2.439,9.506,8.211,9.544,21.529,8.656,5.326-23.3,6.88-37.065-4.217-15.758-8.878-12.207-10.43,20.641-12.65,23.526A51.074,51.074,0,0,0,131.8,236.063Z" transform="translate(-128.469 -202.961)" fill="none" stroke="#263238" stroke-linecap="round" stroke-linejoin="round" stroke-width="1"/></g></g></g></g><g transform="translate(57.078 103)"><g clip-path="url(#r)"><path d="M131.8,236.063s-4.214,6.4-2.439,9.506,8.211,9.544,21.529,8.656,5.326-23.3,6.88-37.065-4.217-15.758-8.878-12.207-10.43,20.641-12.65,23.526A51.074,51.074,0,0,0,131.8,236.063Z" transform="translate(-69.805 -123.082)" fill="none" stroke="#263238" stroke-linecap="round" stroke-linejoin="round" stroke-width="1"/><path d="M150.09,243.785s0,19.753.222,25.967,1.11,21.307,1.11,21.307h41.725L190.928,246l-.665-2.22Z" transform="translate(-71.896 -127.068)" fill="#263238"/><path d="M150.09,243.785s0,19.753.222,25.967,1.11,21.307,1.11,21.307h41.725L190.928,246l-.665-2.22Z" transform="translate(-71.896 -127.068)" fill="none" stroke="#263238" stroke-linecap="round" stroke-linejoin="round" stroke-width="1"/><path d="M177,249.017l16.743.67L193.558,246l-.666-2.219H176.735Z" transform="translate(-74.526 -127.068)" fill="#fff"/><path d="M177,249.017l16.743.67L193.558,246l-.666-2.219H176.735Z" transform="translate(-74.526 -127.068)" fill="none" stroke="#263238" stroke-linecap="round" stroke-linejoin="round" stroke-width="1"/><path d="M154.529,243.785H150.09s0,1.7.005,4.261l4.433.178Z" transform="translate(-71.896 -127.068)" fill="#fff"/><path d="M154.529,243.785H150.09s0,1.7.005,4.261l4.433.178Z" transform="translate(-71.896 -127.068)" fill="none" stroke="#263238" stroke-linecap="round" stroke-linejoin="round" stroke-width="1"/><path d="M156.585,243.785l.243,4.505,15.162.607-.155-5.112Z" transform="translate(-72.537 -127.068)" fill="#fff"/><path d="M156.585,243.785l.243,4.505,15.162.607-.155-5.112Z" transform="translate(-72.537 -127.068)" fill="none" stroke="#263238" stroke-linecap="round" stroke-linejoin="round" stroke-width="1"/><path d="M150.293,202.263s-.222,25.524,0,29.518-1.776,5.327,1.554,5.993,30.406,1.332,33.07.888,2.663-1.776,3.329-3.107,9.544-58.372,7.546-59.926-14.648-6.214-15.759-6.214-17.533.888-20.641,1.332-6.658-.444-6.88,1.331-2.219,30.185-2.219,30.185" transform="translate(-71.877 -119.726)" fill="#fff"/></g></g><g transform="translate(135.1 152.689)"><g clip-path="url(#v)"><path d="M163.9,178.808s-5.2-.248-6.188.248c-.561.279-3.973,8.641-6.831,15.849-.334,4.7-.587,8.279-.587,8.279s-.222,25.523,0,29.518c.146,2.622-.656,4.093-.289,4.985,1.118-3.908,2.916-10.664,4.983-20.262,3.466-16.09,8.912-38.617,8.912-38.617" transform="translate(-149.899 -170.336)" fill="#bdbdbd"/></g></g><g transform="translate(57.078 103)"><g clip-path="url(#r)"><path d="M150.293,202.263s-.222,25.524,0,29.518-1.776,5.327,1.554,5.993,30.406,1.332,33.07.888,2.663-1.776,3.329-3.107,9.544-58.372,7.546-59.926-14.648-6.214-15.759-6.214-17.533.888-20.641,1.332-6.658-.444-6.88,1.331S150.293,202.263,150.293,202.263Z" transform="translate(-71.877 -119.726)" fill="none" stroke="#263238" stroke-linecap="round" stroke-linejoin="round" stroke-width="1"/><path d="M96.487,189.595s-7.99-4-10.876-4.66-12.207-2.886-12.873-2,.223,1.776,1.11,1.776,6.659,2.442,6.659,2.442-.666,5.327-.666,6.659,7.1,4,8.656,4.217,4.681-.96,4.681-.96l2.2-.594Z" transform="translate(-64.236 -121.041)" fill="#fff"/><path d="M96.487,189.595s-7.99-4-10.876-4.66-12.207-2.886-12.873-2,.223,1.776,1.11,1.776,6.659,2.442,6.659,2.442-.666,5.327-.666,6.659,7.1,4,8.656,4.217,4.681-.96,4.681-.96l2.2-.594Z" transform="translate(-64.236 -121.041)" fill="none" stroke="#263238" stroke-linecap="round" stroke-linejoin="round" stroke-width="1"/><path d="M80.594,188.623s-.888,5.993-.222,6.659,5.327,3.773,5.993,2.219.443-7.546.443-8.212-6.214-.666-6.214-.666" transform="translate(-64.988 -121.622)" fill="#fff"/><path d="M80.594,188.623s-.888,5.993-.222,6.659,5.327,3.773,5.993,2.219.443-7.546.443-8.212S80.594,188.623,80.594,188.623Z" transform="translate(-64.988 -121.622)" fill="none" stroke="#263238" stroke-linecap="round" stroke-linejoin="round" stroke-width="1"/><path d="M94.395,190.277s-7.546-2.885-9.322-2.885-4.66,2.442-6.214,2.885.444,1.775,1.554,1.554,4.217-1.109,4.217-1.109a9.44,9.44,0,0,0,2.885,3.328c1.776,1.11,5.548.444,5.548.444" transform="translate(-64.807 -121.501)" fill="#fff"/><path d="M94.395,190.277s-7.546-2.885-9.322-2.885-4.66,2.442-6.214,2.885.444,1.775,1.554,1.554,4.217-1.109,4.217-1.109a9.44,9.44,0,0,0,2.885,3.328c1.776,1.11,5.548.444,5.548.444" transform="translate(-64.807 -121.501)" fill="none" stroke="#263238" stroke-linecap="round" stroke-linejoin="round" stroke-width="1"/><path d="M163.732,169.163s-13.31-1.143-16.014-.543-9.013,15.923-9.914,18.025-10.815,11.717-10.815,11.717L98.448,187.248l-3,8.412s23.132,15.022,27.038,16.824,9.313,1.5,11.115,1.5a6.743,6.743,0,0,0,3.605-1.5l-8.713,20.128s14.12-16.823,18.326-24.935,13.819-31.846,14.72-32.446,2.195-6.067,2.195-6.067" transform="translate(-66.501 -119.63)" fill="#529d2e"/></g></g><g transform="translate(86.02 151.816)"><g clip-path="url(#x)"><g transform="translate(0.472 26.422)" opacity="0.26"><g clip-path="url(#y)"><path d="M132.97,206.936c-.725,0-1.69-.482-2.656-.482s1.208,3.621.725,4.829-35.009-13.522-35.009-13.522l-.063,1.1c3.268,2.117,22.987,14.867,26.567,16.519,3.906,1.8,9.314,1.5,11.116,1.5a6.2,6.2,0,0,0,3.253-1.239c2.632-6.721,4.518-17.879,4.518-17.879s-7.726,9.175-8.45,9.175" transform="translate(-95.966 -197.762)"/></g></g></g></g><g transform="translate(57.078 103)"><g clip-path="url(#r)"><path d="M163.732,169.163s-13.31-1.143-16.014-.543-9.013,15.923-9.914,18.025-10.815,11.717-10.815,11.717L98.448,187.248l-3,8.412s23.132,15.022,27.038,16.824,9.313,1.5,11.115,1.5a6.743,6.743,0,0,0,3.605-1.5l-8.713,20.128s14.12-16.823,18.326-24.935,13.819-31.846,14.72-32.446S163.732,169.163,163.732,169.163Z" transform="translate(-66.501 -119.63)" fill="none" stroke="#263238" stroke-linecap="round" stroke-linejoin="round" stroke-width="1"/><path d="M170.806,169.242l-3.7,3.507.195,7.013,3.9-3.7Z" transform="translate(-73.575 -119.709)" fill="#fff"/><path d="M170.806,169.242l-3.7,3.507.195,7.013,3.9-3.7Z" transform="translate(-73.575 -119.709)" fill="none" stroke="#263238" stroke-linecap="round" stroke-linejoin="round" stroke-width="1"/><path d="M162.68,130.415s-3.988,6.122-3.732,7.4.914,2.588.914,3.612-4.5,4.611-3.988,5.38,3.074,2.049,3.074,2.049-.111,9.992,2.195,11.272,6.661-.768,6.661-.768l2.305,12.809,13.066-9.223v-9.223s7.686-8.711,8.2-15.627-8.967-14.6-18.445-15.884-14.6,5.124-13.066,7.173,2.818,1.025,2.818,1.025" transform="translate(-72.463 -115.05)" fill="#fff"/></g></g><g transform="translate(140.449 109.999)"><g clip-path="url(#aa)"><path d="M179.1,166.776l4.875-3.441v-9.223s7.686-8.711,8.2-15.628c.335-4.521-3.6-9.369-9.01-12.544l-13.589,5.629s-6.387,5.605-5.541,6.361,3.283,3.9,2.668,5.336c0,0-2.283.9-2.052,2.462s5.541,11.7,5.541,11.7l-1.586,2.323Z" transform="translate(-156.636 -122.432)" fill="#c6ff00"/><g transform="translate(7.323 3.508)" opacity="0.5"><g clip-path="url(#ab)"><path d="M179.1,166.776l4.875-3.441v-9.223s7.686-8.711,8.2-15.628c.335-4.521-3.6-9.369-9.01-12.544l-13.589,5.629s-6.387,5.605-5.541,6.361,3.283,3.9,2.668,5.336c0,0-2.283.9-2.052,2.462s5.541,11.7,5.541,11.7l-1.586,2.323Z" transform="translate(-163.959 -125.94)" fill="#fff"/></g></g></g></g><g transform="translate(57.078 103)"><g clip-path="url(#r)"><path d="M162.68,130.415s-3.988,6.122-3.732,7.4.914,2.588.914,3.612-4.5,4.611-3.988,5.38,3.074,2.049,3.074,2.049-.111,9.992,2.195,11.272,6.661-.768,6.661-.768l2.305,12.809,13.066-9.223v-9.223s7.686-8.711,8.2-15.627-8.967-14.6-18.445-15.884-14.6,5.124-13.066,7.173S162.68,130.415,162.68,130.415Z" transform="translate(-72.463 -115.05)" fill="none" stroke="#263238" stroke-linecap="round" stroke-linejoin="round" stroke-width="1"/><path d="M185.016,169.661s-2.885,10.21-6.436,23.083-2.886,52.823-2.886,55.042,5.1,10.21,10.876,12.429a46.815,46.815,0,0,0,11.762,2.663s-3.994-26.412-3.994-33.957,3.551-19.31,3.551-19.31,5.327,13.317,7.546,15.093,11.1,3.773,10.875-4.439-7.768-37.509-9.765-40.394S195,174.1,195,174.1Z" transform="translate(-74.419 -119.75)" fill="#529d2e"/></g></g><g transform="translate(158.305 152.912)"><g clip-path="url(#ad)"><g transform="translate(9.607 10.209)" opacity="0.26"><g clip-path="url(#ae)"><path d="M195.391,235.408v-.033c-5.046,1.3-9.086,2.246-9.086,2.246S192.494,250,194.969,250c.261,0,.878-.015,1.746-.042-.729-5.923-1.324-11.638-1.324-14.547" transform="translate(-186.305 -186.358)"/><path d="M201.635,193.387c2.723,2.971,8.416,1.485,8.416,2.476s-4.456,3.218-2.723,6.683,11.882,18.318,8.912,21.041c-.858.786-3.6,1.84-7.052,2.943,3.228,1.42,9.834,1.952,9.642-5.147-.222-8.212-7.768-37.508-9.765-40.393,0,0-10.153,9.427-7.43,12.4" transform="translate(-187.773 -180.989)"/><path d="M193.024,198.594a5.1,5.1,0,0,0-1.529,5.354c1.019,3.314,4.843,6.629,3.824,8.413s-8.668.509-8.413,3.059,8.158,10.962,8.158,10.962l3.314-15.041Z" transform="translate(-186.364 -182.727)"/></g></g></g></g><g transform="translate(57.078 103)"><g clip-path="url(#r)"><path d="M185.016,169.661s-2.885,10.21-6.436,23.083-2.886,52.823-2.886,55.042,5.1,10.21,10.876,12.429a46.815,46.815,0,0,0,11.762,2.663s-3.994-26.412-3.994-33.957,3.551-19.31,3.551-19.31,5.327,13.317,7.546,15.093,11.1,3.773,10.875-4.439-7.768-37.509-9.765-40.394S195,174.1,195,174.1Z" transform="translate(-74.419 -119.75)" fill="none" stroke="#263238" stroke-linecap="round" stroke-linejoin="round" stroke-width="1"/><path d="M184.867,164.7l-11.494,8.182.78,7.208L186.815,168.6Z" transform="translate(-74.194 -119.261)" fill="#fff"/><path d="M184.867,164.7l-11.494,8.182.78,7.208L186.815,168.6Z" transform="translate(-74.194 -119.261)" fill="none" stroke="#263238" stroke-linecap="round" stroke-linejoin="round" stroke-width="1"/><path d="M188.114,230.813s-8.434-3.773-9.1-3.773-7.324,3.551-8.656,3.551-2,.888-1.109,1.554a4.83,4.83,0,0,0,2.442.665s-3.108,1.776-2.886,2.663,2,1.554,2,1.554a8.134,8.134,0,0,0,3.774,3.108c2.22.666,9.988-2,9.988-2l5.993-.444Z" transform="translate(-73.742 -125.415)" fill="#fff"/></g></g><g transform="translate(152.128 204.624)"><g clip-path="url(#ag)"><path d="M179.213,231.276c-2.7.6-8.192,6.141-8.192,6.141a8.134,8.134,0,0,0,3.774,3.108c2.219.665,9.987-2,9.987-2l5.993-.443-2.442-6.88s-6.416-.528-9.12.073" transform="translate(-169.012 -227.429)" fill="#c6ff00"/><g transform="translate(2.009 3.559)" opacity="0.5"><g clip-path="url(#ah)"><path d="M179.213,231.276c-2.7.6-8.192,6.141-8.192,6.141a8.134,8.134,0,0,0,3.774,3.108c2.219.665,9.987-2,9.987-2l5.993-.443-2.442-6.88s-6.416-.528-9.12.073" transform="translate(-171.021 -230.988)" fill="#fff"/></g></g></g></g><g transform="translate(57.078 103)"><g clip-path="url(#r)"><path d="M188.114,230.813s-8.434-3.773-9.1-3.773-7.324,3.551-8.656,3.551-2,.888-1.109,1.554a4.83,4.83,0,0,0,2.442.665s-3.108,1.776-2.886,2.663,2,1.554,2,1.554a8.134,8.134,0,0,0,3.774,3.108c2.22.666,9.988-2,9.988-2l5.993-.444Z" transform="translate(-73.742 -125.415)" fill="none" stroke="#263238" stroke-linecap="round" stroke-linejoin="round" stroke-width="1"/><path d="M210.354,220.417l-20.863,8.434,1.554,8.878s27.965-4,29.3-5.992-3.773-13.316-3.773-13.316" transform="translate(-75.785 -124.564)" fill="#529d2e"/><g transform="translate(113.705 93.856)"><g clip-path="url(#aj)"><g transform="translate(1.076 0)" opacity="0.26"><g clip-path="url(#ak)"><path d="M190.684,235l.479,2.733s27.965-3.994,29.3-5.993-3.773-13.316-3.773-13.316l-2.988.96c1.725,3.6,2.731,6.78,1.507,7.9-2.237,2.05-17.243,5.925-24.521,7.714" transform="translate(-190.684 -218.42)"/></g></g></g></g></g></g><g transform="translate(57.078 103)"><g clip-path="url(#r)"><path d="M210.354,220.417l-20.863,8.434,1.554,8.878s27.965-4,29.3-5.992-3.773-13.316-3.773-13.316" transform="translate(-75.785 -124.564)" fill="none" stroke="#263238" stroke-linecap="round" stroke-linejoin="round" stroke-width="1"/><path d="M141.777,214.572s4.163-16.086,5.494-24.964" transform="translate(-71.075 -121.72)" fill="#fff"/><path d="M141.777,214.572s4.163-16.086,5.494-24.964" transform="translate(-71.075 -121.72)" fill="none" stroke="#263238" stroke-linecap="round" stroke-linejoin="round" stroke-width="1"/><path d="M162.156,268.564l5.993,4.994,1,19.975" transform="translate(-73.087 -129.515)" fill="none" stroke="#fff" stroke-linecap="round" stroke-linejoin="round" stroke-width="1"/><path d="M199.634,211.933l-5.888-10.815s-1.7-2.271,1.7-7.949" transform="translate(-76.164 -122.071)" fill="none" stroke="#263238" stroke-linecap="round" stroke-linejoin="round" stroke-width="1"/><path d="M173.25,122.216c-9.479-1.28-14.6,5.125-13.066,7.174a2.912,2.912,0,0,0,1.639,1.238l1.179-.214s8.711.256,8.2,3.074-5.637,3.074-3.586,5.38a10.622,10.622,0,0,0,1.766,1.564l-.294.015a4.241,4.241,0,0,1,1.227,1.752c.351,1.052-1.577,9.816-1.928,10.516s-2.278-.175-4.733-1.928a9.931,9.931,0,0,0-4.382-1.928l-.175,1.577s2.453.7,2.8,2.1-1.928,1.577-1.928,2.8-.168,3.44,1.493,4.786,6.661-.767,6.661-.767,3.764-2.617,4.29-5.421c.429-2.291.742-6.333,1.128-8.312a16.125,16.125,0,0,0,1.5-2.152s4.1-1.024,2.818,3.075-3.843,4.1-3.843,4.1a24.444,24.444,0,0,0,9.479,3.135v-.059s7.686-8.71,8.2-15.627-8.967-14.6-18.445-15.885" transform="translate(-72.785 -115.05)" fill="#263238"/><path d="M173.25,122.216c-9.479-1.28-14.6,5.125-13.066,7.174a2.912,2.912,0,0,0,1.639,1.238l1.179-.214s8.711.256,8.2,3.074-5.637,3.074-3.586,5.38a10.622,10.622,0,0,0,1.766,1.564l-.294.015a4.241,4.241,0,0,1,1.227,1.752c.351,1.052-1.577,9.816-1.928,10.516s-2.278-.175-4.733-1.928a9.931,9.931,0,0,0-4.382-1.928l-.175,1.577s2.453.7,2.8,2.1-1.928,1.577-1.928,2.8-.168,3.44,1.493,4.786,6.661-.767,6.661-.767,3.764-2.617,4.29-5.421c.429-2.291.742-6.333,1.128-8.312a16.125,16.125,0,0,0,1.5-2.152s4.1-1.024,2.818,3.075-3.843,4.1-3.843,4.1a24.444,24.444,0,0,0,9.479,3.135v-.059s7.686-8.71,8.2-15.627S182.729,123.5,173.25,122.216Z" transform="translate(-72.785 -115.05)" fill="none" stroke="#263238" stroke-linecap="round" stroke-linejoin="round" stroke-width="1"/></g></g><rect width="15.177" height="22.425" transform="translate(166.568 239.857)" fill="#fff"/><rect width="15.177" height="22.425" transform="translate(166.568 239.857)" fill="none" stroke="#263238" stroke-linecap="round" stroke-linejoin="round" stroke-width="1"/><g clip-path="url(#a)"><path d="M200.539,285.961h-1.585a1.251,1.251,0,1,1,0-2.5h1.585a2.375,2.375,0,0,0,2.372-2.372V275.65a2.375,2.375,0,0,0-2.372-2.373H198.5a1.251,1.251,0,1,1,0-2.5h2.039a4.881,4.881,0,0,1,4.875,4.876v5.436a4.88,4.88,0,0,1-4.875,4.875" transform="translate(-19.474 -26.733)" fill="#fff"/><path d="M200.539,285.961h-1.585a1.251,1.251,0,1,1,0-2.5h1.585a2.375,2.375,0,0,0,2.372-2.372V275.65a2.375,2.375,0,0,0-2.372-2.373H198.5a1.251,1.251,0,1,1,0-2.5h2.039a4.881,4.881,0,0,1,4.875,4.876v5.436A4.88,4.88,0,0,1,200.539,285.961Z" transform="translate(-19.474 -26.733)" fill="none" stroke="#263238" stroke-linecap="round" stroke-linejoin="round" stroke-width="1"/></g><g clip-path="url(#a)"><path d="M106.533,287.65H65.288a.8.8,0,0,1-.734-.479l-11.42-26.037a.8.8,0,0,1,.734-1.123H95.113a.8.8,0,0,1,.734.479l11.42,26.037a.8.8,0,0,1-.734,1.123" transform="translate(-5.239 -25.67)" fill="#fff"/><path d="M106.533,287.65H65.288a.8.8,0,0,1-.734-.479l-11.42-26.037a.8.8,0,0,1,.734-1.123H95.113a.8.8,0,0,1,.734.479l11.42,26.037A.8.8,0,0,1,106.533,287.65Z" transform="translate(-5.239 -25.67)" fill="none" stroke="#263238" stroke-linecap="round" stroke-linejoin="round" stroke-width="1"/><path d="M103.106,285.845H67.913a.683.683,0,0,1-.625-.409l-9.745-22.216a.684.684,0,0,1,.626-.958H93.361a.684.684,0,0,1,.626.409l9.744,22.216a.683.683,0,0,1-.625.958" transform="translate(-5.675 -25.892)" fill="#263238"/><path d="M103.106,285.845H67.913a.683.683,0,0,1-.625-.409l-9.745-22.216a.684.684,0,0,1,.626-.958H93.361a.684.684,0,0,1,.626.409l9.744,22.216A.683.683,0,0,1,103.106,285.845Z" transform="translate(-5.675 -25.892)" fill="none" stroke="#263238" stroke-linecap="round" stroke-linejoin="round" stroke-width="1"/><rect width="61.963" height="2.028" transform="translate(59.475 260.252)" fill="#fff"/><rect width="61.963" height="2.028" transform="translate(59.475 260.252)" fill="none" stroke="#263238" stroke-linecap="round" stroke-linejoin="round" stroke-width="1"/><rect width="30.038" height="2.028" transform="translate(59.475 260.252)" fill="#fff"/><rect width="30.038" height="2.028" transform="translate(59.475 260.252)" fill="none" stroke="#263238" stroke-linecap="round" stroke-linejoin="round" stroke-width="1"/></g><g clip-path="url(#a)"><path d="M3.209,234.533a13.541,13.541,0,0,0,3.959.438c.029,0-.6-1.839-.657-1.949-.616-1.29-2.565-3.418-4.151-3.2a1.894,1.894,0,0,0-1.52,2.373,3.958,3.958,0,0,0,2.369,2.342" transform="translate(-0.077 -22.688)" fill="#263238"/><path d="M4.206,241.776a13.172,13.172,0,0,0,3.9-.612,33.611,33.611,0,0,0,1.52,4.206c.345.8.718,1.592,1.1,2.383-.23-.335-.436-.633-.47-.672C9.318,246,6.877,244.463,5.4,245.088a1.893,1.893,0,0,0-.839,2.69,3.957,3.957,0,0,0,2.9,1.633,12.54,12.54,0,0,0,3.786-.58c.151.3.3.6.45.906.726,1.446,1.456,2.884,2.129,4.318.237.5.452,1.011.67,1.517-.2-.3-.377-.546-.407-.581-.935-1.081-3.375-2.619-4.85-1.994a1.893,1.893,0,0,0-.838,2.69,3.957,3.957,0,0,0,2.9,1.634A12.083,12.083,0,0,0,15,256.768c.206.525.415,1.05.592,1.567.113.356.246.691.339,1.055l.3,1.064c.164.684.337,1.388.48,2.059.1.466.193.911.285,1.36-.231-.5-.7-1.485-.752-1.563-.761-1.21-2.941-3.1-4.492-2.7a1.893,1.893,0,0,0-1.236,2.532,3.957,3.957,0,0,0,2.621,2.055,13.028,13.028,0,0,0,3.922-.012c.149.743.287,1.467.406,2.153.419,2.376.678,4.371.838,5.768.029.248.053.469.076.678H13.558l.584,11.393H24.7l.584-11.393H20.795c.033-.068.065-.133.1-.205.616-1.283,1.469-3.126,2.392-5.382.293-.712.592-1.478.891-2.268a13.006,13.006,0,0,0,3.912.3,3.959,3.959,0,0,0,2.767-1.853,1.894,1.894,0,0,0-1.045-2.617c-1.517-.509-3.832,1.213-4.681,2.363-.05.068-.51.864-.793,1.372.121-.324.242-.636.361-.971.242-.66.465-1.326.706-2.04q.158-.525.317-1.059c.114-.352.188-.737.285-1.109.206-.866.373-1.754.522-2.652a12.406,12.406,0,0,0,3.712.853,3.96,3.96,0,0,0,3.017-1.412,1.894,1.894,0,0,0-.636-2.745c-1.422-.734-3.971.619-4.985,1.627-.063.063-.708.868-1.054,1.317.085-.541.172-1.08.241-1.63.2-1.586.347-3.2.5-4.806.047-.492.1-.982.153-1.473a13.173,13.173,0,0,0,3.838.9,3.96,3.96,0,0,0,3.017-1.412,1.894,1.894,0,0,0-.636-2.745c-1.422-.734-3.971.618-4.985,1.626-.075.077-1,1.236-1.225,1.542.114-1.081.239-2.157.4-3.213a33.391,33.391,0,0,1,.922-4.226,13.376,13.376,0,0,0,3.861.909,3.963,3.963,0,0,0,3.017-1.412,1.9,1.9,0,0,0-.637-2.746c-1.422-.733-3.972.619-4.985,1.627-.079.079-1.076,1.328-1.24,1.566.023-.08.039-.166.063-.246a24.51,24.51,0,0,1,1.675-4c.364-.713.752-1.373,1.143-2.007a12.728,12.728,0,0,0,3.656,1.285,3.956,3.956,0,0,0,3.152-1.073,1.893,1.893,0,0,0-.33-2.8c-1.333-.885-4.016.178-5.134,1.069-.06.049-.624.609-1.028,1.024.181-.284.362-.58.543-.847.67-1.009,1.344-1.89,1.948-2.666.347-.439.67-.828.975-1.191a12.667,12.667,0,0,0,3.816-.543,3.965,3.965,0,0,0,2.305-2.406,1.9,1.9,0,0,0-1.584-2.332c-1.591-.171-3.483,2.009-4.063,3.315-.05.113-.634,1.967-.6,1.967H35.4c-.3.342-.621.712-.961,1.123-.622.764-1.319,1.634-2.012,2.632a33.352,33.352,0,0,0-2.087,3.324,24.667,24.667,0,0,0-1.783,4.012c-.005.016-.009.034-.014.05.007-.469-.014-1.78-.026-1.88-.184-1.417-1.372-4.048-2.945-4.339a1.894,1.894,0,0,0-2.184,1.782,3.956,3.956,0,0,0,1.52,2.963,13.168,13.168,0,0,0,3.589,1.639,33.536,33.536,0,0,0-1.054,4.348c-.152.855-.279,1.722-.4,2.594-.005-.406-.014-.769-.021-.819-.184-1.417-1.372-4.047-2.945-4.338a1.894,1.894,0,0,0-2.184,1.781,3.956,3.956,0,0,0,1.52,2.963,12.515,12.515,0,0,0,3.48,1.605c-.041.335-.087.669-.126,1-.192,1.606-.377,3.209-.606,4.777-.08.552-.18,1.093-.278,1.635-.006-.36-.014-.663-.02-.71-.184-1.417-1.37-4.047-2.944-4.338a1.894,1.894,0,0,0-2.185,1.782,3.962,3.962,0,0,0,1.52,2.963,12.069,12.069,0,0,0,3.379,1.572c-.116.552-.233,1.1-.37,1.634-.1.359-.176.712-.3,1.067s-.227.7-.339,1.052c-.241.661-.485,1.344-.735,1.983-.171.445-.342.867-.514,1.292.087-.548.233-1.627.236-1.718a7.362,7.362,0,0,0-.986-3.577,2.253,2.253,0,0,0-.027-.419,1.894,1.894,0,0,0-2.315-1.606c-1.546.412-2.527,3.126-2.6,4.553,0,.084.051,1,.1,1.582-.078-.337-.15-.664-.234-1.009-.162-.684-.344-1.362-.537-2.092q-.158-.523-.32-1.057c-.1-.356-.25-.719-.374-1.082-.306-.836-.656-1.668-1.027-2.5a12.443,12.443,0,0,0,3.567-1.336,3.961,3.961,0,0,0,1.737-2.843,1.894,1.894,0,0,0-2.046-1.939c-1.591.173-2.971,2.707-3.26,4.106-.018.087-.113,1.115-.153,1.68-.226-.5-.452-.995-.7-1.492-.71-1.431-1.475-2.859-2.232-4.286-.232-.437-.457-.875-.684-1.313a13.164,13.164,0,0,0,3.7-1.367,3.96,3.96,0,0,0,1.737-2.842,1.893,1.893,0,0,0-2.045-1.939c-1.592.172-2.971,2.707-3.261,4.106-.022.105-.155,1.584-.17,1.961-.5-.964-.99-1.93-1.437-2.9a33.4,33.4,0,0,1-1.561-4.033,13.351,13.351,0,0,0,3.72-1.373,3.955,3.955,0,0,0,1.737-2.842A1.894,1.894,0,0,0,11.889,235c-1.59.173-2.971,2.707-3.26,4.106-.023.11-.166,1.7-.17,1.991-.025-.08-.059-.16-.083-.24a24.408,24.408,0,0,1-.81-4.259c-.089-.795-.13-1.559-.152-2.3a12.743,12.743,0,0,0,3.757-.945,3.966,3.966,0,0,0,2.039-2.634,1.894,1.894,0,0,0-1.821-2.151c-1.6,0-3.25,2.364-3.69,3.723-.025.074-.186.853-.294,1.421-.005-.336-.017-.683-.016-1.006,0-1.21.08-2.318.155-3.3.047-.558.1-1.061.157-1.53a12.649,12.649,0,0,0,2.883-2.559,3.957,3.957,0,0,0,.595-3.277,1.893,1.893,0,0,0-2.606-1.071c-1.421.735-1.794,3.6-1.56,5.006.021.122.557,1.99.582,1.974l.028-.019c-.062.451-.125.936-.181,1.466-.1.981-.2,2.09-.227,3.3a33.243,33.243,0,0,0,.094,3.923,24.683,24.683,0,0,0,.726,4.331c0,.016.011.033.015.05-.251-.395-.992-1.477-1.058-1.554-.936-1.081-3.376-2.619-4.85-1.994a1.9,1.9,0,0,0-.839,2.69,3.96,3.96,0,0,0,2.9,1.633m15.866,20.972a13.842,13.842,0,0,0,3.19,2.057c-.286.7-.571,1.383-.849,2.021-.962,2.213-1.847,4.02-2.482,5.273-.129.253-.243.476-.351.682h-.106c-.032-.244-.067-.512-.107-.813-.195-1.409-.5-3.418-.974-5.807-.149-.755-.322-1.56-.508-2.384a20.672,20.672,0,0,0,2.188-1.029" transform="translate(-0.103 -21.795)" fill="#263238"/><path d="M34.572,234.956c.024.015.511-1.867.528-1.989.2-1.415-.254-4.266-1.7-4.962a1.894,1.894,0,0,0-2.577,1.141,3.958,3.958,0,0,0,.683,3.26,13.559,13.559,0,0,0,3.061,2.55" transform="translate(-3.03 -22.493)" fill="#263238"/></g><g clip-path="url(#a)"><line x2="336.475" transform="translate(6.709 262.282)" fill="none" stroke="#263238" stroke-linecap="round" stroke-linejoin="round" stroke-width="2"/></g></g></svg>