<svg xmlns="http://www.w3.org/2000/svg" xmlns:xlink="http://www.w3.org/1999/xlink" width="505" height="745.413" viewBox="0 0 505 745.413"><defs><clipPath id="a"><rect width="489" height="256" transform="translate(927 6327)" fill="#fff" opacity="0.45"/></clipPath><clipPath id="b"><rect width="556.341" height="335" fill="none"/></clipPath></defs><g transform="translate(-915 -6337)"><g transform="translate(0 10)"><g opacity="0.93" clip-path="url(#a)"><g transform="translate(894.808 6327.414)"><g clip-path="url(#b)"><path d="M410.231,183.936c0-1.386-.067-56.181-.17-144.021l.17.17-219.556.044h-.017l.214-.214c-.007,51.218-.012,99.959-.017,144.021l-.2-.2,219.573.2-219.573.2h-.2v-.2c-.006-44.062-.011-92.8-.018-144.021V39.7h.232l219.556.044h.17v.171c-.1,87.84-.168,142.635-.17,144.021" transform="translate(-34.021 -7.092)" fill="#263238"/><path d="M272.377,136.792l21.6.3a21.5,21.5,0,0,1-21.6,20.89h-.126Z" transform="translate(-48.635 -24.437)" fill="#455a64"/><path d="M309.743,168.816a2.127,2.127,0,0,1-.462.037l-1.321.034-4.826.056h-.061l-.039-.049-7.124-8.976-5.743-7.324.111.054-6.356-.059-1.778-.039a3.373,3.373,0,0,1-.628-.044,3.438,3.438,0,0,1,.628-.043l1.778-.039,6.356-.059h.068l.044.055,5.78,7.294,7.065,9.023-.1-.048,4.826.056,1.321.034a2.126,2.126,0,0,1,.462.037" transform="translate(-50.291 -27.219)" fill="#263238"/><path d="M322.274,175.389c0,.091-3.129.165-6.987.165s-6.988-.074-6.988-.165,3.129-.165,6.988-.165,6.987.074,6.987.165" transform="translate(-55.075 -31.302)" fill="#263238"/><path d="M322.274,178.54c0,.091-3.129.165-6.987.165s-6.988-.074-6.988-.165,3.129-.165,6.988-.165,6.987.074,6.987.165" transform="translate(-55.075 -31.865)" fill="#263238"/><path d="M263.548,128.441l-.3,21.185a21.488,21.488,0,0,1-21.3-21.185c0-11.622,9.75-21.186,21.6-21.186s21.6,9.564,21.6,21.186Z" transform="translate(-43.222 -19.16)" fill="#529d2e"/><path d="M253.738,121.739a1.4,1.4,0,0,1-.375.088l-1.074.172-3.88.545-.064.009-.048-.047-5.175-5.034c-2.486-2.439-4.724-4.66-6.331-6.278l-1.892-1.929a5.743,5.743,0,0,1-.662-.74,5.627,5.627,0,0,1,.752.648l1.966,1.855c1.65,1.576,3.913,3.77,6.4,6.209l5.133,5.077-.112-.038,3.894-.429,1.083-.1a1.4,1.4,0,0,1,.385-.007" transform="translate(-41.844 -19.387)" fill="#263238"/><path d="M224.537,107.353c0,.091-3.129.165-6.987.165s-6.988-.074-6.988-.165,3.129-.166,6.988-.166,6.987.075,6.987.166" transform="translate(-37.615 -19.148)" fill="#263238"/><path d="M224.537,110.5c0,.091-3.129.166-6.987.166s-6.988-.075-6.988-.166,3.129-.165,6.988-.165,6.987.074,6.987.165" transform="translate(-37.615 -19.711)" fill="#263238"/><path d="M356.7,79.227l-.085-13.166A16.8,16.8,0,0,0,345.749,70.3a15.575,15.575,0,0,0-5.234,13.635,18.548,18.548,0,0,0,.308,1.913c0,.015,0,.03.008.046h0L356.7,82.32Z" transform="translate(-60.812 -11.801)" fill="#c2e8b0"/><path d="M376.953,75.185a15.618,15.618,0,0,0-12.8-8.963c-.167-.016-.333-.032-.5-.044-.107-.008-.212-.019-.32-.025q-.471-.026-.956-.028h-.045l-.04,0v0l.085,13.166.021,3.094,15.868,3.462.02,0a15.686,15.686,0,0,0,.352-3.414,17.081,17.081,0,0,0-1.679-7.253" transform="translate(-64.719 -11.812)" fill="#85d161"/><path d="M357.823,87.858l-15.864,3.57a16.261,16.261,0,0,0,31.752-.107l-15.868-3.463" transform="translate(-61.088 -15.695)" fill="#529d2e"/><path d="M428.484,84.926c0,.118-8.2.214-18.317.214s-18.319-.1-18.319-.214,8.2-.214,18.319-.214,18.317.1,18.317.214" transform="translate(-70 -15.133)" fill="#263238"/><path d="M428.484,79.842c0,.118-8.2.214-18.317.214s-18.319-.1-18.319-.214,8.2-.214,18.319-.214,18.317.1,18.317.214" transform="translate(-70 -14.225)" fill="#263238"/><path d="M428.484,74.757c0,.119-8.2.214-18.317.214s-18.319-.1-18.319-.214,8.2-.213,18.319-.213,18.317.1,18.317.213" transform="translate(-70 -13.317)" fill="#263238"/><path d="M428.484,89.656c0,.118-8.2.214-18.317.214s-18.319-.1-18.319-.214,8.2-.214,18.319-.214,18.317.1,18.317.214" transform="translate(-70 -15.978)" fill="#263238"/><path d="M417.168,94.8c0,.118-5.634.214-12.581.214s-12.582-.1-12.582-.214,5.632-.214,12.582-.214,12.581.1,12.581.214" transform="translate(-70.029 -16.898)" fill="#263238"/><rect width="3.773" height="42.143" transform="translate(283.429 108.133)" fill="#529d2e"/><rect width="3.773" height="27.829" transform="translate(290.713 122.447)" fill="#a4dc88"/><rect width="3.773" height="37.119" transform="translate(297.999 113.372)" fill="#529d2e"/><rect width="3.773" height="40.515" transform="translate(305.283 109.761)" fill="#a4dc88"/><rect width="3.773" height="26.973" transform="translate(312.569 123.304)" fill="#529d2e"/><rect width="3.773" height="21.683" transform="translate(319.854 128.593)" fill="#a4dc88"/><rect width="3.773" height="37.817" transform="translate(327.139 112.46)" fill="#529d2e"/><rect width="3.773" height="30.999" transform="translate(334.424 119.278)" fill="#a4dc88"/><rect width="3.773" height="36.448" transform="translate(341.709 113.829)" fill="#529d2e"/><rect width="3.773" height="24.831" transform="translate(348.994 125.445)" fill="#a4dc88"/><rect width="3.773" height="29.556" transform="translate(356.28 120.721)" fill="#529d2e"/><path d="M422.849,186.5c0,.085-17.9.155-39.974.155s-39.978-.07-39.978-.155,17.9-.155,39.978-.155,39.974.07,39.974.155" transform="translate(-61.256 -33.289)" fill="#263238"/><path d="M350.407,190.539a25.333,25.333,0,0,1-5.6,0,25.338,25.338,0,0,1,5.6,0" transform="translate(-61.597 -34.011)" fill="#263238"/><path d="M361.479,190.745a36.153,36.153,0,0,1-6.693,0,36.153,36.153,0,0,1,6.693,0" transform="translate(-63.38 -34.047)" fill="#263238"/><path d="M371.125,190.745a36.153,36.153,0,0,1-6.693,0,36.153,36.153,0,0,1,6.693,0" transform="translate(-65.103 -34.047)" fill="#263238"/><path d="M380.771,190.745a36.153,36.153,0,0,1-6.693,0,36.153,36.153,0,0,1,6.693,0" transform="translate(-66.826 -34.047)" fill="#263238"/><path d="M390.417,190.745a36.154,36.154,0,0,1-6.693,0,36.154,36.154,0,0,1,6.693,0" transform="translate(-68.549 -34.047)" fill="#263238"/><path d="M400.063,190.745a36.154,36.154,0,0,1-6.693,0,36.154,36.154,0,0,1,6.693,0" transform="translate(-70.272 -34.047)" fill="#263238"/><path d="M409.709,190.745a36.154,36.154,0,0,1-6.693,0,36.154,36.154,0,0,1,6.693,0" transform="translate(-71.995 -34.047)" fill="#263238"/><path d="M419.356,190.745a36.153,36.153,0,0,1-6.693,0,36.153,36.153,0,0,1,6.693,0" transform="translate(-73.719 -34.047)" fill="#263238"/><path d="M429,190.745a36.154,36.154,0,0,1-6.693,0,36.154,36.154,0,0,1,6.693,0" transform="translate(-75.442 -34.047)" fill="#263238"/><path d="M438.648,190.745a36.153,36.153,0,0,1-6.693,0,36.153,36.153,0,0,1,6.693,0" transform="translate(-77.165 -34.047)" fill="#263238"/><path d="M221.6,72.129a3.632,3.632,0,1,1-3.632-3.632,3.632,3.632,0,0,1,3.632,3.632" transform="translate(-38.29 -12.236)" fill="#529d2e"/><path d="M287.315,69.385c0,.118-12.247.214-27.351.214s-27.353-.1-27.353-.214,12.244-.214,27.353-.214,27.351.1,27.351.214" transform="translate(-41.554 -12.357)" fill="#529d2e"/><path d="M254.659,74.732a3.272,3.272,0,0,1-.848.083c-.545.026-1.335.049-2.31.068-1.951.039-4.646.062-7.622.062s-5.673-.024-7.625-.062c-.975-.019-1.764-.042-2.31-.068a3.268,3.268,0,0,1-.847-.083,3.268,3.268,0,0,1,.847-.083c.546-.025,1.336-.049,2.31-.068,1.952-.039,4.646-.062,7.625-.062s5.671.024,7.622.062c.976.019,1.765.043,2.31.068a3.272,3.272,0,0,1,.848.083" transform="translate(-41.641 -13.312)" fill="#529d2e"/><rect width="114.918" height="131.153" transform="translate(37.248 45.86)" fill="#fafafa"/><path d="M160.22,186.94s-.007-.214-.011-.623-.006-1.023-.011-1.823c0-1.61-.013-3.985-.022-7.078-.012-6.192-.029-15.253-.05-26.76-.023-23-.056-55.76-.1-94.869l.189.189L45.314,56H45.3l.214-.214c-.012,48.354-.024,93.445-.033,131.153l-.181-.181,83.351.093,23.305.047,6.142.021c1.391.007,2.119.02,2.119.02s-.7.013-2.08.021l-6.108.021-23.263.047-83.466.093h-.181v-.181c-.01-37.708-.021-82.8-.034-131.153v-.214h.226L160.22,55.6h.189v.189c-.039,39.159-.072,71.966-.1,94.99-.021,11.488-.039,20.535-.05,26.717-.009,3.078-.016,5.441-.022,7.042q-.006,1.185-.011,1.8c0,.4-.011.6-.011.6" transform="translate(-8.055 -9.928)" fill="#263238"/><path d="M153.454,136.724c-.038.078-1.273-.637-3.7-1.4a23.759,23.759,0,0,0-10.6-.786,23.149,23.149,0,0,0-6.991,2.246,32.864,32.864,0,0,0-6.872,4.942c-2.254,1.989-4.491,4.247-7.072,6.334a24.377,24.377,0,0,1-9.024,4.885,13.649,13.649,0,0,1-5.27.318,17.09,17.09,0,0,1-4.883-1.508,85.2,85.2,0,0,1-8.179-4.863,25.505,25.505,0,0,0-7.692-3.449,22.842,22.842,0,0,0-7.318-.561,23.567,23.567,0,0,0-10.1,3.289c-2.167,1.325-3.189,2.321-3.248,2.251a5.028,5.028,0,0,1,.734-.722,17.5,17.5,0,0,1,2.352-1.789,23.051,23.051,0,0,1,17.733-3.1,25.92,25.92,0,0,1,7.918,3.464,87.314,87.314,0,0,0,8.125,4.783,13.913,13.913,0,0,0,9.637,1.128,23.828,23.828,0,0,0,8.735-4.723c2.54-2.041,4.788-4.285,7.074-6.278a33.135,33.135,0,0,1,7.057-4.981,23.413,23.413,0,0,1,17.978-1.169,18.893,18.893,0,0,1,2.714,1.168,5.143,5.143,0,0,1,.885.526" transform="translate(-11.167 -23.896)" fill="#529d2e"/><rect width="9.77" height="26.423" transform="translate(68.878 130.442)" fill="#529d2e"/><rect width="9.77" height="26.423" transform="translate(110.336 130.442)" fill="#529d2e"/><rect width="9.77" height="41.94" transform="translate(124.154 114.925)" fill="#529d2e"/><rect width="9.77" height="8.893" transform="translate(56.235 148.548)" fill="#529d2e"/><rect width="9.77" height="14.491" transform="translate(82.697 142.374)" fill="#529d2e"/><rect width="9.77" height="17.818" transform="translate(96.516 139.048)" fill="#529d2e"/><path d="M93.937,194.69c0,.217-2.363.393-5.278.393s-5.279-.176-5.279-.393,2.363-.393,5.279-.393,5.278.176,5.278.393" transform="translate(-14.895 -34.71)" fill="#263238"/><path d="M79.136,194.69c0,.217-2.365.393-5.278.393s-5.28-.176-5.28-.393,2.363-.393,5.28-.393,5.278.176,5.278.393" transform="translate(-12.251 -34.71)" fill="#263238"/><path d="M162.8,194.69c0,.217-2.672.393-5.966.393s-5.967-.176-5.967-.393,2.67-.393,5.967-.393,5.966.176,5.966.393" transform="translate(-26.951 -34.71)" fill="#263238"/><path d="M145.131,194.69c0,.217-2.672.393-5.967.393s-5.966-.176-5.966-.393,2.671-.393,5.966-.393,5.967.176,5.967.393" transform="translate(-23.795 -34.71)" fill="#263238"/><path d="M127.107,194.69c0,.217-2.364.393-5.278.393s-5.279-.177-5.279-.393,2.363-.393,5.279-.393,5.278.176,5.278.393" transform="translate(-20.821 -34.71)" fill="#263238"/><path d="M109.724,194.69c0,.217-2.364.393-5.278.393s-5.279-.177-5.279-.393,2.363-.393,5.279-.393,5.278.176,5.278.393" transform="translate(-17.715 -34.71)" fill="#263238"/><rect width="79.844" height="33.158" transform="translate(56.005 64.98)" fill="#e0e0e0"/><path d="M86.763,91.062A3.722,3.722,0,1,1,83.04,87.34a3.722,3.722,0,0,1,3.722,3.722" transform="translate(-14.169 -15.603)" fill="#263238"/><rect width="25.935" height="1.44" transform="translate(76.316 72.889)" fill="#263238"/><rect width="50.453" height="1.44" transform="translate(76.315 76.161)" fill="#fff"/><path d="M86.763,104.994a3.722,3.722,0,1,1-3.722-3.722,3.722,3.722,0,0,1,3.722,3.722" transform="translate(-14.169 -18.091)" fill="#529d2e"/><rect width="13.244" height="1.44" transform="translate(76.315 84.332)" fill="#529d2e"/><rect width="50.453" height="1.44" transform="translate(76.315 87.604)" fill="#fff"/><rect width="126.194" height="144.022" transform="translate(386.983 22.316)" fill="#fafafa"/><path d="M597.3,171.145s-.007-.234-.011-.684-.007-1.122-.011-2c0-1.766-.013-4.374-.022-7.772-.011-6.8-.029-16.747-.05-29.382-.023-25.252-.056-61.234-.1-104.184l.189.189-126.181.025H471.1l.214-.214c-.012,53.1-.024,102.614-.033,144.022l-.182-.181,91.536.093,25.589.047,6.743.021c1.528.007,2.325.021,2.325.021s-.771.013-2.286.02l-6.709.021-25.549.047-91.65.093h-.181v-.181c-.009-41.408-.021-90.924-.033-144.022V26.91h.227l126.181.025h.189v.189c-.039,43-.072,79.024-.1,104.305-.021,12.617-.039,22.552-.05,29.341-.009,3.381-.017,5.977-.022,7.734,0,.869-.008,1.53-.011,1.979s-.011.663-.011.663" transform="translate(-84.121 -4.807)" fill="#263238"/><rect width="102.23" height="82.009" transform="translate(397.079 33.831)" fill="#e0e0e0"/><rect width="3.355" height="0.967" transform="translate(404.223 101.26)" fill="#263238"/><rect width="4.291" height="0.967" transform="translate(411.813 106.429)" fill="#263238"/><rect width="4.291" height="0.967" transform="translate(426.751 106.429)" fill="#263238"/><rect width="4.291" height="0.967" transform="translate(441.687 106.429)" fill="#263238"/><rect width="4.291" height="0.967" transform="translate(456.623 106.429)" fill="#263238"/><rect width="4.291" height="0.967" transform="translate(471.56 106.429)" fill="#263238"/><rect width="4.291" height="0.967" transform="translate(486.496 106.429)" fill="#263238"/><rect width="3.355" height="0.967" transform="translate(404.223 88.347)" fill="#263238"/><rect width="3.355" height="0.967" transform="translate(404.223 64.044)" fill="#263238"/><rect width="3.355" height="0.967" transform="translate(404.223 51.83)" fill="#263238"/><rect width="3.355" height="0.967" transform="translate(404.393 76.195)" fill="#263238"/><path d="M579.648,111.846a2.238,2.238,0,0,1-.36.022l-1.055.021-4.06.039L559.243,112l-49.259.062-11.673,0H498.1v-.211c.029-16.466.054-30.957.072-41.357.027-5.174.048-9.329.063-12.214.016-1.414.028-2.517.037-3.287.008-.36.014-.641.019-.85a.146.146,0,1,1,.039,0c0,.209.011.49.019.85.008.77.021,1.873.036,3.287.016,2.885.037,7.04.064,12.214.018,10.4.044,24.891.072,41.357l-.211-.211,11.673,0c19.226.023,36.634.046,49.259.062l14.931.068c1.746.017,3.11.03,4.06.041l1.055.021a2.469,2.469,0,0,1,.36.021" transform="translate(-88.981 -9.62)" fill="#263238"/><path d="M581.345,93.31c0,.118-17.694.214-39.517.214s-39.521-.1-39.521-.214S520,93.1,541.828,93.1s39.517.1,39.517.214" transform="translate(-89.733 -16.631)" fill="#263238"/><path d="M581.345,78.515c0,.118-17.694.214-39.517.214s-39.521-.1-39.521-.214S520,78.3,541.828,78.3s39.517.1,39.517.214" transform="translate(-89.733 -13.988)" fill="#263238"/><path d="M581.345,63.645c0,.118-17.694.214-39.517.214s-39.521-.1-39.521-.214,17.691-.214,39.521-.214,39.517.1,39.517.214" transform="translate(-89.733 -11.331)" fill="#263238"/><path d="M581.345,108.1c0,.118-17.694.214-39.517.214s-39.521-.1-39.521-.214,17.691-.213,39.521-.213,39.517.1,39.517.213" transform="translate(-89.733 -19.274)" fill="#263238"/><path d="M503.3,109.426V98.645l6.72-10.432,4.56,3.5,9.36-14.539,5.519,3.887,7.68-13.412,6.24,5.083,9.36-17.792,10.08,19.886,8.159-9.95,9.6-2.747v47.3Z" transform="translate(-89.91 -9.814)" fill="#455a64"/><path d="M581.523,59.005a.681.681,0,0,1-.169.016l-.5.016-1.948.031-7.366.056.094-.047c-2.146,2.812-4.815,6.306-7.883,10.326l-.05.066h-.085l-19.764.037.177-.1L535.721,83.24,527.562,96.8l-.161.267-.182-.251-10.7-14.726.287-.009-9.782,15.2-2.734,4.2-.728,1.095c-.167.246-.264.365-.264.365s.067-.139.219-.393l.685-1.122,2.654-4.251c2.325-3.681,5.64-8.929,9.657-15.285l.136-.216.152.207,10.749,14.688-.343.015,8.146-13.566c2.905-4.828,5.716-9.5,8.321-13.826l.06-.1h.116l19.764.036-.134.067,7.963-10.265.036-.047h.058l7.366.056,1.948.031.5.016a.681.681,0,0,1,.169.016" transform="translate(-89.91 -10.519)" fill="#e8505b"/><path d="M523.181,91.057a.759.759,0,1,1-.758-.73.744.744,0,0,1,.758.73" transform="translate(-93.191 -16.136)" fill="#e8505b"/><path d="M550.935,75.282a.759.759,0,1,1-.758-.73.744.744,0,0,1,.758.73" transform="translate(-98.149 -13.318)" fill="#e8505b"/><path d="M572.511,71.406a.759.759,0,1,1-.758-.73.745.745,0,0,1,.758.73" transform="translate(-102.003 -12.626)" fill="#e8505b"/><path d="M581.34,155.833c0,.118-21.572.214-48.176.214s-48.18-.1-48.18-.214,21.567-.214,48.18-.214,48.176.1,48.176.214" transform="translate(-86.638 -27.8)" fill="#263238"/><path d="M581.34,162.175c0,.118-21.572.214-48.176.214s-48.18-.1-48.18-.214,21.567-.214,48.18-.214,48.176.1,48.176.214" transform="translate(-86.638 -28.933)" fill="#263238"/><path d="M581.34,168.517c0,.118-21.572.214-48.176.214s-48.18-.1-48.18-.214,21.567-.214,48.18-.214,48.176.1,48.176.214" transform="translate(-86.638 -30.066)" fill="#263238"/><path d="M581.34,174.86c0,.118-21.572.214-48.176.214s-48.18-.1-48.18-.214,21.567-.214,48.18-.214,48.176.1,48.176.214" transform="translate(-86.638 -31.199)" fill="#263238"/></g></g></g><g transform="translate(915 6821.452)" opacity="0.54"><path d="M715.042,250.859l3.187,247.491H575.836V254.234Z" transform="translate(-575.836 -250.859)" fill="#f5f5f5"/><path d="M688.217,252.039l1.259,245.63H625.723V253.554Z" transform="translate(-625.723 -250.178)" fill="#e0e0e0"/><path d="M648.146,253.686v50.62H580.7V256.077Z" transform="translate(-513.418 -249.229)" fill="#e0e0e0"/><path d="M616.084,262.768v7.477H595.448v-8.156Z" transform="translate(-504.607 -244.387)" fill="#f5f5f5"/><rect width="21.312" height="3.058" transform="translate(90.164 32.146)" fill="#f5f5f5"/><path d="M648.146,366.214v50.62H580.7V368.607Z" transform="translate(-513.418 -184.373)" fill="#e0e0e0"/><path d="M616.084,375.3v7.478H595.448v-8.158Z" transform="translate(-504.607 -179.53)" fill="#f5f5f5"/><rect width="21.312" height="3.058" transform="translate(90.164 209.531)" fill="#f5f5f5"/><path d="M648.146,289.885v50.62H580.7V292.278Z" transform="translate(-513.418 -228.367)" fill="#e0e0e0"/><path d="M616.084,298.968v7.478H595.448v-8.158Z" transform="translate(-504.607 -223.523)" fill="#f5f5f5"/><rect width="21.312" height="3.058" transform="translate(90.164 89.21)" fill="#f5f5f5"/><rect width="67.447" height="50.62" transform="translate(68.161 122.129)" fill="#e0e0e0"/><path d="M614.576,343.041v7.029h-19.4V342.4Z" transform="translate(-502.675 -198.098)" fill="#f5f5f5"/><rect width="20.034" height="2.875" transform="translate(91.868 157.882)" fill="#f5f5f5"/></g><g transform="translate(125.82 -1022.191)"><g transform="translate(1041.494 7619.036)"><path d="M400.32,81.162a48.11,48.11,0,1,1-54.514-40.58A48.057,48.057,0,0,1,400.32,81.162Z" transform="translate(-304.596 -40.073)" fill="#f5f5f5"/><g transform="translate(11.448 11.423)"><path d="M387.994,81.812a36.663,36.663,0,1,1-41.542-30.925A36.622,36.622,0,0,1,387.994,81.812Z" transform="translate(-315.046 -50.5)" fill="#ebebeb"/></g><g transform="translate(10.783 10.031)"><path d="M387.877,80.8c-.218.041-.6-1.529-1.593-4.223a38.909,38.909,0,0,0-5.8-10.513,37.565,37.565,0,0,0-5.761-5.895,36.731,36.731,0,0,0-8.012-4.952,35.96,35.96,0,0,0-9.967-2.869,35.552,35.552,0,0,0-5.484-.32A35.858,35.858,0,0,0,340.151,54a35.686,35.686,0,0,0-5.039,2.188,35.924,35.924,0,0,0-8.371,6.125,36.667,36.667,0,0,0-5.815,7.409,37.567,37.567,0,0,0-3.381,7.517A38.931,38.931,0,0,0,315.721,89.1c0,2.868.18,4.475-.041,4.512-.161.032-.709-1.515-1.052-4.454a33.912,33.912,0,0,1,1.01-12.479,36.735,36.735,0,0,1,9.267-16.192,35.544,35.544,0,0,1,4.1-3.622,35.9,35.9,0,0,1,4.8-3.1,37.288,37.288,0,0,1,5.422-2.4,37.6,37.6,0,0,1,11.982-2.126,37.5,37.5,0,0,1,5.916.39,37.369,37.369,0,0,1,10.676,3.247,36.739,36.739,0,0,1,14.277,12.011,33.942,33.942,0,0,1,5.247,11.368C388.022,79.13,388.039,80.771,387.877,80.8Z" transform="translate(-314.439 -49.23)" fill="#e0e0e0"/></g><g transform="translate(31.825 22.431)"><path d="M357.184,107.169l1.01,6.307-5.63.9-.983-6.136c-5.628.554-11.256-.333-14.74-2.259l2-7.365a23.047,23.047,0,0,0,11.563,2.249l-1.506-9.4c-6.493-.518-13.808-1.483-15.1-9.537-.955-5.967,2.559-11.785,11.293-14.222l-1-6.25,5.631-.9.983,6.138a25.8,25.8,0,0,1,11.978,1.6l-1.7,7.377a23.4,23.4,0,0,0-9.084-1.55l1.533,9.573c6.483.462,13.687,1.448,14.957,9.385C369.32,98.932,365.852,104.684,357.184,107.169Zm-9.613-23.984-1.282-8c-2.876,1.154-3.8,2.977-3.5,4.835C343.106,81.993,344.967,82.795,347.571,83.185ZM359.428,95.2c-.317-1.972-2.12-2.779-4.677-3.237l1.243,7.771C358.712,98.667,359.716,97.006,359.428,95.2Z" transform="translate(-333.646 -60.549)" fill="#e0e0e0"/></g></g><g transform="translate(1183.296 7605.449)"><path d="M496.929,61.286A31.486,31.486,0,1,1,467.717,27.75,31.45,31.45,0,0,1,496.929,61.286Z" transform="translate(-434.034 -27.671)" fill="#f5f5f5"/><g transform="translate(7.492 7.474)"><path d="M488.8,60.111a23.994,23.994,0,1,1-22.261-25.557A23.967,23.967,0,0,1,488.8,60.111Z" transform="translate(-440.873 -34.493)" fill="#ebebeb"/></g><g transform="translate(7.369 6.563)"><path d="M488.86,59.44a14.124,14.124,0,0,1-.431-2.923,25.463,25.463,0,0,0-2.247-7.53,24.62,24.62,0,0,0-2.864-4.572,24.023,24.023,0,0,0-4.435-4.281,23.514,23.514,0,0,0-5.974-3.222,23.174,23.174,0,0,0-3.462-.967,23.471,23.471,0,0,0-7.378-.286,23.422,23.422,0,0,0-3.528.7,23.539,23.539,0,0,0-6.205,2.752,24,24,0,0,0-4.75,3.929,24.615,24.615,0,0,0-3.208,4.337,25.49,25.49,0,0,0-2.818,7.333,14.094,14.094,0,0,1-.654,2.879c-.107,0-.242-1.067-.053-2.994a22.187,22.187,0,0,1,2.383-7.84,24.033,24.033,0,0,1,8.179-9.064,23.215,23.215,0,0,1,3.128-1.746,23.5,23.5,0,0,1,3.5-1.315,24.482,24.482,0,0,1,3.8-.781,24.549,24.549,0,0,1,7.958.308,24.669,24.669,0,0,1,3.73,1.071,24.5,24.5,0,0,1,6.374,3.563,24.041,24.041,0,0,1,7.458,9.668,22.207,22.207,0,0,1,1.774,8C489.184,58.393,488.967,59.445,488.86,59.44Z" transform="translate(-440.76 -33.662)" fill="#e0e0e0"/></g><g transform="translate(20.351 14.822)"><path d="M465.453,72.259l-.231,4.174-3.726-.208.226-4.061c-3.675-.428-7.152-1.78-9.111-3.5l2.3-4.432a15.084,15.084,0,0,0,7.081,3.048l.345-6.224c-4.08-1.235-8.623-2.87-8.327-8.2.22-3.949,3.277-7.18,9.2-7.523l.23-4.137,3.726.207-.226,4.062a16.868,16.868,0,0,1,7.436,2.693l-2.116,4.48a15.319,15.319,0,0,0-5.594-2.256l-.352,6.335c4.082,1.2,8.551,2.831,8.259,8.083C474.36,68.681,471.342,71.877,465.453,72.259Zm-2.809-16.676.293-5.29c-2,.337-2.842,1.375-2.91,2.6C459.954,54.2,461.032,54.972,462.644,55.583Zm5.909,9.336c.072-1.3-.968-2.072-2.54-2.721l-.286,5.142C467.613,67.034,468.486,66.112,468.553,64.919Z" transform="translate(-452.61 -41.201)" fill="#e0e0e0"/></g></g><g transform="translate(920.553 7682.762)"><g transform="translate(26.414 0.548)"><path d="M225.178,98.744l-6.867,40.2v371.1h334.1V486.458Z" transform="translate(-218.31 -98.744)" fill="#396d1f"/></g><g transform="translate(32.733)"><path d="M12,0H327.849a7,7,0,0,1,7,7V380.4a12,12,0,0,1-12,12H12a12,12,0,0,1-12-12V12A12,12,0,0,1,12,0Z" transform="translate(0.548 0.548)" fill="#529d2e"/><path d="M546.115,491.744H224.079V98.244H546.115a13.924,13.924,0,0,1,13.909,13.909V477.835A13.924,13.924,0,0,1,546.115,491.744Zm-320.94-1.1h320.94a12.828,12.828,0,0,0,12.813-12.813V112.153A12.828,12.828,0,0,0,546.115,99.34H225.174Z" transform="translate(-224.079 -98.244)" fill="#529d2e"/></g><g transform="translate(45.658 11.77)"><path d="M522.2,108.988l18.551,30.932V478.529L251.7,475.649l-15.826-16.366Z" transform="translate(-235.877 -108.988)" fill="#e0e0e0"/></g><g transform="translate(45.373 9.998)"><g transform="translate(0.285 0.285)"><rect width="286.319" height="351.783" fill="#fff"/></g><path d="M522.222,459.437c0-2.225-.1-142.559-.255-351.782l.254.254-286.288.031H235.9l.285-.285c-.018,130.138-.033,251.165-.047,351.782l-.238-.238,286.32.238-286.32.239h-.238v-.239c-.014-100.617-.03-221.644-.047-351.782v-.286h.316l286.288.031h.255v.255C522.325,316.878,522.223,457.215,522.222,459.437Z" transform="translate(-235.617 -107.37)" fill="#263238"/></g><g transform="translate(67.808 121.587)"><path d="M269.089,216.389c0,3.954-2.909,7.158-6.5,7.158s-6.5-3.2-6.5-7.158,2.909-7.159,6.5-7.159S269.089,212.436,269.089,216.389Z" transform="translate(-256.096 -209.23)" fill="#263238"/></g><g transform="translate(33.281 168.583)" opacity="0.3"><path d="M224.579,262.794h12.377l-.032-10.666H224.579Z" transform="translate(-224.579 -252.128)"/></g><g transform="translate(0 93.298)"><g transform="translate(0.174 0.002)"><path d="M233.412,183.409c-21.533,0-39.053,17.051-39.053,38.009s17.731,38.01,39.265,38.01h6.219l-.09-9.013-6.129.249c-17.148,0-31.311-13.119-31.311-29.246s13.951-29.245,31.1-29.245,31.1,13.119,31.1,29.245a4,4,0,1,0,7.953,0C272.466,200.46,254.948,183.409,233.412,183.409Z" transform="translate(-194.359 -183.409)" fill="#e0e0e0"/></g><path d="M233.427,183.409s.313,0,.926.016l2.717.105c1.189.1,2.652.343,4.38.6a43.667,43.667,0,0,1,5.8,1.661,40.012,40.012,0,0,1,13.957,8.716l1.688,1.8c.283.308.584.6.857.93s.523.676.787,1.018c.516.691,1.09,1.36,1.582,2.1l1.443,2.3a38.889,38.889,0,0,1,4.242,10.772,38.479,38.479,0,0,1,.793,6.2,9.139,9.139,0,0,1-.127,3.267,4.5,4.5,0,0,1-2.095,2.637,3.892,3.892,0,0,1-3.426.164,4.422,4.422,0,0,1-2.358-2.59,5.344,5.344,0,0,1-.3-1.777q-.048-.861-.1-1.731a24.764,24.764,0,0,0-.446-3.482,28.489,28.489,0,0,0-6.411-12.986,30.82,30.82,0,0,0-5.719-5.067,32.935,32.935,0,0,0-3.337-2.031c-.582-.3-1.193-.551-1.791-.83a14.2,14.2,0,0,0-1.838-.748l-1.891-.651c-.641-.191-1.3-.324-1.951-.49a34.03,34.03,0,0,0-4-.688,34.388,34.388,0,0,0-12.332,1.075c-.676.19-1.333.449-2,.67l-1,.345-.97.436a30.248,30.248,0,0,0-7.306,4.463,28.756,28.756,0,0,0-5.853,6.443,26.579,26.579,0,0,0-3.7,8.023,24.739,24.739,0,0,0-.954,8.907,25.638,25.638,0,0,0,2.037,8.842,30.212,30.212,0,0,0,14.705,15.289,30.973,30.973,0,0,0,10.042,2.971,18.5,18.5,0,0,0,2.576.22,20.159,20.159,0,0,0,2.574.036l5.124-.206.286-.012,0,.286q.043,4.585.085,9.013l0,.277-.276,0c-2.31-.015-4.594.03-6.868-.035l-3.4-.173-3.339-.5a41.2,41.2,0,0,1-12.308-4.482c-.913-.562-1.869-1.048-2.731-1.665l-2.562-1.858q-1.185-1.035-2.353-2.06a10.214,10.214,0,0,1-1.108-1.08l-1.054-1.122a38.086,38.086,0,0,1-6.6-9.9c-.451-.858-.715-1.791-1.078-2.673l-.505-1.333-.368-1.367c-.226-.911-.52-1.8-.681-2.711q-.217-1.371-.429-2.719a36.724,36.724,0,0,1,.217-10.5,34.829,34.829,0,0,1,1.1-4.855,20.323,20.323,0,0,1,.8-2.281c.3-.738.524-1.5.878-2.2a37.966,37.966,0,0,1,2.149-4.037l1.176-1.872c.409-.6.873-1.151,1.3-1.719a38.761,38.761,0,0,1,11.4-9.916c.482-.275.942-.571,1.418-.816l1.43-.665a23.958,23.958,0,0,1,2.721-1.17l2.557-.9c.825-.242,1.626-.412,2.374-.6a29.266,29.266,0,0,1,4.025-.736c.587-.074,1.124-.18,1.62-.209s.947-.039,1.35-.055l1.824-.067c.41-.013.618-.007.618-.007s-.208.026-.617.054l-1.82.114-1.344.077c-.494.038-1.029.15-1.611.232a29.645,29.645,0,0,0-4,.776c-.743.2-1.538.375-2.356.622l-2.536.916a23.965,23.965,0,0,0-2.7,1.181l-1.415.67c-.471.246-.927.543-1.4.819a38.617,38.617,0,0,0-11.265,9.894c-.42.564-.879,1.112-1.281,1.709l-1.157,1.859a37.608,37.608,0,0,0-2.114,4.005c-.348.69-.566,1.446-.86,2.177a20.067,20.067,0,0,0-.782,2.26,34.474,34.474,0,0,0-1.074,4.806,36.355,36.355,0,0,0-.185,10.384l.431,2.685c.161.9.457,1.777.68,2.677l.367,1.349.5,1.316c.36.87.621,1.791,1.07,2.638a37.631,37.631,0,0,0,6.535,9.767l1.043,1.106a10.17,10.17,0,0,0,1.1,1.065l2.327,2.029,2.533,1.83c.852.609,1.8,1.086,2.7,1.64a40.714,40.714,0,0,0,12.155,4.406l3.294.489,3.359.167c2.258.062,4.554.015,6.86.029l-.273.276q-.046-4.434-.094-9.013l.288.274-5.134.21a20.775,20.775,0,0,1-2.61-.035,19.02,19.02,0,0,1-2.625-.222,31.5,31.5,0,0,1-10.218-3.018,30.772,30.772,0,0,1-14.985-15.578,26.211,26.211,0,0,1-2.078-9.029,25.231,25.231,0,0,1,.976-9.092,27.137,27.137,0,0,1,3.774-8.185,29.343,29.343,0,0,1,5.968-6.561,30.777,30.777,0,0,1,7.439-4.537l.987-.443,1.02-.352c.681-.225,1.351-.486,2.039-.678a34.862,34.862,0,0,1,12.538-1.081,34.73,34.73,0,0,1,4.062.7c.662.169,1.331.306,1.982.5l1.922.663a14.527,14.527,0,0,1,1.868.765c.607.284,1.228.539,1.819.846a33.411,33.411,0,0,1,3.391,2.071,31.319,31.319,0,0,1,5.805,5.161,28.967,28.967,0,0,1,6.5,13.223,25.306,25.306,0,0,1,.446,3.542c.031.591.062,1.177.093,1.762a4.9,4.9,0,0,0,.27,1.624,3.966,3.966,0,0,0,2.108,2.332,3.446,3.446,0,0,0,3.035-.138,4.062,4.062,0,0,0,1.894-2.378,8.83,8.83,0,0,0,.117-3.119,38.066,38.066,0,0,0-.766-6.132,38.6,38.6,0,0,0-4.162-10.677q-.72-1.157-1.419-2.282c-.485-.736-1.052-1.4-1.56-2.089l-.775-1.011c-.27-.324-.566-.619-.846-.926l-1.665-1.792A40.014,40.014,0,0,0,247.175,186a44.49,44.49,0,0,0-5.759-1.7c-1.717-.278-3.173-.535-4.357-.656l-2.708-.162C233.741,183.444,233.427,183.409,233.427,183.409Z" transform="translate(-194.2 -183.408)" fill="#263238"/></g><g transform="translate(67.808 224.948)"><path d="M269.089,310.737c0,3.954-2.909,7.159-6.5,7.159s-6.5-3.206-6.5-7.159,2.909-7.159,6.5-7.159S269.089,306.784,269.089,310.737Z" transform="translate(-256.096 -303.578)" fill="#263238"/></g><g transform="translate(90.6 99.012)"><rect width="220.557" height="9.232" fill="#529d2e"/></g><g transform="translate(90.6 87.695)"><rect width="128.552" height="9.232" fill="#fd963d"/></g><g transform="translate(90.6 297.495)"><rect width="128.552" height="9.232" fill="#fd963d"/></g><g transform="translate(89.178 67.823)"><g transform="translate(2.378)"><rect width="220.833" height="13.465" fill="#e0e0e0"/></g><g transform="translate(0 123.426)"><rect width="220.833" height="13.465" fill="#e0e0e0"/></g><g transform="translate(2.378 57.105)"><rect width="88.073" height="13.465" fill="#e0e0e0"/></g><g transform="translate(110.721 57.105)"><rect width="110.113" height="13.465" fill="#e0e0e0"/></g><g transform="translate(3.387 25.079)"><path d="M405.281,183.33c0,.158-28.34.285-63.29.285s-63.3-.127-63.3-.285,28.333-.285,63.3-.285S405.281,183.173,405.281,183.33Z" transform="translate(-278.694 -183.045)" fill="#263238"/></g><g transform="translate(3.15 35.675)"><path d="M497.306,193c0,.157-48.991.284-109.41.284-60.44,0-109.42-.127-109.42-.284s48.98-.285,109.42-.285C448.315,192.717,497.306,192.844,497.306,193Z" transform="translate(-278.477 -192.717)" fill="#263238"/></g><g transform="translate(3.15 45.711)"><path d="M497.306,202.163c0,.158-48.991.285-109.41.285-60.44,0-109.42-.127-109.42-.285s48.98-.285,109.42-.285C448.315,201.878,497.306,202.006,497.306,202.163Z" transform="translate(-278.477 -201.878)" fill="#263238"/></g><g transform="translate(1.683 78.501)"><path d="M365.14,232.094c0,.158-19.7.285-44,.285s-44-.127-44-.285,19.7-.285,44-.285S365.14,231.937,365.14,232.094Z" transform="translate(-277.138 -231.809)" fill="#263238"/></g><g transform="translate(3.144 88.843)"><path d="M365.013,241.535c0,.158-19.374.285-43.269.285s-43.272-.127-43.272-.285,19.37-.285,43.272-.285S365.013,241.378,365.013,241.535Z" transform="translate(-278.472 -241.25)" fill="#263238"/></g><g transform="translate(2.042 99.356)"><path d="M364.749,251.13c0,.158-19.541.285-43.64.285s-43.643-.127-43.643-.285,19.536-.284,43.643-.284S364.749,250.973,364.749,251.13Z" transform="translate(-277.466 -250.846)" fill="#263238"/></g><g transform="translate(2.042 109.561)"><path d="M364.749,260.445c0,.158-19.541.285-43.64.285s-43.643-.127-43.643-.285,19.536-.284,43.643-.284S364.749,260.288,364.749,260.445Z" transform="translate(-277.466 -260.161)" fill="#263238"/></g><g transform="translate(114.386 77.624)"><g transform="translate(13.606 3.303)"><path d="M483.582,234.308c0,.158-20.406.285-45.573.285s-45.576-.127-45.576-.285,20.4-.284,45.576-.284S483.582,234.151,483.582,234.308Z" transform="translate(-392.434 -234.024)" fill="#263238"/></g><path d="M386.621,237.893a16.991,16.991,0,0,1-.114-1.892c-.044-1.162-.1-2.779-.119-4.7l.233.246-6.275.038c-.06.061.513-.538.271-.284v.9c0,.3,0,.591,0,.881,0,.581,0,1.15-.007,1.706-.01,1.1-.019,2.137-.027,3.11l-.234-.245c1.832.024,3.37.079,4.475.125a14.432,14.432,0,0,1,1.8.12,9.275,9.275,0,0,1-1.651.122c-1.091.046-2.691.1-4.625.125l-.231,0,0-.25c-.009-.973-.017-2.014-.027-3.11,0-.555,0-1.125-.008-1.706V231.3l.272-.286,6.275.039h.238l0,.244c-.023,2.032-.076,3.714-.119,4.86A10.885,10.885,0,0,1,386.621,237.893Z" transform="translate(-380.014 -231.009)" fill="#263238"/></g><g transform="translate(114.386 90.293)"><g transform="translate(13.606 3.302)"><path d="M483.582,245.872c0,.157-20.406.285-45.573.285s-45.576-.128-45.576-.285,20.4-.285,45.576-.285S483.582,245.714,483.582,245.872Z" transform="translate(-392.434 -245.587)" fill="#263238"/></g><path d="M386.621,249.457a17.024,17.024,0,0,1-.114-1.893c-.044-1.162-.1-2.778-.119-4.7l.233.246-6.275.038c-.06.061.513-.539.271-.284h0v.9q0,.445,0,.882,0,.871-.007,1.7c-.01,1.1-.019,2.138-.027,3.111l-.234-.246c1.832.024,3.37.08,4.475.126a14.439,14.439,0,0,1,1.8.12,9.506,9.506,0,0,1-1.651.121c-1.091.046-2.691.1-4.625.126l-.231,0,0-.249c-.009-.973-.017-2.014-.027-3.111q0-.833-.008-1.7v-1.777h0c-.242.254.33-.348.272-.286l6.275.038h.238l0,.245c-.023,2.032-.076,3.714-.119,4.86A10.885,10.885,0,0,1,386.621,249.457Z" transform="translate(-380.014 -242.573)" fill="#263238"/></g><g transform="translate(114.386 102.96)"><g transform="translate(13.606 3.302)"><path d="M483.582,257.435c0,.158-20.406.285-45.573.285s-45.576-.127-45.576-.285,20.4-.285,45.576-.285S483.582,257.278,483.582,257.435Z" transform="translate(-392.434 -257.15)" fill="#263238"/></g><path d="M386.621,261.02a16.993,16.993,0,0,1-.114-1.892c-.044-1.162-.1-2.779-.119-4.7l.233.247-6.275.038c-.06.061.513-.538.271-.284v.9c0,.3,0,.59,0,.881,0,.581,0,1.15-.007,1.706-.01,1.1-.019,2.137-.027,3.11l-.234-.245c1.832.024,3.37.079,4.475.125a14.416,14.416,0,0,1,1.8.121,9.276,9.276,0,0,1-1.651.122c-1.091.046-2.691.1-4.625.125l-.231,0,0-.25c-.009-.973-.017-2.014-.027-3.11,0-.555,0-1.125-.008-1.706v-1.778l.272-.286,6.275.039h.238l0,.244c-.023,2.033-.076,3.714-.119,4.86A10.886,10.886,0,0,1,386.621,261.02Z" transform="translate(-380.014 -254.136)" fill="#263238"/></g><g transform="translate(1.423 148.627)"><path d="M494.618,358.485s-.012-.37-.018-1.08-.01-1.769-.016-3.153c-.01-2.782-.023-6.885-.042-12.219-.021-10.663-.052-26.236-.091-45.926l.165.175-217.432.11h-.013l.271-.285c0,21.463,0,42.383-.007,62.379l-.264-.278,155.293.127,45.613.079,12.267.036,3.181.019c.717.005,1.092.017,1.092.017s-.353.012-1.058.019l-3.149.018-12.21.036-45.553.079-155.477.127h-.265v-.278c0-20,0-40.916-.005-62.379v-.285h.284l217.432.109h.168v.175c-.039,19.735-.071,35.345-.092,46.03-.018,5.318-.032,9.407-.041,12.18q-.011,2.056-.018,3.123C494.629,358.137,494.618,358.485,494.618,358.485Z" transform="translate(-276.901 -295.821)" fill="#263238"/><g transform="translate(0.879 15.7)"><path d="M494.542,310.436c0,.158-48.546.285-108.415.285-59.89,0-108.424-.127-108.424-.285s48.534-.284,108.424-.284C446,310.152,494.542,310.279,494.542,310.436Z" transform="translate(-277.703 -310.152)" fill="#263238"/></g><g transform="translate(0.879 31.189)"><path d="M494.542,324.576c0,.157-48.546.285-108.415.285-59.89,0-108.424-.128-108.424-.285s48.534-.285,108.424-.285C446,324.291,494.542,324.419,494.542,324.576Z" transform="translate(-277.703 -324.291)" fill="#263238"/></g><g transform="translate(0.879 46.849)"><path d="M494.542,338.87c0,.157-48.546.284-108.415.284-59.89,0-108.424-.127-108.424-.284s48.534-.285,108.424-.285C446,338.585,494.542,338.712,494.542,338.87Z" transform="translate(-277.703 -338.585)" fill="#263238"/></g><g transform="translate(25.275 0.184)"><path d="M300.243,359.014c-.149,0-.271-14.109-.271-31.51s.122-31.515.271-31.515.272,14.107.272,31.515S300.393,359.014,300.243,359.014Z" transform="translate(-299.972 -295.989)" fill="#263238"/></g><g transform="translate(98.806 1.132)"><path d="M367.363,357.036c-.149,0-.271-13.474-.271-30.09s.122-30.093.271-30.093.271,13.471.271,30.093S367.513,357.036,367.363,357.036Z" transform="translate(-367.092 -296.854)" fill="#263238"/></g><g transform="translate(176.285 2.079)"><path d="M438.087,359.8c-.15,0-.272-13.9-.272-31.037s.122-31.041.272-31.041.271,13.895.271,31.041S438.236,359.8,438.087,359.8Z" transform="translate(-437.815 -297.719)" fill="#263238"/></g></g><g transform="translate(2.728 224.987)"><path d="M490.177,365.808c0,.158-47.481.285-106.038.285-58.577,0-106.048-.127-106.048-.285s47.47-.285,106.048-.285C442.7,365.523,490.177,365.651,490.177,365.808Z" transform="translate(-278.092 -365.523)" fill="#263238"/></g><g transform="translate(2.728 234.003)"><path d="M490.177,374.038c0,.158-47.481.285-106.038.285-58.577,0-106.048-.127-106.048-.285s47.47-.285,106.048-.285C442.7,373.753,490.177,373.881,490.177,374.038Z" transform="translate(-278.092 -373.753)" fill="#263238"/></g><g transform="translate(2.728 243.02)"><path d="M355.268,382.268c0,.158-17.279.285-38.586.285s-38.59-.127-38.59-.285,17.274-.284,38.59-.284S355.268,382.111,355.268,382.268Z" transform="translate(-278.092 -381.984)" fill="#263238"/></g></g><g transform="translate(33.281 268.725)" opacity="0.3"><path d="M224.579,354.205h12.377l-.032-10.666H224.579Z" transform="translate(-224.579 -343.539)"/></g><g transform="translate(0 195.868)"><g transform="translate(0.174 0.001)"><path d="M233.412,277.035c-21.533,0-39.053,17.052-39.053,38.009s17.731,38.011,39.265,38.011h6.219l-.09-9.013-6.129.249c-17.148,0-31.311-13.12-31.311-29.247s13.951-29.245,31.1-29.245,31.1,13.12,31.1,29.245a4,4,0,1,0,7.953,0C272.466,294.087,254.948,277.035,233.412,277.035Z" transform="translate(-194.359 -277.035)" fill="#e0e0e0"/></g><path d="M233.427,277.035s.313,0,.926.016l2.717.106c1.189.1,2.652.342,4.38.6a43.664,43.664,0,0,1,5.8,1.661,40.008,40.008,0,0,1,13.957,8.715l1.688,1.8c.283.308.584.6.857.93l.787,1.017c.516.692,1.09,1.361,1.582,2.1q.712,1.132,1.443,2.3a38.9,38.9,0,0,1,4.242,10.773,38.463,38.463,0,0,1,.793,6.2,9.14,9.14,0,0,1-.127,3.267,4.5,4.5,0,0,1-2.095,2.637,3.891,3.891,0,0,1-3.426.163,4.417,4.417,0,0,1-2.358-2.589,5.343,5.343,0,0,1-.3-1.777q-.048-.863-.1-1.732a24.766,24.766,0,0,0-.446-3.482,28.49,28.49,0,0,0-6.411-12.985,30.822,30.822,0,0,0-5.719-5.067,32.936,32.936,0,0,0-3.337-2.032c-.582-.3-1.193-.55-1.791-.829a14.061,14.061,0,0,0-1.838-.749l-1.891-.651c-.641-.19-1.3-.323-1.951-.489a33.825,33.825,0,0,0-4-.689,34.417,34.417,0,0,0-12.332,1.076c-.676.188-1.333.448-2,.669l-1,.346-.97.436a30.2,30.2,0,0,0-7.306,4.462,28.8,28.8,0,0,0-5.853,6.443,26.572,26.572,0,0,0-3.7,8.024,24.73,24.73,0,0,0-.954,8.906,25.644,25.644,0,0,0,2.037,8.843,30.209,30.209,0,0,0,14.705,15.288,30.975,30.975,0,0,0,10.042,2.972,18.856,18.856,0,0,0,2.576.22,20.371,20.371,0,0,0,2.574.035l5.124-.206.286-.011,0,.285q.043,4.585.085,9.013l0,.278-.276,0c-2.31-.015-4.594.03-6.868-.035l-3.4-.174-3.339-.5a41.2,41.2,0,0,1-12.308-4.481c-.913-.563-1.869-1.048-2.731-1.666s-1.713-1.242-2.562-1.858q-1.185-1.035-2.353-2.059a10.419,10.419,0,0,1-1.108-1.08l-1.054-1.122a38.106,38.106,0,0,1-6.6-9.9c-.451-.858-.715-1.792-1.078-2.673l-.505-1.334-.368-1.366c-.226-.911-.52-1.8-.681-2.711q-.217-1.371-.429-2.719a36.723,36.723,0,0,1,.217-10.5,34.807,34.807,0,0,1,1.1-4.857,20.38,20.38,0,0,1,.8-2.28c.3-.738.524-1.5.878-2.2a37.956,37.956,0,0,1,2.149-4.037l1.176-1.872c.409-.6.873-1.151,1.3-1.719a38.747,38.747,0,0,1,11.4-9.916c.482-.276.942-.572,1.418-.816l1.43-.666a23.746,23.746,0,0,1,2.721-1.169l2.557-.9c.825-.242,1.626-.411,2.374-.6a29.263,29.263,0,0,1,4.025-.736c.587-.074,1.124-.18,1.62-.21l1.35-.055,1.824-.067c.41-.012.618-.007.618-.007s-.208.026-.617.055l-1.82.113-1.344.078c-.494.037-1.029.15-1.611.231a29.654,29.654,0,0,0-4,.777c-.743.2-1.538.375-2.356.621l-2.536.917a23.784,23.784,0,0,0-2.7,1.181l-1.415.67c-.471.245-.927.542-1.4.819a38.6,38.6,0,0,0-11.265,9.894c-.42.564-.879,1.111-1.281,1.709q-.572.917-1.157,1.859a37.608,37.608,0,0,0-2.114,4.005c-.348.69-.566,1.445-.86,2.177a20.048,20.048,0,0,0-.782,2.259,34.493,34.493,0,0,0-1.074,4.807,36.354,36.354,0,0,0-.185,10.384l.431,2.685c.161.9.457,1.777.68,2.676l.367,1.349.5,1.317c.36.87.621,1.791,1.07,2.637a37.656,37.656,0,0,0,6.535,9.768l1.043,1.105a10.072,10.072,0,0,0,1.1,1.065l2.327,2.029,2.533,1.831c.852.609,1.8,1.086,2.7,1.64a40.744,40.744,0,0,0,12.155,4.406l3.294.487,3.359.168c2.258.062,4.554.015,6.86.028l-.273.275q-.046-4.434-.094-9.013l.288.274-5.134.21a20.6,20.6,0,0,1-2.61-.034,19.392,19.392,0,0,1-2.625-.222,31.525,31.525,0,0,1-10.218-3.019,30.767,30.767,0,0,1-14.985-15.578,26.211,26.211,0,0,1-2.078-9.029,25.229,25.229,0,0,1,.976-9.091,27.138,27.138,0,0,1,3.774-8.185,29.319,29.319,0,0,1,5.968-6.561,30.741,30.741,0,0,1,7.439-4.537l.987-.443,1.02-.352c.681-.225,1.351-.488,2.039-.679a34.908,34.908,0,0,1,12.538-1.08,34.292,34.292,0,0,1,4.062.7c.662.169,1.331.306,1.982.5l1.922.664a14.541,14.541,0,0,1,1.868.764c.607.285,1.228.539,1.819.847a33.583,33.583,0,0,1,3.391,2.069,31.36,31.36,0,0,1,5.805,5.162,28.966,28.966,0,0,1,6.5,13.223,25.286,25.286,0,0,1,.446,3.542q.046.884.093,1.76a4.9,4.9,0,0,0,.27,1.625,3.969,3.969,0,0,0,2.108,2.332,3.443,3.443,0,0,0,3.035-.139,4.062,4.062,0,0,0,1.894-2.378,8.828,8.828,0,0,0,.117-3.119,38.081,38.081,0,0,0-.766-6.132,38.6,38.6,0,0,0-4.162-10.676l-1.419-2.282c-.485-.737-1.052-1.4-1.56-2.089q-.391-.509-.775-1.012c-.27-.323-.566-.619-.846-.926l-1.665-1.792a40.028,40.028,0,0,0-13.811-8.735,44.339,44.339,0,0,0-5.759-1.7c-1.717-.278-3.173-.534-4.357-.656l-2.708-.161C233.741,277.07,233.427,277.035,233.427,277.035Z" transform="translate(-194.2 -277.034)" fill="#263238"/></g><g transform="translate(53.876 27.985)"><path d="M243.378,466.367s.494-.015,1.46-.019h4.291l16.54.057,61.176.308,204.809,1.234-.286.285c0-8.939,0-18.453,0-28.066.033-87.375.062-166.464.083-223.723.038-28.619.069-51.78.091-67.8.023-8,.041-14.209.054-18.432.012-2.1.022-3.7.029-4.793s.029-1.633.029-1.633.02.553.03,1.633.015,2.693.029,4.793c.012,4.223.03,10.435.054,18.432.021,16.017.052,39.177.09,67.8.022,57.258.051,136.347.084,223.723,0,9.613,0,19.127,0,28.066v.286l-.286,0L326.843,467.1l-61.175-.483-16.54-.158-4.291-.055C243.872,466.389,243.378,466.367,243.378,466.367Z" transform="translate(-243.378 -123.789)" fill="#263238"/></g><g transform="translate(49.133 20.018)"><path d="M239.049,462.413s.493-.016,1.457-.022l4.279-.011,16.5.011,61.042.14,204.5.672-.285.283c.009-9.425.019-19.447.029-29.578.123-87.656.234-167,.314-224.439.068-28.71.123-51.945.161-68.013.032-8.023.056-14.255.072-18.491.014-2.107.025-3.716.033-4.808s.032-1.639.032-1.639.019.555.027,1.639.013,2.7.023,4.808c.008,4.236.02,10.469.034,18.491.005,16.068.012,39.3.021,68.014-.037,57.44-.089,136.783-.147,224.438-.011,10.132-.022,20.153-.032,29.579v.285h-.285l-204.5-.854-61.042-.316-16.5-.112-4.28-.043C239.542,462.433,239.049,462.413,239.049,462.413Z" transform="translate(-239.049 -116.517)" fill="#263238"/></g><g transform="translate(58.131 37.325)"><path d="M247.262,470.017s.494-.015,1.459-.019h4.287l16.523.055,61.086.306,204.313,1.225-.286.283c.032-8.25.066-17.045.1-25.927.366-86.616.7-165.017.937-221.777.148-28.371.266-51.33.35-67.206.054-7.928.1-14.086.124-18.272.02-2.083.036-3.672.046-4.752s.036-1.618.036-1.618.016.548.023,1.619.005,2.67.01,4.751c0,4.187-.01,10.345-.018,18.272-.039,15.877-.1,38.837-.168,67.208-.2,56.76-.469,135.161-.769,221.777-.034,8.881-.068,17.676-.1,25.927v.285h-.285l-204.313-1.407-61.084-.481-16.523-.157-4.286-.055C247.756,470.039,247.262,470.017,247.262,470.017Z" transform="translate(-247.262 -132.315)" fill="#263238"/></g><g transform="translate(337.214 51.027)"><path d="M502.036,144.822h26.828l9.56,10.737-8.317,12.791H502.011Z" transform="translate(-502.011 -144.822)" fill="#455a64"/></g></g></g><g transform="translate(915 6533.87)" opacity="0.87"><g transform="translate(0 66.43)"><g transform="translate(0 2.845)"><path d="M24.074,362.856a8.254,8.254,0,0,1-7-9.346l10.212-71.027a6.847,6.847,0,0,1,7.929-5.54l6.679.963a7.11,7.11,0,0,0,6.893-2.89l1.851-2.706a7.11,7.11,0,0,1,6.893-2.89l31.7,4.56a7.172,7.172,0,0,1,5.554,4.078l1.2,2.691a7.161,7.161,0,0,0,5.554,4.081l40.415,5.812a6.845,6.845,0,0,1,6.045,7.548l-10.446,72.643a8.252,8.252,0,0,1-9.346,7Z" transform="translate(-16.993 -269.344)" fill="#455a64"/><g opacity="0.3"><path d="M24.074,362.856a8.254,8.254,0,0,1-7-9.346l10.212-71.027a6.847,6.847,0,0,1,7.929-5.54l6.679.963a7.11,7.11,0,0,0,6.893-2.89l1.851-2.706a7.11,7.11,0,0,1,6.893-2.89l31.7,4.56a7.172,7.172,0,0,1,5.554,4.078l1.2,2.691a7.161,7.161,0,0,0,5.554,4.081l40.415,5.812a6.845,6.845,0,0,1,6.045,7.548l-10.446,72.643a8.252,8.252,0,0,1-9.346,7Z" transform="translate(-16.993 -269.344)"/></g></g><g transform="translate(0.065)"><path d="M97.521,285.945l-25.7-3.755-1.68-4.626a8.956,8.956,0,0,0-7.2-5.675L37.8,268.275a7.935,7.935,0,0,0-9.188,6.421l-.422,2.929L17.1,354.75c-.685,4.759,2.88,9.21,7.963,9.94l102.079,14.679c5.083.732,9.756-2.534,10.441-7.3l10.478-72.854a5.949,5.949,0,0,0-5.041-6.733Z" transform="translate(-17.02 -268.185)" fill="#455a64"/></g><g transform="translate(36.736 40.742)"><g transform="translate(0)"><rect width="61.377" height="25.823" transform="translate(3.675 0) rotate(8.182)" fill="#fff"/></g></g><g transform="translate(48.446 53.37)"><path d="M78.466,295.95c-.034.226-9.4-.933-20.931-2.591s-20.847-3.185-20.813-3.411,9.4.933,20.931,2.591S78.5,295.724,78.466,295.95Z" transform="translate(-36.723 -289.921)" fill="#263238"/></g><g transform="translate(47.662 58.814)"><path d="M78.147,298.169c-.032.226-9.4-.936-20.93-2.593S36.37,292.391,36.4,292.166s9.4.936,20.931,2.593S78.179,297.943,78.147,298.169Z" transform="translate(-36.404 -292.137)" fill="#263238"/></g></g><g transform="translate(123.559)"><g transform="translate(0.905)"><path d="M80.606,309.322a5.429,5.429,0,0,1-6.146-4.6l-6.735-46.686a4.5,4.5,0,0,1,3.973-4.965l4.39-.634a4.667,4.667,0,0,0,3.808-3.1l.668-2.05a4.669,4.669,0,0,1,3.811-3.1l20.84-3.008a4.716,4.716,0,0,1,4.258,1.542l1.257,1.476a4.708,4.708,0,0,0,4.26,1.542l26.566-3.833a4.5,4.5,0,0,1,5.213,3.639l6.89,47.752a5.429,5.429,0,0,1-4.6,6.146Z" transform="translate(-67.682 -241.131)" fill="#396d1f"/></g><g transform="translate(0 0.633)"><path d="M112.9,245.744l-16.9,2.4-1.918-2.605a5.888,5.888,0,0,0-5.6-2.242l-16.52,2.382a5.217,5.217,0,0,0-4.6,5.753l.277,1.928,7.315,50.7a5.925,5.925,0,0,0,6.866,4.791l67.1-9.679a5.927,5.927,0,0,0,5.23-6.539l-6.907-47.889a3.909,3.909,0,0,0-4.427-3.31Z" transform="translate(-67.313 -241.389)" fill="#529d2e"/></g><g transform="translate(24.533 21.171)"><g transform="translate(0 0)"><rect width="40.348" height="16.976" transform="matrix(0.99, -0.143, 0.143, 0.99, 0, 5.762)" fill="#fff"/></g></g><g transform="translate(31.946 29.446)"><path d="M107.763,253.142c.022.15-6.1,1.156-13.68,2.249S80.345,257.25,80.323,257.1s6.1-1.154,13.682-2.247S107.741,252.994,107.763,253.142Z" transform="translate(-80.323 -253.124)" fill="#263238"/></g><g transform="translate(32.464 33.026)"><path d="M107.972,254.6c.022.147-6.1,1.154-13.68,2.247s-13.738,1.861-13.758,1.711,6.1-1.154,13.68-2.249S107.952,254.45,107.972,254.6Z" transform="translate(-80.534 -254.581)" fill="#263238"/></g></g></g><g transform="translate(1241.075 6897.506)"><path d="M750.535,343.048a3.862,3.862,0,0,1-.038-.589c-.01-.435-.023-.981-.041-1.662q-.03-2.288-.092-6.383c-.049-5.6-.121-13.643-.211-23.787l.381.378c-27.984.056-72.486.146-122.55.244.276-.278-.63.623.616-.623v8.291q0,4.123,0,8.182-.007,8.119-.011,15.949l-.609-.612c34.9.112,65.434.208,87.337.278,10.91.074,19.665.134,25.779.175l6.972.081,1.823.038a4.419,4.419,0,0,1,.646.04,2.711,2.711,0,0,1-.567.04l-1.749.038c-1.635.02-3.921.047-6.838.081-6.082.04-14.791.1-25.64.175l-87.763.278-.612,0v-.614q-.007-7.82-.011-15.949,0-4.059,0-8.182v-8.291c1.248-1.25.349-.347.632-.625l122.55.244h.383l0,.381c-.09,10.241-.161,18.364-.21,24.014q-.061,4.039-.092,6.3c-.018.656-.029,1.181-.04,1.6a2.361,2.361,0,0,1-.038.515" transform="translate(-627.353 -277.443)" fill="#e0e0e0"/><path d="M730.875,328.62a3.612,3.612,0,0,1-.047-.616c-.013-.466-.029-1.031-.049-1.718q-.041-2.4-.11-6.5c-.058-5.684-.141-13.713-.244-23.586l.45.448-73.631.175c-.563.558.752-.76.618-.618v4.239q0,2.114,0,4.2,0,4.18,0,8.253c-.009,5.422-.016,10.682-.022,15.72l-.6-.594c21.258.114,39.561.21,52.675.282,6.47.069,11.656.123,15.346.164l4.138.074a12.4,12.4,0,0,1,1.478.074,8.5,8.5,0,0,1-1.337.074l-4.014.074c-3.656.04-8.8.094-15.207.163-13.218.072-31.657.168-53.079.282l-.594,0v-.6c-.007-5.039-.016-10.3-.022-15.72q0-4.066-.007-8.253V296.2c-.139.13,1.183-1.189.63-.629,28.6.069,54.555.132,73.631.175l.453,0,0,.446c-.1,9.987-.184,18.108-.24,23.859q-.073,4.039-.115,6.4a17.836,17.836,0,0,1-.094,2.162" transform="translate(-591.075 -295.434)" fill="#e0e0e0"/></g><g transform="translate(93.825 29.108)"><rect width="56.852" height="15.041" transform="translate(1265.42 6499.392)" fill="#f5f5f5"/><path d="M684.5,152.042a1.8,1.8,0,0,1-.018-.273c-.005-.2-.011-.455-.019-.771q-.014-1.062-.042-2.961c-.023-2.6-.056-6.329-.1-11.034l.176.176-56.848.113c.128-.129-.292.289.286-.289v3.846q0,1.913,0,3.8,0,3.766-.005,7.4l-.283-.284,40.514.129,11.958.081,3.234.037.846.018a2.03,2.03,0,0,1,.3.019,1.267,1.267,0,0,1-.263.019l-.812.018-3.172.037-11.893.081-40.711.129h-.284v-.284q0-3.627-.005-7.4,0-1.883,0-3.8V137c.579-.58.162-.161.293-.29l56.848.113h.178V137c-.042,4.75-.075,8.518-.1,11.139q-.028,1.874-.042,2.92c-.007.3-.013.548-.019.741a1.088,1.088,0,0,1-.018.239" transform="translate(613.73 6378.23)" fill="#e0e0e0"/></g><g transform="translate(932.993 6396.395)"><g transform="translate(0 0)"><g transform="translate(230.063)"><g transform="translate(72.14 60.998)"><path d="M179.207,224.24l-31.813,23.543,9.827,28.469A68.89,68.89,0,0,0,179.207,224.24Z" transform="translate(-147.394 -224.24)" fill="#263238"/></g><g transform="translate(14.029)"><path d="M139.568,203.771c8.437-4.611,18.627-5.274,28.051-3.386s18.212,6.153,26.531,10.969c4.67,2.7,9.326,5.67,12.68,9.893,6.126,7.705,12.179,20.361,12.771,30.188.476,7.946-2.566,27.838-5.923,35.054-3.082,6.625-17.508,11.666-24.626,13.3l-65.326-75.973A33.063,33.063,0,0,1,139.568,203.771Z" transform="translate(-123.728 -199.398)" fill="#263238"/></g><g transform="translate(0 11.82)"><path d="M136.621,207.011l15.661-2.8c-8.56,20.385-10.88,67.008-15.779,88.569-5.773-8.376-19.177-33.886-18.46-44.034S118.015,205.283,136.621,207.011Z" transform="translate(-118.015 -204.212)" fill="#263238"/></g><g transform="translate(8.559 14.619)"><path d="M205.8,239.287c-.842-11.909-8.552-21.679-20.123-24.631l-36.066-9.2c-15.585-1.682-25.994,17.49-27.013,33.134-1.134,17.38-1.832,35.717.2,48.692,4.083,26.09,24.064,29.451,24.064,29.451,0-.037,0,12.408.017,20.024l12.069,49.962,40.233-43.41,6.711-103.7C205.9,239.159,205.838,239.881,205.8,239.287Z" transform="translate(-121.5 -205.352)" fill="#ffbf9d"/></g><g transform="translate(17.486 64.546)"><path d="M125.138,228.7a3.345,3.345,0,0,0,3.217,3.381,3.2,3.2,0,0,0,3.455-3.008,3.343,3.343,0,0,0-3.214-3.381A3.2,3.2,0,0,0,125.138,228.7Z" transform="translate(-125.136 -225.685)" fill="#263238"/></g><g transform="translate(13.514 54.572)"><path d="M123.571,225.124c.415.437,2.951-1.434,6.551-1.417,3.6-.032,6.232,1.824,6.625,1.385.191-.194-.228-.982-1.378-1.822a9.165,9.165,0,0,0-5.3-1.648,8.813,8.813,0,0,0-5.215,1.67C123.746,224.14,123.367,224.928,123.571,225.124Z" transform="translate(-123.518 -221.623)" fill="#263238"/></g><g transform="translate(48.86 64.546)"><path d="M137.915,228.7a3.342,3.342,0,0,0,3.217,3.381,3.2,3.2,0,0,0,3.455-3.008,3.343,3.343,0,0,0-3.214-3.381A3.2,3.2,0,0,0,137.915,228.7Z" transform="translate(-137.913 -225.685)" fill="#263238"/></g><g transform="translate(47.696 54.572)"><path d="M137.491,225.124c.415.437,2.956-1.432,6.554-1.414,3.592-.034,6.232,1.822,6.622,1.382.192-.194-.224-.982-1.378-1.822a9.165,9.165,0,0,0-5.3-1.648,8.819,8.819,0,0,0-5.215,1.67C137.667,224.14,137.289,224.928,137.491,225.124Z" transform="translate(-137.439 -221.623)" fill="#263238"/></g><g transform="translate(27.332 56.355)"><path d="M138.31,252.333c.017-.2-2.22-.594-5.844-1.066-.918-.1-1.788-.282-1.942-.909a4.68,4.68,0,0,1,.621-2.723q1.3-3.333,2.733-6.993c3.8-9.955,6.546-18.141,6.144-18.291s-3.806,7.8-7.6,17.753q-1.37,3.683-2.618,7.035c-.351,1.044-.953,2.227-.486,3.607a2.312,2.312,0,0,0,1.508,1.346,6.28,6.28,0,0,0,1.562.221C136.032,252.517,138.3,252.539,138.31,252.333Z" transform="translate(-129.146 -222.349)" fill="#263238"/></g><g transform="translate(33.916 116.721)"><path d="M166.417,246.933s-8.486,17.913-34.583,15.416l-.007-6.136A65.7,65.7,0,0,0,166.417,246.933Z" transform="translate(-131.827 -246.933)" fill="#ff9a6c"/></g><g transform="translate(48.859 42.384)"><path d="M137.931,219.342c.354.98,3.948.526,8.167,1.044,4.233.432,7.636,1.677,8.2.8.25-.42-.341-1.343-1.716-2.293a14.311,14.311,0,0,0-12.466-1.4C138.562,218.112,137.781,218.878,137.931,219.342Z" transform="translate(-137.913 -216.659)" fill="#263238"/></g><g transform="translate(14.65 43.35)"><path d="M124.072,220.766c.633.82,3.114-.022,6.094-.057,2.981-.138,5.505.56,6.09-.292.255-.415-.142-1.235-1.242-2.011a8.821,8.821,0,0,0-9.815.282C124.143,219.526,123.795,220.368,124.072,220.766Z" transform="translate(-123.981 -217.053)" fill="#263238"/></g><g transform="translate(16.267 4.518)"><path d="M125.11,220.756c1.594-3.924,5.9-6.279,10.131-6.495s8.363,1.387,12.029,3.509c15.533,8.977,23.516,30.662,38.863,39.948,3.774,2.286,8.688.194,11.9,3.219s5.294,7.862,3.516,11.9a36.542,36.542,0,0,0,5.326-9.007c1.171-3.3,1.319-7.133-.432-10.166-1.328-2.3-3.671-4.056-4.317-6.635-.565-2.266.329-4.638.231-6.974a15.192,15.192,0,0,0-2.389-6.652c-6.011-10.632-14.281-20.248-24.93-26.227a44.119,44.119,0,0,0-22.888-5.92,33.746,33.746,0,0,0-21.775,8.643c-3.433,3.2-7.042,6.512-5.262,10.853" transform="translate(-124.64 -201.238)" fill="#263238"/></g><g transform="translate(89.282 66.047)"><path d="M154.375,227.7c.275-.747,13.878-5.658,14.06,8.8.174,14.048-14,11.283-14.028,10.88S154.375,227.7,154.375,227.7Z" transform="translate(-154.375 -226.296)" fill="#ffbf9d"/><g transform="translate(4.302 4.584)"><path d="M156.139,239.3c.061-.044.248.169.663.354a2.446,2.446,0,0,0,1.829.022c1.478-.56,2.706-2.927,2.75-5.459a8.09,8.09,0,0,0-.717-3.5,2.827,2.827,0,0,0-1.859-1.861,1.244,1.244,0,0,0-1.437.685c-.184.4-.093.673-.167.7-.039.034-.3-.233-.2-.815a1.555,1.555,0,0,1,.545-.884,1.841,1.841,0,0,1,1.348-.371,3.435,3.435,0,0,1,2.578,2.153,8.319,8.319,0,0,1,.884,3.907c-.064,2.834-1.488,5.5-3.511,6.1a2.629,2.629,0,0,1-2.242-.351C156.169,239.64,156.092,239.326,156.139,239.3Z" transform="translate(-156.127 -228.163)" fill="#ff9a6c"/></g></g><g transform="translate(19.286 12.89)"><path d="M201.454,251.988a5.359,5.359,0,0,1-.847-.471c-.538-.341-1.368-.8-2.357-1.5a48.389,48.389,0,0,1-7.583-6.9,134.737,134.737,0,0,1-9.274-12.049A110.6,110.6,0,0,0,169.8,216.634a44.194,44.194,0,0,0-7.482-5.913,36.39,36.39,0,0,0-8.081-3.666,39.97,39.97,0,0,0-14.88-1.827,38.383,38.383,0,0,0-9.967,1.952c-1.157.351-2.009.739-2.6.965a5.123,5.123,0,0,1-.918.324,5.816,5.816,0,0,1,.867-.442,23.779,23.779,0,0,1,2.571-1.083,36.465,36.465,0,0,1,10.018-2.171,39.752,39.752,0,0,1,15.091,1.716,36.741,36.741,0,0,1,8.228,3.693,44.411,44.411,0,0,1,7.6,5.991,107.446,107.446,0,0,1,11.624,14.551,144.442,144.442,0,0,0,9.132,12.088,52.085,52.085,0,0,0,7.391,7c.96.727,1.763,1.213,2.276,1.589A5.7,5.7,0,0,1,201.454,251.988Z" transform="translate(-125.869 -204.648)" fill="#455a64"/></g><g transform="translate(92.698 84.097)"><g transform="translate(0.252 0.114)"><path d="M158.114,233.735a2.768,2.768,0,1,1-.656.209" transform="translate(-155.869 -233.693)" fill="#fff"/></g><path d="M157.607,234.011a3.77,3.77,0,0,0-1.265,1.886,2.38,2.38,0,0,0,.55,2.2,2.456,2.456,0,0,0,4.319-1.375,2.387,2.387,0,0,0-.827-2.117,3.788,3.788,0,0,0-2.122-.808c-.01-.034.214-.145.658-.155a2.865,2.865,0,0,1,1.751.614,2.8,2.8,0,0,1,1.127,2.532,3.017,3.017,0,0,1-5.348,1.7,2.807,2.807,0,0,1-.545-2.718,2.858,2.858,0,0,1,1.076-1.515C157.347,234.016,157.592,233.979,157.607,234.011Z" transform="translate(-155.766 -233.647)" fill="#263238"/></g><g transform="translate(73.034 44.257)"><path d="M166.061,237.37c.221,3.835.4,7.887-1.375,11.3s-6.244,5.729-9.579,3.821c-2.723-1.554-3.536-5.039-4-8.14-1.333-8.948-1.942-17.991-3.352-26.927Z" transform="translate(-147.758 -217.422)" fill="#263238"/></g><g transform="translate(20.195 16.699)"><path d="M126.239,206.854c.017.081,1.243-.233,3.494-.3a24.051,24.051,0,0,1,9.3,1.7,30.611,30.611,0,0,1,5.824,3,63.064,63.064,0,0,1,6.006,4.587,72.212,72.212,0,0,1,11.764,12.68c1.783,2.507,3.364,5.083,5.078,7.467a35.64,35.64,0,0,0,5.63,6.333,62.463,62.463,0,0,0,11.872,7.941c3.592,1.9,6.6,3.231,8.67,4.152l2.4,1.024a4.014,4.014,0,0,0,.862.3,4.023,4.023,0,0,0-.8-.449c-.611-.3-1.385-.687-2.34-1.159-2.028-1-4.994-2.409-8.533-4.361a64.747,64.747,0,0,1-11.656-8,35.548,35.548,0,0,1-5.483-6.237c-1.682-2.36-3.258-4.94-5.063-7.474a70.809,70.809,0,0,0-11.936-12.778,61.5,61.5,0,0,0-6.124-4.582,30.443,30.443,0,0,0-5.984-2.974,23.184,23.184,0,0,0-9.505-1.481,16.3,16.3,0,0,0-2.6.361A3.908,3.908,0,0,0,126.239,206.854Z" transform="translate(-126.239 -206.199)" fill="#455a64"/></g><g transform="translate(91.724 37.503)"><path d="M155.37,232.7a6.373,6.373,0,0,0,1.242.837l3.558,2.087,1.2.688a3.744,3.744,0,0,0,1.537.508,1.471,1.471,0,0,0,.95-.223,1.221,1.221,0,0,0,.525-.926,3.138,3.138,0,0,0-.663-1.778c-1.267-2.026-2.654-4.25-4.13-6.61l-.555.518a14.693,14.693,0,0,0,9.539,2.843,4.291,4.291,0,0,0,1.274-.218,1.724,1.724,0,0,0,1.093-.95,1.54,1.54,0,0,0-.236-1.419,5.9,5.9,0,0,0-.8-.879,29.655,29.655,0,0,1-4.783-6.033,50.571,50.571,0,0,1-3.042-6.47,7.3,7.3,0,0,0,.444,1.891,26.173,26.173,0,0,0,2.117,4.859,28.363,28.363,0,0,0,4.756,6.274c.525.5,1.044,1.066.842,1.508-.167.442-.967.66-1.7.665a14.174,14.174,0,0,1-9.039-2.691l-1.677-1.228,1.12,1.746c1.505,2.34,2.922,4.548,4.214,6.559a2.648,2.648,0,0,1,.6,1.37.668.668,0,0,1-.808.6,7.147,7.147,0,0,1-2.524-1.041q-2.184-1.12-3.671-1.886A6.169,6.169,0,0,0,155.37,232.7Z" transform="translate(-155.37 -214.672)" fill="#455a64"/></g><g transform="translate(40.971 89.391)"><path d="M143.915,239.388a4.7,4.7,0,0,0-4.852-3.565,4.914,4.914,0,0,0-3.777,2.686,6.038,6.038,0,0,0-.214,4.695l.076.339a5.347,5.347,0,0,0,6.018,1.279A5,5,0,0,0,143.915,239.388Z" transform="translate(-134.7 -235.803)" fill="#ff9a6c"/></g><g transform="translate(38.809 86.961)"><path d="M133.821,245.056c0-.545,3.634-.371,6.374-3.359s2.532-6.88,3.04-6.883c.231-.039.665.9.629,2.539a9.086,9.086,0,0,1-2.333,5.756,7.9,7.9,0,0,1-5.333,2.583C134.668,245.756,133.786,245.3,133.821,245.056Z" transform="translate(-133.82 -234.813)" fill="#263238"/></g></g><g transform="translate(211.981 138.221)"><path d="M112.081,493.625c3.266-16.916,13.753-73.866,13.741-85.377,0-1.9-2.954-7.818-3.5-9.638-3.057-10.279-13.721-48.1-11.327-68.027,1.915-15.931,15.4-36.326,19.438-47.216,1.9-5.125,17.048-10.411,22.1-12.513l10.735-15.165s-2.33,7.047,7.153,13.375a28.822,28.822,0,0,0,17.3,4.584,44.047,44.047,0,0,0,31.587-15.541l1.768,1.368c34.669,11.18,34.293,11.246,40.957,14.05,8.572,3.607-18.583,91.567-18.583,91.567s-16.044,59.393-7.4,77.794c4.869,10.365,21.262,27.484,25.412,37.12,0,0,7.219,10.092,7.359,12.626s-42.689,21.085-76.5,22.961C129.765,519.061,112.081,493.625,112.081,493.625Z" transform="translate(-110.651 -255.689)" fill="#f5f5f5"/></g><g transform="translate(208.239 461.649)"><g transform="translate(0 68.92)"><path d="M3.755,0H271.109a3.756,3.756,0,0,1,3.756,3.756V67.822a3.756,3.756,0,0,1-3.756,3.756H3.755A3.755,3.755,0,0,1,0,67.822V3.755A3.755,3.755,0,0,1,3.755,0Z" fill="#263238"/><g transform="translate(123.712 17.085)"><rect width="121.878" height="40.415" rx="0.708" fill="#fff"/></g><g transform="translate(45.584 20.205)"><circle cx="14.63" cy="14.63" r="14.63" transform="translate(2.456 2.457)" fill="#263238"/><path d="M144.779,457.877a17.088,17.088,0,1,1,17.085-17.088A17.108,17.108,0,0,1,144.779,457.877Zm0-29.264a12.177,12.177,0,1,0,12.174,12.177A12.192,12.192,0,0,0,144.779,428.613Z" transform="translate(-127.691 -423.702)" fill="#e0e0e0"/></g><g transform="translate(135.828 23.993)"><path d="M165.081,425.245c.354,0,.641,6.065.641,13.547s-.287,13.547-.641,13.547-.638-6.065-.638-13.547S164.73,425.245,165.081,425.245Z" transform="translate(-164.443 -425.245)" fill="#e0e0e0"/></g><g transform="translate(147.685 23.993)"><path d="M169.91,425.245c.354,0,.641,6.065.641,13.547s-.287,13.547-.641,13.547-.638-6.065-.638-13.547S169.557,425.245,169.91,425.245Z" transform="translate(-169.272 -425.245)" fill="#e0e0e0"/></g><g transform="translate(159.54 23.993)"><path d="M174.741,425.245c.354,0,.638,6.065.638,13.547s-.285,13.547-.638,13.547-.641-6.065-.641-13.547S174.387,425.245,174.741,425.245Z" transform="translate(-174.1 -425.245)" fill="#e0e0e0"/></g><g transform="translate(171.398 23.993)"><path d="M179.57,425.245c.351,0,.638,6.065.638,13.547s-.287,13.547-.638,13.547-.641-6.065-.641-13.547S179.216,425.245,179.57,425.245Z" transform="translate(-178.929 -425.245)" fill="#e0e0e0"/></g><g transform="translate(183.255 23.993)"><path d="M184.4,425.245c.354,0,.641,6.065.641,13.547s-.287,13.547-.641,13.547-.638-6.065-.638-13.547S184.045,425.245,184.4,425.245Z" transform="translate(-183.758 -425.245)" fill="#e0e0e0"/></g><g transform="translate(195.113 23.993)"><path d="M189.225,425.245c.354,0,.638,6.065.638,13.547s-.285,13.547-.638,13.547-.638-6.065-.638-13.547S188.872,425.245,189.225,425.245Z" transform="translate(-188.587 -425.245)" fill="#e0e0e0"/></g><g transform="translate(206.968 23.993)"><path d="M194.056,425.245c.354,0,.638,6.065.638,13.547s-.285,13.547-.638,13.547-.641-6.065-.641-13.547S193.7,425.245,194.056,425.245Z" transform="translate(-193.415 -425.245)" fill="#e0e0e0"/></g><g transform="translate(218.825 23.993)"><path d="M198.885,425.245c.351,0,.638,6.065.638,13.547s-.287,13.547-.638,13.547-.641-6.065-.641-13.547S198.531,425.245,198.885,425.245Z" transform="translate(-198.244 -425.245)" fill="#e0e0e0"/></g><g transform="translate(230.683 23.993)"><path d="M203.711,425.245c.354,0,.641,6.065.641,13.547s-.287,13.547-.641,13.547-.638-6.065-.638-13.547S203.36,425.245,203.711,425.245Z" transform="translate(-203.073 -425.245)" fill="#e0e0e0"/></g></g><path d="M3.755,0H271.109a3.756,3.756,0,0,1,3.756,3.756V67.822a3.756,3.756,0,0,1-3.756,3.756H3.755A3.755,3.755,0,0,1,0,67.822V3.755A3.755,3.755,0,0,1,3.755,0Z" fill="#455a64"/><g transform="translate(123.712 17.085)"><rect width="121.878" height="40.415" rx="0.708" fill="#fff"/></g><g transform="translate(45.584 20.206)"><circle cx="14.63" cy="14.63" r="14.63" transform="translate(2.456 2.455)" fill="#263238"/><path d="M144.779,429.808a17.086,17.086,0,1,1,17.085-17.088A17.108,17.108,0,0,1,144.779,429.808Zm0-29.262a12.175,12.175,0,1,0,12.174,12.174A12.191,12.191,0,0,0,144.779,400.546Z" transform="translate(-127.691 -395.635)" fill="#e0e0e0"/></g><g transform="translate(135.828 23.993)"><path d="M165.081,397.177c.354,0,.641,6.065.641,13.547s-.287,13.547-.641,13.547-.638-6.063-.638-13.547S164.73,397.177,165.081,397.177Z" transform="translate(-164.443 -397.177)" fill="#e0e0e0"/></g><g transform="translate(147.685 23.993)"><path d="M169.91,397.177c.354,0,.641,6.065.641,13.547s-.287,13.547-.641,13.547-.638-6.063-.638-13.547S169.557,397.177,169.91,397.177Z" transform="translate(-169.272 -397.177)" fill="#e0e0e0"/></g><g transform="translate(159.54 23.993)"><path d="M174.741,397.177c.354,0,.638,6.065.638,13.547s-.285,13.547-.638,13.547-.641-6.063-.641-13.547S174.387,397.177,174.741,397.177Z" transform="translate(-174.1 -397.177)" fill="#e0e0e0"/></g><g transform="translate(171.398 23.993)"><path d="M179.57,397.177c.351,0,.638,6.065.638,13.547s-.287,13.547-.638,13.547-.641-6.063-.641-13.547S179.216,397.177,179.57,397.177Z" transform="translate(-178.929 -397.177)" fill="#e0e0e0"/></g><g transform="translate(183.255 23.993)"><path d="M184.4,397.177c.354,0,.641,6.065.641,13.547s-.287,13.547-.641,13.547-.638-6.063-.638-13.547S184.045,397.177,184.4,397.177Z" transform="translate(-183.758 -397.177)" fill="#e0e0e0"/></g><g transform="translate(195.113 23.993)"><path d="M189.225,397.177c.354,0,.638,6.065.638,13.547s-.285,13.547-.638,13.547-.638-6.063-.638-13.547S188.872,397.177,189.225,397.177Z" transform="translate(-188.587 -397.177)" fill="#e0e0e0"/></g><g transform="translate(206.968 23.993)"><path d="M194.056,397.177c.354,0,.638,6.065.638,13.547s-.285,13.547-.638,13.547-.641-6.063-.641-13.547S193.7,397.177,194.056,397.177Z" transform="translate(-193.415 -397.177)" fill="#e0e0e0"/></g><g transform="translate(218.825 23.993)"><path d="M198.885,397.177c.351,0,.638,6.065.638,13.547s-.287,13.547-.638,13.547-.641-6.063-.641-13.547S198.531,397.177,198.885,397.177Z" transform="translate(-198.244 -397.177)" fill="#e0e0e0"/></g><g transform="translate(230.683 23.993)"><path d="M203.711,397.177c.354,0,.641,6.065.641,13.547s-.287,13.547-.641,13.547-.638-6.063-.638-13.547S203.36,397.177,203.711,397.177Z" transform="translate(-203.073 -397.177)" fill="#e0e0e0"/></g><g transform="translate(0 140.879)"><path d="M3.755,0H271.109a3.756,3.756,0,0,1,3.756,3.756V67.822a3.756,3.756,0,0,1-3.756,3.756H3.755A3.755,3.755,0,0,1,0,67.822V3.755A3.755,3.755,0,0,1,3.755,0Z" fill="#fd963d"/><g transform="translate(123.712 17.085)"><rect width="121.878" height="40.415" rx="0.708" fill="#fff"/></g><g transform="translate(45.584 20.206)"><path d="M157.953,468.64a14.631,14.631,0,1,0-14.63,14.63A14.632,14.632,0,0,0,157.953,468.64Z" transform="translate(-126.236 -451.552)" fill="#263238"/><path d="M144.779,487.181A17.086,17.086,0,1,1,161.864,470.1,17.106,17.106,0,0,1,144.779,487.181Zm0-29.262A12.175,12.175,0,1,0,156.953,470.1,12.192,12.192,0,0,0,144.779,457.919Z" transform="translate(-127.691 -453.008)" fill="#f5f5f5"/></g><g transform="translate(135.828 23.992)"><path d="M165.081,454.55c.354,0,.641,6.067.641,13.547s-.287,13.549-.641,13.549-.638-6.065-.638-13.549S164.73,454.55,165.081,454.55Z" transform="translate(-164.443 -454.55)" fill="#e0e0e0"/></g><g transform="translate(147.685 23.992)"><path d="M169.91,454.55c.354,0,.641,6.067.641,13.547s-.287,13.549-.641,13.549-.638-6.065-.638-13.549S169.557,454.55,169.91,454.55Z" transform="translate(-169.272 -454.55)" fill="#e0e0e0"/></g><g transform="translate(159.54 23.992)"><path d="M174.741,454.55c.354,0,.638,6.067.638,13.547s-.285,13.549-.638,13.549-.641-6.065-.641-13.549S174.387,454.55,174.741,454.55Z" transform="translate(-174.1 -454.55)" fill="#e0e0e0"/></g><g transform="translate(171.398 23.992)"><path d="M179.57,454.55c.351,0,.638,6.067.638,13.547s-.287,13.549-.638,13.549-.641-6.065-.641-13.549S179.216,454.55,179.57,454.55Z" transform="translate(-178.929 -454.55)" fill="#e0e0e0"/></g><g transform="translate(183.255 23.992)"><path d="M184.4,454.55c.354,0,.641,6.067.641,13.547s-.287,13.549-.641,13.549-.638-6.065-.638-13.549S184.045,454.55,184.4,454.55Z" transform="translate(-183.758 -454.55)" fill="#e0e0e0"/></g><g transform="translate(195.113 23.992)"><path d="M189.225,454.55c.354,0,.638,6.067.638,13.547s-.285,13.549-.638,13.549-.638-6.065-.638-13.549S188.872,454.55,189.225,454.55Z" transform="translate(-188.587 -454.55)" fill="#e0e0e0"/></g><g transform="translate(206.968 23.992)"><path d="M194.056,454.55c.354,0,.638,6.067.638,13.547s-.285,13.549-.638,13.549-.641-6.065-.641-13.549S193.7,454.55,194.056,454.55Z" transform="translate(-193.415 -454.55)" fill="#e0e0e0"/></g><g transform="translate(218.825 23.992)"><path d="M198.885,454.55c.351,0,.638,6.067.638,13.547s-.287,13.549-.638,13.549-.641-6.065-.641-13.549S198.531,454.55,198.885,454.55Z" transform="translate(-198.244 -454.55)" fill="#e0e0e0"/></g><g transform="translate(230.683 23.992)"><path d="M203.711,454.55c.354,0,.641,6.067.641,13.547s-.287,13.549-.641,13.549-.638-6.065-.638-13.549S203.36,454.55,203.711,454.55Z" transform="translate(-203.073 -454.55)" fill="#e0e0e0"/></g></g></g><g transform="translate(0 345.421)"><g transform="translate(0 184.289)"><g transform="translate(0.646)"><path d="M100.321,415.124,79.962,459.065s-50.824-6.723-55.378,1.031l83.106,43.319,34.529-67.165Z" transform="translate(-24.584 -415.124)" fill="#455a64"/></g><g transform="translate(77.173 52.451)"><g transform="translate(0)"><path d="M61.714,437.367a3.865,3.865,0,0,1,.388,5.142,3.715,3.715,0,0,1-5.1.427c-1.429-1.25-1.753-4.135-.381-5.446s4.26-1.414,5.348.142" transform="translate(-55.75 -436.485)" fill="#e0e0e0"/></g></g><g transform="translate(0 42.514)"><path d="M108.075,478.211l2.75-5.351L29.318,432.438s-3.492.282-5,2.691Z" transform="translate(-24.321 -432.438)" fill="#263238"/></g><g transform="translate(55.112 43.72)"><path d="M46.779,433.037c-.2.42,1.77,1.652,3.123,4,1.417,2.32,1.557,4.633,2.016,4.663.422.113,1.058-2.662-.631-5.483C49.623,433.385,46.882,432.614,46.779,433.037Z" transform="translate(-46.765 -432.929)" fill="#263238"/></g><g transform="translate(44.377 42.932)"><path d="M42.434,432.671c-.3.351,1.132,1.959,1.645,4.41.587,2.438-.017,4.5.4,4.692.354.263,1.864-2.006,1.166-5.044C44.978,433.686,42.643,432.283,42.434,432.671Z" transform="translate(-42.394 -432.608)" fill="#263238"/></g><g transform="translate(33.904 42.314)"><path d="M38.238,441.077c.329.28,1.947-1.488,2.036-4.282.108-2.794-1.385-4.67-1.734-4.415-.4.221.233,2.067.125,4.359C38.614,439.034,37.85,440.831,38.238,441.077Z" transform="translate(-38.128 -432.356)" fill="#263238"/></g><g transform="translate(60.915 33.907)"><path d="M49.129,429.287c-.017.462,2.161.854,4.41,2.2,2.276,1.294,3.691,3,4.086,2.753.388-.179-.607-2.6-3.276-4.142C51.69,428.531,49.092,428.86,49.129,429.287Z" transform="translate(-49.129 -428.933)" fill="#263238"/></g><g transform="translate(64.108 21.821)"><path d="M50.454,426.391c-.091.167,1.409,1.25,4.238,2.124a21.414,21.414,0,0,0,5.11.886,22.5,22.5,0,0,0,3.082-.056,5.731,5.731,0,0,0,1.78-.346,2.013,2.013,0,0,0,1.3-2.094,2.527,2.527,0,0,0-1.328-1.859,6.175,6.175,0,0,0-1.694-.587,17.247,17.247,0,0,0-3.084-.432,16.812,16.812,0,0,0-5.2.579c-2.878.82-4.329,2.019-4.228,2.171.118.231,1.726-.574,4.479-1.061a18.938,18.938,0,0,1,4.847-.211,17.849,17.849,0,0,1,2.8.484c1.014.221,1.778.6,1.8,1.115,0,.194-.015.258-.334.425a4.768,4.768,0,0,1-1.306.248,24.872,24.872,0,0,1-2.88.145,26.271,26.271,0,0,1-4.879-.508C52.209,426.86,50.562,426.165,50.454,426.391Z" transform="translate(-50.429 -424.011)" fill="#263238"/></g></g><g transform="translate(109.114 253.963)"><g transform="translate(0.462)"><path d="M114.829,444.437,117.4,492.8s-48.061,17.844-48.456,26.828l93.716-.611-.916-75.514Z" transform="translate(-68.946 -443.499)" fill="#455a64"/></g><g transform="translate(72.711 44.761)"><path d="M102.933,461.875a3.862,3.862,0,0,1,2.748,4.363,3.714,3.714,0,0,1-4.3,2.76c-1.849-.435-3.484-2.834-2.885-4.636s3.1-3.244,4.791-2.374" transform="translate(-98.37 -461.728)" fill="#e0e0e0"/></g><g transform="translate(0 69.495)"><path d="M162.935,477.814l-.074-6.013L71.913,474.22s-2.954,1.886-3.155,4.719Z" transform="translate(-68.758 -471.801)" fill="#263238"/></g><g transform="translate(48.068 49.164)"><path d="M88.337,463.975c.022.462,2.338.631,4.636,2.077,2.335,1.387,3.543,3.366,3.963,3.177.425-.1-.312-2.849-3.126-4.55C91.013,462.953,88.229,463.553,88.337,463.975Z" transform="translate(-88.334 -463.521)" fill="#263238"/></g><g transform="translate(38.214 53.696)"><path d="M84.324,465.563c-.1.449,1.918,1.2,3.519,3.129,1.66,1.878,2.092,3.985,2.551,3.958.437.064.71-2.647-1.328-5C87.047,465.269,84.326,465.122,84.324,465.563Z" transform="translate(-84.321 -465.367)" fill="#263238"/></g><g transform="translate(28.954 57.955)"><path d="M84.381,475.015c.422.091,1.026-2.23-.2-4.739-1.213-2.519-3.408-3.479-3.6-3.091-.255.385,1.171,1.719,2.148,3.794C83.755,473.031,83.922,474.975,84.381,475.015Z" transform="translate(-80.55 -467.101)" fill="#263238"/></g><g transform="translate(48.694 36.713)"><path d="M88.606,460.19c.2.417,2.308-.258,4.923-.125,2.618.078,4.665.921,4.9.521.26-.339-1.751-2.014-4.835-2.126C90.514,458.322,88.373,459.832,88.606,460.19Z" transform="translate(-88.589 -458.45)" fill="#263238"/></g><g transform="translate(46.846 20.228)"><path d="M87.836,459.565c0,.192,1.829.444,4.739-.106a21.314,21.314,0,0,0,4.931-1.608,22.4,22.4,0,0,0,2.7-1.491,5.856,5.856,0,0,0,1.412-1.139,2.017,2.017,0,0,0,.169-2.463,2.54,2.54,0,0,0-2.043-1.021,6.165,6.165,0,0,0-1.773.277,16.976,16.976,0,0,0-2.927,1.061,16.782,16.782,0,0,0-4.322,2.944c-2.158,2.07-2.878,3.809-2.718,3.9.211.147,1.255-1.316,3.46-3.032a18.886,18.886,0,0,1,4.184-2.455,17.821,17.821,0,0,1,2.706-.887c1-.28,1.851-.3,2.117.14.1.169.108.236-.1.533a4.719,4.719,0,0,1-1.039.83,24.78,24.78,0,0,1-2.478,1.476,26.221,26.221,0,0,1-4.552,1.834C89.606,459.157,87.824,459.315,87.836,459.565Z" transform="translate(-87.836 -451.737)" fill="#263238"/></g></g><g transform="translate(64.113)"><path d="M356.094,362.8s-191.9-22.725-202.955-22.73c-25.979-.012-38.156,19.013-42.035,34.293-2.87,11.3-60.672,174.582-60.672,174.582l42.642,22.1,62.706-111.42,31.958-55.6,164.694,25.449Z" transform="translate(-50.431 -340.072)" fill="#263238"/><g transform="translate(84.093 54.355)"><path d="M130.129,366.679s-25.733,0-39.629,20.587c-8.169,12.1-5.3,33.726-5.463,50.05-.223,22.222,5.147,157.62,5.147,157.62l52.638.879L153.849,454.7l-.653-26.08,105.1-8.545s9.569-31.86-13.967-57C241.3,359.843,130.129,366.679,130.129,366.679Z" transform="translate(-84.678 -362.208)" fill="#263238"/></g><g transform="translate(219.986 19.013)"><path d="M225.634,354.155s16.4,37.856-5.734,70.224c-14.615,21.375-42.647,16.479-42.647,16.479l-37.232-46.62,29.706-46.423Z" transform="translate(-140.021 -347.815)" fill="#263238"/></g></g><g transform="translate(153.711 110.901)"><path d="M86.92,561.418a4.587,4.587,0,0,1,.931-.054l2.728-.022c2.48.012,6,.03,10.482.049,9.181.1,22.32.25,38.5.435l-.479.434c2.04-28.334,4.783-66.45,7.8-108.3,1.007-13.628,1.986-26.861,2.917-39.447v.062q-.239-10.022-.462-19.452l-.012-.565.56-.044c29.866-2.409,55.334-4.557,73.321-6.2,8.994-.82,16.123-1.5,20.989-2.048,2.441-.24,4.3-.528,5.564-.673,1.23-.233,1.878-.386,1.9-.349a15.571,15.571,0,0,1-1.864.545c-1.257.206-3.118.56-5.552.862-4.859.673-11.978,1.461-20.965,2.387-17.977,1.847-43.43,4.157-73.3,6.659l.548-.609q.247,9.422.511,19.452v.032l0,.029c-.918,12.589-1.886,25.822-2.88,39.45-3.141,41.844-6,79.953-8.13,108.282l-.032.447-.444-.01c-16.182-.358-29.318-.65-38.5-.852l-10.478-.3c-1.142-.047-2.043-.083-2.726-.113A4.856,4.856,0,0,1,86.92,561.418Z" transform="translate(-86.92 -385.237)" fill="#455a64"/></g><g transform="translate(149.036 57.129)"><path d="M257.31,418.265a4.535,4.535,0,0,0-.7-.366c-.521-.241-1.213-.565-2.1-.977-1.905-.862-4.624-2.095-8.1-3.669-7.106-3.165-17.294-7.705-29.864-13.306-12.641-5.589-27.668-12.233-44.348-19.61L146,368.789c-2.3-.965-4.5-2.092-6.949-2.925a43.711,43.711,0,0,0-7.477-1.911,56.607,56.607,0,0,0-15.693-.137,49.769,49.769,0,0,0-15.1,4.285,26.968,26.968,0,0,0-6.492,4.245,24.344,24.344,0,0,0-4.766,5.964,33.909,33.909,0,0,0-4.4,14.058c-.2,2.443-.061,4.791-.069,7.128q.037,3.506.074,6.929c.209,18.239.4,34.669.552,48.488.2,13.761.356,24.913.467,32.69.076,3.813.138,6.8.179,8.886L86.4,498.8a4.17,4.17,0,0,0,.061.788,4.414,4.414,0,0,0,.047-.788c.007-.572.017-1.338.032-2.311,0-2.092.01-5.076.017-8.889-.032-7.779-.076-18.932-.13-32.69-.093-13.822-.2-30.249-.327-48.488Q86.074,403,86.05,399.5c.01-2.333-.123-4.72.081-7.042a32.9,32.9,0,0,1,4.282-13.621,23.394,23.394,0,0,1,4.577-5.716,25.862,25.862,0,0,1,6.247-4.071,48.908,48.908,0,0,1,14.784-4.184,55.757,55.757,0,0,1,15.391.128,42.673,42.673,0,0,1,7.293,1.856c2.343.791,4.616,1.937,6.895,2.893l26.222,11.492,44.434,19.4,30,13,8.177,3.484,2.139.882A4.281,4.281,0,0,0,257.31,418.265Z" transform="translate(-85.016 -363.338)" fill="#455a64"/></g></g><g transform="translate(168.122 130.474)"><g transform="translate(54.953 61.354)"><path d="M118.465,354.238a17.523,17.523,0,0,0-.415-3.072c-.358-1.955-.771-4.8-1.161-8.329-.41-3.526-.67-7.747-.737-12.435a121.34,121.34,0,0,1,3.533-30.222c1.147-4.545,2.375-8.592,3.585-11.929s2.252-6.018,3.052-7.838a17.83,17.83,0,0,0,1.112-2.893,17.21,17.21,0,0,0-1.486,2.721,83.842,83.842,0,0,0-3.379,7.752,109.725,109.725,0,0,0-3.828,11.951,112.917,112.917,0,0,0-3.563,30.47,109.17,109.17,0,0,0,.97,12.511,83.888,83.888,0,0,0,1.5,8.322A17.411,17.411,0,0,0,118.465,354.238Z" transform="translate(-115.168 -277.521)" fill="#263238"/></g><g transform="translate(35.644)"><path d="M168.137,260.281l-.093-7.747-9.1,14.834L140.4,274.2c-5.829,6.718-24.712,82.332-20.9,94.84l6.6,73.942-18.8,28.268,33.728,3.607s7.246-7.155,5.436-26.094c-4.582-47.963.157-102.676.85-114.791C148.363,315.728,168.137,260.281,168.137,260.281Z" transform="translate(-107.305 -252.534)" fill="#fdd85e"/></g><g transform="translate(0 14.834)"><path d="M180.072,258.575s-30.428,9.949-34.416,15.681C134.81,289.841,69.5,396.472,101.562,428.276c21,20.832,50.49-23.116,50.49-23.116Z" transform="translate(-92.789 -258.575)" fill="#fdd85e"/></g><g transform="translate(12.697 134.128)"><path d="M97.96,315.195a16.413,16.413,0,0,0,2.772-.494l7.583-1.628c6.446-1.355,15.482-3.276,25.841-4.825l-.552-.324c1,2.568,2.04,5.237,3.1,7.966,2.657,6.748,5.171,13.124,7.379,18.728l.074-.469c-4.629,5.773-8.555,10.671-11.45,14.283l-3.177,4.088a8.837,8.837,0,0,0-1.051,1.518,8.4,8.4,0,0,0,1.282-1.328q1.326-1.54,3.384-3.921c2.969-3.551,7-8.366,11.745-14.04l.177-.211-.1-.263c-2.178-5.616-4.656-12.007-7.276-18.77-1.071-2.726-2.114-5.39-3.121-7.958l-.152-.388-.4.064c-10.426,1.606-19.428,3.654-25.849,5.191-3.209.776-5.768,1.444-7.521,1.932A15.891,15.891,0,0,0,97.96,315.195Z" transform="translate(-97.96 -307.158)" fill="#263238"/></g><g transform="translate(40.064 50.14)"><path d="M113.009,356.441a21.027,21.027,0,0,0-.307-3.4c-.29-2.357-.673-5.466-1.134-9.228-.877-7.774-2.095-18.618-1-30.5a83.827,83.827,0,0,1,8.427-29.154c1.714-3.519,3.263-6.288,4.344-8.2a24.067,24.067,0,0,0,1.626-3c-.029-.02-.221.219-.56.69s-.823,1.174-1.417,2.1c-1.191,1.849-2.848,4.574-4.66,8.076a79.8,79.8,0,0,0-8.808,29.387c-1.1,12.034.243,22.932,1.311,30.7.55,3.894,1.088,7.03,1.468,9.193A21.219,21.219,0,0,0,113.009,356.441Z" transform="translate(-109.105 -272.953)" fill="#263238"/></g><g transform="translate(65.041 15.538)"><path d="M125.629,364.274a5.282,5.282,0,0,0-.017-1.223c-.069-.911-.152-2.065-.258-3.487-.282-3.163-.668-7.5-1.142-12.8-.523-5.444-1.142-11.865-1.824-18.974-.356-3.573-.729-7.32-1.115-11.2a40.307,40.307,0,0,1-.317-5.861,10.762,10.762,0,0,1,1.6-5.547,6.325,6.325,0,0,1,5.368-3.119l1.923.123-1.6-1.078-8-5.4.152.678c6.262-10.748,11.686-20.054,15.624-26.814,1.851-3.251,3.349-5.883,4.454-7.828.462-.847.842-1.545,1.152-2.114a2.99,2.99,0,0,0,.349-.761,3.01,3.01,0,0,0-.5.673c-.351.545-.776,1.215-1.3,2.028-1.169,1.908-2.753,4.489-4.707,7.678-4.022,6.711-9.557,15.951-15.948,26.623l-.246.407.4.27,7.985,5.431.324-.958a7.344,7.344,0,0,0-6.3,3.58,11.737,11.737,0,0,0-1.77,6.08,40.854,40.854,0,0,0,.336,6.018c.408,3.877.8,7.622,1.176,11.192.768,7.1,1.463,13.515,2.05,18.951.611,5.287,1.11,9.613,1.476,12.769.184,1.412.334,2.561.452,3.467A5.426,5.426,0,0,0,125.629,364.274Z" transform="translate(-119.277 -258.862)" fill="#263238"/></g><g transform="translate(112.778 1.802)"><path d="M175.128,253.268l9.1,9.76L218,273.756a600.037,600.037,0,0,1-7.983,73.947c-7.435,41.655-11.425,84.115-11.641,84.771-1.643-3.1,16.97,22.463,27.258,47.565,8.081,19.723,12.513,60.894,12.513,60.894L153.119,566.98l-14.4-154.1,3.75-71.285Z" transform="translate(-138.718 -253.268)" fill="#fdd85e"/><g transform="translate(3.76 8.894)"><path d="M140.254,374.483a7.451,7.451,0,0,0,.638-1.27l1.65-3.715c1.427-3.229,3.5-7.894,6.173-13.606a487.488,487.488,0,0,1,23.089-43.5q1.179-1.945,2.333-3.855l.319-.528-.567-.236-9.571-3.953.13.874a26.121,26.121,0,0,1,10.627-5.351l.344-.081.029-.354a117.447,117.447,0,0,1,2.986-16.891c1.184-5.034,2.2-9.483,2.794-13.213a63.958,63.958,0,0,0,.867-8.769c.032-1.021-.017-1.81-.027-2.34a3.206,3.206,0,0,0-.071-.805,28.152,28.152,0,0,0-.214,3.131,76.988,76.988,0,0,1-1.137,8.68c-.673,3.7-1.756,8.1-3,13.127a112.92,112.92,0,0,0-3.163,17l.373-.432a26.862,26.862,0,0,0-11.062,5.5l-.661.543.791.329,9.564,3.973-.246-.759-2.343,3.863a427.659,427.659,0,0,0-22.86,43.732c-2.593,5.761-4.562,10.48-5.874,13.758-.607,1.567-1.1,2.826-1.468,3.794A7.145,7.145,0,0,0,140.254,374.483Z" transform="translate(-140.249 -256.89)" fill="#263238"/></g><g transform="translate(32.012 232.142)"><path d="M193.285,347.824a6.942,6.942,0,0,0,.761,1.056c.584.737,1.331,1.675,2.249,2.831,2.048,2.507,4.864,5.955,8.309,10.176l.216-.611-40.38,7.59.528.211c-.2-.282-.42-.587-.638-.891-3.966-5.515-7.774-10.814-11.268-15.676l-.346.786c11.7-1.517,21.76-2.821,29.061-3.769,3.5-.489,6.338-.881,8.435-1.174.906-.142,1.655-.258,2.269-.354a3.789,3.789,0,0,0,.805-.174,2.64,2.64,0,0,0-.744.017c-.6.052-1.333.118-2.22.2l-8.4.887L152.595,352.3l-.84.1.494.69c3.482,4.872,7.276,10.183,11.224,15.708.219.3.437.609.638.891l.2.275.332-.064,40.324-7.887.638-.125-.422-.486L196.5,351.348l-2.367-2.664A5.608,5.608,0,0,0,193.285,347.824Z" transform="translate(-151.755 -347.808)" fill="#263238"/></g><g transform="translate(35.262 240.414)" opacity="0.3"><path d="M197.77,357.738l2.672,5.216L162.548,371.1l-9.469-19.927,9.534,13.3Z" transform="translate(-153.079 -351.177)"/></g></g></g><g transform="translate(78.512 251.718)"><g transform="translate(0.015 0.051)"><path d="M56.382,306.647,77.113,408.424H257.061a3.594,3.594,0,0,0,3.595-3.592h0a3.6,3.6,0,0,0-3.595-3.595H220.835l-19.219-94.654a3.932,3.932,0,0,0-3.808-3.148l-137.531-1.5A3.93,3.93,0,0,0,56.382,306.647Z" transform="translate(-56.301 -301.932)" fill="#e0e0e0"/></g><path d="M56.39,306.677s-.022-.1-.056-.3a3.6,3.6,0,0,1-.017-.926,3.947,3.947,0,0,1,1.9-2.974A4.023,4.023,0,0,1,59.408,302a6.23,6.23,0,0,1,1.417-.089l3.239.025,8.1.066,52,.494,36.25.366q9.808.1,20.309.209l10.652.11q2.7.026,5.444.057c.464.012.9-.007,1.392.034a4.109,4.109,0,0,1,1.39.4,4.164,4.164,0,0,1,1.977,2.072,6.514,6.514,0,0,1,.376,1.382l.277,1.37q.28,1.37.562,2.75.56,2.762,1.13,5.557,1.138,5.591,2.3,11.322,2.331,11.459,4.769,23.433c3.244,15.958,6.618,32.557,10.094,49.657l-.243-.2,20.862,0h14.762a6.551,6.551,0,0,1,1.4.083,3.845,3.845,0,0,1,1.031,7.138,3.928,3.928,0,0,1-1.692.457l-1.662.007h-6.583l-13.051,0q-12.969,0-25.586,0c-16.808-.005-33.1-.007-48.714-.01l-84.488-.044h-.157l-.029-.152c-6.338-31.283-11.492-56.731-15.064-74.367-1.773-8.81-3.153-15.668-4.091-20.334-.459-2.323-.813-4.1-1.051-5.3s-.341-1.815-.341-1.815.142.609.4,1.8.621,2.974,1.107,5.292c.96,4.661,2.374,11.511,4.189,20.314,3.612,17.628,8.823,43.062,15.226,74.332l-.184-.152,84.488-.042c15.617-.005,31.907-.01,48.714-.012q12.608,0,25.586,0,6.486,0,13.051,0h6.583l1.643-.005a3.427,3.427,0,0,0,1.473-.4,3.347,3.347,0,0,0-.9-6.215,6.361,6.361,0,0,0-1.3-.074H241.705c-7.087,0-14.058,0-20.862,0h-.2l-.039-.2c-3.47-17.1-6.836-33.7-10.072-49.66q-2.427-11.97-4.751-23.437-1.16-5.731-2.3-11.325-.567-2.8-1.125-5.557l-.557-2.753-.277-1.368a6.136,6.136,0,0,0-.349-1.3,3.715,3.715,0,0,0-3.01-2.217c-.42-.037-.9-.022-1.353-.032q-2.74-.033-5.444-.061-5.407-.063-10.652-.123l-20.307-.236c-13.078-.152-25.21-.295-36.25-.425-22.077-.273-39.8-.491-52-.643-3.047-.039-5.753-.078-8.1-.108l-3.236-.047a6.134,6.134,0,0,0-1.395.074,4.006,4.006,0,0,0-1.164.452,3.921,3.921,0,0,0-1.9,2.9A5.107,5.107,0,0,0,56.39,306.677Z" transform="translate(-56.295 -301.911)" fill="#263238"/><g transform="translate(71.13 45.402)"><circle cx="5.943" cy="5.943" r="5.943" fill="#fff"/></g><g transform="translate(0.262 5.559)"><path d="M56.4,304.207s.211-.017.621-.022l1.82-.01,7,.01,25.731.123c21.738.155,51.744.366,84.884.6q6.217.052,12.277.1,1.514.015,3.015.025a8.1,8.1,0,0,1,1.542.093,4.3,4.3,0,0,1,3.285,3.069c.223.995.393,1.937.589,2.9,1.522,7.666,2.988,15.062,4.388,22.107,2.785,14.089,5.292,26.777,7.4,37.439,2.087,10.65,3.777,19.271,4.948,25.25.57,2.969,1.014,5.282,1.319,6.868.145.776.253,1.37.331,1.79.071.4.1.611.1.611s-.056-.2-.145-.6c-.091-.417-.216-1.009-.381-1.78-.327-1.584-.8-3.887-1.412-6.851-1.208-5.969-2.949-14.583-5.1-25.218-2.139-10.654-4.68-23.337-7.5-37.417-1.407-7.045-2.885-14.438-4.415-22.1-.2-.95-.376-1.942-.587-2.868a3.754,3.754,0,0,0-1.618-2.193,3.828,3.828,0,0,0-1.292-.523,7.459,7.459,0,0,0-1.446-.083l-3.018-.022-12.275-.1c-33.142-.29-63.145-.555-84.886-.744-10.848-.12-19.634-.216-25.729-.282l-6.993-.1-1.82-.039C56.613,304.224,56.4,304.207,56.4,304.207Z" transform="translate(-56.402 -304.175)" fill="#263238"/></g></g><g transform="translate(227.101 152.765)"><g transform="translate(0 145.151)"><g transform="translate(37.442 4.442)"><path d="M132.057,322.534l.059.037Z" transform="translate(-132.057 -322.534)" fill="#ffbf9d"/></g><g transform="translate(37.794 4.663)"><path d="M132.2,322.624l.13.081Z" transform="translate(-132.2 -322.624)" fill="#ffbf9d"/></g><g transform="translate(37.501 4.479)"><path d="M132.081,322.549l.292.184Z" transform="translate(-132.081 -322.549)" fill="#ffbf9d"/></g><g transform="translate(37.315 4.361)"><path d="M132.005,322.5l.128.081Z" transform="translate(-132.005 -322.501)" fill="#ffbf9d"/></g><path d="M118.725,350.623C122.064,345.788,145,334.707,145,334.707l-5.613-2.019-6.694,1.94a15.784,15.784,0,0,1-3.45,5.643c-2.738,3.065-6.306-.862-6.306-.862l4.221-12.589,13.508-6.094s11.649,3.219,13.456,4.361l4.508,5.228c2.013,2,7.607,9.62,9.336,10.035.535.13,16.457-5.073,16.457-5.073l6.6,29.215-24.317,2.1-14.784,2.259s-8.3,2.3-12.241,2.647c-4.882.437-7.909-1.481-7.725-4.133s3.912-2.5,3.912-2.5a72.959,72.959,0,0,0,9.687-2.959,16.266,16.266,0,0,0,5.874-5.085l-5.179,0s-11.742,6.247-16.083,7.973-4.665-2.424-4.847-3.7,13.783-12.034,13.783-12.034-12.768,5.925-15.128,7.524-5.6,1.773-6.131.452S115.386,355.46,118.725,350.623Z" transform="translate(-116.808 -320.725)" fill="#ffbf9d"/><g transform="translate(37.924 4.744)"><path d="M132.253,322.657l.113.071Z" transform="translate(-132.253 -322.657)" fill="#ffbf9d"/></g><g transform="translate(38.1 4.854)"><path d="M132.325,322.7Z" transform="translate(-132.325 -322.702)" fill="#ffbf9d"/></g><g transform="translate(38.037 4.815)"><path d="M132.3,322.686l.064.039Z" transform="translate(-132.299 -322.686)" fill="#ffbf9d"/></g><g transform="translate(51.156 19.622)"><path d="M146.975,347.146a2.7,2.7,0,0,0,.162-.83,5.027,5.027,0,0,0,.049-.99,7.239,7.239,0,0,0-.081-1.316,18.291,18.291,0,0,0-2.669-7.074,39.083,39.083,0,0,0-4.562-6.026,15.7,15.7,0,0,0-2.23-2.193,24.909,24.909,0,0,0,1.959,2.426A50.171,50.171,0,0,1,144,337.2a19.9,19.9,0,0,1,2.748,6.865C147.066,345.941,146.87,347.136,146.975,347.146Z" transform="translate(-137.642 -328.716)" fill="#ff9a6c"/></g><g transform="translate(28.732 12.158)"><path d="M128.51,327.154a7.909,7.909,0,0,0,7-1.464c-.076-.13-1.493.683-3.43,1.075C130.153,327.181,128.528,327,128.51,327.154Z" transform="translate(-128.51 -325.676)" fill="#ff9a6c"/></g><g transform="translate(23.514 24.204)"><path d="M126.385,333.725a33.647,33.647,0,0,0,5.66-1.319,33.5,33.5,0,0,0,5.525-1.8,33.615,33.615,0,0,0-5.66,1.319A33.375,33.375,0,0,0,126.385,333.725Z" transform="translate(-126.385 -330.582)" fill="#ff9a6c"/></g><g transform="translate(34.089 34.362)"><path d="M130.693,336.278a12.962,12.962,0,0,0,2.9-.656,12.783,12.783,0,0,0,2.851-.842,11.09,11.09,0,0,0-5.751,1.5Z" transform="translate(-130.691 -334.719)" fill="#ff9a6c"/></g><g transform="translate(25.155 28.478)"><path d="M127.056,332.341a7.006,7.006,0,0,1,2.8,4.751c.061.005.165-.324.145-.877a4.56,4.56,0,0,0-2.109-3.578C127.419,332.353,127.08,332.284,127.056,332.341Z" transform="translate(-127.053 -332.323)" fill="#ff9a6c"/></g><g transform="translate(21.079 19.997)"><path d="M125.4,328.889c-.081.123.793.737,1.279,1.893a14.237,14.237,0,0,1,.516,2.224,2.562,2.562,0,0,0-.054-2.426C126.574,329.26,125.437,328.756,125.4,328.889Z" transform="translate(-125.393 -328.869)" fill="#ff9a6c"/></g><g transform="translate(23.873 1.37)"><path d="M127.111,326.042c.052.034.275-.179.479-.624a3.688,3.688,0,0,0-.435-3.634c-.3-.386-.57-.538-.614-.494a9.74,9.74,0,0,1,.813,2.313A9.624,9.624,0,0,1,127.111,326.042Z" transform="translate(-126.531 -321.283)" fill="#ff9a6c"/></g></g><g transform="translate(55.925)"><g transform="translate(0.734)"><path d="M216.3,261.612a35.8,35.8,0,0,1,20.147,23.722s3.592,11.131,6.276,23.614c6.512,30.3,18.19,81.932,18.753,97.019,1.017,27.28-18.725,35.032-29.8,37.422s-79.783,10.88-79.783,10.88l-12.012-33.937,70.06-30.495s-13.36-45.871-16.452-60.2" transform="translate(-139.883 -261.612)" fill="#fdd85e"/></g><path d="M193.924,329.634s.123.351.3,1.049c.192.751.454,1.78.791,3.1.744,2.777,1.817,6.784,3.2,11.931,2.853,10.362,7.121,25.372,12.579,44l.108.368-.354.155c-19.44,8.506-43.275,18.937-70,30.632l.317-.734,12.047,33.925-.661-.408c17.856-2.239,36.9-4.656,56.481-7.332,7.909-1.12,15.786-2.131,23.379-3.585,7.494-1.65,14.674-4.867,19.931-10.114A31.413,31.413,0,0,0,261,413.235c.086-.891.221-1.773.27-2.662l.027-2.669a44.59,44.59,0,0,0-.226-5.287c-.381-3.509-.862-6.978-1.422-10.392-2.234-13.665-4.916-26.571-7.408-38.644-2.564-12.056-4.953-23.29-7.136-33.552q-1.657-7.683-3.15-14.62c-1.048-4.6-2.175-8.9-3.29-12.909-1.139-3.993-2.215-7.742-3.369-11.077a32.97,32.97,0,0,0-4.646-8.457,36.982,36.982,0,0,0-9.8-9.071c-1.3-.825-2.33-1.385-3.035-1.741s-1.076-.521-1.066-.545a7.588,7.588,0,0,1,1.12.427,27.644,27.644,0,0,1,3.116,1.64,36.112,36.112,0,0,1,10.068,8.99,33.212,33.212,0,0,1,4.815,8.535c1.211,3.388,2.308,7.1,3.489,11.1,1.152,4.007,2.313,8.314,3.4,12.921q1.536,6.924,3.239,14.613c2.232,10.254,4.673,21.478,7.293,33.525,2.539,12.071,5.26,24.972,7.533,38.674q.854,5.138,1.454,10.463a45.492,45.492,0,0,1,.241,5.407l-.022,2.73c-.049.913-.184,1.824-.273,2.738a32.63,32.63,0,0,1-9.279,20.135c-5.473,5.471-12.884,8.776-20.545,10.468-7.72,1.483-15.541,2.485-23.474,3.609-19.595,2.677-38.637,5.08-56.5,7.3l-.494.061-.167-.469c-4.14-11.73-8.145-23.079-11.98-33.947l-.182-.516.5-.219c26.77-11.59,50.647-21.925,70.121-30.357l-.246.521c-5.351-18.664-9.49-33.711-12.2-44.118-1.351-5.205-2.357-9.245-2.976-11.995-.327-1.372-.528-2.428-.675-3.135S193.924,329.634,193.924,329.634Z" transform="translate(-139.584 -261.612)" fill="#263238"/></g><g transform="translate(106.683 3.097)"><path d="M160.92,314.845a7.647,7.647,0,0,1-.39-2.2,45.491,45.491,0,0,1-.27-6.085,64.632,64.632,0,0,1,12.81-37.532A45.929,45.929,0,0,1,177,264.38c1.007-1.026,1.591-1.562,1.657-1.5.164.152-1.972,2.495-4.857,6.679a72.183,72.183,0,0,0-12.641,37.036C160.885,311.668,161.146,314.828,160.92,314.845Z" transform="translate(-160.256 -262.873)" fill="#263238"/></g></g></g></g><g transform="translate(-308.082 -368.607)"><g transform="translate(1241.075 6888.506)"><path d="M695.858,328.353a2.155,2.155,0,0,1-.021-.328c-.005-.242-.013-.546-.023-.924q-.017-1.273-.051-3.55c-.027-3.112-.068-7.587-.117-13.229l.212.21-68.154.136c.153-.154-.35.346.342-.346v4.611q0,2.293,0,4.55,0,4.515-.006,8.87l-.339-.34,48.571.155,14.336.1,3.877.045,1.014.021a2.46,2.46,0,0,1,.359.022,1.507,1.507,0,0,1-.315.022l-.973.021-3.8.045-14.259.1-48.807.155h-.34v-.341q0-4.349-.006-8.87,0-2.257,0-4.55v-4.611c.694-.7.194-.193.351-.348l68.154.136h.213v.212c-.05,5.7-.09,10.213-.117,13.355q-.034,2.246-.051,3.5c-.01.365-.016.657-.022.888a1.31,1.31,0,0,1-.021.287" transform="translate(-627.353 -291.869)" fill="#e0e0e0"/><path d="M697.908,313.889a2.012,2.012,0,0,1-.026-.343c-.007-.259-.016-.573-.027-.956q-.023-1.332-.061-3.616c-.032-3.161-.078-7.626-.136-13.117l.25.249-40.948.1c-.313.31.418-.422.344-.344v2.357q0,1.175,0,2.339,0,2.325,0,4.59c0,3.015-.009,5.94-.012,8.742l-.331-.33,29.294.157,8.534.091,2.3.041a6.906,6.906,0,0,1,.822.041,4.731,4.731,0,0,1-.744.041l-2.233.041-8.457.091-29.519.157-.33,0v-.333c0-2.8-.009-5.727-.013-8.742q0-2.261,0-4.59v-4.7c-.077.072.658-.661.35-.35,15.906.039,30.34.073,40.948.1l.252,0,0,.248c-.056,5.554-.1,10.071-.133,13.269q-.041,2.246-.064,3.559a9.916,9.916,0,0,1-.052,1.2" transform="translate(-620.161 -295.434)" fill="#e0e0e0"/></g></g><g transform="translate(-303.322 -134.607)"><g transform="translate(1241.075 6888.506)"><path d="M695.858,328.353a2.155,2.155,0,0,1-.021-.328c-.005-.242-.013-.546-.023-.924q-.017-1.273-.051-3.55c-.027-3.112-.068-7.587-.117-13.229l.212.21-68.154.136c.153-.154-.35.346.342-.346v4.611q0,2.293,0,4.55,0,4.515-.006,8.87l-.339-.34,48.571.155,14.336.1,3.877.045,1.014.021a2.46,2.46,0,0,1,.359.022,1.507,1.507,0,0,1-.315.022l-.973.021-3.8.045-14.259.1-48.807.155h-.34v-.341q0-4.349-.006-8.87,0-2.257,0-4.55v-4.611c.694-.7.194-.193.351-.348l68.154.136h.213v.212c-.05,5.7-.09,10.213-.117,13.355q-.034,2.246-.051,3.5c-.01.365-.016.657-.022.888a1.31,1.31,0,0,1-.021.287" transform="translate(-627.353 -291.869)" fill="#e0e0e0"/><path d="M697.908,313.889a2.012,2.012,0,0,1-.026-.343c-.007-.259-.016-.573-.027-.956q-.023-1.332-.061-3.616c-.032-3.161-.078-7.626-.136-13.117l.25.249-40.948.1c-.313.31.418-.422.344-.344v2.357q0,1.175,0,2.339,0,2.325,0,4.59c0,3.015-.009,5.94-.012,8.742l-.331-.33,29.294.157,8.534.091,2.3.041a6.906,6.906,0,0,1,.822.041,4.731,4.731,0,0,1-.744.041l-2.233.041-8.457.091-29.519.157-.33,0v-.333c0-2.8-.009-5.727-.013-8.742q0-2.261,0-4.59v-4.7c-.077.072.658-.661.35-.35,15.906.039,30.34.073,40.948.1l.252,0,0,.248c-.056,5.554-.1,10.071-.133,13.269q-.041,2.246-.064,3.559a9.916,9.916,0,0,1-.052,1.2" transform="translate(-620.161 -295.434)" fill="#e0e0e0"/></g></g><g transform="translate(1015.551 6342.919)"><g transform="translate(0.561 0.576)"><path d="M175.11,276.429l-18-.194a57.877,57.877,0,1,1,11.668-17.144l.02-.025Z" transform="translate(-58.171 -177.854)" fill="#fff"/></g><path d="M175.443,276.77s-.177-.408-.469-1.161c-.309-.808-.734-1.913-1.279-3.335-1.117-2.959-2.73-7.236-4.823-12.773l.467.081-.022.025a.272.272,0,0,1-.383.039.281.281,0,0,1-.076-.324,57.916,57.916,0,0,0,4.638-27.764,58.156,58.156,0,0,0-15.826-35.076,57.135,57.135,0,0,0-88.392,7.153c-.651.982-1.328,1.94-1.95,2.932l-1.67,3.079-.832,1.535-.685,1.6-1.355,3.195a58.04,58.04,0,0,0-.3,39.315,57.48,57.48,0,0,0,94.764,21.1.279.279,0,0,1,.194-.079l13.3.307,3.479.1c.791.025,1.223.056,1.223.056.02.012-.354.022-1.11.032l-3.406.022-13.49.022.194-.081a57.53,57.53,0,0,1-24.258,14.866A58.422,58.422,0,0,1,61.329,255.7a59.143,59.143,0,0,1,.263-40.174l1.382-3.268.7-1.638.85-1.569,1.709-3.15c.636-1.012,1.326-1.994,1.991-3a58.306,58.306,0,0,1,90.222-7.172,57.74,57.74,0,0,1,11.494,17.657,57.073,57.073,0,0,1,4.4,18.1,57.858,57.858,0,0,1-4.98,28.051l-.459-.282.02-.024a.27.27,0,0,1,.381-.042.274.274,0,0,1,.086.12c1.984,5.665,3.516,10.038,4.575,13.068.486,1.407.862,2.5,1.137,3.3A10.948,10.948,0,0,1,175.443,276.77Z" transform="translate(-57.943 -177.62)" fill="#263238"/><g transform="translate(36.583 33.462)"><path d="M91.65,228.808a18.779,18.779,0,1,1,10.563-3.266A18.775,18.775,0,0,1,91.65,228.808ZM91.6,196.157a13.872,13.872,0,1,0,11.479,6.048A13.8,13.8,0,0,0,91.6,196.157Z" transform="translate(-72.841 -191.247)" fill="#263238"/><g transform="translate(25.531 29.811)"><path d="M96.489,224.112a2.453,2.453,0,0,1-2.031-1.071L83.666,207.231a2.456,2.456,0,1,1,4.056-2.77l10.794,15.813a2.454,2.454,0,0,1-2.028,3.838Z" transform="translate(-83.239 -203.388)" fill="#263238"/></g></g></g></g></g></svg>