<svg xmlns="http://www.w3.org/2000/svg" width="205.418" height="154.082" viewBox="0 0 205.418 154.082"><g transform="translate(-711.768 -5793.918)"><g transform="translate(296.537 5284.201)"><g transform="translate(408.463 495.681)"><g transform="translate(0 0)"><ellipse cx="84.667" cy="6.573" rx="84.667" ry="6.573" transform="translate(34.853 154.972)" fill="#6ba74d"/><line y2="13.15" transform="translate(73.487 96.924)" fill="#003889"/><circle cx="6.337" cy="6.337" r="6.337" transform="translate(184.493 57.474) rotate(-45)" fill="#fcd03e"/></g></g><g transform="translate(318.442 450.046)"><g transform="translate(126.047 70.672)"><g transform="translate(163.22 61.979)" style="isolation:isolate"><path d="M598.161,257.38l2.173,3.781,2.173,3.781,2.189-3.772,2.188-3.772-3.014-.006.029-14.577-2.693-.005-.029,14.577Z" transform="translate(-598.161 -242.809)" fill="#529d2e"/></g><g transform="translate(170.959 57.853)" style="isolation:isolate"><path d="M619.656,240.039l1.3,2.255,1.3,2.255,1.305-2.25,1.3-2.249-1.8,0,.017-8.693-1.606,0-.017,8.693Z" transform="translate(-619.656 -231.35)" fill="#529d2e"/></g><g transform="translate(5.137 -11)" style="isolation:isolate"><path d="M190.052,78.233l-2.173-3.781-2.173-3.781-2.189,3.772-2.188,3.772,3.014.006L184.315,92.8l2.693.005.029-14.577Z" transform="translate(-181.33 -70.672)" fill="#529d2e"/></g><g transform="translate(0 1.577)" style="isolation:isolate"><path d="M172.336,110.175l-1.314-2.286-1.314-2.286-1.323,2.28-1.323,2.28,1.822,0-.018,8.812,1.628,0,.018-8.812Z" transform="translate(-167.063 -105.604)" fill="#529d2e"/></g></g><g transform="translate(102.97 76.625)"><g transform="translate(-4.18 22.7)"><rect width="45.443" height="12.741" rx="3.23" fill="#e6e6e6"/><g transform="translate(4.649 3.994)"><path d="M120.812,263.052a2.769,2.769,0,1,1-.428-3.892A2.769,2.769,0,0,1,120.812,263.052Z" transform="translate(-115.883 -258.551)" fill="#fff"/></g><g transform="translate(5.861 5.822)"><path d="M122.361,263.628a12.794,12.794,0,0,1-1.5,1.592l-.366.353-.066.063-.063-.064a8.874,8.874,0,0,1-1.12-1.249,8.868,8.868,0,0,1,1.249,1.12h-.128l.362-.357A12.824,12.824,0,0,1,122.361,263.628Z" transform="translate(-119.247 -263.627)" fill="#263238"/></g><g transform="translate(15.205 5.343)"><path d="M171,262.392c0,.052-5.777.094-12.9.094s-12.9-.042-12.9-.094,5.775-.094,12.9-.094S171,262.34,171,262.392Z" transform="translate(-145.199 -262.298)" fill="#263238"/></g><g transform="translate(15.507 7.863)"><path d="M160.956,269.39c0,.052-3.34.094-7.458.094s-7.459-.042-7.459-.094,3.339-.094,7.459-.094S160.956,269.338,160.956,269.39Z" transform="translate(-146.039 -269.296)" fill="#263238"/></g></g><g transform="translate(110.414 1.001)"><rect width="44.801" height="18.605" rx="2.616" fill="#e0e0e0"/><g transform="translate(5.131 3.792)"><path d="M158.651,174.817a2.089,2.089,0,1,1-2.089-2.088A2.089,2.089,0,0,1,158.651,174.817Z" transform="translate(-154.474 -172.729)" fill="#529d2e"/><g transform="translate(6.265 0.646)"><rect width="14.552" height="0.808" fill="#529d2e"/></g><g transform="translate(6.265 2.482)"><rect width="28.309" height="0.808" fill="#fff"/></g></g><g transform="translate(5.131 10.213)"><path d="M158.651,192.65a2.089,2.089,0,1,1-2.089-2.088A2.089,2.089,0,0,1,158.651,192.65Z" transform="translate(-154.474 -190.562)" fill="#529d2e"/><g transform="translate(6.265 0.646)"><rect width="7.431" height="0.808" fill="#529d2e"/></g><g transform="translate(6.265 2.482)"><rect width="28.309" height="0.808" fill="#fff"/></g></g></g><g transform="translate(-6.18 79.93)"><rect width="57.802" height="24.569" rx="3.958" fill="#e0e0e0"/><g transform="translate(4.411 6.89)"><path d="M180.566,322.208l-.032-4.984a6.358,6.358,0,0,0-4.111,1.6,5.893,5.893,0,0,0-1.981,5.161,6.986,6.986,0,0,0,.116.724c0,.006,0,.012,0,.018h0l6-1.351Z" transform="translate(-174.402 -317.224)" fill="#fdab64"/><g transform="translate(6.801 0.019)"><path d="M198.842,320.707A5.913,5.913,0,0,0,194,317.314l-.19-.017-.121-.009c-.119-.007-.239-.01-.362-.01h-.032l.032,4.984.008,1.171,6.007,1.31.007,0h0a5.911,5.911,0,0,0,.133-1.292A6.462,6.462,0,0,0,198.842,320.707Z" transform="translate(-193.29 -317.277)" fill="#3a8416"/></g><g transform="translate(0.481 6.777)"><path d="M181.742,336.045l-6.005,1.351a6.155,6.155,0,0,0,12.019-.04l-6.006-1.311" transform="translate(-175.737 -336.045)" fill="#fd963d"/></g></g><g transform="translate(21.422 8.38)"><rect width="30.509" height="1.382" fill="#fff"/></g><g transform="translate(21.422 12.024)"><rect width="30.509" height="1.382" fill="#fff"/></g><g transform="translate(21.422 16.053)"><rect width="16.489" height="1.382" fill="#fff"/></g></g></g><g transform="translate(274.494 94.964)"><path d="M595.3,152.433s-.048.061-.149.172-.25.281-.459.486a8.751,8.751,0,0,1-2.088,1.456,7.147,7.147,0,0,1-.8.345l-.443.159-.475.125a9.2,9.2,0,0,1-1.026.2c-.18.02-.364.029-.552.044a3.978,3.978,0,0,1-.572.014,8.649,8.649,0,0,1-4.922-1.582l.059.013-4.28.827-.241.047.161-.186,2.356-2.714,0,.112a8.688,8.688,0,0,1-1.625-4.035,8.646,8.646,0,0,1,10.156-9.623,8.582,8.582,0,0,1,4.437,2.291,8.551,8.551,0,0,1,1.767,9.929l-.242.473c-.081.145-.172.272-.249.395a4.679,4.679,0,0,1-.421.6l-.284.347a.981.981,0,0,1-.1.114,1,1,0,0,1,.087-.126l.269-.358a4.984,4.984,0,0,0,.4-.6c.073-.123.162-.251.239-.4l.232-.473a8.473,8.473,0,0,0,.439-6.135,8.366,8.366,0,0,0-2.247-3.651,8.214,8.214,0,0,0-1.95-1.406,8.127,8.127,0,0,0-2.409-.826,8.486,8.486,0,0,0-9.942,9.43,8.519,8.519,0,0,0,1.585,3.952l.042.059-.046.053-2.363,2.708-.08-.139,4.282-.811.032-.006.027.019a8.552,8.552,0,0,0,4.835,1.582,3.978,3.978,0,0,0,.565-.01c.185-.014.367-.021.544-.039a9.179,9.179,0,0,0,1.015-.186l.471-.119.439-.153a7.1,7.1,0,0,0,.8-.332,9.044,9.044,0,0,0,2.1-1.41c.214-.2.364-.364.473-.468S595.3,152.433,595.3,152.433Z" transform="translate(-579.35 -138.139)" fill="#529d2e"/><g transform="translate(6.698 5.912)"><path d="M600.844,155.517l-1.446-.479-1.446-.479.308,1.492.308,1.492.786-.7,3.385,3.8.7-.625-3.385-3.8Z" transform="translate(-597.952 -154.559)" fill="#529d2e"/></g></g></g></g><g transform="translate(674.127 5749.907)"><g transform="translate(78.181 65.933)"><g transform="translate(0 0)"><path d="M98.329,226.262l1.131,127.5H48.954V228Z" transform="translate(-48.954 -226.262)" fill="#f5f5f5"/><g transform="translate(0 0.958)"><path d="M71.12,228.02l.447,126.543H48.954V228.8Z" transform="translate(-48.954 -228.02)" fill="#d3d3d3"/></g><g transform="translate(23.864 1.573)"><path d="M116.669,229.148V247.02H92.746V229.993Z" transform="translate(-92.746 -229.148)" fill="#e0e0e0"/><g transform="translate(8.117 4.676)"><g transform="translate(0.24)"><path d="M115.4,237.97v2.64h-7.319v-2.88Z" transform="translate(-108.081 -237.73)" fill="#f5f5f5"/></g><g transform="translate(0 5.099)"><rect width="7.559" height="1.08" fill="#f5f5f5"/></g></g></g><g transform="translate(23.864 64.2)"><path d="M116.669,344.074v17.872H92.746V344.919Z" transform="translate(-92.746 -344.074)" fill="#e0e0e0"/><g transform="translate(8.117 4.677)"><g transform="translate(0.24)"><path d="M115.4,352.9v2.64h-7.319v-2.88Z" transform="translate(-108.081 -352.656)" fill="#f5f5f5"/></g><g transform="translate(0 5.099)"><rect width="7.559" height="1.08" fill="#f5f5f5"/></g></g></g><g transform="translate(23.864 21.72)"><path d="M116.669,266.119v17.872H92.746V266.964Z" transform="translate(-92.746 -266.119)" fill="#e0e0e0"/><g transform="translate(8.117 4.677)"><g transform="translate(0.24)"><path d="M115.4,274.941v2.64h-7.319V274.7Z" transform="translate(-108.081 -274.702)" fill="#f5f5f5"/></g><g transform="translate(0 5.099)"><rect width="7.559" height="1.08" fill="#f5f5f5"/></g></g></g><g transform="translate(23.864 84.344)"><path d="M116.669,381.038V398.91H92.746V381.883Z" transform="translate(-92.746 -381.038)" fill="#e0e0e0"/><g transform="translate(8.357 4.676)"><path d="M115.4,389.86v2.64h-7.319v-2.88Z" transform="translate(-108.081 -389.62)" fill="#f5f5f5"/></g><g transform="translate(8.117 9.776)"><rect width="7.559" height="1.08" fill="#f5f5f5"/></g></g><g transform="translate(24.122 104.486)"><path d="M117.142,418v17.872H93.219V418.846Z" transform="translate(-93.219 -418.002)" fill="#e0e0e0"/><g transform="translate(8.357 4.676)"><path d="M115.873,426.824v2.639h-7.319v-2.88Z" transform="translate(-108.554 -426.584)" fill="#f5f5f5"/></g><g transform="translate(8.117 9.776)"><rect width="7.559" height="1.08" fill="#f5f5f5"/></g></g><g transform="translate(24.176 43.119)"><rect width="23.923" height="17.872" fill="#e0e0e0"/><g transform="translate(8.634 7.83)"><path d="M116.043,319.981v2.482h-6.88v-2.707Z" transform="translate(-109.163 -319.755)" fill="#f5f5f5"/></g><g transform="translate(8.409 12.622)"><rect width="7.106" height="1.015" fill="#f5f5f5"/></g></g></g><g transform="translate(90.873 114.69)"><g transform="translate(1.293 2.802)"><path d="M410.14,431.69v10.024h30.826V431.69Z" transform="translate(-410.14 -431.69)" fill="#f5f5f5"/></g><path d="M406.451,423.7v2.8h33.2v-2.8h-33.2Z" transform="translate(-406.451 -423.697)" fill="#e0e0e0"/><g transform="translate(15.952)"><path d="M452.593,436.523h15.521V426.5h1.078v-2.8H451.946v2.543Z" transform="translate(-451.946 -423.697)" fill="#e0e0e0"/></g><g transform="translate(5.605 4.419)"><rect width="6.251" height="1.509" fill="#e0e0e0"/></g><g transform="translate(4.8 7.814)"><rect width="8.027" height="3.186" fill="#fff"/></g></g><g transform="translate(117.338 101.864)"><g transform="translate(1.293 2.802)"><path d="M523.725,395.11v10.024h30.826V395.11Z" transform="translate(-523.725 -395.11)" fill="#f5f5f5"/></g><path d="M520.036,387.117v2.8h33.2v-2.8h-33.2Z" transform="translate(-520.036 -387.117)" fill="#e0e0e0"/><g transform="translate(15.952)"><path d="M566.177,399.943H581.7V389.919h1.078v-2.8H565.531v2.543Z" transform="translate(-565.531 -387.117)" fill="#e0e0e0"/></g><g transform="translate(5.605 4.419)"><rect width="6.251" height="1.509" fill="#e0e0e0"/></g><g transform="translate(4.8 7.814)"><rect width="8.027" height="3.186" fill="#fff"/></g></g><g transform="translate(115.862 114.69)"><g transform="translate(1.293 2.802)"><path d="M519.516,431.69v10.024h30.826V431.69Z" transform="translate(-519.516 -431.69)" fill="#f5f5f5"/></g><path d="M515.827,423.7v2.8h33.2v-2.8h-33.2Z" transform="translate(-515.827 -423.697)" fill="#e0e0e0"/><g transform="translate(15.952)"><path d="M561.968,436.523h15.521V426.5h1.078v-2.8H561.321v2.543Z" transform="translate(-561.321 -423.697)" fill="#e0e0e0"/></g><g transform="translate(5.605 4.419)"><rect width="6.251" height="1.509" fill="#e0e0e0"/></g><g transform="translate(4.8 7.814)"><rect width="8.027" height="3.186" fill="#fff"/></g></g></g><g transform="translate(109.89 84.55)"><g transform="translate(1.408 14.716)"><path d="M232.271,185.513l2.233,38.071a2.571,2.571,0,0,0,2.559,2.42l68.526.209a2.571,2.571,0,0,0,2.579-2.563l.09-29.642a2.571,2.571,0,0,0-2.58-2.579l-42.143.143a2.57,2.57,0,0,1-1.818-.745l-7.3-7.237a2.572,2.572,0,0,0-1.8-.745l-17.766-.054A2.571,2.571,0,0,0,232.271,185.513Z" transform="translate(-232.267 -182.792)" fill="#fc8116"/></g><g transform="translate(2.088 0.402)"><rect width="37.187" height="29.73" transform="matrix(0.606, -0.795, 0.795, 0.606, 0.103, 29.582)" fill="#fff"/><path d="M257.053,137.527s-.035.051-.105.145l-.312.416L255.42,139.7l-4.6,6.066-16.246,21.388-.014-.1,23.653,18.007,0,0-.115.016L280.648,155.5l.013.1-17.136-13.1-4.781-3.664-1.258-.968c-.285-.22-.432-.339-.432-.339s.145.1.43.318l1.257.948,4.791,3.627,17.213,13.068.055.041-.042.055-22.523,29.59-.05.065-.065-.05,0,0-23.642-18.02-.059-.045.045-.059,16.334-21.381,4.617-6.029,1.221-1.588.314-.405C257.016,137.57,257.053,137.527,257.053,137.527Z" transform="translate(-234.415 -137.527)" fill="#263238"/><rect width="34.575" height="25.987" transform="matrix(0.606, -0.795, 0.795, 0.606, 2.369, 29.696)" fill="#263238"/><path d="M295.316,222.789l-5.532-19.395,12.572.173-1.223-7.31,15.134-.973Z" transform="translate(-272.275 -177.021)" fill="#455a64"/><g transform="translate(17.678 15.473)"><g transform="translate(0 0)"><circle cx="2.722" cy="2.722" r="2.722" transform="translate(0 0.736) rotate(-7.768)" fill="#455a64"/></g></g></g><g transform="translate(27.935)"><rect width="41.38" height="51.759" transform="matrix(0.041, -0.999, 0.999, 0.041, 0.086, 41.421)" fill="#fff"/><path d="M369.651,138.461s-.085,0-.248-.006l-.722-.026-2.8-.107-10.581-.416-37.363-1.5.077-.071c-.5,12.3-1.081,26.413-1.692,41.341v0l-.079-.086,51.714,2.142-.071.065c.527-12.46.965-22.787,1.27-30,.156-3.61.279-6.442.362-8.374.043-.965.076-1.7.1-2.205s.039-.761.039-.761-.005.251-.023.746-.046,1.234-.083,2.193c-.075,1.929-.186,4.755-.326,8.36-.289,7.227-.7,17.57-1.2,30.048l0,.068-.068,0-51.716-2.113-.083,0,0-.082v0c.617-14.928,1.2-29.035,1.709-41.34l0-.074.074,0,37.407,1.575,10.563.454,2.789.124.714.034C369.572,138.455,369.651,138.461,369.651,138.461Z" transform="translate(-316.149 -136.257)" fill="#263238"/><rect width="36.17" height="48.123" transform="translate(1.976 38.892) rotate(-87.644)" fill="#455a64"/><path d="M322.4,212.165l17.718-21.773,9.825,14.482,7.365-7.223,13.174,16.492Z" transform="translate(-320.421 -173.272)" fill="#263238"/><g transform="translate(26.313 10.295)"><g transform="translate(0 0)"><circle cx="3.789" cy="3.789" r="3.789" transform="matrix(0.219, -0.976, 0.976, 0.219, 0, 7.394)" fill="#263238"/></g></g></g><g transform="translate(11.294 7.889)"><path d="M341.781,199.428l-70.052,9.645,7.418,51.307,69.479-9.787Z" transform="translate(-269.136 -187.34)" fill="#ebebeb"/><path d="M344.382,179.188l-69.241,14.352,10.864,50.689,68.659-14.455Z" transform="translate(-271.468 -173.501)" fill="#e0e0e0"/><path d="M330.534,161.2l-66.7,23.469,17.535,48.784,66.114-23.494Z" transform="translate(-263.734 -161.203)" fill="#fff"/><g transform="translate(0 0)"><path d="M330.327,161.2l17.009,48.737.022.063-.063.022-66.109,23.508-.077.028-.028-.077-.128-.356-17.4-48.431-.025-.071.071-.025,66.729-23.4-66.679,23.539.046-.1,17.415,48.426.128.356-.105-.05L347.25,209.9l-.041.085Z" transform="translate(-263.527 -161.203)" fill="#263238"/></g><g transform="translate(54.824 9.457)"><path d="M450.749,228.442c-.128.047-3.332-8.272-7.157-18.58s-6.822-18.706-6.694-18.754,3.332,8.27,7.157,18.582S450.877,228.394,450.749,228.442Z" transform="translate(-436.895 -191.107)" fill="#263238"/></g><g transform="translate(49.127 12.061)"><path d="M432.734,236.676c-.128.047-3.333-8.272-7.157-18.58s-6.822-18.706-6.694-18.754,3.332,8.27,7.157,18.582S432.862,236.628,432.734,236.676Z" transform="translate(-418.88 -199.341)" fill="#263238"/></g><g transform="translate(31.44 19.469)"><path d="M376.8,260.1c-.128.047-3.333-8.272-7.157-18.58s-6.822-18.706-6.694-18.754,3.332,8.27,7.157,18.582S376.931,260.055,376.8,260.1Z" transform="translate(-362.949 -222.768)" fill="#263238"/></g><g transform="translate(37.077 17.199)"><path d="M394.629,252.925c-.128.047-3.332-8.272-7.157-18.58s-6.822-18.706-6.694-18.754,3.332,8.27,7.157,18.582S394.757,252.877,394.629,252.925Z" transform="translate(-380.775 -215.59)" fill="#263238"/></g><g transform="translate(42.715 14.929)"><path d="M412.456,245.746c-.128.047-3.332-8.272-7.157-18.58s-6.822-18.707-6.694-18.754,3.332,8.271,7.157,18.582S412.584,245.7,412.456,245.746Z" transform="translate(-398.602 -208.411)" fill="#263238"/></g><g transform="translate(24.91 21.348)"><path d="M356.155,266.044c-.128.047-3.332-8.272-7.157-18.58s-6.822-18.706-6.694-18.754,3.332,8.271,7.157,18.582S356.282,266,356.155,266.044Z" transform="translate(-342.3 -228.709)" fill="#263238"/></g><g transform="translate(18.665 23.638)"><path d="M336.406,273.286c-.128.047-3.332-8.272-7.157-18.58s-6.822-18.706-6.694-18.754,3.332,8.27,7.157,18.582S336.534,273.239,336.406,273.286Z" transform="translate(-322.552 -235.951)" fill="#263238"/></g><g transform="translate(12.421 25.928)"><path d="M316.659,280.528c-.128.048-3.332-8.272-7.157-18.58s-6.822-18.706-6.694-18.754,3.332,8.27,7.157,18.582S316.786,280.48,316.659,280.528Z" transform="translate(-302.804 -243.193)" fill="#263238"/></g></g><path d="M227.825,253.3l5.574,46.673a1.654,1.654,0,0,0,1.637,1.457L308,301.65a1.653,1.653,0,0,0,1.653-1.518l3.816-46.645a1.653,1.653,0,0,0-1.643-1.788l-82.358-.251A1.653,1.653,0,0,0,227.825,253.3Z" transform="translate(-227.813 -215.021)" fill="#fdab64"/></g><g transform="translate(186.248 84.005)"><path d="M505.11,216.138l-2.727,1.953,1.589,7.819,3.585-3.2Z" transform="translate(-491.435 -192.296)" fill="#bf7a62"/><g transform="translate(12.195)"><path d="M511.928,373.652l11.344-5.512,14.551,1.746a4.741,4.741,0,0,1,1.827,3.019,1.546,1.546,0,0,1-.166,1.146,1.452,1.452,0,0,1-1.538.378,13.518,13.518,0,0,0-1.61-.481,3.929,3.929,0,0,0-2.9,1.29,6.548,6.548,0,0,1-2.687,1.8,4.119,4.119,0,0,1-2.769-.516c-.85-.445-1.608-1.044-2.437-1.526a8.219,8.219,0,0,0-5.123-1.138c-1.412.184-2.737.8-4.143,1.026s-3.59-.026-4.353-1.228" transform="translate(-509.829 -291.002)" fill="#455a64"/><g transform="translate(3.795 43.597)"><g transform="translate(2.715)"><path d="M547.141,334.038s-9.292-31.68-9.468-32.692c-.159-.915,1.29-23.109,1.937-28.868l-10.234.086,0,.1-4.864.12,2.18,63.008,6.292.485-.042-20.788c3.969,10.024,8.569,21.2,8.569,21.2Z" transform="translate(-524.507 -272.478)" fill="#d89377"/><g transform="translate(4.102 27.416)"><path d="M536.385,350.669c.02,0-.019.247-.042.69a13.579,13.579,0,0,0,.028,1.877,17.216,17.216,0,0,0,.459,2.744,27.3,27.3,0,0,0,1.11,3.228c.863,2.275,1.633,4.338,2.181,5.835l.639,1.776a4.51,4.51,0,0,1,.209.661,4.542,4.542,0,0,1-.282-.633l-.7-1.753c-.582-1.484-1.374-3.539-2.236-5.813l-.625-1.662a15.347,15.347,0,0,1-.476-1.593,16.1,16.1,0,0,1-.42-2.778,11.358,11.358,0,0,1,.036-1.894,5.1,5.1,0,0,1,.076-.509A.62.62,0,0,1,536.385,350.669Z" transform="translate(-536.206 -350.669)" fill="#bf7a62"/></g><g transform="translate(6.248 37.329)"><path d="M544.525,392.165c.011-.192.144-7.049.144-7.049s-2.281-6.365-2.34-6.171S544.525,392.165,544.525,392.165Z" transform="translate(-542.327 -378.941)" fill="#bf7a62"/></g></g><g transform="translate(0 62.565)"><g transform="translate(0.02)"><path d="M521.339,451.624l.017-.709,6.672.134L528,453.386l-.412.019c-1.835.069-9.334.222-10.553-.172C515.673,452.794,521.339,451.624,521.339,451.624Z" transform="translate(-516.821 -450.915)" fill="#e8505b"/><g transform="translate(8.768 0.509)" opacity="0.3"><path d="M541.829,454.233a2.3,2.3,0,0,1,.873-1.4,2.239,2.239,0,0,1,1.561-.455l-.032,1.857Z" transform="translate(-541.829 -452.366)" fill="#fff"/></g></g><g transform="translate(0 1.379)"><path d="M518.531,454.847s-1.988.535-1.748.865,7.825.461,11.176.227l-.008-.149-8.848-.077S518.917,454.87,518.531,454.847Z" transform="translate(-516.763 -454.847)" fill="#fff" opacity="0.3"/></g><g transform="translate(0.02 2.13)"><path d="M528.093,457.18a.62.62,0,0,1-.114.011l-.329.014-1.208.031c-1.02.019-2.43.027-3.987,0s-2.967-.08-3.986-.133l-1.206-.071-.328-.025a.6.6,0,0,1-.114-.014.59.59,0,0,1,.115,0l.328.01,1.207.045c1.02.038,2.428.083,3.985.109s2.965.027,3.985.022l1.208-.006h.328A.623.623,0,0,1,528.093,457.18Z" transform="translate(-516.821 -456.991)" fill="#263238"/></g><g transform="translate(1.721 1.296)"><path d="M522.29,455.663a1.757,1.757,0,0,0-.619-1.049,1.073,1.073,0,0,1,.619,1.049Z" transform="translate(-521.67 -454.611)" fill="#263238"/></g><g transform="translate(3.973 0.827)"><path d="M528.438,453.834c-.019.012-.111-.1-.205-.258s-.155-.289-.136-.3.111.1.205.258S528.457,453.823,528.438,453.834Z" transform="translate(-528.093 -453.275)" fill="#263238"/></g><g transform="translate(4.45 0.73)"><path d="M529.866,453.379c-.015.016-.119-.055-.231-.16s-.192-.2-.177-.219.119.055.231.16S529.881,453.363,529.866,453.379Z" transform="translate(-529.456 -452.998)" fill="#263238"/></g><g transform="translate(4.517 0.448)"><path d="M530.339,452.236a1.515,1.515,0,1,1-.347-.042A.78.78,0,0,1,530.339,452.236Z" transform="translate(-529.645 -452.194)" fill="#263238"/></g><g transform="translate(4.548 0.044)"><path d="M530.522,451.047a.975.975,0,0,1-.787.046,2.16,2.16,0,0,1,.394-.02A2.116,2.116,0,0,1,530.522,451.047Z" transform="translate(-529.735 -451.039)" fill="#263238"/></g><g transform="translate(2.857 0.192)"><path d="M526.156,452.074a1.227,1.227,0,0,1-.427-.01,2.517,2.517,0,0,1-.453-.108,1.24,1.24,0,0,1-.258-.112.232.232,0,0,1-.1-.135.168.168,0,0,1,.068-.169.782.782,0,0,1,.964.246.761.761,0,0,1,.134.287.234.234,0,0,1,.009.115,1.209,1.209,0,0,0-.188-.367.77.77,0,0,0-.361-.243.662.662,0,0,0-.509.026c-.069.049-.044.129.031.176a1.31,1.31,0,0,0,.238.107,2.962,2.962,0,0,0,.438.122C525.994,452.057,526.157,452.061,526.156,452.074Z" transform="translate(-524.911 -451.462)" fill="#263238"/></g><g transform="translate(3.942 0.004)"><path d="M528.055,451.745a.422.422,0,0,1-.044-.3.7.7,0,0,1,.122-.31.428.428,0,0,1,.359-.211.17.17,0,0,1,.128.2.472.472,0,0,1-.076.19,1.3,1.3,0,0,1-.206.255.613.613,0,0,1-.247.169c-.007-.011.086-.075.206-.208a1.5,1.5,0,0,0,.183-.253c.06-.089.1-.251,0-.272s-.217.092-.284.176a.707.707,0,0,0-.126.276A1.574,1.574,0,0,0,528.055,451.745Z" transform="translate(-528.005 -450.926)" fill="#263238"/></g><g transform="translate(8.795 0.449)"><path d="M544.241,452.246c0,.015-.19-.021-.491.009a2.081,2.081,0,0,0-1.764,1.357c-.106.283-.119.474-.134.472a.388.388,0,0,1,0-.134,1.761,1.761,0,0,1,.079-.357,2.019,2.019,0,0,1,1.813-1.395,1.743,1.743,0,0,1,.365.016A.385.385,0,0,1,544.241,452.246Z" transform="translate(-541.848 -452.195)" fill="#263238"/></g><g transform="translate(6.022 1.69)"><path d="M535.88,455.758a5.452,5.452,0,0,1-1.941-.015c0-.023.436.011.971.014S535.878,455.734,535.88,455.758Z" transform="translate(-533.939 -455.735)" fill="#263238"/></g><g transform="translate(9.07 1.731)"><path d="M542.827,455.854c.016.017-.037.092-.083.19s-.072.187-.095.184-.033-.106.022-.219S542.813,455.838,542.827,455.854Z" transform="translate(-542.632 -455.851)" fill="#263238"/></g><g transform="translate(9.511 1.128)"><path d="M544.144,454.136c.016.016-.028.085-.1.153s-.139.111-.155.1.028-.084.1-.152S544.129,454.12,544.144,454.136Z" transform="translate(-543.888 -454.133)" fill="#263238"/></g><g transform="translate(10.093 0.825)"><path d="M545.929,453.307c0,.022-.093.02-.191.053s-.169.083-.187.068.04-.106.162-.145S545.936,453.287,545.929,453.307Z" transform="translate(-545.548 -453.267)" fill="#263238"/></g><g transform="translate(10.774 0.726)"><path d="M547.693,453c.008.021-.031.054-.087.075s-.107.02-.114,0,.031-.054.087-.075S547.685,452.98,547.693,453Z" transform="translate(-547.491 -452.985)" fill="#263238"/></g></g><g transform="translate(16.301 60.858)"><g transform="translate(0.005)"><path d="M566.677,449.546l-.3-.642,6.032-2.857,1.014,2.106-.361.2c-1.611.88-8.255,4.362-9.521,4.554C562.127,453.121,566.677,449.546,566.677,449.546Z" transform="translate(-563.268 -446.047)" fill="#e8505b"/><g transform="translate(7.872 0.347)" opacity="0.3"><path d="M585.8,449.784a2.3,2.3,0,0,1,.156-1.643,2.237,2.237,0,0,1,1.194-1.1l.8,1.676Z" transform="translate(-585.718 -447.037)" fill="#fff"/></g></g><g transform="translate(0 1.976)"><path d="M564.487,455.041s-1.541,1.366-1.178,1.554,7.209-3.078,10.1-4.783l-.074-.129-7.953,3.878S564.844,454.89,564.487,455.041Z" transform="translate(-563.254 -451.683)" fill="#fff" opacity="0.3"/></g><g transform="translate(0.006 1.927)"><path d="M573.442,451.544a.645.645,0,0,1-.1.06l-.287.159-1.068.567c-.9.472-2.163,1.108-3.568,1.78s-2.691,1.252-3.627,1.659l-1.112.475-.3.124a.655.655,0,0,1-.108.038.6.6,0,0,1,.1-.053l.3-.137,1.1-.5c.929-.421,2.21-1.009,3.615-1.68s2.666-1.3,3.577-1.758l1.079-.544.295-.146A.606.606,0,0,1,573.442,451.544Z" transform="translate(-563.27 -451.543)" fill="#263238"/></g><g transform="translate(1.155 5.273)"><path d="M567.571,461.759a2.743,2.743,0,0,0-.452-.423,2.7,2.7,0,0,0-.57-.24,1.073,1.073,0,0,1,1.022.663Z" transform="translate(-566.549 -461.086)" fill="#263238"/></g><g transform="translate(2.963 3.853)"><path d="M572.26,457.388c-.012.019-.146-.043-.3-.14s-.268-.189-.256-.208.146.044.3.14S572.272,457.369,572.26,457.388Z" transform="translate(-571.705 -457.036)" fill="#263238"/></g><g transform="translate(3.347 3.55)"><path d="M573.334,456.337c-.006.021-.131,0-.279-.04s-.262-.1-.256-.117.131,0,.279.04S573.341,456.316,573.334,456.337Z" transform="translate(-572.799 -456.17)" fill="#263238"/></g><g transform="translate(3.295 3)"><path d="M573.275,454.606c.01.02-.122.1-.294.189a.783.783,0,0,1-.329.117c-.01-.02.122-.1.294-.189A.782.782,0,0,1,573.275,454.606Z" transform="translate(-572.652 -454.602)" fill="#263238"/></g><g transform="translate(3.149 2.553)"><path d="M572.921,453.329c.015.015-.1.156-.3.268a.671.671,0,0,1-.383.124,2.14,2.14,0,0,1,.343-.194A2.118,2.118,0,0,1,572.921,453.329Z" transform="translate(-572.237 -453.327)" fill="#263238"/></g><g transform="translate(1.758 3.529)"><path d="M569.575,456.36a1.218,1.218,0,0,1-.386.182,2.5,2.5,0,0,1-.453.105,1.218,1.218,0,0,1-.281.015.23.23,0,0,1-.153-.074.168.168,0,0,1-.015-.182.783.783,0,0,1,.972-.21.764.764,0,0,1,.249.2c.047.059.064.1.06.1a1.208,1.208,0,0,0-.332-.245.765.765,0,0,0-.431-.057.663.663,0,0,0-.444.25c-.04.075.019.135.106.143a1.277,1.277,0,0,0,.261-.011,2.9,2.9,0,0,0,.446-.086C569.422,456.418,569.57,456.349,569.575,456.36Z" transform="translate(-568.267 -456.111)" fill="#263238"/></g><g transform="translate(2.766 2.911)"><path d="M571.352,455.283a.422.422,0,0,1-.172-.247.7.7,0,0,1-.029-.332.429.429,0,0,1,.227-.35.17.17,0,0,1,.2.121.468.468,0,0,1,.017.2,1.278,1.278,0,0,1-.071.32.614.614,0,0,1-.146.261c-.011-.006.044-.106.092-.278a1.5,1.5,0,0,0,.051-.308c.014-.107-.02-.27-.124-.242s-.154.18-.176.284a.7.7,0,0,0,.011.3A1.539,1.539,0,0,0,571.352,455.283Z" transform="translate(-571.142 -454.349)" fill="#263238"/></g><g transform="translate(7.785 0.344)"><path d="M586.944,447.029c.005.014-.18.066-.435.227a2.081,2.081,0,0,0-.973,2c.031.3.1.478.09.482a.378.378,0,0,1-.058-.121,1.74,1.74,0,0,1-.089-.354,2.019,2.019,0,0,1,1-2.057,1.758,1.758,0,0,1,.334-.149A.392.392,0,0,1,586.944,447.029Z" transform="translate(-585.457 -447.028)" fill="#263238"/></g><g transform="translate(5.183 2.868)"><path d="M579.781,454.229a5.464,5.464,0,0,1-1.744.853c-.008-.022.395-.185.875-.42S579.769,454.209,579.781,454.229Z" transform="translate(-578.037 -454.227)" fill="#263238"/></g><g transform="translate(8.032 2.307)"><path d="M586.231,452.626c.022.008.007.1.01.207s.019.2,0,.208-.076-.08-.078-.206S586.211,452.618,586.231,452.626Z" transform="translate(-586.161 -452.626)" fill="#263238"/></g><g transform="translate(8.155 1.544)"><path d="M586.638,450.451c.021.007.012.088-.02.181s-.075.161-.1.154-.012-.088.02-.181S586.617,450.444,586.638,450.451Z" transform="translate(-586.511 -450.451)" fill="#263238"/></g><g transform="translate(8.502 0.98)"><path d="M587.795,448.853c.006.022-.075.06-.148.133s-.115.15-.137.144-.012-.113.08-.2S587.792,448.832,587.795,448.853Z" transform="translate(-587.501 -448.843)" fill="#263238"/></g><g transform="translate(9.037 0.652)"><path d="M589.182,447.91c.016.015,0,.062-.044.106s-.087.066-.1.05,0-.063.044-.106S589.166,447.9,589.182,447.91Z" transform="translate(-589.029 -447.906)" fill="#263238"/></g></g></g><g transform="translate(0 18.01)"><path d="M527.279,223.305h0c-2.8-4.84-3.507-4.275-2.559-7.094l2.732-9.167-1.149-5.754a6.333,6.333,0,0,0-4.845-1.772l-5.709.393s-2.809-.616-6.947,3.4l-2.866,2.675,3.61,6.85.18,3.1,2.6,8.5-.694,3.746c-.3,2.852-4.136,35.545-3.616,36.062.543.54,8.534-3.461,10.47-1.826s5.832,2.636,8.03,1.933,5.494-5.079,8.82-2.129C535.343,262.226,534.255,233.221,527.279,223.305Z" transform="translate(-505.94 -199.504)" fill="#263238"/><path d="M548.666,200.666s5.946,1.583,5.068,5.83c-.432,2.088-3.282,6.444-3.282,6.444l-6.739-3.188Z" transform="translate(-530.469 -200.259)" fill="#263238"/><g transform="translate(4.591 25.16)"><path d="M520.513,272.78a5.54,5.54,0,0,1,1.006-.711,5.738,5.738,0,0,1,3.237-.8,4.657,4.657,0,0,1,2.229.663,4.3,4.3,0,0,1,1.74,2.016,3.308,3.308,0,0,1,.246,1.442,3.524,3.524,0,0,1-.44,1.459c-.481.921-1.238,1.687-1.738,2.627a5.239,5.239,0,0,0-.473,3.02,10.131,10.131,0,0,1-.007,2.95,4.05,4.05,0,0,1-.512,1.291,2.454,2.454,0,0,1-.945.914,2.023,2.023,0,0,1-1.212.206,2.826,2.826,0,0,1-1.057-.4,8.32,8.32,0,0,1-1.448-1.259,13.571,13.571,0,0,0-1.079-.949,6.809,6.809,0,0,0-.749-.512c-.179-.1-.28-.148-.276-.157a.278.278,0,0,1,.077.026,2.309,2.309,0,0,1,.217.1,5.683,5.683,0,0,1,.774.487,12.439,12.439,0,0,1,1.107.932,8.417,8.417,0,0,0,1.445,1.223,2.706,2.706,0,0,0,1.009.373,1.878,1.878,0,0,0,1.122-.2,2.3,2.3,0,0,0,.879-.865,3.9,3.9,0,0,0,.484-1.242,10.081,10.081,0,0,0-.007-2.9,8.565,8.565,0,0,1,.006-1.568,4.163,4.163,0,0,1,.484-1.55c.52-.971,1.276-1.734,1.742-2.625a3.36,3.36,0,0,0,.424-1.387,3.148,3.148,0,0,0-.228-1.368,4.161,4.161,0,0,0-1.664-1.95,4.553,4.553,0,0,0-2.157-.663,5.772,5.772,0,0,0-3.194.732,8.657,8.657,0,0,0-.775.474l-.2.134A.286.286,0,0,1,520.513,272.78Z" transform="translate(-519.034 -271.26)" fill="#fafafa"/></g><g transform="translate(15.126 32.564)"><path d="M562.657,313.681a.361.361,0,0,1-.092.022l-.273.047c-.24.039-.6.093-1.054.156a24.2,24.2,0,0,1-3.911.265,12.018,12.018,0,0,1-2.689-.364,8.93,8.93,0,0,1-2.846-1.266,6.228,6.228,0,0,1-2.228-2.61,5.541,5.541,0,0,1-.3-3.66,4.375,4.375,0,0,1,.909-1.661,10.832,10.832,0,0,1,1.366-1.214,7.763,7.763,0,0,0,1.258-1.183,3.537,3.537,0,0,0,.681-1.476,18.321,18.321,0,0,0,.168-3.078,5.226,5.226,0,0,1,2.171-4.287,5.156,5.156,0,0,1,1.5-.771,4.606,4.606,0,0,1,1.047-.212l.278-.01a.372.372,0,0,1,.094,0,6.088,6.088,0,0,0-1.4.286,5.217,5.217,0,0,0-1.466.786,5.14,5.14,0,0,0-2.08,4.211,18.129,18.129,0,0,1-.155,3.109,3.708,3.708,0,0,1-.708,1.548,7.886,7.886,0,0,1-1.284,1.215,10.819,10.819,0,0,0-1.341,1.195,4.2,4.2,0,0,0-.869,1.591,5.376,5.376,0,0,0,.288,3.538,6.076,6.076,0,0,0,2.16,2.544,8.839,8.839,0,0,0,2.789,1.257,12.023,12.023,0,0,0,2.655.381,26.147,26.147,0,0,0,3.9-.206l1.057-.122.276-.029A.369.369,0,0,1,562.657,313.681Z" transform="translate(-549.081 -292.378)" fill="#fafafa"/></g><g transform="translate(2.701 54.843)"><path d="M522.932,363.707s.037-.038.12-.09a1.646,1.646,0,0,0,.339-.236c.124-.124.072-.361-.005-.6a4.9,4.9,0,0,0-.384-.79c-.32-.576-.695-1.266-1.158-2a11.266,11.266,0,0,0-1.753-2.192,6.492,6.492,0,0,0-2.358-1.467,4.655,4.655,0,0,0-2.247-.211,3.253,3.253,0,0,0-1.4.6c-.291.22-.428.374-.441.361s.026-.045.091-.119a2.646,2.646,0,0,1,.307-.3,3.152,3.152,0,0,1,1.42-.67,4.671,4.671,0,0,1,2.323.179,6.508,6.508,0,0,1,2.431,1.493,10.977,10.977,0,0,1,1.77,2.236c.46.746.823,1.445,1.129,2.029a4.659,4.659,0,0,1,.367.82,1.593,1.593,0,0,1,.068.37.4.4,0,0,1-.108.31,1.353,1.353,0,0,1-.373.22A.531.531,0,0,1,522.932,363.707Z" transform="translate(-513.644 -355.917)" fill="#fafafa"/></g><g transform="translate(16.375 17.999)"><path d="M555.929,254.249c.007.006-.042.081-.169.181a1.491,1.491,0,0,1-.619.273,1.853,1.853,0,0,1-1-.084,2.143,2.143,0,0,1-.966-.765,3.135,3.135,0,0,1-.513-2.128,2.532,2.532,0,0,1,.2-.888c.03.006-.045.345-.068.9a3.231,3.231,0,0,0,.532,2.013,2.063,2.063,0,0,0,.879.715,1.819,1.819,0,0,0,.921.114A2.173,2.173,0,0,0,555.929,254.249Z" transform="translate(-552.641 -250.838)" fill="#fafafa"/></g><g transform="translate(17.266 1.531)"><path d="M558.081,213.662a.408.408,0,0,1-.136.031,2.1,2.1,0,0,1-.4.013,2.621,2.621,0,0,1-1.37-.514,2.463,2.463,0,0,1-.677-.77,2.544,2.544,0,0,1-.315-1.135,2.661,2.661,0,0,1,.262-1.276,5.019,5.019,0,0,1,.85-1.094,2.506,2.506,0,0,0,.381-.547,1.079,1.079,0,0,0,.1-.605,3.753,3.753,0,0,0-.513-1.123,1.91,1.91,0,0,1-.232-1.157,1.874,1.874,0,0,1,.4-.95,1.823,1.823,0,0,1,1.3-.661,1.59,1.59,0,0,1,.4.023.376.376,0,0,1,.133.041,4.185,4.185,0,0,0-.527.006,1.8,1.8,0,0,0-1.2.67,1.768,1.768,0,0,0-.117,1.949,3.76,3.76,0,0,1,.541,1.178,1.253,1.253,0,0,1-.114.705,2.662,2.662,0,0,1-.408.59,4.981,4.981,0,0,0-.827,1.053,2.51,2.51,0,0,0-.255,1.191,2.371,2.371,0,0,0,.9,1.81,2.677,2.677,0,0,0,1.3.546C557.889,213.673,558.08,213.645,558.081,213.662Z" transform="translate(-555.182 -203.87)" fill="#fafafa"/></g><g transform="translate(2.723 4.145)"><path d="M515.058,221.879a4.733,4.733,0,0,0,.565.027,2.244,2.244,0,0,0,1.378-.573,2.065,2.065,0,0,0,.579-2.041,2.123,2.123,0,0,0-.69-1.094,4.828,4.828,0,0,1-1.033-1.067,2.411,2.411,0,0,1-.235-1.477c.052-.479.164-.925.238-1.35a4.079,4.079,0,0,0,.073-1.2,1.815,1.815,0,0,0-.38-.949,2.059,2.059,0,0,0-1.282-.747,3.872,3.872,0,0,0-.564-.021.458.458,0,0,1,.145-.039,1.67,1.67,0,0,1,.429-.011,2.076,2.076,0,0,1,1.373.736,1.934,1.934,0,0,1,.431,1.011,4.162,4.162,0,0,1-.057,1.252c-.072.432-.178.877-.227,1.339a2.255,2.255,0,0,0,.215,1.368,4.817,4.817,0,0,0,1,1.027,2.283,2.283,0,0,1,.732,1.184,2.191,2.191,0,0,1-.657,2.178,2.241,2.241,0,0,1-1.462.547,1.8,1.8,0,0,1-.426-.048A.47.47,0,0,1,515.058,221.879Z" transform="translate(-513.707 -211.325)" fill="#fafafa"/></g></g><g transform="translate(1.48)"><path d="M521.4,150.349a4.277,4.277,0,0,1,5.1,3.927c.042.673-.041,1.444.434,1.921a4.91,4.91,0,0,0,1.264.635,1.932,1.932,0,0,1,.856,2.313c-.161.42-.47.772-.627,1.193a3.218,3.218,0,0,0-.237,1.968c.977,3.329-1.383,3.739-2.641,3.961-1.773.312-3.572-.251-3.756-2.108-.06-.6-1.127-.532-1.725-.454a3.494,3.494,0,0,0-1.779,1.188,6.05,6.05,0,0,1-2.908,1.649,3.459,3.459,0,0,1-3.136-.849,2.448,2.448,0,0,1-.285-3.093,3.07,3.07,0,0,1-1.163-4.674,10.354,10.354,0,0,0,1.363-1.605c.261-.536.54-1.76.743-2.32a5.661,5.661,0,0,1,2.032-2.531" transform="translate(-510.161 -149.522)" fill="#455a64"/><g transform="translate(4.015 2.35)"><path d="M531.988,171.51l-6.585.093c-.113-.759-.336-3.716-.336-3.716A3.278,3.278,0,0,1,522.019,165c-.29-2.716-.406-9-.406-9h0a9.49,9.49,0,0,1,9.607.3l.432.272Z" transform="translate(-521.613 -154.841)" fill="#d89377"/><g transform="translate(2.235 5.117)"><path d="M528.989,172.711a1.823,1.823,0,0,0-.617-.071c-.1,0-.178-.016-.19-.068a.534.534,0,0,1,.044-.287l.224-.789a10.5,10.5,0,0,0,.453-2.061,10.463,10.463,0,0,0-.659,2l-.208.793a.627.627,0,0,0-.015.412.258.258,0,0,0,.183.141.619.619,0,0,0,.169.006A1.826,1.826,0,0,0,528.989,172.711Z" transform="translate(-527.988 -169.434)" fill="#263238"/></g><g transform="translate(3.446 11.666)"><path d="M531.442,189.454a6.348,6.348,0,0,0,3.45-1.341,3.364,3.364,0,0,1-3.389,2.046Z" transform="translate(-531.442 -188.113)" fill="#bf7a62"/></g></g><g transform="translate(8.503 7.154)"><g transform="translate(0.107 0.432)"><path d="M535.4,170.094a.344.344,0,0,1-.339.341.33.33,0,0,1-.349-.318.345.345,0,0,1,.339-.341A.33.33,0,0,1,535.4,170.094Z" transform="translate(-534.716 -169.775)" fill="#263238"/></g><path d="M535.772,168.919c-.044.044-.3-.154-.672-.161s-.646.173-.685.127c-.019-.02.026-.1.146-.184a.945.945,0,0,1,.55-.157.911.911,0,0,1,.533.184C535.757,168.817,535.793,168.9,535.772,168.919Z" transform="translate(-534.411 -168.543)" fill="#263238"/></g><g transform="translate(4.632 7.211)"><g transform="translate(0.181 0.365)"><path d="M524.578,170.062a.344.344,0,0,1-.339.341.329.329,0,0,1-.349-.318.344.344,0,0,1,.339-.341A.329.329,0,0,1,524.578,170.062Z" transform="translate(-523.89 -169.744)" fill="#263238"/></g><path d="M524.734,169.08c-.043.044-.3-.154-.671-.161s-.646.174-.685.127c-.019-.021.025-.1.146-.185a.949.949,0,0,1,.55-.157.906.906,0,0,1,.533.184C524.718,168.979,524.755,169.061,524.734,169.08Z" transform="translate(-523.373 -168.704)" fill="#263238"/></g><path d="M532.51,179.785a.716.716,0,0,1-.059-.276.245.245,0,0,1,.147-.224c.064-.022.14-.007.2-.045.078-.05.077-.163.12-.245a.3.3,0,0,1,.327-.132.642.642,0,0,1,.317.195.573.573,0,0,1,.2.377.447.447,0,0,1-.2.357.938.938,0,0,1-.4.139,2.149,2.149,0,0,1-.463.019.305.305,0,0,1-.129-.029.117.117,0,0,1-.065-.108" transform="translate(-524.635 -168.086)" fill="#bf7a62"/><g transform="translate(7.606 10.699)"><path d="M531.853,179.709a1.752,1.752,0,0,0,1.411-1.053" transform="translate(-531.853 -178.655)" fill="#bf7a62"/><path d="M533.264,178.654a1.343,1.343,0,0,1-1.411,1.053,6.447,6.447,0,0,0,.793-.41C533.041,179.01,533.215,178.633,533.264,178.654Z" transform="translate(-531.853 -178.654)" fill="#263238"/></g><g transform="translate(4.642 6.255)"><path d="M523.422,166.636a1.578,1.578,0,0,1,1.016-.113" transform="translate(-523.415 -166.308)" fill="#bf7a62"/><path d="M524.424,166.195c-.027.1-.248.123-.5.154s-.471.05-.519-.04.152-.287.478-.323S524.454,166.1,524.424,166.195Z" transform="translate(-523.401 -165.98)" fill="#263238"/></g><g transform="translate(8.465 6.326)"><path d="M534.315,166.8a1.928,1.928,0,0,1,1.434.079" transform="translate(-534.311 -166.519)" fill="#bf7a62"/><path d="M535.743,166.545c-.048.092-.354.021-.719,0s-.677.013-.715-.083.28-.308.735-.282S535.794,166.461,535.743,166.545Z" transform="translate(-534.305 -166.183)" fill="#263238"/></g><path d="M525.9,148.913a2.177,2.177,0,0,0-1.558-.745,5.116,5.116,0,0,0-4.665,2.113,2.759,2.759,0,0,0-.342,2.952,1.837,1.837,0,0,0,3.316-.462,1.535,1.535,0,1,0,3.065-.138,2.789,2.789,0,0,0,.975,1.4,1.079,1.079,0,0,0,1.509-.287c.307.365.74.738,1.2.624a.937.937,0,0,0,.627-.94,2.4,2.4,0,0,0-.4-1.138,7,7,0,0,0-3.966-3.476" transform="translate(-515.927 -148.14)" fill="#455a64"/><path d="M543.108,158.015a4.9,4.9,0,0,1,.037,4.738,7.987,7.987,0,0,0-.747,1.375,1.3,1.3,0,0,0,.319,1.433c.257.191.648.288.709.6a.864.864,0,0,1-.1.461,3.118,3.118,0,0,0-.082,1.976,1.706,1.706,0,0,0,1.165,1.414,2.058,2.058,0,0,0,1.879.33c1.922-.494,1.243-4.787,1.064-6.763a19.07,19.07,0,0,0-2.209-7.141" transform="translate(-531.042 -153.53)" fill="#455a64"/><path d="M529.949,196.96s-1.992,7.436-.722,6.7,7.431-5.633,7.431-5.633l-3.116-2.351Z" transform="translate(-522.267 -179.008)" fill="#d89377"/></g></g><g transform="translate(0 25.795)"><path d="M473.763,226.673c-.221-.728-2.976-2.229-2.559-2.634.543-.527,2.805,1.7,3.01,1.871s.456-.123.262-.27c-.278-.211-3.141-2.5-2.613-3.025.293-.29.754.3.754.3s2.526,2.345,2.768,2.089-1.194-1.687-1.711-2.134-.516-.869-.139-.939a10.962,10.962,0,0,1,2.378,1.735c.5.454,1.859,1.723,1.684.541,0-.019,0-.036-.006-.054a3.191,3.191,0,0,1,.278-2.352.407.407,0,0,1,.655.325.414.414,0,0,1-.009.171c-.007.025-.01.06-.015.088a5.863,5.863,0,0,0,.076,1.2,3.185,3.185,0,0,0,.331,1.025c.195.369.377.681.537.938,1.843,1.023,7.144,3.723,12.459,4.147.96.076,5.2-6.617,5.2-6.617l6.3,2.981a61.384,61.384,0,0,1-5.022,7.922c-5.319,7.228-21.947-4.817-21.947-4.817h0l-.156-.077a38.65,38.65,0,0,1-3.675-2.075c-1.43-1.01-1.344-1.143-1.2-1.293C471.785,225.317,473.983,227.4,473.763,226.673Z" transform="translate(-471.161 -221.707)" fill="#d89377"/></g></g><g transform="translate(66.54 78.547)"><g transform="translate(0 0)"><g transform="translate(0 50.477)"><g transform="translate(31.182 59.933)"><g transform="translate(0.072)"><path d="M195.568,450.344l-.034-2.877-5.389.028,0,4.209.335.02c1.487.075,7.569.276,8.561-.031C200.152,451.351,195.568,450.344,195.568,450.344Z" transform="translate(-190.145 -447.467)" fill="#455a64"/></g><g transform="translate(0 4.076)"><path d="M189.939,459.13a.506.506,0,0,0,.093.009l.266.015.98.038c.827.026,1.971.047,3.235.042s2.407-.034,3.234-.067l.979-.045.266-.017a.548.548,0,0,0,.093-.011.509.509,0,0,0-.093,0l-.267,0-.98.025c-.827.021-1.97.043-3.233.048s-2.406-.008-3.233-.023l-.98-.017-.267,0A.458.458,0,0,0,189.939,459.13Z" transform="translate(-189.939 -459.092)" fill="#263238"/></g><g transform="translate(7.251 3.382)"><path d="M210.63,457.96a2.192,2.192,0,0,1,.181-.468,2.217,2.217,0,0,1,.332-.377.87.87,0,0,0-.513.845Z" transform="translate(-210.62 -457.113)" fill="#263238"/></g><g transform="translate(5.664 2.979)"><path d="M206.1,456.414c.015.009.091-.083.169-.208s.129-.233.114-.242-.091.083-.169.208S206.081,456.4,206.1,456.414Z" transform="translate(-206.094 -455.963)" fill="#263238"/></g><g transform="translate(5.228 2.895)"><path d="M204.851,456.03c.012.013.1-.044.189-.128s.158-.163.146-.176-.1.044-.189.128S204.839,456.017,204.851,456.03Z" transform="translate(-204.85 -455.725)" fill="#263238"/></g><g transform="translate(4.952 2.663)"><path d="M204.061,455.092a.638.638,0,0,0,.281.034.631.631,0,0,0,.282-.031.641.641,0,0,0-.282-.034A.631.631,0,0,0,204.061,455.092Z" transform="translate(-204.061 -455.061)" fill="#263238"/></g><g transform="translate(4.855 2.33)"><path d="M203.786,454.117a.793.793,0,0,0,.638.045,1.681,1.681,0,0,0-.319-.021A1.746,1.746,0,0,0,203.786,454.117Z" transform="translate(-203.785 -454.111)" fill="#263238"/></g><g transform="translate(5.848 2.471)"><path d="M206.617,455a1,1,0,0,0,.346,0,2.032,2.032,0,0,0,.368-.083,1.011,1.011,0,0,0,.211-.088.189.189,0,0,0,.085-.108.137.137,0,0,0-.053-.139.635.635,0,0,0-.784.19.618.618,0,0,0-.112.231.193.193,0,0,0-.009.094.982.982,0,0,1,.156-.3.626.626,0,0,1,.3-.194.536.536,0,0,1,.413.026c.055.04.034.105-.027.142a1.042,1.042,0,0,1-.194.084,2.4,2.4,0,0,1-.356.094C206.749,454.99,206.617,454.991,206.617,455Z" transform="translate(-206.617 -454.514)" fill="#263238"/></g><g transform="translate(5.483 2.306)"><path d="M206.031,454.714a.34.34,0,0,0,.039-.241.566.566,0,0,0-.1-.252.348.348,0,0,0-.289-.175.138.138,0,0,0-.106.161.377.377,0,0,0,.06.154,1.057,1.057,0,0,0,.164.209.5.5,0,0,0,.2.139c.006-.008-.069-.062-.165-.171a1.228,1.228,0,0,1-.146-.207c-.048-.073-.081-.2.006-.22s.176.077.229.146a.568.568,0,0,1,.1.225A1.267,1.267,0,0,1,206.031,454.714Z" transform="translate(-205.577 -454.045)" fill="#263238"/></g><g transform="translate(0.103 2.602)"><path d="M190.233,454.924c0,.012.154-.015.4.012a1.688,1.688,0,0,1,1.417,1.118c.083.231.092.386.1.384a.318.318,0,0,0,0-.109,1.416,1.416,0,0,0-.06-.29,1.637,1.637,0,0,0-1.456-1.15,1.418,1.418,0,0,0-.3.009A.312.312,0,0,0,190.233,454.924Z" transform="translate(-190.233 -454.887)" fill="#263238"/></g><g transform="translate(0.609 0.394)"><path d="M191.718,448.59a18.718,18.718,0,0,0-.018,2.215,18.92,18.92,0,0,0,.018-2.215Z" transform="translate(-191.675 -448.59)" fill="#263238"/></g><g transform="translate(2.706 3.65)"><path d="M197.657,457.883a4.425,4.425,0,0,0,1.575.007c0-.019-.354,0-.788,0S197.659,457.865,197.657,457.883Z" transform="translate(-197.657 -457.877)" fill="#263238"/></g><g transform="translate(1.647 3.658)"><path d="M194.64,457.9c-.013.013.029.074.066.155s.056.152.075.151.027-.085-.016-.178S194.651,457.888,194.64,457.9Z" transform="translate(-194.637 -457.899)" fill="#263238"/></g><g transform="translate(1.247 3.164)"><path d="M193.5,456.492c-.013.013.022.069.078.125s.112.091.124.078-.022-.068-.078-.125S193.511,456.48,193.5,456.492Z" transform="translate(-193.495 -456.49)" fill="#263238"/></g><g transform="translate(0.679 2.911)"><path d="M191.875,455.8c0,.018.075.017.155.045s.137.069.151.057-.031-.087-.13-.119S191.869,455.785,191.875,455.8Z" transform="translate(-191.874 -455.77)" fill="#263238"/></g><g transform="translate(0.272 2.825)"><path d="M190.715,455.537c-.006.017.025.045.069.061s.087.018.093,0-.025-.045-.069-.062S190.722,455.52,190.715,455.537Z" transform="translate(-190.715 -455.525)" fill="#263238"/></g></g><g transform="translate(0 53.338)"><path d="M106.3,433.98l1.522-2.441-4.555-2.881-2.265,3.548.271.2c1.212.865,6.227,4.311,7.228,4.588C109.622,437.3,106.3,433.98,106.3,433.98Z" transform="translate(-101.006 -428.658)" fill="#455a64"/><g transform="translate(0.002 3.402)"><path d="M101.012,438.362a.458.458,0,0,0,.073.058l.216.156.805.56c.683.468,1.635,1.1,2.7,1.778s2.046,1.268,2.76,1.687l.85.49.233.129a.516.516,0,0,0,.083.041.507.507,0,0,0-.077-.053l-.227-.14-.838-.507c-.708-.429-1.683-1.026-2.749-1.7s-2.021-1.3-2.711-1.762l-.817-.542-.223-.146A.563.563,0,0,0,101.012,438.362Z" transform="translate(-101.012 -438.362)" fill="#263238"/></g><g transform="translate(6.055 6.96)"><path d="M118.277,448.961a1.426,1.426,0,0,1,.887-.435.87.87,0,0,0-.887.435Z" transform="translate(-118.275 -448.509)" fill="#263238"/></g><g transform="translate(5.144 5.65)"><path d="M115.678,445c.008.016.121-.021.254-.084s.234-.127.226-.143-.121.021-.254.084S115.671,444.986,115.678,445Z" transform="translate(-115.678 -444.771)" fill="#263238"/></g><g transform="translate(4.899 5.365)"><path d="M114.979,444.045c0,.018.106.015.229-.006s.22-.052.217-.07-.105-.015-.228.005S114.976,444.027,114.979,444.045Z" transform="translate(-114.979 -443.958)" fill="#263238"/></g><g transform="translate(4.938 4.872)"><path d="M115.09,442.556c-.01.015.088.1.218.181s.244.141.254.126-.088-.1-.218-.181S115.1,442.54,115.09,442.556Z" transform="translate(-115.089 -442.553)" fill="#263238"/></g><g transform="translate(5.049 4.52)"><path d="M115.407,441.549c-.014.01.069.136.216.245a.546.546,0,0,0,.3.137c.007-.017-.119-.085-.258-.189S115.422,441.537,115.407,441.549Z" transform="translate(-115.406 -441.548)" fill="#263238"/></g><g transform="translate(5.544 5.44)"><path d="M116.825,444.315a1,1,0,0,0,.294.183,2.011,2.011,0,0,0,.355.129,1.01,1.01,0,0,0,.225.039.186.186,0,0,0,.13-.045.136.136,0,0,0,.03-.145.636.636,0,0,0-.763-.263.624.624,0,0,0-.219.135c-.043.043-.061.072-.058.074a.97.97,0,0,1,.291-.165.627.627,0,0,1,.353,0,.537.537,0,0,1,.333.244c.025.064-.028.107-.1.105a1.022,1.022,0,0,1-.209-.034,2.424,2.424,0,0,1-.351-.112C116.942,444.376,116.83,444.305,116.825,444.315Z" transform="translate(-116.818 -444.174)" fill="#263238"/></g><g transform="translate(5.477 4.883)"><path d="M116.767,443.346c0,.006.093-.041.162-.182a.57.57,0,0,0,.055-.264.348.348,0,0,0-.149-.3.138.138,0,0,0-.176.078.375.375,0,0,0-.033.162,1.044,1.044,0,0,0,.026.264.5.5,0,0,0,.092.224c.01,0-.025-.089-.047-.233a1.2,1.2,0,0,1-.011-.253c0-.087.042-.216.123-.182s.107.16.114.246a.574.574,0,0,1-.038.243A1.273,1.273,0,0,1,116.767,443.346Z" transform="translate(-116.626 -442.586)" fill="#263238"/></g><g transform="translate(0.884 2.215)"><path d="M103.527,434.976c-.006.011.138.07.329.225a1.689,1.689,0,0,1,.59,1.706c-.054.239-.13.375-.119.38a.31.31,0,0,0,.058-.092,1.406,1.406,0,0,0,.106-.277,1.638,1.638,0,0,0-.607-1.754,1.439,1.439,0,0,0-.255-.152A.313.313,0,0,0,103.527,434.976Z" transform="translate(-103.527 -434.975)" fill="#263238"/></g><g transform="translate(1.346 0.62)"><path d="M106.055,430.426a18.859,18.859,0,0,0-1.209,1.856,18.818,18.818,0,0,0,1.209-1.856Z" transform="translate(-104.846 -430.426)" fill="#263238"/></g><g transform="translate(2.528 4.475)"><path d="M108.215,441.422a4.441,4.441,0,0,0,1.323.855c.009-.017-.3-.187-.664-.423S108.227,441.407,108.215,441.422Z" transform="translate(-108.215 -441.421)" fill="#263238"/></g><g transform="translate(1.584 3.909)"><path d="M105.577,439.807c-.018,0-.015.079-.028.166s-.035.158-.018.167.069-.057.083-.158S105.594,439.8,105.577,439.807Z" transform="translate(-105.525 -439.806)" fill="#263238"/></g><g transform="translate(1.552 3.278)"><path d="M105.446,438.006c-.018,0-.018.07,0,.147s.045.137.062.134.018-.07,0-.147S105.463,438,105.446,438.006Z" transform="translate(-105.432 -438.005)" fill="#263238"/></g><g transform="translate(1.205 2.776)"><path d="M104.443,436.58c-.007.018.054.055.106.121s.077.132.1.129.02-.089-.046-.17S104.447,436.563,104.443,436.58Z" transform="translate(-104.443 -436.574)" fill="#263238"/></g><g transform="translate(0.914 2.472)"><path d="M103.618,435.71c-.015.011,0,.051.025.089s.063.061.078.05,0-.051-.025-.089S103.633,435.7,103.618,435.71Z" transform="translate(-103.612 -435.708)" fill="#263238"/></g></g><g transform="translate(0.197)"><g transform="translate(0 0.416)"><path d="M127.543,280.167s4.573,30.38,3.907,31.848-22.014,24.946-22.014,24.946l-7.868-5.213s18.648-23.478,18.507-24.042-7.067-29.983-7.067-29.983Z" transform="translate(-101.569 -277.723)" fill="#fd963d"/></g><g transform="translate(8.186)"><path d="M125.575,276.536l-.276,1.128a13.27,13.27,0,0,0,1.394,9.791l12.4,21.493a17.269,17.269,0,0,1,1.9,4.886l5.6,24.825h8.637c0,.517-2.235-20.45-3.354-27.414-.845-5.252-7.873-21.555-11.278-29.253l2.109-2.6-3.664-.612Z" transform="translate(-124.917 -276.536)" fill="#fd963d"/></g><g transform="translate(24.131 5.396)"><path d="M170.392,291.926a1.592,1.592,0,0,1,.191.342c.113.225.268.554.453.963.371.818.859,1.96,1.356,3.238s.909,2.45,1.188,3.3c.14.427.248.774.317,1.016a1.625,1.625,0,0,1,.09.381,1.617,1.617,0,0,1-.157-.358l-.371-1c-.31-.842-.74-2-1.236-3.28s-.964-2.423-1.3-3.253l-.4-.985A1.635,1.635,0,0,1,170.392,291.926Z" transform="translate(-170.39 -291.926)" fill="#263238"/></g><g transform="translate(14.959 19.58)"><path d="M154.426,354.229a1.235,1.235,0,0,1-.056-.242l-.126-.7q-.039-.23-.086-.5l-.132-.595c-.1-.426-.194-.914-.349-1.441l-.226-.832-.284-.891c-.184-.62-.441-1.262-.686-1.945-.533-1.352-1.18-2.814-1.937-4.312a81.152,81.152,0,0,0-4.358-7.408l-1.439-2.175-.39-.593a1.258,1.258,0,0,1-.126-.214,1.3,1.3,0,0,1,.156.193l.418.573c.361.5.872,1.23,1.488,2.144a71.7,71.7,0,0,1,4.413,7.4c.759,1.5,1.4,2.973,1.931,4.334.242.689.494,1.335.673,1.96l.275.9.216.839c.148.532.237,1.023.323,1.453l.118.6q.038.276.071.509c.038.291.068.525.092.7A1.254,1.254,0,0,1,154.426,354.229Z" transform="translate(-144.233 -332.379)" fill="#263238"/></g></g><g transform="translate(1.152 53.23)"><path d="M112.359,433.517a1.516,1.516,0,0,1-.36-.119,8.752,8.752,0,0,1-.938-.432,21.756,21.756,0,0,1-2.852-1.854c-1.064-.793-2.02-1.513-2.742-1.992s-1.189-.743-1.175-.77a1.494,1.494,0,0,1,.347.153c.219.106.526.281.9.509.745.453,1.719,1.162,2.78,1.953a28.124,28.124,0,0,0,2.805,1.887C111.875,433.281,112.372,433.487,112.359,433.517Z" transform="translate(-104.292 -428.35)" fill="#263238"/></g><g transform="translate(29.566 60.638)"><path d="M194.435,449.672a1.363,1.363,0,0,1-.359.02l-.976-.007-3.218-.027-3.219.02-.976,0a.181.181,0,1,1,0-.071c.23-.021.563-.042.975-.063.824-.042,1.964-.075,3.223-.074s2.4.037,3.222.081c.412.022.745.044.975.065A1.359,1.359,0,0,1,194.435,449.672Z" transform="translate(-185.328 -449.476)" fill="#263238"/></g></g><g transform="translate(10.604 5.445)"><path d="M135.375,162.126a3.936,3.936,0,0,1-2.221-.335,2.089,2.089,0,0,1-1.17-1.818,6.857,6.857,0,0,0,.133-1.321,4.2,4.2,0,0,0-.609-1.184,2.456,2.456,0,0,1,.659-3.007,9.2,9.2,0,0,0,1.431-.964,6.67,6.67,0,0,0,.807-1.87,3.026,3.026,0,0,1,2.252-1.726,9.646,9.646,0,0,0,1.616-.2,5.539,5.539,0,0,0,1.195-.712,5.531,5.531,0,0,1,4.122-.772,3.307,3.307,0,0,1,1.671.822,4.365,4.365,0,0,1,1.328,1.719,5.485,5.485,0,0,1-.264,2.618,2.151,2.151,0,0,1-1.689,1.637" transform="translate(-131.248 -148.106)" fill="#263238"/><g transform="translate(2.556 3.552)"><g transform="translate(1.394)"><path d="M142.512,174.9,149.1,175c.113-.759.336-3.716.336-3.716a3.278,3.278,0,0,0,3.049-2.883c.289-2.715.406-9,.406-9h0a9.492,9.492,0,0,0-9.607.3l-.432.272Z" transform="translate(-142.512 -158.236)" fill="#ffbe9d"/><g transform="translate(7.14 5.117)"><path d="M162.874,176.106a1.82,1.82,0,0,1,.617-.071c.1,0,.178-.016.19-.068a.535.535,0,0,0-.044-.287l-.224-.789a10.473,10.473,0,0,1-.453-2.06,10.449,10.449,0,0,1,.659,2l.208.793a.627.627,0,0,1,.015.412.259.259,0,0,1-.184.141.645.645,0,0,1-.169.006A1.827,1.827,0,0,1,162.874,176.106Z" transform="translate(-162.874 -172.829)" fill="#263238"/></g><g transform="translate(3.479 11.666)"><path d="M155.884,192.849a6.351,6.351,0,0,1-3.449-1.341,3.364,3.364,0,0,0,3.39,2.046Z" transform="translate(-152.434 -191.508)" fill="#eb996e"/></g></g><g transform="translate(0 4.565)"><path d="M140.3,171.281c-.054-.022-1.861-.317-1.759,1.832s2.238,1.335,2.239,1.273S140.3,171.281,140.3,171.281Z" transform="translate(-138.537 -171.255)" fill="#ffbe9d"/><g transform="translate(0.55 0.727)"><path d="M141.106,175.009c-.01-.007-.036.028-.1.06a.375.375,0,0,1-.279.019.927.927,0,0,1-.468-.811,1.232,1.232,0,0,1,.079-.541.431.431,0,0,1,.268-.3.191.191,0,0,1,.226.092c.032.059.02.1.032.106s.044-.038.023-.126a.24.24,0,0,0-.091-.13.282.282,0,0,0-.21-.045.526.526,0,0,0-.375.352,1.274,1.274,0,0,0-.1.605.973.973,0,0,0,.59.9.4.4,0,0,0,.34-.073C141.1,175.061,141.113,175.013,141.106,175.009Z" transform="translate(-140.107 -173.328)" fill="#eb996e"/></g></g><g transform="translate(6.082 4.063)"><path d="M155.892,170.3c-.029-.038.022-.14.161-.247a1.258,1.258,0,0,1,1.3-.089c.153.087.217.181.193.223-.054.089-.4-.03-.829.006S155.958,170.379,155.892,170.3Z" transform="translate(-155.884 -169.823)" fill="#263238"/></g><g transform="translate(9.901 4.328)"><path d="M166.775,170.813c-.019-.1.276-.235.662-.234s.68.14.661.237-.313.128-.662.128S166.794,170.913,166.775,170.813Z" transform="translate(-166.775 -170.579)" fill="#263238"/></g></g><path d="M141.625,157.216l.306,1.982a1.651,1.651,0,0,0,.314.875,1.179,1.179,0,0,0,1.437.092,3.436,3.436,0,0,0,1.293-1.82,5.617,5.617,0,0,1,1.056-2,2.617,2.617,0,0,0,3.019.556c.438-.221.8-.562,1.224-.814a1.6,1.6,0,0,1,1.4-.225c.249.1.472.307.741.3a.6.6,0,0,0,.482-.332,1.025,1.025,0,0,0,.089-.6,2.347,2.347,0,0,0-1.4-1.7,7.257,7.257,0,0,0-3.2-.549,12.1,12.1,0,0,0-3.086.305,5.333,5.333,0,0,0-2.658,1.526,3.447,3.447,0,0,0-.881,2.869" transform="translate(-137.987 -151.273)" fill="#263238"/><path d="M165.7,156.8a3.25,3.25,0,0,0,1.034,1.8,1.391,1.391,0,0,0,.91.408,1.128,1.128,0,0,0,.992-1.126,2.15,2.15,0,0,0-.673-1.468,2.038,2.038,0,0,0-1.368-.722,1.044,1.044,0,0,0-1.094.917" transform="translate(-153.494 -153.026)" fill="#263238"/><g transform="translate(8.47 8.356)"><g transform="translate(0.572 0.432)"><path d="M157.037,173.489a.344.344,0,0,0,.339.341.33.33,0,0,0,.349-.318.345.345,0,0,0-.339-.341A.33.33,0,0,0,157.037,173.489Z" transform="translate(-157.037 -173.17)" fill="#263238"/></g><path d="M155.411,172.314c.043.044.3-.154.671-.161s.646.174.685.127c.019-.02-.026-.1-.146-.184a.947.947,0,0,0-.55-.157.906.906,0,0,0-.533.184C155.427,172.212,155.39,172.294,155.411,172.314Z" transform="translate(-155.405 -171.938)" fill="#263238"/></g><g transform="translate(12.341 8.413)"><g transform="translate(0.498 0.364)"><path d="M167.863,173.457a.344.344,0,0,0,.339.341.33.33,0,0,0,.349-.318.345.345,0,0,0-.339-.341A.33.33,0,0,0,167.863,173.457Z" transform="translate(-167.863 -173.138)" fill="#263238"/></g><path d="M166.449,172.475c.044.044.3-.154.671-.161s.646.173.685.127c.019-.02-.026-.1-.146-.184a.945.945,0,0,0-.549-.157.909.909,0,0,0-.533.184C166.465,172.373,166.428,172.455,166.449,172.475Z" transform="translate(-166.444 -172.099)" fill="#263238"/></g><g transform="translate(9.917 11.983)"><path d="M160.614,183.345c0,.022-.093.065-.258.055a.9.9,0,0,1-.825-.863c0-.166.045-.26.067-.256.05,0,.012.4.313.718S160.616,183.3,160.614,183.345Z" transform="translate(-159.531 -182.282)" fill="#263238"/></g></g><g transform="translate(22.806 30.707)"><path d="M166.088,221.982l5.472-1.83s3.811,9.012,4.791,9.1c5.433.5,11.245-1.306,13.283-2.018.207-.232.443-.511.706-.852a3.257,3.257,0,0,0,.511-.976,4.952,4.952,0,0,0,.291-1.342.426.426,0,0,1,.732-.336,3.5,3.5,0,0,1-.241,2.721c-.536,1.252,1.361.256,2.06-.095a12.742,12.742,0,0,1,3.187-1.205c.407.19.279.661-.426,1s-2.75,1.484-2.547,1.844,3.73-1.479,3.73-1.479.691-.514.939-.106c.448.736-3.448,2.408-3.823,2.558-.26.1-.054.5.22.377s3.478-1.911,3.942-1.166c.355.572-3.192,1.406-3.65,2.143s2.626-.906,2.943-.346c.118.209.177.38-1.73,1.068a40.532,40.532,0,0,1-4.251,1.085l.007.02s-19.63,8.785-23.16.307C165.477,223.814,166.088,221.982,166.088,221.982Z" transform="translate(-166.049 -220.152)" fill="#eb996e"/></g><path d="M143.967,210.371c-2.19-5.13-5.061-7.139-6.575-7.881a4.392,4.392,0,0,0-1.695-.436h0l-.182-.881-7.26-.654-.178,1.122-1.065-.057s-6.258.626-6.27,7.875c-.005,3.391,1.826,6.689,2.472,8.305.4,3.381-1.048,9.511-1.008,11.007l17.787,1.262.753-11.119-.167-1.043,5.855-1.793Zm-15.711-8.72h0Z" transform="translate(-113.823 -176.696)" fill="#ebebeb"/><g transform="translate(20.113)"><path d="M210.892,144.418A20.666,20.666,0,0,0,174.26,155.2h0a20.651,20.651,0,0,0,6.977,17.764l-18.09,21.229,2.6,2.212L183.985,175a20.541,20.541,0,0,0,8.628,2.947,21.022,21.022,0,0,0,2.235.12,20.668,20.668,0,0,0,16.044-33.646Zm1.074,14.811a17.254,17.254,0,1,1-3.728-12.67A17.143,17.143,0,0,1,211.966,159.23Z" transform="translate(-161.471 -135.273)" fill="#263238"/><path d="M206.334,140.265A20.666,20.666,0,0,0,169.7,151.047h0a20.652,20.652,0,0,0,6.977,17.764l-18.309,21.4,2.775,2.22,18.282-21.589a20.541,20.541,0,0,0,8.628,2.947,21.03,21.03,0,0,0,2.236.12,20.668,20.668,0,0,0,16.044-33.646Zm1.074,14.811a17.255,17.255,0,1,1-3.729-12.67A17.143,17.143,0,0,1,207.408,155.077Z" transform="translate(-158.369 -132.576)" fill="#455a64"/><g transform="translate(18.759 12.998)"><path d="M215.614,188.512a.867.867,0,0,1-.136-.152c-.082-.1-.212-.254-.359-.461a15.706,15.706,0,0,1-1.152-1.815,17.094,17.094,0,0,1-1.17-13.766,15.747,15.747,0,0,1,.829-1.983c.11-.229.212-.4.276-.515a.829.829,0,0,1,.109-.173.856.856,0,0,1-.076.189c-.053.122-.145.3-.244.529a18.77,18.77,0,0,0-.77,1.993,17.56,17.56,0,0,0,1.161,13.664,18.688,18.688,0,0,0,1.1,1.835c.137.212.257.368.33.48A.855.855,0,0,1,215.614,188.512Z" transform="translate(-211.87 -169.647)" fill="#263238"/></g><g transform="translate(22.565 10.635)"><path d="M223.525,162.914c.031.042-.18.238-.39.515s-.348.528-.4.509.021-.321.252-.621S223.5,162.874,223.525,162.914Z" transform="translate(-222.724 -162.908)" fill="#263238"/></g></g><g transform="translate(7.332 23.992)"><g transform="translate(17.962 5.809)"><path d="M173.151,217.567a2.59,2.59,0,0,1,.127.484c.071.314.163.77.269,1.336.212,1.13.468,2.7.683,4.442s.349,3.328.418,4.477c.035.574.056,1.039.064,1.361a2.636,2.636,0,0,1-.005.5,2.617,2.617,0,0,1-.066-.5l-.122-1.356c-.1-1.144-.256-2.724-.47-4.464s-.45-3.308-.629-4.443l-.212-1.344A2.665,2.665,0,0,1,173.151,217.567Z" transform="translate(-173.147 -217.567)" fill="#263238"/></g><g transform="translate(1.464 11.06)"><path d="M152.271,244.517s-19.624,8.8-23.154.326c-3.6-8.636-2.986-10.468-2.986-10.468l5.472-1.83s3.811,9.012,4.791,9.1c5.432.5,11.245-1.306,13.283-2.018.207-.232.443-.511.706-.853.225-.293.46-.715.691-1a7.258,7.258,0,0,1,1.155-1.013c.542-.613,1.037-.165.8.165a5.909,5.909,0,0,0-1.354,1.92c-.536,1.252,1.374.637,2.13.438.836-.22,2.4-.83,2.4-.83a1.837,1.837,0,0,1-1.085,1.442,11.205,11.205,0,0,1-1.176.489s1.451-.176,1.489.154-.429,2.776-1.973,3.5Z" transform="translate(-126.092 -232.545)" fill="#ffbe9d"/></g><path d="M127.617,210.139l3.525,10.65-7.715,3.05S119.4,213.38,124.5,210.82Z" transform="translate(-121.918 -206.935)" fill="#ebebeb"/><g transform="translate(1.49 1.635)"><g transform="translate(2.14)"><path d="M138.379,217.467s-.043-.028-.1-.1a1.963,1.963,0,0,1-.231-.343,11.716,11.716,0,0,1-.556-1.4c-.432-1.194-1.017-2.846-1.653-4.676l-.889-2.581a6.409,6.409,0,0,0-.89-2,1.626,1.626,0,0,0-1.261-.626,1.6,1.6,0,0,0-.523.125s.035-.037.118-.083a1.036,1.036,0,0,1,.4-.113,1.671,1.671,0,0,1,1.363.614,6.27,6.27,0,0,1,.95,2.031l.9,2.576c.636,1.829,1.2,3.489,1.6,4.693.2.6.345,1.1.5,1.412S138.392,217.457,138.379,217.467Z" transform="translate(-132.272 -205.663)" fill="#263238"/></g><g transform="translate(0 12.001)"><path d="M134.251,239.892a1.26,1.26,0,0,1-.292.183c-.193.108-.477.256-.831.431-.708.352-1.7.808-2.82,1.259s-2.151.812-2.9,1.05c-.377.119-.684.21-.9.266a1.271,1.271,0,0,1-.337.071,10.207,10.207,0,0,1,1.193-.459c.742-.269,1.763-.648,2.879-1.1s2.113-.886,2.833-1.207A10.3,10.3,0,0,1,134.251,239.892Z" transform="translate(-126.168 -239.891)" fill="#263238"/></g><g transform="translate(0.649 13.291)"><path d="M128.655,245.155a4.009,4.009,0,0,1-.624-1.584,4.016,4.016,0,0,1,.624,1.584Z" transform="translate(-128.019 -243.57)" fill="#263238"/></g><g transform="translate(2.345 12.72)"><path d="M133.423,243.471c-.043.024-.256-.284-.41-.716a1.487,1.487,0,0,1-.138-.813,8.758,8.758,0,0,1,.548,1.529Z" transform="translate(-132.854 -241.941)" fill="#263238"/></g><g transform="translate(4.016 11.931)"><path d="M138.229,241.269a2.37,2.37,0,0,1-.586-1.579,12.705,12.705,0,0,1,.586,1.579Z" transform="translate(-137.622 -239.69)" fill="#263238"/></g><g transform="translate(5.91 11.091)"><path d="M143.564,238.974a4.282,4.282,0,0,1-.526-1.679,4.285,4.285,0,0,1,.526,1.679Z" transform="translate(-143.024 -237.295)" fill="#263238"/></g></g><g transform="translate(19.425 14.153)"><g transform="translate(0 1.116)"><path d="M183.315,244.553a54.226,54.226,0,0,1-6,1.91,54.353,54.353,0,0,1,6-1.91Z" transform="translate(-177.319 -244.549)" fill="#263238"/></g><g transform="translate(0.762 1.135)"><path d="M180.027,245.825c-.047.02-.2-.238-.345-.575s-.223-.627-.176-.647.2.238.344.575S180.074,245.805,180.027,245.825Z" transform="translate(-179.493 -244.602)" fill="#263238"/></g><g transform="translate(2.379 0.557)"><path d="M184.531,244.412c-.046.019-.212-.286-.324-.7a1.383,1.383,0,0,1-.076-.764c.051-.008.142.317.252.716A2.057,2.057,0,0,1,184.531,244.412Z" transform="translate(-184.104 -242.952)" fill="#263238"/></g><g transform="translate(4.099)"><path d="M189.339,242.862a3.244,3.244,0,0,1-.306-1.5,3.247,3.247,0,0,1,.306,1.5Z" transform="translate(-189.009 -241.364)" fill="#263238"/></g></g><g transform="translate(7.753)"><path d="M144.1,201.857c-.05,0-.078-.2-.061-.434s.071-.425.121-.422.078.2.061.434S144.146,201.861,144.1,201.857Z" transform="translate(-144.03 -201.001)" fill="#263238"/></g><g transform="translate(9.308 0.093)"><path d="M148.574,202.122c-.05,0-.1-.188-.108-.424s.023-.43.074-.432.1.188.108.424S148.625,202.12,148.574,202.122Z" transform="translate(-148.464 -201.266)" fill="#263238"/></g><g transform="translate(10.566 0.276)"><path d="M152.14,202.674c-.051,0-.09-.2-.088-.444s.045-.443.1-.442.09.2.088.444S152.19,202.675,152.14,202.674Z" transform="translate(-152.052 -201.788)" fill="#263238"/></g><g transform="translate(12.166 0.306)"><path d="M156.774,202.914c-.047.013-.148-.215-.156-.515s.076-.534.125-.524.048.24.058.519S156.824,202.9,156.774,202.914Z" transform="translate(-156.617 -201.874)" fill="#263238"/></g><g transform="translate(13.526 0.307)"><path d="M160.666,202.915c-.05.006-.119-.222-.153-.509s-.021-.524.029-.531.118.222.152.509S160.716,202.909,160.666,202.915Z" transform="translate(-160.494 -201.876)" fill="#263238"/></g></g></g></g></g></g></svg>