<svg xmlns="http://www.w3.org/2000/svg" xmlns:xlink="http://www.w3.org/1999/xlink" width="225.238" height="181.002" viewBox="0 0 225.238 181.002"><defs><clipPath id="a"><rect width="218.669" height="162.956" fill="none"/></clipPath><clipPath id="d"><rect width="30.522" height="30.524" fill="#fc8116"/></clipPath><clipPath id="e"><rect width="4.446" height="9.344" fill="none"/></clipPath><clipPath id="f"><rect width="46.995" height="46.994" fill="none"/></clipPath><clipPath id="g"><rect width="36.418" height="34.121" fill="none"/></clipPath><clipPath id="h"><rect width="40.285" height="38.038" fill="none"/></clipPath></defs><g transform="translate(-639.335 -6397.629)"><path d="M20,0H185.588a20,20,0,0,1,20,20V172.212a0,0,0,0,1,0,0H0a0,0,0,0,1,0,0V20A20,20,0,0,1,20,0Z" transform="translate(649.04 6397.629)" fill="#c2e8b0"/><path d="M267.879,643.757c0,6.85-50.421,12.4-112.619,12.4s-112.619-5.553-112.619-12.4,50.421-12.4,112.619-12.4,112.619,5.553,112.619,12.4" transform="translate(596.694 5922.472)" fill="#455a64"/><g transform="translate(642.5 6406.272)"><g transform="translate(0 0)"><g clip-path="url(#a)"><rect width="218.669" height="0.109" transform="translate(0 143.205)" fill="#d1e3ff"/><rect width="7.375" height="0.109" transform="translate(164.577 146.529)" fill="#d1e3ff"/><rect width="19.486" height="0.109" transform="translate(176.684 146.475)" fill="#d1e3ff"/><rect width="24.259" height="0.109" transform="translate(116.007 147.21)" fill="#d1e3ff"/><rect width="9.06" height="0.109" transform="translate(104.429 147.21)" fill="#d1e3ff"/><rect width="3.98" height="0.109" transform="translate(62.302 146.365)" fill="#d1e3ff"/><rect width="6.578" height="0.109" transform="translate(68.711 146.365)" fill="#d1e3ff"/><rect width="29.107" height="0.109" transform="translate(29.253 148.339)" fill="#d1e3ff"/><g clip-path="url(#a)"><path d="M125.153,123.7H40.7a2.5,2.5,0,0,1-2.5-2.5V2.5A2.5,2.5,0,0,1,40.7,0h84.45a2.5,2.5,0,0,1,2.5,2.5V121.2a2.5,2.5,0,0,1-2.5,2.5M40.7.109A2.389,2.389,0,0,0,38.316,2.5V121.2A2.389,2.389,0,0,0,40.7,123.59h84.45a2.39,2.39,0,0,0,2.387-2.387V2.5A2.39,2.39,0,0,0,125.153.109Z" transform="translate(-21.498)" fill="#d1e3ff"/><path d="M341.45,123.7H257a2.5,2.5,0,0,1-2.5-2.5V2.5A2.5,2.5,0,0,1,257,0h84.45a2.5,2.5,0,0,1,2.5,2.5V121.2a2.5,2.5,0,0,1-2.5,2.5M257,.109A2.389,2.389,0,0,0,254.614,2.5V121.2A2.389,2.389,0,0,0,257,123.59h84.45a2.39,2.39,0,0,0,2.387-2.387V2.5A2.39,2.39,0,0,0,341.45.109Z" transform="translate(-143.2)" fill="#d1e3ff"/><rect width="20.711" height="53.295" transform="translate(118.269 89.91)" fill="#b0c0d2"/><path d="M303.485,313.05h3.934V301.861h-8.058Z" transform="translate(-168.439 -169.846)" fill="#eef9ff"/><rect width="20.711" height="53.295" transform="translate(40.863 89.91)" fill="#b0c0d2"/><rect width="80.839" height="46.429" transform="translate(58.141 89.91)" fill="#eef9ff"/><rect width="36.048" height="29.065" transform="translate(99.881 93.285)" fill="#b0c0d2"/><rect width="36.048" height="29.065" transform="translate(61.192 93.285)" fill="#b0c0d2"/><rect width="36.048" height="2.14" transform="translate(99.881 129.875)" fill="#b0c0d2"/><rect width="36.048" height="2.14" transform="translate(61.192 129.875)" fill="#b0c0d2"/><rect width="36.048" height="2.14" transform="translate(99.881 125.743)" fill="#b0c0d2"/><rect width="36.048" height="2.14" transform="translate(61.192 125.743)" fill="#b0c0d2"/><path d="M169.574,215.926h-7.132a11.282,11.282,0,0,1-8.19-3.522h23.511a11.284,11.284,0,0,1-8.19,3.522" transform="translate(-86.792 -119.512)" fill="#eef9ff"/><path d="M258.871,215.926h-7.132a11.284,11.284,0,0,1-8.19-3.522H267.06a11.282,11.282,0,0,1-8.19,3.522" transform="translate(-137.036 -119.512)" fill="#eef9ff"/><path d="M136.876,313.05h-3.934V301.861H141Z" transform="translate(-74.801 -169.846)" fill="#eef9ff"/><rect width="108.643" height="62.057" transform="translate(29.89 8.326)" fill="#d1e3ff"/><path d="M177.611,14.659H59.328a.557.557,0,0,0,0,1.113H177.611a.557.557,0,1,0,0-1.113" transform="translate(-33.068 -8.248)" fill="#d1e3ff"/><path d="M0,0H109.91V62.057H0Z" transform="translate(31.002 8.326)" fill="#e3eeff"/><rect width="108.643" height="4.422" transform="translate(29.89 70.383)" fill="#a4dc88"/><rect width="109.91" height="4.422" transform="translate(34.966 70.383)" fill="#e3eeff"/><rect width="103.248" height="55.394" transform="translate(34.333 11.657)" fill="#f5fcff"/><path d="M195.338,82.049l19.553-55.394h9.23L204.568,82.049Z" transform="translate(-109.909 -14.998)" fill="#fff"/><path d="M220.977,82.049,240.53,26.655h3.6L224.576,82.049Z" transform="translate(-124.336 -14.998)" fill="#fff"/><rect width="0.423" height="55.394" transform="translate(137.158 11.657)" fill="#d1e3ff"/><rect width="5.734" height="53.452" transform="translate(28.639 5.415)" fill="#ebf3ff"/><rect width="4.467" height="53.452" transform="translate(32.139 5.415)" fill="#a4dc88"/><rect width="5.734" height="53.452" transform="translate(34.372 5.415)" fill="#ebf3ff"/><rect width="4.467" height="53.452" transform="translate(37.872 5.415)" fill="#a4dc88"/><rect width="5.734" height="53.452" transform="translate(40.106 5.415)" fill="#ebf3ff"/><rect width="3.304" height="53.452" transform="translate(132.143 5.415)" fill="#ebf3ff"/><rect width="2.574" height="53.452" transform="translate(134.16 5.415)" fill="#c2e8b0"/><rect width="3.304" height="53.452" transform="translate(135.447 5.415)" fill="#ebf3ff"/><rect width="2.574" height="53.452" transform="translate(137.464 5.415)" fill="#c2e8b0"/><rect width="3.304" height="53.452" transform="translate(138.751 5.415)" fill="#ebf3ff"/><rect width="7.33" height="19.999" transform="translate(164.777 28.601)" fill="#e3eeff"/><path d="M368.219,118.753l-1.693,4.624h1.693l10.379-4.624Z" transform="translate(-206.23 -66.818)" fill="#f3f8ff"/><path d="M366.525,118.753v4.624l10.379-4.624Z" transform="translate(-206.23 -66.818)" fill="#d1e3ff"/><path d="M408.808,118.753l-1.693,4.624h1.693l10.379-4.624Z" transform="translate(-229.068 -66.818)" fill="#f3f8ff"/><path d="M407.115,118.753v4.624l10.379-4.624Z" transform="translate(-229.068 -66.818)" fill="#d1e3ff"/><rect width="11.288" height="3.522" transform="translate(152.676 48.63)" fill="#d1e3ff"/><rect width="32.208" height="3.522" transform="translate(163.964 48.63)" fill="#f3f8ff"/><path d="M395.659,79.949h-17.84l-2.206-24.235h17.839Z" transform="translate(-211.344 -31.348)" fill="#d1e3ff"/><path d="M397.772,79.949h-17.84l-2.206-24.235h17.839Z" transform="translate(-212.533 -31.348)" fill="#eef9ff"/><path d="M386.136,80.718l-1.717-18.869h12.474l1.717,18.869Z" transform="translate(-216.298 -34.8)" fill="#fff"/><path d="M153.961,157.166s-7.691-13.258,2.979-23.812c0,0,2.785,1.815,2.742,4.255s-2.982,3.058-2.351,5.094,3.407,4.034,1.585,5.718.294,3.182.171,5.245-5.126,3.5-5.126,3.5" transform="translate(-85.119 -75.033)" fill="#d1e3ff"/><path d="M143.583,162.708S146.7,147.7,133.247,141.05c0,0-2.071,2.6-1.26,4.9s3.794,1.961,3.837,4.093-1.961,4.9.3,5.926.725,3.112,1.492,5.031,5.969,1.705,5.969,1.705" transform="translate(-74.158 -79.363)" fill="#d1e3ff"/><path d="M131.8,182.968s.256,9.891,10.061,9.891,10.061-9.891,10.061-9.891Z" transform="translate(-74.158 -102.949)" fill="#eef9ff"/><path d="M396.353,285.21h1l2.853-14.063.5-2.464,3.113-15.325h11.935l6.467,31.851h1l-6.589-32.439a.487.487,0,0,0-.48-.39H403.419a.483.483,0,0,0-.476.39l-2.734,13.46-.5,2.46Z" transform="translate(-223.013 -142.005)" fill="#ebf3ff"/><path d="M352.545,285.21h1l6.471-31.851h11.931l3.113,15.332.5,2.457,2.857,14.063h1l-3.354-16.526-.5-2.453-2.734-13.46a.49.49,0,0,0-.48-.39H359.614a.488.488,0,0,0-.48.39Z" transform="translate(-198.364 -142.005)" fill="#ebf3ff"/><path d="M380.65,193.574H358.722a7.691,7.691,0,0,1-7.689-7.534l-.817-33.326a5.6,5.6,0,0,1,5.6-5.716h13.746a5.6,5.6,0,0,1,5.566,4.967Z" transform="translate(-197.052 -82.71)" fill="#e3eeff"/><path d="M413.921,243.889H392.462v4.2h23.367a1.1,1.1,0,0,0,1.1-1.1v-.1a3,3,0,0,0-3-3" transform="translate(-220.824 -137.227)" fill="#e3eeff"/></g><g clip-path="url(#a)"><g transform="translate(51.066 16.791)" opacity="0.82" style="mix-blend-mode:multiply;isolation:isolate"><g clip-path="url(#d)"><path d="M147.286,53.671c0-.006,0-.011,0-.017s0-.009,0-.014a15.371,15.371,0,0,0-.2-2.43A15.28,15.28,0,0,0,132.146,38.4h-.133a15.371,15.371,0,0,0-2.43.2,15.156,15.156,0,0,0-9.93,6.145c-.23.319-.442.646-.646.978a.348.348,0,0,0-.042.069,15.107,15.107,0,0,0-2.2,7.855c0,.006,0,.011,0,.017s0,.009,0,.014a15.381,15.381,0,0,0,.2,2.431A15.29,15.29,0,0,0,132,68.917a15.4,15.4,0,0,0,2.468-.2,15.156,15.156,0,0,0,9.93-6.145c.23-.319.442-.646.645-.978a.316.316,0,0,0,.042-.069,15.113,15.113,0,0,0,2.2-7.855m-29.861-.345a14.461,14.461,0,0,1,2.026-7.085h4.772a24.039,24.039,0,0,0-1.13,7.085Zm7.467-7.085H131.7v7.085h-7.953a23.373,23.373,0,0,1,1.146-7.085m7.462-.655V39.062a5.325,5.325,0,0,1,2.642.972,11.656,11.656,0,0,1,3.919,5.553Zm6.795.655a22.39,22.39,0,0,1,1.051,5.051c.064.683.1,1.362.107,2.034h-7.953V46.241Zm-8.413-7.012a4.783,4.783,0,0,1,.963-.167v6.523h-6.573c1.238-3.284,3.222-5.685,5.61-6.357m.963,14.752v7.085H124.9a22.383,22.383,0,0,1-1.051-5.051c-.064-.683-.1-1.361-.107-2.034Zm0,7.74v6.525a5.326,5.326,0,0,1-2.642-.972,11.656,11.656,0,0,1-3.919-5.553Zm1.618,6.357a4.753,4.753,0,0,1-.963.167V61.721h6.573c-1.238,3.284-3.222,5.685-5.61,6.357m-.963-7.012V53.981h7.953a23.371,23.371,0,0,1-1.146,7.085Zm8.606-7.085h5.667a14.461,14.461,0,0,1-2.026,7.085H139.83a24.04,24.04,0,0,0,1.13-7.085m5.667-.655H140.96c-.008-.693-.042-1.392-.108-2.095a23.405,23.405,0,0,0-1-4.99h4.76a14.563,14.563,0,0,1,1.832,5.073,14.787,14.787,0,0,1,.184,2.012m-6.065-11.515a14.633,14.633,0,0,1,3.639,3.775h-4.573a12.351,12.351,0,0,0-4.261-6.093c-.046-.032-.093-.061-.14-.091a14.6,14.6,0,0,1,5.335,2.41m-11.753-2.4a12.341,12.341,0,0,0-4.36,6.176h-4.586c.1-.157.209-.314.321-.468a14.5,14.5,0,0,1,8.625-5.708M117.426,53.981h5.667c.008.693.042,1.392.108,2.095a23.4,23.4,0,0,0,1,4.99h-4.76a14.564,14.564,0,0,1-1.832-5.073,14.8,14.8,0,0,1-.184-2.012m2.426,7.74h4.573a12.352,12.352,0,0,0,4.261,6.093c.048.033.1.061.144.092a14.705,14.705,0,0,1-8.978-6.185M135.243,67.9a12.339,12.339,0,0,0,4.36-6.176h4.586c-.1.157-.209.314-.32.468a14.5,14.5,0,0,1-8.626,5.708" transform="translate(-116.765 -38.393)" fill="#fc8116"/></g></g><rect width="137.498" height="33.314" transform="translate(43.685 39.339)" fill="#67c53a"/><rect width="137.498" height="33.314" transform="translate(40.586 42.438)" fill="#3a8416"/><rect width="137.498" height="33.314" transform="translate(37.486 45.538)" fill="#67c53a"/><rect width="124.377" height="20.195" transform="translate(44.046 52.097)" fill="#fff"/><rect width="0.729" height="20.195" transform="translate(147.501 52.097)" fill="#afafaf"/><rect width="0.729" height="14.626" transform="translate(47.145 54.882)" fill="#85d161"/><path d="M356.281,139.7a3.226,3.226,0,1,1,2.282-.944,3.216,3.216,0,0,1-2.282.944m0-5.577a2.351,2.351,0,1,0,1.664.688,2.345,2.345,0,0,0-1.664-.688" transform="translate(-198.651 -74.971)" fill="#fc8116"/><path d="M366.592,147.216a.436.436,0,0,1-.309-.128l-2.209-2.209a.437.437,0,1,1,.618-.618l2.209,2.209a.437.437,0,0,1-.309.747" transform="translate(-204.778 -81.098)" fill="#fc8116"/><rect width="13.75" height="0.341" transform="translate(114.212 19.199)" fill="#a4dc88"/><rect width="13.75" height="0.341" transform="translate(114.212 20.648)" fill="#a4dc88"/><rect width="13.75" height="0.341" transform="translate(114.212 22.097)" fill="#a4dc88"/><rect width="13.75" height="0.341" transform="translate(114.212 23.546)" fill="#a4dc88"/><rect width="13.75" height="0.341" transform="translate(114.212 24.995)" fill="#a4dc88"/><rect width="8.965" height="0.341" transform="translate(114.212 26.444)" fill="#a4dc88"/><rect width="14.651" height="0.218" transform="translate(30.547 81.732)" fill="#9fc6ff"/><rect width="14.651" height="0.218" transform="translate(30.547 82.66)" fill="#9fc6ff"/><rect width="14.651" height="0.218" transform="translate(30.547 83.588)" fill="#9fc6ff"/><rect width="14.651" height="0.218" transform="translate(30.547 84.515)" fill="#9fc6ff"/><rect width="14.651" height="0.218" transform="translate(30.547 85.443)" fill="#9fc6ff"/><rect width="9.209" height="0.218" transform="translate(30.546 86.371)" fill="#9fc6ff"/><path d="M209.89,48.809h0a2.764,2.764,0,0,0-2.764,2.764v9.119a2.764,2.764,0,0,0,5.529,0V51.573a2.764,2.764,0,0,0-2.764-2.764" transform="translate(-116.542 -27.463)" fill="#85d161"/><path d="M225.729,36.381h0a2.764,2.764,0,0,0-2.764,2.764V53.7a2.764,2.764,0,1,0,5.529,0V39.145a2.764,2.764,0,0,0-2.764-2.764" transform="translate(-125.454 -20.47)" fill="#3a8416"/><path d="M241.568,61.238h0A2.764,2.764,0,0,0,238.8,64v3.683a2.764,2.764,0,1,0,5.529,0V64a2.764,2.764,0,0,0-2.764-2.764" transform="translate(-134.366 -34.456)" fill="#c2e8b0"/><path d="M368.443,178.719h11.175l-19.078-19.785Z" transform="translate(-202.863 -89.426)" fill="#fc8116"/><g transform="translate(154.84 69.508)" style="mix-blend-mode:multiply;isolation:isolate"><g clip-path="url(#e)"><path d="M354.052,168.278l2.838-9.344,1.608,9.344Z" transform="translate(-354.052 -158.934)" fill="#9fc6ff"/></g></g><path d="M360.541,158.934v27.687l1.975-1.975,5.927-5.927Z" transform="translate(-202.863 -89.426)" fill="#fec08a"/><path d="M368.191,23.16H343.7a4.7,4.7,0,0,0-4.685,4.685V40.49a4.7,4.7,0,0,0,4.685,4.684h17.969L361.54,49.6l4.537-4.423h2.113a4.7,4.7,0,0,0,4.685-4.684V27.845a4.7,4.7,0,0,0-4.685-4.685m-25.045,5.389a1.315,1.315,0,0,1,1.31-1.311h5.635a1.3,1.3,0,0,1,0,2.6h-5.635a1.311,1.311,0,0,1-1.31-1.294M366.8,40.785h-9.746a1.294,1.294,0,1,1,0-2.588H366.8a1.294,1.294,0,0,1,0,2.588m0-5.471H345.767a1.294,1.294,0,1,1,0-2.588H366.8a1.294,1.294,0,0,1,0,2.588m0-5.471H354.35a1.3,1.3,0,0,1,0-2.6H366.8a1.3,1.3,0,0,1,0,2.6" transform="translate(-190.753 -13.031)" fill="#fc8116"/><path d="M261.306,104.824a23.488,23.488,0,0,0-4.7-7.776H221.831a23.485,23.485,0,0,0-4.7,7.776l4.811,23.949a23.5,23.5,0,0,0,39.365-23.949" transform="translate(-122.171 -54.605)" fill="#67c53a"/><path d="M260.881,123.938a23.419,23.419,0,0,1-6.193,14.839H220.13a23.534,23.534,0,0,1-4.811-23.949h44.175a23.361,23.361,0,0,1,1.386,9.11" transform="translate(-120.36 -64.609)" fill="#fff"/><g transform="translate(93.875 35.534)" opacity="0.4"><g clip-path="url(#g)"><path d="M251.07,84.557l-33.789,30.814c-.174-.312-.339-.628-.5-.947a23.183,23.183,0,0,1-2.129-6.557v0l29.184-26.615a23.312,23.312,0,0,1,7.233,3.308" transform="translate(-214.652 -81.249)" fill="#d4e8ff"/></g></g><g transform="translate(99.048 41.714)" opacity="0.4"><g clip-path="url(#h)"><path d="M266.765,104.451,235,133.419a23.473,23.473,0,0,1-8.518-6.4l34.69-31.635a23.508,23.508,0,0,1,5.6,9.07" transform="translate(-226.48 -95.381)" fill="#d4e8ff"/></g></g><path d="M256.233,84.769a27.1,27.1,0,1,0-9.91,37.017,27.1,27.1,0,0,0,9.91-37.017m-41.977,24.245a21.38,21.38,0,1,1,29.208,7.823,21.379,21.379,0,0,1-29.208-7.823" transform="translate(-115.723 -40.073)" fill="#727997"/><path d="M123.119,196.937l3.349.781-2.774,2.072s-1.991-.9-2.083-2.316Z" transform="translate(-68.425 -110.809)" fill="#ff8b7b"/><path d="M130.943,200.952l-2.416,1.609-2.153-1.766,2.774-2.072Z" transform="translate(-71.106 -111.814)" fill="#ff8b7b"/><path d="M160.922,159.52c-3.561,2.631-7.209,5.113-10.882,7.552s-7.385,4.809-11.12,7.14-7.5,4.613-11.288,6.849c-1.887,1.131-3.8,2.223-5.695,3.336a11.21,11.21,0,0,1-3.036,1.343,9.44,9.44,0,0,1-1.738.291,7.336,7.336,0,0,1-1.964-.1,3.591,3.591,0,0,1-2.824-4.221,3.986,3.986,0,0,1,.122-.457,7.325,7.325,0,0,1,.893-1.752,9.386,9.386,0,0,1,1.12-1.359,11.2,11.2,0,0,1,2.68-1.958c1.912-1.087,3.812-2.2,5.736-3.266,3.83-2.167,7.695-4.272,11.573-6.355s7.8-4.1,11.741-6.065,7.92-3.882,11.979-5.652a2.718,2.718,0,0,1,2.7,4.678" transform="translate(-63.191 -86.996)" fill="#727997"/><path d="M125.941,147.091c-.218.352-.47.783-.7,1.183s-.467.825-.688,1.246c-.454.836-.891,1.684-1.3,2.546s-.792,1.733-1.151,2.614c-.171.443-.356.883-.517,1.328l-.245.669c-.049.126-.057.178-.089.268s-.046.181-.07.27a13.59,13.59,0,0,0-.256,2.636c-.024.938.01,1.9.049,2.863s.108,1.938.2,2.911c.068.973.174,1.956.264,2.919l-1.689.347c-.3-.978-.527-1.947-.761-2.93-.213-.984-.407-1.975-.574-2.977s-.288-2.018-.362-3.06a15.385,15.385,0,0,1,.083-3.282c.029-.152.048-.3.087-.455s.08-.338.114-.446l.214-.743c.142-.5.3-.984.468-1.472.338-.972.7-1.933,1.115-2.874s.849-1.869,1.324-2.781c.24-.455.492-.9.75-1.352s.518-.876.838-1.354Z" transform="translate(-66.393 -81.68)" fill="#ff8b7b"/><path d="M130.657,354.941a4.165,4.165,0,0,1-.9-.122.081.081,0,0,1-.026-.146c.117-.077,1.152-.742,1.546-.565a.274.274,0,0,1,.161.227.46.46,0,0,1-.133.428.977.977,0,0,1-.649.178m-.67-.237a1.611,1.611,0,0,0,1.211-.06.3.3,0,0,0,.082-.286.114.114,0,0,0-.067-.1c-.209-.093-.805.193-1.226.448" transform="translate(-72.975 -199.227)" fill="#0053cc"/><path d="M129.777,353.793a.085.085,0,0,1-.041-.011.081.081,0,0,1-.04-.07c0-.042,0-1.022.375-1.35a.415.415,0,0,1,.341-.108.279.279,0,0,1,.271.224c.077.384-.542,1.118-.867,1.3a.081.081,0,0,1-.04.01m.579-1.38a.264.264,0,0,0-.178.07,1.848,1.848,0,0,0-.315,1.072c.324-.259.71-.81.663-1.044-.007-.038-.03-.084-.133-.1l-.036,0" transform="translate(-72.976 -198.198)" fill="#0053cc"/><path d="M165.844,354.942a5.778,5.778,0,0,1-1.071-.122.08.08,0,0,1-.021-.15c.153-.08,1.509-.772,1.927-.544a.259.259,0,0,1,.137.214.447.447,0,0,1-.146.393,1.279,1.279,0,0,1-.826.21m-.8-.237a2.173,2.173,0,0,0,1.521-.093.289.289,0,0,0,.093-.258.1.1,0,0,0-.054-.087c-.226-.124-1,.171-1.56.439" transform="translate(-92.674 -199.227)" fill="#0053cc"/><path d="M164.788,353.794a.077.077,0,0,1-.046-.015.08.08,0,0,1-.034-.072,2.273,2.273,0,0,1,.51-1.312.592.592,0,0,1,.447-.139c.223.022.288.136.3.227.063.385-.74,1.12-1.145,1.3a.087.087,0,0,1-.033.007m.811-1.38a.423.423,0,0,0-.279.1,1.867,1.867,0,0,0-.434,1.051c.414-.251.959-.829.921-1.06,0-.019-.013-.078-.16-.093l-.049,0" transform="translate(-92.675 -198.199)" fill="#0053cc"/><path d="M147.172,119.541c.264,2.041.892,6.183-.606,7.437,0,0,.418,2.081,4.164,2.324,4.119.268,2.1-1.917,2.1-1.917-2.213-.683-2.047-2.347-1.553-3.888Z" transform="translate(-82.467 -67.261)" fill="#ff8b7b"/><path d="M165.267,108.621a.158.158,0,0,1-.076-.019.161.161,0,0,1-.066-.219,1.6,1.6,0,0,1,1.2-.859.163.163,0,0,1,.174.147.161.161,0,0,1-.146.174,1.279,1.279,0,0,0-.939.691.161.161,0,0,1-.142.085" transform="translate(-92.899 -60.499)" fill="#0f264c"/><path d="M168.159,114.15A7.346,7.346,0,0,0,169.3,115.8a1.181,1.181,0,0,1-.957.275Z" transform="translate(-94.617 -64.228)" fill="#ff5652"/><path d="M167.494,112.451c.026.273.192.482.37.464s.3-.252.277-.526-.192-.481-.37-.464-.3.252-.277.526" transform="translate(-94.24 -62.976)" fill="#0f264c"/><path d="M167.954,111.656l.639-.251s-.289.544-.639.251" transform="translate(-94.501 -62.683)" fill="#0f264c"/><path d="M156.332,345.448h3.4l.227-7.884h-3.4Z" transform="translate(-87.962 -189.934)" fill="#ff8b7b"/><path d="M120.962,345.448h3.4l1.094-7.884h-3.4Z" transform="translate(-68.061 -189.934)" fill="#ff8b7b"/><path d="M123.392,354.69h-3.825a.27.27,0,0,0-.272.233l-.436,3.026a.547.547,0,0,0,.546.606c1.333-.023,1.976-.1,3.658-.1,1.035,0,2.547.108,3.976.108,1.4,0,1.5-1.413.91-1.541a6.664,6.664,0,0,1-3.989-2.12.886.886,0,0,0-.569-.209" transform="translate(-66.875 -199.571)" fill="#14365b"/><path d="M158.546,354.69h-3.825a.27.27,0,0,0-.272.233l-.436,3.026a.547.547,0,0,0,.546.606c1.333-.023,1.976-.1,3.658-.1,1.035,0,3.176.108,4.6.108,1.4,0,1.505-1.413.91-1.541a9.229,9.229,0,0,1-4.617-2.12.887.887,0,0,0-.569-.209" transform="translate(-86.655 -199.571)" fill="#14365b"/><path d="M160.1,337.568l-.116,4.064h-3.406l.116-4.064Z" transform="translate(-88.102 -189.937)" fill="#ea7063"/><path d="M122.734,337.568h3.406l-.566,4.064h-3.406Z" transform="translate(-68.74 -189.937)" fill="#ea7063"/><path d="M130.556,143.232a17.467,17.467,0,0,1-2.235,2.808l-.389-.258L123.62,142.9s2.366-5.213,4.124-5.5c1.692-.271,2.926,1.478,3.507,3.35a3.389,3.389,0,0,1-.7,2.48" transform="translate(-69.556 -77.295)" fill="#67c53a"/><path d="M136.1,149.378a17.467,17.467,0,0,1-2.235,2.808l-.389-.258c.192-1.574.8-3.136,1.5-3.63.429.044.809.5,1.12,1.08" transform="translate(-75.104 -83.442)" fill="#3a8416"/><path d="M150.613,145.381v0c-.206,1.308-.472,2.856-.831,4.688-.455,2.344-1.05,5.156-1.824,8.519-5.475-.359-11.135-.726-13.8-.9.595-5.6.827-9.066-1.111-20.765a40.593,40.593,0,0,1,5.913-.389,43.979,43.979,0,0,1,6.263.407c2.676.42,5.685,1.242,5.685,1.242s.77.328-.3,7.19" transform="translate(-74.862 -76.825)" fill="#529d2e"/><path d="M169.716,156.359v0c-.206,1.308-.472,2.856-.831,4.688a33.887,33.887,0,0,1-1.885-5h2.563Z" transform="translate(-93.965 -87.802)" fill="#3a8416"/><path d="M146.2,106.042c.523,3.338.673,4.762,2.531,6.326,2.8,2.352,6.781.98,7.266-2.448.437-3.085-.492-8.026-3.9-9.052a4.608,4.608,0,0,0-5.893,5.174" transform="translate(-82.229 -56.638)" fill="#ff8b7b"/><path d="M137.655,185.574s-.219,6.075-.743,13.737c-.437,6.429-1.1,13.969-2.02,19.978-.009.057-.018.109-.026.166-1.658,10.636-9,35.5-9,35.5H121.22s3.827-24.01,4.666-34.532c2.13-26.621-3.206-29.634,1.618-35.5Z" transform="translate(-68.206 -104.046)" fill="#455a64"/><path d="M151.4,209.225c-.437,6.429-1.1,13.969-2.02,19.978-1.57-7.806-4.15-19.208-.687-26.665.827,2.108,1.8,4.5,2.707,6.687" transform="translate(-82.698 -113.96)" fill="#2d3e46"/><path d="M154.136,186.119s3.925,23.332,3.7,33.714c-.232,10.8-4.189,35.428-4.189,35.428h-4.6s.729-24,.322-34.6c-.444-11.562-5.335-35.194-5.335-35.194Z" transform="translate(-81.041 -104.353)" fill="#455a64"/><path d="M153.422,342.887h6.171l.482-2.071-6.871.048Z" transform="translate(-86.201 -191.764)" fill="#0f264c"/><path d="M119.682,342.887h6.171l.482-2.071-6.609.048Z" transform="translate(-67.34 -191.764)" fill="#0f264c"/><path d="M134.312,182.916l-.7,1.195c-.055.092.052.2.212.208l14.47.94c.125.008.231-.046.244-.124l.2-1.227c.014-.085-.089-.164-.225-.173l-13.973-.908a.25.25,0,0,0-.231.089" transform="translate(-75.169 -102.869)" fill="#0f264c"/><path d="M138.655,184.583l-.374-.024c-.074,0-.129-.047-.121-.094l.28-1.593c.008-.046.076-.081.15-.076l.374.024c.074,0,.129.047.121.094l-.28,1.593c-.008.047-.076.081-.15.076" transform="translate(-77.737 -102.852)" fill="#727997"/><path d="M159.4,185.93l-.374-.024c-.074,0-.129-.047-.121-.094l.28-1.593c.008-.046.076-.08.15-.076l.374.024c.074,0,.129.047.121.094l-.28,1.593c-.008.047-.076.081-.15.076" transform="translate(-89.407 -103.61)" fill="#727997"/><path d="M171.372,148.361c.523,1.753,1.023,3.52,1.509,5.287l1.464,5.287.184.656.046.164.023.081.014.042a1.349,1.349,0,0,0,.057.172,2.651,2.651,0,0,0,.457.734,7.127,7.127,0,0,0,1.792,1.382,22.941,22.941,0,0,0,4.8,1.941l-.25,1.706a18.25,18.25,0,0,1-5.721-1.235,9.081,9.081,0,0,1-2.75-1.7,5.424,5.424,0,0,1-1.141-1.5,4.448,4.448,0,0,1-.206-.464l-.048-.119-.03-.084-.058-.164-.232-.658q-.915-2.631-1.717-5.274c-.549-1.762-1.068-3.527-1.548-5.311Z" transform="translate(-94.54 -83.477)" fill="#ff8b7b"/><path d="M168.112,139.88c1.746.572,3.586,6.294,3.586,6.294l-6.316,2.718s-2.639-6.419-1.462-7.888c1.226-1.531,2.184-1.782,4.191-1.124" transform="translate(-92.062 -78.513)" fill="#67c53a"/><path d="M146.05,99.116c-1.118-1.379-9.733-2.363-10.193,1.39-3.052,2.142-.155,7.678.282,9.088-2.114.583-8.916,2.914-3.96,7.433s12.451,3.75,13.914-.926c1.023-3.271-2.228-8.742-2.155-10.662s4.021-3.968,2.112-6.323" transform="translate(-73.375 -55.075)" fill="#0f264c"/><path d="M141.2,113.676a.109.109,0,0,1-.084-.04c-.792-.965-3.543-6.017-2.578-8.426a2.093,2.093,0,0,1,1.848-1.3.109.109,0,1,1,.026.217,1.888,1.888,0,0,0-1.671,1.165c-.932,2.328,1.769,7.261,2.544,8.206a.109.109,0,0,1-.084.179" transform="translate(-77.837 -58.465)" fill="#0f264c"/><path d="M159.818,113.277a2.889,2.889,0,0,0,.857,1.671c.621.593,1.207.186,1.264-.568.052-.679-.209-1.805-.944-2.117s-1.271.255-1.177,1.014" transform="translate(-89.918 -63.118)" fill="#ff8b7b"/><path d="M192.633,182.206l2.487-.844-.391,2.983a2.159,2.159,0,0,1-2.245-.662l-1.212-.776.953-.521a2.6,2.6,0,0,1,.409-.18" transform="translate(-107.621 -102.045)" fill="#ff8b7b"/><path d="M201.3,181.341l-.761,2.609-1.365.384.391-2.983Z" transform="translate(-112.069 -102.033)" fill="#ff8b7b"/></g></g></g><path d="M80.948,160.875a10.252,10.252,0,0,1,2.5-1.087l.515-2.477,4.184-.073.6,2.457a10.247,10.247,0,0,1,2.539,1l2.115-1.386,3.011,2.907-1.311,2.162a10.255,10.255,0,0,1,1.087,2.5l2.476.515.073,4.184-2.457.6a10.246,10.246,0,0,1-1,2.539l1.386,2.115-2.907,3.011L91.6,178.535a10.254,10.254,0,0,1-2.5,1.087l-.515,2.477-4.184.073-.6-2.457a10.275,10.275,0,0,1-2.539-1L79.147,180.1,76.136,177.2l1.311-2.162a10.249,10.249,0,0,1-1.087-2.5l-2.476-.515-.074-4.184,2.457-.6a10.275,10.275,0,0,1,1-2.539l-1.386-2.115,2.907-3.011Zm2.231,5.574a4.49,4.49,0,1,0,6.348-.112,4.49,4.49,0,0,0-6.348.112" transform="translate(108.682 -89.84)" fill="#fff" opacity="0.63"/><path d="M80.948,160.875a10.252,10.252,0,0,1,2.5-1.087l.515-2.477,4.184-.073.6,2.457a10.247,10.247,0,0,1,2.539,1l2.115-1.386,3.011,2.907-1.311,2.162a10.255,10.255,0,0,1,1.087,2.5l2.476.515.073,4.184-2.457.6a10.246,10.246,0,0,1-1,2.539l1.386,2.115-2.907,3.011L91.6,178.535a10.254,10.254,0,0,1-2.5,1.087l-.515,2.477-4.184.073-.6-2.457a10.275,10.275,0,0,1-2.539-1L79.147,180.1,76.136,177.2l1.311-2.162a10.249,10.249,0,0,1-1.087-2.5l-2.476-.515-.074-4.184,2.457-.6a10.275,10.275,0,0,1,1-2.539l-1.386-2.115,2.907-3.011Zm2.231,5.574a4.49,4.49,0,1,0,6.348-.112,4.49,4.49,0,0,0-6.348.112" transform="translate(-60.957 -60.153)" fill="#fff" opacity="0.63"/><path d="M80.948,160.875a10.252,10.252,0,0,1,2.5-1.087l.515-2.477,4.184-.073.6,2.457a10.247,10.247,0,0,1,2.539,1l2.115-1.386,3.011,2.907-1.311,2.162a10.255,10.255,0,0,1,1.087,2.5l2.476.515.073,4.184-2.457.6a10.246,10.246,0,0,1-1,2.539l1.386,2.115-2.907,3.011L91.6,178.535a10.254,10.254,0,0,1-2.5,1.087l-.515,2.477-4.184.073-.6-2.457a10.275,10.275,0,0,1-2.539-1L79.147,180.1,76.136,177.2l1.311-2.162a10.249,10.249,0,0,1-1.087-2.5l-2.476-.515-.074-4.184,2.457-.6a10.275,10.275,0,0,1,1-2.539l-1.386-2.115,2.907-3.011Zm2.231,5.574a4.49,4.49,0,1,0,6.348-.112,4.49,4.49,0,0,0-6.348.112" transform="translate(70.513 -32.587)" fill="#fff" opacity="0.63"/></g></g></svg>