<svg xmlns="http://www.w3.org/2000/svg" xmlns:xlink="http://www.w3.org/1999/xlink" width="295" height="191.089" viewBox="0 0 295 191.089"><defs><clipPath id="a"><rect width="204.873" height="191.089" fill="none"/></clipPath><clipPath id="c"><rect width="6.81" height="20.378" fill="none"/></clipPath><clipPath id="f"><rect width="35.268" height="21.65" fill="none"/></clipPath><clipPath id="g"><rect width="34.159" height="19.801" fill="none"/></clipPath><clipPath id="h"><rect width="21.911" height="15.676" fill="none"/></clipPath><clipPath id="i"><rect width="29.647" height="7.734" fill="none"/></clipPath><clipPath id="n"><rect width="10.235" height="8.853" fill="#a4dc88"/></clipPath><clipPath id="q"><rect width="1.411" height="1.434" fill="none"/></clipPath></defs><g transform="translate(-1125 -6083.634)"><rect width="295" height="161" rx="19" transform="translate(1125 6106.366)" fill="#e1f3d7"/><g transform="translate(1170.063 6083.634)"><g clip-path="url(#a)"><g clip-path="url(#a)"><path d="M359.753,31.458,349.565,67.4a1.953,1.953,0,0,1-2.531,1.308l-26.556-8.968,10.6-36.476,27.035,5.5a2.148,2.148,0,0,1,1.638,2.69" transform="translate(-180.187 -13.083)" fill="#ff725e"/><path d="M347.034,68.716c-.043-.012-.085-.026-.128-.041l-26.615-8.988.018-.061,10.618-36.534,27.1,5.511a2.214,2.214,0,0,1,1.689,2.774L349.523,67.322a2.019,2.019,0,0,1-2.49,1.393" transform="translate(-180.082 -12.983)" fill="#a4dc88"/><path d="M390.144,34.995l2.233,1.577L381.921,73.46l-.216.762-2.68-.764Z" transform="translate(-213.105 -19.676)" fill="#ebebeb"/><path d="M331.041,22.947s10.639-.981,26.25,5.094L346.125,66.7l-25.561-7.847Z" transform="translate(-180.235 -12.869)" fill="#fff"/><path d="M330.991,22.937s-.016.059-.048.172l-.144.5-.565,1.952-2.139,7.36-7.55,25.927-.021-.039,25.562,7.844-.044.024.418-1.447,10.754-37.208.017.034a82.552,82.552,0,0,0-10.59-3.339,68.813,68.813,0,0,0-8.347-1.492,50.232,50.232,0,0,0-5.4-.339l-.822.006-.6.018-.484.026.122-.011.362-.023.6-.022.823-.01a49.394,49.394,0,0,1,5.4.324,68.469,68.469,0,0,1,8.354,1.48A82.226,82.226,0,0,1,357.251,28l.024.009-.007.025L346.527,65.25l-.418,1.447-.01.034-.034-.01-25.56-7.851-.029-.009.009-.029L328.067,32.9l2.154-7.35.572-1.945.148-.5c.033-.112.051-.168.051-.168" transform="translate(-180.186 -12.859)" fill="#e0e0e0"/><path d="M342.677,22.608c-.691,2.783-3.478,12.8-3.478,12.8l2.035-1.715.958,2.2,3.674-14-2.286,0a.931.931,0,0,0-.9.706" transform="translate(-190.713 -12.312)" fill="#a4dc88"/><path d="M380.82,74.355s.007-.034.025-.1.045-.164.079-.291l.311-1.115c.275-.97.673-2.369,1.165-4.1.991-3.458,2.387-8.227,3.939-13.49l3.96-13.486,1.186-4.091.323-1.112.086-.289c.02-.065.032-.1.032-.1s-.007.034-.025.1l-.079.29-.311,1.116-1.165,4.1c-.991,3.457-2.387,8.227-3.94,13.492s-2.945,10.032-3.959,13.484l-1.186,4.091-.324,1.112-.086.289c-.02.065-.032.1-.032.1" transform="translate(-214.114 -20.345)" fill="#e0e0e0"/><path d="M382.431,75.057c-.018-.005,2.406-8.512,5.415-19s5.464-18.985,5.482-18.98-2.405,8.51-5.415,19-5.463,18.984-5.481,18.978" transform="translate(-215.019 -20.847)" fill="#e0e0e0"/><path d="M264.115.87,253.569,38.079a1.278,1.278,0,0,0,1,1.552l28.262,7.03c.682.156.6-1.193.779-1.818L285.893,8.1a1.266,1.266,0,0,0-.866-1.513L265.783.075a1.278,1.278,0,0,0-1.668.795" transform="translate(-142.543 0)" fill="#a4dc88"/><path d="M274.226,1.949,263.465,41.108,288.585,47.2l10.439-35.914Z" transform="translate(-148.131 -1.096)" fill="#ebebeb"/><path d="M279.165,1.96s15.82,1.478,22.221,9.576L290.948,47.451l-23-5.912Z" transform="translate(-150.652 -1.102)" fill="#fff"/><path d="M279.473,1.393,268.287,40.981l-.023-.04,21.672,5.568,1.329.342-.042.024,10.445-35.913,0,.025c-.309-.356-.594-.727-.925-1.049l-.239-.248c-.079-.083-.158-.165-.244-.24l-.5-.46a19.751,19.751,0,0,0-2.085-1.6c-.7-.485-1.428-.9-2.132-1.288-.358-.185-.71-.371-1.061-.542l-.526-.249c-.173-.084-.347-.164-.521-.238a40.213,40.213,0,0,0-3.949-1.5c-1.239-.4-2.389-.715-3.431-.972-2.086-.513-3.739-.8-4.863-.97-.563-.086-.994-.144-1.284-.179l-.44-.053s.15.011.441.045.722.088,1.286.171c1.126.168,2.78.448,4.868.956,1.044.255,2.2.568,3.436.967a40.1,40.1,0,0,1,3.956,1.5c.175.074.348.153.522.237l.527.249c.352.171.7.357,1.063.542.707.391,1.431.8,2.138,1.288a19.777,19.777,0,0,1,2.092,1.6l.5.461c.086.075.166.158.245.241l.24.249c.331.324.619.694.929,1.052l.009.01,0,.014L291.29,46.893l-.01.032-.032-.008-1.329-.341L268.247,41l-.032-.008.009-.032,11.249-39.57" transform="translate(-150.802 -0.783)" fill="#e0e0e0"/><path d="M266.612,2.224l3.466-.274-10.76,39.159-3.229-1.753Z" transform="translate(-143.984 -1.096)" fill="#ebebeb"/><path d="M258.582,39.2c-.018-.005,2.289-8.2,5.152-18.306s5.2-18.294,5.219-18.289-2.288,8.2-5.153,18.307-5.2,18.292-5.219,18.287" transform="translate(-145.386 -1.465)" fill="#e0e0e0"/><path d="M274.78,15.9l-4.538,5.452,1.533,5.148Z" transform="translate(-151.942 -8.942)" fill="#a4dc88"/><path d="M260.665,41.454c-.018-.005,2.18-7.82,4.911-17.453s4.959-17.441,4.978-17.436-2.18,7.819-4.911,17.455-4.959,17.439-4.977,17.434" transform="translate(-146.557 -3.691)" fill="#e0e0e0"/><path d="M261.664,42.6c-.018-.005,2.3-8.258,5.188-18.431s5.237-18.419,5.255-18.414-2.3,8.257-5.188,18.433S261.682,42.6,261.664,42.6" transform="translate(-147.119 -3.235)" fill="#e0e0e0"/><path d="M314.688,22.034a3.537,3.537,0,0,1-.534-.329c-.334-.226-.824-.54-1.439-.913A31.744,31.744,0,0,0,302.3,16.76c-.706-.138-1.28-.236-1.678-.294A3.55,3.55,0,0,1,300,16.35a3.451,3.451,0,0,1,.627.033c.4.032.983.107,1.7.227A28.378,28.378,0,0,1,312.8,20.663c.607.391,1.087.726,1.406.974a3.486,3.486,0,0,1,.486.4" transform="translate(-168.674 -9.189)" fill="#e0e0e0"/><path d="M312.583,29.087a3.533,3.533,0,0,1-.534-.329c-.334-.226-.824-.54-1.439-.913a31.744,31.744,0,0,0-10.419-4.033c-.706-.138-1.28-.236-1.678-.294a3.55,3.55,0,0,1-.616-.116,3.452,3.452,0,0,1,.627.033c.4.032.983.107,1.7.227a28.357,28.357,0,0,1,10.472,4.053c.607.391,1.087.726,1.406.974a3.488,3.488,0,0,1,.486.4" transform="translate(-167.491 -13.155)" fill="#e0e0e0"/><path d="M310.478,36.141a3.551,3.551,0,0,1-.534-.329c-.333-.226-.824-.54-1.438-.913a31.744,31.744,0,0,0-10.419-4.033c-.706-.138-1.28-.236-1.678-.294a3.467,3.467,0,0,1-.616-.117,3.538,3.538,0,0,1,.627.033c.4.032.983.107,1.7.227a28.38,28.38,0,0,1,10.472,4.053c.608.391,1.087.726,1.406.974a3.483,3.483,0,0,1,.486.4" transform="translate(-166.307 -17.121)" fill="#e0e0e0"/><path d="M308.373,43.194a3.536,3.536,0,0,1-.534-.329c-.334-.226-.824-.54-1.439-.913a31.745,31.745,0,0,0-10.419-4.033c-.706-.138-1.28-.236-1.678-.294a3.466,3.466,0,0,1-.616-.117,3.539,3.539,0,0,1,.627.033c.4.032.983.107,1.7.227a28.372,28.372,0,0,1,10.472,4.053c.608.391,1.087.726,1.407.974a3.487,3.487,0,0,1,.486.4" transform="translate(-165.124 -21.086)" fill="#e0e0e0"/><path d="M306.787,50.634a3.552,3.552,0,0,1-.534-.329c-.333-.226-.824-.54-1.438-.913A31.744,31.744,0,0,0,294.4,45.36c-.706-.138-1.28-.236-1.678-.294a3.5,3.5,0,0,1-.616-.116,3.452,3.452,0,0,1,.627.033c.4.032.983.107,1.7.227a28.38,28.38,0,0,1,10.472,4.053c.608.391,1.087.726,1.407.974a3.484,3.484,0,0,1,.486.4" transform="translate(-164.232 -25.269)" fill="#e0e0e0"/><path d="M304.584,60a3.9,3.9,0,0,1-.561-.346c-.174-.12-.391-.26-.647-.417s-.541-.345-.869-.532c-.645-.393-1.439-.815-2.33-1.265s-1.9-.886-2.972-1.3-2.119-.755-3.077-1.036-1.833-.489-2.575-.633c-.369-.083-.706-.139-1-.192s-.55-.1-.759-.127a3.822,3.822,0,0,1-.647-.122,3.824,3.824,0,0,1,.658.039c.212.016.469.046.767.091s.639.088,1.011.161c.749.126,1.63.334,2.6.592s2.018.611,3.1,1.026,2.085.879,2.982,1.329,1.682.9,2.321,1.313c.325.2.608.391.856.562s.462.319.629.449a3.848,3.848,0,0,1,.513.415" transform="translate(-162.571 -30.373)" fill="#e0e0e0"/><path d="M301.907,68.884a3.862,3.862,0,0,1-.584-.313c-.365-.218-.9-.514-1.577-.868a38.979,38.979,0,0,0-5.466-2.3c-2.2-.743-4.235-1.269-5.709-1.65l-1.746-.453a3.909,3.909,0,0,1-.634-.192,3.882,3.882,0,0,1,.653.11c.418.085,1.02.214,1.763.386,1.484.343,3.534.847,5.742,1.594a33.852,33.852,0,0,1,5.468,2.368c.666.373,1.2.69,1.549.931a3.894,3.894,0,0,1,.54.385" transform="translate(-160.909 -35.481)" fill="#e0e0e0"/><path d="M298.077,78.676a3.81,3.81,0,0,1-.6-.267c-.378-.183-.926-.446-1.615-.742a48.263,48.263,0,0,0-5.506-2c-2.194-.657-4.221-1.108-5.694-1.4-.737-.143-1.335-.253-1.749-.323a3.748,3.748,0,0,1-.64-.135,3.781,3.781,0,0,1,.652.052c.419.045,1.022.131,1.764.255a48.536,48.536,0,0,1,5.729,1.338,40.378,40.378,0,0,1,5.507,2.068c.684.316,1.224.6,1.591.807a3.772,3.772,0,0,1,.559.341" transform="translate(-158.707 -41.499)" fill="#e0e0e0"/><path d="M366.5,37.708a4.894,4.894,0,0,1-.715-.212c-.454-.152-1.115-.365-1.934-.616-1.637-.5-3.921-1.132-6.482-1.646s-4.913-.814-6.617-.978c-.853-.083-1.544-.142-2.022-.176a4.939,4.939,0,0,1-.742-.08.656.656,0,0,1,.193-.012l.553.007c.48.009,1.174.044,2.03.108A55.5,55.5,0,0,1,363.9,36.734c.815.271,1.469.506,1.916.682l.513.206a.65.65,0,0,1,.174.085" transform="translate(-195.657 -19.109)" fill="#e0e0e0"/><path d="M363.614,53.358a.73.73,0,0,1-.2-.038l-.559-.148-2.049-.56c-1.731-.466-4.133-1.072-6.81-1.636S348.878,50,347.1,49.73l-2.1-.313-.571-.089a.729.729,0,0,1-.2-.046.7.7,0,0,1,.2,0l.576.049c.5.046,1.222.129,2.112.246,1.78.232,4.233.623,6.916,1.186s5.083,1.2,6.806,1.7c.862.252,1.556.467,2.032.626l.547.187a.728.728,0,0,1,.186.079" transform="translate(-193.545 -27.705)" fill="#e0e0e0"/><path d="M360.43,60.629a.753.753,0,0,1-.2-.037l-.57-.145-2.088-.56c-1.762-.473-4.2-1.108-6.91-1.753s-5.174-1.175-6.961-1.546l-2.116-.44-.574-.127a.753.753,0,0,1-.2-.059.738.738,0,0,1,.206.016l.581.087c.5.079,1.233.206,2.131.373,1.8.334,4.269.841,6.981,1.486s5.148,1.305,6.9,1.816c.877.255,1.584.469,2.071.626l.559.185a.758.758,0,0,1,.19.078" transform="translate(-191.619 -31.463)" fill="#e0e0e0"/><path d="M358.266,69.378c-.015.058-4.4-1.05-9.788-2.474s-9.749-2.626-9.734-2.684,4.4,1.05,9.789,2.475,9.748,2.626,9.733,2.683" transform="translate(-190.457 -36.106)" fill="#e0e0e0"/><path d="M356.975,78.8c-.016.058-4.378-1.083-9.741-2.548s-9.7-2.7-9.685-2.757,4.377,1.083,9.742,2.548,9.7,2.7,9.684,2.757" transform="translate(-189.785 -41.32)" fill="#e0e0e0"/><path d="M354.485,87.88c-.018.057-4.337-1.223-9.647-2.859s-9.6-3.009-9.584-3.066,4.336,1.223,9.648,2.859,9.6,3.009,9.583,3.065" transform="translate(-188.494 -46.078)" fill="#e0e0e0"/><path d="M352.373,97.559c-.017.057-3.844-1.041-8.546-2.453s-8.5-2.6-8.485-2.66,3.843,1.041,8.547,2.453,8.5,2.6,8.484,2.66" transform="translate(-188.544 -51.976)" fill="#e0e0e0"/><path d="M366.234,46.255a.681.681,0,0,1-.193-.041l-.54-.156-1.982-.582c-1.675-.481-4.006-1.089-6.612-1.619s-4.991-.876-6.722-1.086l-2.051-.236-.558-.066a.674.674,0,0,1-.193-.038.671.671,0,0,1,.2-.005l.562.026c.488.025,1.192.081,2.061.168,1.738.172,4.133.5,6.748,1.026s4.945,1.165,6.613,1.684c.834.259,1.505.482,1.964.649l.528.195a.693.693,0,0,1,.179.082" transform="translate(-195.313 -23.853)" fill="#e0e0e0"/><path d="M84.54,116.69s3.638,1.586,4.1,1.409a5.1,5.1,0,0,1,1-.247l-3.985-1.962Z" transform="translate(-47.532 -65.158)" fill="#ebebeb"/><path d="M109.944,48.161l-30,7.487a.72.72,0,0,1-.868-.521C74.744,38.665,69.819,19.063,68.591,13.2a.719.719,0,0,1,.525-.849L99.137,4.861a.721.721,0,0,1,.871.531l10.455,41.892a.721.721,0,0,1-.519.878" transform="translate(-38.556 -2.721)" fill="#a4dc88"/><path d="M105.363,47.117l-29.9,7.695L72.6,53.717,61.454,10.927,92.718,3.94l2.017,1.248Z" transform="translate(-34.552 -2.215)" fill="#fff"/><path d="M144.712,46.747,141.228,45.1,131.439,3.281l2.644,1.537Z" transform="translate(-73.901 -1.845)" fill="#f5f5f5"/><path d="M101.613,44.945,71.206,52.534a.725.725,0,0,1-.877-.518C65.994,35.553,61.067,15.952,59.842,10.09a.725.725,0,0,1,.535-.851L90.806,1.644a.725.725,0,0,1,.88.528l10.455,41.892a.726.726,0,0,1-.528.88" transform="translate(-33.637 -0.912)" fill="#a4dc88"/><path d="M76.492,61.72c-.025.006-2.442-9.593-5.4-21.438S65.761,18.827,65.786,18.82s2.441,9.591,5.4,21.44,5.333,21.454,5.308,21.46" transform="translate(-36.988 -10.581)" fill="#e0e0e0"/><path d="M105.418,46.52,80.932,52.631,71.205,13.656,95.691,7.545ZM81.452,51.765,104.552,46,95.171,8.41l-23.1,5.766Z" transform="translate(-40.035 -4.242)" fill="#529d2e"/><rect width="5.269" height="1.478" transform="translate(49.431 42.523) rotate(-14.011)" fill="#529d2e"/><rect width="2.455" height="1.478" transform="matrix(0.97, -0.242, 0.242, 0.97, 43.112, 8.802)" fill="#529d2e"/><rect width="18.502" height="6.597" transform="matrix(0.97, -0.242, 0.242, 0.97, 36.682, 17.322)" fill="#529d2e"/><rect width="13.626" height="2.779" transform="translate(40.743 24.967) rotate(-14.014)" fill="#529d2e"/><rect width="1.895" height="1.194" transform="translate(27.393 14.593) rotate(-14.011)" fill="#529d2e"/><rect width="1.895" height="1.194" transform="translate(27.84 16.382) rotate(-14.011)" fill="#529d2e"/><rect width="1.754" height="1.194" transform="matrix(0.97, -0.242, 0.242, 0.97, 35.703, 47.307)" fill="#529d2e"/><g transform="translate(28.928 20.283)" opacity="0.3"><g clip-path="url(#c)"><rect width="1.895" height="20.53" transform="translate(0 0.459) rotate(-14.011)" fill="#e0e0e0"/></g></g><path d="M110.03,5.667s.019.063.051.186.08.308.141.546l.534,2.1c.46,1.83,1.125,4.475,1.948,7.743L119.1,41.8l1.492,5.983.011.044-.045.011L99.043,53.191l-6.357,1.572-1.712.419-.444.107c-.1.023-.151.033-.151.033s.05-.015.149-.042l.442-.115,1.709-.435,6.35-1.6,21.5-5.383-.033.055-1.494-5.982-6.365-25.561c-.81-3.27-1.465-5.918-1.919-7.75L110.2,6.4l-.132-.549c-.029-.124-.042-.188-.042-.188" transform="translate(-50.815 -3.186)" fill="#e0e0e0"/><path d="M59.41,332.068a13.147,13.147,0,0,1,5.153-6.225,16.066,16.066,0,0,1-.6,8.513,12.572,12.572,0,0,1-4.912,5.712,12.915,12.915,0,0,1,.362-8" transform="translate(-32.939 -183.203)" fill="#a4dc88"/><path d="M63.507,334.316a2.551,2.551,0,0,0-.239.373c-.147.245-.346.606-.582,1.058a31.793,31.793,0,0,0-2.744,7.462c-.113.5-.2.9-.242,1.182a2.532,2.532,0,0,0-.06.439,2.6,2.6,0,0,0,.116-.427c.064-.277.161-.677.288-1.17a39.562,39.562,0,0,1,1.175-3.791c.536-1.455,1.114-2.736,1.561-3.649.223-.457.408-.825.538-1.077a2.557,2.557,0,0,0,.188-.4" transform="translate(-33.531 -187.967)" fill="#529d2e"/><path d="M41.87,311.111a13.147,13.147,0,0,1,5.153-6.225,16.065,16.065,0,0,1-.6,8.513,13.027,13.027,0,0,1-5.046,5.779,13.144,13.144,0,0,1,.5-8.066" transform="translate(-23.031 -171.42)" fill="#a4dc88"/><path d="M46.073,313.359a2.585,2.585,0,0,0-.239.373c-.147.245-.346.606-.582,1.058a31.825,31.825,0,0,0-2.744,7.462c-.113.5-.2.9-.242,1.183a2.526,2.526,0,0,0-.06.439,2.545,2.545,0,0,0,.116-.427c.064-.277.161-.677.288-1.169a39.558,39.558,0,0,1,1.175-3.791c.536-1.455,1.114-2.736,1.56-3.649.223-.457.408-.824.539-1.077a2.562,2.562,0,0,0,.188-.4" transform="translate(-23.729 -176.184)" fill="#529d2e"/><path d="M9.666,323.278a13.141,13.141,0,0,0-7.674,2.533,16.066,16.066,0,0,0,8.148,2.537,13.028,13.028,0,0,0,7.22-2.6,13.148,13.148,0,0,0-7.693-2.475" transform="translate(-1.12 -181.761)" fill="#a4dc88"/><path d="M11.255,328.1a2.549,2.549,0,0,1,.435-.086c.281-.047.69-.1,1.2-.157a31.844,31.844,0,0,1,7.949.161c.5.075.911.147,1.19.205a2.538,2.538,0,0,1,.431.1,2.55,2.55,0,0,1-.44-.047c-.281-.041-.689-.1-1.194-.158a39.676,39.676,0,0,0-3.959-.285c-1.55-.03-2.954.041-3.967.125-.507.041-.917.08-1.2.11a2.565,2.565,0,0,1-.442.029" transform="translate(-6.328 -184.24)" fill="#529d2e"/><path d="M25.227,345.051a13.148,13.148,0,0,0-7.674,2.532A16.06,16.06,0,0,0,25.7,350.12a13.023,13.023,0,0,0,7.219-2.6,13.147,13.147,0,0,0-7.693-2.475" transform="translate(-9.869 -194.003)" fill="#a4dc88"/><path d="M26.816,349.878a2.558,2.558,0,0,1,.435-.086c.281-.047.69-.1,1.2-.157a31.843,31.843,0,0,1,7.949.161c.5.075.911.147,1.19.205a2.534,2.534,0,0,1,.431.1,2.522,2.522,0,0,1-.44-.047c-.281-.041-.689-.1-1.194-.158-1.009-.124-2.408-.253-3.959-.285s-2.954.041-3.967.125c-.506.042-.917.08-1.2.11a2.573,2.573,0,0,1-.442.029" transform="translate(-15.077 -196.482)" fill="#529d2e"/><path d="M49.319,336.591a2.123,2.123,0,0,1-.293-.163l-.821-.5-.591-.366c-.213-.138-.437-.3-.682-.467-.485-.341-1.052-.71-1.637-1.177l-.93-.714c-.322-.25-.638-.533-.976-.814-.682-.554-1.361-1.2-2.085-1.876a44.965,44.965,0,0,1-7.88-10.108c-.475-.866-.94-1.683-1.311-2.48-.19-.4-.388-.772-.552-1.145L31.1,315.7c-.309-.68-.529-1.32-.742-1.874-.1-.278-.2-.535-.286-.775l-.211-.662q-.179-.578-.285-.918a2.022,2.022,0,0,1-.086-.324,2.234,2.234,0,0,1,.124.312l.321.9.227.655c.088.238.193.493.3.768.222.548.45,1.183.767,1.857l.476,1.067c.167.37.367.743.56,1.136.376.791.844,1.6,1.322,2.462a46.373,46.373,0,0,0,7.849,10.068c.718.673,1.389,1.325,2.065,1.882.334.283.647.568.965.82l.919.722c.577.472,1.136.848,1.614,1.2.241.172.462.337.671.479l.58.38.8.532a2.1,2.1,0,0,1,.272.2" transform="translate(-16.578 -174.942)" fill="#529d2e"/><path d="M20.677,294.21a13.148,13.148,0,0,1,.067-8.081,16.059,16.059,0,0,1,4.905,6.983,13.025,13.025,0,0,1-.265,7.667,13.149,13.149,0,0,1-4.707-6.569" transform="translate(-11.286 -160.874)" fill="#a4dc88"/><path d="M24.029,295.077a2.512,2.512,0,0,0,.051.44c.041.282.114.688.216,1.188a31.821,31.821,0,0,0,2.583,7.52c.226.457.418.822.559,1.07a2.543,2.543,0,0,0,.231.379,2.583,2.583,0,0,0-.179-.405c-.125-.255-.3-.627-.515-1.088-.427-.922-.977-2.216-1.482-3.682s-.863-2.825-1.093-3.815c-.116-.495-.2-.9-.262-1.175a2.543,2.543,0,0,0-.107-.43" transform="translate(-13.508 -165.905)" fill="#529d2e"/><path d="M402.529,267.545a13.147,13.147,0,0,0-5.153-6.225,16.065,16.065,0,0,0,.6,8.513,12.572,12.572,0,0,0,4.912,5.712,12.915,12.915,0,0,0-.362-8" transform="translate(-223.255 -146.926)" fill="#ffd1aa"/><path d="M401.523,269.793a2.559,2.559,0,0,1,.239.373c.147.245.346.606.582,1.058a31.79,31.79,0,0,1,2.744,7.462c.113.5.2.9.242,1.182a2.53,2.53,0,0,1,.06.439,2.592,2.592,0,0,1-.116-.427c-.064-.277-.161-.677-.288-1.17a39.571,39.571,0,0,0-1.175-3.791c-.536-1.455-1.114-2.736-1.56-3.649-.223-.457-.408-.825-.539-1.077a2.547,2.547,0,0,1-.188-.4" transform="translate(-225.753 -151.689)" fill="#fd963d"/><path d="M419.962,246.588a13.147,13.147,0,0,0-5.153-6.225,16.066,16.066,0,0,0,.6,8.513,13.025,13.025,0,0,0,5.046,5.779,13.147,13.147,0,0,0-.5-8.066" transform="translate(-233.057 -135.143)" fill="#ffd1aa"/><path d="M418.957,248.837a2.584,2.584,0,0,1,.239.373c.147.245.346.606.582,1.058a31.826,31.826,0,0,1,2.744,7.462c.113.5.2.9.242,1.183a2.524,2.524,0,0,1,.06.439,2.583,2.583,0,0,1-.116-.428c-.064-.277-.161-.677-.288-1.169a39.585,39.585,0,0,0-1.175-3.791c-.536-1.455-1.114-2.736-1.561-3.649-.223-.457-.408-.824-.539-1.077a2.566,2.566,0,0,1-.188-.4" transform="translate(-235.556 -139.907)" fill="#fd963d"/><path d="M440.6,258.755a13.141,13.141,0,0,1,7.674,2.533,16.061,16.061,0,0,1-8.148,2.537,13.023,13.023,0,0,1-7.219-2.6,13.145,13.145,0,0,1,7.693-2.475" transform="translate(-243.397 -145.483)" fill="#ffd1aa"/><path d="M444.358,263.582a2.543,2.543,0,0,0-.435-.086c-.281-.047-.69-.1-1.2-.157a31.844,31.844,0,0,0-7.949.161c-.5.075-.911.147-1.19.205a2.547,2.547,0,0,0-.431.1,2.565,2.565,0,0,0,.44-.047c.282-.041.689-.1,1.194-.158a39.672,39.672,0,0,1,3.959-.285c1.55-.03,2.954.041,3.966.125.507.041.917.08,1.2.11a2.572,2.572,0,0,0,.442.029" transform="translate(-243.54 -147.962)" fill="#fd963d"/><path d="M425.035,280.528a13.148,13.148,0,0,1,7.674,2.532,16.058,16.058,0,0,1-8.148,2.537A13.026,13.026,0,0,1,417.342,283a13.144,13.144,0,0,1,7.693-2.475" transform="translate(-234.648 -157.725)" fill="#ffd1aa"/><path d="M428.8,285.355a2.55,2.55,0,0,0-.435-.086c-.281-.047-.69-.1-1.2-.157a31.839,31.839,0,0,0-7.949.161c-.5.075-.91.147-1.189.205a2.547,2.547,0,0,0-.431.1,2.522,2.522,0,0,0,.441-.047c.281-.041.689-.1,1.194-.159,1.008-.124,2.408-.253,3.959-.285s2.953.041,3.966.125c.506.042.917.08,1.2.11a2.576,2.576,0,0,0,.443.029" transform="translate(-234.791 -160.204)" fill="#fd963d"/><path d="M395.207,272.068a2.148,2.148,0,0,0,.293-.163l.821-.5.591-.366c.213-.138.437-.3.682-.467.485-.341,1.052-.71,1.637-1.177l.929-.714c.322-.25.639-.534.976-.815.682-.554,1.361-1.2,2.085-1.876a44.984,44.984,0,0,0,7.88-10.109c.475-.866.94-1.683,1.311-2.48.19-.4.388-.772.552-1.145l.466-1.076c.31-.68.529-1.32.742-1.874.1-.278.2-.535.286-.775l.211-.662q.179-.578.285-.918a2.022,2.022,0,0,0,.086-.324,2.239,2.239,0,0,0-.124.312l-.321.9-.227.655c-.088.238-.193.492-.3.768-.222.549-.45,1.183-.767,1.857l-.476,1.067c-.167.37-.368.743-.56,1.136-.376.791-.844,1.6-1.322,2.462a46.352,46.352,0,0,1-7.849,10.068c-.718.673-1.389,1.325-2.065,1.882-.334.283-.647.568-.965.82l-.919.722c-.577.472-1.136.848-1.614,1.2-.241.172-.462.337-.671.479l-.58.38-.8.532a2.1,2.1,0,0,0-.272.2" transform="translate(-222.203 -138.664)" fill="#fd963d"/><path d="M441.581,229.687a13.148,13.148,0,0,0-.067-8.081,16.059,16.059,0,0,0-4.905,6.983,13.024,13.024,0,0,0,.265,7.667,13.149,13.149,0,0,0,4.707-6.569" transform="translate(-245.226 -124.597)" fill="#ffd1aa"/><path d="M441.293,230.554a2.51,2.51,0,0,1-.051.44c-.041.282-.114.688-.216,1.188a31.82,31.82,0,0,1-2.583,7.52c-.226.457-.418.822-.559,1.07a2.544,2.544,0,0,1-.231.379,2.589,2.589,0,0,1,.179-.405c.125-.255.3-.627.515-1.088.427-.922.977-2.216,1.482-3.682s.863-2.825,1.093-3.815c.116-.495.2-.9.262-1.175a2.57,2.57,0,0,1,.108-.43" transform="translate(-246.068 -129.628)" fill="#fd963d"/><path d="M187.194,218.6a15.758,15.758,0,0,1,7.492-6.142c-.021,3.112-.883,7.325-2.664,9.878a15.073,15.073,0,0,1-7.091,5.594,15.479,15.479,0,0,1,2.262-9.329" transform="translate(-103.958 -119.454)" fill="#ffd1aa"/><path d="M191.936,221.564a3.035,3.035,0,0,0-.366.385c-.229.254-.546.633-.928,1.111a38.193,38.193,0,0,0-4.942,8.151c-.247.559-.436,1.016-.556,1.336a3.054,3.054,0,0,0-.172.5,2.99,2.99,0,0,0,.236-.476c.139-.311.345-.76.607-1.31.522-1.1,1.291-2.6,2.253-4.191s1.939-2.964,2.674-3.935c.367-.486.669-.876.881-1.144a3.07,3.07,0,0,0,.313-.429" transform="translate(-103.999 -124.573)" fill="#e0e0e0"/><path d="M171.275,189.94a15.761,15.761,0,0,1,7.492-6.142c-.021,3.112-.883,7.325-2.664,9.878a15.617,15.617,0,0,1-7.264,5.642,15.759,15.759,0,0,1,2.435-9.378" transform="translate(-94.913 -103.339)" fill="#ffd1aa"/><path d="M176.232,192.9a3.079,3.079,0,0,0-.366.385c-.229.254-.546.633-.928,1.111A38.147,38.147,0,0,0,170,202.549c-.247.559-.436,1.016-.556,1.336a3.033,3.033,0,0,0-.172.5,3.035,3.035,0,0,0,.235-.476c.139-.311.345-.76.607-1.31.522-1.1,1.291-2.6,2.253-4.191s1.939-2.964,2.674-3.935c.367-.486.669-.876.881-1.143a3.052,3.052,0,0,0,.313-.429" transform="translate(-95.169 -108.458)" fill="#fd963d"/><path d="M133.469,196.988a15.756,15.756,0,0,0-9.611,1.219c2.275,2.124,5.926,4.394,9,4.856a15.618,15.618,0,0,0,9.091-1.4,15.76,15.76,0,0,0-8.484-4.678" transform="translate(-69.638 -110.602)" fill="#ffd1aa"/><path d="M134.854,201.741a3.031,3.031,0,0,1,.531,0c.341.009.835.039,1.444.09a38.149,38.149,0,0,1,9.317,2.014c.576.2,1.038.382,1.353.515a2.994,2.994,0,0,1,.483.221,3.069,3.069,0,0,1-.507-.157c-.322-.113-.789-.271-1.368-.46-1.158-.378-2.776-.851-4.593-1.245s-3.485-.63-4.7-.763c-.605-.068-1.1-.116-1.437-.146a3.056,3.056,0,0,1-.527-.067" transform="translate(-75.821 -113.422)" fill="#fd963d"/><path d="M146.781,226.18a15.759,15.759,0,0,0-9.611,1.219c2.275,2.124,5.927,4.395,9,4.856a15.614,15.614,0,0,0,9.091-1.4,15.76,15.76,0,0,0-8.484-4.678" transform="translate(-77.123 -127.014)" fill="#ffd1aa"/><path d="M148.166,230.932a3.037,3.037,0,0,1,.531,0c.341.009.835.039,1.445.09a38.179,38.179,0,0,1,9.316,2.015c.576.2,1.038.381,1.353.514a2.975,2.975,0,0,1,.483.221,3.087,3.087,0,0,1-.507-.156c-.322-.113-.789-.272-1.368-.461-1.158-.378-2.776-.85-4.593-1.245s-3.485-.629-4.7-.763c-.605-.068-1.1-.116-1.436-.146a3.081,3.081,0,0,1-.527-.067" transform="translate(-83.305 -129.835)" fill="#fd963d"/><path d="M177.816,219.844a2.489,2.489,0,0,1-.307-.259l-.851-.777-.611-.566c-.219-.212-.446-.453-.7-.706-.492-.513-1.075-1.077-1.655-1.76l-.93-1.054c-.322-.368-.629-.774-.962-1.182-.676-.809-1.325-1.729-2.022-2.686a53.895,53.895,0,0,1-6.952-13.7c-.36-1.129-.72-2.2-.974-3.219-.133-.51-.279-1-.386-1.474s-.2-.935-.3-1.373c-.208-.872-.319-1.675-.442-2.375-.057-.351-.117-.676-.159-.978s-.067-.577-.1-.828q-.079-.721-.126-1.146a2.488,2.488,0,0,1-.027-.4,2.592,2.592,0,0,1,.075.4q.063.422.169,1.139l.117.823c.048.3.115.623.178.973.136.7.257,1.5.476,2.362l.315,1.365c.112.475.262.959.4,1.466.261,1.017.626,2.078.991,3.2a55.586,55.586,0,0,0,6.924,13.649c.69.957,1.331,1.878,2,2.689.328.409.631.817.948,1.187l.915,1.061c.57.688,1.143,1.259,1.625,1.779.244.257.466.5.68.718l.6.58.819.809a2.546,2.546,0,0,1,.275.295" transform="translate(-90.137 -104.216)" fill="#fd963d"/><path d="M152.245,163.6a15.76,15.76,0,0,1,1.933-9.494c1.948,2.428,3.94,6.238,4.17,9.342a15.619,15.619,0,0,1-2.071,8.961,15.757,15.757,0,0,1-4.031-8.81" transform="translate(-85.543 -86.644)" fill="#ffd1aa"/><path d="M157.514,165.191a3.044,3.044,0,0,0-.041.53c-.017.341-.025.836-.018,1.447a38.194,38.194,0,0,0,1.313,9.441c.161.59.3,1.063.412,1.387a2.99,2.99,0,0,0,.184.5,3.1,3.1,0,0,0-.118-.518c-.089-.329-.212-.807-.357-1.4a47.538,47.538,0,0,1-.9-4.673c-.255-1.841-.368-3.522-.411-4.74-.022-.609-.034-1.1-.039-1.443a3.051,3.051,0,0,0-.028-.531" transform="translate(-88.526 -92.878)" fill="#fd963d"/><path d="M248.069,175.319a15.759,15.759,0,0,0-7.492-6.142c.021,3.112.883,7.325,2.664,9.878a15.073,15.073,0,0,0,7.091,5.594,15.479,15.479,0,0,0-2.262-9.329" transform="translate(-135.263 -95.119)" fill="#ebebeb"/><path d="M246.951,178.283a3.031,3.031,0,0,1,.366.385c.229.254.547.633.928,1.111a38.193,38.193,0,0,1,4.942,8.151c.248.559.436,1.016.556,1.336a3.051,3.051,0,0,1,.172.5,2.989,2.989,0,0,1-.236-.476c-.139-.311-.345-.76-.607-1.31a47.58,47.58,0,0,0-2.253-4.191c-.965-1.589-1.938-2.964-2.674-3.935-.367-.486-.669-.876-.881-1.144a3.07,3.07,0,0,1-.313-.429" transform="translate(-138.847 -100.238)" fill="#e0e0e0"/><path d="M263.772,146.658a15.76,15.76,0,0,0-7.493-6.142c.022,3.112.883,7.325,2.664,9.878a15.617,15.617,0,0,0,7.264,5.642,15.759,15.759,0,0,0-2.435-9.378" transform="translate(-144.091 -79.004)" fill="#bcef9f"/><path d="M262.655,149.622a3.073,3.073,0,0,1,.366.385c.229.254.546.633.928,1.111a38.145,38.145,0,0,1,4.942,8.151c.247.559.436,1.016.556,1.336a3.036,3.036,0,0,1,.172.5,3.034,3.034,0,0,1-.236-.476c-.139-.311-.345-.76-.607-1.31-.521-1.1-1.291-2.6-2.253-4.191a47.53,47.53,0,0,0-2.674-3.935c-.367-.486-.669-.877-.881-1.144a3.052,3.052,0,0,1-.313-.429" transform="translate(-147.676 -84.124)" fill="#529d2e"/><path d="M291.123,153.706a15.756,15.756,0,0,1,9.611,1.219c-2.275,2.124-5.926,4.395-9,4.856a15.617,15.617,0,0,1-9.091-1.4,15.76,15.76,0,0,1,8.484-4.678" transform="translate(-158.912 -86.266)" fill="#bcef9f"/><path d="M296.119,158.459a3.034,3.034,0,0,0-.531,0c-.341.009-.835.038-1.444.09a38.2,38.2,0,0,0-9.317,2.014c-.576.2-1.038.382-1.353.515a3.027,3.027,0,0,0-.483.221,3.036,3.036,0,0,0,.507-.156c.322-.113.789-.271,1.368-.46a47.583,47.583,0,0,1,4.593-1.245c1.817-.391,3.485-.63,4.7-.764.605-.067,1.1-.116,1.437-.146a3.054,3.054,0,0,0,.527-.067" transform="translate(-159.11 -89.087)" fill="#529d2e"/><path d="M277.811,182.9a15.759,15.759,0,0,1,9.611,1.219c-2.275,2.124-5.927,4.395-9.005,4.856a15.613,15.613,0,0,1-9.09-1.4,15.76,15.76,0,0,1,8.484-4.678" transform="translate(-151.427 -102.679)" fill="#bcef9f"/><path d="M282.806,187.65a3.039,3.039,0,0,0-.531,0c-.341.009-.835.039-1.445.09a38.182,38.182,0,0,0-9.316,2.015c-.576.2-1.038.381-1.353.514a3.024,3.024,0,0,0-.483.221,3.061,3.061,0,0,0,.508-.156c.322-.113.789-.272,1.368-.461,1.158-.378,2.776-.85,4.593-1.245s3.485-.629,4.7-.763c.605-.068,1.1-.116,1.436-.146a3.079,3.079,0,0,0,.527-.067" transform="translate(-151.625 -105.5)" fill="#529d2e"/><path d="M247.541,176.562a2.49,2.49,0,0,0,.307-.259l.851-.777.611-.566c.219-.212.446-.453.7-.706.492-.513,1.075-1.077,1.655-1.76l.93-1.054c.322-.368.629-.774.962-1.182.676-.809,1.325-1.729,2.022-2.686a53.9,53.9,0,0,0,6.952-13.7c.36-1.129.72-2.2.974-3.219.133-.51.279-1,.386-1.474l.3-1.373c.208-.872.319-1.675.443-2.375.057-.351.117-.676.159-.978s.067-.577.1-.828q.079-.722.125-1.146a2.491,2.491,0,0,0,.027-.4,2.589,2.589,0,0,0-.075.4q-.063.422-.169,1.139l-.117.823c-.048.3-.115.623-.178.973-.135.7-.257,1.5-.476,2.362l-.315,1.365c-.112.475-.262.959-.4,1.466-.261,1.017-.626,2.078-.991,3.2a55.591,55.591,0,0,1-6.924,13.648c-.69.956-1.331,1.878-2,2.689-.328.409-.631.817-.947,1.187l-.916,1.061c-.57.688-1.143,1.259-1.625,1.779-.244.257-.466.5-.68.718l-.6.58-.819.809a2.543,2.543,0,0,0-.275.295" transform="translate(-139.178 -79.881)" fill="#529d2e"/><path d="M287.57,120.317a15.761,15.761,0,0,0-1.933-9.494c-1.948,2.428-3.939,6.238-4.17,9.343a15.619,15.619,0,0,0,2.071,8.961,15.758,15.758,0,0,0,4.031-8.81" transform="translate(-158.23 -62.31)" fill="#bcef9f"/><path d="M287.864,121.91a3.03,3.03,0,0,1,.041.53c.017.341.025.836.018,1.447a38.171,38.171,0,0,1-1.312,9.441c-.161.59-.3,1.063-.412,1.387a2.984,2.984,0,0,1-.184.5,3.105,3.105,0,0,1,.118-.518c.089-.329.212-.807.357-1.4.291-1.184.64-2.832.9-4.673s.368-3.522.411-4.74c.022-.609.034-1.1.038-1.443a3.076,3.076,0,0,1,.028-.531" transform="translate(-160.808 -68.543)" fill="#529d2e"/></g><g clip-path="url(#a)"><path d="M204.31,417.47c0,.063-45.74.114-102.15.114C45.731,417.584,0,417.533,0,417.47s45.731-.114,102.16-.114c56.41,0,102.15.051,102.15.114" transform="translate(0 -234.656)" fill="#263238"/></g><rect width="181.501" height="21.65" transform="translate(18.298 161.094)" fill="#529d2e"/><rect width="178.541" height="16.155" transform="translate(18.298 163.799)" fill="#f5f5f5"/><g clip-path="url(#a)"><g transform="translate(164.531 161.094)" opacity="0.3"><g clip-path="url(#f)"><rect width="35.268" height="21.65" transform="translate(0 0)"/></g></g><path d="M220.1,382.1s-.156.008-.461.012l-1.354.011-5.208.021-19.152.036-63.186.033-63.2-.033-19.151-.036-5.207-.021-1.354-.011c-.3,0-.461-.012-.461-.012s.156-.008.461-.012l1.354-.011,5.207-.021,19.151-.036,63.2-.033,63.186.033,19.152.036,5.208.021,1.354.011c.305,0,.461.012.461.012" transform="translate(-23.256 -214.769)" fill="#263238"/><path d="M220.1,391.966s-.156.008-.461.012l-1.354.011-5.208.021-19.152.036-63.186.034-63.2-.034-19.151-.036-5.207-.021-1.354-.011c-.3,0-.461-.012-.461-.012s.156-.008.461-.012l1.354-.011,5.207-.021,19.151-.036,63.2-.033,63.186.033,19.152.036,5.208.021,1.354.011c.305,0,.461.012.461.012" transform="translate(-23.256 -220.316)" fill="#263238"/><path d="M220.1,401.834s-.156.008-.461.012l-1.354.011-5.208.021-19.152.036-63.186.033-63.2-.033-19.151-.036-5.207-.021-1.354-.011c-.3,0-.461-.012-.461-.012s.156-.008.461-.012l1.354-.011,5.207-.021,19.151-.036,63.2-.033,63.186.033,19.152.036,5.208.021,1.354.011c.305,0,.461.012.461.012" transform="translate(-23.256 -225.865)" fill="#263238"/><path d="M375.941,389.6c-.063,0-.114-4.713-.114-10.525s.051-10.527.114-10.527.114,4.712.114,10.527S376,389.6,375.941,389.6" transform="translate(-211.306 -207.212)" fill="#263238"/><rect width="125.521" height="20.033" transform="translate(48.302 141.061)" fill="#455a64"/><rect width="34.159" height="19.801" transform="translate(150.593 141.176)" fill="#455a64"/><rect width="30.947" height="14.227" transform="translate(153.806 143.89)" fill="#f5f5f5"/><g transform="translate(150.593 141.176)" opacity="0.3"><g clip-path="url(#g)"><rect width="34.159" height="19.801"/></g></g><path d="M213.2,347.055s-.006-.19-.009-.552-.006-.9-.011-1.61c-.006-1.416-.015-3.5-.027-6.214l.047.046-85.4.067h0l.114-.114c0,2.87,0,5.709,0,8.377l-.113-.113,60.639.048,18.133.034,4.912.016,1.278.008c.288,0,.44.008.44.008s-.141.005-.425.008l-1.263.008-4.886.016-18.106.034-60.722.048h-.113v-.114c0-2.668,0-5.508,0-8.377v-.114h.118l85.4.067h.047v.047c-.012,2.722-.021,4.819-.027,6.242q-.007,1.053-.011,1.6c0,.358-.009.536-.009.536" transform="translate(-71.789 -190.355)" fill="#263238"/><path d="M343.96,341.946c-.063,0-.114-4.489-.114-10.025s.051-10.026.114-10.026.113,4.488.113,10.026-.051,10.025-.113,10.025" transform="translate(-193.325 -180.983)" fill="#263238"/><path d="M0,0H125.521V15.676H0Z" transform="translate(40.57 117.681)" fill="#fd963d"/><path d="M308.3,285.911a1.146,1.146,0,0,1-.012-.181c0-.134-.007-.3-.013-.5-.007-.457-.017-1.081-.028-1.857-.013-1.6-.031-3.82-.052-6.428l.1.1-5.943.01c-.026.025.215-.215.113-.112V278.2q0,.621,0,1.226c0,.806,0,1.59,0,2.346-.007,1.508-.012,2.9-.017,4.139l-.091-.091,4.3.048,1.2.023a4.108,4.108,0,0,1,.437.02,2.944,2.944,0,0,1-.4.02l-1.183.023-4.36.048h-.091v-.092c-.005-1.237-.011-2.631-.017-4.139,0-.756,0-1.54,0-2.346q0-.6,0-1.226,0-.311,0-.624v-.629c-.1.1.138-.141.115-.116l5.943.01h.105v.1c-.021,2.636-.039,4.881-.052,6.5-.012.766-.021,1.382-.028,1.832-.005.193-.009.352-.013.479a.685.685,0,0,1-.012.157" transform="translate(-169.917 -155.646)" fill="#263238"/><rect width="19.361" height="10.601" transform="translate(146.731 120.133)" fill="#fff"/><g transform="translate(144.181 117.681)" opacity="0.3"><g clip-path="url(#h)"><rect width="21.91" height="15.676" transform="translate(0)"/></g></g><path d="M329,284.576c-.063,0-.114-3.46-.114-7.726s.051-7.727.114-7.727.114,3.459.114,7.727-.051,7.726-.114,7.726" transform="translate(-184.915 -151.312)" fill="#263238"/><path d="M354.507,280.015c0,.063-4.4.114-9.826.114s-9.827-.051-9.827-.114,4.4-.114,9.827-.114,9.826.051,9.826.114" transform="translate(-188.27 -157.373)" fill="#263238"/><path d="M354.507,286.392c0,.063-4.4.114-9.826.114s-9.827-.051-9.827-.114,4.4-.114,9.827-.114,9.826.051,9.826.114" transform="translate(-188.27 -160.958)" fill="#263238"/><path d="M354.507,292.856c0,.063-4.4.114-9.826.114s-9.827-.051-9.827-.114,4.4-.114,9.827-.114,9.826.051,9.826.114" transform="translate(-188.27 -164.592)" fill="#263238"/><rect width="125.521" height="7.734" transform="translate(62.108 133.358)" fill="#fed5b1"/><rect width="28.061" height="5.855" transform="translate(159.569 134.326)" fill="#e0e0e0"/><g transform="translate(157.983 133.358)" opacity="0.3"><g clip-path="url(#i)"><rect width="29.647" height="7.734" transform="translate(0)"/></g></g><path d="M360.758,312.745a60.917,60.917,0,0,1,.02-7.444,60.673,60.673,0,0,1-.02,7.444" transform="translate(-202.775 -171.654)" fill="#263238"/><rect width="75.597" height="1.849" transform="translate(71.133 136.338)" fill="#fd963d"/><path d="M234.582,322.021c0,.063-20.8.114-46.455.114s-46.46-.051-46.46-.114,20.8-.114,46.46-.114,46.455.051,46.455.114" transform="translate(-79.652 -180.99)" fill="#263238"/><path d="M242.262,322.1c0,.063-20.8.114-46.455.114s-46.46-.051-46.46-.114,20.8-.114,46.46-.114,46.455.051,46.455.114" transform="translate(-83.97 -181.037)" fill="#263238"/><path d="M271.6,304.361c0,.063-27.369.114-61.123.114s-61.129-.051-61.129-.114,27.363-.114,61.129-.114,61.123.051,61.123.114" transform="translate(-83.97 -171.061)" fill="#263238"/></g><g clip-path="url(#a)"><path d="M433.46,89.559a9.48,9.48,0,1,1-9.48-9.48,9.48,9.48,0,0,1,9.48,9.48" transform="translate(-233.05 -45.024)" fill="#fff"/><path d="M433.314,89.447a.762.762,0,0,1-.019-.153c-.009-.113-.02-.262-.034-.45q-.01-.15-.022-.331c-.014-.121-.04-.253-.062-.4a6.941,6.941,0,0,0-.2-.975,9.053,9.053,0,0,0-1.055-2.5,9.391,9.391,0,0,0-11.279-4,8.629,8.629,0,0,0-2.371,1.277,10.521,10.521,0,0,0-1.062.9,10.647,10.647,0,0,0-.918,1.086,9.086,9.086,0,0,0-1.339,2.581,9.292,9.292,0,0,0,0,5.911,9.078,9.078,0,0,0,1.339,2.582,8.575,8.575,0,0,0,1.98,1.991,8.63,8.63,0,0,0,2.371,1.277,9.416,9.416,0,0,0,11.279-4,9.068,9.068,0,0,0,1.055-2.5,6.98,6.98,0,0,0,.2-.975c.022-.143.049-.274.062-.395s.016-.231.022-.331c.014-.188.025-.337.034-.45a.762.762,0,0,1,.019-.153.77.77,0,0,1,0,.154c0,.114-.007.263-.011.452q-.005.151-.011.334c-.01.122-.033.255-.052.4a6.739,6.739,0,0,1-.183.988,8.984,8.984,0,0,1-1.031,2.548,9.548,9.548,0,0,1-6.428,4.532,9.591,9.591,0,0,1-5.033-.4,8.784,8.784,0,0,1-2.429-1.3,10.7,10.7,0,0,1-1.09-.923,10.8,10.8,0,0,1-.941-1.111,9.287,9.287,0,0,1-1.374-2.643,9.493,9.493,0,0,1,0-6.054,9.271,9.271,0,0,1,1.374-2.642,10.9,10.9,0,0,1,.941-1.11,10.788,10.788,0,0,1,1.089-.923,8.815,8.815,0,0,1,2.429-1.3,9.587,9.587,0,0,1,5.032-.4,9.548,9.548,0,0,1,6.428,4.531,8.97,8.97,0,0,1,1.032,2.548,6.739,6.739,0,0,1,.183.988c.019.144.042.277.052.4s.008.232.011.333c0,.189.008.338.011.452a.77.77,0,0,1,0,.154" transform="translate(-232.904 -44.912)" fill="#263238"/><path d="M406.868,109.606a1.6,1.6,0,1,1-1.6-1.6,1.6,1.6,0,0,1,1.6,1.6" transform="translate(-226.959 -60.726)" fill="#fff"/><path d="M406.722,109.481c-.021,0-.022-.142-.093-.38a1.6,1.6,0,0,0-.588-.828,1.511,1.511,0,0,0-2.406,1.208,1.509,1.509,0,0,0,.977,1.4,1.524,1.524,0,0,0,1.429-.2,1.6,1.6,0,0,0,.588-.828c.071-.238.073-.381.093-.38a.788.788,0,0,1-.007.4,1.6,1.6,0,0,1-.576.935,1.675,1.675,0,0,1-1.6.266,1.7,1.7,0,0,1,0-3.2,1.673,1.673,0,0,1,1.6.265,1.594,1.594,0,0,1,.577.935.788.788,0,0,1,.007.4" transform="translate(-226.813 -60.6)" fill="#263238"/><path d="M433.165,99.946a1.315,1.315,0,0,1,2.618,0,1.313,1.313,0,0,1-2.618,0m.011-6.967h2.607l-.438,5.133H433.6Z" transform="translate(-243.544 -52.277)" fill="#ff725e"/></g><g clip-path="url(#a)"><path d="M190.048,27.7a10.2,10.2,0,1,1-10.2-10.2,10.2,10.2,0,0,1,10.2,10.2" transform="translate(-95.378 -9.836)" fill="#fff"/><path d="M189.9,27.589a.929.929,0,0,1-.02-.165c-.009-.12-.021-.281-.035-.484-.007-.108-.015-.226-.024-.356s-.043-.272-.067-.425a7.459,7.459,0,0,0-.216-1.05,9.754,9.754,0,0,0-1.135-2.7A10.113,10.113,0,0,0,176.256,18.1a9.285,9.285,0,0,0-2.554,1.375,9.22,9.22,0,0,0-2.133,2.144,9.778,9.778,0,0,0-1.442,2.781,10,10,0,0,0,0,6.368,9.787,9.787,0,0,0,1.442,2.782,11.488,11.488,0,0,0,.989,1.171,11.353,11.353,0,0,0,1.145.974,9.271,9.271,0,0,0,2.554,1.376A10.14,10.14,0,0,0,188.4,32.766a9.758,9.758,0,0,0,1.135-2.7,7.446,7.446,0,0,0,.216-1.05c.024-.154.053-.3.067-.425s.016-.249.024-.356c.015-.2.027-.363.035-.484a.929.929,0,0,1,.02-.165.911.911,0,0,1,0,.165c0,.121-.008.282-.014.486,0,.108-.008.228-.012.359s-.036.274-.057.429a7.266,7.266,0,0,1-.2,1.062,9.649,9.649,0,0,1-1.111,2.741,10.273,10.273,0,0,1-6.916,4.874,10.319,10.319,0,0,1-5.413-.433,9.489,9.489,0,0,1-2.612-1.4,11.516,11.516,0,0,1-1.172-.993,11.683,11.683,0,0,1-1.013-1.195,9.985,9.985,0,0,1-1.477-2.842,10.207,10.207,0,0,1,0-6.512,9.973,9.973,0,0,1,1.477-2.841A11.567,11.567,0,0,1,172.4,20.3a11.618,11.618,0,0,1,1.171-.993,9.488,9.488,0,0,1,2.612-1.4,10.317,10.317,0,0,1,5.413-.433,10.272,10.272,0,0,1,6.916,4.873,9.656,9.656,0,0,1,1.111,2.742,7.255,7.255,0,0,1,.2,1.062c.02.155.045.3.056.429s.009.251.013.359c.006.2.01.366.014.486a.911.911,0,0,1,0,.165" transform="translate(-95.232 -9.726)" fill="#263238"/><path d="M183.472,39.534a1.006,1.006,0,1,1-1.006-1.006,1.005,1.005,0,0,1,1.006,1.006" transform="translate(-102.025 -21.662)" fill="#263238"/><path d="M192.664,39.534a1.006,1.006,0,1,1-1.006-1.006,1.006,1.006,0,0,1,1.006,1.006" transform="translate(-107.193 -21.662)" fill="#263238"/><path d="M202.006,39.031a1.006,1.006,0,1,1-1.374-.368,1.006,1.006,0,0,1,1.374.368" transform="translate(-112.521 -21.662)" fill="#263238"/><path d="M202.576,67.322a1.723,1.723,0,1,1-1.723-1.723,1.723,1.723,0,0,1,1.723,1.723" transform="translate(-111.96 -36.883)" fill="#fff"/><path d="M202.43,67.2c-.021,0-.021-.153-.1-.41a1.724,1.724,0,0,0-.633-.9,1.625,1.625,0,1,0,0,2.611,1.723,1.723,0,0,0,.633-.9c.075-.257.076-.411.1-.41a.878.878,0,0,1-.011.432,1.715,1.715,0,0,1-.621,1,1.8,1.8,0,0,1-1.714.283,1.821,1.821,0,0,1,0-3.434,1.8,1.8,0,0,1,1.714.283,1.718,1.718,0,0,1,.621,1,.878.878,0,0,1,.011.432" transform="translate(-111.813 -36.758)" fill="#263238"/></g><g clip-path="url(#a)"><path d="M38.93,115.372a9.48,9.48,0,1,1-9.48-9.48,9.48,9.48,0,0,1,9.48,9.48" transform="translate(-11.228 -59.537)" fill="#fff"/><path d="M38.784,115.26a.773.773,0,0,1-.019-.153c-.009-.113-.02-.262-.034-.45q-.01-.15-.022-.33c-.014-.121-.04-.253-.062-.4a6.941,6.941,0,0,0-.2-.975,9.052,9.052,0,0,0-1.055-2.5,9.391,9.391,0,0,0-11.279-4,8.6,8.6,0,0,0-2.371,1.277,10.523,10.523,0,0,0-1.062.9,10.651,10.651,0,0,0-.918,1.086,9.085,9.085,0,0,0-1.339,2.581,9.292,9.292,0,0,0,0,5.911,9.068,9.068,0,0,0,1.339,2.582,8.575,8.575,0,0,0,1.98,1.991,8.629,8.629,0,0,0,2.371,1.277,9.416,9.416,0,0,0,11.279-4,9.055,9.055,0,0,0,1.055-2.5,6.983,6.983,0,0,0,.2-.975c.022-.143.049-.274.062-.395s.016-.231.022-.33c.014-.188.025-.337.034-.45a.773.773,0,0,1,.019-.153.76.76,0,0,1,0,.154c0,.114-.007.263-.011.452q-.005.151-.011.334c-.01.122-.033.254-.052.4a6.735,6.735,0,0,1-.183.988,8.983,8.983,0,0,1-1.031,2.548,9.548,9.548,0,0,1-6.428,4.532,9.59,9.59,0,0,1-5.033-.4,8.784,8.784,0,0,1-2.429-1.3,10.7,10.7,0,0,1-1.09-.923,10.859,10.859,0,0,1-.942-1.111,9.3,9.3,0,0,1-1.374-2.643,9.493,9.493,0,0,1,0-6.054,9.271,9.271,0,0,1,1.374-2.642,10.9,10.9,0,0,1,.941-1.11,10.743,10.743,0,0,1,1.09-.923,8.8,8.8,0,0,1,2.428-1.3,9.587,9.587,0,0,1,5.032-.4,9.548,9.548,0,0,1,6.428,4.531,8.969,8.969,0,0,1,1.032,2.548,6.713,6.713,0,0,1,.183.988c.019.144.042.277.052.4s.008.232.011.334c0,.189.008.338.011.452a.759.759,0,0,1,0,.154" transform="translate(-11.082 -59.425)" fill="#263238"/><path d="M65.646,141.905a1.6,1.6,0,1,1-1.6-1.6,1.6,1.6,0,0,1,1.6,1.6" transform="translate(-35.109 -78.886)" fill="#fff"/><path d="M65.5,141.78c-.021,0-.022-.142-.093-.38a1.6,1.6,0,0,0-.588-.828,1.5,1.5,0,1,0,0,2.416,1.6,1.6,0,0,0,.587-.828c.071-.238.073-.381.093-.38a.787.787,0,0,1-.007.4,1.6,1.6,0,0,1-.576.935,1.675,1.675,0,0,1-1.6.266,1.7,1.7,0,0,1,0-3.2,1.674,1.674,0,0,1,1.6.266,1.594,1.594,0,0,1,.577.935.787.787,0,0,1,.007.4" transform="translate(-34.962 -78.76)" fill="#263238"/><g transform="translate(11.369 48.24)"><g transform="translate(0 1.731)"><path d="M362.256,45.954V39.525a6.429,6.429,0,1,0,6.428,6.578Z" transform="translate(-355.827 -39.525)" fill="#a4dc88"/></g><g transform="translate(7.997)"><path d="M347.426,36.685l6.429.145a6.781,6.781,0,0,0-1.821-4.629,6.611,6.611,0,0,0-4.508-1.943Z" transform="translate(-347.426 -30.258)" fill="#85d161"/></g></g></g><g clip-path="url(#a)"><path d="M385.368,268.134l-.777,10.288s9.651,4.256,9.683,6.171l-18.962-.812.588-16.08Z" transform="translate(-211.016 -150.514)" fill="#263238"/><path d="M382.445,289.6a.82.82,0,0,0-.574.909.745.745,0,0,0,.848.6.866.866,0,0,0,.6-.966.763.763,0,0,0-.948-.526" transform="translate(-214.699 -162.812)" fill="#e0e0e0"/><path d="M375.311,302.356l.12-1.618,18.136,1.383s.828.424.707,1.047Z" transform="translate(-211.016 -169.088)" fill="#455a64"/><path d="M394.942,291.854c-.007.1-.472.122-.94.417s-.728.695-.812.652c-.085-.023.077-.6.651-.947s1.125-.211,1.1-.122" transform="translate(-221.057 -164.035)" fill="#fff"/><path d="M400,294.108c.017.1-.391.245-.722.644s-.44.833-.533.824c-.088.012-.128-.563.293-1.051s.963-.51.962-.417" transform="translate(-224.158 -165.336)" fill="#fff"/><path d="M403.9,297.884c-.085.017-.193-.476.066-1s.7-.719.738-.636-.244.358-.451.792-.26.84-.353.845" transform="translate(-227.036 -166.553)" fill="#fff"/><path d="M394.524,286.085c-.042.088-.462-.066-.987-.05s-.94.172-.985.086.362-.418.981-.426,1.04.316.991.391" transform="translate(-220.708 -160.63)" fill="#fff"/><path d="M385.826,190.945c5.694-.984,12.108,4.595,11.106,11.809-.88,6.326-6.523,29.437-6.523,29.437l-9.152-4.425,2.586-28.682Z" transform="translate(-214.359 -107.294)" fill="#263238"/><path d="M336.753,247.261l18.07-10.75.313-5.165Z" transform="translate(-189.337 -130.073)" fill="#455a64"/><path d="M288.933,208.065l-.962,3.461a14.866,14.866,0,0,0,2.857,14.114l.109,0,16.979.131c4.858-2.116,18.792-15.262,18.792-15.262l-1.53,22.75,12.3.945s1.763-24.871,2.7-30.748-2.354-11.946-7.288-11.52-43.7,15.175-43.964,16.132" transform="translate(-161.533 -107.901)" fill="#263238"/><path d="M391.461,191.932a.412.412,0,0,1,.112-.012c.074,0,.186-.01.332-.01a5.137,5.137,0,0,1,1.258.21,7.962,7.962,0,0,1,3.752,2.728,8.94,8.94,0,0,1,1.557,2.839,12.835,12.835,0,0,1,.622,3.665,35.069,35.069,0,0,1-.25,4.093c-.137,1.412-.278,2.874-.422,4.371-.619,5.978-1.179,11.39-1.586,15.328-.189,1.948-.341,3.531-.45,4.647q-.077.8-.122,1.264l-.038.328a.408.408,0,0,1-.021.111.415.415,0,0,1,0-.113c0-.088.009-.2.015-.33.019-.308.046-.731.079-1.267.079-1.1.2-2.691.377-4.656.344-3.929.914-9.348,1.52-15.335.147-1.5.289-2.958.427-4.37a35.568,35.568,0,0,0,.262-4.065,12.739,12.739,0,0,0-.591-3.611,8.843,8.843,0,0,0-1.5-2.8,8.017,8.017,0,0,0-3.653-2.744,6,6,0,0,0-1.675-.272" transform="translate(-220.096 -107.9)" fill="#455a64"/><path d="M380.962,221.822c.05.052-1.157,1.152-2.3,2.788s-1.786,3.135-1.852,3.105a3.975,3.975,0,0,1,.373-1,14.479,14.479,0,0,1,2.962-4.2,3.949,3.949,0,0,1,.819-.688" transform="translate(-211.856 -124.718)" fill="#455a64"/><path d="M382.221,96.65a2.012,2.012,0,0,0,2.1-3.411,2.094,2.094,0,0,0-.558-3.935,2.506,2.506,0,0,0-2.888-3.185,2.817,2.817,0,0,0-3.251-1.21,2,2,0,0,0-2.792,2.625" transform="translate(-210.635 -47.598)" fill="#263238"/><path d="M359.572,88.8l.417.146a8.538,8.538,0,0,1,5.431,10.227c-1.052,4-2.266,8.411-3.025,10.49-1.571,4.3-6.131,3.46-6.131,3.46l-1.457,5.323-10.38-4.008,5.684-19.165c1.189-4.625,4.87-7.789,9.461-6.473" transform="translate(-193.652 -49.76)" fill="#ae7461"/><path d="M365.025,140.083a11.114,11.114,0,0,1-5.084-3.646,5.79,5.79,0,0,0,4.7,4.885Z" transform="translate(-202.375 -76.71)" fill="#6f4439"/><path d="M383.77,121.046a.654.654,0,0,1-.814.414.626.626,0,0,1-.441-.78.654.654,0,0,1,.813-.415.626.626,0,0,1,.442.781" transform="translate(-215.051 -67.603)" fill="#263238"/><path d="M385.442,115.462c-.1.054-.451-.457-1.116-.688s-1.269-.07-1.312-.176c-.023-.049.106-.167.373-.247a1.8,1.8,0,0,1,1.085.042,1.723,1.723,0,0,1,.853.648c.149.229.167.4.117.421" transform="translate(-215.346 -64.256)" fill="#263238"/><path d="M371.184,117.343a.654.654,0,0,1-.814.414.626.626,0,0,1-.441-.78.655.655,0,0,1,.814-.415.626.626,0,0,1,.441.781" transform="translate(-207.975 -65.521)" fill="#263238"/><path d="M370.423,110.509c-.105.053-.452-.457-1.116-.688s-1.269-.07-1.312-.176c-.023-.049.106-.167.373-.246a1.794,1.794,0,0,1,1.085.042,1.727,1.727,0,0,1,.853.648c.148.228.167.4.117.421" transform="translate(-206.901 -61.472)" fill="#263238"/><path d="M375.1,117.962a4.648,4.648,0,0,1,1.147.184c.176.042.348.065.418-.041a.915.915,0,0,0,.063-.542q-.023-.7-.048-1.468a23.58,23.58,0,0,1,.059-3.775,23.578,23.578,0,0,1,.245,3.771c.009.513.017,1,.025,1.468a1.041,1.041,0,0,1-.146.7.452.452,0,0,1-.366.15,1.208,1.208,0,0,1-.3-.061,4.594,4.594,0,0,1-1.094-.382" transform="translate(-210.899 -63.151)" fill="#263238"/><path d="M373.479,104.923c-.147.138-.652-.245-1.345-.513-.687-.284-1.324-.359-1.327-.557,0-.093.179-.2.479-.247a2.226,2.226,0,0,1,1.129.148,2.149,2.149,0,0,1,.906.668c.178.238.224.435.157.5" transform="translate(-208.484 -58.24)" fill="#263238"/><path d="M387.4,109.047c-.193.1-.686-.247-1.343-.486-.65-.258-1.254-.326-1.327-.529-.029-.1.112-.217.406-.274a2.274,2.274,0,0,1,1.182.137,2.235,2.235,0,0,1,.969.681c.179.237.2.419.113.471" transform="translate(-216.31 -60.57)" fill="#263238"/><path d="M370.84,96.2s-.19-3.108-1.274-4.2c-1.312-1.319-2.6.176-3.96-.773s-2.61-2.213-4.558-1.589c-2.132.683-1.656,1.854-2.434,3.736-3.152,7.63-5.344,9.331-4.462,5.525.1-.417-.9-1.127-.475-2.881a20.232,20.232,0,0,1,2.449-6.362,6.521,6.521,0,0,1,3.64-2.346c2.678-.837,5.606.153,7.516,1.047s4.928,4.513,3.558,7.84" transform="translate(-198.792 -48.915)" fill="#263238"/><path d="M351.171,112.028a1.244,1.244,0,0,0-.87-1.576c-.833-.206-1.891-.063-2.423,1.622-.943,2.989,2.253,3.319,2.285,3.235.022-.057.625-2.027,1.009-3.281" transform="translate(-195.494 -62.06)" fill="#ae7461"/><path d="M351.27,115.305c-.01-.014-.064.02-.164.032a.545.545,0,0,1-.392-.115,1.35,1.35,0,0,1-.232-1.344,1.8,1.8,0,0,1,.381-.7.631.631,0,0,1,.518-.276.278.278,0,0,1,.262.24c.013.1-.025.15-.01.16s.08-.03.1-.161a.353.353,0,0,0-.059-.225.413.413,0,0,0-.264-.167.768.768,0,0,0-.69.292,1.87,1.87,0,0,0-.443.776,1.42,1.42,0,0,0,.352,1.531.584.584,0,0,0,.5.071c.116-.045.153-.106.144-.115" transform="translate(-196.897 -63.387)" fill="#6f4439"/><path d="M357.6,91.786a2.975,2.975,0,0,0,1.049,1.017,1.022,1.022,0,0,0,1.308-.3c.107-.194.141-.45.332-.562.228-.133.5.031.743.144a2.488,2.488,0,0,0,2.677-.963.817.817,0,0,0,.956.575,2.926,2.926,0,0,0,.935-.383,1.289,1.289,0,0,1,1.193-.151c.207.108.366.309.593.367.4.1.749-.286.943-.651s.4-.8.8-.892a1.636,1.636,0,0,1,1.067.341c.339.178.83.256,1.044-.061a.744.744,0,0,0,.056-.582,2.029,2.029,0,0,0-2.005-1.518,2.75,2.75,0,0,0-4.591-2.176,2.791,2.791,0,0,0-4.547-.517,2.023,2.023,0,0,0-3.126,2.022,1.92,1.92,0,0,0-1.5,1.093,1.1,1.1,0,0,0,.8,1.473,1.12,1.12,0,0,0,1.458,1.7" transform="translate(-199.85 -47.526)" fill="#263238"/><path d="M369.379,95s0,.019-.02.054-.037.087-.074.151a1.98,1.98,0,0,1-.415.494,2.247,2.247,0,0,1-.9.469,2.09,2.09,0,0,1-1.332-.08l.073-.048a1.133,1.133,0,0,1-.346.8,3.242,3.242,0,0,1-.761.549,2.36,2.36,0,0,1-.45.223,1.093,1.093,0,0,1-.529.009,1.143,1.143,0,0,1-.832-.675l.121.007a2.35,2.35,0,0,1-1.479,1.2,1.716,1.716,0,0,1-1.082-.023,3.087,3.087,0,0,1-.883-.546l.091-.007a2.468,2.468,0,0,1-1.02.667,1.316,1.316,0,0,1-1.129-.081,1.726,1.726,0,0,1-.806-1.714l.056.054A1.615,1.615,0,0,1,356.6,96.3a1.755,1.755,0,0,1-.6-.565,1.514,1.514,0,0,1-.2-.477.789.789,0,0,1-.021-.179,1.888,1.888,0,0,0,.269.627,1.743,1.743,0,0,0,.591.528,1.547,1.547,0,0,0,1.014.179l.066-.012-.01.067a1.627,1.627,0,0,0,.772,1.6,1.193,1.193,0,0,0,1.028.063,2.35,2.35,0,0,0,.961-.635l.042-.047.049.04A3,3,0,0,0,361.4,98a1.581,1.581,0,0,0,1,.018,2.223,2.223,0,0,0,1.4-1.133l.067-.134.054.141a1.015,1.015,0,0,0,.735.6.972.972,0,0,0,.468,0,2.271,2.271,0,0,0,.424-.208,3.165,3.165,0,0,0,.738-.522,1.026,1.026,0,0,0,.323-.716V95.96l.072.031a2.012,2.012,0,0,0,1.27.094,2.225,2.225,0,0,0,.883-.433,2.429,2.429,0,0,0,.546-.654" transform="translate(-200.03 -53.412)" fill="#455a64"/><path d="M370.847,127.066c.017-.117-.767-.19-1.262-.911s-.333-1.549-.442-1.565c-.048-.015-.169.172-.211.524a1.959,1.959,0,0,0,.324,1.3,1.709,1.709,0,0,0,1.063.714c.325.06.527-.01.528-.064" transform="translate(-207.423 -70.049)" fill="#263238"/><path d="M313.822,136.852s-7.456-.385-10.76,3.691c-2.92,3.6-15.727,35.277-15.727,40.45s11.492.667,15.96-1.684,16.927-13.636,16.927-13.636.213-1.355.448-2.53,2.33-9.294,2.573-12.16a63.122,63.122,0,0,0-.193-7.051c-4.478-.83-9.227-7.079-9.227-7.079" transform="translate(-161.552 -76.938)" fill="#a4dc88"/><path d="M408.308,163.535l-.046-.277-.357.089-4.588-8.906-21.031,9.068,6.615,8.565Z" transform="translate(-214.938 -86.834)" fill="#529d2e"/><g transform="translate(178.813 71.087)" opacity="0.3"><g clip-path="url(#n)"><path d="M411.761,171.242l-3.285-5.865,6.76-2.989,3.475,6.053Z" transform="translate(-408.476 -162.39)" fill="#a4dc88"/></g></g><path d="M370.939,177.583l3.812-1.959s2.227-5.145,3.639-6.063a5.9,5.9,0,0,1,3.629-.53L380,170.535s-1.346,1.821-.055,2.112,8.024-3.03,8.969-2.936-.043,1.792-.043,1.792,1.263.366.147,1.922a2.148,2.148,0,0,1-.824,1.94c-2.521,1.817-7.672,3.823-8.211,4.136-.753.438-6.891,3.734-6.891,3.734Z" transform="translate(-208.558 -94.991)" fill="#ae7461"/><path d="M405.253,174.78a3.249,3.249,0,0,1-.69.526c-.443.3-1.064.7-1.777,1.1a16.5,16.5,0,0,1-1.885.911,2.948,2.948,0,0,1-.828.263c-.025-.063,1.19-.575,2.6-1.374a27.057,27.057,0,0,1,2.578-1.427" transform="translate(-224.939 -98.267)" fill="#6f4439"/><path d="M406.485,178.572a11.764,11.764,0,0,1-4.8,2.9c-.025-.063,1.137-.551,2.459-1.354s2.3-1.6,2.344-1.544" transform="translate(-225.843 -100.4)" fill="#6f4439"/><path d="M431.024,155.4l.706-.308,2.3,4.328.431-.084.37.31.831,3.979-.357.089Z" transform="translate(-242.341 -87.198)" fill="#e0e0e0"/><path d="M436.442,163.611c-.057.027-.967-1.8-2.032-4.075a45.487,45.487,0,0,1-1.825-4.171,45.459,45.459,0,0,1,2.032,4.075c1.065,2.277,1.882,4.144,1.825,4.171" transform="translate(-243.217 -87.353)" fill="#263238"/><path d="M344.594,160.467l-10.855,3.852s.065-14.548-.8-19.87c-.911-5.591-12.23-6.1-12.425,3.3-.02.94-.629,16.944,1.458,23.153s5.176,7.245,9.642,5.834,16.848-10.224,16.848-10.224Z" transform="translate(-180.151 -78.955)" fill="#a4dc88"/><path d="M344.45,160.334s.088.123.257.38l.749,1.147,2.905,4.49.028.044-.043.031c-1.917,1.363-4.325,3.032-7.182,4.891-1.428.93-2.97,1.9-4.637,2.88-.833.488-1.7.977-2.607,1.438-.447.244-.925.444-1.4.668a12.723,12.723,0,0,1-1.5.531,9.337,9.337,0,0,1-3.256.4,5.288,5.288,0,0,1-3.117-1.351A8.949,8.949,0,0,1,322.606,173a19.467,19.467,0,0,1-1.234-3.431,47.476,47.476,0,0,1-.974-7.507c-.165-2.578-.23-5.216-.239-7.9,0-2.317.025-4.6.113-6.846a8.9,8.9,0,0,1,.742-3.27,6.519,6.519,0,0,1,2.055-2.563,7.1,7.1,0,0,1,6.1-1.006,5.779,5.779,0,0,1,2.613,1.565,4.788,4.788,0,0,1,.821,1.265,5.425,5.425,0,0,1,.347,1.436c.26,1.915.362,3.775.456,5.56s.14,3.5.176,5.131c.074,3.264.087,6.2.077,8.749l-.091-.065,8.033-2.812,2.121-.735.543-.185c.122-.04.182-.056.182-.056s-.064.028-.188.074l-.548.2-2.122.771-7.975,2.869-.091.033v-.1c0-2.546-.029-5.483-.114-8.745-.042-1.631-.1-3.343-.192-5.126s-.206-3.641-.468-5.541a5.214,5.214,0,0,0-.335-1.384,4.6,4.6,0,0,0-.785-1.2,5.583,5.583,0,0,0-2.521-1.5,6.89,6.89,0,0,0-5.913.979,6.3,6.3,0,0,0-1.982,2.478,8.692,8.692,0,0,0-.72,3.188c-.086,2.236-.116,4.521-.112,6.834.01,2.677.074,5.312.236,7.883a47.507,47.507,0,0,0,.962,7.469,19.251,19.251,0,0,0,1.215,3.39,8.739,8.739,0,0,0,1.992,2.821,5.082,5.082,0,0,0,3,1.3,9.151,9.151,0,0,0,3.186-.386,12.546,12.546,0,0,0,1.477-.518c.469-.22.942-.417,1.388-.659.905-.456,1.769-.941,2.6-1.425,1.666-.968,3.21-1.936,4.641-2.859,2.862-1.846,5.279-3.5,7.2-4.848l-.014.074-2.84-4.5-.732-1.171c-.165-.265-.246-.407-.246-.407" transform="translate(-180.007 -78.822)" fill="#263238"/><path d="M343.736,200.517a3.335,3.335,0,0,1,.254-.9,14.637,14.637,0,0,1,.932-2.064,12.109,12.109,0,0,1,1.267-1.88,3.05,3.05,0,0,1,.66-.669c.051.045-.894,1.117-1.727,2.658s-1.316,2.883-1.385,2.857" transform="translate(-193.261 -109.638)" fill="#263238"/></g><g clip-path="url(#a)"><path d="M209.073,410.439l0,.446s7.788,3.109,7.857,4.544l-15.524-.221.287-4.993a9.156,9.156,0,0,0,7.382.223" transform="translate(-113.238 -230.641)" fill="#263238"/><path d="M201.4,420.079l.069-1.2,14.854.651s.686.3.6.77Z" transform="translate(-113.238 -235.512)" fill="#455a64"/><path d="M217.207,411.75c0,.073-.383.1-.76.331s-.58.536-.649.506c-.07-.015.05-.452.511-.723s.915-.181.9-.114" transform="translate(-121.321 -231.464)" fill="#fff"/><path d="M221.4,413.342c.016.071-.314.191-.576.5s-.341.633-.417.629-.118-.42.216-.795.777-.4.777-.332" transform="translate(-123.891 -232.382)" fill="#fff"/><path d="M224.672,416.1c-.069.015-.169-.353.032-.752s.558-.553.589-.492-.192.273-.352.6-.194.635-.269.641" transform="translate(-126.272 -233.245)" fill="#fff"/><path d="M197.85,390.691l-1.231,11.588-5.755-3.432,1.421-8.729Z" transform="translate(-107.312 -219.341)" fill="#263238"/><path d="M190.067,409.008s3.851,3.772,5.958,1.694l.384,1.137,1.445,7.979a1.038,1.038,0,0,1-.746,1.191A1.119,1.119,0,0,1,196,420.7c-1.459-1.582-6.8-7.428-6.668-8.142l.211-1.907a14.367,14.367,0,0,1,.44-1.421Z" transform="translate(-106.447 -229.962)" fill="#263238"/><path d="M196.918,424.752,189.4,415.6l-.039.417a1.129,1.129,0,0,0,.3.957,74.664,74.664,0,0,0,6.309,7.43,1.115,1.115,0,0,0,.948.346" transform="translate(-106.453 -233.67)" fill="#455a64"/><path d="M202.116,424.913a3.237,3.237,0,0,1,.989-.685,3.463,3.463,0,0,1,1.224-.11c.011-.024-.114-.112-.355-.166a1.774,1.774,0,0,0-.952.073,1.658,1.658,0,0,0-.76.542c-.141.191-.171.335-.146.346" transform="translate(-113.634 -238.345)" fill="#fff"/><path d="M203.535,428.6a9.062,9.062,0,0,1,.966-.341,9.422,9.422,0,0,1,1.032-.034,1.251,1.251,0,0,0-1.079-.179c-.631.115-.972.523-.92.554" transform="translate(-114.434 -240.648)" fill="#fff"/><path d="M199.32,420.828a11,11,0,0,1,1.452-.622,11.41,11.41,0,0,1,1.583-.2,2.518,2.518,0,0,0-1.648-.006,2.37,2.37,0,0,0-1.387.831" transform="translate(-112.065 -236.072)" fill="#fff"/><path d="M204.969,409.9a6.7,6.7,0,0,0-.077,1.234v.013c.083.531.2,1.21.331,1.947.158.872.312,1.661.433,2.229a4.529,4.529,0,0,0,.236.914,4.424,4.424,0,0,0-.1-.937c-.086-.575-.218-1.367-.376-2.239-.134-.737-.264-1.414-.373-1.94v.013a6.7,6.7,0,0,0-.077-1.234" transform="translate(-115.199 -230.463)" fill="#455a64"/><path d="M227.831,241.564s3,10.139-2.089,23.1-7.934,23.327-8.13,26.119-.5,5.679-3.179,14.519c-1.954,6.454-3.4,10.313-3.4,10.313a6.2,6.2,0,0,1-6.142.331s.189-15.392,3.126-25.761,4.948-26.572,3.942-32.429,1.172-9.188,1.172-9.188Z" transform="translate(-115.199 -135.818)" fill="#263238"/><path d="M183.084,251.326c-1.953-9.119,4.062-18.44,4.062-18.44L202.8,245.215s3.314,36.9,1.356,41.686S192.8,311.212,192.8,311.212l-7.2-1.688s2.669-15.912,4.808-19.951c1.54-2.907,4.058-4.288,2.884-8.077s-8.606-22.71-10.2-30.171" transform="translate(-102.718 -130.939)" fill="#263238"/><path d="M219.828,229.135c.056-.02-12.484,8.893-12.484,8.893l-16.814-11.074L192.3,220.6s9.941,4.151,14.4,3.258,9.35-4.756,9.35-4.756a80.825,80.825,0,0,1,3.778,10.032" transform="translate(-107.124 -123.189)" fill="#263238"/><path d="M220.176,246.928a.755.755,0,0,0-.081.1l-.228.306-.872,1.2-3.266,4.543-.012.017,0,.02c.159,1.7.219,3.676.328,5.876s.228,4.621.355,7.221.291,5.379.448,8.291c.179,2.912.334,5.956.635,9.088a36.307,36.307,0,0,1,.361,7.624,17.75,17.75,0,0,1-.256,1.813,11.6,11.6,0,0,1-.446,1.737c-.426,1.1-.921,2.174-1.391,3.214-1.9,4.16-3.682,7.879-5.165,11.006l-3.53,7.4L206.1,318.4l-.244.526c-.054.119-.077.182-.077.182s.035-.057.1-.173l.262-.517.989-2,3.588-7.374c1.5-3.12,3.293-6.833,5.2-10.992.473-1.044.967-2.1,1.4-3.228a11.755,11.755,0,0,0,.454-1.761,17.757,17.757,0,0,0,.261-1.831,36.253,36.253,0,0,0-.357-7.662c-.3-3.119-.457-6.168-.64-9.078-.163-2.911-.319-5.689-.465-8.289s-.265-5.021-.38-7.22-.19-4.175-.362-5.877l-.01.037,3.221-4.574.847-1.216.215-.315a.777.777,0,0,0,.068-.109" transform="translate(-115.699 -138.834)" fill="#455a64"/><path d="M247.63,216.16a8.389,8.389,0,0,1,1.519,2.3,8.409,8.409,0,0,1-1.519-2.3" transform="translate(-139.225 -121.534)" fill="#263238"/><path d="M225,91.237a7.309,7.309,0,0,1,2.715,6.193c-.088,1.136-.4,2.434.338,3.3s2.169.834,2.871,1.717c.826,1.041.134,2.59.43,3.885a2.632,2.632,0,0,0,2.8,1.955,10.274,10.274,0,0,1-5.089,2.208l-1.424-1.829a1.886,1.886,0,0,1-.127,2.314,4.293,4.293,0,0,1-2.128,1.264,13.025,13.025,0,0,1-11.414-1.855" transform="translate(-120.302 -51.297)" fill="#263238"/><path d="M190.136,93.193a26.336,26.336,0,0,0,.954-2.575c.411-1.927-.527-4.1.408-5.83a5.487,5.487,0,0,1,3.423-2.252A8.859,8.859,0,0,0,198.7,80.79c.733-.721,1.15-1.715,1.881-2.439a6.181,6.181,0,0,1,4.041-1.471,8.773,8.773,0,0,1,4.407.715,4.816,4.816,0,0,1,2.714,3.393A14.176,14.176,0,0,0,212,83.17a15.008,15.008,0,0,0,1.225,2.08,3.86,3.86,0,0,1-.965,4.627L201.944,103.2c-2.166.819-7.416-.171-9.091-1.772s-3.436-6.033-2.717-8.234" transform="translate(-106.81 -43.211)" fill="#263238"/><path d="M220.377,94.9c-.425-3.025-2.725-6.6-5.729-6.046l-9.273,3.117c-.913.168-.26,1.656-.17,2.58l2.016,20.913c-.015,0-1.252.894-1.7.723a.126.126,0,0,0-.15.188c1.114,1.617,6.371,8.686,11.789,6.528,1.21-.482-.126-4.3.015-5.709l-.161-3.609c-.12-1.843-.178-2.6-.176-2.581,0,0,3.833-.943,4.249-6.072a54.269,54.269,0,0,0-.71-10.032" transform="translate(-115.201 -49.924)" fill="#ffc09d"/><path d="M235.952,113.211a.652.652,0,0,1-.576.7.624.624,0,0,1-.715-.535.651.651,0,0,1,.575-.7.624.624,0,0,1,.716.535" transform="translate(-131.935 -63.348)" fill="#263238"/><path d="M221.679,114.1a.652.652,0,0,1-.576.7.624.624,0,0,1-.715-.534.651.651,0,0,1,.575-.7.624.624,0,0,1,.716.534" transform="translate(-123.91 -63.851)" fill="#263238"/><path d="M235.737,107.6c-.07.119-.675-.263-1.432-.153s-1.243.629-1.342.533c-.048-.042.011-.247.221-.486a1.725,1.725,0,0,1,2.214-.3c.265.174.374.356.339.41" transform="translate(-130.973 -60.117)" fill="#263238"/><path d="M219.946,108.737c-.089.109-.684-.322-1.5-.288s-1.391.5-1.484.392c-.046-.046.04-.24.292-.454a1.977,1.977,0,0,1,1.182-.445,1.921,1.921,0,0,1,1.2.361c.259.2.354.384.31.433" transform="translate(-121.98 -60.689)" fill="#263238"/><path d="M228.629,113.256a4.657,4.657,0,0,1,1.12-.292c.177-.032.344-.081.364-.2a.909.909,0,0,0-.16-.52l-.633-1.319a23.459,23.459,0,0,1-1.459-3.465,23.413,23.413,0,0,1,1.734,3.339q.32.7.611,1.329a1.035,1.035,0,0,1,.146.694.449.449,0,0,1-.273.284,1.2,1.2,0,0,1-.3.065,4.563,4.563,0,0,1-1.151.09" transform="translate(-128.11 -60.416)" fill="#263238"/><path d="M223.284,137.868a12.93,12.93,0,0,1-6.924-1.288s1.979,3.425,7.013,2.561Z" transform="translate(-121.647 -76.791)" fill="#ff9b6c"/><path d="M224.525,124.71a1.1,1.1,0,0,1,.359-.426.88.88,0,0,1,.6-.061,1.417,1.417,0,0,1,.792.4.85.85,0,0,1,.2.837c-.078.292-.515.453-.813.5a1.335,1.335,0,0,1-.871-.183.769.769,0,0,1-.446-.577.942.942,0,0,1,.174-.5" transform="translate(-126.139 -69.829)" fill="#ff9b6c"/><path d="M224.964,123.12c.113-.015.173.743.864,1.232s1.492.343,1.506.449c.014.047-.169.162-.51.2a1.9,1.9,0,0,1-1.254-.332,1.652,1.652,0,0,1-.676-1.037c-.053-.315.017-.51.069-.509" transform="translate(-126.435 -69.223)" fill="#263238"/><path d="M219.584,102.956c-.054.2-.759.159-1.572.321-.816.146-1.459.436-1.581.274-.055-.078.046-.266.3-.47a2.786,2.786,0,0,1,2.4-.454c.311.1.474.236.451.328" transform="translate(-121.679 -57.645)" fill="#263238"/><path d="M234.827,101.831c-.129.169-.692.047-1.354.09-.664.023-1.215.2-1.357.045-.063-.077.014-.242.247-.411a2.08,2.08,0,0,1,1.08-.345,2.053,2.053,0,0,1,1.1.236c.246.145.336.3.28.385" transform="translate(-130.494 -56.903)" fill="#263238"/><path d="M200.746,92.4a4.152,4.152,0,0,1,2.11-1.4,46.675,46.675,0,0,1,10.74-2.736,1.9,1.9,0,0,1-.656,2.328,8.458,8.458,0,0,1-2.4,1.074,3.289,3.289,0,0,0-2.012,1.6c-.362.865-.056,1.889-.374,2.771-.547,1.518-2.665,2.007-3.2,3.528-.407,1.15.259,2.375.425,3.583a4.36,4.36,0,0,1-4.281,4.963q-.377-6.532-.754-13.065a4.35,4.35,0,0,1,.408-2.646" transform="translate(-112.623 -49.625)" fill="#263238"/><path d="M180.027,107.721c.688-.616,1.55-1.15,1.824-2.032.4-1.284-.632-2.794.032-3.964.607-1.067,2.391-1.013,2.955-2.1.44-.851-.065-1.6.1-2.352a2.039,2.039,0,0,1,1.989-1.314l5.948,8.62c.552,2.891,1.108,4.431.487,6.122a13.71,13.71,0,0,0-.918,2.811,2.806,2.806,0,0,0,.918,2.668c-3.556.279-6.889-1.582-9.969-3.382l-3.26-1.9a2.381,2.381,0,0,1-.9-.746c-.478-.791.1-1.808.788-2.424" transform="translate(-100.678 -53.946)" fill="#263238"/><path d="M188.754,103.63a1.686,1.686,0,0,0,.38.073,3.246,3.246,0,0,0,1.108-.079,3.424,3.424,0,0,0,1.545-.832,3.373,3.373,0,0,0,1.017-2.078,3.486,3.486,0,0,0-.116-1.364,5.555,5.555,0,0,0-.661-1.322,5.238,5.238,0,0,1-.681-1.371,1.767,1.767,0,0,1,.19-1.508c.324-.433.925-.539,1.482-.764a1.626,1.626,0,0,0,.758-.562,1.59,1.59,0,0,0,.245-.932,10.116,10.116,0,0,0-.4-1.852,2.021,2.021,0,0,1-.006-.908,1.268,1.268,0,0,1,.513-.721,3.557,3.557,0,0,1,1.8-.481,3.856,3.856,0,0,0,1.833-.539,3.454,3.454,0,0,0,1.254-1.36,5.7,5.7,0,0,0,.463-1.7,7.944,7.944,0,0,1,.348-1.6,3.556,3.556,0,0,1,.836-1.26,3.993,3.993,0,0,1,4.663-.655,4.861,4.861,0,0,1,1.369,1.043,6.44,6.44,0,0,1,.847,1.213.356.356,0,0,0-.034-.092c-.028-.059-.061-.15-.123-.261a4.66,4.66,0,0,0-.63-.914,4.843,4.843,0,0,0-1.376-1.092,4.177,4.177,0,0,0-2.268-.5,4.24,4.24,0,0,0-2.568,1.136,3.72,3.72,0,0,0-.887,1.32,8.05,8.05,0,0,0-.367,1.633,5.552,5.552,0,0,1-.451,1.645,3.261,3.261,0,0,1-1.185,1.277,3.661,3.661,0,0,1-1.745.506,3.729,3.729,0,0,0-1.9.517,1.48,1.48,0,0,0-.593.837,2.226,2.226,0,0,0,0,1,10.233,10.233,0,0,1,.4,1.816,1.392,1.392,0,0,1-.207.816,1.435,1.435,0,0,1-.668.492c-.266.112-.551.189-.826.306a1.692,1.692,0,0,0-.731.526,1.946,1.946,0,0,0-.215,1.67,5.369,5.369,0,0,0,.711,1.415,5.429,5.429,0,0,1,.653,1.277,3.338,3.338,0,0,1,.124,1.3,3.267,3.267,0,0,1-.952,2.011,3.4,3.4,0,0,1-1.485.837,3.852,3.852,0,0,1-1.467.084" transform="translate(-106.126 -45.652)" fill="#455a64"/><path d="M177.736,97.5a.749.749,0,0,0-.117.291,1.277,1.277,0,0,0,.153.882,1.355,1.355,0,0,0,.455.478,1.415,1.415,0,0,0,.76.2,1.776,1.776,0,0,0,1.558-.989,2.383,2.383,0,0,0,.253-1.084,3.326,3.326,0,0,0-.25-1.175,7.329,7.329,0,0,1-.805-2.419,1.642,1.642,0,0,1,.413-1.223,1.8,1.8,0,0,1,1.293-.4,4.359,4.359,0,0,0,1.54-.16,1.339,1.339,0,0,0,.633-.533,1.909,1.909,0,0,0,.26-.785A6.27,6.27,0,0,0,183.751,89a3.481,3.481,0,0,1,.082-1.465,3.7,3.7,0,0,1,1.655-2.172,5.233,5.233,0,0,1,2.466-.563,7.281,7.281,0,0,0,2.251-.355,4.7,4.7,0,0,0,1.593-1,4.648,4.648,0,0,0,.873-1.121A3.377,3.377,0,0,0,193.1,81.2a6.518,6.518,0,0,1-.493,1.088,4.733,4.733,0,0,1-.882,1.076,4.634,4.634,0,0,1-1.565.95,7.238,7.238,0,0,1-2.21.321,5.362,5.362,0,0,0-2.553.57,3.882,3.882,0,0,0-1.754,2.282,3.671,3.671,0,0,0-.091,1.547,6.209,6.209,0,0,1,.127,1.53,1.326,1.326,0,0,1-.766,1.152,4.259,4.259,0,0,1-1.466.147,1.983,1.983,0,0,0-1.428.466,1.83,1.83,0,0,0-.464,1.367,3.488,3.488,0,0,0,.326,1.325c.172.4.364.777.51,1.151a3.159,3.159,0,0,1,.25,1.115,2.231,2.231,0,0,1-.224,1.016,1.653,1.653,0,0,1-1.429.94,1.325,1.325,0,0,1-.707-.171,1.284,1.284,0,0,1-.436-.435,1.271,1.271,0,0,1-.181-.833c.031-.2.087-.294.076-.3" transform="translate(-99.852 -45.653)" fill="#263238"/><path d="M249.927,105.016a1.407,1.407,0,0,1-.012.93,1.224,1.224,0,0,1-.739.749,1.285,1.285,0,0,1-1.305-.356,1.181,1.181,0,0,1-.306-.745,2.449,2.449,0,0,1,.136-.9,5.232,5.232,0,0,0,.515-2.042,2.869,2.869,0,0,0-1.082-2.055,3.359,3.359,0,0,0-1.108-.584,4.959,4.959,0,0,0-1.266-.182,6.674,6.674,0,0,1-1.23-.128,1.633,1.633,0,0,1-.957-.595,2.007,2.007,0,0,1-.346-1.052,4.024,4.024,0,0,1,.092-1.1,8.312,8.312,0,0,0,.319-2.081A3.157,3.157,0,0,0,242,93.15a4.066,4.066,0,0,0-1.159-.979,7.656,7.656,0,0,1-.927-.64,2.371,2.371,0,0,1-.583-.749s0,.022.015.063a1.061,1.061,0,0,0,.071.174,1.9,1.9,0,0,0,.443.572,7.088,7.088,0,0,0,.917.677,4.037,4.037,0,0,1,1.1.969,3.023,3.023,0,0,1,.581,1.648,8.361,8.361,0,0,1-.334,2.035,4.181,4.181,0,0,0-.1,1.148,2.2,2.2,0,0,0,.38,1.159,1.836,1.836,0,0,0,1.071.675,6.758,6.758,0,0,0,1.269.135,4.776,4.776,0,0,1,1.216.172,3.185,3.185,0,0,1,1.042.545,2.685,2.685,0,0,1,1.018,1.909,5.165,5.165,0,0,1-.489,1.979,2.6,2.6,0,0,0-.131.964,1.329,1.329,0,0,0,.359.833,1.405,1.405,0,0,0,1.449.366,1.357,1.357,0,0,0,.812-1.556.746.746,0,0,0-.1-.232" transform="translate(-134.564 -51.041)" fill="#263238"/><path d="M248.967,184.11a42.42,42.42,0,0,0,2.321,7.446c1.209,2.483,1,2.609,2.941,2.832s4.831.558,6.36-1.158,1.84-5.239,1.35-7.19-2.971-5.249-2.971-5.249l-5.262-13.748-2.7.884-2.055,11.741Z" transform="translate(-139.968 -93.919)" fill="#fd963d"/><path d="M219.963,155.019a10.391,10.391,0,0,0-2.438-4.227c-.841-.892-8.478-3.532-8.478-3.532-6.679,1.534-9.908-1.5-10.6-1.6-.478-.07-5.794.62-5.794.62l-2.36,15.957.076,1.343.586,9.677c.05.078-2.026,7.482-2.026,7.482s12.917,5.181,18.02,6.343,10.437-5.373,10.437-5.373l-1.4-11.117Z" transform="translate(-106.226 -81.895)" fill="#fd963d"/><path d="M253.122,171.458c.063,0-.15,5.27-.474,11.763s-.639,11.755-.7,11.752.149-5.268.473-11.763.638-11.754.7-11.752" transform="translate(-141.649 -96.401)" fill="#263238"/><path d="M247.751,178.1c.014-.023.246.063.542.339a.97.97,0,0,1,.2.276.471.471,0,0,1,.052.207.535.535,0,0,1-.049.22.906.906,0,0,1-1.168.519,3.919,3.919,0,0,1-.38-.154c-.235-.107-.439-.215-.608-.311-.337-.19-.533-.33-.518-.358a1.934,1.934,0,0,1,.59.214l.619.262a1.423,1.423,0,0,0,.735.168.683.683,0,0,0,.538-.424c.108-.182-.021-.369-.133-.511-.241-.28-.443-.419-.422-.447" transform="translate(-138.213 -100.134)" fill="#ff9b6c"/><path d="M187.547,147.085s-6.841.158-7.523,7.768.726,21,1.717,22.888,12.27,5.484,12.27,5.484,8.235-5.8,9.352-8.537a5.07,5.07,0,0,0-.531-5.465c-2.733-4.29-4.005-2.273-4.005-2.273-.907,1.357-5.413,3.523-5.413,3.523l-2.268-.8a79.386,79.386,0,0,1-.577-9.25" transform="translate(-101.117 -82.698)" fill="#fd963d"/><path d="M190.457,160.42a1.049,1.049,0,0,1,.005.159c0,.114,0,.269,0,.469.006.413.011,1.025.052,1.818.076,1.586.254,3.9.591,6.8l-.046-.057,2.271.794-.058,0c.844-.417,1.723-.882,2.618-1.409.447-.263.9-.542,1.341-.851a7,7,0,0,0,1.254-1.048c.086-.1.161-.215.271-.335a1.2,1.2,0,0,1,.376-.266,1.321,1.321,0,0,1,.913-.049,3.631,3.631,0,0,1,1.487,1.042l.31.342.284.366c.2.24.362.506.541.764a8.85,8.85,0,0,1,.937,1.674,4.385,4.385,0,0,1,.286,1.961,6.865,6.865,0,0,1-.476,1.97,6.087,6.087,0,0,1-1.135,1.738,20.543,20.543,0,0,1-1.464,1.513,69.562,69.562,0,0,1-6.847,5.5l-.046.033-.054-.018c-.97-.313-2-.663-3.035-1.028-1.474-.522-2.923-1.063-4.332-1.645a25.516,25.516,0,0,1-4.044-2,3.328,3.328,0,0,1-.848-.755,3.932,3.932,0,0,1-.39-1.051c-.186-.707-.31-1.414-.428-2.115q-.337-2.1-.54-4.128c-.285-2.7-.454-5.266-.541-7.674s-.087-4.656.028-6.7c.041-.511.064-1.011.116-1.5.082-.483.122-.961.233-1.411a8.774,8.774,0,0,1,.947-2.436,7.293,7.293,0,0,1,2.989-2.869,8.685,8.685,0,0,1,2.5-.844,6.594,6.594,0,0,1,.682-.086,2.006,2.006,0,0,1,.234,0l-.232.028c-.153.02-.381.048-.675.108a8.959,8.959,0,0,0-2.465.877,7.242,7.242,0,0,0-2.92,2.854,8.684,8.684,0,0,0-.916,2.405c-.107.444-.144.918-.222,1.394-.049.482-.07.982-.109,1.491-.1,2.042-.093,4.284,0,6.688s.271,4.97.561,7.659c.14,1.345.32,2.719.546,4.115.119.7.244,1.4.427,2.093a3.816,3.816,0,0,0,.36.984,3.158,3.158,0,0,0,.789.694,25.358,25.358,0,0,0,4.005,1.974c1.4.579,2.849,1.119,4.321,1.64,1.033.365,2.063.715,3.029,1.027l-.1.015a69.935,69.935,0,0,0,6.827-5.474,20.337,20.337,0,0,0,1.451-1.494,5.9,5.9,0,0,0,1.1-1.674,5.1,5.1,0,0,0,.2-3.78,8.633,8.633,0,0,0-.913-1.638c-.176-.255-.338-.519-.531-.754l-.278-.361-.3-.334a3.467,3.467,0,0,0-1.4-.995,1.138,1.138,0,0,0-.785.036,1.022,1.022,0,0,0-.321.225c-.084.089-.168.211-.265.326a7.131,7.131,0,0,1-1.293,1.074c-.45.311-.905.589-1.356.851-.9.526-1.784.987-2.636,1.4l-.028.014-.03-.011-2.266-.807-.041-.015,0-.042c-.318-2.9-.475-5.22-.528-6.81-.029-.795-.023-1.407-.016-1.821.01-.2.017-.355.022-.469a.962.962,0,0,1,.014-.158" transform="translate(-101.005 -82.696)" fill="#263238"/><path d="M224.013,182.071l1.557-2.838s.194-1.5.337-2.283a2.113,2.113,0,0,1,.93-1.247l.077-1,1.464-1.69a1.709,1.709,0,0,1,1.282-1.4,5.3,5.3,0,0,1,1.4.277c.075.005.879-.686,1.648-.365a10.969,10.969,0,0,1,2.432,1.495c.388.379-.945,4.174-.945,4.174l-1.464,3.253-2.06,1.137-3.291,5.141s-3.889-1.058-3.364-4.657" transform="translate(-125.923 -96.393)" fill="#ffc09d"/><path d="M230.513,184.541c-.007-.006.073-.126.3-.239a1.08,1.08,0,0,1,.45-.1,5.757,5.757,0,0,1,.588.049,2.03,2.03,0,0,1,.351.036,2.628,2.628,0,0,1,.36.13,7.127,7.127,0,0,1,.733.377c.25.145.507.306.765.49.128.092.257.19.383.3a1.222,1.222,0,0,1,.352.421.265.265,0,0,1-.016.207,1.139,1.139,0,0,1-.075.132,1.693,1.693,0,0,1-.177.221,1.431,1.431,0,0,1-.448.329.787.787,0,0,1-.553.033,4.18,4.18,0,0,1-.457-.156,14.13,14.13,0,0,1-1.432-.688l.088-.014a6.707,6.707,0,0,1-.888.807,6.8,6.8,0,0,1,.78-.911l.036-.039.053.025c.388.182.875.414,1.438.628.284.09.59.248.846.113a1.227,1.227,0,0,0,.373-.281,1.412,1.412,0,0,0,.152-.191c.042-.065.089-.149.062-.151a1.271,1.271,0,0,0-.281-.312c-.12-.1-.243-.2-.366-.287-.249-.181-.5-.343-.741-.49a7.571,7.571,0,0,0-.7-.385,2.489,2.489,0,0,0-.328-.132,1.938,1.938,0,0,0-.323-.046,1.962,1.962,0,0,0-.987-.032c-.219.078-.321.174-.334.157" transform="translate(-129.604 -103.569)" fill="#ff9b6c"/><path d="M234.263,181.264a3.054,3.054,0,0,1,.5-.443l.026-.021.033.018c.409.22,1.032.568,1.807.961.194.1.4.2.612.294a2.994,2.994,0,0,0,.656.232.887.887,0,0,0,.648-.192,1.23,1.23,0,0,0,.383-.62l.046.119-.018-.013c-1.27-.892-2.416-1.711-3.246-2.318l.025.012c-.521-.158-.942-.289-1.231-.386a1.845,1.845,0,0,1-.443-.172,1.892,1.892,0,0,1,.468.085c.3.07.724.177,1.251.315l.012,0,.013.009c.853.575,2.012,1.374,3.282,2.266l.018.012.066.046-.02.073a1.44,1.44,0,0,1-.463.744,1.107,1.107,0,0,1-.809.235,2.954,2.954,0,0,1-.724-.26c-.216-.1-.421-.207-.614-.311-.772-.416-1.379-.79-1.772-1.043l.059,0a3.057,3.057,0,0,1-.56.359" transform="translate(-131.598 -100.491)" fill="#ff9b6c"/><path d="M238.3,177.485a7.734,7.734,0,0,1,1.277.287l.018,0,.016.016c.478.467,1.115,1.1,1.828,1.83l-.071-.033a.759.759,0,0,0,.7-.416,1.042,1.042,0,0,0,.065-.124l0,.076a11.011,11.011,0,0,0-.689-1.683,2.984,2.984,0,0,0-1-1.037,13.043,13.043,0,0,1-1.1-.828,6.2,6.2,0,0,1,1.189.7c.176.121.368.257.566.418a2.1,2.1,0,0,1,.521.647,10.046,10.046,0,0,1,.724,1.715l.013.039-.016.037a1.2,1.2,0,0,1-.081.158.981.981,0,0,1-.911.521l-.044-.005-.028-.028c-.705-.732-1.325-1.387-1.778-1.878l.034.02a7.79,7.79,0,0,1-1.234-.435" transform="translate(-133.983 -98.716)" fill="#ff9b6c"/><path d="M196.372,159.53c.011-.01.105.077.265.245a8.563,8.563,0,0,1,.628.753,12.98,12.98,0,0,1,1.6,2.808,13.69,13.69,0,0,1,.887,3.109,9.419,9.419,0,0,1,.109.974,1.1,1.1,0,0,1,0,.361c-.037,0-.1-.5-.263-1.305a16.91,16.91,0,0,0-.939-3.05,15.842,15.842,0,0,0-1.525-2.8c-.462-.676-.791-1.066-.762-1.091" transform="translate(-110.408 -89.694)" fill="#263238"/><path d="M193.558,204.1a4.272,4.272,0,0,1,.588-1.052,10.948,10.948,0,0,1,1.955-2.155,11.135,11.135,0,0,1,2.449-1.572,4.3,4.3,0,0,1,1.132-.411,11.694,11.694,0,0,1-1.061.555,13.7,13.7,0,0,0-2.374,1.6,13.418,13.418,0,0,0-1.972,2.075,11.962,11.962,0,0,1-.718.957" transform="translate(-108.826 -111.833)" fill="#263238"/><path d="M207.447,205.387a5.461,5.461,0,0,1,1.343-4.447,15.943,15.943,0,0,0-.949,2.14,15.466,15.466,0,0,0-.394,2.307" transform="translate(-116.59 -112.977)" fill="#263238"/><path d="M252.177,154.271l9.548,3.4.277.511,5.456-1.612.663,1.377-13.148,13.563-13.351.178-1.56-2.452Z" transform="translate(-134.973 -86.738)" fill="#f5f5f5"/><path d="M252.017,154.27a.536.536,0,0,1-.054.078l-.165.215-.647.821-2.455,3.077-8.714,10.84.007-.117,1.564,2.45-.09-.049,13.351-.187-.081.035.455-.469,12.7-13.082-.018.111-.661-1.378.113.05-5.46,1.6-.063.018-.031-.057-.276-.512.043.037-6.966-2.524-1.892-.7-.493-.186a1.481,1.481,0,0,1-.17-.07,1.133,1.133,0,0,1,.164.049l.489.164,1.892.653,7.029,2.462.028.01.014.027.279.51-.094-.039,5.452-1.626.078-.023.035.074.666,1.375.03.062-.048.049-12.682,13.1-.455.469-.033.034h-.048l-13.351.169h-.059l-.031-.049-1.557-2.454-.039-.061.046-.056,8.819-10.821,2.487-3.029.658-.791.17-.2a.383.383,0,0,1,.059-.062" transform="translate(-134.814 -86.737)" fill="#263238"/><path d="M243.061,174.571c.055-.13,11.916-15.779,11.916-15.779l8.351,1.907.666.744,5.813-.952-12.424,14.137-3.995.231-.818-.534Z" transform="translate(-136.66 -89.28)" fill="#455a64"/><path d="M253.365,174.855l0,0-.815-.532-9.523.247.006-.016c.055-.129,11.433-15.142,11.918-15.782l0-.005h.007l8.355,1.908,0,0,.662.739,5.837-.956-.02.023-12.427,14.141h0Zm-.812-.556,0,0,.815.532,3.987-.23,12.4-14.111-5.789.948,0,0-.664-.742-8.341-1.9c-.275.364-11.507,15.184-11.9,15.755Z" transform="translate(-136.638 -89.265)" fill="#263238"/><path d="M280.344,165.159a2.943,2.943,0,0,1-.3.513l-.892,1.352-2.964,4.448c-1.163,1.735-2.236,3.293-3.047,4.4-.4.552-.742.992-.982,1.291a2.994,2.994,0,0,1-.393.448,2.974,2.974,0,0,1,.322-.5l.922-1.331c.776-1.126,1.826-2.7,2.989-4.431s2.228-3.3,3.02-4.412c.4-.558.721-1.007.953-1.312a3,3,0,0,1,.376-.462" transform="translate(-152.796 -92.859)" fill="#263238"/><path d="M278.255,163.438a2.944,2.944,0,0,1-.3.513l-.892,1.352L274.1,169.75c-1.163,1.735-2.236,3.293-3.047,4.4-.4.552-.742.992-.982,1.29a3,3,0,0,1-.393.448,2.966,2.966,0,0,1,.322-.5l.922-1.331c.776-1.126,1.826-2.7,2.989-4.431s2.228-3.3,3.021-4.412c.4-.558.721-1.007.953-1.312a3,3,0,0,1,.376-.462" transform="translate(-151.621 -91.892)" fill="#263238"/><path d="M260.895,181.685a.894.894,0,0,1,.756.379,6.492,6.492,0,0,1,.981,2.712c-.161.345-.965,1.507-.965,1.507l-.224,1.238s.192.927.209,1.289a4.333,4.333,0,0,1-.266,1.134s-.072.644-.1,1.05-.663,2.835-.663,2.835l.137,2.678s-1.385,2.206-3.814.25l-.717-.6-.052-1.74-.181-2.648s-2.6-2.839-2.629-3.033-.514-.614-.015-1.275c0,0-.285-.15-.131-.663a.775.775,0,0,1,.563-.579s-.07-1.135.8-1.336c0,0,2.4.223,2.984.265a8.663,8.663,0,0,1,2.141,1.021l1.207-1.714a18.164,18.164,0,0,1-.471-2.053.686.686,0,0,1,.458-.716" transform="translate(-142.317 -102.15)" fill="#ffc09d"/><path d="M258.946,197.88a19.237,19.237,0,0,1-5.008-2.973c.038-.054,1.126.663,2.507,1.481s2.53,1.433,2.5,1.492" transform="translate(-142.775 -109.584)" fill="#ff9b6c"/><path d="M260.189,194.557a28.738,28.738,0,0,0-2.494-1.429,27.084,27.084,0,0,0-2.714-.946,2.533,2.533,0,0,1,.849.092,9.264,9.264,0,0,1,1.959.646,9.4,9.4,0,0,1,1.771,1.057,2.56,2.56,0,0,1,.628.58" transform="translate(-143.362 -108.046)" fill="#ff9b6c"/><path d="M268.938,192.711c-.041.049-.416-.2-.868-.513s-.814-.58-.782-.636a1.993,1.993,0,0,1,.913.449c.461.32.777.652.737.7" transform="translate(-150.28 -107.7)" fill="#ff9b6c"/><path d="M260.383,205.513c-.04.047-.341-.143-.632-.464s-.453-.637-.4-.672.289.211.571.519.5.568.463.617" transform="translate(-145.812 -114.908)" fill="#ff9b6c"/></g><g clip-path="url(#a)"><path d="M87.733,131.848a2.356,2.356,0,0,1,1.73-1.181,1.35,1.35,0,0,0,.83-.245,1.892,1.892,0,0,0,.278-.563,1.194,1.194,0,0,1,1.649-.479,1.41,1.41,0,0,0,.411.237c.628.145.966-1.05,1.592-.9a1.353,1.353,0,0,0-.488.644.613.613,0,0,0,.258.711c.634.319,1.218-.917,1.891-.692.363.122.544.638.926.63a1.285,1.285,0,0,0,.417-.142.982.982,0,0,1,1.223.553c.148.4.073.952.451,1.145a.916.916,0,0,0,.758-.087,2.553,2.553,0,0,1,.015,1.155,1.538,1.538,0,0,1,1.022,1.872,3.281,3.281,0,0,1,1.088.654,1.143,1.143,0,0,1,.314,1.168,1.043,1.043,0,0,0-.1.273.576.576,0,0,0,.078.3,5.273,5.273,0,0,1,.535,1.084c.091.394-.088.9-.486.967-.093.016-.2.011-.264.081a.266.266,0,0,0-.048.2,2.75,2.75,0,0,0,.275.823,1.159,1.159,0,0,1,.087.846.5.5,0,0,1-.7.277l.675,1.219c.134.242.269.541.13.779-.182.313-.679.233-.943-.014s-.411-.6-.682-.841a2.185,2.185,0,0,1-.33-.3c-.07-.094-.117-.215-.223-.264-.213-.1-.419.216-.336.436s.307.345.5.484.37.36.305.586c-.031.109-.116.2-.145.306-.1.38.472.576.627.936a.947.947,0,0,1-.169.819c-.179.3-.6.622-.83.355-.081-.092-.1-.226-.165-.327a.89.89,0,0,0-.352-.242,1.838,1.838,0,0,1-.756-.737c.381.281.809.673.711,1.136a1.95,1.95,0,0,1-.267.527c-.19.339-.26.735-.446,1.076a1.2,1.2,0,0,0-1.054,1.622.9.9,0,0,1-1.08.13.768.768,0,0,0-.284-.145.625.625,0,0,0-.329.095,1.893,1.893,0,0,1-1.957-.248l.306-.206a4.4,4.4,0,0,1-2.043-.063,1.51,1.51,0,0,1-1.07-1.565c.056-.293.223-.622.046-.862a.739.739,0,0,0-.557-.213l-2.572-.214a2.277,2.277,0,0,1-1.192-.326.786.786,0,0,1-.221-1.09,2.235,2.235,0,0,0-1.047-.67c-.453-.133-.937-.119-1.4-.232a1.276,1.276,0,0,1-1.017-.872c-.09-.463.447-.98.847-.73-.242-.67-1.476-.393-1.759-1.047-.23-.531.4-1,.657-1.524-.125-.172-.353-.245-.483-.414-.272-.354.038-.861.38-1.149s.769-.6.753-1.048-.513-.848-.383-1.287a.505.505,0,0,1,.6-.328c.108-.873,1.753-.667,2-1.513a.316.316,0,0,0,0-.2.34.34,0,0,0-.116-.135,3.569,3.569,0,0,0-.787-.331c-.263-.113-.521-.348-.489-.632s.524-.4.59-.126a.629.629,0,0,1,.991-.009.679.679,0,0,1,.8-.29,1.986,1.986,0,0,1,.763.517" transform="translate(-46.302 -72.364)" fill="#263238"/><path d="M101.527,150.453a5.15,5.15,0,0,0-2.78-2.171,3.071,3.071,0,0,0-1.47-.273,1.29,1.29,0,0,0-1.119.875l.3.788c.266,1.312,1.565,2.107,2.38,3.169.355.462.7,1.04,1.278,1.114a1.249,1.249,0,0,0,.858-.255,2.573,2.573,0,0,0,.555-3.247" transform="translate(-54.064 -83.209)" fill="#ff725e"/><path d="M87.084,157a2.684,2.684,0,0,0-1.223-3.218,1.8,1.8,0,0,0-.807-2.031,5.251,5.251,0,0,0-2.245-.669,3.615,3.615,0,0,0-4.8-1.306c-1.293-1.044-3.261-.674-4.654.233a4.25,4.25,0,0,1-1.059.591,6.975,6.975,0,0,1-.882.139,3.87,3.87,0,0,0-3,3.451,2.986,2.986,0,0,1-.126.773,4.056,4.056,0,0,1-.582.846,2.593,2.593,0,0,0-.4,2.122,4.891,4.891,0,0,1,.455,1.818c-.044.313-.207.6-.22.921-.036.916,1.139,1.485,1.229,2.4.018.186-.011.373-.008.56a1.6,1.6,0,0,0,.417,1.042c.2.217.468.39.57.668a2.587,2.587,0,0,1,.065.666,5.847,5.847,0,0,0,2.287,2.336l13.3-3.9a2.589,2.589,0,0,0,1.272-2.715.947.947,0,0,1-.024-.525,1.115,1.115,0,0,1,.291-.345c.715-.717.464-1.921.081-2.859a1.222,1.222,0,0,1-.115-.407,1.544,1.544,0,0,1,.162-.592" transform="translate(-37.806 -83.853)" fill="#263238"/><path d="M85.541,163.129a7.424,7.424,0,0,0-5.64-5.054,9.174,9.174,0,0,0-3.638.207,5.615,5.615,0,0,0-2.93,1.6,7.6,7.6,0,0,0-1.95,6.362,49.513,49.513,0,0,0,2.8,8.732c2.092,4.2,5.657,3.7,5.657,3.7l.864,3.37,1.579,14.243,9.909-17.883-2.4-.3Z" transform="translate(-40.057 -88.817)" fill="#ffc09d"/><path d="M89.586,190.011a.91.91,0,0,0-.443-.466.929.929,0,0,0-1.107.216,1.03,1.03,0,0,0-.043,1.13c.251.208.452.426.774.373a1.446,1.446,0,0,0,.148-.033,1.017,1.017,0,0,0,.6-.432.905.905,0,0,0,.075-.789" transform="translate(-49.391 -106.517)" fill="#ff9b6c"/><path d="M77.641,184.157a.594.594,0,0,0,.727.4.568.568,0,0,0,.423-.695.594.594,0,0,0-.726-.4.569.569,0,0,0-.424.7" transform="translate(-43.642 -103.139)" fill="#263238"/><path d="M75.07,178.717c.094.052.423-.4,1.034-.591s1.154-.025,1.2-.121c.022-.043-.091-.155-.331-.235a1.629,1.629,0,0,0-.986.006,1.567,1.567,0,0,0-.794.563c-.142.2-.164.356-.119.379" transform="translate(-42.196 -99.909)" fill="#263238"/><path d="M84.492,181.829a4.257,4.257,0,0,0-1.047.133c-.161.033-.318.049-.378-.049a.835.835,0,0,1-.041-.494l.088-1.331a21.382,21.382,0,0,0,.059-3.428,21.374,21.374,0,0,0-.335,3.414q-.035.7-.066,1.332a.945.945,0,0,0,.111.637.411.411,0,0,0,.328.147,1.1,1.1,0,0,0,.276-.046,4.157,4.157,0,0,0,1-.314" transform="translate(-46.534 -99.325)" fill="#263238"/><path d="M90.886,200.85a11.836,11.836,0,0,0,5.443-3.446s-.6,3.611-5.151,4.589Z" transform="translate(-51.1 -110.989)" fill="#ff9b6c"/><path d="M73.825,174.171c.149.117.585-.13,1.145-.256.556-.144,1.058-.125,1.135-.3.033-.082-.072-.209-.309-.3a1.728,1.728,0,0,0-.983-.035,1.708,1.708,0,0,0-.854.48c-.168.188-.2.348-.134.406" transform="translate(-41.49 -97.398)" fill="#263238"/><path d="M91.051,180.461a.594.594,0,0,1-.394.73.568.568,0,0,1-.732-.355.6.6,0,0,1,.394-.73.569.569,0,0,1,.733.355" transform="translate(-50.545 -101.246)" fill="#263238"/><path d="M91.411,174.126c-.051.094-.573-.108-1.189.062s-.984.6-1.071.545c-.042-.025-.007-.179.151-.376a1.631,1.631,0,0,1,.833-.529,1.568,1.568,0,0,1,.972.044c.23.094.331.211.305.254" transform="translate(-50.115 -97.702)" fill="#263238"/><path d="M91.358,169.457c-.083.173-.6.158-1.173.308-.579.132-1.031.383-1.183.267-.068-.058-.031-.219.145-.409a1.832,1.832,0,0,1,.888-.49,1.807,1.807,0,0,1,1.01.026c.242.088.348.215.313.3" transform="translate(-50.023 -95.061)" fill="#263238"/><path d="M105.241,177.647c-.1-.33.034-1.225.343-1.378.826-.408,2.412-.83,3.12,1.37.967,3.007-2.252,3.358-2.285,3.274-.026-.066-.823-2.127-1.178-3.265" transform="translate(-59.152 -98.922)" fill="#ffc09d"/><path d="M108.453,180.855c.01-.014.064.02.166.032a.548.548,0,0,0,.394-.118,1.36,1.36,0,0,0,.226-1.356,1.818,1.818,0,0,0-.388-.7.636.636,0,0,0-.524-.275.28.28,0,0,0-.263.243c-.013.1.025.151.011.162s-.081-.029-.1-.162a.348.348,0,0,1,.058-.227.414.414,0,0,1,.265-.169.773.773,0,0,1,.7.29,1.866,1.866,0,0,1,.451.78,1.429,1.429,0,0,1-.347,1.545.589.589,0,0,1-.5.074c-.117-.044-.155-.106-.146-.115" transform="translate(-60.709 -100.23)" fill="#ff9b6c"/><path d="M69.733,164.508a1.838,1.838,0,0,0,.453-1.917c.442-.007.689-.655.814-1.078s.359-.69.209-1.106a.5.5,0,0,1-.047-.254c.025-.135.157-.218.269-.3a2.116,2.116,0,0,0,.89-1.82,4.48,4.48,0,0,0,2.173-.307,1.711,1.711,0,0,0,2.725-.987,1.533,1.533,0,0,0,1.206.415,4.549,4.549,0,0,0,1.272-.324,1.812,1.812,0,0,0,1.752,1.6.439.439,0,0,1,.333.078.456.456,0,0,1,.059.35A1.426,1.426,0,0,0,83.3,160.31a1.064,1.064,0,0,0,.591,1.561c.13.032.3.067.321.2a.3.3,0,0,1-.026.149,2.069,2.069,0,0,0-.163,1.146.764.764,0,0,0,.85.619,1.013,1.013,0,0,0-.176.78c.078.264.426.447.641.276.091-.073,1.5-.839,1.538-.949.49-1.425-.985-2.368-1.519-3.777a9.794,9.794,0,0,0-2.58-3.664,7.152,7.152,0,0,0-1.526-1.117,9.543,9.543,0,0,0-2.04-.7,8.708,8.708,0,0,0-2.78-.394,8,8,0,0,0-4.549,2.424,7.419,7.419,0,0,0-1.335,1.479,6.716,6.716,0,0,0-.815,2.234A8.375,8.375,0,0,0,69.6,164" transform="translate(-39.063 -86.825)" fill="#263238"/><path d="M67.519,160.607a1.207,1.207,0,0,1,.061-.374c.032-.12.086-.266.125-.442a1.472,1.472,0,0,0-.007-.616,4.571,4.571,0,0,0-.246-.742,3.485,3.485,0,0,1-.256-.9,2.632,2.632,0,0,1,.1-1.074,2.56,2.56,0,0,1,.238-.543,3.838,3.838,0,0,1,.366-.5,1.965,1.965,0,0,0,.335-.538,2.556,2.556,0,0,0,.108-.657,4.244,4.244,0,0,1,1.256-2.659,3.791,3.791,0,0,1,.641-.5,3.373,3.373,0,0,1,.764-.337,3.791,3.791,0,0,1,.416-.095c.142-.021.284-.035.424-.052a2.036,2.036,0,0,0,.806-.251c.253-.137.488-.317.745-.474a5.593,5.593,0,0,1,.808-.419,5.667,5.667,0,0,1,.881-.284,4.827,4.827,0,0,1,.935-.113,3.114,3.114,0,0,1,1.831.528l.158.113-.054,0A3.666,3.666,0,0,1,82.814,151l-.033-.023a9.982,9.982,0,0,1,1.231.228,3.332,3.332,0,0,1,1.1.5,2.174,2.174,0,0,1,.717.919,1.494,1.494,0,0,1,.03,1.11l-.018-.049a2.615,2.615,0,0,1,1.177,1.332,2.68,2.68,0,0,1,.154,1.6,2.569,2.569,0,0,1-.107.361,3.426,3.426,0,0,0-.123.334.675.675,0,0,0-.015.329,1.924,1.924,0,0,0,.106.31,5.184,5.184,0,0,1,.325,1.155,2.507,2.507,0,0,1-.025.964,1.545,1.545,0,0,1-.317.636c-.123.151-.249.234-.308.314a.674.674,0,0,0-.081.125.367.367,0,0,1,.072-.133c.057-.084.181-.171.3-.321a1.537,1.537,0,0,0,.3-.629,2.49,2.49,0,0,0,.014-.949,5.192,5.192,0,0,0-.331-1.141,1.927,1.927,0,0,1-.111-.319.731.731,0,0,1,.014-.357,3.45,3.45,0,0,1,.123-.341,2.491,2.491,0,0,0,.1-.352,2.618,2.618,0,0,0-.158-1.556,2.545,2.545,0,0,0-1.147-1.289l-.032-.017.013-.033a1.411,1.411,0,0,0-.033-1.049,2.076,2.076,0,0,0-.691-.88,3.255,3.255,0,0,0-1.076-.487,9.951,9.951,0,0,0-1.221-.224l-.022,0-.011-.02A3.577,3.577,0,0,0,78,149.754l-.027.016-.028-.02-.153-.109a3.016,3.016,0,0,0-1.775-.511,4.7,4.7,0,0,0-.916.11,5.454,5.454,0,0,0-1.661.689c-.253.152-.489.334-.75.475a2.159,2.159,0,0,1-.408.176,2.609,2.609,0,0,1-.43.085c-.143.018-.284.031-.422.051a3.873,3.873,0,0,0-.4.091,3.338,3.338,0,0,0-.745.327,3.685,3.685,0,0,0-.627.486,4.166,4.166,0,0,0-1.241,2.6,2.627,2.627,0,0,1-.116.675,2.022,2.022,0,0,1-.348.556,3.811,3.811,0,0,0-.363.493,2.521,2.521,0,0,0-.235.528,2.58,2.58,0,0,0-.1,1.05,3.449,3.449,0,0,0,.246.893,4.566,4.566,0,0,1,.24.751,1.487,1.487,0,0,1,0,.629c-.042.179-.1.322-.134.441a1.886,1.886,0,0,0-.066.274c-.01.063-.011.095-.014.095" transform="translate(-37.771 -83.794)" fill="#455a64"/><path d="M83.231,149.916c0,.008-.094-.021-.263-.047a2.132,2.132,0,0,0-.717.013,2,2,0,0,0-.947.453,2.063,2.063,0,0,0-.647,1.1,1.725,1.725,0,0,0-.044.388.393.393,0,0,0,.121.311l.105.08-.132,0a1.308,1.308,0,0,0-.9.4,1.262,1.262,0,0,0-.338.717,1.387,1.387,0,0,0,.037.534c.034.122.064.186.057.189s-.012-.014-.028-.043a.9.9,0,0,1-.06-.136,1.32,1.32,0,0,1,.273-1.315,1.376,1.376,0,0,1,.954-.439l-.027.083a.483.483,0,0,1-.159-.382,1.82,1.82,0,0,1,.045-.411,2.116,2.116,0,0,1,.683-1.144,2.023,2.023,0,0,1,.992-.453,1.985,1.985,0,0,1,.736.017,1.362,1.362,0,0,1,.192.055c.043.016.065.026.064.029" transform="translate(-44.645 -84.218)" fill="#455a64"/><path d="M96.974,154.509a.466.466,0,0,1-.072.141,2.02,2.02,0,0,1-.267.343,1.51,1.51,0,0,1-.545.368,1.129,1.129,0,0,1-.819.007l.063-.031-.05.151c-.02.05-.044.1-.066.151a1.916,1.916,0,0,1-.608.7,1.955,1.955,0,0,1-.691.314,1.726,1.726,0,0,1-.509.04.625.625,0,0,1-.184-.035,2.74,2.74,0,0,0,.676-.07,2,2,0,0,0,.656-.32,1.887,1.887,0,0,0,.573-.675c.021-.048.044-.095.063-.143l.048-.143.017-.05.047.019a1.061,1.061,0,0,0,.754,0,1.516,1.516,0,0,0,.53-.334c.26-.251.369-.449.383-.439" transform="translate(-52.416 -86.871)" fill="#455a64"/><path d="M101.453,159.766s.007.019.01.058a.557.557,0,0,1-.022.167.844.844,0,0,1-.385.475,1.61,1.61,0,0,1-.891.175,5.215,5.215,0,0,1-.535-.039.868.868,0,0,1-.535-.25l-.034-.043h.078a3.613,3.613,0,0,1-.728.816,1.627,1.627,0,0,1-.82.352,1.172,1.172,0,0,1-.6-.075.728.728,0,0,1-.144-.078c-.031-.021-.046-.034-.044-.037s.07.036.2.08a1.225,1.225,0,0,0,.574.043,1.608,1.608,0,0,0,.775-.354,3.7,3.7,0,0,0,.7-.8l.037-.053.041.052.028.035a.783.783,0,0,0,.478.22c.177.027.356.035.523.044a1.586,1.586,0,0,0,.854-.145.835.835,0,0,0,.384-.428,1.368,1.368,0,0,0,.047-.213" transform="translate(-54.43 -89.827)" fill="#455a64"/><path d="M104.894,132.861c0,.006-.051.018-.135.07a.722.722,0,0,0-.269.322.986.986,0,0,0-.047.647,2.874,2.874,0,0,0,.369.788l.027.045-.051.014a1.8,1.8,0,0,0-.943.644,1.4,1.4,0,0,0-.243,1.234,1.3,1.3,0,0,0,.752.868l.126.048-.129.039a1.631,1.631,0,0,0-.987.859,1.563,1.563,0,0,0-.1,1.046,1.685,1.685,0,0,0,.309.635c.1.131.174.19.169.2s-.021-.011-.055-.039a1.211,1.211,0,0,1-.138-.137,1.634,1.634,0,0,1-.341-.64,1.6,1.6,0,0,1,.082-1.094,1.7,1.7,0,0,1,1.032-.914l0,.087a1.381,1.381,0,0,1-.811-.928,1.424,1.424,0,0,1-.024-.705,1.591,1.591,0,0,1,.285-.61,1.864,1.864,0,0,1,1-.666l-.024.059a2.869,2.869,0,0,1-.363-.814,1.019,1.019,0,0,1,.069-.681.711.711,0,0,1,.3-.324.446.446,0,0,1,.108-.042q.039-.01.039-.007" transform="translate(-57.995 -74.7)" fill="#455a64"/><path d="M113.857,143.96s-.012.017-.04.045a1.613,1.613,0,0,1-.129.116,2.244,2.244,0,0,1-.564.327,2.507,2.507,0,0,1-.983.182,2.394,2.394,0,0,1-1.225-.349l.067-.027a2.011,2.011,0,0,1-1.068,1.354,1.524,1.524,0,0,1-1.751-.331l.077-.028a1.258,1.258,0,0,1-.2.625,1.687,1.687,0,0,1-.407.434,2.328,2.328,0,0,1-.889.383,4.566,4.566,0,0,1-.622.089,1.211,1.211,0,0,1-.225.008,1.479,1.479,0,0,1,.222-.036,5.9,5.9,0,0,0,.613-.112,2.336,2.336,0,0,0,.856-.39,1.369,1.369,0,0,0,.567-1l0-.113.073.085a1.442,1.442,0,0,0,1.646.3,1.935,1.935,0,0,0,1.021-1.288l.015-.06.052.032a2.338,2.338,0,0,0,1.179.349,2.5,2.5,0,0,0,.962-.157,2.942,2.942,0,0,0,.753-.437" transform="translate(-59.539 -80.94)" fill="#455a64"/><path d="M113.958,154.366s0,.025-.018.066a.322.322,0,0,1-.147.13,1.459,1.459,0,0,1-.7.1,1.713,1.713,0,0,1-.967-.4,1.757,1.757,0,0,1-.6-1.13v-.01l.081.029a2.054,2.054,0,0,1-1.157.544,2.288,2.288,0,0,1-1.04-.11,2.546,2.546,0,0,1-.629-.317.921.921,0,0,1-.2-.164,3.8,3.8,0,0,0,.848.417,2.286,2.286,0,0,0,1.007.087,2,2,0,0,0,1.1-.525l.068-.066.012.1v.009a1.663,1.663,0,0,0,1.475,1.475,1.521,1.521,0,0,0,.679-.063.323.323,0,0,0,.181-.162" transform="translate(-61.051 -86.03)" fill="#455a64"/><path d="M92.112,137.807a2.684,2.684,0,0,0,.152.969,2.128,2.128,0,0,0,1.76,1.386,2.169,2.169,0,0,0,.745-.037l.057-.013v.058a2.768,2.768,0,0,0,.193,1.009,2.829,2.829,0,0,0,.411.712,1.973,1.973,0,0,0,.207.231.237.237,0,0,0,.2.073.159.159,0,0,0,.11-.075c.014-.028.013-.047.017-.046s.01.018,0,.053a.169.169,0,0,1-.117.1.269.269,0,0,1-.235-.068,1.9,1.9,0,0,1-.224-.229,2.74,2.74,0,0,1-.439-.719,2.776,2.776,0,0,1-.211-1.038l.057.045A2.187,2.187,0,0,1,92.2,138.8a2.149,2.149,0,0,1-.12-.725,1.694,1.694,0,0,1,.016-.2.2.2,0,0,1,.015-.068" transform="translate(-51.772 -77.481)" fill="#455a64"/><path d="M89.123,188.806c-.091,0-.03.61-.5,1.093s-1.126.483-1.122.568c0,.039.155.1.429.082a1.515,1.515,0,0,0,.94-.44,1.32,1.32,0,0,0,.384-.912c0-.256-.086-.4-.127-.391" transform="translate(-49.195 -106.155)" fill="#263238"/><path d="M94.051,228.34c-.268-2.022-1.959-16.391-1.959-16.391a8.418,8.418,0,0,0-3.336-6.113c-3.213-2.274-9.2-2.526-9.479-2.3-.62.506-4.478,13.016-5.722,13.016s-3.575-9.061-3.575-9.061l-.535-2.089-4.232,1.7a9.49,9.49,0,0,0-3.231,5.092c-.693,2.275-3.281,16.519-3.281,16.519l-6.472-.46v5.619l12.984,3.058a7.378,7.378,0,0,0,2.314-3.239,21.032,21.032,0,0,0-.025-5.012,5.107,5.107,0,0,0,.59.542l2.869,8.217c12.669,3.073,26.057,6.9,31.955,2.919-.861-5.254-8.685-10.662-8.865-12.019" transform="translate(-29.365 -114.399)" fill="#455a64"/><path d="M81.56,227.811a3.075,3.075,0,0,1,.31.637c.177.412.42,1,.7,1.709l.017.042-.022.043a10.225,10.225,0,0,0-1.159,5.2c.032.841.141,1.356.1,1.364a1.181,1.181,0,0,1-.112-.355,7.672,7.672,0,0,1-.151-1,9.381,9.381,0,0,1,.32-3.316,9.513,9.513,0,0,1,.821-1.989l-.006.084c-.265-.713-.481-1.313-.626-1.738a3.069,3.069,0,0,1-.2-.681" transform="translate(-45.662 -128.085)" fill="#263238"/><path d="M23,218.946l-2.231-.867a44.824,44.824,0,0,0-4.753,3.362,10.746,10.746,0,0,0-2.525,3.167A2.617,2.617,0,0,0,12,222.856a5.036,5.036,0,0,0-4.036.1l-.776,1.617,4.25,3.188,5.275,2.473,3.942-.271,7.477-3.246Z" transform="translate(-4.039 -122.614)" fill="#e0e0e0"/><path d="M21.118,236.936,5.385,225.393s3.988-.643,5.081,0a1.73,1.73,0,0,1,.643,1.994l1.446-.134a10.6,10.6,0,0,1,4.021-4.432,50.011,50.011,0,0,1,6.045-3.473L36.126,231.7l.65,3.078s-7.917,1.809-10.553,4.511Z" transform="translate(-3.028 -123.327)" fill="#fd963d"/><path d="M36.322,248.685c-.039.05-3.33-2.435-7.349-5.55s-7.249-5.681-7.211-5.731,3.329,2.435,7.35,5.551,7.248,5.68,7.21,5.73" transform="translate(-12.235 -133.479)" fill="#263238"/><path d="M32.593,249.506c-.039.05-3.33-2.435-7.349-5.55s-7.249-5.681-7.211-5.731,3.329,2.435,7.35,5.551,7.248,5.68,7.21,5.73" transform="translate(-10.139 -133.94)" fill="#263238"/><path d="M69.142,337.106l4.938,9.059s-7.048,7.847-6.29,9.606l16.952-8.535L77.6,332.819Z" transform="translate(-38.083 -187.125)" fill="#263238"/><path d="M92.571,355.491a.82.82,0,0,1,.9.593.745.745,0,0,1-.524.9.866.866,0,0,1-.947-.633c-.057-.4.263-.888.648-.869" transform="translate(-51.721 -199.866)" fill="#e0e0e0"/><path d="M84.661,363.92l-.774-1.426-15.964,8.717s-.58.726-.214,1.245Z" transform="translate(-38.001 -203.81)" fill="#455a64"/><path d="M81.493,362.957c.047.086.48-.083,1.029-.007s.949.334,1.008.261c.068-.055-.318-.516-.983-.6s-1.112.271-1.054.341" transform="translate(-45.816 -203.871)" fill="#fff"/><path d="M78.325,367.032c.024.094.457.062.923.29s.744.578.824.532c.085-.025-.115-.566-.7-.838s-1.088-.069-1.048.015" transform="translate(-44.037 -206.275)" fill="#fff"/><path d="M76.789,371.965c.084-.019-.019-.514-.472-.885s-.935-.367-.934-.277.369.225.737.536.582.658.669.626" transform="translate(-42.384 -208.453)" fill="#fff"/><path d="M79.407,357.268c.074.062.394-.25.878-.451s.928-.23.934-.327-.5-.232-1.069.015-.818.715-.742.763" transform="translate(-44.639 -200.365)" fill="#fff"/><path d="M103.106,338.574l1.92,12.147-1.252,10.045a1.26,1.26,0,0,0,2.233.944c1.62-2.034,7.541-9.547,7.35-10.427-.22-1.02-1.174-12.947-1.174-12.947Z" transform="translate(-57.971 -190.227)" fill="#263238"/><path d="M107.326,377.752l8.293-11.72.069.517a1.9,1.9,0,0,1-.281,1.279c-.651,1.013-2.511,3.773-6.991,9.45a1.259,1.259,0,0,1-1.09.475" transform="translate(-60.343 -205.799)" fill="#455a64"/><g transform="translate(52.012 156.463)" opacity="0.6"><g clip-path="url(#q)"><path d="M119.048,357.6a.763.763,0,0,0-.074,1.015.733.733,0,0,0,1.005.082.8.8,0,0,0,.073-1.075.76.76,0,0,0-1.055.031" transform="translate(-118.815 -357.421)" fill="#fff"/></g></g><path d="M108.666,378.286a2.718,2.718,0,0,0-2.635-.883c-.015-.028.127-.144.406-.222a2.007,2.007,0,0,1,2.039.683c.176.232.219.409.19.423" transform="translate(-59.614 -212.033)" fill="#fff"/><path d="M107.536,382.916a10.21,10.21,0,0,0-1.15-.379,10.2,10.2,0,0,0-1.211.007,1.4,1.4,0,0,1,1.253-.274c.745.114,1.167.6,1.108.646" transform="translate(-59.133 -214.914)" fill="#fff"/><path d="M110.475,373.123a12.645,12.645,0,0,0-1.735-.7,12.666,12.666,0,0,0-1.865-.178,3.446,3.446,0,0,1,3.6.883" transform="translate(-60.09 -209.18)" fill="#fff"/><path d="M110.363,365.563c-.023.078-.734-.113-1.614-.027s-1.547.39-1.583.318a3.126,3.126,0,0,1,3.2-.292" transform="translate(-60.252 -205.36)" fill="#fff"/><path d="M109.224,357.3a4,4,0,0,0-3.242.551c-.023-.023.089-.194.349-.394a2.747,2.747,0,0,1,2.433-.414c.31.1.474.228.459.257" transform="translate(-59.586 -200.677)" fill="#fff"/><path d="M62.744,276.529s-12.7-5.823-15.724-4.775-6.988,5.474-4.076,11.531,12.885,24.186,12.885,24.186l9.245-5.551L58.2,287.943l7.92,2.213Z" transform="translate(-23.573 -152.721)" fill="#263238"/><path d="M93.262,274.166s-.221-.015-.582,0c-1.639.068-6.625,1.143-6.625,6.678,0,6.755,6.692,26.769,6.692,26.769l10.9-.944-2.254-16.607s5.774,4.5,7.055,4.614,9.395.338,10.136-.119c8.325-5.131,3.309-16.24,3.309-16.24-3.614,1.422-7.414,2.338-11.413.334,0,0-10.231-3.9-17.22-4.484" transform="translate(-48.384 -154.144)" fill="#263238"/><path d="M100.886,288.81a.348.348,0,0,1,.021.085c.012.067.027.15.046.256.036.226.087.563.137,1a24.159,24.159,0,0,1,.112,3.86V294c.518,3.834,1.308,9.691,2.243,16.618l.015.112-.113.01-10.23.891-.672.058-.091.008-.027-.086c-1.328-4.176-2.519-8.164-3.6-11.789s-2.045-6.885-2.734-9.661a17.979,17.979,0,0,1-.491-3.825,10.384,10.384,0,0,1,.347-2.887,7.715,7.715,0,0,1,.693-1.7c.1-.182.2-.313.255-.4a.812.812,0,0,1,.095-.132.883.883,0,0,1-.075.144c-.051.095-.137.229-.234.413a8.244,8.244,0,0,0-.649,1.7,10.512,10.512,0,0,0-.306,2.862,18.149,18.149,0,0,0,.52,3.791c.706,2.758,1.7,6.014,2.779,9.637s2.291,7.609,3.617,11.779l-.118-.078.672-.058,10.231-.879-.1.122-2.152-16.63v-.012a25.953,25.953,0,0,0-.054-3.846c-.039-.442-.079-.779-.1-1.007-.012-.106-.021-.19-.029-.257a.361.361,0,0,1,0-.088" transform="translate(-48.072 -158.112)" fill="#455a64"/><path d="M78.9,226.1l13,3.888s3.523-16.613,5.334-19.328,6.181-2.465,7.765,1.721-4.246,24.707-7.439,26.97-9.691-.578-10.954-1.143-10.131-5.739-10.131-5.739Z" transform="translate(-42.998 -117.439)" fill="#455a64"/><path d="M78.807,225.961s-.049.15-.151.429l-.454,1.234-1.762,4.725-.024-.068,6.807,3.894,2.069,1.153c.357.194.721.394,1.093.577s.768.344,1.166.5a22.157,22.157,0,0,0,5.2,1.457,9.291,9.291,0,0,0,2.862-.025,3.93,3.93,0,0,0,.706-.183,3.31,3.31,0,0,0,.673-.29,2.86,2.86,0,0,0,.608-.406,1.843,1.843,0,0,0,.257-.265,2.845,2.845,0,0,0,.238-.291,15.775,15.775,0,0,0,1.516-2.7c.441-.96.843-1.955,1.227-2.975.759-2.042,1.438-4.177,2.054-6.38s1.161-4.477,1.586-6.811a30.041,30.041,0,0,0,.58-5.433,7.54,7.54,0,0,0-.119-1.32,2.356,2.356,0,0,0-.081-.314,1.622,1.622,0,0,0-.107-.306l-.266-.6a5.4,5.4,0,0,0-1.663-1.944,4.089,4.089,0,0,0-2.36-.764,3.887,3.887,0,0,0-2.3.757,3.832,3.832,0,0,0-.845.86,3.373,3.373,0,0,0-.306.518,3.73,3.73,0,0,0-.257.546c-.158.372-.31.744-.436,1.126s-.269.753-.383,1.132c-.958,3.021-1.675,5.933-2.34,8.629s-1.222,5.2-1.712,7.442l-.018.082-.08-.024-9.513-2.887-2.57-.788-.668-.209c-.151-.048-.231-.077-.231-.077s.073.016.221.058l.661.188,2.565.747,9.58,2.82-.1.058c.478-2.25,1.035-4.75,1.683-7.454s1.366-5.616,2.321-8.65c.114-.381.249-.758.383-1.139s.279-.761.439-1.139a3.831,3.831,0,0,1,.264-.563,3.587,3.587,0,0,1,.319-.542,4.04,4.04,0,0,1,.891-.908,4.1,4.1,0,0,1,2.428-.8,4.3,4.3,0,0,1,2.487.8,5.628,5.628,0,0,1,1.736,2.025l.275.619a1.751,1.751,0,0,1,.113.324,2.61,2.61,0,0,1,.086.335,7.744,7.744,0,0,1,.124,1.361,30.162,30.162,0,0,1-.583,5.478c-.426,2.344-.981,4.622-1.593,6.832s-1.3,4.348-2.065,6.4c-.386,1.022-.791,2.022-1.238,2.988a15.908,15.908,0,0,1-1.544,2.74,3.016,3.016,0,0,1-.248.3,2.01,2.01,0,0,1-.275.281,3.041,3.041,0,0,1-.649.433,3.5,3.5,0,0,1-.7.3,4.174,4.174,0,0,1-.734.189,9.488,9.488,0,0,1-2.926.019,22.248,22.248,0,0,1-5.244-1.486c-.4-.163-.793-.327-1.174-.513s-.74-.389-1.1-.585l-2.066-1.163c-2.656-1.516-4.937-2.851-6.785-3.936l-.042-.025.017-.044,1.832-4.733.475-1.213c.107-.271.165-.4.165-.4" transform="translate(-42.909 -117.303)" fill="#263238"/><path d="M70.831,241.433l-1.09-.32s-.226-4.707-1.5-4.942c-.9-.165-5.584.826-5.74,2.218a1.03,1.03,0,0,0,1.237,1.222s-1.608.448-1.6,1.413c0,.5.742.6,1.435.6,0,0-1.033.557-.4,1.308s1.885.338,1.885.338l1.769-.365a9.256,9.256,0,0,0,.13,2.772c.305,1.04,1.729,1.415,1.729,1.415Z" transform="translate(-34.933 -132.776)" fill="#ffc09d"/><path d="M70.085,240.775c-.006.025-.284.022-.736.113a17,17,0,0,0-1.744.42c-.665.215-1.252.47-1.685.636a2.389,2.389,0,0,1-.721.226,2.643,2.643,0,0,1,.656-.373,12.632,12.632,0,0,1,1.681-.705,9.561,9.561,0,0,1,1.791-.362c.467-.052.768.01.759.047" transform="translate(-36.657 -135.337)" fill="#ff9b6c"/><path d="M69.579,246.569c0,.07-1.1.05-2.4.358s-2.282.8-2.313.735a7.15,7.15,0,0,1,4.714-1.093" transform="translate(-36.469 -138.592)" fill="#ff9b6c"/><path d="M41.5,257.741a1.359,1.359,0,0,0-.52,1.964l.153.462a1.835,1.835,0,0,0,.367,2.195,1.58,1.58,0,0,0,1.155,1.948s-.231.279.33.63a2.187,2.187,0,0,0,1.833.192c.9-.29,2.265-.805,2.343-1.269.116-.693-.693-.982-1.1-.809s1.56-.751,1.56-1.5a1.784,1.784,0,0,0-.289-1.1s.809.058.577-.982a1.571,1.571,0,0,0-1.444-1.1s.577-.693-.693-1.155-4.274.52-4.274.52" transform="translate(-22.918 -144.551)" fill="#ffc09d"/><path d="M47.064,259.72c.011.068-1.271.294-2.78.813s-2.666,1.115-2.7,1.055a2.765,2.765,0,0,1,.724-.458,13.726,13.726,0,0,1,3.9-1.329,2.778,2.778,0,0,1,.854-.08" transform="translate(-23.381 -146.019)" fill="#ff9b6c"/><path d="M48.285,264.88a22.414,22.414,0,0,1-3.01,1.05,22.251,22.251,0,0,1-3.077.832,22.455,22.455,0,0,1,3.01-1.05,22.383,22.383,0,0,1,3.077-.832" transform="translate(-23.726 -148.923)" fill="#ff9b6c"/><path d="M48.365,270.748a7.666,7.666,0,0,1-1.712.738,7.653,7.653,0,0,1-1.79.524,7.751,7.751,0,0,1,1.713-.739,7.739,7.739,0,0,1,1.79-.524" transform="translate(-25.224 -152.221)" fill="#ff9b6c"/></g></g></g></g></svg>