<svg xmlns="http://www.w3.org/2000/svg" width="96.504" height="96.504" viewBox="0 0 96.504 96.504"><g transform="translate(0 0)"><path d="M85.77,27V73.644a4.825,4.825,0,0,1-4.825,4.825H19.825A4.825,4.825,0,0,1,15,73.644V27Z" transform="translate(9.126 16.427)" fill="#f5f5f5" fill-rule="evenodd"/><path d="M57.825,27V73.644A4.825,4.825,0,0,1,53,78.469h4.825a4.825,4.825,0,0,0,4.825-4.825V27Z" transform="translate(32.246 16.427)" fill="#cfd8dc" fill-rule="evenodd"/><path d="M85.77,23.825v8.042H15V23.825A4.825,4.825,0,0,1,19.825,19H80.945A4.825,4.825,0,0,1,85.77,23.825Z" transform="translate(9.126 11.56)" fill="#b4dd7f" fill-rule="evenodd"/><path d="M57.825,19H53a4.825,4.825,0,0,1,4.825,4.825v8.042H62.65V23.825A4.825,4.825,0,0,0,57.825,19Z" transform="translate(32.246 11.56)" fill="#87b748" fill-rule="evenodd"/><path d="M71.77,9V25.084H28.343a4.825,4.825,0,0,0-4.825,4.825v30.56H5.825A4.825,4.825,0,0,1,1,55.644V9Z" transform="translate(0.608 5.476)" fill="#f5f5f5" fill-rule="evenodd"/><path d="M12,23.825v30.56h4.825V23.825A4.825,4.825,0,0,1,21.65,19H16.825A4.825,4.825,0,0,0,12,23.825Z" transform="translate(7.301 11.56)" fill="#cfd8dc" fill-rule="evenodd"/><path d="M42,9h4.825V25.084H42Z" transform="translate(25.553 5.476)" fill="#cfd8dc" fill-rule="evenodd"/><path d="M71.77,5.825v8.042H1V5.825A4.825,4.825,0,0,1,5.825,1H66.945A4.825,4.825,0,0,1,71.77,5.825Z" transform="translate(0.608 0.608)" fill="#b4dd7f" fill-rule="evenodd"/><path d="M43.825,1H39a4.825,4.825,0,0,1,4.825,4.825v8.042H48.65V5.825A4.825,4.825,0,0,0,43.825,1Z" transform="translate(23.728 0.608)" fill="#87b748" fill-rule="evenodd"/><rect width="22.927" height="12.958" rx="2" transform="translate(48.252 50.246)" fill="#ffdc00"/><rect width="12.958" height="8.971" rx="2" transform="translate(32.303 79.153)" fill="#e91e63"/><rect width="12.958" height="8.971" rx="2" transform="translate(53.236 79.153)" fill="#60a917"/><rect width="12.958" height="8.971" rx="2" transform="translate(74.169 79.153)" fill="#ff9801"/><path d="M90.071,28.951H73.987V6.434A6.434,6.434,0,0,0,67.553,0H6.434A6.434,6.434,0,0,0,0,6.434V61.119a6.434,6.434,0,0,0,6.434,6.434H22.518V90.071A6.434,6.434,0,0,0,28.951,96.5H90.071A6.434,6.434,0,0,0,96.5,90.071V35.385A6.434,6.434,0,0,0,90.071,28.951Zm3.217,6.434v6.434H25.735V35.385a3.217,3.217,0,0,1,3.217-3.217H90.071A3.217,3.217,0,0,1,93.288,35.385ZM6.434,3.217H67.553A3.217,3.217,0,0,1,70.77,6.434v6.434H3.217V6.434A3.217,3.217,0,0,1,6.434,3.217Zm0,61.119a3.217,3.217,0,0,1-3.217-3.217V16.084H70.77V28.951H28.951a6.413,6.413,0,0,0-5.539,3.217H16.084a1.608,1.608,0,0,0,0,3.217h6.434V38.6H16.084a1.608,1.608,0,1,0,0,3.217h6.434v9.65H16.084a1.608,1.608,0,0,0,0,3.217h6.434V57.9H16.084a1.608,1.608,0,1,0,0,3.217h6.434v3.217ZM90.071,93.288H28.951a3.217,3.217,0,0,1-3.217-3.217V45.035H93.288V90.071A3.217,3.217,0,0,1,90.071,93.288Z" transform="translate(0 0)"/><path d="M47.608,25.217H60.476a1.608,1.608,0,0,0,0-3.217H47.608a1.608,1.608,0,0,0,0,3.217Z" transform="translate(27.987 13.385)" fill-rule="evenodd"/><circle cx="1.495" cy="1.495" r="1.495" transform="translate(29.313 35.294)"/><circle cx="1.495" cy="1.495" r="1.495" transform="translate(35.294 35.294)"/><circle cx="1.495" cy="1.495" r="1.495" transform="translate(42.271 35.294)"/><path d="M33.608,7.217H46.476a1.608,1.608,0,0,0,0-3.217H33.608a1.608,1.608,0,1,0,0,3.217Z" transform="translate(19.469 2.434)" fill-rule="evenodd"/><circle cx="1.495" cy="1.495" r="1.495" transform="translate(6.386 6.386)"/><circle cx="1.495" cy="1.495" r="1.495" transform="translate(13.364 6.386)"/><circle cx="1.495" cy="1.495" r="1.495" transform="translate(19.345 6.386)"/><path d="M7.217,12H5.608a1.608,1.608,0,1,0,0,3.217H7.217a1.608,1.608,0,0,0,0-3.217Z" transform="translate(2.434 7.301)" fill-rule="evenodd"/><path d="M10.608,15.217H31.518a1.608,1.608,0,1,0,0-3.217H10.608a1.608,1.608,0,1,0,0,3.217Z" transform="translate(5.476 7.301)" fill-rule="evenodd"/><path d="M10.608,19.217h4.825a1.608,1.608,0,1,0,0-3.217H10.608a1.608,1.608,0,1,0,0,3.217Z" transform="translate(5.476 9.735)" fill-rule="evenodd"/><path d="M10.608,31.217h1.608a1.608,1.608,0,1,0,0-3.217H10.608a1.608,1.608,0,1,0,0,3.217Z" transform="translate(5.476 17.035)" fill-rule="evenodd"/><path d="M7.217,16H5.608a1.608,1.608,0,0,0,0,3.217H7.217a1.608,1.608,0,0,0,0-3.217Z" transform="translate(2.434 9.735)" fill-rule="evenodd"/><path d="M7.217,20H5.608a1.608,1.608,0,1,0,0,3.217H7.217a1.608,1.608,0,0,0,0-3.217Z" transform="translate(2.434 12.168)" fill-rule="evenodd"/><path d="M7.217,24H5.608a1.608,1.608,0,1,0,0,3.217H7.217a1.608,1.608,0,0,0,0-3.217Z" transform="translate(2.434 14.602)" fill-rule="evenodd"/><path d="M7.217,28H5.608a1.608,1.608,0,1,0,0,3.217H7.217a1.608,1.608,0,0,0,0-3.217Z" transform="translate(2.434 17.035)" fill-rule="evenodd"/><path d="M7.217,32H5.608a1.608,1.608,0,0,0,0,3.217H7.217a1.608,1.608,0,0,0,0-3.217Z" transform="translate(2.434 19.469)" fill-rule="evenodd"/><path d="M7.217,36H5.608a1.608,1.608,0,0,0,0,3.217H7.217a1.608,1.608,0,0,0,0-3.217Z" transform="translate(2.434 21.903)" fill-rule="evenodd"/><path d="M27.608,15.217h19.3a1.608,1.608,0,1,0,0-3.217h-19.3a1.608,1.608,0,0,0,0,3.217Z" transform="translate(15.819 7.301)" fill-rule="evenodd"/><path d="M72.077,58.951H70.469V55.735a4.825,4.825,0,0,0-4.825-4.825H49.56V46.084h6.434a4.825,4.825,0,0,0,4.825-4.825V34.825A4.825,4.825,0,0,0,55.993,30H39.909a4.825,4.825,0,0,0-4.825,4.825v6.434a4.825,4.825,0,0,0,4.825,4.825h6.434v4.825H30.259a4.825,4.825,0,0,0-4.825,4.825v3.217H23.825A4.825,4.825,0,0,0,19,63.777v3.217a4.825,4.825,0,0,0,4.825,4.825h6.434a4.825,4.825,0,0,0,4.825-4.825V63.777a4.825,4.825,0,0,0-4.825-4.825H28.65V55.735a1.608,1.608,0,0,1,1.608-1.608H46.343v4.825H44.735a4.825,4.825,0,0,0-4.825,4.825v3.217a4.825,4.825,0,0,0,4.825,4.825h6.434a4.825,4.825,0,0,0,4.825-4.825V63.777a4.825,4.825,0,0,0-4.825-4.825H49.56V54.126H65.644a1.608,1.608,0,0,1,1.608,1.608v3.217H65.644a4.825,4.825,0,0,0-4.825,4.825v3.217a4.825,4.825,0,0,0,4.825,4.825h6.434A4.825,4.825,0,0,0,76.9,66.993V63.777A4.825,4.825,0,0,0,72.077,58.951ZM38.3,41.259V34.825a1.608,1.608,0,0,1,1.608-1.608H55.993A1.608,1.608,0,0,1,57.6,34.825v6.434a1.608,1.608,0,0,1-1.608,1.608H39.909A1.608,1.608,0,0,1,38.3,41.259ZM31.867,63.777v3.217A1.608,1.608,0,0,1,30.259,68.6H23.825a1.608,1.608,0,0,1-1.608-1.608V63.777a1.608,1.608,0,0,1,1.608-1.608h6.434A1.608,1.608,0,0,1,31.867,63.777Zm20.909,0v3.217A1.608,1.608,0,0,1,51.168,68.6H44.735a1.608,1.608,0,0,1-1.608-1.608V63.777a1.608,1.608,0,0,1,1.608-1.608h6.434A1.608,1.608,0,0,1,52.777,63.777Zm20.909,3.217A1.608,1.608,0,0,1,72.077,68.6H65.644a1.608,1.608,0,0,1-1.608-1.608V63.777a1.608,1.608,0,0,1,1.608-1.608h6.434a1.608,1.608,0,0,1,1.608,1.608Z" transform="translate(11.56 18.252)"/></g></svg>