<svg xmlns="http://www.w3.org/2000/svg" xmlns:xlink="http://www.w3.org/1999/xlink" width="235.566" height="181.747" viewBox="0 0 235.566 181.747"><defs><clipPath id="a"><rect width="235.566" height="171.515" fill="none"/></clipPath><clipPath id="c"><rect width="93.566" height="60.714" fill="none"/></clipPath><clipPath id="d"><rect width="11.601" height="16.989" fill="none"/></clipPath><clipPath id="e"><rect width="27.675" height="18.274" fill="none"/></clipPath><clipPath id="f"><rect width="5.552" height="6.015" fill="none"/></clipPath><clipPath id="g"><rect width="11.703" height="16.608" fill="none"/></clipPath><clipPath id="h"><rect width="4.008" height="5" fill="none"/></clipPath></defs><g transform="translate(-633.957 -8471.43)"><path d="M20,0H185.588a20,20,0,0,1,20,20V172.212a0,0,0,0,1,0,0H0a0,0,0,0,1,0,0V20A20,20,0,0,1,20,0Z" transform="translate(649.04 8473.902)" fill="#c2e8b0"/><path d="M267.879,643.757c0,6.85-50.421,12.4-112.619,12.4s-112.619-5.553-112.619-12.4,50.421-12.4,112.619-12.4,112.619,5.553,112.619,12.4" transform="translate(596.694 7997.017)" fill="#455a64"/><g transform="translate(633.957 8471.43)"><g clip-path="url(#a)"><path d="M194.549,145.619H7.384s22.938-18.536,12.37-34.954S-12.412,69.224,9.376,39.1,64.551-2.671,117.5.507s67.456,29.921,68.437,50.641c1.385,29.25-29.76,30.171-10.473,49.92,24.114,24.691,19.083,44.55,19.083,44.55" transform="translate(17.336 12.946)" fill="#e1f3d7" opacity="0.74"/><path d="M228.362,271.632a1.928,1.928,0,1,1-1.928-1.929,1.928,1.928,0,0,1,1.928,1.929" transform="translate(-132.754 -159.481)" fill="#ced8d6"/><path d="M539.734,167.979a1.928,1.928,0,1,1-1.929-1.929,1.929,1.929,0,0,1,1.929,1.929" transform="translate(-316.875 -98.189)" fill="#ced8d6"/><rect width="49.007" height="40.97" transform="translate(162.215 30.226)" fill="#fff"/><rect width="9.903" height="12.553" transform="translate(165.985 33.501)" fill="#fdd449"/><path d="M417.761,85.3a1.131,1.131,0,1,1-1.131-1.131,1.131,1.131,0,0,1,1.131,1.131" transform="translate(-245.694 -49.77)" fill="#19888e"/><rect width="7.586" height="9.617" transform="translate(199.935 49.693)" fill="#fc8116"/><path d="M498.116,124.141a.866.866,0,1,1-.866-.866.866.866,0,0,1,.866.866" transform="translate(-293.522 -72.895)" fill="#fdd449"/><rect width="9.872" height="12.515" transform="translate(170.499 53.267)" fill="#fc8116"/><path d="M428.767,133.653a1.127,1.127,0,1,1-1.127-1.127,1.127,1.127,0,0,1,1.127,1.127" transform="translate(-252.206 -78.365)" fill="#fdd449"/><g transform="translate(59.163 22.584)" opacity="0.3" style="mix-blend-mode:multiply;isolation:isolate"><g clip-path="url(#c)"><rect width="93.566" height="60.714" transform="translate(0)" fill="#ced8d6"/></g></g><path d="M307.116,81.494h-35.45a.978.978,0,0,1-.978-.978v-.189a.978.978,0,0,1,.978-.978h35.45a.978.978,0,0,1,.978.978v.189a.978.978,0,0,1-.978.978" transform="translate(-160.064 -46.921)" fill="#ced8d6"/><path d="M307.116,99.476h-35.45a.978.978,0,0,1-.978-.978V98.31a.978.978,0,0,1,.978-.978h35.45a.978.978,0,0,1,.978.978V98.5a.978.978,0,0,1-.978.978" transform="translate(-160.064 -57.554)" fill="#ced8d6"/><path d="M307.116,117.458h-35.45a.978.978,0,0,1-.978-.978v-.189a.978.978,0,0,1,.978-.978h35.45a.978.978,0,0,1,.978.978v.189a.978.978,0,0,1-.978.978" transform="translate(-160.064 -68.188)" fill="#ced8d6"/><path d="M307.116,135.44h-35.45a.978.978,0,0,1-.978-.978v-.189a.978.978,0,0,1,.978-.978h35.45a.978.978,0,0,1,.978.978v.189a.978.978,0,0,1-.978.978" transform="translate(-160.064 -78.821)" fill="#ced8d6"/><path d="M307.116,153.422h-35.45a.978.978,0,0,1-.978-.978v-.189a.978.978,0,0,1,.978-.978h35.45a.978.978,0,0,1,.978.978v.189a.978.978,0,0,1-.978.978" transform="translate(-160.064 -89.454)" fill="#ced8d6"/><path d="M307.116,171.4h-35.45a.978.978,0,0,1-.978-.978v-.189a.978.978,0,0,1,.978-.978h35.45a.978.978,0,0,1,.978.978v.189a.978.978,0,0,1-.978.978" transform="translate(-160.064 -100.087)" fill="#ced8d6"/><path d="M199.646,100.142a18.8,18.8,0,1,1-18.8-18.805,18.805,18.805,0,0,1,18.8,18.805" transform="translate(-95.818 -48.096)" fill="#f4f4f4"/><path d="M200.806,103.9a16.206,16.206,0,1,1-16.2-16.208,16.208,16.208,0,0,1,16.2,16.208" transform="translate(-99.575 -51.854)" fill="#19888e"/><path d="M224.258,103.9h-16.2V87.692a16.208,16.208,0,0,1,16.2,16.208" transform="translate(-123.027 -51.854)" fill="#fc8116"/><path d="M198.641,50.368l5.3,7.93,6.334-8.187Z" transform="translate(-117.461 -29.632)" fill="#fdd449"/><path d="M233.028,178.443,224.2,191.438l12.869,1.833Z" transform="translate(-132.573 -105.517)" fill="#fff"/><path d="M220.389,186.181l4.159-5.55h-5.51Z" transform="translate(-129.521 -106.811)" fill="#fdd449"/><path d="M343.706,200.435l-4.361,5.392,5.507.2Z" transform="translate(-200.661 -118.522)" fill="#fdd449"/><path d="M361.114,45.341l-1.325,8.343,8.265-3.431Z" transform="translate(-212.751 -26.811)" fill="#fff"/><path d="M320.992,31.065l7.872,11.29,5.824-13.367Z" transform="translate(-189.809 -17.141)" fill="#ced8d6"/><path d="M142.76,63.5l5.795,2.568-6.16,4.3Z" transform="translate(-84.201 -37.55)" fill="#ced8d6"/><path d="M366.542,177.907l5.795,2.568-6.16,4.3Z" transform="translate(-216.528 -105.2)" fill="#ced8d6"/><path d="M107.573,213.744H53.218a4.522,4.522,0,0,1-4.517-4.517V178.444h.8v30.783a3.724,3.724,0,0,0,3.72,3.72h54.356a3.724,3.724,0,0,0,3.72-3.72V191.422h.8v17.805a4.522,4.522,0,0,1-4.517,4.517" transform="translate(-28.798 -105.518)" fill="#ced8d6"/><path d="M44.49,131.339a13.244,13.244,0,0,1-1.369,5.842,15.975,15.975,0,0,1-5.309,6.1c-2.422,1.589-1.548,4.847-1.548,4.847H29.507s.876-3.258-1.549-4.847A15.993,15.993,0,0,1,22.81,137.5a13.3,13.3,0,0,1-1.529-6.157c0-6.119,4.253-11.11,11.6-11.11s11.6,4.99,11.6,11.11" transform="translate(-12.584 -71.094)" fill="#fdd449"/><path d="M46.509,191.608H36.932a.71.71,0,0,1-.71-.711v-1.7a.71.71,0,0,1,.71-.711h9.577a.711.711,0,0,1,.711.711v1.7a.711.711,0,0,1-.711.711" transform="translate(-21.419 -111.457)" fill="#444c72"/><path d="M47.685,196.122v5.737a1.5,1.5,0,0,1-1.505,1.505h-5.9a1.5,1.5,0,0,1-1.505-1.505v-5.737Z" transform="translate(-22.928 -115.971)" fill="#19888e"/><path d="M46.533,215.661H44.238a1.818,1.818,0,0,1-1.818-1.818h5.931a1.818,1.818,0,0,1-1.818,1.818" transform="translate(-25.084 -126.45)" fill="#444c72"/><path d="M46.229,163.063a1.691,1.691,0,0,0-1.689,1.689v1.45H43.428v-1.45a1.689,1.689,0,0,0-3.378,0v.676a1.691,1.691,0,0,0,1.689,1.689h.775v6.338h.914v-6.338H44.54v6.338h.914v-6.338h.775a1.691,1.691,0,0,0,1.689-1.689v-.676a1.69,1.69,0,0,0-1.689-1.689M42.514,166.2h-.775a.776.776,0,0,1-.775-.775v-.676a.775.775,0,1,1,1.55,0Zm4.49-.775a.776.776,0,0,1-.775.775h-.775v-1.45a.775.775,0,1,1,1.55,0Z" transform="translate(-23.682 -96.423)" fill="#fff"/><path d="M201.972,208.584a1.928,1.928,0,1,1-1.928-1.929,1.928,1.928,0,0,1,1.928,1.929" transform="translate(-117.149 -122.199)" fill="#ced8d6"/><path d="M66.737,284.256l-.028-.367a3.243,3.243,0,0,1,.875-2.443,3.1,3.1,0,0,0,.989-1.935c0-.72-.452-1.2-1.342-1.215a2.513,2.513,0,0,0-1.427.438l-.339-.89a3.7,3.7,0,0,1,2.019-.565,2.087,2.087,0,0,1,2.359,2.076,3.823,3.823,0,0,1-1.215,2.457,2.789,2.789,0,0,0-.805,2.076l.014.367Zm-.311,1.977a.835.835,0,0,1,.847-.89.884.884,0,1,1-.847.89" transform="translate(-38.711 -163.961)" fill="#ced8d6"/><path d="M534.84,116.971l-.04-.517a4.566,4.566,0,0,1,1.233-3.442,4.371,4.371,0,0,0,1.393-2.726c0-1.015-.637-1.691-1.89-1.712a3.536,3.536,0,0,0-2.01.617l-.478-1.254a5.219,5.219,0,0,1,2.845-.8c2.288,0,3.323,1.413,3.323,2.925,0,1.353-.756,2.327-1.711,3.462a3.931,3.931,0,0,0-1.134,2.925l.02.517Zm-.438,2.786A1.176,1.176,0,0,1,535.6,118.5a1.245,1.245,0,1,1-1.194,1.253" transform="translate(-315.203 -63.355)" fill="#ced8d6"/><path d="M391.591,40.752l-.026-.334a2.948,2.948,0,0,1,.8-2.221,2.818,2.818,0,0,0,.9-1.759c0-.654-.411-1.091-1.22-1.1a2.28,2.28,0,0,0-1.3.4l-.308-.809a3.365,3.365,0,0,1,1.835-.513,1.9,1.9,0,0,1,2.144,1.887,3.474,3.474,0,0,1-1.1,2.233,2.536,2.536,0,0,0-.732,1.887l.013.334Zm-.282,1.8a.759.759,0,0,1,.77-.809.8.8,0,1,1-.77.809" transform="translate(-230.873 -20.348)" fill="#ced8d6"/><path d="M189.284,305.884H162.61V281.838h.944v23.1h25.73Z" transform="translate(-96.154 -166.657)" fill="#fff"/><path d="M193.363,296.561l-.289-2.123-2.123.289-.779,1.024,1.5-.2-5.3,6.974-5.349-4.837-7.458,10.756.734.509,6.878-9.92,5.317,4.808,5.889-7.749.2,1.5Z" transform="translate(-102.631 -174.108)" fill="#fff"/><g transform="translate(11.052 125.768)" opacity="0.3" style="mix-blend-mode:multiply;isolation:isolate"><g clip-path="url(#d)"><path d="M28.689,308.113c-5.048,3.247,2.622,17.6,8.172,16.566s-3.182-19.776-8.172-16.566" transform="translate(-27.044 -307.743)" fill="#ced8d6"/></g></g><g transform="translate(190.87 4.186)" opacity="0.3" style="mix-blend-mode:multiply;isolation:isolate"><g clip-path="url(#e)"><path d="M494.018,27.45c5.354-6.595-21.63-22.095-26.694-15.684-3.23,4.089,22.262,21.142,26.694,15.684" transform="translate(-467.042 -10.243)" fill="#ced8d6"/></g></g><g transform="translate(6.952 118.233)" opacity="0.3" style="mix-blend-mode:multiply;isolation:isolate"><g clip-path="url(#f)"><path d="M20.886,295.133c-2.64,1.232-5.77-4.025-2.418-5.56s5.926,3.922,2.418,5.56" transform="translate(-17.012 -289.304)" fill="#ced8d6"/></g></g><g transform="translate(221.542 124.219)" opacity="0.3" style="mix-blend-mode:multiply;isolation:isolate"><g clip-path="url(#g)"><path d="M543.409,304.32c-4.475,2.191,3.478,16.274,8.624,16.239s-1.965-19.5-8.624-16.239" transform="translate(-542.092 -303.952)" fill="#ced8d6"/></g></g><g transform="translate(231.559 143.123)" opacity="0.3" style="mix-blend-mode:multiply;isolation:isolate"><g clip-path="url(#h)"><path d="M568.288,350.216c-3.046.237-1.451,4.915.732,4.992s2.278-5.225-.732-4.992" transform="translate(-566.602 -350.208)" fill="#ced8d6"/></g></g><path d="M352.021,214.055H228.656v-.8H352.021a3.724,3.724,0,0,0,3.72-3.72V171.672h.8v37.866a4.522,4.522,0,0,1-4.517,4.517" transform="translate(-135.209 -101.513)" fill="#ced8d6"/><path d="M158.346,402.221h-16.24a12.5,12.5,0,0,1,0-5.241l-.263-2.877-.3-3.2,6.2-.741.486,2.041.761,3.208c.825.749,6.229,1.917,7.584,3.276a7.651,7.651,0,0,1,1.761,3.539" transform="translate(-83.7 -230.708)" fill="#f6b68e"/><path d="M148.239,392.2c-1.873,1.355-4.85,1.777-6.4,1.9l-.3-3.2,6.2-.741Z" transform="translate(-83.7 -230.708)" fill="#c4764b"/><path d="M158.72,409.817H142.482a12.5,12.5,0,0,1,0-5.242s5,.931,6.895-1.571c.824.747,6.229,1.915,7.585,3.274a7.635,7.635,0,0,1,1.759,3.539" transform="translate(-84.076 -238.305)" fill="#444c72"/><path d="M100.438,404.118H84.2a12.5,12.5,0,0,1,0-5.241l.243-2.175.255-2.287,6.556-1.048-.092,2.3-.068,1.642c.825.749,6.229,1.917,7.584,3.276a7.651,7.651,0,0,1,1.761,3.539" transform="translate(-49.612 -232.605)" fill="#f6b68e"/><path d="M85.478,394.413l6.556-1.048-.092,2.3a23.206,23.206,0,0,1-6.719,1.04Z" transform="translate(-50.394 -232.605)" fill="#c4764b"/><path d="M84.99,269.159,84.284,294.2l-1.173,26.031s4.6,1.409,8.454-.371l3.412-25.215,2.818-15.8,3.782,15.648,4.45,24.77s4.672.89,8.01-1.187l-2.744-26.328-2.818-24.029Z" transform="translate(-49.145 -158.311)" fill="#444c72"/><path d="M106.714,126.174a3.235,3.235,0,0,0,1.5-2.869c-.177-1.854-2.339-2.03-3.09-2.957s-1.807-2.737-4.634-2.737-4.724,1.854-4.548,3.443c0,0-2.428-.486-3.443,1.324s-.088,3.576-.486,4.414a4.475,4.475,0,0,0,.75,4.238c1.148,1.236.4,2.251,1.677,3.8a3.5,3.5,0,0,0,3.1,1.236Z" transform="translate(-54.269 -69.546)" fill="#222850"/><path d="M191.727,154.165c-.119.5-1.626,1.4-2.917,2.092-1,.534-1.881.944-1.881.944l-2.766-2.12.613-1.028.235-.4s.622-5,1.223-5.448,1.064.128,1.176.7a15.6,15.6,0,0,1,.112,1.969s1.064-1.606,1.08-1.654,1.016-3.029,1.586-3.077.7.315.729.681a16.05,16.05,0,0,1-.379,2.128s.949.793,1,1.124a19.438,19.438,0,0,1,.191,4.085" transform="translate(-108.899 -86.417)" fill="#f6b68e"/><path d="M188.81,167.7c-1,.534-1.881.944-1.881.944l-2.766-2.12.613-1.028a6.876,6.876,0,0,1,4.033,2.2" transform="translate(-108.899 -97.864)" fill="#c4764b"/><path d="M134.758,169.022l9.69,8.74,9.913-10.754a4.4,4.4,0,0,1,4,2.943s-9.12,12.038-13.273,14.708l-8-2.548a36.294,36.294,0,0,1-2.331-13.089" transform="translate(-79.68 -98.755)" fill="#529d2e"/><path d="M113.407,145.2a2.108,2.108,0,0,1-.409.463h0a4.284,4.284,0,0,1-2.676.773l.14,1.5.212,2.289s-.53,1.546-2.956,1.5a5.571,5.571,0,0,1-3.84-1.634l.22-7.194s-.97-.311-1.148-1.058-.573-2.21,0-2.384a1.385,1.385,0,0,1,1.679.705l.22,1.057.792-.042a4.389,4.389,0,0,1,.356-2.384c.527-.663,2.513-1.235,2.513-2.824a4.236,4.236,0,0,0,4.636,1.058s1.148,6.8.265,8.169" transform="translate(-60.697 -80.405)" fill="#f6b68e"/><path d="M109.322,199.782c-.183,1.176-.395,2.3-.59,3.252-.327,1.59-.6,2.682-.6,2.682a46.464,46.464,0,0,1-19.042.9c-.857-.136-1.73-.307-2.61-.51,0,0-.518-.861-1.1-1.9a17.76,17.76,0,0,1-1.669-3.439c-.064-.594,1.319-14.279,2.247-23.354.466-4.551.821-7.943.821-7.943a12.609,12.609,0,0,1,4.854-2.778v0c.347-.112.709-.219,1.088-.307,0,0,1.626,2.562,4.284,2.1s2.363-1.467,2.363-1.467l-.076-.817s.427.139,1.044.367a19.375,19.375,0,0,1,4.24,1.977s5.241,28.072,4.746,31.237" transform="translate(-49.498 -98.279)" fill="#529d2e"/><path d="M88.937,207.67l-1.431,8.58,1.431,3.742.155,1.7.311,3.435h0a23.883,23.883,0,0,1-4.057-.929,4.7,4.7,0,0,1,.036-4.918,17.742,17.742,0,0,1-1.67-3.439c-.064-.594,1.319-14.279,2.248-23.354l1.55-.8v6.946H98.924v2.718Z" transform="translate(-49.497 -113.352)" fill="#3a8416"/><path d="M110.174,260.985s-2.375,1.789-9.345,2.435a42.759,42.759,0,0,1-10.079-.072h0a23.881,23.881,0,0,1-4.057-.929,4.694,4.694,0,0,1,.036-4.918,17.566,17.566,0,0,0,3.559.709,49.7,49.7,0,0,0,8.568.2c8.453-.446,11.226-2.088,11.226-2.088a5.11,5.11,0,0,1,.1,4.659" transform="translate(-50.844 -151.571)" fill="#529d2e"/><path d="M90.75,265.05h0a23.884,23.884,0,0,1-4.057-.929,4.7,4.7,0,0,1,.036-4.918,17.527,17.527,0,0,0,3.559.709l.155,1.7Z" transform="translate(-50.844 -153.272)" fill="#3a8416"/><path d="M116.523,197.789c-.148.333-.333,1.406-.557,2a6.011,6.011,0,0,1-2.039,1.929,11.181,11.181,0,0,1-3.48.664.948.948,0,0,1-.1,0h-2.2l-1.073-4.045s1.406-1.073,1.926-1.482a7.919,7.919,0,0,1,2.448-1.52,6.264,6.264,0,0,1,1.5,0l-.318.906,0,.011c-.011.106-.095.8.042.917a3.706,3.706,0,0,0,1.9-.06c.519-.213,1.892-1.027,2.187-.694s-.076,1.038-.224,1.372" transform="translate(-63.312 -115.48)" fill="#f6b68e"/><path d="M129.661,184.527l-5.784,13.892-11.121-1.088,1.054-2.979a11.178,11.178,0,0,0,3.48-.663,6.02,6.02,0,0,0,2.039-1.929c.224-.6.41-1.668.557-2s.519-1.039.224-1.372-1.668.481-2.187.694a3.707,3.707,0,0,1-1.9.061c-.136-.114-.053-.811-.042-.917l0-.011.318-.906,1.982-5.595Z" transform="translate(-66.674 -107.449)" fill="#f4f4f4"/><path d="M80.844,174.21s-7.1,12.186-7.169,19.009c0,0,.371,1.631,3.189,1.854S88.8,190.4,88.8,190.4s.445-3.708-1.261-5.043l-7.008,2.04s2.435-9.577.309-13.188" transform="translate(-43.566 -103.014)" fill="#529d2e"/><path d="M108.464,169.943c-3.139.333-5.364-3.249-5.364-3.249v0c.345-.11.709-.216,1.088-.307,0,0,1.626,2.562,4.283,2.1s2.365-1.463,2.365-1.463l-.076-.819s.425.141,1.042.368c.538,1.24-.2,3.04-3.339,3.374" transform="translate(-60.965 -98.279)" fill="#3a8416"/><path d="M105.411,167.8l-2.126,3.119a9.166,9.166,0,0,1-2.362-4.458l2-1.2Z" transform="translate(-59.678 -97.722)" fill="#f4f4f4"/><path d="M120.058,167.679l.709-2.07,1.985.958a7.388,7.388,0,0,1-.34,3.048Z" transform="translate(-70.993 -97.928)" fill="#f4f4f4"/><path d="M100.434,409.817H84.2a12.5,12.5,0,0,1,0-5.242s5,.931,6.895-1.571c.824.747,6.229,1.915,7.585,3.274a7.635,7.635,0,0,1,1.759,3.539" transform="translate(-49.611 -238.305)" fill="#444c72"/><path d="M119.042,289.794l3.189-3.56L120.3,295Z" transform="translate(-70.392 -169.256)" fill="#222850"/><path d="M87.885,205.439l-1.78,2.523,4.249-3.242Z" transform="translate(-50.916 -121.056)" fill="#3a8416"/><path d="M114.932,156.347l.14,1.5c-4.871-.095-4.621-5.117-4.621-5.117a6.459,6.459,0,0,0,7.156,2.839,4.284,4.284,0,0,1-2.676.773" transform="translate(-65.311 -90.315)" fill="#c4764b"/><rect width="43.49" height="17.57" transform="translate(11.044 20.904)" fill="#19888e"/><path d="M112.755,94.143V100.3l2.985-6.162Z" transform="translate(-66.674 -55.669)" fill="#19888e"/><path d="M71.492,63.432H34.719a.361.361,0,1,1,0-.721H71.492a.361.361,0,0,1,0,.721" transform="translate(-20.317 -37.082)" fill="#fff"/><path d="M71.492,72.485H34.719a.361.361,0,1,1,0-.721H71.492a.361.361,0,0,1,0,.721" transform="translate(-20.317 -42.436)" fill="#fff"/><path d="M71.492,81.538H34.719a.361.361,0,1,1,0-.721H71.492a.361.361,0,0,1,0,.721" transform="translate(-20.317 -47.789)" fill="#fff"/><path d="M464.788,124.376s-2.7-2.027-1.508-4.366a3.19,3.19,0,0,1,4.76-1.248c1.114.832,1.522,2.755,3.579,3.379s4.344,1.923,4.5,4.418-.46,5.554-2.725,6.911h-4.344Z" transform="translate(-273.767 -69.874)" fill="#222850"/><path d="M428.47,393.74l-.3,3.24a12.5,12.5,0,0,1,0,5.241h-16.24a7.624,7.624,0,0,1,1.757-3.539c1.355-1.359,6.763-2.526,7.588-3.276l1.072-4.507.136-.574.04-.167.028,0,6.177.737Z" transform="translate(-243.583 -230.708)" fill="#f6b68e"/><path d="M411.93,409.817h16.239a12.5,12.5,0,0,0,0-5.242s-5,.931-6.895-1.571c-.824.747-6.229,1.915-7.585,3.274a7.635,7.635,0,0,0-1.759,3.539" transform="translate(-243.583 -238.305)" fill="#444c72"/><path d="M486.456,404.118h-16.24a7.622,7.622,0,0,1,1.758-3.539c1.359-1.359,6.763-2.527,7.588-3.276l-.088-2.188-.072-1.75,6.556,1.048.263,2.347.235,2.116a12.5,12.5,0,0,1,0,5.241" transform="translate(-278.048 -232.605)" fill="#f6b68e"/><path d="M443.71,390.9l-.259,2.842h0a8.135,8.135,0,0,1-6.117-2.842c-.044-.056-.064-.084-.064-.084l.2-.49.068-.163Z" transform="translate(-258.564 -230.714)" fill="#c4764b"/><path d="M499.513,396.761a12.84,12.84,0,0,1-6.747-1.646l-.072-1.75,6.556,1.048Z" transform="translate(-291.34 -232.605)" fill="#c4764b"/><path d="M464.84,269.159l.706,25.042,1.173,26.031s-4.6,1.409-8.454-.371l-3.412-25.215-2.818-15.8L448.252,294.5l-4.45,24.77s-4.672.89-8.01-1.187l2.744-26.328,2.818-24.029Z" transform="translate(-257.693 -158.311)" fill="#444c72"/><path d="M399.374,155.082l-2.766,2.12s-.777-.363-1.705-.853c-1.327-.7-2.973-1.662-3.1-2.184A19.438,19.438,0,0,1,392,150.08c.048-.331,1-1.124,1-1.124a15.949,15.949,0,0,1-.383-2.128c.032-.367.159-.729.733-.681s1.571,3.029,1.586,3.077,1.08,1.654,1.08,1.654a15.664,15.664,0,0,1,.111-1.969c.108-.574.57-1.144,1.172-.7s1.224,5.448,1.224,5.448l.411.685Z" transform="translate(-231.643 -86.417)" fill="#f6b68e"/><path d="M403.95,166.943l-2.766,2.12s-.777-.363-1.705-.853a7.868,7.868,0,0,1,4.029-2.009Z" transform="translate(-236.22 -98.279)" fill="#c4764b"/><path d="M425.652,169.022l-9.691,8.74-9.913-10.754a4.4,4.4,0,0,0-4,2.943s9.12,12.038,13.273,14.708l8-2.548a36.3,36.3,0,0,0,2.331-13.089" transform="translate(-237.738 -98.755)" fill="#529d2e"/><path d="M465.219,143.655a2.11,2.11,0,0,0,.409.463h0a4.284,4.284,0,0,0,2.676.773l-.14,1.5-.212,2.289s.53,1.546,2.956,1.5a5.571,5.571,0,0,0,3.84-1.634l-.22-7.194s.971-.311,1.148-1.058.573-2.21,0-2.384a1.385,1.385,0,0,0-1.679.705l-.22,1.057-.792-.042s1.235-5.705-7.03-6.277c0,0-1.623,8.927-.74,10.3" transform="translate(-274.938 -78.859)" fill="#f6b68e"/><path d="M470.216,409.817h16.239a12.5,12.5,0,0,0,0-5.242s-5,.931-6.895-1.571c-.825.747-6.229,1.915-7.585,3.274a7.635,7.635,0,0,0-1.759,3.539" transform="translate(-278.048 -238.305)" fill="#444c72"/><path d="M470.921,289.794l-3.189-3.56,1.93,8.77Z" transform="translate(-276.579 -169.256)" fill="#222850"/><path d="M469.287,156.347l-.14,1.5c4.871-.095,4.621-5.117,4.621-5.117a6.459,6.459,0,0,1-7.156,2.839,4.284,4.284,0,0,0,2.676.773" transform="translate(-275.917 -90.315)" fill="#c4764b"/><path d="M471.988,209.658a29.808,29.808,0,0,1-6.907.685c-.422,0-.849,0-1.283,0h-.012a148.829,148.829,0,0,1-18-1.622l3.4-26.61,2.332-13.088,5.2-1.479s.155,1.471,2.172,1.67a6.57,6.57,0,0,0,4.511-1.359l-.024-.845,5.077,2.531,1,11.4Z" transform="translate(-263.604 -98.758)" fill="#529d2e"/><path d="M492.367,228.652l4.316-15.339-4.75-15.339,4.81,1.279,2.531,28.714a29.834,29.834,0,0,1-6.907.685" transform="translate(-290.89 -117.066)" fill="#0a5b5b"/><path d="M499.928,271.529a7.244,7.244,0,0,1-.434,1.666,20.187,20.187,0,0,1-1.319,2.778c-2.495-.116-4.563-2.726-4.563-2.726a4.037,4.037,0,0,1,.7-1.335c.43-.438,1.754-1.434,1.754-1.434Z" transform="translate(-291.882 -159.939)" fill="#f6b68e"/><path d="M503.48,271.529a7.244,7.244,0,0,1-.434,1.666,4.668,4.668,0,0,1-3.427-2.718Z" transform="translate(-295.434 -159.939)" fill="#c4764b"/><path d="M495.677,173.2s5.926,11.737,7.485,19.411c0,0-1.1,16.221-3.951,21.694a4.766,4.766,0,0,1-4.418-1.559s2.131-14.068,2.131-18.558l-5.054-10.864s-.716-6.679,3.806-10.123" transform="translate(-290.828 -102.419)" fill="#529d2e"/><path d="M448.735,193.525l1.285-7.212-5,8.4Z" transform="translate(-263.151 -110.171)" fill="#0a5b5b"/><rect width="33.779" height="17.57" transform="translate(174.748 23.558)" fill="#19888e"/><path d="M492.353,100.635V107.8l2.985-7.165Z" transform="translate(-291.138 -59.507)" fill="#19888e"/><path d="M462.856,68.407H437.663a.3.3,0,0,1-.3-.3v-.123a.3.3,0,0,1,.3-.3h25.193a.3.3,0,0,1,.3.3v.123a.3.3,0,0,1-.3.3" transform="translate(-258.622 -40.024)" fill="#fff"/><path d="M462.856,77.46H437.663a.3.3,0,0,1-.3-.3v-.123a.3.3,0,0,1,.3-.3h25.193a.3.3,0,0,1,.3.3v.123a.3.3,0,0,1-.3.3" transform="translate(-258.622 -45.377)" fill="#fff"/><path d="M464.237,86.513H444.982a.262.262,0,0,1-.262-.262v-.2a.262.262,0,0,1,.262-.262h19.255a.262.262,0,0,1,.262.262v.2a.262.262,0,0,1-.262.262" transform="translate(-262.972 -50.731)" fill="#fff"/><path d="M240.748,295.177l-1.51.014,20.045,50.868h1.63Z" transform="translate(-141.466 -174.544)" fill="#ced8d6"/><path d="M259.44,295.177l1.51.014-20.044,50.868h-1.63Z" transform="translate(-141.489 -174.544)" fill="#ced8d6"/><rect width="2.182" height="22.456" transform="translate(153.042 140.614)" fill="#222850"/><path d="M352.007,404.635a.975.975,0,1,1-.975-.975.975.975,0,0,1,.975.975" transform="translate(-206.997 -238.693)" fill="#222850"/><path d="M399.47,404.635a.975.975,0,1,0,.975-.975.975.975,0,0,0-.975.975" transform="translate(-236.215 -238.693)" fill="#222850"/><path d="M374.134,408.363a1.348,1.348,0,1,0,1.349-1.349,1.349,1.349,0,0,0-1.349,1.349" transform="translate(-221.233 -240.676)" fill="#222850"/><path d="M372.282,396.559l-10.889-2.311-1.754.372-9.136,1.939v.678h9.638l.295,1.534h1.913l.295-1.534h9.638Z" transform="translate(-207.26 -233.127)" fill="#222850"/><path d="M346.27,333.578h23.938a1.936,1.936,0,0,0,1.936-1.936v-3.379a1.936,1.936,0,0,0-1.936-1.936H346.27a1.936,1.936,0,0,0-1.936,1.936v3.379a1.936,1.936,0,0,0,1.936,1.936" transform="translate(-203.612 -192.963)" fill="#222850"/><path d="M397.383,263.721h0a6.05,6.05,0,0,1-6.05-6.05V240a6.05,6.05,0,1,1,12.1,0v17.675a6.05,6.05,0,0,1-6.05,6.05" transform="translate(-231.403 -138.337)" fill="#222850"/><path d="M372.594,204.358c-1.768-2.339-1.806-7.368-.365-9.513,1.217-1.811,2.863-3.39,4.446-5.5,2.081-2.771,5.2-4.094,9.642-1.209s3.418,6.316,3.184,9.669,4.639,7.1,1.871,10.994c-2.075,2.922-12.023,4.5-18.778-4.444" transform="translate(-219.5 -110.293)" fill="#222850"/><path d="M331.794,395.075c-1.47,1.71-6.038,3.447-9.951,4.193s-5.225-.387-5.225-.387c-.371-1.132.159-2.531,2.423-3.383s6.587-4.551,6.587-4.551l-.076-.948-.235-2.969,4.627-.275.542,2.794.2,1Z" transform="translate(-187.159 -228.696)" fill="#f6b68e"/><path d="M343.231,389.548a7.049,7.049,0,0,1-4.934.45l-.235-2.969,4.627-.275Z" transform="translate(-199.903 -228.696)" fill="#c4764b"/><path d="M330.681,396.035l1.11,4.529c-1.47,1.708-6.036,3.446-9.952,4.191s-5.225-.386-5.225-.386c-.369-1.13.161-2.531,2.426-3.384s6.586-4.551,6.586-4.551a2.173,2.173,0,0,0,2.622.909,6.589,6.589,0,0,0,2.432-1.308" transform="translate(-187.158 -234.184)" fill="#444c72"/><path d="M276.3,368.608l-1.06,1.81-.893,1.526-2.16,4.132c-2.232.311-6.807-1.4-10.238-3.431s-3.666-3.743-3.666-3.743c.47-1.091,1.793-1.793,4.057-.936s7.95.936,7.95.936l1.67-2.228.686-.916Z" transform="translate(-152.729 -216.281)" fill="#f6b68e"/><path d="M296.091,368.608l-1.06,1.81a5.551,5.551,0,0,1-3.28-3.743l.686-.916Z" transform="translate(-172.518 -216.281)" fill="#c4764b"/><path d="M334.373,317.756l1.817,19.934a7.9,7.9,0,0,1-5.819,1.69s-4.679-26.287-4.264-28.574,13-8.13,13-8.13l7.688,1.921.988,7.52.263,2.009Z" transform="translate(-192.819 -178.979)" fill="#444c72"/><path d="M352.376,326.344l-13.67,3.631-5.3-1.371,2.228-2.873,11.282-2.391,5.193,1Z" transform="translate(-197.152 -191.197)" fill="#222850"/><path d="M336.5,307s-.1,5.965-1.352,7.653-16.946,1.688-23.808.649L297.3,333.39a8.891,8.891,0,0,1-4.99-3.743s14.761-22.768,16.269-23.288,15.467-.476,15.467-.476,7.043-.846,12.448,1.115" transform="translate(-172.85 -180.768)" fill="#444c72"/><path d="M351.756,239.9l-.988,9.875-.335,3.324a46.348,46.348,0,0,1-5.527,3.192c-1.558.718-2.949,1.108-3.363.5-1.092-1.6-4.962-15.59-4.962-15.59l2.778-1.3,5.077,10.45Z" transform="translate(-199.027 -141.855)" fill="#fdd449"/><path d="M362.813,259.591l-.335,3.324a46.429,46.429,0,0,1-5.528,3.192l5.145-9.6Z" transform="translate(-211.072 -151.676)" fill="#e59a38"/><path d="M336.72,230.979l-2.778,1.3s-.4-.682-.911-1.48a6.279,6.279,0,0,1-.9-2.533,7.008,7.008,0,0,1,.325-2.651c.309-.615.6-.723.87-.8s1.324,2.139,1.324,2.139l.907.926s-.072-.292-.181-.835,0-.926.2-1.034.417.979.654,1.4a24.2,24.2,0,0,1,.49,3.568" transform="translate(-196.39 -132.939)" fill="#f6b68e"/><path d="M378.477,240.833,377.333,251.7l-1.57,14.869s-9.919.478-17.818-2.519l1.606-6.4,4.838-19.257,3.431-.829,7.381-.211Z" transform="translate(-211.66 -140.35)" fill="#fdd449"/><path d="M377.334,265.64l-1.57,14.869s-9.919.478-17.818-2.519l1.607-6.4,13.873-2.064-.407-8.6Z" transform="translate(-211.66 -154.293)" fill="#e59a38"/><path d="M387.786,207.221a2.891,2.891,0,0,1-1.352.377l-.054,5.3,1.04,1.662-1.714,1.821-6.133,6.6.466-8.21,1.143-.781.486-2.555.3-1.554a6.5,6.5,0,0,1-2.913-2.284,1.648,1.648,0,0,1-.224-.375c-1-2.307,1.734-8.413,1.734-8.413,1.662,2.028,4.675,2.236,5.456,3.328a3.4,3.4,0,0,1,.1,2.806l.678.263s1.3-1.143,1.973-.522-.456,2.172-.986,2.535" transform="translate(-223.88 -117.562)" fill="#f6b68e"/><path d="M274.349,374.585l-2.16,4.133c-2.232.311-6.807-1.4-10.238-3.431s-3.666-3.742-3.666-3.742c.47-1.092,1.793-1.793,4.057-.936s7.95.936,7.95.936a2.173,2.173,0,0,0,1.367,2.415,6.59,6.59,0,0,0,2.69.626" transform="translate(-152.729 -218.922)" fill="#444c72"/><path d="M382.817,245.876s1.611,11.722,1.715,18.83c0,0-9.376,5.389-18.194,6.069l-1.055-2.845,14.363-7.308-2.287-8.6a10.676,10.676,0,0,1,5.458-6.151" transform="translate(-216 -145.392)" fill="#fdd449"/><path d="M354.923,299.841a11.068,11.068,0,0,0-3,.661c-1.456.572-4.406,2.264-4.145,2.588s2,1.259,4.638.843a7.329,7.329,0,0,0,3.561-1.247Z" transform="translate(-205.639 -177.302)" fill="#f6b68e"/><rect width="83.067" height="3.495" transform="translate(93.679 117.137)" fill="#ced8d6"/><rect width="32.112" height="3.495" transform="translate(144.634 117.137)" fill="#fff"/><path d="M274.151,258.992l-5.537-19.1h23l5.614,19.1Z" transform="translate(-158.837 -141.855)" fill="#fc8116"/><path d="M327.506,258.993h-2.081l-5.615-19.1h2.08Z" transform="translate(-189.11 -141.855)" fill="#444c72"/><path d="M337.828,283.866h14.334v-1.907h-14.9Z" transform="translate(-199.432 -166.728)" fill="#444c72"/><path d="M297.092,255.044a1.978,1.978,0,0,1-1.965,2.618,3.576,3.576,0,0,1-3.271-2.618,1.978,1.978,0,0,1,1.965-2.618,3.576,3.576,0,0,1,3.271,2.618" transform="translate(-172.533 -149.265)" fill="#f4f4f4"/><path d="M359.44,295.177l-1.976.014,26.231,50.868h2.133Z" transform="translate(-211.376 -174.544)" fill="#ced8d6"/><path d="M383.9,295.177l1.976.014-26.231,50.868h-2.133Z" transform="translate(-211.405 -174.544)" fill="#ced8d6"/><path d="M348.189,165.869a7.3,7.3,0,1,0-2.664,2.151l3.652,1.587Z" transform="translate(-198.176 -91.163)" fill="#19888e"/><path d="M344.277,171.519a.624.624,0,1,1-.624-.624.624.624,0,0,1,.624.624" transform="translate(-202.84 -101.054)" fill="#fff"/><path d="M352.671,171.519a.624.624,0,1,1-.624-.624.624.624,0,0,1,.624.624" transform="translate(-207.804 -101.054)" fill="#fff"/><path d="M361.066,171.519a.624.624,0,1,1-.624-.624.624.624,0,0,1,.624.624" transform="translate(-212.768 -101.054)" fill="#fff"/></g></g></g></svg>