<svg xmlns="http://www.w3.org/2000/svg" width="94.812" height="94.812" viewBox="0 0 94.812 94.812"><g transform="translate(-1 -1)"><g transform="translate(2.529 2.529)"><g transform="translate(6.117)"><path d="M36.8,3.376A7.581,7.581,0,0,1,41.172,2a7.77,7.77,0,0,1,7.646,7.646A7.647,7.647,0,0,1,42.7,17.139a7.206,7.206,0,0,1-1.529.153H25.88a4.582,4.582,0,0,0-4.588,4.588v1.529H20.268a5.1,5.1,0,0,0-3.058,9.175l4.083,3.058v9.175l-1.529-.612A21.884,21.884,0,0,1,27.883,2h2.584A15.109,15.109,0,0,1,36.8,3.376Z" transform="translate(-6 -2)" fill="#656d78"/></g><g transform="translate(22.862 68.815)"><path d="M23.143,47l3.135,22.938H16.95L20.085,47Z" transform="translate(-16.95 -47)" fill="#e6e9ed"/></g><g transform="translate(23.886 58.11)"><path d="M21.26,40l3.64,4.374L22.789,50.7H19.73l-2.11-6.331Z" transform="translate(-17.62 -40)" fill="#ccd1d9"/></g><g transform="translate(29.055 42.818)"><path d="M46.049,54.055,50.055,30H59.23L56.921,55.461a8.985,8.985,0,0,1-16.99,3.211l-2.11-4.205V78.935H24.135L21,56l2.11-6.331,4.007,4.8,1.376-16.424a22.882,22.882,0,0,1,9.986,4.71,23.123,23.123,0,0,1,7.57,11.3Z" transform="translate(-21 -30)" fill="#ff826e"/></g><g transform="translate(0 50.862)"><path d="M11.175,76.151H2V57.862a23.024,23.024,0,0,1,18.5-22.6L21.88,51.684l4.007-4.8L28,53.213,24.862,76.151Z" transform="translate(-2 -35.26)" fill="#ff826e"/></g><g transform="translate(27.526 50.464)"><path d="M29.022,35.4,27.646,51.821l-4.007-4.8L20,42.646,26.117,35A22.52,22.52,0,0,1,29.022,35.4Z" transform="translate(-20 -35)" fill="#fc6e51"/></g><g transform="translate(18.504 50.464)"><path d="M17.006,35l6.117,7.646-3.64,4.374-4.007,4.8L14.1,35.4a22.519,22.519,0,0,1,2.906-.4Z" transform="translate(-14.1 -35)" fill="#fc6e51"/></g><g transform="translate(85.636 58.11)"><path d="M58,40h6.117V73.643H58Z" transform="translate(-58 -40)" fill="#ffeaa7"/></g><g transform="translate(61.169 79.519)"><path d="M42,54h6.117V66.234H42Z" transform="translate(-42 -54)" fill="#ffeaa7"/></g><g transform="translate(73.402 68.815)"><path d="M50,47h6.117V69.938H50Z" transform="translate(-50 -47)" fill="#ffeaa7"/></g><g transform="translate(61.169)"><path d="M63.409,5.058A3.067,3.067,0,0,0,60.351,2h9.175a3.067,3.067,0,0,1,3.058,3.058V35.643A3.067,3.067,0,0,1,69.526,38.7H45.058a3.081,3.081,0,0,0,3.058-3.058,3.067,3.067,0,0,0-3.058-3.058H42V5.058A3.067,3.067,0,0,1,45.058,2h9.175a2.99,2.99,0,0,0-2.156.9,2.99,2.99,0,0,0-.9,2.156,3.067,3.067,0,0,0,3.058,3.058H48.117V32.584H66.467V8.117H60.351a2.99,2.99,0,0,0,2.156-.9A2.99,2.99,0,0,0,63.409,5.058Z" transform="translate(-42 -2)" fill="#b4dd7f"/></g><g transform="translate(70.344)"><path d="M57.175,2a3.067,3.067,0,0,1,3.058,3.058,2.99,2.99,0,0,1-.9,2.156,2.99,2.99,0,0,1-2.156.9H51.058A3.067,3.067,0,0,1,48,5.058,2.99,2.99,0,0,1,48.9,2.9,2.99,2.99,0,0,1,51.058,2Z" transform="translate(-48 -2)" fill="#aab2bd"/></g><g transform="translate(67.286 6.117)"><path d="M64.351,6V30.467H46V6H64.351Z" transform="translate(-46 -6)" fill="#e6e9ed"/></g><g transform="translate(55.052 30.584)"><path d="M47.175,28.117h6.117v1.162a5.526,5.526,0,0,1-3.058,4.955H41.058L38.52,29.157a5.011,5.011,0,0,1-.52-2.2A4.96,4.96,0,0,1,42.955,22h4.221a3.067,3.067,0,0,1,3.058,3.058,3.081,3.081,0,0,1-3.058,3.058Z" transform="translate(-38 -22)" fill="#f0d0b4"/></g><g transform="translate(15.292 15.139)"><path d="M39.526,30.4v4.588a6.115,6.115,0,0,1-6.117,6.117H30.351v6.117l-6.117,7.646-6.117-7.646V30.4l-4.083-3.058a5.1,5.1,0,0,1,3.058-9.175h1.025V16.641A4.582,4.582,0,0,1,22.7,12.053H38a7.206,7.206,0,0,0,1.529-.153v7.478a6.106,6.106,0,0,0,1.025,3.395l1.483,2.2a3.448,3.448,0,0,1,.551,1.85,3.311,3.311,0,0,1-1.835,2.967Z" transform="translate(-12 -11.9)" fill="#f0d0b4"/></g></g><g transform="translate(1 1)"><path d="M58.548,80.519a10.468,10.468,0,0,0,10.475-9.565l2.245-24.692a7,7,0,0,0,3.11-5.5H91.224a4.593,4.593,0,0,0,4.588-4.588V5.588A4.593,4.593,0,0,0,91.224,1H66.756a4.593,4.593,0,0,0-4.588,4.588V31.621a6.457,6.457,0,0,0-5.433,9.339l2.314,4.627L55.982,63.995A24.751,24.751,0,0,0,37.7,51.613V48.406H39.23a7.655,7.655,0,0,0,7.646-7.646V37.117l.376-.188A4.85,4.85,0,0,0,49.12,29.9l-1.473-2.21a4.571,4.571,0,0,1-.771-2.545V18.815A9.182,9.182,0,0,0,43.818,1h0a9.1,9.1,0,0,0-4.522,1.2A16.675,16.675,0,0,0,33.114,1H30.531a23.414,23.414,0,0,0-8.7,45.153l.573.229v5.228A24.676,24.676,0,0,0,1,75.985V95.812H95.812V59.11H86.636V92.753H83.578V69.815H74.4V92.753H71.344V80.519H62.169V92.753H49.935V76.034a10.447,10.447,0,0,0,8.613,4.485ZM89.695,62.169h3.058V92.753H89.695ZM92.753,5.588V36.172A1.532,1.532,0,0,1,91.224,37.7H71.063a4.318,4.318,0,0,0,0-3.058H89.695V7.117h-3.34a4.536,4.536,0,0,0,.281-1.529,4.536,4.536,0,0,0-.281-1.529h4.869A1.532,1.532,0,0,1,92.753,5.588ZM75.932,10.175h10.7V31.584H71.344V10.175Zm6.117-6.117a1.529,1.529,0,0,1,0,3.058H75.932a1.529,1.529,0,1,1,0-3.058Zm-15.292,0h4.869a4.536,4.536,0,0,0-.281,1.529,4.536,4.536,0,0,0,.281,1.529h-3.34V31.863a4.552,4.552,0,0,0-1.529-.278H65.227v-26A1.532,1.532,0,0,1,66.756,4.058ZM62.53,34.643h4.227a1.529,1.529,0,0,1,0,3.058H62.169V40.76H71.3a3.955,3.955,0,0,1-1.875,3.058H61.585l-2.113-4.227a3.42,3.42,0,0,1,3.058-4.949ZM23.275,54.611l4.806,6.008-4.458,5.349-.94-11.286C22.879,54.657,23.077,54.633,23.275,54.611Zm6.586,18.262h.39l2.711,19.88H27.148Zm.621-3.058h-.855l-1.494-4.482,1.922-2.3,1.921,2.3Zm1.548-9.2,4.811-6.014c.2.021.393.038.589.066l-.942,11.3ZM45.1,29.387,46.575,31.6a1.793,1.793,0,0,1-.69,2.6l-2.068,1.034v4H40.76A3.062,3.062,0,0,1,37.7,36.172H34.643a6.123,6.123,0,0,0,6.117,6.117h2.777a4.581,4.581,0,0,1-4.306,3.058H34.42a3.045,3.045,0,0,1-2.736-1.69l-.261-.523L28.686,44.5l.261.523a6.087,6.087,0,0,0,5.472,3.38h.223v4.052l-4.588,5.735-4.588-5.735V35.407L20.779,31.89a3.568,3.568,0,0,1,2.139-6.423h2.549V22.409a3.062,3.062,0,0,1,3.058-3.058H43.818v5.794A7.634,7.634,0,0,0,45.1,29.387ZM10.175,24.414A20.378,20.378,0,0,1,30.531,4.058h2.583a13.624,13.624,0,0,1,3.49.468,9.118,9.118,0,0,0-1.96,5.649H37.7a6.124,6.124,0,0,1,6.115-6.117h0a6.232,6.232,0,0,1,6.117,6.118,6.124,6.124,0,0,1-6.117,6.115H30.055a1.529,1.529,0,1,1,0-3.058h1.529V10.175H30.055a4.593,4.593,0,0,0-4.588,4.588A4.526,4.526,0,0,0,26,16.856a6.113,6.113,0,0,0-3.588,5.553v.018a6.627,6.627,0,0,0-3.467,11.908l3.467,2.6v6.128a20.244,20.244,0,0,1-12.234-18.65ZM4.058,75.987A21.613,21.613,0,0,1,19.666,55.309l1.529,18.352L25.831,68.1l1.132,3.393-2.9,21.262H13.234V65.227H10.175V92.753H4.058Zm73.4-3.113h3.058v19.88H77.461Zm-12.234,10.7h3.058v9.175H65.227ZM36.048,92.753l-2.9-21.262L34.279,68.1l4.637,5.563,1.529-18.348A21.632,21.632,0,0,1,55.058,69.54l-.514,3.084,3.017.5,4.374-26.251h6.2l-2.162,23.8a7.459,7.459,0,0,1-14.1,2.661l-1.942-3.884V65.227H46.877V92.753Z" transform="translate(-1 -1)"/><path d="M49,9h9.175v3.058H49Z" transform="translate(24.402 3.234)"/><path d="M49,13h9.175v3.058H49Z" transform="translate(24.402 5.351)"/><path d="M49,17h9.175v3.058H49Z" transform="translate(24.402 7.467)"/></g></g></svg>