<svg xmlns="http://www.w3.org/2000/svg" xmlns:xlink="http://www.w3.org/1999/xlink" width="234.467" height="198.031" viewBox="0 0 234.467 198.031"><defs><clipPath id="a"><rect width="190" height="188" transform="translate(-0.245 0.417)" fill="none"/></clipPath><clipPath id="b"><path d="M63.325,425.461c-29.913,99.9,32.441,116.532,32.441,116.532,12.979-15.857,3.42-49.2-13.207-70.582C72.346,458.279,66.9,434.622,65.109,425.543a.921.921,0,0,0-1.784-.083" transform="translate(-55.205 -424.805)" fill="#3a8416"/></clipPath><clipPath id="d"><rect width="28.463" height="93.411" fill="none"/></clipPath><clipPath id="e"><path d="M312.056,165.783c-54.686,83.457-2.04,115.715-2.04,115.715,16.229-11,16.559-44.187,7.143-68.33-5.783-14.828-4.322-38.008-3.489-46.823a.875.875,0,0,0-.889-.962.851.851,0,0,0-.724.4" transform="translate(-287.21 -165.384)" fill="#529d2e"/></clipPath><clipPath id="g"><rect width="6.082" height="93.359" fill="none"/></clipPath><clipPath id="h"><path d="M1266.607,2168.6l-3.56,24.569h41.305l-5.38-24.569Z" transform="translate(-1263.047 -2168.6)" fill="none"/></clipPath><linearGradient id="i" x1="-1.99" y1="1.638" x2="-1.989" y2="1.638" gradientUnits="objectBoundingBox"><stop offset="0" stop-color="#2b3582"/><stop offset="1" stop-color="#150e42"/></linearGradient><clipPath id="j"><path d="M294.638,880.974a8.064,8.064,0,0,0-7.883,8.063v73.128a11.093,11.093,0,0,0,10.808,11.09c26.71.689,120.128,2.359,145.555,1.984a8.163,8.163,0,0,0,8.036-7.93c.49-16.989,1.287-57.841-1.66-76.807a8.4,8.4,0,0,0-8.032-7.11c-19.925-.637-100.613-2.509-136.007-2.51-4.36,0-8.029.029-10.816.091" transform="translate(-286.755 -880.883)" fill="none"/></clipPath><linearGradient id="k" x1="-0.117" y1="1.366" x2="-0.116" y2="1.366" xlink:href="#i"/><clipPath id="l"><path d="M354.811,927.978v69.477a6.427,6.427,0,0,0,6.331,6.427l141.784,1.752a6.255,6.255,0,0,0,6.349-6.231l.237-68.856a4.575,4.575,0,0,0-4.464-4.59l-145.161-2.933h-.123a4.956,4.956,0,0,0-4.954,4.957" transform="translate(-354.811 -923.021)" fill="#afe198"/></clipPath><clipPath id="n"><rect width="155.925" height="3.043" fill="none"/></clipPath><clipPath id="o"><path d="M1133.89,2497.143l-58.279,1.819a2.5,2.5,0,0,0-2.454,1.637l-.776,3.068c-.318,1.256.916,2.425,2.558,2.425h60.453c1.669,0,2.908-1.2,2.545-2.474l-1.4-4.886a2.55,2.55,0,0,0-2.544-1.59l-.106,0" transform="translate(-1072.332 -2497.141)" fill="none"/></clipPath><linearGradient id="p" x1="-2.454" y1="0.749" x2="-2.452" y2="0.749" xlink:href="#i"/><clipPath id="r"><path d="M850.467,548.236a3.932,3.932,0,0,0-3.932,3.932V654.549l95.07,1.323.09-103.956a3.679,3.679,0,0,0-3.679-3.679Z" transform="translate(-846.535 -548.236)" fill="#fc8116"/></clipPath><clipPath id="t"><rect width="89.208" height="104.862" fill="none"/></clipPath><clipPath id="u"><rect width="80.993" height="97.358" fill="none"/></clipPath><clipPath id="v"><rect width="21.203" height="16.261" fill="none"/></clipPath><clipPath id="w"><rect width="35.286" height="6.316" fill="none"/></clipPath><clipPath id="x"><rect width="21.159" height="6.316" fill="none"/></clipPath><clipPath id="y"><rect width="72.688" height="35.159" fill="none"/></clipPath><clipPath id="z"><rect width="80.812" height="7.783" fill="none"/></clipPath><clipPath id="aa"><rect width="80.812" height="7.784" fill="none"/></clipPath><clipPath id="ac"><path d="M1748.786,35.747c-5.965,2.039-12.252,5.871-14.456,12.094-3.742,10.567,3.076,21.732,12.4,26.472a32.6,32.6,0,0,0,9.624,2.908c3.884.647,8.138,3.545,5.562,8.047-1.383,2.417-4.12,3.512-6.129,4a.624.624,0,0,0,0,1.211c8.682,2.071,13.672-6.216,15.76-10.927a8.821,8.821,0,0,1,4.389-4.449c7.019-3.217,18.223-9.8,16.441-20.7-1.488-9.1-9.455-15.941-17.8-18.507a46.9,46.9,0,0,0-13.627-2.052,37.768,37.768,0,0,0-12.162,1.9" transform="translate(-1733.286 -33.847)" fill="#529d2e"/></clipPath><clipPath id="ae"><path d="M415.089,1584.263c-6.717.88-5.084,3.415-5.615,5.4s-3.349,4.227-11.19,7.284-5.516,11.392-1.994,14.159,5.443.928,6.262,5.7,4.087,8.653,8.164,4.6,8.711-8.834,7.415-15.11.172-5.089,2.7-7.968-2.833-5.666-.808-10.586c0,0,1.469-3.6-3.3-3.6a12.667,12.667,0,0,0-1.639.117" transform="translate(-393.025 -1584.146)" fill="none"/></clipPath><linearGradient id="af" x1="-0.357" y1="1.696" x2="-0.356" y2="1.696" xlink:href="#i"/><clipPath id="ag"><path d="M777.5,1777.108a1.605,1.605,0,0,0-.845,1.633c-.094,2.5-.113,5.846-4.274,7.052a3.831,3.831,0,0,1-3.3-.81,9.63,9.63,0,0,1-2.9-4.249c-.277-.652-1.314-3.251-2.381-2.17-1.023,1.037-.638,6.113,1.575,8.927v.021a3.9,3.9,0,0,0,.324.359,4.659,4.659,0,0,0,1.879,1.284,7.286,7.286,0,0,0,6.281-.346c5.546-2.6,4.335-9.157,4.335-9.157s1.255-1.79,0-1.634c-.063.008-.123.017-.181.027a.587.587,0,0,1,.221-.488c.5-.423.093-1.325.093-1.325a1.67,1.67,0,0,1-.828.875" transform="translate(-763.256 -1776.233)" fill="none"/></clipPath><linearGradient id="ah" x1="-2.235" y1="3.418" x2="-2.232" y2="3.418" gradientUnits="objectBoundingBox"><stop offset="0" stop-color="#f9b776"/><stop offset="1" stop-color="#f47960"/></linearGradient><clipPath id="ai"><path d="M448.342,1716.855c-1.549,2.962,1.938,4.369,1.938,4.369s-3.03,5.935,1.542,10.013,11.278-.768,11.278-.768l-.229-6.126s-5.131,6.768-8.774,4.424-2.708-5.553-2.083-7.979a1.6,1.6,0,0,0-.344-1.807,1.47,1.47,0,0,1-.395-.527.259.259,0,0,0-.479.02.806.806,0,0,0,.041.73.606.606,0,0,1,.105.319.142.142,0,0,1-.2.134,4.181,4.181,0,0,1-1.931-2.752.253.253,0,0,0-.468-.05" transform="translate(-447.946 -1716.719)" fill="none"/></clipPath><linearGradient id="aj" x1="-1.026" y1="3.079" x2="-1.023" y2="3.079" xlink:href="#ah"/><clipPath id="ak"><path d="M654.224,1802.489a1.869,1.869,0,0,0-.539,1.862c.811,2.985,2.95,11.8,1.074,15.617,0,0,3.3,3.643,6.91.707,0,0,1.618-7.051,3.737-10.146,1.463-2.137-2.333-8.024-3.293-9.447a1.126,1.126,0,0,0-.609-.449,7.225,7.225,0,0,0-2.046-.291,7.578,7.578,0,0,0-5.235,2.146" transform="translate(-653.62 -1800.342)" fill="#529d2e"/></clipPath><clipPath id="al"><path d="M700.231,1723.289a3.448,3.448,0,0,0,3.46-.557,50.68,50.68,0,0,1,.431-5.369l-2.157-.644a37.119,37.119,0,0,0-1.733,6.57" transform="translate(-700.231 -1716.719)" fill="none"/></clipPath><linearGradient id="am" x1="-6.974" y1="8.829" x2="-6.963" y2="8.829" xlink:href="#ah"/><clipPath id="an"><path d="M696.614,1624.872c-1.023,1.1-.045,4.324-.045,4.324s3,4.193,5.521,2.479-1.7-7.613-1.7-7.613-.324-.034-.791-.033a4.41,4.41,0,0,0-2.99.843" transform="translate(-696.147 -1624.029)" fill="none"/></clipPath><linearGradient id="ao" x1="-3.644" y1="6.659" x2="-3.639" y2="6.659" xlink:href="#ah"/><clipPath id="ap"><path d="M678.944,1603.88c-.8,1.921,1.216,5.247,1.216,5.247l.075-.39a5.205,5.205,0,0,1,3.065-3.8c.712-.3,1.256-.685,1.134-1.079-.271-.876-2.208-1.335-2.208-1.335a4.044,4.044,0,0,0-.816-.079,2.479,2.479,0,0,0-2.465,1.431" transform="translate(-678.757 -1602.449)" fill="none"/></clipPath><linearGradient id="aq" x1="-5.088" y1="9.314" x2="-5.08" y2="9.314" xlink:href="#i"/><clipPath id="ar"><path d="M678.811,1678.625c-.653,1.239,1.477,2.169,2.214,1.561l.079-.9s-.933-1.081-1.672-1.081a.68.68,0,0,0-.621.419" transform="translate(-678.688 -1678.205)" fill="none"/></clipPath><linearGradient id="as" x1="-12.527" y1="20.272" x2="-12.508" y2="20.272" xlink:href="#ah"/><clipPath id="at"><path d="M652.552,2324.282l.64,1.513s-3.642,2.664-4.339,5.944a90.942,90.942,0,0,1-3.949,11.135,3.19,3.19,0,0,1-1.289,1.51l-.671.409.516,6.364,2.37.538-.548-1.138a15.3,15.3,0,0,1,.386-4.752,2.43,2.43,0,0,1,.278-.694l10.592-17.827a2.231,2.231,0,0,0,.24-1.6c-.306-1.354-.868-3.893-.855-4.213Z" transform="translate(-642.943 -2321.471)" fill="none"/></clipPath><linearGradient id="au" x1="-1.016" y1="1.139" x2="-1.014" y2="1.139" xlink:href="#ah"/><clipPath id="av"><path d="M612.958,2662a14.476,14.476,0,0,1-1.43,2.819l.269.122,1.614-2.038.263,4.415a.777.777,0,0,0,.626.717,10.27,10.27,0,0,0,2.539.144.427.427,0,0,0,.286-.718,1.7,1.7,0,0,0-.87-.438s-1.823.048-1.695-1.451a46.334,46.334,0,0,0-.244-5.335.6.6,0,0,0-.282-.077c-.609,0-.946,1.152-1.077,1.842" transform="translate(-611.528 -2660.154)" fill="none"/></clipPath><linearGradient id="aw" x1="-6.949" y1="1.164" x2="-6.938" y2="1.164" gradientUnits="objectBoundingBox"><stop offset="0" stop-color="#cb236d"/><stop offset="1" stop-color="#4c246d"/></linearGradient><clipPath id="ax"><path d="M665.108,2358.5a7.661,7.661,0,0,0-1.269,6.933c.447,1.7,2.083,9.6,2.573,11.974a2.025,2.025,0,0,1-.164,1.3l-.45.921a18.657,18.657,0,0,1,1.765,2.683,13.2,13.2,0,0,0,2.441,3.069l.988-.731c-2.27-1.5-2.679-6.519-2.628-8.784s.424-18.211.424-18.211a2.486,2.486,0,0,0-1.386-.429,2.953,2.953,0,0,0-2.294,1.277" transform="translate(-663.524 -2357.219)" fill="none"/></clipPath><linearGradient id="ay" x1="-2.492" y1="1.041" x2="-2.488" y2="1.041" xlink:href="#ah"/><clipPath id="az"><path d="M690.092,2687.352a20.6,20.6,0,0,1,.647,3.215.14.14,0,0,0,.279-.036l-.386-3.695a7.921,7.921,0,0,1,1.751,2.888,1.482,1.482,0,0,0,1.39.934l2.107-.02a.414.414,0,0,0,.327-.666,2.262,2.262,0,0,0-1.026-.737,1.177,1.177,0,0,1-1.359-.215c-.6-.616-3.729-5.187-3.729-5.187-1.258.226-.3,2.886,0,3.518" transform="translate(-689.462 -2683.834)" fill="none"/></clipPath><linearGradient id="ba" x1="-5.993" y1="1.136" x2="-5.984" y2="1.136" xlink:href="#aw"/><clipPath id="bb"><path d="M618.069,2074.073c.281,1.263,1.647,7.41,2.047,9.211a.69.69,0,0,0,.629.537,30.194,30.194,0,0,0,11.878-1.44.489.489,0,0,0,.306-.6l-4.525-15.8a7.481,7.481,0,0,1-.255-4.006c-2.4.607-4.659-.005-7.085-1.044-5.263,3.138-4.066,8.328-3,13.141" transform="translate(-617.141 -2060.932)" fill="#263238"/></clipPath><clipPath id="bc"><path d="M917.638,1677.972c-1.07.229-1.713.552-1.8,1.649-.034.432.013.867-.022,1.3-.16,2.01-.142,4.031-.174,6.047-.012.778-.006,1.55-.083,2.324a2.2,2.2,0,0,0,.077,1.079.769.769,0,0,0,.478.424,3.276,3.276,0,0,0,1.5-.1c.629-.113,1.257-.224,1.89-.319,1.874-.28,1.92-10.452,1.734-12a.86.86,0,0,0-.769-.664,3.394,3.394,0,0,0-.708-.07,10.318,10.318,0,0,0-2.119.332" transform="translate(-915.529 -1677.64)" fill="none"/></clipPath><linearGradient id="bd" x1="-4.273" y1="11.144" x2="-4.268" y2="11.144" xlink:href="#i"/><clipPath id="be"><path d="M928.66,1677.972c-1.07.229-1.713.552-1.8,1.649-.034.432.012.867-.022,1.3-.16,2.01-.142,4.031-.175,6.047-.012.778-.006,1.55-.083,2.324a2.2,2.2,0,0,0,.077,1.079.769.769,0,0,0,.478.424,3.276,3.276,0,0,0,1.5-.1c.629-.113,1.257-.224,1.89-.319,1.874-.28,1.92-10.452,1.734-12a.86.86,0,0,0-.769-.664,3.392,3.392,0,0,0-.708-.07,10.318,10.318,0,0,0-2.119.332" transform="translate(-926.552 -1677.64)" fill="none"/></clipPath><linearGradient id="bf" x1="-4.531" y1="5.407" x2="-4.526" y2="5.407" xlink:href="#i"/><clipPath id="bg"><path d="M996.4,1751.193a25.85,25.85,0,0,1,.044,2.856c-.1.958.136,3.222.756,1.611,0,0,.34-.231.619-1.611s.557-2.216,0-2.856a1.313,1.313,0,0,0-.928-.491.453.453,0,0,0-.492.491" transform="translate(-996.4 -1750.702)" fill="none"/></clipPath><linearGradient id="bh" x1="-11.409" y1="11.077" x2="-11.397" y2="11.077" xlink:href="#ah"/><clipPath id="bj"><rect width="10.912" height="9.947" fill="none"/></clipPath><clipPath id="bk"><rect width="3.036" height="10.224" fill="none"/></clipPath><clipPath id="bl"><path d="M68.6,1162.78v15.2c0,1.239.755,2.243,1.686,2.243h55.385a1.86,1.86,0,0,1,1.636,1.7l.995,5.293c.132.7.865.76,1.059.084l1.281-4.472a1.778,1.778,0,0,1,1.576-1.445H134.6c.931,0,1.686-1,1.686-2.243v-15.628a2.032,2.032,0,0,0-1.672-2.243l-64.311-.734h-.015c-.93,0-1.686,1-1.686,2.243" transform="translate(-68.602 -1160.537)" fill="#b0c710"/></clipPath><clipPath id="bm"><path d="M94.97,1211.535a6.8,6.8,0,1,0,6.793-6.972,6.884,6.884,0,0,0-6.793,6.972" transform="translate(-94.97 -1204.563)" fill="#fff"/></clipPath><clipPath id="bo"><rect width="23.956" height="3.489" fill="none"/></clipPath><clipPath id="bp"><rect width="45.137" height="7.266" fill="none"/></clipPath><clipPath id="bq"><path d="M2046.653,1998.6c-3,.311-6.408.285-6.408.285-.039.074-2.513,1.895-2.513,1.895s.546,3.908,2.765,5.452c2.439,1.7,5.884-1.4,5.884-1.4s2.741.652,4.2-5.054c.247-.968-.743-1.281-2.218-1.281a16.984,16.984,0,0,0-1.708.1" transform="translate(-2037.732 -1998.494)" fill="none"/></clipPath><linearGradient id="br" x1="-13.675" y1="4.125" x2="-13.668" y2="4.125" xlink:href="#i"/><clipPath id="bs"><path d="M1956.191,2179.016a12.53,12.53,0,0,1-2.311-.266,8.306,8.306,0,0,0-1.838-.254,10.445,10.445,0,0,0-3.172,1.476c-2.73,1.877-4.367,7.131-4.14,7.655s3.321,1.965,3.321,1.965l-.349,14.109,9.744,4.892,8.537-4.368.356-14.437a10.353,10.353,0,0,0,3.46-2.271c-.809-2.97-2.137-5.969-4.4-7.577a11.62,11.62,0,0,0-3.662-1.456,3.81,3.81,0,0,0-.92-.1c-1.416,0-3.034.6-4.628.636" transform="translate(-1944.709 -2178.38)" fill="#529d2e"/></clipPath><clipPath id="bt"><path d="M1939.944,2330.815c1.963-.261,1.208-3.521,1.208-3.521s-4.108-.909-2.875-10.5a26.556,26.556,0,0,0-3.643-2.2s-4.146,11.5,5.309,16.22" transform="translate(-1933.73 -2314.595)" fill="none"/></clipPath><linearGradient id="bu" x1="-7.429" y1="1.772" x2="-7.425" y2="1.772" xlink:href="#ah"/><clipPath id="bv"><path d="M2218.119,2316.8c.437,8.868-2.875,10.5-2.875,10.5s-.755,3.261,1.208,3.521c8.162-4.22,5.309-16.22,5.309-16.22a26.556,26.556,0,0,0-3.643,2.2" transform="translate(-2215.102 -2314.595)" fill="none"/></clipPath><linearGradient id="bw" x1="-7.655" y1="2.082" x2="-7.651" y2="2.082" xlink:href="#ah"/><clipPath id="bx"><path d="M4.055,0H14.667a4.054,4.054,0,0,1,4.054,4.054V8.587a4.056,4.056,0,0,1-4.056,4.056H4.054A4.054,4.054,0,0,1,0,8.589V4.055A4.055,4.055,0,0,1,4.055,0Z" fill="none"/></clipPath><linearGradient id="by" x1="-10.443" y1="1.657" x2="-10.437" y2="1.657" xlink:href="#i"/><clipPath id="bz"><path d="M2274.264,2618.379l-.2.545-.333,2.711a56.352,56.352,0,0,0,7.04.848,2.187,2.187,0,0,0,.652-.1c.071-.063.14-.129.206-.2a2.555,2.555,0,0,0-.269-3.579,21.864,21.864,0,0,0-4.186-.3c-1.579,0-2.908.071-2.908.071" transform="translate(-2273.729 -2618.308)" fill="none"/></clipPath><linearGradient id="ca" x1="-21.948" y1="1.539" x2="-21.939" y2="1.539" xlink:href="#aw"/><clipPath id="cb"><path d="M2256.568,2620.417l1.283.091a1.271,1.271,0,0,0,.981-.373,1.565,1.565,0,0,0,.454-1.034,1.988,1.988,0,0,0-.432-1.359,1.617,1.617,0,0,0-1.178-.609l-.838-.036Z" transform="translate(-2256.568 -2617.097)" fill="none"/></clipPath><linearGradient id="cc" x1="-36.276" y1="3.319" x2="-36.26" y2="3.319" xlink:href="#ah"/><clipPath id="cd"><path d="M1829.492,2616.213a2.552,2.552,0,0,0-.358,3.569c.064.074.131.142.2.208a2.184,2.184,0,0,0,.649.117,56.238,56.238,0,0,0,7.059-.631l-.266-2.72-.188-.551s-2.163-.182-4.251-.182a16.17,16.17,0,0,0-2.846.192" transform="translate(-1828.559 -2616.021)" fill="none"/></clipPath><linearGradient id="ce" x1="-12.514" y1="1.823" x2="-12.507" y2="1.823" xlink:href="#aw"/><clipPath id="cf"><path d="M1933.41,2617.117a1.6,1.6,0,0,0-1.193.573,1.977,1.977,0,0,0-.466,1.345,1.574,1.574,0,0,0,.428,1.048,1.277,1.277,0,0,0,.971.4l1.285-.052-.186-3.327Z" transform="translate(-1931.751 -2617.107)" fill="none"/></clipPath><linearGradient id="cg" x1="-31.455" y1="3.369" x2="-31.439" y2="3.369" xlink:href="#ah"/><clipPath id="ch"><path d="M1982.212,2465.89c-.035.046-12.844,6.611-24.141,9.488a12.291,12.291,0,0,1,.526,3.224q.01.363-.012.715c8.663-.445,18.064-3.334,26.143-5.873a4.465,4.465,0,0,0,2.854-6,3.347,3.347,0,0,0-3.187-2.114,4.792,4.792,0,0,0-2.184.561" transform="translate(-1958.071 -2465.329)" fill="#263238"/></clipPath><clipPath id="ci"><path d="M1853.622,2463.637a4.207,4.207,0,0,0,2.937,5.162c6.465,2.151,3.1,1.554,5.21,2.233a88.384,88.384,0,0,0,19.219,3.787c0-.091-.01-.182-.013-.272a7.448,7.448,0,0,1,.729-3.49c.015-.05.033-.1.049-.146-.645-.2-1.479-.47-2.573-.842a123.487,123.487,0,0,1-19.981-8.708,4.385,4.385,0,0,0-2.1-.562,3.558,3.558,0,0,0-3.479,2.838" transform="translate(-1853.464 -2460.799)" fill="#263238"/></clipPath><clipPath id="cj"><path d="M2055.958,2125.333l-.078,2.95-2.408.453a4.948,4.948,0,0,0,5.051,3.661c4.266-.078,4.646-3.673,4.646-3.673l-2.787-.6-.233-3.1Z" transform="translate(-2053.472 -2125.023)" fill="none"/></clipPath><linearGradient id="ck" x1="-14.149" y1="6.025" x2="-14.142" y2="6.025" xlink:href="#ah"/><clipPath id="cl"><path d="M2073.788,2006.1c4.02,1.593,6.54-6.179,5.788-8.284-1.162-3.255-1.927-2.868-1.927-2.868l-4.755-.41s-4.8,9.3.894,11.563" transform="translate(-2071.001 -1994.542)" fill="none"/></clipPath><linearGradient id="cm" x1="-8.807" y1="3.762" x2="-8.802" y2="3.762" xlink:href="#ah"/><clipPath id="cn"><path d="M2044.027,1937.806a11.074,11.074,0,0,1-2.421.236c-1.74-.059-2.079,1.634-3.531,2.726-1.624,1.221-.885,5.011.439,6.9,1.208,1.722,1.328-1.762,1.885-2.743s1.961-1,5.534.218,5.6-3.93,3.228-4.582c-1.746-.48-1.217-1.878-2.414-2.726a1.659,1.659,0,0,0-.993-.269,10.325,10.325,0,0,0-1.725.241" transform="translate(-2037.147 -1937.565)" fill="none"/></clipPath><linearGradient id="co" x1="-9.015" y1="3.482" x2="-9.011" y2="3.482" xlink:href="#i"/><clipPath id="cp"><path d="M2064.074,2052.863c-.164,1.329.363,3.04.979,2.1a3.21,3.21,0,0,0,.209-2.328s-.4-.429-.739-.429c-.205,0-.388.156-.45.656" transform="translate(-2064.044 -2052.207)" fill="none"/></clipPath><linearGradient id="cq" x1="-66.353" y1="13.144" x2="-66.321" y2="13.144" xlink:href="#ah"/><clipPath id="cr"><path d="M2108.784,2414.042a1.168,1.168,0,0,0-.879,1.436,1.228,1.228,0,0,0,1.394,1.035,1.143,1.143,0,0,0,.931-1.379,1.333,1.333,0,0,0-1.281-1.1,1.12,1.12,0,0,0-.166.012" transform="translate(-2107.887 -2414.03)" fill="none"/></clipPath><linearGradient id="cs" x1="-53.892" y1="10.097" x2="-53.867" y2="10.097" gradientUnits="objectBoundingBox"><stop offset="0" stop-color="#53d8ff"/><stop offset="1" stop-color="#3840f7"/></linearGradient><clipPath id="ct"><path d="M1860.58,1507.478l-64.7.739a2.044,2.044,0,0,0-1.682,2.256v15.721c0,1.246.76,2.257,1.7,2.257h2.395a1.788,1.788,0,0,1,1.585,1.453l1.288,4.5c.195.68.932.622,1.065-.084l1-5.325a1.871,1.871,0,0,1,1.646-1.709h55.716c.937,0,1.7-1.01,1.7-2.256v-15.294c0-1.247-.76-2.257-1.7-2.257h-.015" transform="translate(-1794.203 -1507.478)" fill="#3a8416"/></clipPath><clipPath id="cu"><path d="M1820.728,1558.781a6.836,6.836,0,1,0,6.834-7.014,6.925,6.925,0,0,0-6.834,7.014" transform="translate(-1820.728 -1551.767)" fill="#fff"/></clipPath><clipPath id="cw"><rect width="24.189" height="3.489" fill="none"/></clipPath><clipPath id="cx"><rect width="46.1" height="8.184" fill="none"/></clipPath><clipPath id="cy"><rect width="11.164" height="2.093" fill="none"/></clipPath></defs><g transform="translate(-630.107 -7573.423)"><path d="M20,0H185.588a20,20,0,0,1,20,20V172.212a0,0,0,0,1,0,0H0a0,0,0,0,1,0,0V20A20,20,0,0,1,20,0Z" transform="translate(649.04 7589.629)" fill="#c2e8b0"/><path d="M267.879,643.757c0,6.85-50.421,12.4-112.619,12.4s-112.619-5.553-112.619-12.4,50.421-12.4,112.619-12.4,112.619,5.553,112.619,12.4" transform="translate(596.694 7115.294)" fill="#455a64"/><g transform="translate(-24.426 -23.576)"><g transform="translate(677.225 7597)"><g transform="translate(0 0)" clip-path="url(#a)"><g transform="translate(4.305 28.666)"><g clip-path="url(#b)"><rect width="90.538" height="126.326" transform="translate(-37.547 2.158) rotate(-7.799)" fill="#3a8416"/></g></g><g clip-path="url(#a)"><g transform="translate(13.18 41.974)" opacity="0.43"><g clip-path="url(#d)"><path d="M186.833,622.335c0,.292.023.533.036.794l.056.767.128,1.53c.093,1.019.2,2.037.309,3.054q.336,3.051.74,6.094c.543,4.057,1.2,8.1,1.909,12.129s1.528,8.045,2.433,12.038,1.874,7.974,2.97,11.921a196.589,196.589,0,0,0,7.931,23.255c1.613,3.768,3.325,7.5,5.251,11.117A106.377,106.377,0,0,0,215,715.518a.161.161,0,0,0,.268-.18v0a118.9,118.9,0,0,1-6.081-10.611c-1.856-3.631-3.5-7.367-5.042-11.14s-2.931-7.611-4.233-11.476-2.441-7.785-3.558-11.708c-2.2-7.859-3.984-15.832-5.546-23.847q-1.158-6.014-2.084-12.071-.47-3.027-.877-6.063l-.38-3.039-.175-1.521-.079-.761c-.022-.25-.049-.517-.059-.737l0-.036a.16.16,0,0,0-.32.007" transform="translate(-186.833 -622.176)" fill="#fff"/></g></g></g><g transform="translate(19.948 11.175)"><g clip-path="url(#e)"><rect width="103.208" height="132.31" transform="translate(-65.553 12.283) rotate(-18.981)" fill="#529d2e"/></g></g><g clip-path="url(#a)"><g transform="translate(36.623 23.417)" opacity="0.43"><g clip-path="url(#g)"><path d="M539.895,347.062c-.08.268-.125.5-.184.738l-.158.718-.3,1.438c-.193.96-.372,1.923-.55,2.885q-.525,2.89-.985,5.791c-.609,3.868-1.114,7.753-1.56,11.644s-.794,7.794-1.054,11.7-.457,7.824-.529,11.743a187.969,187.969,0,0,0,.93,23.49c.452,3.9,1.006,7.782,1.784,11.627a101.686,101.686,0,0,0,3.019,11.363.157.157,0,0,0,.3-.093v0a113.911,113.911,0,0,1-2.679-11.39c-.711-3.836-1.2-7.71-1.583-11.591s-.611-7.779-.75-11.678-.114-7.8-.069-11.707c.124-7.808.665-15.605,1.418-23.381q.578-5.831,1.381-11.638.394-2.9.848-5.8l.48-2.891.254-1.442.135-.719c.048-.235.1-.488.146-.691l.008-.034a.156.156,0,0,0-.3-.082" transform="translate(-534.531 -346.951)" fill="#fff"/></g></g></g><g transform="translate(85.742 146.239)"><g clip-path="url(#h)"><rect width="42.492" height="26.621" transform="translate(-1.238 0.063) rotate(-2.891)" fill="url(#i)"/></g></g><g transform="translate(19.917 59.416)"><g clip-path="url(#j)"><rect width="165.685" height="94.731" transform="translate(0 0)" fill="url(#k)"/></g></g><g transform="translate(24.506 62.257)"><g clip-path="url(#l)"><rect width="160.639" height="172.7" transform="matrix(0.618, -0.786, 0.786, 0.618, -40.174, 51.049)" fill="#afe198"/></g></g><g clip-path="url(#a)"><g transform="translate(24.309 144.674)" opacity="0.65"><g clip-path="url(#n)"><path d="M507.623,2148.426h0l-155.532-2.65a.2.2,0,0,1-.193-.2.2.2,0,0,1,.2-.193l155.532,2.65a.2.2,0,0,1,0,.393" transform="translate(-351.895 -2145.383)" fill="#fff"/></g></g></g><g transform="translate(72.883 168.391)"><g clip-path="url(#o)"><rect width="35.6" height="63.989" transform="matrix(0.414, -0.91, 0.91, 0.414, -3.644, 7.413)" fill="url(#p)"/></g></g><g clip-path="url(#a)"><path d="M1590.96,2530.513a.2.2,0,0,1,0-.393l2.5-.036a.2.2,0,0,1,.2.194.2.2,0,0,1-.194.2l-2.5.036Z" transform="translate(-1482.926 -2359.471)" fill="#fff"/><path d="M1103.546,2536.391a.15.15,0,0,1-.031,0,.2.2,0,0,1-.163-.225l.356-2.231a2.489,2.489,0,0,1,2.425-2.1l26.488-.387h0a.2.2,0,0,1,0,.393l-26.488.388a2.1,2.1,0,0,0-2.043,1.768l-.356,2.231a.2.2,0,0,1-.194.166" transform="translate(-1028.374 -2360.741)" fill="#fff"/></g><g transform="translate(57.659 36.988)"><g clip-path="url(#r)"><rect width="136.507" height="129.987" transform="translate(-39.118 90.779) rotate(-66.688)" fill="#fc8116"/></g></g><g clip-path="url(#a)"><g transform="translate(60.471 39.736)" opacity="0.49"><g clip-path="url(#t)"><path d="M977.449,693.85l-89.208-1.257V592.885a3.873,3.873,0,0,1,3.849-3.9h81.757a3.624,3.624,0,0,1,3.6,3.647Z" transform="translate(-888.241 -588.988)" fill="#fff"/></g></g><g transform="translate(64.817 44.925)" opacity="0.83"><g clip-path="url(#u)"><g transform="translate(0.202)" opacity="0.79"><g clip-path="url(#v)"><path d="M976.4,682.221H956.186a.494.494,0,0,1-.494-.494V666.454a.494.494,0,0,1,.494-.494H976.4a.494.494,0,0,1,.494.494v15.274a.494.494,0,0,1-.494.494" transform="translate(-955.692 -665.96)" fill="#fff"/></g></g><g transform="translate(27.192)" opacity="0.79"><g clip-path="url(#w)"><path d="M1390.863,672.276h-34.457a.415.415,0,0,1-.415-.415v-5.487a.415.415,0,0,1,.415-.415h34.457a.415.415,0,0,1,.415.415v5.487a.415.415,0,0,1-.415.415" transform="translate(-1355.992 -665.96)" fill="#fff"/></g></g><g transform="translate(27.192 8.512)" opacity="0.79"><g clip-path="url(#x)"><path d="M1376.794,798.512h-20.444a.357.357,0,0,1-.357-.357v-5.6a.357.357,0,0,1,.357-.357h20.444a.357.357,0,0,1,.357.357v5.6a.357.357,0,0,1-.357.357" transform="translate(-1355.992 -792.196)" fill="#fff"/></g></g><g transform="translate(4.879 23.158)" opacity="0.79"><g clip-path="url(#y)"><path d="M1097.153,1044.59h-71.5a.592.592,0,0,1-.592-.592v-33.975a.592.592,0,0,1,.592-.592h71.5a.592.592,0,0,1,.592.592V1044a.592.592,0,0,1-.592.592" transform="translate(-1025.057 -1009.431)" fill="#fff"/></g></g><g transform="translate(0.158 64.643)" opacity="0.79"><g clip-path="url(#z)"><path d="M1035.559,1632.5H955.336a.3.3,0,0,1-.295-.295v-7.194a.3.3,0,0,1,.295-.295h80.223a.3.3,0,0,1,.295.295v7.194a.3.3,0,0,1-.295.295" transform="translate(-955.041 -1624.719)" fill="#fff"/></g></g><g transform="translate(0 77.542)" opacity="0.79"><g clip-path="url(#aa)"><path d="M1033.035,1823.806H953.163a.47.47,0,0,1-.47-.47v-6.843a.471.471,0,0,1,.47-.47h79.872a.471.471,0,0,1,.47.47v6.843a.47.47,0,0,1-.47.47" transform="translate(-952.693 -1816.022)" fill="#fff"/></g></g><g transform="translate(0.181 89.574)" opacity="0.79"><g transform="translate(0 0)"><g clip-path="url(#aa)"><path d="M1035.659,2002.269H955.923a.538.538,0,0,1-.538-.538v-6.708a.538.538,0,0,1,.538-.538h79.737a.538.538,0,0,1,.538.538v6.708a.538.538,0,0,1-.538.538" transform="translate(-955.385 -1994.486)" fill="#fff"/></g></g></g></g></g></g><g transform="translate(117.448 2.306)"><g clip-path="url(#ac)"><rect width="62.815" height="67.345" transform="translate(-6.604 58.445) rotate(-86.176)" fill="#529d2e"/></g></g><g clip-path="url(#a)"><path d="M2156.138,78.388a.493.493,0,0,1-.472-.174c-6.427-7.928-16.864-9.31-24.487-9.074a.492.492,0,0,1-.03-.984c7.845-.244,18.6,1.2,25.282,9.438a.492.492,0,0,1-.293.794" transform="translate(-1986.432 -63.513)" fill="#fff"/><path d="M2551.818,297.1l-.022,0a.493.493,0,0,1-.555-.421,16.064,16.064,0,0,0-.926-3.233.492.492,0,0,1,.918-.356,16.687,16.687,0,0,1,.983,3.456.492.492,0,0,1-.4.55" transform="translate(-2377.749 -273.014)" fill="#fff"/><g transform="translate(127.978 15.001)"><path d="M99.493,134.968c-.015.032-.518-.259-1.5-.571a9.661,9.661,0,0,0-4.309-.32,9.414,9.414,0,0,0-2.843.913A13.364,13.364,0,0,0,88.045,137c-.916.809-1.826,1.727-2.876,2.576a9.913,9.913,0,0,1-3.67,1.986,5.55,5.55,0,0,1-2.143.129,6.95,6.95,0,0,1-1.986-.613,34.65,34.65,0,0,1-3.326-1.978,10.372,10.372,0,0,0-3.128-1.4,9.289,9.289,0,0,0-2.976-.228,9.583,9.583,0,0,0-4.108,1.337c-.881.539-1.3.944-1.321.915a2.043,2.043,0,0,1,.3-.294,7.116,7.116,0,0,1,.956-.727,9.374,9.374,0,0,1,7.211-1.261,10.541,10.541,0,0,1,3.22,1.409,35.508,35.508,0,0,0,3.3,1.945,5.658,5.658,0,0,0,3.919.459,9.69,9.69,0,0,0,3.552-1.921c1.033-.83,1.947-1.742,2.876-2.553a13.474,13.474,0,0,1,2.87-2.025,9.521,9.521,0,0,1,7.311-.475,7.685,7.685,0,0,1,1.1.475,2.094,2.094,0,0,1,.36.214" transform="translate(-62.512 -133.765)" fill="#fff"/><rect width="3.973" height="10.745" transform="translate(7.13 8.366)" fill="#fff"/><rect width="3.973" height="10.745" transform="translate(23.989 8.366)" fill="#fff"/><rect width="3.973" height="17.055" transform="translate(29.608 2.056)" fill="#fff"/><rect width="3.973" height="3.616" transform="translate(1.989 15.728)" fill="#fff"/><rect width="3.973" height="5.893" transform="translate(12.749 13.218)" fill="#fff"/><rect width="3.973" height="7.246" transform="translate(18.369 11.865)" fill="#fff"/><path d="M87.673,194.457a7.352,7.352,0,0,1-2.146.16,7.354,7.354,0,0,1-2.147-.16,7.354,7.354,0,0,1,2.147-.16,7.352,7.352,0,0,1,2.146.16" transform="translate(-76.41 -174.079)" fill="#fff"/><path d="M72.871,194.457a7.356,7.356,0,0,1-2.146.16,7.355,7.355,0,0,1-2.147-.16,7.355,7.355,0,0,1,2.147-.16,7.356,7.356,0,0,1,2.146.16" transform="translate(-66.552 -174.079)" fill="#fff"/><path d="M155.72,194.457a18.518,18.518,0,0,1-4.853,0,18.518,18.518,0,0,1,4.853,0" transform="translate(-121.356 -174.079)" fill="#fff"/><path d="M138.05,194.457a18.518,18.518,0,0,1-4.853,0,18.518,18.518,0,0,1,4.853,0" transform="translate(-109.588 -174.079)" fill="#fff"/><path d="M120.843,194.457a14.478,14.478,0,0,1-4.293,0,14.509,14.509,0,0,1,4.293,0" transform="translate(-98.501 -174.079)" fill="#fff"/><path d="M103.46,194.457a7.347,7.347,0,0,1-2.146.16,7.346,7.346,0,0,1-2.147-.16,7.354,7.354,0,0,1,2.147-.16,7.354,7.354,0,0,1,2.146.16" transform="translate(-86.924 -174.079)" fill="#fff"/></g></g><g transform="translate(27.082 106.833)"><g clip-path="url(#ae)"><rect width="47.102" height="51.252" transform="translate(-18.187 7.122) rotate(-24.532)" fill="url(#af)"/></g></g><g transform="translate(52.044 119.784)"><g clip-path="url(#ag)"><rect width="21.685" height="21.279" transform="translate(-7.272 5.522) rotate(-39.126)" fill="url(#ah)"/></g></g><g transform="translate(30.785 115.772)"><g clip-path="url(#ai)"><rect width="24.385" height="24.716" transform="translate(-10.256 7.405) rotate(-39.126)" fill="url(#aj)"/></g></g><g transform="translate(44.652 121.41)"><g clip-path="url(#ak)"><rect width="15.989" height="24.67" transform="matrix(0.993, -0.117, 0.117, 0.993, -2.813, 0.317)" fill="#529d2e"/></g></g><g transform="translate(47.795 115.772)"><g clip-path="url(#al)"><rect width="6.577" height="8.327" transform="translate(-2.763 1.244) rotate(-24.241)" fill="url(#am)"/></g></g><g transform="translate(47.52 109.522)"><g clip-path="url(#an)"><rect width="12.279" height="12.113" transform="matrix(0.419, -0.908, 0.908, 0.419, -4.12, 7.714)" fill="url(#ao)"/></g></g><g transform="translate(46.347 108.067)"><g clip-path="url(#ap)"><rect width="8.654" height="8.781" transform="matrix(0.903, -0.429, 0.429, 0.903, -3.198, 1.228)" fill="url(#aq)"/></g></g><g transform="translate(46.343 113.175)"><g clip-path="url(#ar)"><rect width="3.585" height="3.76" transform="matrix(0.419, -0.908, 0.908, 0.419, -1.515, 2.133)" fill="url(#as)"/></g></g><g transform="translate(43.932 156.546)"><g clip-path="url(#at)"><rect width="33.201" height="26.856" transform="translate(-12.812 23.125) rotate(-61.013)" fill="url(#au)"/></g></g><g transform="translate(41.814 179.382)"><g clip-path="url(#av)"><rect width="5.928" height="8.123" transform="translate(-0.077 0.001) rotate(-0.544)" fill="url(#aw)"/></g></g><g transform="translate(45.32 158.956)"><g clip-path="url(#ax)"><rect width="16.158" height="29.155" transform="translate(-8.634 2.769) rotate(-18.277)" fill="url(#ay)"/></g></g><g transform="translate(47.069 180.978)"><g clip-path="url(#az)"><rect width="7.647" height="6.925" transform="translate(-0.693 0.001) rotate(-0.544)" fill="url(#ba)"/></g></g><g transform="translate(42.193 138.98)"><g clip-path="url(#bb)"><rect width="27.421" height="23.448" transform="matrix(0.303, -0.953, 0.953, 0.303, -8.065, 21.171)" fill="#263238"/></g></g><g transform="translate(62.311 113.137)"><g clip-path="url(#bc)"><rect width="13.546" height="6.485" transform="translate(-0.599 13.284) rotate(-87.589)" fill="url(#bd)"/></g></g><g transform="translate(63.054 113.137)"><g clip-path="url(#be)"><rect width="12.998" height="14.066" transform="translate(-6.554 5.299) rotate(-39.126)" fill="url(#bf)"/></g></g><g transform="translate(67.764 118.063)"><g clip-path="url(#bg)"><rect width="5.722" height="6.378" transform="translate(-3.271 2.616) rotate(-39.126)" fill="url(#bh)"/></g></g><g clip-path="url(#a)"><g transform="translate(36.252 109.031)" opacity="0.8"><g clip-path="url(#bj)"><path d="M539.94,1616.749a3.476,3.476,0,0,0-1.74.919,2.508,2.508,0,0,0-.534.853l-.079.242-.045.25c-.032.169-.047.324-.075.487a7.609,7.609,0,0,1-1.632,3.495,7.21,7.21,0,0,1-1.422,1.323,11.051,11.051,0,0,1-1.713.943q-.891.422-1.808.787a17.546,17.546,0,0,1-1.864.648,19.939,19.939,0,0,0,3.743-1.279,9.861,9.861,0,0,0,1.759-.933,7.386,7.386,0,0,0,1.477-1.347,7.61,7.61,0,0,0,1.629-3.61c.022-.164.035-.337.06-.493l.035-.237.068-.23a2.413,2.413,0,0,1,.481-.825,3.546,3.546,0,0,1,1.66-.993" transform="translate(-529.028 -1616.749)" fill="#fff"/></g></g><g transform="translate(28.703 122.857)" opacity="0.8"><g clip-path="url(#bk)"><path d="M418.474,1821.81a8.464,8.464,0,0,0-1.159,2.608,7.69,7.69,0,0,0-.194,2.865,6.759,6.759,0,0,0,1.005,2.69c.139.2.268.4.425.581.076.093.148.188.228.278l.245.263c.16.178.348.328.52.492s.371.3.557.448a9.665,9.665,0,0,1-1.83-2.152,7.677,7.677,0,0,1-.6-1.268,6.974,6.974,0,0,1-.328-1.361,7.893,7.893,0,0,1,.14-2.8,9.569,9.569,0,0,1,.4-1.355,9.184,9.184,0,0,1,.589-1.293" transform="translate(-417.066 -1821.81)" fill="#fff"/></g></g></g><g transform="translate(5.208 78.272)"><g clip-path="url(#bl)"><rect width="65.17" height="69.046" transform="matrix(0.657, -0.754, 0.754, 0.657, -13.594, 15.585)" fill="#b0c710"/></g></g><g transform="translate(6.986 81.24)"><g clip-path="url(#bm)"><rect width="17.5" height="17.273" transform="translate(-4.151 12.574) rotate(-71.73)" fill="#fff"/></g></g><g clip-path="url(#a)"><g transform="translate(24.586 81.857)" opacity="0.83"><g clip-path="url(#bo)"><path d="M1.744,0H22.212a1.744,1.744,0,0,1,1.744,1.744v0a1.744,1.744,0,0,1-1.744,1.744H1.744A1.744,1.744,0,0,1,0,1.744v0A1.744,1.744,0,0,1,1.744,0Z" transform="translate(0 0)" fill="#fff"/></g></g><g transform="translate(25.297 87.918)" opacity="0.83"><g clip-path="url(#bp)"><path d="M411.367,1310.875h-44.5a.317.317,0,0,1-.317-.316v-6.633a.317.317,0,0,1,.317-.317h44.5a.317.317,0,0,1,.317.317v6.633a.316.316,0,0,1-.317.316" transform="translate(-366.546 -1303.609)" fill="#fff"/></g></g><path d="M853.558,1228.57a1.047,1.047,0,0,1-1.047,1.047h-9.071a1.047,1.047,0,1,1,0-2.093h9.071a1.047,1.047,0,0,1,1.047,1.047" transform="translate(-785.014 -1144.735)" fill="#fff"/><g transform="translate(74.958 74.803)"><path d="M272.3,136.792l9.155.126a9.115,9.115,0,0,1-9.155,8.855h-.054Z" transform="translate(-250.773 -126.484)" fill="#455a64"/><path d="M293.481,159.338a.9.9,0,0,1-.2.016l-.56.015-2.046.024h-.026l-.017-.021-3.02-3.8-2.434-3.1.047.023-2.694-.025-.754-.017a1.426,1.426,0,0,1-.266-.018,1.455,1.455,0,0,1,.266-.018l.754-.017,2.694-.025h.029l.018.023,2.45,3.092,2.995,3.825-.043-.021,2.046.024.56.015a.9.9,0,0,1,.2.016" transform="translate(-256.812 -136.635)" fill="#263238"/><path d="M314.223,175.294c0,.039-1.326.07-2.962.07s-2.962-.031-2.962-.07,1.326-.07,2.962-.07,2.962.031,2.962.07" transform="translate(-274.27 -151.535)" fill="#263238"/><path d="M314.223,178.445c0,.039-1.326.07-2.962.07s-2.962-.031-2.962-.07,1.326-.07,2.962-.07,2.962.031,2.962.07" transform="translate(-274.27 -153.59)" fill="#263238"/><path d="M251.1,116.236l-.128,8.98a8.984,8.984,0,1,1,9.284-8.98Z" transform="translate(-231.021 -107.231)" fill="#a4dc88"/><path d="M242.5,114.125a.594.594,0,0,1-.159.037l-.455.073-1.645.231-.027,0-.02-.02L238,112.316c-1.054-1.034-2-1.975-2.684-2.661l-.8-.818a2.45,2.45,0,0,1-.281-.314,2.38,2.38,0,0,1,.319.275l.833.786c.7.668,1.659,1.6,2.713,2.632l2.176,2.152-.047-.016,1.651-.182.459-.042a.6.6,0,0,1,.163,0" transform="translate(-225.994 -108.058)" fill="#263238"/><path d="M216.486,107.257c0,.039-1.326.07-2.962.07s-2.962-.031-2.962-.07,1.326-.07,2.962-.07,2.962.032,2.962.07" transform="translate(-210.562 -107.187)" fill="#263238"/><path d="M216.486,110.408c0,.039-1.326.07-2.962.07s-2.962-.032-2.962-.07,1.326-.07,2.962-.07,2.962.031,2.962.07" transform="translate(-210.562 -109.241)" fill="#263238"/></g></g><g transform="translate(137.974 134.77)"><g clip-path="url(#bq)"><rect width="10.154" height="13.607" transform="translate(-0.532 9.399) rotate(-86.76)" fill="url(#br)"/></g></g><g transform="translate(131.702 146.898)"><g clip-path="url(#bs)"><rect width="25.296" height="30.213" transform="translate(-0.206)" fill="#529d2e"/></g></g><g transform="translate(130.962 156.083)"><g clip-path="url(#bt)"><rect width="16.755" height="19.355" transform="translate(-8.974 2.373) rotate(-22.488)" fill="url(#bu)"/></g></g><g transform="translate(149.933 156.083)"><g clip-path="url(#bv)"><rect width="18.86" height="15.56" transform="translate(-6.345 13.847) rotate(-67.512)" fill="url(#bw)"/></g></g><g transform="translate(134.583 160.467)"><g clip-path="url(#bx)"><rect width="13.101" height="19.027" transform="translate(-0.312 12.635) rotate(-88.586)" fill="url(#by)"/></g></g><g transform="translate(153.886 176.56)"><g clip-path="url(#bz)"><rect width="7.027" height="9.785" transform="translate(-1.372 3.664) rotate(-69.476)" fill="url(#ca)"/></g></g><g transform="translate(152.729 176.478)"><g clip-path="url(#cb)"><rect width="4.174" height="3.765" transform="translate(-1.117 3.024) rotate(-69.736)" fill="url(#cc)"/></g></g><g transform="translate(123.871 176.406)"><g clip-path="url(#cd)"><rect width="9.784" height="7.804" transform="matrix(0.885, -0.465, 0.465, 0.885, -2.095, 0.898)" fill="url(#ce)"/></g></g><g transform="translate(130.829 176.479)"><g clip-path="url(#cf)"><rect width="4.118" height="3.706" transform="translate(-1.116 2.986) rotate(-69.736)" fill="url(#cg)"/></g></g><g transform="translate(132.603 166.246)"><g clip-path="url(#ch)"><rect width="32.858" height="29.555" transform="translate(-6.717 5.046) rotate(-36.914)" fill="#263238"/></g></g><g transform="translate(125.55 165.94)"><g clip-path="url(#ci)"><rect width="23.921" height="31.948" transform="translate(-5.427 11.988) rotate(-67.62)" fill="#263238"/></g></g><g transform="translate(139.036 143.301)"><g clip-path="url(#cj)"><rect width="9.782" height="7.563" transform="translate(-0.086 0.001) rotate(-0.658)" fill="url(#ck)"/></g></g><g transform="translate(140.218 134.503)"><g clip-path="url(#cl)"><rect width="15.349" height="14.635" transform="matrix(0.201, -0.98, 0.98, 0.201, -5.504, 12.622)" fill="url(#cm)"/></g></g><g transform="translate(137.935 130.662)"><g clip-path="url(#cn)"><rect width="15.155" height="17.517" transform="translate(-3.5 11.116) rotate(-75.838)" fill="url(#co)"/></g></g><g transform="translate(139.748 138.391)"><g clip-path="url(#cp)"><rect width="2.093" height="3.841" transform="matrix(0.996, -0.092, 0.092, 0.996, -0.472, 0.031)" fill="url(#cq)"/></g></g><g transform="translate(142.705 162.787)"><g clip-path="url(#cr)"><rect width="2.635" height="2.577" transform="translate(-0.135 2.581) rotate(-88.803)" fill="url(#cs)"/></g></g><g transform="translate(121.555 101.664)"><g clip-path="url(#ct)"><rect width="58.051" height="72.746" transform="translate(-11.984 20.651) rotate(-59.873)" fill="#3a8416"/></g></g><g transform="translate(123.343 104.65)"><g clip-path="url(#cu)"><rect width="19.461" height="19.397" transform="matrix(0.613, -0.79, 0.79, 0.613, -6.793, 8.759)" fill="#fff"/></g></g><g clip-path="url(#a)"><g transform="translate(141.109 105.116)" opacity="0.6"><g clip-path="url(#cw)"><rect width="24.188" height="3.489" rx="1.744" transform="translate(0 0)" fill="#fff"/></g></g><g transform="translate(141.099 111.038)" opacity="0.6"><g clip-path="url(#cx)"><path d="M2129.667,1654.7h-45.075a.512.512,0,0,1-.512-.512v-7.16a.512.512,0,0,1,.512-.512h45.075a.512.512,0,0,1,.512.512v7.16a.512.512,0,0,1-.512.512" transform="translate(-2084.08 -1646.518)" fill="#fff"/></g></g><g transform="translate(174.369 105.814)" opacity="0.6"><g clip-path="url(#cy)"><path d="M2588.682,1570.075a1.047,1.047,0,0,1-1.047,1.047h-9.071a1.047,1.047,0,1,1,0-2.093h9.071a1.047,1.047,0,0,1,1.047,1.047" transform="translate(-2577.518 -1569.028)" fill="#fff"/></g></g><g transform="translate(166.941 102.949)"><g transform="translate(0.048 0.001)"><path d="M409.288,114.241a3.253,3.253,0,0,0,.54,1.84,5.256,5.256,0,0,1-.315,1.145l1.117-.39a2.618,2.618,0,0,0,1.708.454,3.05,3.05,0,1,0-3.05-3.049Z" transform="translate(-409.288 -111.191)" fill="#fff"/></g><path d="M412.018,111.183a.3.3,0,0,1,.053,0l.156,0c.034,0,.073,0,.115.005l.138.019.161.023.18.044a2.91,2.91,0,0,1,.87.38,3.071,3.071,0,0,1,1.411,2.309,3.171,3.171,0,0,1,.008.421c0,.071,0,.144-.014.215l-.033.217a3.088,3.088,0,0,1-.293.857,3.3,3.3,0,0,1-.559.77,3.234,3.234,0,0,1-.806.579,2.929,2.929,0,0,1-.983.3,1.939,1.939,0,0,1-.262.022,2.35,2.35,0,0,1-.265,0,3.15,3.15,0,0,1-.531-.067,3.1,3.1,0,0,1-1.056-.444l.032,0-1.076.432-.064.025.018-.066.316-1.15.005.028a3.088,3.088,0,0,1-.574-1.314,2.794,2.794,0,0,1-.042-.673,2.163,2.163,0,0,1,.031-.323l.024-.157c.01-.052.025-.1.038-.152a3.077,3.077,0,0,1,1.2-1.75,2.941,2.941,0,0,1,.715-.377l.161-.058.153-.039.14-.035c.045-.009.088-.013.129-.02.081-.01.153-.024.215-.027l.158-.005.1,0h.033a.139.139,0,0,1-.033,0l-.1.008-.157.011c-.062,0-.133.021-.213.032a3.06,3.06,0,0,0-2.447,2.27c-.012.05-.027.1-.036.15l-.023.155a2.105,2.105,0,0,0-.029.318,2.746,2.746,0,0,0,.044.66,3.033,3.033,0,0,0,.566,1.286l.01.013,0,.016-.314,1.151-.045-.041,1.076-.433.017-.007.015.01a3.039,3.039,0,0,0,1.033.434,3.074,3.074,0,0,0,.519.066,2.284,2.284,0,0,0,.259,0,1.9,1.9,0,0,0,.256-.022,2.866,2.866,0,0,0,.961-.294,3.17,3.17,0,0,0,.79-.565,3.241,3.241,0,0,0,.549-.752,3.04,3.04,0,0,0,.289-.838l.033-.212c.01-.07.009-.141.014-.211a3.034,3.034,0,0,0-1.381-2.694,2.927,2.927,0,0,0-.856-.386l-.177-.047-.159-.026-.136-.022c-.042,0-.08-.006-.114-.009l-.155-.011A.282.282,0,0,1,412.018,111.183Z" transform="translate(-408.92 -111.182)" fill="#263238"/><g transform="translate(1.489 1.987)"><g transform="translate(0.005 0.005)"><path d="M420.338,127.635l.42-.42.81.72,1.589-1.529.39.42-2.039,1.919Z" transform="translate(-420.338 -126.406)" fill="#529d2e"/></g><path d="M421.476,128.718l0,0L420.3,127.6l0,0,.422-.422.81.72,1.589-1.529,0,0,.392.422,0,0Zm-1.164-1.114,1.164,1.1,2.034-1.915-.385-.415-1.589,1.529-.81-.72Z" transform="translate(-420.302 -126.37)" fill="#529d2e"/></g></g><g transform="translate(126.664 107.201)"><rect width="0.714" height="7.979" transform="translate(0)" fill="#529d2e"/><rect width="0.714" height="5.269" transform="translate(1.379 2.71)" fill="#a4dc88"/><rect width="0.714" height="7.028" transform="translate(2.759 0.992)" fill="#529d2e"/><rect width="0.714" height="7.671" transform="translate(4.138 0.308)" fill="#a4dc88"/><rect width="0.714" height="5.107" transform="translate(5.517 2.873)" fill="#529d2e"/><rect width="0.714" height="4.105" transform="translate(6.897 3.874)" fill="#a4dc88"/></g></g></g></g><path d="M82.131,161.478a11.952,11.952,0,0,1,2.917-1.268l.6-2.887,4.878-.085.7,2.864a11.944,11.944,0,0,1,2.959,1.164l2.465-1.616,3.51,3.389-1.528,2.52a11.955,11.955,0,0,1,1.268,2.917l2.887.6.085,4.878-2.864.7a11.943,11.943,0,0,1-1.164,2.959l1.616,2.465-3.388,3.51-2.52-1.528a11.952,11.952,0,0,1-2.917,1.268l-.6,2.887-4.878.085-.7-2.864a11.977,11.977,0,0,1-2.959-1.164l-2.465,1.616L76.521,180.5l1.528-2.52a11.946,11.946,0,0,1-1.268-2.917l-2.887-.6-.086-4.878,2.864-.7a11.978,11.978,0,0,1,1.164-2.959l-1.616-2.465,3.388-3.51Zm2.6,6.5a5.233,5.233,0,1,0,7.4-.13,5.233,5.233,0,0,0-7.4.13" transform="translate(776.552 7469.319)" fill="#fff" opacity="0.63"/><path d="M82.131,161.478a11.952,11.952,0,0,1,2.917-1.268l.6-2.887,4.878-.085.7,2.864a11.944,11.944,0,0,1,2.959,1.164l2.465-1.616,3.51,3.389-1.528,2.52a11.955,11.955,0,0,1,1.268,2.917l2.887.6.085,4.878-2.864.7a11.943,11.943,0,0,1-1.164,2.959l1.616,2.465-3.388,3.51-2.52-1.528a11.952,11.952,0,0,1-2.917,1.268l-.6,2.887-4.878.085-.7-2.864a11.977,11.977,0,0,1-2.959-1.164l-2.465,1.616L76.521,180.5l1.528-2.52a11.946,11.946,0,0,1-1.268-2.917l-2.887-.6-.086-4.878,2.864-.7a11.978,11.978,0,0,1,1.164-2.959l-1.616-2.465,3.388-3.51Zm2.6,6.5a5.233,5.233,0,1,0,7.4-.13,5.233,5.233,0,0,0-7.4.13" transform="translate(580.724 7571.896)" fill="#fff" opacity="0.63"/><path d="M80.322,160.557a9.355,9.355,0,0,1,2.283-.992l.47-2.26,3.818-.067.55,2.242a9.35,9.35,0,0,1,2.316.911l1.93-1.265,2.747,2.653-1.2,1.972a9.356,9.356,0,0,1,.992,2.283l2.259.47.067,3.818-2.242.549a9.348,9.348,0,0,1-.911,2.316l1.265,1.93-2.652,2.747-1.973-1.2a9.355,9.355,0,0,1-2.283.992l-.47,2.26-3.818.067-.55-2.242a9.374,9.374,0,0,1-2.316-.911l-1.93,1.265-2.747-2.652,1.2-1.973a9.351,9.351,0,0,1-.992-2.283l-2.259-.47-.067-3.818,2.242-.55a9.375,9.375,0,0,1,.911-2.316l-1.265-1.93,2.652-2.747Zm2.035,5.086a4.1,4.1,0,1,0,5.792-.1,4.1,4.1,0,0,0-5.792.1" transform="translate(595.256 7439.762)" fill="#fff" opacity="0.63"/><g transform="translate(726.847 7677.802)"><g transform="translate(0.048 0.001)"><path d="M409.288,114.241a3.253,3.253,0,0,0,.54,1.84,5.256,5.256,0,0,1-.315,1.145l1.117-.39a2.618,2.618,0,0,0,1.708.454,3.05,3.05,0,1,0-3.05-3.049Z" transform="translate(-409.288 -111.191)" fill="#fff"/></g><path d="M412.018,111.183a.3.3,0,0,1,.053,0l.156,0c.034,0,.073,0,.115.005l.138.019.161.023.18.044a2.91,2.91,0,0,1,.87.38,3.071,3.071,0,0,1,1.411,2.309,3.171,3.171,0,0,1,.008.421c0,.071,0,.144-.014.215l-.033.217a3.088,3.088,0,0,1-.293.857,3.3,3.3,0,0,1-.559.77,3.234,3.234,0,0,1-.806.579,2.929,2.929,0,0,1-.983.3,1.939,1.939,0,0,1-.262.022,2.35,2.35,0,0,1-.265,0,3.15,3.15,0,0,1-.531-.067,3.1,3.1,0,0,1-1.056-.444l.032,0-1.076.432-.064.025.018-.066.316-1.15.005.028a3.088,3.088,0,0,1-.574-1.314,2.794,2.794,0,0,1-.042-.673,2.163,2.163,0,0,1,.031-.323l.024-.157c.01-.052.025-.1.038-.152a3.077,3.077,0,0,1,1.2-1.75,2.941,2.941,0,0,1,.715-.377l.161-.058.153-.039.14-.035c.045-.009.088-.013.129-.02.081-.01.153-.024.215-.027l.158-.005.1,0h.033a.139.139,0,0,1-.033,0l-.1.008-.157.011c-.062,0-.133.021-.213.032a3.06,3.06,0,0,0-2.447,2.27c-.012.05-.027.1-.036.15l-.023.155a2.105,2.105,0,0,0-.029.318,2.746,2.746,0,0,0,.044.66,3.033,3.033,0,0,0,.566,1.286l.01.013,0,.016-.314,1.151-.045-.041,1.076-.433.017-.007.015.01a3.039,3.039,0,0,0,1.033.434,3.074,3.074,0,0,0,.519.066,2.284,2.284,0,0,0,.259,0,1.9,1.9,0,0,0,.256-.022,2.866,2.866,0,0,0,.961-.294,3.17,3.17,0,0,0,.79-.565,3.241,3.241,0,0,0,.549-.752,3.04,3.04,0,0,0,.289-.838l.033-.212c.01-.07.009-.141.014-.211a3.034,3.034,0,0,0-1.381-2.694,2.927,2.927,0,0,0-.856-.386l-.177-.047-.159-.026-.136-.022c-.042,0-.08-.006-.114-.009l-.155-.011A.282.282,0,0,1,412.018,111.183Z" transform="translate(-408.92 -111.182)" fill="#263238"/><g transform="translate(1.489 1.987)"><g transform="translate(0.005 0.005)"><path d="M420.338,127.635l.42-.42.81.72,1.589-1.529.39.42-2.039,1.919Z" transform="translate(-420.338 -126.406)" fill="#529d2e"/></g><path d="M421.476,128.718l0,0L420.3,127.6l0,0,.422-.422.81.72,1.589-1.529,0,0,.392.422,0,0Zm-1.164-1.114,1.164,1.1,2.034-1.915-.385-.415-1.589,1.529-.81-.72Z" transform="translate(-420.302 -126.37)" fill="#529d2e"/></g></g><g transform="translate(793.985 7670.015)"><rect width="22.362" height="25.521" transform="translate(0.038 0.038)" fill="#fafafa"/><path d="M493.29,52.469s0-.041,0-.121,0-.2,0-.354c0-.313,0-.775,0-1.377,0-1.2-.005-2.968-.009-5.207,0-4.475-.01-10.851-.017-18.462l.034.033-22.36,0h0l.038-.038c0,9.409,0,18.183-.006,25.521l-.032-.032,16.221.016,4.534.008,1.195,0c.271,0,.412,0,.412,0s-.137,0-.405,0l-1.189,0-4.527.008-16.241.016H470.9v-.032c0-7.338,0-16.112-.006-25.521V26.91h.04l22.36,0h.033v.033c-.007,7.62-.013,14-.017,18.483,0,2.236-.007,4-.009,5.2,0,.6,0,1.059,0,1.37,0,.154,0,.271,0,.351s0,.117,0,.117" transform="translate(-470.89 -26.91)" fill="#263238"/><rect width="18.116" height="14.532" transform="translate(1.827 2.079)" fill="#e0e0e0"/><rect width="0.595" height="0.171" transform="translate(3.093 14.027)" fill="#263238"/><rect width="0.76" height="0.171" transform="translate(4.438 14.943)" fill="#263238"/><rect width="0.76" height="0.171" transform="translate(7.085 14.943)" fill="#263238"/><rect width="0.76" height="0.171" transform="translate(9.732 14.943)" fill="#263238"/><rect width="0.76" height="0.171" transform="translate(12.378 14.943)" fill="#263238"/><rect width="0.76" height="0.171" transform="translate(15.025 14.943)" fill="#263238"/><rect width="0.76" height="0.171" transform="translate(17.672 14.943)" fill="#263238"/><rect width="0.595" height="0.171" transform="translate(3.093 11.739)" fill="#263238"/><rect width="0.595" height="0.171" transform="translate(3.093 7.432)" fill="#263238"/><rect width="0.595" height="0.171" transform="translate(3.093 5.268)" fill="#263238"/><rect width="0.595" height="0.171" transform="translate(3.123 9.585)" fill="#263238"/><path d="M512.55,64.125a.394.394,0,0,1-.064,0l-.187,0-.719.007-2.646.012-8.729.011H498.1v-.037c.005-2.918.01-5.486.013-7.329,0-.917.009-1.653.011-2.164,0-.251,0-.446.007-.582,0-.064,0-.114,0-.151a.026.026,0,1,1,.007,0c0,.037,0,.087,0,.151,0,.137,0,.332.006.582,0,.511.007,1.247.011,2.164,0,1.843.008,4.411.013,7.329l-.037-.037H500.2l8.729.011,2.646.012.719.007.187,0a.437.437,0,0,1,.064,0" transform="translate(-494.139 -49.927)" fill="#263238"/><path d="M516.313,93.134c0,.021-3.135.038-7,.038s-7-.017-7-.038,3.135-.038,7-.038,7,.017,7,.038" transform="translate(-497.734 -83.463)" fill="#263238"/><path d="M516.313,78.339c0,.021-3.135.038-7,.038s-7-.017-7-.038,3.135-.038,7-.038,7,.017,7,.038" transform="translate(-497.734 -70.821)" fill="#263238"/><path d="M516.313,63.469c0,.021-3.135.038-7,.038s-7-.017-7-.038,3.135-.038,7-.038,7,.017,7,.038" transform="translate(-497.734 -58.115)" fill="#263238"/><path d="M516.313,107.929c0,.021-3.135.038-7,.038s-7-.017-7-.038,3.135-.038,7-.038,7,.017,7,.038" transform="translate(-497.734 -96.104)" fill="#263238"/><path d="M503.3,64.594v-1.91l1.191-1.849.808.62,1.659-2.576.978.689,1.361-2.377,1.106.9,1.659-3.153,1.786,3.524,1.446-1.763,1.7-.487v8.381Z" transform="translate(-498.582 -50.86)" fill="#455a64"/><path d="M517.16,58.907a.119.119,0,0,1-.03,0l-.089,0-.345.006-1.305.01.017-.008-1.4,1.83-.009.012h-.015l-3.5.007.031-.018L509.044,63.2,507.6,65.6l-.029.047-.032-.045-1.9-2.61.051,0-1.733,2.694-.484.744-.129.194c-.03.044-.047.065-.047.065s.012-.025.039-.07l.121-.2.47-.753,1.711-2.709.024-.038.027.037,1.9,2.6-.061,0,1.444-2.4,1.475-2.45.011-.018h.021l3.5.006-.024.012,1.411-1.819.006-.008h.01l1.305.01.345.006.089,0a.12.12,0,0,1,.03,0" transform="translate(-498.582 -54.232)" fill="#e8505b"/><path d="M521.934,90.456a.134.134,0,1,1-.134-.129.132.132,0,0,1,.134.129" transform="translate(-514.275 -81.097)" fill="#e8505b"/><path d="M549.688,74.681a.134.134,0,1,1-.134-.129.132.132,0,0,1,.134.129" transform="translate(-537.989 -67.618)" fill="#e8505b"/><path d="M571.264,70.805a.134.134,0,1,1-.134-.129.132.132,0,0,1,.134.129" transform="translate(-556.425 -64.306)" fill="#e8505b"/><path d="M502.059,155.657c0,.021-3.823.038-8.537.038s-8.538-.017-8.538-.038,3.822-.038,8.538-.038,8.537.017,8.537.038" transform="translate(-482.933 -136.886)" fill="#263238"/><path d="M502.059,162c0,.021-3.823.038-8.537.038s-8.538-.017-8.538-.038,3.822-.038,8.538-.038,8.537.017,8.537.038" transform="translate(-482.933 -142.305)" fill="#263238"/><path d="M502.059,168.341c0,.021-3.823.038-8.537.038s-8.538-.017-8.538-.038,3.822-.038,8.538-.038,8.537.017,8.537.038" transform="translate(-482.933 -147.723)" fill="#263238"/><path d="M502.059,174.684c0,.021-3.823.038-8.537.038s-8.538-.017-8.538-.038,3.822-.038,8.538-.038,8.537.017,8.537.038" transform="translate(-482.933 -153.144)" fill="#263238"/></g><g transform="translate(687.324 7680.889)"><rect width="0.714" height="7.979" transform="translate(0 0)" fill="#529d2e"/><rect width="0.714" height="5.269" transform="translate(1.379 2.71)" fill="#a4dc88"/><rect width="0.714" height="7.028" transform="translate(2.759 0.992)" fill="#529d2e"/><rect width="0.714" height="7.671" transform="translate(4.138 0.308)" fill="#a4dc88"/><rect width="0.714" height="5.107" transform="translate(5.517 2.873)" fill="#529d2e"/><rect width="0.714" height="4.105" transform="translate(6.897 3.874)" fill="#a4dc88"/></g></g></g></svg>