<svg xmlns="http://www.w3.org/2000/svg" width="97.103" height="97.103" viewBox="0 0 97.103 97.103"><g transform="translate(-285 -7220)"><g transform="translate(285 7220)"><g transform="translate(1.566 1.566)"><g transform="translate(14.096 87.706)"><path d="M66.382,57v6.265H10V57H66.382Z" transform="translate(-10 -57)" fill="#969faa"/></g><g transform="translate(32.89 78.309)"><path d="M22,51H40.794v9.4H22Z" transform="translate(-22 -51)" fill="#aab2bd"/></g><g transform="translate(0 12.529)"><path d="M85.574,45.743V68.515a6.252,6.252,0,0,1-4.7,6.061V68.515H74.61v6.265H68.346V68.515H62.081v6.265H7.265A6.263,6.263,0,0,1,1,68.515V15.265A6.263,6.263,0,0,1,7.265,9H45.652l.642,1.269a24.075,24.075,0,0,0-2.725,5H8.831a1.571,1.571,0,0,0-1.566,1.566V60.684A1.571,1.571,0,0,0,8.831,62.25H77.743a1.571,1.571,0,0,0,1.566-1.566V46.338a20.893,20.893,0,0,0,1.864-1.19l3.32,1.66Z" transform="translate(-1 -9)" fill="#ccd1d9"/></g><g transform="translate(6.265 18.794)"><path d="M77.044,44.073V58.419a1.571,1.571,0,0,1-1.566,1.566H6.566A1.571,1.571,0,0,1,5,58.419V14.566A1.571,1.571,0,0,1,6.566,13H41.3a25.028,25.028,0,0,0-1.457,5.09l-3.524,1.175v6.265L39.847,26.7A24.758,24.758,0,0,0,44.029,36.79l-1.66,3.32L46.8,44.543l3.32-1.66a24.758,24.758,0,0,0,10.086,4.182l1.175,3.524h6.265l1.175-3.524A24.643,24.643,0,0,0,77.044,44.073Z" transform="translate(-5 -13)" fill="#69d6f4"/></g><g transform="translate(73.61 72.044)"><path d="M54.265,47v6.061a5.727,5.727,0,0,1-1.566.2H48V47Z" transform="translate(-48 -47)" fill="#ff826e"/></g><g transform="translate(61.081 72.044)"><path d="M40,47h6.265v6.265H40Z" transform="translate(-40 -47)" fill="#ff826e"/></g><g transform="translate(12.529 25.059)"><path d="M9,17H27.794v6.265H9Z" transform="translate(-9 -17)" fill="#e6e9ed"/></g><g transform="translate(12.529 37.588)"><path d="M9,25H27.794v6.265H9Z" transform="translate(-9 -25)" fill="#e6e9ed"/></g><g transform="translate(28.221 50.249)"><circle cx="4.487" cy="4.487" r="4.487" transform="translate(0 0)" fill="#ff826e"/></g><g transform="translate(12.719 50.249)"><circle cx="4.487" cy="4.487" r="4.487" transform="translate(0 0)" fill="#ff826e"/></g><g transform="translate(37.588)"><path d="M71.985,50.272,70.9,51.337l-3.32-1.66a20.889,20.889,0,0,1-1.864,1.19A24.643,24.643,0,0,1,57.5,53.859l-1.175,3.524H50.059l-1.175-3.524A24.758,24.758,0,0,1,38.8,49.677l-3.32,1.66L31.045,46.9l1.66-3.32A24.758,24.758,0,0,1,28.524,33.5L25,32.324V26.059l3.524-1.175a25.028,25.028,0,0,1,1.457-5.09,24.075,24.075,0,0,1,2.725-5l-.642-1.269-1.018-2.052,4.432-4.432,3.32,1.66A24.758,24.758,0,0,1,48.884,4.524L50.059,1h6.265L57.5,4.524A24.758,24.758,0,0,1,67.584,8.706l3.32-1.66,4.432,4.432-1.66,3.32a24.758,24.758,0,0,1,4.182,10.086l3.524,1.175v6.265L77.858,33.5a24.758,24.758,0,0,1-4.182,10.086l1.66,3.32Zm-4.777-8.536a18.846,18.846,0,1,0-14.017,6.249A18.807,18.807,0,0,0,67.208,41.736Z" transform="translate(-25 -1)" fill="#fcd770"/></g><g transform="translate(53.25 15.662)"><path d="M53.794,23.529V17.265H47.529V11H41.265V26.662H35v9.4H60.059V23.529Z" transform="translate(-35 -11)" fill="#ff826e"/></g></g><g transform="translate(0 0)"><path d="M50.36,6a20.36,20.36,0,1,0,20.36,20.36A20.384,20.384,0,0,0,50.36,6ZM61.324,37.324H58.191v-9.4h3.132ZM55.059,24.794V37.324H51.926V21.662h3.132Zm-6.265-6.265V37.324H45.662V15.4h3.132ZM42.529,37.324H39.4V31.059h3.132Zm-2.044,3.132H60.233a17.129,17.129,0,0,1-19.748,0Zm23.97-4.221V24.794H58.191V18.529H51.926V12.265h-9.4V27.926H36.265v8.309a17.228,17.228,0,1,1,28.191,0Z" transform="translate(16.985 3.397)"/><path d="M93.374,24.252a26.207,26.207,0,0,0-3.729-9.013l1.756-3.51L85.372,5.7,81.864,7.458a26.2,26.2,0,0,0-9.013-3.728L71.607,0H63.086L61.842,3.729a26.247,26.247,0,0,0-9.013,3.728L49.319,5.7l-6.028,6.027.4.8H7.831A7.84,7.84,0,0,0,0,20.36V73.61a7.84,7.84,0,0,0,7.831,7.831H32.89v6.265H14.1v9.4H73.61v-9.4H54.816V81.441H79.875a7.84,7.84,0,0,0,7.831-7.831V51.48L91.4,47.786l-1.756-3.51a26.237,26.237,0,0,0,3.729-9.013L97.1,34.019V25.5Zm-22.9,69.718H17.228V90.838h53.25ZM51.684,87.706H36.022V81.441H51.684Zm15.662-9.4H64.213V75.177h3.132Zm9.4,0V75.177h3.132v3.132Zm6.265-1.222V72.044h-9.4v6.265H70.478V72.044h-9.4v6.265H7.831a4.7,4.7,0,0,1-4.7-4.7V20.36a4.7,4.7,0,0,1,4.7-4.7H44.8a26.277,26.277,0,0,0-1.674,3.132H9.4a3.136,3.136,0,0,0-3.132,3.132V65.779A3.136,3.136,0,0,0,9.4,68.912H78.309a3.136,3.136,0,0,0,3.132-3.132V52.306c.139-.088.285-.158.423-.249l2.709,1.356v20.2A4.674,4.674,0,0,1,83.007,77.087ZM41.317,35.262a26.207,26.207,0,0,0,3.729,9.013l-1.756,3.51,6.028,6.027,3.51-1.756a26.2,26.2,0,0,0,9.013,3.728l1.242,3.731h8.522l1.244-3.729a26.315,26.315,0,0,0,5.458-1.806v11.8H9.4V21.926h32.52c-.233.763-.435,1.538-.6,2.326L37.588,25.5v8.522Zm52.653-3.5-3.345,1.115-.161.922a23.2,23.2,0,0,1-3.911,9.457l-.54.766,1.576,3.146L84.754,50l-3.148-1.574-.766.539a23.184,23.184,0,0,1-9.455,3.911l-.922.161-1.114,3.345H65.341l-1.115-3.345-.922-.161a23.176,23.176,0,0,1-9.455-3.911l-.766-.539L49.934,50,47.1,47.167l1.576-3.146-.54-.766A23.2,23.2,0,0,1,44.224,33.8l-.161-.922-3.342-1.115V27.753l3.345-1.115.161-.922a23.2,23.2,0,0,1,3.911-9.457l.54-.766L47.1,12.346l2.835-2.833,3.148,1.574.766-.539a23.184,23.184,0,0,1,9.455-3.911l.922-.161,1.114-3.344H69.35l1.115,3.345.922.161a23.176,23.176,0,0,1,9.455,3.911l.766.539,3.148-1.574,2.835,2.833-1.577,3.146.54.766a23.2,23.2,0,0,1,3.911,9.457l.161.922,3.344,1.115Z" transform="translate(0 0)"/><path d="M29.926,16H8v9.4H29.926Zm-3.132,6.265H11.132V19.132H26.794Z" transform="translate(4.529 9.059)"/><path d="M29.926,24H8v9.4H29.926Zm-3.132,6.265H11.132V27.132H26.794Z" transform="translate(4.529 13.588)"/><path d="M14.265,32a6.265,6.265,0,1,0,6.265,6.265A6.271,6.271,0,0,0,14.265,32Zm0,9.4A3.132,3.132,0,1,1,17.4,38.265,3.136,3.136,0,0,1,14.265,41.4Z" transform="translate(4.529 18.118)"/><path d="M18,38.265A6.265,6.265,0,1,0,24.265,32,6.271,6.271,0,0,0,18,38.265Zm9.4,0a3.132,3.132,0,1,1-3.132-3.132A3.136,3.136,0,0,1,27.4,38.265Z" transform="translate(10.191 18.118)"/></g></g></g></svg>