<svg xmlns="http://www.w3.org/2000/svg" width="507.863" height="503.408" viewBox="0 0 507.863 503.408"><g transform="translate(-197.137 -7545)"><g transform="translate(197.137 7545)"><g transform="translate(0 0)"><g transform="translate(0 0)"><g transform="translate(0 18.892)"><rect width="252.101" height="156.031" fill="#feb577"/><g transform="translate(26.794 45.927)"><path d="M220.356,153.03c-17.481-6.629-37.588,11.7-54.724,4.227-9.971-4.35-14.494-15.627-19.379-25.348s-13.3-19.974-24.124-18.846c-10.914,1.138-19.739,13.775-30.281,10.729-6.645-1.92-9.962-9.289-11.628-16S77.4,93.658,72.332,88.95,56.71,85.5,55.913,92.373V175.09H253.059S226.406,155.324,220.356,153.03Z" transform="translate(-55.913 -86.142)" fill="#fc8116"/></g><g transform="translate(15.759 134.553)"><path d="M259.845,162.873c0,.176-47.785.32-106.717.32-58.953,0-106.729-.144-106.729-.32s47.775-.321,106.729-.321C212.06,162.552,259.845,162.7,259.845,162.873Z" transform="translate(-46.399 -162.552)" fill="#e0e0e0"/></g><g transform="translate(15.759 98.424)"><path d="M259.845,131.724c0,.176-47.785.32-106.717.32-58.953,0-106.729-.144-106.729-.32s47.775-.321,106.729-.321C212.06,131.4,259.845,131.547,259.845,131.724Z" transform="translate(-46.399 -131.403)" fill="#e0e0e0"/></g><g transform="translate(15.759 62.295)"><path d="M259.845,100.575c0,.176-47.785.32-106.717.32-58.953,0-106.729-.144-106.729-.32s47.775-.321,106.729-.321C212.06,100.254,259.845,100.4,259.845,100.575Z" transform="translate(-46.399 -100.254)" fill="#e0e0e0"/></g><g transform="translate(15.759 27.959)"><path d="M259.845,70.971c0,.177-47.785.321-106.717.321-58.953,0-106.729-.144-106.729-.321s47.775-.32,106.729-.32C212.06,70.651,259.845,70.795,259.845,70.971Z" transform="translate(-46.399 -70.651)" fill="#e0e0e0"/></g></g><g transform="translate(364.914)"><g transform="translate(9.744 10.749)"><path d="M395.747,79.454V39.525a39.929,39.929,0,1,1-39.92,40.852Z" transform="translate(-355.827 -39.525)" fill="#fc8116"/></g><g transform="translate(0)"><path d="M387.355,70.173l-39.929.9c0-10.4,4.061-21.3,11.312-28.749a41.056,41.056,0,0,1,28-12.069Z" transform="translate(-347.426 -30.258)" fill="#fc8116"/></g></g><g transform="translate(56.465 360.791)"><g transform="translate(0 9.724)"><path d="M117.623,385.83V349.7a36.129,36.129,0,1,0,36.119,36.965Z" transform="translate(-81.494 -349.701)" fill="#fc8116"/></g><g transform="translate(44.936)"><path d="M120.236,377.432l36.129.817a38.109,38.109,0,0,0-10.236-26.013A37.145,37.145,0,0,0,120.8,341.317Z" transform="translate(-120.236 -341.317)" fill="#37474f"/></g></g><g transform="translate(312.187 139.902)"><g transform="translate(0)"><rect width="16.888" height="52.745" fill="#fc8116"/></g><g transform="translate(25.215 12.048)"><rect width="16.888" height="40.697" fill="#fc8116"/></g><g transform="translate(48.56 28.577)"><rect width="16.888" height="24.168" fill="#fc8116"/></g></g></g><g transform="translate(107.577 0.264)"><path d="M166.377,191.522c-7.381-5.58-17.547-6.542-26.486-4.154-5.609,1.088-15.85,12.169-14.14,21.675s10.82,16.281,20.267,18.293c10.491,2.233,23.131-1.413,27.592-11.166C177.46,207.755,173.759,197.1,166.377,191.522Z" transform="translate(-125.561 -5.599)" fill="#37474f"/><path d="M324.074,35.864c-7.38-5.58-17.547-6.543-26.486-4.154-5.609,1.088-15.849,12.169-14.14,21.675s10.82,16.281,20.266,18.292c10.491,2.233,23.132-1.413,27.592-11.166C335.157,52.1,331.456,41.443,324.074,35.864Z" transform="translate(-100.349 -30.486)" fill="#37474f"/></g><g transform="translate(9.658 143.394)"><g transform="translate(0.001 31.482)"><g transform="translate(0.332 260.898)"><rect width="34.34" height="67.008" fill="#fdab64"/></g><g transform="translate(74.89 288.308)"><g transform="translate(0)"><rect width="34.34" height="39.599" fill="#ff725e"/></g></g><g transform="translate(74.89 288.308)" opacity="0.79"><g transform="translate(0)"><rect width="34.34" height="39.599" fill="#fed5b1"/></g></g><g transform="translate(144.173 238.305)"><path d="M199.78,476.094l-34.34.224V386.485h34.34Z" transform="translate(-165.44 -386.485)" fill="#fdab64"/></g><g transform="translate(216.705 280.6)"><g transform="translate(0)"><rect width="34.34" height="47.306" fill="#ff725e"/></g></g><g transform="translate(216.705 280.6)" opacity="0.79"><g transform="translate(0)"><rect width="34.34" height="47.306" fill="#fff"/></g></g><g transform="translate(288.013 238.305)"><g transform="translate(0)"><rect width="34.34" height="89.602" fill="#ff725e"/></g></g><g transform="translate(358.642 123.723)"><g transform="translate(0)"><rect width="34.34" height="204.184" fill="#fed5b1"/></g></g><g transform="translate(0.463 292.79)"><path d="M75.748,433.467c.268.275-7.172,8.365-16.615,18.066S41.814,468.879,41.546,468.6s7.17-8.364,16.616-18.069S75.481,433.191,75.748,433.467Z" transform="translate(-41.539 -433.46)" fill="#fff"/></g><g transform="translate(74.796 293.38)"><path d="M139.836,433.975c.268.276-7.172,8.365-16.615,18.068s-17.319,17.346-17.587,17.071,7.17-8.364,16.616-18.069S139.568,433.7,139.836,433.975Z" transform="translate(-105.626 -433.968)" fill="#ff725e"/></g><g transform="translate(216.767 292.762)"><g transform="translate(0)"><path d="M262.237,433.442c.268.275-7.172,8.365-16.615,18.066s-17.319,17.347-17.587,17.072,7.17-8.364,16.616-18.069S261.969,433.167,262.237,433.442Z" transform="translate(-228.027 -433.435)" fill="#ff725e"/></g></g><g transform="translate(0 261.578)"><path d="M75.348,406.557c.269.275-7.172,8.365-16.614,18.066S41.415,441.97,41.147,441.694s7.169-8.363,16.616-18.069S75.08,406.281,75.348,406.557Z" transform="translate(-41.14 -406.55)" fill="#fff"/></g><g transform="translate(144.83 293.3)"><path d="M200.215,433.906c.268.275-7.171,8.365-16.615,18.066s-17.319,17.347-17.587,17.071,7.17-8.363,16.616-18.067S199.948,433.63,200.215,433.906Z" transform="translate(-166.006 -433.899)" fill="#fff"/></g><g transform="translate(144.367 262.087)"><path d="M199.815,407c.268.276-7.171,8.365-16.614,18.066s-17.319,17.347-17.587,17.071,7.169-8.363,16.616-18.068S199.547,406.72,199.815,407Z" transform="translate(-165.607 -406.989)" fill="#fff"/></g><g transform="translate(144.364 238.295)"><g transform="translate(0)"><path d="M189.115,386.486c.268.275-4.776,5.9-11.265,12.57s-11.968,11.849-12.236,11.573,4.774-5.9,11.265-12.571S188.847,386.21,189.115,386.486Z" transform="translate(-165.604 -386.476)" fill="#fff"/></g></g><g transform="translate(358.593 292.762)"><g transform="translate(0)"><path d="M384.512,433.442c.269.275-7.172,8.365-16.614,18.066s-17.319,17.347-17.587,17.072,7.169-8.364,16.616-18.069S384.246,433.167,384.512,433.442Z" transform="translate(-350.304 -433.435)" fill="#ff725e"/></g></g><g transform="translate(358.129 261.549)"><g transform="translate(0)"><path d="M384.113,406.532c.268.276-7.172,8.365-16.615,18.067s-17.319,17.346-17.587,17.071,7.17-8.364,16.616-18.07S383.846,406.257,384.113,406.532Z" transform="translate(-349.904 -406.525)" fill="#ff725e"/></g></g><g transform="translate(358.129 226.765)"><g transform="translate(0)"><path d="M384.113,376.543c.268.276-7.172,8.365-16.615,18.068s-17.319,17.346-17.587,17.07,7.17-8.363,16.616-18.067S383.846,376.268,384.113,376.543Z" transform="translate(-349.904 -376.536)" fill="#ff725e"/></g></g><g transform="translate(288.979 292.762)"><g transform="translate(0)"><path d="M324.5,433.442c.268.275-7.172,8.365-16.615,18.066s-17.319,17.347-17.587,17.072,7.17-8.364,16.617-18.069S324.228,433.167,324.5,433.442Z" transform="translate(-290.286 -433.435)" fill="#fff"/></g></g><g transform="translate(288.517 261.549)"><g transform="translate(0)"><path d="M324.1,406.532c.268.276-7.172,8.365-16.615,18.067s-17.319,17.346-17.587,17.071,7.17-8.364,16.616-18.07S323.827,406.257,324.1,406.532Z" transform="translate(-289.887 -406.525)" fill="#fff"/></g></g><g transform="translate(288.513 237.993)"><g transform="translate(0)"><path d="M313.165,386.226c.268.275-4.724,5.85-11.15,12.451s-11.853,11.731-12.121,11.455,4.723-5.849,11.15-12.452S312.9,385.95,313.165,386.226Z" transform="translate(-289.884 -386.216)" fill="#fff"/></g></g><g transform="translate(358.593 193.125)"><g transform="translate(0)"><path d="M384.512,347.54c.269.275-7.172,8.365-16.614,18.066s-17.319,17.347-17.587,17.072,7.169-8.364,16.616-18.069S384.246,347.265,384.512,347.54Z" transform="translate(-350.304 -347.533)" fill="#ff725e"/></g></g><g transform="translate(358.593 130.574)"><g transform="translate(0)"><path d="M384.512,293.611c.269.275-7.172,8.365-16.614,18.066s-17.319,17.347-17.587,17.071,7.169-8.363,16.616-18.069S384.246,293.335,384.512,293.611Z" transform="translate(-350.304 -293.604)" fill="#ff725e"/></g></g><g transform="translate(358.129 161.913)"><g transform="translate(0)"><path d="M384.113,320.63c.268.276-7.172,8.365-16.615,18.067s-17.319,17.346-17.587,17.071,7.17-8.364,16.616-18.069S383.846,320.355,384.113,320.63Z" transform="translate(-349.904 -320.623)" fill="#ff725e"/></g></g><g transform="translate(433.055)"><g transform="translate(0.163 0.6)"><rect width="32.45" height="327.307" fill="#fd963d"/></g><g transform="translate(0.439 294.695)" opacity="0.6"><path d="M447.208,435.109c.253.261-6.777,7.906-15.7,17.073s-16.366,16.391-16.62,16.132,6.776-7.9,15.7-17.075S446.954,434.849,447.208,435.109Z" transform="translate(-414.88 -435.102)" fill="#fff"/></g><g transform="translate(0.002 265.201)" opacity="0.6"><path d="M446.83,409.68c.254.261-6.777,7.906-15.7,17.073s-16.366,16.391-16.62,16.132,6.776-7.9,15.7-17.075S446.577,409.42,446.83,409.68Z" transform="translate(-414.503 -409.673)" fill="#fff"/></g><g transform="translate(0.002 232.332)" opacity="0.6"><path d="M446.83,381.342c.254.26-6.777,7.9-15.7,17.072s-16.366,16.393-16.62,16.132,6.776-7.9,15.7-17.075S446.577,381.081,446.83,381.342Z" transform="translate(-414.503 -381.335)" fill="#fff"/></g><g transform="translate(0.439 200.543)" opacity="0.6"><path d="M447.208,353.935c.253.26-6.777,7.9-15.7,17.072s-16.366,16.391-16.62,16.132,6.776-7.9,15.7-17.075S446.954,353.674,447.208,353.935Z" transform="translate(-414.88 -353.928)" fill="#fff"/></g><g transform="translate(0.002 171.048)" opacity="0.6"><path d="M446.83,328.5c.254.261-6.777,7.906-15.7,17.073s-16.366,16.391-16.62,16.132,6.776-7.9,15.7-17.075S446.577,328.245,446.83,328.5Z" transform="translate(-414.503 -328.498)" fill="#fff"/></g><g transform="translate(0.002 138.179)" opacity="0.6"><path d="M446.83,300.167c.254.26-6.777,7.9-15.7,17.072s-16.366,16.391-16.62,16.132,6.776-7.9,15.7-17.074S446.577,299.906,446.83,300.167Z" transform="translate(-414.503 -300.16)" fill="#fff"/></g><g transform="translate(0.002 99.593)" opacity="0.6"><path d="M446.83,266.9c.254.261-6.777,7.906-15.7,17.073s-16.366,16.391-16.62,16.132,6.775-7.9,15.7-17.075S446.577,266.64,446.83,266.9Z" transform="translate(-414.503 -266.893)" fill="#fff"/></g><g transform="translate(0.439 59.2)" opacity="0.6"><path d="M447.208,232.075c.253.261-6.777,7.906-15.7,17.073s-16.366,16.391-16.62,16.132,6.776-7.9,15.7-17.075S446.954,231.815,447.208,232.075Z" transform="translate(-414.88 -232.068)" fill="#fff"/></g><g transform="translate(0.005 19.526)" opacity="0.6"><path d="M446.832,197.87c.254.26-6.777,7.9-15.7,17.072s-16.367,16.391-16.62,16.132,6.775-7.9,15.7-17.075S446.579,197.609,446.832,197.87Z" transform="translate(-414.505 -197.863)" fill="#fff"/></g><g transform="translate(0)" opacity="0.6"><path d="M433.84,181.04c.254.261-3.868,4.917-9.2,10.4s-9.869,9.717-10.122,9.456,3.867-4.916,9.206-10.4S433.587,180.78,433.84,181.04Z" transform="translate(-414.501 -181.028)" fill="#fff"/></g></g></g><g transform="translate(0 12.256)"><path d="M537.785,181.46s-.494-.331-1.442-1l-1.763-1.247-2.509-1.62a87.047,87.047,0,0,0-17.76-8.589,78.346,78.346,0,0,0-13.83-3.465,64.349,64.349,0,0,0-16.916-.384c-12.1,1.3-25.4,7.017-36.986,17.085a111.336,111.336,0,0,0-16.317,17.633c-4.931,6.769-9.844,13.99-14.926,21.454-10.128,14.961-20.537,31.224-31.346,48.425s-22.015,35.352-34.012,53.93c-6.017,9.277-12.2,18.68-18.658,28.1-3.238,4.7-6.3,9.56-9.443,14.423s-6.318,9.751-9.6,14.609A292.536,292.536,0,0,1,291.41,408.61a101.1,101.1,0,0,1-12.084,12,41.081,41.081,0,0,1-6.988,4.738,18.287,18.287,0,0,1-8.045,2.373,21.768,21.768,0,0,1-8-2.315,81.934,81.934,0,0,1-7.257-3.83c-4.7-2.744-9.175-5.739-13.544-8.779-8.723-6.106-16.986-12.459-24.935-18.795q-5.959-4.753-11.667-9.512-5.688-4.776-11.312-9.3c-7.508-6.018-14.885-11.757-22.23-17.006-7.281-5.316-14.907-9.733-22.977-12a52.253,52.253,0,0,0-23.782-.847,65.647,65.647,0,0,0-20.2,8.062,98.122,98.122,0,0,0-15.571,11.7c-8.993,8.254-16.585,15.529-22.744,21.519S49.2,397.337,46.008,400.543L42.383,404.2c-.817.824-1.245,1.236-1.245,1.236s.4-.442,1.2-1.279l3.583-3.7c3.165-3.234,7.862-7.975,13.993-14s13.706-13.319,22.68-21.6a98.247,98.247,0,0,1,15.6-11.787,65.949,65.949,0,0,1,20.308-8.151,52.7,52.7,0,0,1,23.992.815c8.14,2.276,15.85,6.733,23.143,12.045,7.364,5.251,14.751,10.985,22.272,17q5.639,4.511,11.329,9.293,5.708,4.743,11.666,9.495c7.945,6.324,16.206,12.666,24.918,18.756,4.362,3.032,8.83,6.019,13.508,8.747a81.455,81.455,0,0,0,7.206,3.8,21.321,21.321,0,0,0,7.753,2.259,17.727,17.727,0,0,0,7.769-2.308,40.457,40.457,0,0,0,6.887-4.674,100.4,100.4,0,0,0,12.007-11.936,292.461,292.461,0,0,0,20.815-27.736c3.282-4.853,6.46-9.735,9.6-14.6s6.208-9.731,9.454-14.436c6.455-9.414,12.638-18.811,18.657-28.082,12-18.566,23.221-36.7,34.037-53.9s21.253-33.454,31.4-48.41c5.1-7.465,10.011-14.67,14.968-21.453A111.64,111.64,0,0,1,446.3,181.917c11.655-10.1,25.048-15.825,37.226-17.1a64.5,64.5,0,0,1,17,.435,78.1,78.1,0,0,1,13.864,3.527,85.654,85.654,0,0,1,17.748,8.708l2.494,1.647,1.748,1.272C537.315,181.1,537.785,181.46,537.785,181.46Z" transform="translate(-41.139 -164.452)" fill="#fc8116"/></g><g transform="translate(75.237 182.13)"><g transform="translate(5.353 5.471)"><path d="M124.119,322.544a6.751,6.751,0,1,1-6.749-6.916A6.834,6.834,0,0,1,124.119,322.544Z" transform="translate(-110.62 -315.628)" fill="#fc8116"/></g><path d="M118.107,335.686a12.391,12.391,0,1,1,12.1-12.387A12.261,12.261,0,0,1,118.107,335.686Zm0-23.615A11.231,11.231,0,1,0,129.049,323.3,11.1,11.1,0,0,0,118.107,312.071Z" transform="translate(-106.005 -310.911)" fill="#fc8116"/></g><g transform="translate(438.041)"><g transform="translate(5.353 5.47)"><path d="M436.914,165.518a6.751,6.751,0,1,1-6.749-6.916A6.834,6.834,0,0,1,436.914,165.518Z" transform="translate(-423.415 -158.602)" fill="#fc8116"/></g><g transform="translate(0)"><path d="M430.9,178.66a12.39,12.39,0,1,1,12.1-12.387A12.261,12.261,0,0,1,430.9,178.66Zm0-23.614a11.231,11.231,0,1,0,10.944,11.227A11.1,11.1,0,0,0,430.9,155.046Z" transform="translate(-418.8 -153.886)" fill="#fc8116"/></g></g></g><g transform="translate(14.233 63.538)"><g transform="translate(0 169.872)"><g transform="translate(0.226 0.274)"><path d="M45.279,231.73V292h74.379l13.666,19.153V292h16.167V231.73Z" transform="translate(-45.279 -231.73)" fill="#fafafa"/></g><path d="M45.31,231.769s.155-.012.477-.016l1.442-.016,5.638-.033,21.345-.074,75.31-.136h.274v.275c.008,18.46.017,38.824.027,60.265v.3H133.356l.3-.3q0,9.717,0,19.153v.937l-.544-.763q-7-9.814-13.66-19.158l.238.123-74.378-.067h-.226v-.225c.05-18.6.092-33.682.121-44.137.024-5.187.043-9.222.056-11.982q.016-2.029.024-3.105c.008-.7.024-1.042.024-1.042s.015.376.023,1.088.014,1.776.025,3.147c.013,2.77.031,6.822.056,12.031.029,10.423.07,25.459.121,44l-.225-.225,74.378-.068h.151l.088.123,13.672,19.15-.544.174q0-9.423,0-19.153v-.3h16.469l-.3.3c.01-21.442.019-41.806.027-60.265l.275.274-75.131-.136-21.407-.073-5.693-.034-1.472-.016C45.488,231.779,45.31,231.769,45.31,231.769Z" transform="translate(-45.084 -231.494)" fill="#263238"/><g transform="translate(19.528 24.035)"><path d="M127.529,252.519c0,.167-14.689.3-32.8.3s-32.806-.135-32.806-.3,14.685-.3,32.806-.3S127.529,252.352,127.529,252.519Z" transform="translate(-61.92 -252.216)" fill="#263238"/></g><g transform="translate(19.528 37.32)"><path d="M127.529,263.973c0,.167-14.689.3-32.8.3s-32.806-.135-32.806-.3,14.685-.3,32.806-.3S127.529,263.806,127.529,263.973Z" transform="translate(-61.92 -263.67)" fill="#263238"/></g></g><g transform="translate(397.431)"><g transform="translate(0)"><g transform="translate(0.301 0.275)"><path d="M483.665,85.275H387.991v54.293H403.81l-1.186.215,13.553,17.272-.887-17.487h68.375Z" transform="translate(-387.991 -85.275)" fill="#fafafa"/></g><path d="M483.706,85.313s.015.31.023.938q.009.976.024,2.8c.013,2.493.033,6.13.057,10.8.028,9.429.069,23.019.12,39.75v.223h-.225l-68.375.067.291-.306c.283,5.549.586,11.463.894,17.486l.048.939-.581-.74-13.556-17.269-.31-.394.494-.089,1.185-.216.053.6H387.732v-.3c.009-19.329.019-37.653.027-54.293v-.275h.275l69.146.137,19.594.073,5.174.032,1.321.016c.3.006.437.016.437.016s-.164.01-.469.016l-1.352.015-5.229.034L457,85.451l-68.968.136.274-.274c.008,16.64.017,34.963.027,54.293l-.3-.3h15.817l.055.6-1.186.215.184-.484,13.55,17.274-.534.2c-.3-6.023-.6-11.939-.88-17.488l-.015-.306h.307l68.375.068-.224.224c.05-16.674.092-30.217.119-39.613.024-4.7.043-8.35.057-10.854q.015-1.851.024-2.841C483.691,85.654,483.706,85.313,483.706,85.313Z" transform="translate(-387.732 -85.038)" fill="#263238"/></g><g transform="translate(18.31 21.948)"><path d="M403.518,104.263c0-.167,13.355-.3,29.826-.3s29.829.135,29.829.3-13.353.3-29.829.3S403.518,104.43,403.518,104.263Z" transform="translate(-403.518 -103.961)" fill="#263238"/></g><g transform="translate(18.31 33.582)"><path d="M403.518,114.294c0-.167,13.355-.3,29.826-.3s29.829.136,29.829.3-13.353.3-29.829.3S403.518,114.461,403.518,114.294Z" transform="translate(-403.518 -113.991)" fill="#263238"/></g></g><g transform="translate(58.659 2.925)"><g transform="translate(0.003 0.207)"><path d="M191.084,166.091a51.777,51.777,0,1,0-12.324,13.725l23.208,5.465h0Z" transform="translate(-95.66 -87.738)" fill="#fff"/></g><g transform="translate(0)"><path d="M179.11,179.717l-.469-.061a51.125,51.125,0,0,1-24.484,10.164,45.8,45.8,0,0,1-8.048.375c-1.384-.083-2.793-.122-4.213-.246l-4.288-.663a51.268,51.268,0,0,1-31.651-20.424,50.585,50.585,0,0,1-8.533-19.583,51.687,51.687,0,0,1,.617-22.527A49.982,49.982,0,0,1,108.9,105.934,50.9,50.9,0,0,1,128.4,92a51.739,51.739,0,0,1,22.7-3.507,50.043,50.043,0,0,1,20.854,6.129A51.579,51.579,0,0,1,196.1,124.2a55.145,55.145,0,0,1,2.271,16.519,51.02,51.02,0,0,1-7.458,25.3l-.061.1.058.1,11.063,19.093c-.68-1.225-3.92-7.058-10.658-19.188a51.139,51.139,0,0,0,7.632-25.391,55.534,55.534,0,0,0-2.226-16.727,52.17,52.17,0,0,0-24.4-30.05,50.742,50.742,0,0,0-21.164-6.26,52.49,52.49,0,0,0-23.062,3.541,51.678,51.678,0,0,0-19.825,14.152,50.765,50.765,0,0,0-11.027,21.16,52.449,52.449,0,0,0-.6,22.887,51.283,51.283,0,0,0,8.7,19.872,51.881,51.881,0,0,0,32.148,20.623l4.346.655c1.438.119,2.864.153,4.265.232a46.329,46.329,0,0,0,8.141-.416,51.3,51.3,0,0,0,24.555-10.337c14.618,3.308,21.754,4.923,23.184,5.247Z" transform="translate(-95.657 -87.56)" fill="#263238"/><g transform="translate(47.563 30.444)"><path d="M136.67,117.024l1.467,23.18a3.762,3.762,0,0,0,3.53,3.518h0a3.761,3.761,0,0,0,3.962-3.342l2.574-23.3a2.952,2.952,0,0,0-2.975-3.275l-5.654.079A2.95,2.95,0,0,0,136.67,117.024Z" transform="translate(-136.664 -113.808)" fill="#ff725e"/></g><g transform="translate(47.682 65.956)"><path d="M147.8,151.866a5.658,5.658,0,1,1-3.587-7.152A5.657,5.657,0,0,1,147.8,151.866Z" transform="translate(-136.766 -144.424)" fill="#ff725e"/></g></g></g></g><g transform="translate(120.089 76.245)"><g transform="translate(79.999 259.981)"><path d="M324.7,320.138l4.589,12.993s21.234,19.493,24.366,45.6,3.133,31.8,3.133,31.8l-6.575,76.157H208.656s-4.688-61.559-2.948-78.967,11.846-37.1,11.846-37.1l10.79-26.111.32-13.145Z" transform="translate(-205.32 -320.138)" fill="#263238"/><g transform="translate(24.863 14.317)"><path d="M325.611,332.488a6.394,6.394,0,0,1-.992.217l-2.863.5-10.548,1.732c-8.913,1.427-21.239,3.319-34.878,5.229s-26.025,3.429-35.01,4.324c-4.491.46-8.132.764-10.65.944l-2.9.181a6.293,6.293,0,0,1-1.014.022,6.31,6.31,0,0,1,1-.143l2.892-.295c2.51-.252,6.142-.619,10.623-1.134,8.967-1,21.331-2.6,34.973-4.5s25.967-3.735,34.9-5.052l10.577-1.542,2.88-.393A6.271,6.271,0,0,1,325.611,332.488Z" transform="translate(-226.756 -332.482)" fill="#455a64"/></g><g transform="translate(23.158 60.403)"><path d="M245.519,372.215a6.035,6.035,0,0,1-.52,1.274c-.365.8-.937,1.948-1.682,3.34a96.6,96.6,0,0,1-14.364,20.014c-1.081,1.152-1.981,2.06-2.626,2.664a6.081,6.081,0,0,1-1.039.9,5.916,5.916,0,0,1,.87-1.062l2.479-2.787c2.075-2.365,4.847-5.716,7.648-9.613s5.083-7.6,6.659-10.323l1.847-3.24A6.079,6.079,0,0,1,245.519,372.215Z" transform="translate(-225.286 -372.214)" fill="#455a64"/></g></g><g transform="translate(252.757 30.593)"><g transform="translate(14.817 84.974)"><path d="M389.692,202.02s2.9,48.789,3.775,54.308-3.775,12.487-3.775,12.487-10.745,1.162-18.006-12.2l-4.646-10.455a66.576,66.576,0,0,0,2.613-27.589c-1.742-15.683-2.613-22.944-2.613-22.944Z" transform="translate(-367.04 -195.63)" fill="#ffbe9d"/></g><g transform="translate(0 0)"><g transform="translate(0 1.075)"><path d="M378.7,145.584c1.274,11.776,1.11,21.958-4.692,24.036-.487.174-4.381.327-4.9.383-6.677.723-13.21-9.039-14.591-21.8s2.912-23.7,9.59-24.42a44.172,44.172,0,0,1,4.805-.469C374.906,124.379,377.452,134.017,378.7,145.584Z" transform="translate(-354.265 -123.297)" fill="#455a64"/></g><g transform="translate(13.302 47.111)"><path d="M395.419,181.392s4.9,1.625,4.01,6.353a108.921,108.921,0,0,1-4.01,13.1l-6.08,6.744-22.09-6.744a13.609,13.609,0,0,1-1.506-6.6c.147-3.694-.009-12.854-.009-12.854a21.89,21.89,0,0,0,4-8.422c.74-3.821,1.274-8.258,1.43-9.625a.4.4,0,0,1,.485-.349,5.7,5.7,0,0,1,4.29,3.916c1.182,3.694.886,4.729.886,4.729Z" transform="translate(-365.734 -162.987)" fill="#ffbe9d"/></g><g transform="translate(18.961 44.737)"><path d="M377.084,165.984l-3.159-5.045-3.312,2.556,6.143,12.143,1.676-5.09Z" transform="translate(-370.613 -160.94)" fill="#455a64"/></g><g transform="translate(19.396 46.376)"><path d="M377.024,165.758s3.454-5.221,6.662-2.734,2.468,3.968,0,8.533c0,0,6.292-.864,4.812,5.8,0,0,6.239-1.226,6.08,4.137,0,0,5.148,4.253,2.926,7.46s-10.735,9.378-13.079,8.636-2.632-3.948-2.632-3.948-2.8-.987-3.661-2.344.247-3.454.247-3.454-2.467-2.131-3.084-2.73,0-3.686,0-3.686l3.331-3.824s-4.812,2.591-5.922,1.85-2.344-1.357-1.357-2.961a50.9,50.9,0,0,1,4.664-5.316Z" transform="translate(-370.988 -162.353)" fill="#ffbe9d"/></g><g transform="translate(30.736 65.515)"><g transform="translate(0)"><path d="M380.769,191.332a17.29,17.29,0,0,1,1.468-2.125,19.188,19.188,0,0,1,4.259-4.614,44.731,44.731,0,0,0,4.905-3.771,24.646,24.646,0,0,0,1.615-1.967,4.633,4.633,0,0,1-1.3,2.261,30.787,30.787,0,0,1-4.852,3.959,23.311,23.311,0,0,0-4.286,4.394A8.164,8.164,0,0,1,380.769,191.332Z" transform="translate(-380.764 -178.854)" fill="#eb996e"/></g></g><g transform="translate(26.775 61.372)"><path d="M377.355,186.72c-.128-.108,1.982-2.809,4.713-6.034,1.372-1.59,2.535-3.121,3.567-4.085a4.685,4.685,0,0,1,1.848-1.312c.05.078-.638.579-1.54,1.609-.922,1.007-2.025,2.57-3.414,4.179C379.8,184.3,377.482,186.827,377.355,186.72Z" transform="translate(-377.349 -175.282)" fill="#eb996e"/></g><g transform="translate(27.028 55.305)"><path d="M377.576,176.372c-.131-.14,1.206-1.4,2.67-3.049a37.909,37.909,0,0,0,2.3-3.271c.175.023-.283,1.943-1.847,3.666A10.176,10.176,0,0,1,377.576,176.372Z" transform="translate(-377.567 -170.051)" fill="#eb996e"/></g><g transform="translate(18.165 67.939)"><path d="M369.927,180.956a4.336,4.336,0,0,1,2.056.843,11.742,11.742,0,0,1,3.673,3.911,22.364,22.364,0,0,1,2.095,4.914,7.548,7.548,0,0,1,.5,2.15,8.616,8.616,0,0,1-.9-2.009,32.136,32.136,0,0,0-2.21-4.745,13.453,13.453,0,0,0-3.4-3.869C370.677,181.355,369.89,181.049,369.927,180.956Z" transform="translate(-369.926 -180.943)" fill="#eb996e"/></g><g transform="translate(3.933)"><ellipse cx="10.377" cy="23.246" rx="10.377" ry="23.246" transform="matrix(0.994, -0.108, 0.108, 0.994, 0, 2.233)" fill="#263238"/></g><g transform="translate(6.157 1.701)"><path d="M370.573,169.173c5.338-2.678,8.523-12.494,7.306-23.736-1.21-11.181-6.372-20.057-12.123-21.6-4.526,2.584-7.1,12.338-5.882,23.584C361.084,158.6,365.634,167.536,370.573,169.173Z" transform="translate(-359.573 -123.836)" fill="#e0e0e0"/></g><g transform="translate(16.032 15.937)"><g transform="translate(0)"><path d="M369.458,158.019c-.166.009-.593-4.888-.953-10.935s-.517-10.963-.35-10.974.593,4.887.953,10.938S369.625,158.009,369.458,158.019Z" transform="translate(-368.087 -136.11)" fill="#fff"/></g></g><g transform="translate(13.968 9.429)"><g transform="translate(0)"><path d="M367.75,151.539a14.223,14.223,0,0,1-.592-3.042c-.27-1.893-.55-4.522-.71-7.437s-.166-5.56-.1-7.472a14.227,14.227,0,0,1,.256-3.089,17.635,17.635,0,0,1,.17,3.09c.047,1.906.123,4.535.281,7.437s.371,5.525.531,7.423A17.7,17.7,0,0,1,367.75,151.539Z" transform="translate(-366.308 -130.499)" fill="#fff"/></g></g><g transform="translate(19.199 46.231)"><path d="M377.051,165.761a1.626,1.626,0,0,1-.034.368l-.162,1.052c-.166.969-.394,2.313-.686,4.023l-.007.038-.029.03c-.676.7-1.434,1.509-2.249,2.417a21.7,21.7,0,0,0-2.454,3.107,1.519,1.519,0,0,0-.2.938,1.458,1.458,0,0,0,.559.812,9.829,9.829,0,0,0,.951.661,1.355,1.355,0,0,0,1.024.115,19.428,19.428,0,0,0,4.772-1.931l1.127-.582-.827.957-3.318,3.837.049-.082a4.632,4.632,0,0,0,.123,3.691,10.281,10.281,0,0,0,3.106,2.674l.261.165-.177.251c-.712,1-1.147,2.519-.038,3.343a13.5,13.5,0,0,0,3.622,2.055l-.4.27v-.086c.082.081-.187-.195.194.242.783-.453.223-.179.4-.256h0v0l.006.138.028.3a5.705,5.705,0,0,0,.1.59,4.7,4.7,0,0,0,.411,1.118,3.036,3.036,0,0,0,.723.907,1.8,1.8,0,0,0,.982.459,5.718,5.718,0,0,0,2.349-.672,21.347,21.347,0,0,0,2.284-1.267,39.229,39.229,0,0,0,4.007-2.909,24.659,24.659,0,0,0,3.438-3.342,3,3,0,0,0,.8-1.981,4.638,4.638,0,0,0-.567-2.095,12.158,12.158,0,0,0-2.79-3.4l-.1-.086,0-.14a4.547,4.547,0,0,0-.389-2.058,3.085,3.085,0,0,0-1.4-1.4,6.821,6.821,0,0,0-3.96-.418l-.361.053.057-.365c.061-.4.142-.8.19-1.2a6.661,6.661,0,0,0-.007-1.169,3.239,3.239,0,0,0-.825-2,4.755,4.755,0,0,0-3.887-1.155l-.422.036.2-.363a35.266,35.266,0,0,0,1.757-3.49,4.942,4.942,0,0,0,.379-1.688,2.713,2.713,0,0,0-.454-1.5,6.852,6.852,0,0,0-2.169-1.992,2.928,2.928,0,0,0-2.384-.043,7.93,7.93,0,0,0-2.785,2.088c-.276.3-.469.539-.6.7a1.425,1.425,0,0,1-.209.238,1.026,1.026,0,0,1,.157-.276,8.864,8.864,0,0,1,.559-.744,9.544,9.544,0,0,1,1.049-1.095,6.02,6.02,0,0,1,1.742-1.139,3.187,3.187,0,0,1,2.605,0l.643.392.59.478a6.214,6.214,0,0,1,1.1,1.2,3.059,3.059,0,0,1,.535,1.695,5.253,5.253,0,0,1-.382,1.833,34.822,34.822,0,0,1-1.74,3.56l-.226-.326a6.624,6.624,0,0,1,2.229.129,4.077,4.077,0,0,1,2.073,1.137,3.723,3.723,0,0,1,.971,2.277,7.125,7.125,0,0,1,.016,1.268c-.048.42-.128.84-.193,1.265l-.305-.312a7.314,7.314,0,0,1,4.306.441,3.647,3.647,0,0,1,1.653,1.639,5.1,5.1,0,0,1,.456,2.321l-.1-.226a12.634,12.634,0,0,1,2.946,3.572,5.2,5.2,0,0,1,.639,2.368,3.753,3.753,0,0,1-.247,1.264,5.427,5.427,0,0,1-.675,1.079A25.122,25.122,0,0,1,393.929,193a39.323,39.323,0,0,1-4.07,2.957,21.654,21.654,0,0,1-2.349,1.3,6.157,6.157,0,0,1-2.642.725,2.991,2.991,0,0,1-2.194-1.685,5.265,5.265,0,0,1-.463-1.264,6.248,6.248,0,0,1-.115-.653l-.03-.332-.007-.175v-.045c.173-.08-.387.194.4-.261.382.435.112.16.2.244v.024l0,.058v.086l0,.444-.4-.173a13.876,13.876,0,0,1-3.8-2.179,2.812,2.812,0,0,1-.7-.933,2.333,2.333,0,0,1-.147-1.162,4.477,4.477,0,0,1,.823-2.015l.082.414a10.7,10.7,0,0,1-3.283-2.874,3.853,3.853,0,0,1-.515-2.116,6.84,6.84,0,0,1,.364-2.044l.015-.043.034-.039,3.345-3.813.3.376a19.566,19.566,0,0,1-4.934,1.937,1.786,1.786,0,0,1-1.329-.194,9.859,9.859,0,0,1-.985-.7,1.853,1.853,0,0,1-.685-1.057,1.9,1.9,0,0,1,.249-1.188,21.12,21.12,0,0,1,2.555-3.15c.836-.9,1.61-1.69,2.3-2.381l-.036.068q.52-2.564.814-4.019l.227-1.033A1.336,1.336,0,0,1,377.051,165.761Z" transform="translate(-370.818 -162.228)" fill="#eb996e"/></g></g></g><g transform="translate(18.029 241.437)"><path d="M219.616,358.538l-43.8-54.388s-23.3,19.614-23.912,20.23S188.338,361.041,212.134,375l7.482-4.953Z" transform="translate(-151.892 -304.15)" fill="#ffbe9d"/><g transform="translate(59.021 35.437)"><path d="M248.273,336.2s-13.83-2.183-15.1-1.273-10.737,7.279-10.737,7.279a51.792,51.792,0,0,1-4.185,5.642s-3.095,3.64-5.46,4a10.59,10.59,0,0,1-3.822,0l-6.188,17.107s4.732,4.913,7.644,4.549,18.379-8.917,18.379-8.917l3.822-1.274s14.923.545,15.65-4v-1.274l-14.74-1.275-5.46.91,9.462-3.558s13.83-.81,15.105-1.173,2.729-2.366,2.183-3.458l-2.911-.364s3.141-2.172,3.03-4.174l-13.092-2.077S249.729,338.927,248.273,336.2Z" transform="translate(-202.778 -334.702)" fill="#ffbe9d"/><g transform="translate(21.807 11.432)"><path d="M250.411,347.333a5.345,5.345,0,0,1-1.2-.167c-.762-.138-1.871-.318-3.243-.521-2.744-.407-6.55-.886-10.76-1.357a13.51,13.51,0,0,0-1.524-.129,4.616,4.616,0,0,0-1.4.252c-.888.35-1.786.77-2.61,1.148-1.66.774-3.127,1.526-4.33,2.206a32.423,32.423,0,0,0-2.77,1.74,6.654,6.654,0,0,1-.992.688,3.594,3.594,0,0,1,.847-.873,22.023,22.023,0,0,1,2.7-1.922c1.189-.735,2.649-1.533,4.308-2.341.841-.4,1.685-.814,2.655-1.205a5.165,5.165,0,0,1,1.584-.293,13.235,13.235,0,0,1,1.605.13c4.218.471,8.026,1.02,10.764,1.536,1.37.258,2.472.5,3.224.712A4.165,4.165,0,0,1,250.411,347.333Z" transform="translate(-221.579 -344.558)" fill="#eb996e"/></g><g transform="translate(21.565 7.209)"><path d="M239.262,342.46c-.039.1-1.067-.358-2.816-.7A15.343,15.343,0,0,0,223.5,345.12c-1.364,1.144-2.043,2.039-2.124,1.975a7.354,7.354,0,0,1,1.841-2.3,14.354,14.354,0,0,1,13.325-3.454A7.351,7.351,0,0,1,239.262,342.46Z" transform="translate(-221.37 -340.917)" fill="#eb996e"/></g></g></g><g transform="translate(0 105.868)"><g transform="translate(195.57 18.694)"><path d="M403.489,256.975s2.665,4.8,2.665,9.337-2.653,12.472-2.653,12.472l-3.3,3.118s2.166,9.92-10.4,12.755-82.884-37.589-82.884-37.589l-1.96-53.683s10.2,4.252,17.575,11.622,49.32,38.266,49.32,38.266,1.7-10.945,3.594-10.222S403.489,256.975,403.489,256.975Z" transform="translate(-304.961 -203.385)" fill="#e0e0e0"/></g><g transform="translate(65.78)"><path d="M322.852,205.962l-38.057-8.095-9.906-10.181-43.765-.418-5.271,9.579-32.792,19.942s8.258,54.622,11.271,60.983,26.892,76.6,26.892,76.6l95.406-11.382.817-44.083,2.758-21.33a63.235,63.235,0,0,0,.273-13.759C328.692,243.87,322.852,205.962,322.852,205.962Z" transform="translate(-193.061 -187.268)" fill="#e0e0e0"/></g><g transform="translate(0 29.503)"><path d="M190.831,331.876l-31.27,21.445-10.928-15.575,2.921-2.6s-16.135-13.337-15.162-22.748,17.986-33.609,17.986-33.609,36.454-59.674,47.751-66.071c1.581-.9,15.294,32.224,15.294,45.2s-2.6,12.978-2.6,12.978-11.033,10.708-16.224,20.443-14.008,20.334-19.848,24.228Z" transform="translate(-136.348 -212.705)" fill="#e0e0e0"/></g><g transform="translate(24.918 124.641)"><path d="M157.832,294.82a2.287,2.287,0,0,1,.843-.085,15.326,15.326,0,0,1,2.3.127,22.59,22.59,0,0,1,7.263,2.2,24.1,24.1,0,0,1,6.166,4.426,10.569,10.569,0,0,1,2,2.425c-.145.166-3.158-3.709-8.43-6.31a26.179,26.179,0,0,0-7.057-2.321C159.027,294.958,157.831,294.923,157.832,294.82Z" transform="translate(-157.832 -294.728)" fill="#263238"/></g><g transform="translate(34.451 114.167)"><g transform="translate(0)"><path d="M166.055,285.7a9.391,9.391,0,0,1,2.327,1.978,21.581,21.581,0,0,1,4.031,6.176,22.032,22.032,0,0,1,1.75,7.166,9.557,9.557,0,0,1-.126,3.05c-.1,0-.078-1.166-.3-3.01a25.7,25.7,0,0,0-1.879-6.966,25.087,25.087,0,0,0-3.8-6.132C166.862,286.545,165.987,285.779,166.055,285.7Z" transform="translate(-166.051 -285.698)" fill="#263238"/></g></g><g transform="translate(140.103 80.213)"><g transform="translate(0)"><path d="M271.48,256.424a8.032,8.032,0,0,1,.283,1.581,15.437,15.437,0,0,1,.183,1.874c.035.733.117,1.57.077,2.5a29.075,29.075,0,0,1-.141,3.026c-.063,1.089-.263,2.237-.448,3.449A39.874,39.874,0,0,1,265.6,283.6c-.695,1.011-1.333,1.987-2.033,2.824a29.18,29.18,0,0,1-1.965,2.3c-.6.7-1.235,1.257-1.763,1.77a15.708,15.708,0,0,1-1.415,1.242,8.177,8.177,0,0,1-1.286.959c-.083-.1,1.722-1.507,4.147-4.257.6-.69,1.256-1.451,1.886-2.326.674-.84,1.289-1.813,1.961-2.817a41.788,41.788,0,0,0,5.75-14.547c.2-1.193.414-2.323.5-3.4.138-1.068.181-2.07.213-2.986C271.707,258.7,271.353,256.438,271.48,256.424Z" transform="translate(-257.14 -256.424)" fill="#263238"/></g></g><g transform="translate(98.567 9.579)"><path d="M274.844,245.374a5.577,5.577,0,0,1-.742-.557c-.478-.375-1.153-.964-2.074-1.661-1.806-1.437-4.5-3.418-7.917-5.776s-7.555-5.079-12.139-8.17a147.286,147.286,0,0,1-14.489-10.8l.445-.052c-.486.695-.982,1.458-1.451,2.244a33.178,33.178,0,0,0-3.993,10.582l-.174.919-.382-.851a147.63,147.63,0,0,1-8.568-25.295c-.779-3.236-1.3-5.842-1.615-7.64-.167-.9-.261-1.6-.333-2.067a3.791,3.791,0,0,1-.078-.721,3.782,3.782,0,0,1,.18.7c.109.516.251,1.195.429,2.047.372,1.783.953,4.372,1.782,7.588a157.435,157.435,0,0,0,8.736,25.142l-.556.067a33.471,33.471,0,0,1,4.051-10.779c.477-.8.982-1.579,1.479-2.286l.191-.274.255.223a153,153,0,0,0,14.4,10.8c4.561,3.114,8.684,5.87,12.07,8.282s6.057,4.445,7.823,5.941c.9.726,1.553,1.344,2.008,1.748A5.592,5.592,0,0,1,274.844,245.374Z" transform="translate(-221.329 -195.527)" fill="#263238"/></g><g transform="translate(152.08 10.599)"><g transform="translate(0)"><path d="M272.9,196.406a2.3,2.3,0,0,1,.318.479c.191.325.478.8.821,1.436.7,1.26,1.676,3.117,2.812,5.479a93.27,93.27,0,0,1,7.071,19.7l.179.8-.65-.506a42.8,42.8,0,0,1-8.464-8.761l.542-.159c-.376,6.7-.72,12.82-1,17.843l0,.056-.025.046-5.064,9.084-1.424,2.48a5.448,5.448,0,0,1-.54.847,5.49,5.49,0,0,1,.417-.914l1.311-2.541,4.882-9.184-.028.1c.247-5.025.549-11.148.879-17.851l.042-.848.5.689a43.072,43.072,0,0,0,8.342,8.645l-.471.295a99.684,99.684,0,0,0-6.84-19.663c-1.084-2.378-2-4.257-2.647-5.544l-.732-1.482A2.356,2.356,0,0,1,272.9,196.406Z" transform="translate(-267.465 -196.406)" fill="#263238"/></g></g><g transform="translate(199.791 37.637)"><g transform="translate(0)"><path d="M312.526,260.858c-.166.015-1.174-9.182-2.252-20.54s-1.816-20.584-1.651-20.6,1.174,9.18,2.253,20.543S312.692,260.842,312.526,260.858Z" transform="translate(-308.6 -219.717)" fill="#263238"/></g></g><g transform="translate(262.354 67.9)"><g transform="translate(0)"><path d="M371.578,262.341a9.727,9.727,0,0,1-2.031-1.939,30.825,30.825,0,0,1-6.459-11.834,9.748,9.748,0,0,1-.531-2.758c.189-.053,1.105,4.153,3.636,8.744C368.683,259.164,371.727,262.211,371.578,262.341Z" transform="translate(-362.539 -245.809)" fill="#263238"/></g></g><g transform="translate(261.533 64.851)"><g transform="translate(0)"><path d="M365.993,264.088c-.035.024-.235-.21-.571-.656a14.56,14.56,0,0,1-1.247-2.014,20.967,20.967,0,0,1-1.582-15.251,14.43,14.43,0,0,1,.807-2.226c.237-.507.385-.777.423-.761.1.041-.375,1.178-.816,3.092a23.253,23.253,0,0,0,1.552,14.957C365.384,263.012,366.081,264.028,365.993,264.088Z" transform="translate(-361.831 -243.179)" fill="#263238"/></g></g><g transform="translate(64.358 63.008)"><path d="M191.841,241.591a5.555,5.555,0,0,1,.626,1.165L194,246l5.1,10.7c2,4.18,3.751,7.992,4.942,10.787.6,1.4,1.062,2.534,1.362,3.331a5.61,5.61,0,0,1,.411,1.257,5.522,5.522,0,0,1-.627-1.165c-.418-.884-.929-1.97-1.535-3.249l-5.1-10.7c-2-4.179-3.751-7.99-4.942-10.786-.6-1.4-1.062-2.534-1.362-3.331A5.616,5.616,0,0,1,191.841,241.591Z" transform="translate(-191.835 -241.591)" fill="#263238"/></g><g transform="translate(162.173 126.643)"><g transform="translate(0)"><path d="M290.743,296.454a6.7,6.7,0,0,1-.341,1.41c-.254.9-.659,2.183-1.188,3.764-1.057,3.161-2.657,7.484-4.673,12.156s-4.072,8.8-5.65,11.736c-.788,1.468-1.448,2.645-1.927,3.445a6.769,6.769,0,0,1-.793,1.214,6.624,6.624,0,0,1,.586-1.327l1.755-3.528c1.477-2.98,3.46-7.123,5.475-11.78s3.668-8.94,4.825-12.058c.544-1.47,1-2.707,1.366-3.7A6.633,6.633,0,0,1,290.743,296.454Z" transform="translate(-276.167 -296.454)" fill="#263238"/></g></g><g transform="translate(166.962 146.082)"><g transform="translate(0)"><path d="M289.407,313.215a8.018,8.018,0,0,1-.926,2.147,44.288,44.288,0,0,1-6.472,9.2,8.032,8.032,0,0,1-1.707,1.6c-.132-.123,2.24-2.764,4.743-6.338C287.563,316.258,289.247,313.133,289.407,313.215Z" transform="translate(-280.296 -313.214)" fill="#263238"/></g></g><g transform="translate(151.892 59.251)"><path d="M284.7,325.184a5.13,5.13,0,0,1-.131-.9c-.065-.646-.151-1.5-.259-2.577-.2-2.239-.524-5.475-.944-9.47-.877-7.986-2.234-19.013-4.563-31.048a290.27,290.27,0,0,0-7.51-30.46c-.572-1.927-1.133-3.654-1.631-5.171s-.915-2.826-1.287-3.886c-.342-1.023-.615-1.84-.821-2.455a5.051,5.051,0,0,1-.247-.87,5.037,5.037,0,0,1,.362.828l.928,2.418c.406,1.05.871,2.345,1.386,3.858s1.119,3.229,1.718,5.15a259.821,259.821,0,0,1,7.7,30.473c2.332,12.059,3.626,23.114,4.395,31.118.365,4.005.626,7.249.754,9.5q.09,1.615.145,2.585A5.17,5.17,0,0,1,284.7,325.184Z" transform="translate(-267.304 -238.352)" fill="#263238"/></g><g transform="translate(170.482 142.962)"><g transform="translate(0)"><path d="M284.1,321.311c-.178-.065.982-2.4.739-5.47-.189-3.079-1.666-5.225-1.5-5.315.057-.042.509.429,1,1.353a10.11,10.11,0,0,1,.56,7.953C284.547,320.816,284.166,321.345,284.1,321.311Z" transform="translate(-283.331 -310.524)" fill="#263238"/></g></g><g transform="translate(169.235 156.054)"><g transform="translate(0)"><path d="M282.475,325.1c-.166-.009-.258-.755-.2-1.664s.232-1.639.4-1.628.257.755.2,1.664S282.642,325.114,282.475,325.1Z" transform="translate(-282.256 -321.811)" fill="#263238"/></g></g><g transform="translate(12.282 136.9)"><path d="M179.263,305.307a6.835,6.835,0,0,1-1.387.473c-.9.256-2.2.668-3.779,1.225-1.589.535-3.437,1.3-5.469,2.176-2.017.916-4.2,2-6.435,3.242a95.669,95.669,0,0,0-10.935,7.205c-1.336,1.016-2.406,1.856-3.136,2.447a6.844,6.844,0,0,1-1.182.866,6.858,6.858,0,0,1,1.029-1.044c.686-.648,1.717-1.543,3.025-2.606a78.751,78.751,0,0,1,10.9-7.4c2.251-1.253,4.461-2.328,6.507-3.223,2.061-.858,3.939-1.584,5.557-2.071,1.609-.509,2.931-.86,3.855-1.049A6.852,6.852,0,0,1,179.263,305.307Z" transform="translate(-146.938 -305.298)" fill="#263238"/></g><g transform="translate(16.954 136.757)"><path d="M177.4,305.361c0,.106-1.588.056-4.121.28a42.988,42.988,0,0,0-9.686,2.04,52.461,52.461,0,0,0-9.04,4.08c-2.214,1.257-3.53,2.14-3.585,2.059a3.92,3.92,0,0,1,.852-.721c.568-.437,1.427-1.024,2.515-1.705a43.792,43.792,0,0,1,9.067-4.286,37.087,37.087,0,0,1,9.847-1.893,25.276,25.276,0,0,1,3.042.008A4.062,4.062,0,0,1,177.4,305.361Z" transform="translate(-150.966 -305.174)" fill="#263238"/></g><g transform="translate(66.275 67.156)" opacity="0.3"><g transform="translate(0)"><path d="M193.755,245.167a24.81,24.81,0,0,0,10.88,24.124C201.9,262.332,197.164,252.328,193.755,245.167Z" transform="translate(-193.488 -245.167)"/></g></g><g transform="translate(110.876 32.191)" opacity="0.3"><g transform="translate(0)"><path d="M231.941,222.891a26.382,26.382,0,0,0,5.95,7.912l-.116-6.341,29.054,12.912-31.187-22.351c-1.7,2.865-2,5-3.7,7.869" transform="translate(-231.941 -215.022)"/></g></g><g transform="translate(158.917 29.055)" opacity="0.3"><g transform="translate(0)"><path d="M278.963,218.384c-1.244-1.952-4.678-6.066-4.678-6.066-.11,3.045-.376,7.211-.487,10.256l-.438,7.293c.45-2.541.786-7.45,1.236-9.991L280,225A7.606,7.606,0,0,0,278.963,218.384Z" transform="translate(-273.36 -212.318)"/></g></g><g transform="translate(199.974 42.591)" opacity="0.3"><g transform="translate(0)"><path d="M308.758,223.988l3.7,33.461C314.074,246.564,317.037,240.648,308.758,223.988Z" transform="translate(-308.758 -223.988)"/></g></g><g transform="translate(262.476 68.446)" opacity="0.3"><g transform="translate(0)"><path d="M382.782,268.662c-1.392-1.154-4.469-1.873-6.057-2.736-7.205-3.913-11.025-11.08-13.833-18.784l-.248-.863c.288,10.33,6.835,21.37,16.26,25.605a5.521,5.521,0,0,0,3.091.653,2.183,2.183,0,0,0,1.929-2.169A2.8,2.8,0,0,0,382.782,268.662Z" transform="translate(-362.644 -246.279)"/></g></g><g transform="translate(133.205 94.516)" opacity="0.3"><g transform="translate(0)"><path d="M251.192,293.759c11.925-3.957,17.676-15.186,20.732-25a39.58,39.58,0,0,1-1.518,12.616A20.053,20.053,0,0,1,263.3,291.71a13.526,13.526,0,0,1-12.106,2.049" transform="translate(-251.192 -268.756)"/></g></g><g transform="translate(17.288 137.476)" opacity="0.3"><path d="M176.253,306a34.635,34.635,0,0,0-24.141,7.792c-.492.407-1.022,1-.811,1.6a1.112,1.112,0,0,0,1.177.625,3.33,3.33,0,0,0,1.316-.551,103.671,103.671,0,0,1,22.458-9.665" transform="translate(-151.254 -305.794)"/></g><g transform="translate(163.856 113.731)" opacity="0.3"><g transform="translate(0)"><path d="M299.13,285.987a2.432,2.432,0,0,0-3.28-.06,7.077,7.077,0,0,0-1.9,3.055q-7.081,17.579-14.163,35.157l-2.172,5.214q7.425-12.445,14.85-24.891c2.962-4.967,5.978-10.071,7.008-15.76A3.33,3.33,0,0,0,299.13,285.987Z" transform="translate(-277.618 -285.322)"/></g></g></g><g transform="translate(72.778)"><g transform="translate(7.609)"><path d="M213.22,118.69c8.787-12.258,23.34-19.434,38.175-22.153,6.241-1.145,10.333-.315,16.554.944s11.946,4.186,15.924,9.131c4.725,5.872,8.8,12.527,10.1,19.951,1.331,7.627,2.669,15.307,2.581,23.049s-1.684,15.635-5.821,22.179l-19.387,4.658c-10.8,1.061-21.759,2.117-32.465.32s-21.317-6.817-27.558-15.7C202.656,148.728,204.434,130.948,213.22,118.69Z" transform="translate(-205.654 -95.993)" fill="#263238"/></g><g transform="translate(87.458 68.86)"><g transform="translate(0)"><path d="M274.5,173.716c-.036.049.35.464,1.236.953a9.63,9.63,0,0,0,4.126,1.107,10.5,10.5,0,0,0,6.152-1.661,10.478,10.478,0,0,0,2.882-14.193,10.5,10.5,0,0,0-5.018-3.929,9.621,9.621,0,0,0-4.23-.59,3,3,0,0,0-1.51.4c0,.234,2.268-.4,5.429.963a10.112,10.112,0,0,1,4.421,3.75,9.648,9.648,0,0,1-2.581,12.709,10.115,10.115,0,0,1-5.533,1.728C276.433,174.969,274.592,173.5,274.5,173.716Z" transform="translate(-274.497 -155.361)" fill="#e0e0e0"/></g></g><g transform="translate(0 65.149)"><path d="M199.112,165.505c.2-4.454,2.244-8.948,5.932-11.457s9.055-2.615,12.444.282L220.8,157.8a12.683,12.683,0,0,1,8.095,12.3,13.9,13.9,0,0,1-8.89,11.96,15.382,15.382,0,0,1-14.841-2.6A17.246,17.246,0,0,1,199.112,165.505Z" transform="translate(-199.095 -152.162)" fill="#263238"/></g><g transform="translate(2.746 69.628)"><path d="M203.464,177.86a6.649,6.649,0,0,1-1.3-3.833c0-2.519,1.617-5.925,3.925-9.1a26.559,26.559,0,0,1,7.453-6.8c2.218-1.38,3.768-1.931,3.709-2.089a10.709,10.709,0,0,0-4.048,1.5,23.658,23.658,0,0,0-7.888,6.817,23.244,23.244,0,0,0-2.863,5.023,10.6,10.6,0,0,0-.97,4.673,5.535,5.535,0,0,0,1.077,3.053C203.039,177.708,203.43,177.9,203.464,177.86Z" transform="translate(-201.462 -156.023)" fill="#455a64"/></g><g transform="translate(13.198 71.569)"><g transform="translate(0)"><path d="M211.878,182.777c.319-.041-1.393-5.882.048-13,1.335-7.145,5.113-11.918,4.832-12.074a10.571,10.571,0,0,0-2.406,3.076,27.358,27.358,0,0,0-3.55,18.248A10.607,10.607,0,0,0,211.878,182.777Z" transform="translate(-210.473 -157.696)" fill="#455a64"/></g></g><g transform="translate(19.007 7.062)"><g transform="translate(7.348)"><path d="M270.8,207.286c-.571-6.871-1.093-12.494-1.089-12.463,0,0,15.873-2.781,18.981-23.553,1.545-10.33.876-27.239-.119-41.055-.9-12.436-12.573-28.7-27.94-27.776l-6.878-.357L228.282,114.14a7.3,7.3,0,0,0-6.462,7.458l5.582,88.849,47.363,49.867,2.718-14.069Z" transform="translate(-221.817 -102.082)" fill="#ffbe9d"/></g><g transform="translate(43.175 62.296)"><path d="M252.714,159.851a4.371,4.371,0,0,1,1.336-2.787,4.467,4.467,0,0,1,5.388-.653,5.982,5.982,0,0,1,2.626,5.46h0a5.437,5.437,0,0,1-3.739,2.5,6.648,6.648,0,0,1-.728.071,4.888,4.888,0,0,1-3.368-1.091A4.354,4.354,0,0,1,252.714,159.851Z" transform="translate(-252.706 -155.791)" fill="#eb996e"/></g><g transform="translate(27.396 21.396)"><g transform="translate(35.923 18.457)"><g transform="translate(0)"><path d="M275.381,138.822a2.661,2.661,0,0,1-2.541,2.707,2.545,2.545,0,0,1-2.764-2.374,2.663,2.663,0,0,1,2.538-2.708A2.548,2.548,0,0,1,275.381,138.822Z" transform="translate(-270.073 -136.441)" fill="#263238"/></g></g><g transform="translate(31.595 11.984)"><g transform="translate(0)"><path d="M276.856,133.612c-.326.349-2.354-1.123-5.217-1.091-2.86-.007-4.948,1.485-5.261,1.137-.154-.154.176-.783,1.084-1.457a7.3,7.3,0,0,1,4.208-1.34,7.016,7.016,0,0,1,4.157,1.3C276.714,132.83,277.018,133.454,276.856,133.612Z" transform="translate(-266.342 -130.861)" fill="#263238"/></g></g><g transform="translate(24.011 13.651)"><g transform="translate(0)"><path d="M261.356,156.136c-.014-.162,1.762-.485,4.642-.88.73-.082,1.421-.233,1.539-.733a3.712,3.712,0,0,0-.507-2.162q-1.054-2.645-2.212-5.547c-3.071-7.9-5.3-14.394-4.985-14.515s3.07,6.182,6.143,14.08q1.108,2.921,2.12,5.58a4.233,4.233,0,0,1,.4,2.866,1.835,1.835,0,0,1-1.192,1.079,4.984,4.984,0,0,1-1.24.184C263.169,156.27,261.369,156.3,261.356,156.136Z" transform="translate(-259.803 -132.298)" fill="#263238"/></g></g><g transform="translate(0 64.184)"><path d="M266.946,183.026a52.761,52.761,0,0,1-27.844-7.161s7.529,14.311,28.271,12.185Z" transform="translate(-239.102 -175.865)" fill="#eb996e"/></g><g transform="translate(16.707 39.545)"><g transform="translate(0)"><path d="M253.957,154.623c.465-.031.5,3.075,3.178,5.257s5.984,1.811,6.012,2.244c.045.195-.732.61-2.13.661a7.74,7.74,0,0,1-5.016-1.7,6.733,6.733,0,0,1-2.466-4.41C253.405,155.379,253.744,154.607,253.957,154.623Z" transform="translate(-253.506 -154.623)" fill="#263238"/></g></g><g transform="translate(31.012)"><path d="M275.59,123.45c-.5.654-2.475,0-4.847-.013-2.371-.094-4.375.476-4.842-.2-.206-.327.1-.982.977-1.605a7.016,7.016,0,0,1,7.807.172C275.529,122.464,275.809,123.131,275.59,123.45Z" transform="translate(-265.839 -120.529)" fill="#263238"/></g><g transform="translate(9.038 18.942)"><path d="M246.894,139.384a2.66,2.66,0,0,0,2.686,2.562,2.543,2.543,0,0,0,2.628-2.523,2.66,2.66,0,0,0-2.684-2.563A2.546,2.546,0,0,0,246.894,139.384Z" transform="translate(-246.894 -136.86)" fill="#263238"/></g><g transform="translate(4.553 13.825)"><path d="M243.076,135.49c.346.332,2.29-1.252,5.15-1.377,2.854-.166,5.022,1.207,5.316.843.145-.162-.22-.772-1.163-1.4a7.308,7.308,0,0,0-4.275-1.1,7.013,7.013,0,0,0-4.079,1.53C243.175,134.7,242.906,135.343,243.076,135.49Z" transform="translate(-243.028 -132.448)" fill="#263238"/></g><g transform="translate(4.553 9.668)"><path d="M243.114,132.065c.534.625,2.472-.139,4.839-.282,2.361-.224,4.395.233,4.825-.467.188-.339-.159-.974-1.064-1.55a7.024,7.024,0,0,0-7.786.6C243.121,131.076,242.877,131.758,243.114,132.065Z" transform="translate(-243.028 -128.864)" fill="#263238"/></g></g><g transform="translate(0 48.769)"><path d="M230.239,149.7c-.017-1.545-1.836-5.171-3.364-5.395-4.079-.6-11.418-.206-11.394,10.14.032,14.142,14.225,11.192,14.249,10.786C229.75,164.913,230.3,155.032,230.239,149.7Z" transform="translate(-215.482 -144.129)" fill="#ffbe9d"/><g transform="translate(2.373 4.445)"><path d="M223.854,159.145c-.063-.045-.246.173-.661.364a2.464,2.464,0,0,1-1.843.043c-1.5-.545-2.758-2.914-2.832-5.463a8.117,8.117,0,0,1,.681-3.53,2.844,2.844,0,0,1,1.849-1.9,1.256,1.256,0,0,1,1.456.672c.19.4.1.679.176.7.039.036.3-.237.188-.821a1.571,1.571,0,0,0-.559-.885,1.866,1.866,0,0,0-1.364-.357,3.465,3.465,0,0,0-2.568,2.2,8.37,8.37,0,0,0-.844,3.945c.1,2.849,1.562,5.512,3.608,6.1a2.64,2.64,0,0,0,2.252-.38C223.83,159.487,223.9,159.17,223.854,159.145Z" transform="translate(-217.528 -147.961)" fill="#eb996e"/></g></g></g><g transform="translate(18.933 4.841)"><path d="M224.677,151.094l3.817,3.483c14.511-15.781,42.352-54.753,40.806-52.438,0,0-10.866-3.679-22.234-.987s-32.8,9.837-31.6,23.37S224.677,151.094,224.677,151.094Z" transform="translate(-215.418 -100.167)" fill="#263238"/></g><g transform="translate(13.738 73.324)"><path d="M227.965,176.723c.042.043-.288.5-1.1,1.1a9.641,9.641,0,0,1-3.952,1.623,10.507,10.507,0,0,1-6.313-.865,10.479,10.479,0,0,1-4.665-13.712,10.5,10.5,0,0,1,4.477-4.535,9.645,9.645,0,0,1,4.121-1.124,3,3,0,0,1,1.547.2c.03.233-2.3-.107-5.262,1.646a10.112,10.112,0,0,0-3.909,4.281,9.649,9.649,0,0,0,4.177,12.279,10.116,10.116,0,0,0,5.709,1.009C226.207,178.21,227.847,176.52,227.965,176.723Z" transform="translate(-210.939 -159.21)" fill="#e0e0e0"/></g><g transform="translate(18.05 2.634)"><path d="M215.21,163.777a30,30,0,0,0-.07-3.281,49.4,49.4,0,0,1,.615-8.87,60.315,60.315,0,0,1,11.68-26.582,96.038,96.038,0,0,1,21.4-19.991c3.085-2.168,5.654-3.823,7.436-4.956a23.144,23.144,0,0,0,2.731-1.829,2.848,2.848,0,0,0-.782.344c-.494.259-1.225.634-2.142,1.162-1.847,1.037-4.478,2.61-7.631,4.717a90.522,90.522,0,0,0-21.786,19.971c-7.061,9.279-10.664,19.525-11.585,27.065a42.98,42.98,0,0,0-.315,8.986c.044,1.06.207,1.874.271,2.428A2.867,2.867,0,0,0,215.21,163.777Z" transform="translate(-214.656 -98.264)" fill="#455a64"/></g><g transform="translate(13.675 2.373)"><path d="M250.686,98.044a2.975,2.975,0,0,0-.8.322c-.516.237-1.263.61-2.215,1.111-1.9,1-4.622,2.527-7.859,4.615a119.484,119.484,0,0,0-10.937,7.959,69.42,69.42,0,0,0-11.759,11.706,32.116,32.116,0,0,0-4.244,7.545,29.866,29.866,0,0,0-1.816,7.86,46.865,46.865,0,0,0,.9,13.528c.767,3.784,1.644,6.775,2.272,8.831.315,1.028.58,1.82.769,2.353a2.934,2.934,0,0,0,.335.8,24.416,24.416,0,0,0-.742-3.256c-.516-2.081-1.29-5.091-1.964-8.855a48.2,48.2,0,0,1-.687-13.312,29.5,29.5,0,0,1,1.813-7.609,31.721,31.721,0,0,1,4.137-7.312,71.391,71.391,0,0,1,11.55-11.6,134.21,134.21,0,0,1,10.747-8.076c3.171-2.148,5.826-3.756,7.668-4.856A26.008,26.008,0,0,0,250.686,98.044Z" transform="translate(-210.885 -98.039)" fill="#455a64"/></g><g transform="translate(27.935 4.901)"><path d="M223.182,151.454a13.222,13.222,0,0,0,1.728-1.9l4.427-5.4c3.706-4.583,8.771-10.952,14.318-18.023s10.529-13.51,14.1-18.2l4.186-5.585a13.251,13.251,0,0,0,1.434-2.131,12.993,12.993,0,0,0-1.726,1.9c-1.163,1.417-2.648,3.228-4.426,5.393-3.7,4.582-8.772,10.955-14.323,18.032s-10.532,13.514-14.1,18.2c-1.681,2.242-3.085,4.116-4.186,5.584A12.959,12.959,0,0,0,223.182,151.454Z" transform="translate(-223.179 -100.218)" fill="#e0e0e0"/></g><g transform="translate(59.503 66.486)"><g transform="translate(0)"><path d="M255.46,153.926a16.415,16.415,0,0,0-2.626.077,16.218,16.218,0,0,0-2.422,1.02c-.147-.074.663-1.265,2.293-1.61C254.33,153.051,255.562,153.8,255.46,153.926Z" transform="translate(-250.395 -153.315)" fill="#eb996e"/></g></g><g transform="translate(44.577 48.913)"><g transform="translate(0)"><path d="M242.793,138.57a7.486,7.486,0,0,1-5.265-.323,28.039,28.039,0,0,1,5.265.323Z" transform="translate(-237.527 -138.164)" fill="#eb996e"/></g></g><g transform="translate(45.527 50.179)"><g transform="translate(0)"><path d="M242.018,139.369c.022.168-.8.412-1.786.725s-1.8.576-1.88.424.653-.675,1.7-1S242,139.206,242.018,139.369Z" transform="translate(-238.346 -139.255)" fill="#eb996e"/></g></g><g transform="translate(89.267 47.642)"><g transform="translate(0)"><path d="M279.284,137.133c.058.157-.617.549-1.507.875s-1.659.464-1.717.307.618-.547,1.508-.875S279.227,136.976,279.284,137.133Z" transform="translate(-276.057 -137.068)" fill="#eb996e"/></g></g><g transform="translate(89.164 49.345)"><g transform="translate(0)"><path d="M279.088,139.679c-.055.158-.8.046-1.656-.249s-1.515-.663-1.46-.822.8-.045,1.656.251S279.142,139.521,279.088,139.679Z" transform="translate(-275.968 -138.536)" fill="#eb996e"/></g></g></g></g></g></g></g></svg>