<svg xmlns="http://www.w3.org/2000/svg" width="102.693" height="102.693" viewBox="0 0 102.693 102.693"><g transform="translate(-0.001)"><path d="M379.909,142.94l4.688-4.688L383.321,136h15.868v13.251H376v-8.2c.116-.049.215-.1.332-.149Zm0,0" transform="translate(-298.152 -107.843)" fill="#b4dd7f"/><path d="M67.032,142.94l3.577-2.037c.116.05.216.1.332.149v8.2H8V136H63.62l-1.275,2.252Zm0,0" transform="translate(-6.343 -107.843)" fill="#b4dd7f"/><path d="M8,200H70.941v14.907l6.625,9.938,6.625-9.938V200H107.38v59.628H8Zm0,0" transform="translate(-6.343 -158.592)" fill="#e6e9ed"/><g transform="translate(53.003 1.656)"><path d="M292.44,22.907v6.625l-3.975,1.093a15.606,15.606,0,0,1-1.06,2.551l.746,1.325h.016l1.275,2.252-4.688,4.688L281.177,39.4c-.116.05-.216.1-.332.149v1.574H267.595V39.553c-.116-.049-.215-.1-.332-.149l-3.577,2.037L259,36.754l1.275-2.252h.016l.746-1.325a15.609,15.609,0,0,1-1.06-2.551L256,29.532V22.907l3.975-1.093a15.608,15.608,0,0,1,1.06-2.551L259,15.686,263.686,11l3.577,2.037a15.607,15.607,0,0,1,2.551-1.06L270.907,8h6.625l1.093,3.975a15.608,15.608,0,0,1,2.551,1.06L284.754,11l4.688,4.688L287.4,19.263a15.606,15.606,0,0,1,1.06,2.551ZM282.5,26.22A8.282,8.282,0,1,0,274.22,34.5,8.285,8.285,0,0,0,282.5,26.22Zm0,0" transform="translate(-256 -8)" fill="#fcd770"/><path d="M318.625,168v21.532H312V168Zm0,0" transform="translate(-300.406 -134.873)" fill="#fcd770"/><path d="M350.625,174.625v14.907H344V168h6.625Zm0,0" transform="translate(-325.78 -134.873)" fill="#fcd770"/></g><path d="M325.251,272l-6.625,9.938L312,272Zm0,0" transform="translate(-247.402 -215.685)" fill="#969faa"/><path d="M296,360h19.876v19.876H296Zm0,0" transform="translate(-234.715 -285.465)" fill="#fcd770"/><path d="M99.876,264.994v18.882H80V264H99.876Zm0,0" transform="translate(-63.436 -209.341)" fill="#ff826e"/><path d="M305.938,67.876A9.938,9.938,0,1,0,296,57.938,9.948,9.948,0,0,0,305.938,67.876Zm0-16.563a6.625,6.625,0,1,1-6.625,6.625A6.632,6.632,0,0,1,305.938,51.313Zm0,0" transform="translate(-234.715 -38.062)"/><path d="M86.392,26.5c.125-.285.252-.572.359-.86L91.1,24.454V15.3L86.751,14.11c-.142-.381-.3-.76-.472-1.135l2.236-3.917L82.043,2.586,78.125,4.822q-.562-.258-1.135-.472L75.8,0H66.646L65.457,4.348c-.381.142-.76.3-1.135.472L60.406,2.584,53.933,9.056l2.236,3.918q-.258.562-.472,1.135L51.347,15.3v9.155l4.348,1.189c.108.288.234.573.359.86H0v76.191H102.694V26.5ZM99.381,39.752H79.5V35.719l2.535,1.448,6.473-6.473-.5-.879H99.381ZM74.754,57.972l-3.531,5.295-3.531-5.295Zm1.438-3.313H72.879V36.439h3.313ZM54.66,21.923v-4.1l3.632-1,.267-.868A13.273,13.273,0,0,1,59.5,13.7l.429-.8-1.871-3.28,2.895-2.9,3.28,1.871.8-.429a13.145,13.145,0,0,1,2.268-.945l.868-.267,1-3.634h4.1l1,3.632.868.267a13.272,13.272,0,0,1,2.268.945l.8.429,3.28-1.871,2.9,2.895-1.871,3.28.429.8a13.144,13.144,0,0,1,.945,2.268l.267.868,3.634,1v4.1l-3.632,1-.267.868a13.178,13.178,0,0,1-.947,2.269l-.428.8,1.871,3.28-2.895,2.9L79,31.618l-.877-.412-1.93.991v.931H66.254V32.2l-2.015-1.03-3.279,1.871-2.9-2.895,1.871-3.28-.428-.8a13.052,13.052,0,0,1-.947-2.269l-.267-.868Zm-.226,7.891-.5.879,6.473,6.473,2.535-1.448v4.033H3.313V29.814ZM3.313,99.38V43.065H66.254V36.439h3.313v18.22H66.254V46.377H62.942v10.44L71.223,69.24,79.5,56.818V43.065H99.381V99.38Zm0,0"/><path d="M32,160h3.313v3.313H32Zm0,0" transform="translate(-25.374 -126.873)"/><path d="M64,160h3.313v3.313H64Zm0,0" transform="translate(-50.749 -126.873)"/><path d="M96,160h3.313v3.313H96Zm0,0" transform="translate(-76.123 -126.873)"/><path d="M95.188,230.119l6.316-8.843-2.695-1.925-5.419,7.588H72v23.189H95.188Zm-19.876,16.7V230.252h15.71l-7.64,10.7L79.8,237.362,77.454,239.7l6.352,6.352,8.07-11.3v12.056Zm0,0" transform="translate(-57.092 -173.936)"/><path d="M288,375.189h23.189V352H288Zm3.313-19.876h16.563v16.563H291.313Zm0,0" transform="translate(-228.371 -279.121)"/><path d="M324.282,378.344l-3.8,3.8-3.8-3.8-2.342,2.342,3.8,3.8-3.8,3.8,2.342,2.342,3.8-3.8,3.8,3.8,2.342-2.342-3.8-3.8,3.8-3.8Zm0,0" transform="translate(-249.261 -300.011)"/><path d="M32,384h3.313v3.313H32Zm0,0" transform="translate(-25.374 -304.496)"/><path d="M64,384H97.127v3.313H64Zm0,0" transform="translate(-50.749 -304.496)"/><path d="M32,416H71.752v3.313H32Zm0,0" transform="translate(-25.374 -329.871)"/><path d="M32,448H65.127v3.313H32Zm0,0" transform="translate(-25.374 -355.245)"/><path d="M208,448h3.313v3.313H208Zm0,0" transform="translate(-164.935 -355.245)"/></g></svg>