<svg xmlns="http://www.w3.org/2000/svg" xmlns:xlink="http://www.w3.org/1999/xlink" width="225.639" height="179.274" viewBox="0 0 225.639 179.274"><defs><clipPath id="a"><rect width="225.612" height="164.562" fill="none"/></clipPath><clipPath id="b"><path d="M7.6,0H78.2a7.6,7.6,0,0,1,7.6,7.6v0a7.6,7.6,0,0,1-7.6,7.6H7.6A7.6,7.6,0,0,1,0,7.6v0A7.6,7.6,0,0,1,7.6,0Z" fill="#d2e1f1"/></clipPath><clipPath id="c"><rect width="225.612" height="164.562" fill="#3a8416"/></clipPath><clipPath id="d"><path d="M1205.389,386.634c-3.151,1.946-6.373.92-9.486-.072-2.745-.875-5.338-1.7-7.684-.447a35.443,35.443,0,0,1-6.167,2.409,4.792,4.792,0,0,0-.543.668s.132-.041.368-.087a36.983,36.983,0,0,0,6.578-2.542c2.16-1.155,4.652-.361,7.295.481,3.222,1.029,6.554,2.09,9.9.02a28.518,28.518,0,0,1,10.86-4.185l-.051-.505a29.078,29.078,0,0,0-11.073,4.261" transform="translate(-1181.509 -382.373)" fill="none"/></clipPath><linearGradient id="e" x1="-5.015" y1="8.634" x2="-5.01" y2="8.634" gradientUnits="objectBoundingBox"><stop offset="0" stop-color="#4a612f"/><stop offset="0.005" stop-color="#4a612f"/><stop offset="1" stop-color="#769a42"/></linearGradient><clipPath id="g"><path d="M162.761,401.769c4.354,3.642,7,8.554,9.556,13.3a68.214,68.214,0,0,0,4.111,6.978c3.138,4.434,9.487,8.194,12.793,9.949a4.074,4.074,0,0,0,.457-.535c-3.222-1.71-9.636-5.481-12.7-9.807a66.5,66.5,0,0,1-4.068-6.906c-2.589-4.809-5.264-9.778-9.718-13.507Z" transform="translate(-162.761 -401.246)" fill="none"/></clipPath><linearGradient id="h" x1="-0.436" y1="2.665" x2="-0.432" y2="2.665" xlink:href="#e"/><clipPath id="j"><path d="M211.641,306.224c.026.041.108.216.2.4a22.283,22.283,0,0,0,3.994,6.157c2.023,2.018,8.735,13.508,8.266,23.633.065.259.131.526.2.8.013-.032.128-.318.3-.823.4-9.836-5.842-21.408-8.406-23.967a21.75,21.75,0,0,1-3.895-6.01c-.128-.27-.185-.392-.227-.459Z" transform="translate(-211.641 -305.952)" fill="none"/></clipPath><linearGradient id="k" x1="-0.881" y1="3.558" x2="-0.875" y2="3.558" xlink:href="#e"/><clipPath id="m"><path d="M1159.85,254.9a18.789,18.789,0,0,0-5.82,1.5c-4.586,2.191-5.7,5.8-6.788,9.283-.937,3.015-1.906,6.134-5.122,8.42-4.654,3.31-10.581,1.669-13.909.275-.334,0-.527-.007-.527-.007s.337.265.937.687c3.5,1.362,9.209,2.682,13.777-.564,3.348-2.381,4.341-5.578,5.3-8.67,1.1-3.543,2.141-6.891,6.538-8.991a18.288,18.288,0,0,1,5.682-1.456c2.774-.389,5.4-.753,7.816-3.388l-.353-.324c-2.3,2.508-4.844,2.861-7.532,3.235" transform="translate(-1127.684 -251.666)" fill="none"/></clipPath><linearGradient id="n" x1="-3.611" y1="2.911" x2="-3.608" y2="2.911" xlink:href="#e"/><clipPath id="o"><path d="M46.926,0h57.631a46.926,46.926,0,0,1,46.926,46.926V89.651a46.927,46.927,0,0,1-46.927,46.927H46.927A46.927,46.927,0,0,1,0,89.651V46.926A46.926,46.926,0,0,1,46.926,0Z" fill="#f3f9ff"/></clipPath><clipPath id="q"><rect width="64.57" height="64.57" fill="none"/></clipPath><clipPath id="r"><rect width="42.181" height="1.9" fill="#3a8416"/></clipPath><clipPath id="s"><rect width="45.577" height="1.9" fill="#3a8416"/></clipPath><clipPath id="t"><rect width="29.573" height="1.9" fill="#3a8416"/></clipPath><clipPath id="v"><path d="M402,135.367a4.26,4.26,0,1,0,4.26-4.26,4.261,4.261,0,0,0-4.26,4.26" transform="translate(-402 -131.107)" fill="#3a8416"/></clipPath><clipPath id="w"><path d="M378.913,207.61v8.1a18.735,18.735,0,0,0,15.446,0v-8.1a7.723,7.723,0,0,0-15.446,0" transform="translate(-378.913 -199.887)" fill="#3a8416"/></clipPath><clipPath id="y"><rect width="56.166" height="80.844" fill="#d2e1f1"/></clipPath><clipPath id="z"><path d="M1107.066,440.322a4.26,4.26,0,1,0,4.26-4.26,4.261,4.261,0,0,0-4.26,4.26" transform="translate(-1107.066 -436.062)" fill="#3a8416"/></clipPath><clipPath id="aa"><path d="M1083.98,512.565v8.1a18.74,18.74,0,0,0,15.446,0v-8.1a7.723,7.723,0,0,0-15.446,0" transform="translate(-1083.98 -504.842)" fill="#3a8416"/></clipPath><clipPath id="ac"><path d="M1020,406.1a18.181,18.181,0,1,1,15.026,0,18.234,18.234,0,0,1-15.026,0m-11.68-16.561a19.246,19.246,0,0,0,11.261,17.483,19.248,19.248,0,0,0,15.865,0,19.2,19.2,0,1,0-27.126-17.483" transform="translate(-1008.318 -370.344)" fill="none"/></clipPath><linearGradient id="ad" x1="-3.982" y1="2.824" x2="-3.978" y2="2.824" gradientUnits="objectBoundingBox"><stop offset="0" stop-color="#d3d8de"/><stop offset="1" stop-color="#fff"/></linearGradient><clipPath id="ae"><path d="M314.931,101.144a18.18,18.18,0,1,1,15.026,0,18.233,18.233,0,0,1-15.026,0m-11.68-16.561a19.246,19.246,0,0,0,11.261,17.483,19.246,19.246,0,0,0,15.865,0,19.2,19.2,0,1,0-27.126-17.483" transform="translate(-303.251 -65.39)" fill="#b0c0d2"/></clipPath></defs><g transform="translate(-638.935 -8178.902)"><path d="M20,0H185.588a20,20,0,0,1,20,20V172.212a0,0,0,0,1,0,0H0a0,0,0,0,1,0,0V20A20,20,0,0,1,20,0Z" transform="translate(649.04 8178.902)" fill="#c2e8b0"/><path d="M267.879,643.757c0,6.85-50.421,12.4-112.619,12.4s-112.619-5.553-112.619-12.4,50.421-12.4,112.619-12.4,112.619,5.553,112.619,12.4" transform="translate(596.694 7702.017)" fill="#455a64"/><g transform="translate(638.935 8185.446)" clip-path="url(#a)"><g transform="translate(67.914 128.979)"><g clip-path="url(#b)"><rect width="85.802" height="15.199" transform="translate(0 0)" fill="#d2e1f1"/></g></g><g transform="translate(0 0)"><g clip-path="url(#c)"><path d="M1191.186,367.911a9.656,9.656,0,0,0-9.309-3.554,3.773,3.773,0,0,0-.368.087,4.808,4.808,0,0,1,.542-.668c2.868-3.028,13.006-8.887,19.4-5.868,6.906,3.261,7.082-4.166,15.13-4.674,10.935-.691,11.42,10.536,11.42,10.536-1.826-3.628-12.351-4.033-18.012.887s-14.5,8.336-18.806,3.253" transform="translate(-1002.392 -299.658)" fill="#3a8416"/></g></g><g transform="translate(179.117 57.968)"><g clip-path="url(#d)"><rect width="35.654" height="12.686" transform="matrix(0.985, -0.17, 0.17, 0.985, -1.145, 0.198)" fill="url(#e)"/></g></g><g transform="translate(0 0)"><g clip-path="url(#c)"><path d="M47.838,359c3.8,7.237,6.089,14.156,3.753,17.423a4.067,4.067,0,0,1-.457.535c-1.837,1.8-5.628,2.045-12.168-.139-17.405-5.814-18.839-17.389-22.9-28.549C12.068,337.246.3,339.778,0,339.845,27.139,328.722,41.392,346.728,47.838,359" transform="translate(0 -285.37)" fill="#3a8416"/></g></g><g transform="translate(24.675 60.829)"><g clip-path="url(#g)"><rect width="40.757" height="40.801" transform="translate(-15.376 15.13) rotate(-44.538)" fill="url(#h)"/></g></g><g transform="translate(0 0)"><g clip-path="url(#c)"><path d="M171.737,270.719c-.174.5-.288.791-.3.823-.067-.27-.133-.537-.2-.8-2.9-11.527-6.007-12.58-15.671-22.28-9.884-9.92-5.045-19.918-5.045-19.918,31.718,7.342,23.058,36.848,21.216,42.171" transform="translate(-126.697 -193.9)" fill="#3a8416"/></g></g><g transform="translate(32.085 46.382)"><g clip-path="url(#j)"><rect width="28.072" height="33.536" transform="matrix(0.843, -0.538, 0.538, 0.843, -14.173, 9.042)" fill="url(#k)"/></g></g><g transform="translate(0 0)"><g clip-path="url(#c)"><path d="M1174.184,173.774c-7.987,3.223-14.809-2.125-21.64,12.081-5.9,12.263-20.138,3.373-23.924.712-.6-.422-.937-.687-.937-.687s.194.008.528.007c2.169-.017,10.3-.5,10.8-6.881.581-7.363,4.573-18.1,13.181-17.437s8.988-5.792,13.906-11.694,16.06.449,16.06.449.006,20.229-7.98,23.45" transform="translate(-956.727 -125.023)" fill="#3a8416"/></g></g><g transform="translate(170.958 38.153)"><g clip-path="url(#m)"><rect width="46.459" height="47.018" transform="translate(-13.016 13.774) rotate(-46.621)" fill="url(#n)"/></g></g><g transform="translate(37.149 0)"><g clip-path="url(#o)"><rect width="197.546" height="191.252" transform="translate(-56.114 29.371) rotate(-27.628)" fill="#f3f9ff"/></g></g><g transform="translate(0 0)"><g clip-path="url(#a)"><path d="M322.083,487.677a12.726,12.726,0,1,0-23.965,8.571c.1.27.2.535.313.794a12.726,12.726,0,0,0,23.652-9.364m-8.77,13.269a9.529,9.529,0,0,1-11.961-5.177c-.084-.194-.163-.393-.235-.595a9.541,9.541,0,1,1,12.2,5.772" transform="translate(-252.29 -406.581)" fill="#b0c0d2"/><path d="M304.244,489.15l-3.041-.95a12.747,12.747,0,0,1,11.768-8.931l.095,3.185a9.553,9.553,0,0,0-8.822,6.7" transform="translate(-255.54 -406.612)" fill="#3a8416"/><path d="M301.352,545.78l-2.921,1.272q-.169-.389-.313-.794a12.668,12.668,0,0,1-.166-8.079l3.041.95a9.495,9.495,0,0,0,.124,6.056c.072.2.151.4.235.595" transform="translate(-252.289 -456.591)" fill="#fc8116"/><path d="M306.336,592.754a12.673,12.673,0,0,1-1.973-3.168l2.921-1.272a9.5,9.5,0,0,0,1.478,2.376Z" transform="translate(-258.221 -499.126)" fill="#fcd03e"/><path d="M553.85,496.648a12.726,12.726,0,1,0-23.664-9.37c-.105.266-.2.534-.288.8a12.726,12.726,0,0,0,23.952,8.567M538.5,500.834a9.529,9.529,0,0,1-5.574-11.781q.1-.3.216-.6a9.541,9.541,0,1,1,5.358,12.383" transform="translate(-449.048 -406.582)" fill="#b0c0d2"/><path d="M571.2,483.817l-1.658-2.719a12.744,12.744,0,0,1,14.735,1.052l-2.029,2.456a9.558,9.558,0,0,0-11.048-.789" transform="translate(-483.197 -406.582)" fill="#fcd03e"/><path d="M536.338,499.485l-3.034-.972q.13-.4.288-.8a12.666,12.666,0,0,1,5.205-6.18l1.659,2.719a9.5,9.5,0,0,0-3.9,4.633q-.119.3-.216.6" transform="translate(-452.455 -417.014)" fill="#3a8416"/><path d="M529.3,541.274a12.653,12.653,0,0,1,.607-3.682l3.034.972a9.5,9.5,0,0,0-.456,2.76Z" transform="translate(-449.056 -456.093)" fill="#fc8116"/><path d="M775.878,479.4a12.726,12.726,0,1,0-3.891,25.153c.283.044.566.078.847.1a12.726,12.726,0,0,0,3.045-25.256m7.483,14.035a9.531,9.531,0,0,1-10.252,8.048q-.317-.028-.635-.077a9.541,9.541,0,1,1,10.888-7.97" transform="translate(-645.805 -406.592)" fill="#b0c0d2"/><path d="M767.09,537.778,764.806,540a12.744,12.744,0,0,1-2.24-14.6l2.844,1.434a9.556,9.556,0,0,0,1.68,10.948" transform="translate(-645.805 -445.746)" fill="#fc8116"/><path d="M793.265,609.928l-.276,3.173c-.281-.025-.564-.059-.847-.1a12.668,12.668,0,0,1-7.181-3.706l2.285-2.22a9.5,9.5,0,0,0,5.383,2.778c.212.033.424.059.635.077" transform="translate(-665.961 -515.041)" fill="#3a8416"/><path d="M841.638,627.918a12.678,12.678,0,0,1-3.725.223l.275-3.173a9.52,9.52,0,0,0,2.793-.168Z" transform="translate(-710.885 -530.081)" fill="#fcd03e"/><rect width="25.459" height="1.963" transform="translate(45.081 104.157)" fill="#c2c2c2"/><rect width="19.052" height="1.963" transform="translate(45.082 108.33)" fill="#c2c2c2"/><rect width="14.038" height="1.963" transform="translate(80.24 104.157)" fill="#c2c2c2"/><rect width="20.838" height="1.963" transform="translate(80.24 108.33)" fill="#c2c2c2"/><rect width="15.602" height="1.963" transform="translate(117.708 104.157)" fill="#c2c2c2"/><rect width="18.072" height="1.963" transform="translate(117.708 108.33)" fill="#c2c2c2"/><rect width="18.513" height="1.858" transform="translate(157.201 20.731)" fill="#bfd4fc"/><rect width="21.279" height="1.858" transform="translate(157.201 26.481)" fill="#bfd4fc"/><rect width="11.008" height="1.858" transform="translate(157.169 32.2)" fill="#bfd4fc"/><rect width="16.962" height="1.858" transform="translate(157.169 37.918)" fill="#bfd4fc"/><rect width="81.009" height="1.9" transform="translate(45.082 117.71)" fill="#fff"/><rect width="87.532" height="1.9" transform="translate(45.081 122.143)" fill="#fff"/><rect width="56.796" height="1.9" transform="translate(45.081 126.575)" fill="#fff"/><path d="M471.273,467.205a32.285,32.285,0,1,0,32.285-32.285,32.285,32.285,0,0,0-32.285,32.285" transform="translate(-399.828 -368.986)" fill="#fff" opacity="0.22"/></g></g><g transform="translate(45.082 117.71)"><g clip-path="url(#r)"><rect width="42.181" height="1.9" transform="translate(0)" fill="#3a8416"/></g></g><g transform="translate(45.082 122.143)"><g clip-path="url(#s)"><rect width="45.577" height="1.9" fill="#3a8416"/></g></g><g transform="translate(45.082 126.576)"><g clip-path="url(#t)"><rect width="29.573" height="1.9" transform="translate(0)" fill="#3a8416"/></g></g><g transform="translate(0 0)"><g clip-path="url(#a)"><rect width="16.501" height="2.033" transform="translate(56.916 55.662)" fill="#d4d4d4"/><rect width="24.508" height="2.032" transform="translate(52.913 52.041)" fill="#d4d4d4"/></g></g><g transform="translate(60.943 19.876)"><g clip-path="url(#v)"><rect width="8.521" height="8.521" transform="translate(0 0)" fill="#3a8416"/></g></g><g transform="translate(57.443 30.303)"><g clip-path="url(#w)"><rect width="15.446" height="17.491" transform="translate(0 0)" fill="#3a8416"/></g></g><g transform="translate(0 0)"><g clip-path="url(#a)"><rect width="39.686" height="2.558" transform="translate(91.83 17.835)" fill="#b0c0d2"/><rect width="15.423" height="2.558" transform="translate(135.78 17.835)" fill="#b0c0d2"/><rect width="18.636" height="2.558" transform="translate(91.83 12.009)" fill="#b0c0d2"/><g transform="translate(147.092 51.248)" opacity="0.73"><g clip-path="url(#y)"><path d="M1020.025,418.894H976.667a6.4,6.4,0,0,1-6.4-6.4V344.453a6.4,6.4,0,0,1,6.4-6.4h43.359a6.4,6.4,0,0,1,6.4,6.4v68.038a6.4,6.4,0,0,1-6.4,6.4" transform="translate(-970.263 -338.05)" fill="#d2e1f1"/></g></g></g></g><g transform="translate(167.832 66.107)"><g clip-path="url(#z)"><rect width="8.521" height="8.521" transform="translate(0 0)" fill="#3a8416"/></g></g><g transform="translate(164.332 76.534)"><g clip-path="url(#aa)"><rect width="15.446" height="17.49" transform="translate(0 0)" fill="#3a8416"/></g></g><g transform="translate(0 0)"><g clip-path="url(#a)"><path d="M1054.506,666.2h-38.593a.91.91,0,0,1-.91-.91v-1.05a.91.91,0,0,1,.91-.91h38.593a.91.91,0,0,1,.91.91v1.05a.91.91,0,0,1-.91.91" transform="translate(-861.127 -562.767)" fill="#d4d9df"/><path d="M1042.852,707.976h-26.941a.91.91,0,0,1-.91-.91v-1.05a.91.91,0,0,1,.91-.911h26.941a.911.911,0,0,1,.911.911v1.05a.91.91,0,0,1-.911.91" transform="translate(-861.126 -598.211)" fill="#d4d9df"/><path d="M1048.257,749.758h-32.345a.91.91,0,0,1-.91-.91V747.8a.91.91,0,0,1,.91-.91h32.345a.911.911,0,0,1,.911.91v1.05a.91.91,0,0,1-.911.91" transform="translate(-861.127 -633.659)" fill="#d4d9df"/></g></g><g transform="translate(152.862 56.144)"><g clip-path="url(#ac)"><rect width="38.387" height="38.388" transform="translate(0 0)" fill="url(#ad)"/></g></g><g transform="translate(45.973 9.913)"><g clip-path="url(#ae)"><rect width="38.387" height="38.387" transform="translate(0 0)" fill="#b0c0d2"/></g></g><g transform="translate(0 0)"><g clip-path="url(#a)"><path d="M1117.926,813.171h-8.349a3.287,3.287,0,0,1-3.286-3.286v-8.349a3.286,3.286,0,0,1,3.286-3.286h8.349a3.286,3.286,0,0,1,3.286,3.286v8.349a3.286,3.286,0,0,1-3.286,3.286" transform="translate(-938.576 -677.234)" fill="#fff"/><rect width="1.412" height="5.937" transform="translate(174.469 125.507)" fill="#c5cacf"/><rect width="5.937" height="1.412" transform="translate(172.207 127.769)" fill="#c5cacf"/><rect width="1.013" height="24.572" transform="translate(94.65 25.241)" fill="#cedefd"/><rect width="1.013" height="24.572" transform="translate(99.306 25.241)" fill="#cedefd"/><rect width="1.013" height="24.572" transform="translate(103.962 25.241)" fill="#cedefd"/><rect width="1.013" height="24.572" transform="translate(108.618 25.241)" fill="#cedefd"/><rect width="1.013" height="24.572" transform="translate(113.274 25.241)" fill="#cedefd"/><rect width="1.013" height="24.572" transform="translate(117.93 25.241)" fill="#cedefd"/><rect width="1.013" height="24.572" transform="translate(122.586 25.241)" fill="#cedefd"/><rect width="1.013" height="24.572" transform="translate(127.242 25.241)" fill="#cedefd"/><rect width="1.013" height="24.572" transform="translate(131.898 25.241)" fill="#cedefd"/><rect width="1.013" height="24.572" transform="translate(136.554 25.241)" fill="#cedefd"/><rect width="1.013" height="24.572" transform="translate(141.211 25.241)" fill="#cedefd"/><rect width="1.013" height="24.572" transform="translate(145.867 25.241)" fill="#cedefd"/><g transform="translate(94.65 28.787)"><rect width="1.013" height="17.226" transform="translate(0 3.8)" fill="#3a8416"/><rect width="1.013" height="11.273" transform="translate(4.656 9.753)" fill="#3a8416"/><rect width="1.013" height="21.026" transform="translate(9.312)" fill="#3a8416"/><rect width="1.013" height="6.122" transform="translate(13.968 14.904)" fill="#3a8416"/><rect width="1.013" height="12.286" transform="translate(18.624 8.74)" fill="#3a8416"/><rect width="1.013" height="16.888" transform="translate(23.28 4.138)" fill="#3a8416"/><rect width="1.013" height="10.893" transform="translate(27.936 10.133)" fill="#3a8416"/><rect width="1.013" height="18.45" transform="translate(32.592 2.576)" fill="#3a8416"/><rect width="1.013" height="10.133" transform="translate(37.248 10.893)" fill="#3a8416"/><rect width="1.013" height="16.212" transform="translate(41.904 4.814)" fill="#3a8416"/><rect width="1.013" height="8.106" transform="translate(46.56 12.92)" fill="#3a8416"/><rect width="1.013" height="16.212" transform="translate(51.217 4.814)" fill="#3a8416"/></g><rect width="60.584" height="10.3" transform="matrix(0.986, -0.168, 0.168, 0.986, 4.31, 111.912)" fill="#727997"/><path d="M116.443,1039.868s-.257,1.882-.289,2.165-2.856-.167-2.856-.167l-.229-2.241a15.859,15.859,0,0,1,3.374.242" transform="translate(-95.928 -882.017)" fill="#5a554e"/><path d="M113.715,1053.218a7.789,7.789,0,0,0,1.76,1.629c.865.495,2.226.69,2.737,1.2.369.37,1.345,1.96-2.249,1.928s-5.328.224-5.713-.386.557-4.5.557-4.5a7.225,7.225,0,0,0,2.907.128" transform="translate(-93.458 -893.441)" fill="#1d2a38"/><path d="M249.937,1039.868s-.257,1.882-.289,2.165-2.856-.167-2.856-.167l-.229-2.241a15.853,15.853,0,0,1,3.374.242" transform="translate(-209.184 -882.017)" fill="#5a554e"/><path d="M247.208,1053.218a7.79,7.79,0,0,0,1.76,1.629c.866.495,4.051.9,4.563,1.412.37.37.984,1.857-4.074,1.718-3.594-.1-5.328.224-5.713-.386s.557-4.5.557-4.5a6.554,6.554,0,0,0,2.907.128" transform="translate(-206.713 -893.441)" fill="#1d2a38"/><path d="M114.976,720.637a29,29,0,0,0-1.305,8.7c.2,4.026-.777,8.432-1.176,12.637-.444,4.688-2.263,15.787-2.329,18.3s.282,10.516.282,10.516l3.641.088s3.058-19.4,3.85-21.384,4.72-16.094,4.852-17.679-7.814-11.17-7.814-11.17" transform="translate(-93.458 -611.388)" fill="#2a3d54"/><path d="M157.25,718.451s2,11.033,2.264,13.5.44,11.924.572,13.464.88,20.152,1.584,22.44h-4.06s-4.169-13.531-4.169-19.932S150.681,734,148.9,729.78s-5.861-4.323-6.956-12.16c0,0,13.824-1.654,15.307.832" transform="translate(-120.424 -608.371)" fill="#2a3d54"/><path d="M179.31,482.92s3.725-.763,4.928,2.171.205,8.272-1.672,8.653-4.488-.381-5.133-2.2a13.588,13.588,0,0,1-.792-5.984,3.572,3.572,0,0,1,2.669-2.64" transform="translate(-149.783 -409.633)" fill="#dba585"/><path d="M319.2,744.832a8.8,8.8,0,0,0,1.5,1.341c.374.132,1.129-.484,3.826-.578.237-.008.643.22.534.529s-1.074,1.561-1.58,1.67-3.145.506-4.279,0a4.724,4.724,0,0,1-1.859-2Z" transform="translate(-269.233 -631.915)" fill="#dba585"/><rect width="3.236" height="7.818" transform="translate(64.243 102.966) rotate(-9.657)" fill="#4f5777"/><path d="M438.613,438.091A37.488,37.488,0,1,0,476.1,400.6a37.488,37.488,0,0,0-37.487,37.487m6.156,0a31.332,31.332,0,1,1,59.009,14.7h0a31.336,31.336,0,0,1-59.009-14.7" transform="translate(-372.119 -339.872)" fill="#424650"/><path d="M184.639,531.776a3.077,3.077,0,0,0-.127,1.433c.169.506-4.635-.235-4.635-.235a32,32,0,0,0-.392-4.873c-.4-2.267,5.154,3.675,5.154,3.675" transform="translate(-152.257 -447.603)" fill="#dba585"/><path d="M176.032,488.361s.246.6,1.632.6,3.318-1.54,3.914-1.65.653-.44.653-.44l.273.572.594.132s-.295-1.7.634-2.223-.04-5.345-4.616-4.509c0,0-3.476.4-3.652,2.31s-.029,4.149.568,5.209" transform="translate(-148.805 -407.863)" fill="#3e4148"/><path d="M109.761,563.37a16.944,16.944,0,0,1,5.033,2.517,6.281,6.281,0,0,1,3.389,4.75,77.521,77.521,0,0,0,2.079,9.277c.352.792,7.582,10.765,7.729,11.029s-1.863,1.657-2.1,1.54-8.3-8.815-8.683-9.666c0,0-2.489-5.038-2.548-6.065,0,0-.063,2.927-.18,3.748s1.07,11.346,1.012,11.786-8.033,2.017-11.758,1.607a19.727,19.727,0,0,1-6.392-1.814s1.738-7.15,1.5-8.529-.674-9.269-.674-9.269l-2.552,3.725,4.078,6.13-.968,3.99s-7.069-9.064-7.3-10.061a4.322,4.322,0,0,1,.528-2.786c.381-.822,2.552-4.665,3.138-5.544s2.229-3.608,4.752-4.459,5.28-2.141,5.28-2.141Z" transform="translate(-77.506 -477.764)" fill="#3a5271"/><path d="M184.923,558.4s-.015-.905-.426-.992a29.253,29.253,0,0,0-5.033-.285v1.055s.97.6,5.458.222" transform="translate(-152.258 -472.615)" fill="#72acfb"/><path d="M213.2,511.948c-.026-.33-.692-1.365-1.154-.441s.11,2.354.561,2.31.659-1.034.593-1.869" transform="translate(-179.755 -433.644)" fill="#dba585"/><path d="M136.337,691.62s.725-3.435.347-4.548l-.613-.922a29.474,29.474,0,0,1,.266,5.47" transform="translate(-115.443 -582.13)" fill="#4c71a2"/><path d="M1257.695,1040.522h-.667s.222-2.518-.4-2.543-2.147,2.048-3.061,2.37-5.6.592-5.627-.272,1.8-1.209,2.37-1.455,3.332-2.937,3.826-3.258a9.483,9.483,0,0,0,1.336-2.552l2.618-.116s.148,2.085.306,3.189a9.611,9.611,0,0,1,.109,1.035,19.1,19.1,0,0,1-.814,3.6" transform="translate(-1058.755 -876.138)" fill="#dba585"/><path d="M1342.521,1038.269h-.556v-2.343c-.463.038-2.018,1.51-2.5,1.937s-1.141.406-3.169.536-2.218-1.084-1.9-1.5,1.358-.594,1.9-.851a35.037,35.037,0,0,0,3.237-3.228,5.888,5.888,0,0,0,.914-2.194l2.369.206a14.514,14.514,0,0,0,.255,2.737h0a.029.029,0,0,1,0,.009c.024.107.049.211.076.313.352,1.3-.629,4.376-.629,4.376" transform="translate(-1131.998 -874.384)" fill="#dba585"/><path d="M1300.8,721.149a23.659,23.659,0,0,0-.974,2.652c-.079.534-2.887,7.525-3.082,9.57-.2,2.067-.79,7.587-1,8.377s.474,4.32.579,5.11a160.151,160.151,0,0,1-.9,20.072,5,5,0,0,0,3.9,0s2.792-9.957,2.634-15.7-.887-8.167,0-10.485,6.107-9.272,6.634-10.01,3.827-4.813.7-9.229-8.5-.359-8.5-.359" transform="translate(-1099.035 -610.38)" fill="#2c3d54"/><path d="M1352.479,734.132c-.286,1.9.015,4.4.611,11.35a65.955,65.955,0,0,1-1.045,15.367,8.342,8.342,0,0,1-4.44,0c.054-.489,0-16.942,0-18.409s-.421-3.13-.53-4.812a34.188,34.188,0,0,0-1.208-5.42c-.18-.647-.365-1.3-.546-1.926h0l-.3-1.035c-.846-2.933-1.983-14.255-1.983-14.255s6.3-5.076,9.37-.3,1.493,8.254,1.384,8.85-1.032,8.689-1.318,10.589" transform="translate(-1139.436 -604.606)" fill="#2c3d54"/><path d="M1362.629,787.032c-.049.108-3.189,7.078-4,8.287-.18-.647-.365-1.3-.546-1.927h0s4.438-6.207,4.544-6.359" transform="translate(-1152.199 -667.718)" fill="#1f2a38"/><path d="M1342.521,1052.233h-.556v-2.343c-.463.038-2.018,1.51-2.5,1.937s-1.141.406-3.169.536-2.218-1.085-1.9-1.5,1.358-.594,1.9-.851c2.169.116,4.815-2.933,6.085-2.927.675,0,.669.377.689.448h0a.03.03,0,0,1,0,.009c.024.107.049.211.076.313.352,1.3-.629,4.377-.629,4.377" transform="translate(-1131.998 -888.347)" fill="#202b3a"/><path d="M1257.695,1057.935h-.667s.222-2.518-.4-2.542-2.147,2.048-3.061,2.37-5.6.592-5.627-.272,1.8-1.209,2.37-1.455c1.934-.005,5.08-2.134,6.055-2.566a3.525,3.525,0,0,1,2.031-.172,9.6,9.6,0,0,1,.109,1.035,19.087,19.087,0,0,1-.814,3.6" transform="translate(-1058.755 -893.552)" fill="#202b3a"/><path d="M1272.239,785.64h-4.4a.811.811,0,0,1-.81-.81v-2.774a.811.811,0,0,1,.81-.81h4.4a.811.811,0,0,1,.81.81v2.774a.811.811,0,0,1-.81.81m-4.4-3.85a.267.267,0,0,0-.266.266v2.774a.267.267,0,0,0,.266.266h4.4a.267.267,0,0,0,.267-.266v-2.774a.267.267,0,0,0-.267-.266Z" transform="translate(-1074.948 -662.809)" fill="#827b77"/><rect width="16.501" height="11.822" transform="translate(186.841 121.64)" fill="#c8bcb6"/><path d="M1405.473,615.078l-2.672-.644s.465-9.425,2.071-13.417c.014-.035.073.012.108.019-.015-.09-.032-.18-.048-.27-.034-.187-.069-.375-.1-.56-.408-2.124-.879-3.979-.879-3.979s-3.37-8.482.729-7.819a5.776,5.776,0,0,1,2.582,3.9,53.681,53.681,0,0,1,.846,8.3,38.555,38.555,0,0,1-.939,5.405s-1.585,8.491-1.692,9.063" transform="translate(-1190.002 -499.174)" fill="#39516e"/><path d="M1367.574,545.016a7.8,7.8,0,0,1,.223,4.717s3.687-.24,3.827-.671-.149-4.417.359-5.594-4.409,1.548-4.409,1.548" transform="translate(-1160.249 -460.827)" fill="#dba585"/><path d="M1331.363,578.741s-2.179.775-3.164.99-3.045,1.191-2.877,4.864a76.7,76.7,0,0,0,1.006,8.438,33.253,33.253,0,0,1-.28,7.548,27.616,27.616,0,0,0,11.369,0,25.65,25.65,0,0,1-1.062-4.19c.028-.861,3.631-7.949,3.8-9.069s.894-6.055-.754-7.146-2.989-.947-3.687-1.435-3.332-.35-4.35,0" transform="translate(-1124.395 -490.735)" fill="#3a5271"/><path d="M1330.992,625.449a30.535,30.535,0,0,1-16.026.009,22.045,22.045,0,0,0,1.469-3.945h0a23.587,23.587,0,0,0,.549-2.647h0a23.971,23.971,0,0,0-.221-8.585c1.03-8.478,13.859-11.009,14.886-8.321s-1.991,14.237-2.144,15.227,1.486,8.263,1.486,8.263" transform="translate(-1115.616 -509.832)" fill="#3a5271"/><path d="M1350.875,483.315c-1.482-.508-5.489-1.05-6.515,5.1s1.209,6.256,3.506,6.081,5.889-4.327,6.164-5.589,1.074-4.142-3.155-5.593" transform="translate(-1140.336 -409.8)" fill="#dba585"/><path d="M1351.239,482.93s1.225,2.619,2.83,3.531a7.917,7.917,0,0,0,3.184,3.907s5.78-3.829,2.426-8.378-8.06-.927-8.439.939" transform="translate(-1146.39 -407.055)" fill="#cd7250"/><path d="M1367.113,515.3a.755.755,0,0,1,1.385.038c.389.877-1.006,2.424-1.388,2.34s-.489-1.164,0-2.379" transform="translate(-1159.577 -436.804)" fill="#dba585"/><path d="M1392.928,495.6c.126-.2,3.953-1.969,4.749,1.734s-3.082,8.007-3.761,9.858.307,6.19.307,6.19a12.77,12.77,0,0,1-3.04-4.515c-.775-2.536-1.035-8.929,1.745-13.266" transform="translate(-1179.836 -419.966)" fill="#cd7250"/><path d="M1399.2,498.035a3.861,3.861,0,0,0-1.323,2.389,2.873,2.873,0,0,1,.253-1.838,1.055,1.055,0,0,1,1.07-.551" transform="translate(-1185.914 -422.522)" fill="#3a5271"/><path d="M1271.131,763.218s-.19.784-.308,1.181-.19.883.088,1.093.878.928,1.282,1.257,2.7-.666,2.956-1.057a3.868,3.868,0,0,0-.945-3.021c-.7-.438-1.753-1.053-1.753-1.053Z" transform="translate(-1078.077 -646.156)" fill="#dba585"/><path d="M1290.193,588.371s-3.056,1.211-3.237,5.459a60.161,60.161,0,0,1-.513,7.12,23.432,23.432,0,0,1-1.252,4.876c-.746,1.538-3.95,9-3.95,9l2.788,1.615s4.716-8.835,5.13-10.087,2.121-9.969,2.257-11.438c.11-1.184,1.672-6.461-1.223-6.549" transform="translate(-1087.004 -499.174)" fill="#3a5271"/><path d="M1290.068,677.978a5.506,5.506,0,0,1-3.488-.761,42.058,42.058,0,0,1-1.39,3.986c-.483,1.02-3.95,9-3.95,9l2.788,1.615s4.724-8.533,5.13-10.087.909-3.757.909-3.757" transform="translate(-1087.004 -574.551)" fill="#3a5271"/><path d="M1324.659,667.044a23.609,23.609,0,0,0,.549-2.647h0s.588-1.251.787-1.849,1.677-7.947,1.677-7.947,1.563,6.9-3.012,12.443" transform="translate(-1123.84 -555.363)" fill="#2c3d54"/><path d="M1412.651,652.766s-1.767,8.142-1.776,8.4.5,3.578.651,4.326Z" transform="translate(-1196.985 -553.807)" fill="#2c3d54"/></g></g></g></g></svg>