<svg xmlns="http://www.w3.org/2000/svg" xmlns:xlink="http://www.w3.org/1999/xlink" width="231.767" height="169.992" viewBox="0 0 231.767 169.992"><defs><linearGradient id="a" x1="0.5" x2="0.5" y2="1" gradientUnits="objectBoundingBox"><stop offset="0" stop-color="#529d2e"/><stop offset="1" stop-color="#294f17"/></linearGradient><clipPath id="b"><rect width="231.767" height="153.208" fill="none"/></clipPath><clipPath id="c"><rect width="231.767" height="148.608" fill="none"/></clipPath><clipPath id="d"><path d="M705.122,1.477a1.2,1.2,0,0,0-1.017.765,1.531,1.531,0,0,0,.389,1.484,3.935,3.935,0,0,0,1.3.824l2.121.983a21.66,21.66,0,0,1,1.391,2.32,5.312,5.312,0,0,0-1.488-1.212,3.724,3.724,0,0,0-1.222-.489,1.7,1.7,0,0,0-1.26.244,1.313,1.313,0,0,0-.556,1.194,1.415,1.415,0,0,0,1,1.107,3.7,3.7,0,0,0,1.5.062l2.36-.227c.115.242.227.485.333.731a23.344,23.344,0,0,1,.93,2.56,5.04,5.04,0,0,0-1.672-1.339,3.708,3.708,0,0,0-1.236-.446,1.707,1.707,0,0,0-1.252.288,1.32,1.32,0,0,0-.519,1.213,1.406,1.406,0,0,0,1.031,1.071,3.706,3.706,0,0,0,1.505.008l2.285-.3a24.164,24.164,0,0,1,.717,3.718,4.857,4.857,0,0,0-1.808-1.382,3.69,3.69,0,0,0-1.251-.395,1.712,1.712,0,0,0-1.241.34,1.326,1.326,0,0,0-.475,1.233,1.4,1.4,0,0,0,1.069,1.028,3.708,3.708,0,0,0,1.5-.054l2.241-.39c.01.1.02.206.029.31a23.891,23.891,0,0,1,.042,3.418,4.924,4.924,0,0,0-1.764-1.326,3.689,3.689,0,0,0-1.251-.395,1.713,1.713,0,0,0-1.241.34,1.326,1.326,0,0,0-.475,1.233,1.4,1.4,0,0,0,1.069,1.028,3.707,3.707,0,0,0,1.5-.054l2.126-.37a22.974,22.974,0,0,1-.632,3.843c-.035.137.168.169.2.034a22.952,22.952,0,0,0,.638-3.913l.066-.011,2.193.041a3.789,3.789,0,0,0,1.525-.18,1.46,1.46,0,0,0,.938-1.2,1.322,1.322,0,0,0-.647-1.169,1.729,1.729,0,0,0-1.3-.149,3.83,3.83,0,0,0-1.208.593,5.294,5.294,0,0,0-1.532,1.5A24.3,24.3,0,0,0,712,16.379l.018,0-.02-.011c0-.017,0-.034,0-.051l2.272-.763a3.85,3.85,0,0,0,1.368-.675,1.511,1.511,0,0,0,.527-1.433,1.225,1.225,0,0,0-.939-.875,1.706,1.706,0,0,0-1.251.292,4,4,0,0,0-.954.954A5.239,5.239,0,0,0,711.962,16a24.538,24.538,0,0,0-.69-3.632c-.01-.036-.021-.072-.031-.108l2.016-1.2a4.007,4.007,0,0,0,1.212-.959,1.541,1.541,0,0,0,.247-1.518,1.178,1.178,0,0,0-1.084-.652,1.75,1.75,0,0,0-1.17.559,4.184,4.184,0,0,0-.755,1.142,5.69,5.69,0,0,0-.616,2.11,23.279,23.279,0,0,0-1.278-3.321l1.675-1.705a4.224,4.224,0,0,0,.953-1.253,1.549,1.549,0,0,0-.111-1.537,1.137,1.137,0,0,0-1.2-.342,1.836,1.836,0,0,0-1,.854,4.374,4.374,0,0,0-.467,1.308,5.937,5.937,0,0,0-.128,2.1,21.824,21.824,0,0,0-1.476-2.472l-.006-.007a5.223,5.223,0,0,0-.85-2.4,4.108,4.108,0,0,0-.859-1.056,1.783,1.783,0,0,0-1.1-.436c-.038,0-.076,0-.114,0" transform="translate(-704.039 -1.472)" fill="#3a8416"/></clipPath><clipPath id="e"><path d="M776.739,24.211a1.121,1.121,0,0,1,.529-1.382c.532-.361,1.155-.324,1.392.084a1.12,1.12,0,0,1-.529,1.382,1.36,1.36,0,0,1-.745.245.72.72,0,0,1-.647-.328M768.725,13.7c-.081-.334.027-.651.249-.715s.465.152.548.482-.027.651-.249.715a.273.273,0,0,1-.079.012c-.2,0-.4-.2-.469-.494m9.9-2.051a.656.656,0,0,1,.31-.8c.311-.211.675-.192.815.046a.657.657,0,0,1-.308.811.806.806,0,0,1-.437.142.423.423,0,0,1-.381-.2m-2.418-8.374a4.839,4.839,0,0,0-2.028,2.954c-.159.827-.137,1.867-.774,2.3a7.571,7.571,0,0,1-.1-4.7,8.27,8.27,0,0,0-2.388,1.707,3.478,3.478,0,0,0-.9,2.909c.164.686.641,1.346.377,2.048a.981.981,0,0,1-1.35.557,1.751,1.751,0,0,1-.693-1.478,7.48,7.48,0,0,1,.261-1.837,5.647,5.647,0,0,0,.186-1.839c-.661,1.66-2.909,2.03-3.323,3.773a2.793,2.793,0,0,0,.39,2.016c.33.575.768,1.055,1.075,1.651a1.993,1.993,0,0,1,.262,1.191c-.053.429-.353.872-.716.912-.5.058-.78-.553-1.009-1.043a4.472,4.472,0,0,0-4.13-2.662c.82,1.1.858,2.758.828,4.3s-.055,3.19.671,4.376c1.287,2.1,4.832,3.211,6.872,2.054a2.588,2.588,0,0,0,.533-.388c0,.064,0,.124.005.186a3.361,3.361,0,0,0,.043.4,5.5,5.5,0,0,0,5.583,4.209c1.315-.174,2.467-1.27,3.536-2.288s2.27-2.075,3.581-2.115a4.325,4.325,0,0,0-4.57-1.649c-.493.126-1.1.3-1.387-.146a1.1,1.1,0,0,1,.178-1.185,1.757,1.757,0,0,1,1.014-.557c.62-.131,1.245-.088,1.867-.185a2.425,2.425,0,0,0,1.678-1c.964-1.465-.229-3.544.515-5.16a5.148,5.148,0,0,0-1.181,1.343,6.794,6.794,0,0,1-1.13,1.4,1.53,1.53,0,0,1-1.5.4,1.121,1.121,0,0,1-.482-1.466c.327-.673,1.1-.711,1.694-1.022a3.367,3.367,0,0,0,1.477-2.623,9.478,9.478,0,0,0-.345-3.058,6.729,6.729,0,0,1-3.384,2.968c-.111-.807.641-1.46,1.121-2.126a5.137,5.137,0,0,0,.774-3.577,10.55,10.55,0,0,0-.76-2.653,8.872,8.872,0,0,0-2.377,1.1" transform="translate(-761.35 -2.176)" fill="#fd963d"/></clipPath><clipPath id="f"><path d="M37.441,210.5a2.542,2.542,0,0,0-.791,1.5,10.406,10.406,0,0,0-.159,2.707.246.246,0,0,0-.026.107,13.023,13.023,0,0,0,.7,4.5c.107.317.226.631.355.941a6.146,6.146,0,0,0-2.959-1.7,1.4,1.4,0,0,0-1.336.206,1.23,1.23,0,0,0,.066,1.586,2.235,2.235,0,0,0,1.491.646,9.5,9.5,0,0,0,2.948-.271,9.105,9.105,0,0,0,1.078,1.784,9.7,9.7,0,0,0,2.245,2.034,5.852,5.852,0,0,0-3.456-.092,1.491,1.491,0,0,0-1.1.839,1.181,1.181,0,0,0,.733,1.379,2.172,2.172,0,0,0,1.6-.156,10.372,10.372,0,0,0,2.573-1.742c1.394.879,2.937,1.528,4.38,2.27.454.234.9.479,1.328.749a5.854,5.854,0,0,0-3.74-.2,1.49,1.49,0,0,0-1.1.837,1.181,1.181,0,0,0,.731,1.38,2.173,2.173,0,0,0,1.6-.154,10.605,10.605,0,0,0,2.632-1.785,9.961,9.961,0,0,1,1.3.99,17.627,17.627,0,0,1,2.062,2.266q.251.324.493.657a5.893,5.893,0,0,0-3.354-.637,1.449,1.449,0,0,0-1.208.647,1.205,1.205,0,0,0,.526,1.484,2.169,2.169,0,0,0,1.6.11,9.742,9.742,0,0,0,2.694-1.237,33.853,33.853,0,0,1,2.626,4.477,6.063,6.063,0,0,0-3.255-1.523,1.407,1.407,0,0,0-1.312.343,1.227,1.227,0,0,0,.207,1.573,2.207,2.207,0,0,0,1.542.49,9.721,9.721,0,0,0,2.961-.588q.151.311.3.624c.533,1.146,1.02,2.323,1.444,3.525a6.055,6.055,0,0,0-3.183-1.459,1.407,1.407,0,0,0-1.312.343,1.228,1.228,0,0,0,.207,1.573,2.207,2.207,0,0,0,1.541.49,9.463,9.463,0,0,0,2.879-.563,31.626,31.626,0,0,1,1.128,4.218c.057.3.484.182.427-.116a31.757,31.757,0,0,0-1.143-4.257,6.6,6.6,0,0,0,2.508-2.892,1.713,1.713,0,0,0,.128-1.452,1.034,1.034,0,0,0-1.45-.3,2.511,2.511,0,0,0-.935,1.414,10.568,10.568,0,0,0-.427,2.728q-.444-1.243-.967-2.449-.344-.8-.721-1.578a6.564,6.564,0,0,0,2.5-2.869,1.694,1.694,0,0,0,.127-1.444,1.039,1.039,0,0,0-1.451-.3,2.493,2.493,0,0,0-.934,1.405,10.734,10.734,0,0,0-.431,2.819,34.884,34.884,0,0,0-2.7-4.572,6.785,6.785,0,0,0,2-3.221,1.694,1.694,0,0,0-.088-1.447,1.031,1.031,0,0,0-1.477-.052,2.564,2.564,0,0,0-.715,1.547,10.513,10.513,0,0,0-.02,2.755,14.846,14.846,0,0,0-3.879-3.918l-.1-.059a6.951,6.951,0,0,0,1.58-3.527,1.683,1.683,0,0,0-.279-1.419,1.033,1.033,0,0,0-1.469.175,2.617,2.617,0,0,0-.5,1.641,11.146,11.146,0,0,0,.4,2.968c-1.8-1.067-3.785-1.782-5.545-2.913a6.944,6.944,0,0,0,1.624-3.577,1.682,1.682,0,0,0-.279-1.419,1.033,1.033,0,0,0-1.469.175,2.617,2.617,0,0,0-.5,1.641,11.385,11.385,0,0,0,.422,3.048,10.89,10.89,0,0,1-1.253-.969,8.876,8.876,0,0,1-1.96-2.638,6.6,6.6,0,0,0,2.5-3.055,1.7,1.7,0,0,0,.07-1.449,1.036,1.036,0,0,0-1.461-.238,2.513,2.513,0,0,0-.879,1.446,11.541,11.541,0,0,0-.324,3.1,12.427,12.427,0,0,1-1.152-5.321,6.737,6.737,0,0,0,2.027-2.994,1.7,1.7,0,0,0-.015-1.45.889.889,0,0,0-.761-.379,1.175,1.175,0,0,0-.712.242" transform="translate(-32.962 -210.257)" fill="#3a8416"/></clipPath><clipPath id="g"><rect width="231.767" height="143.089" fill="none"/></clipPath><clipPath id="h"><path d="M1059.555,375.773c.188,1.635,1.071,3.421,1.191,4.444,1.879-.748,4.161-1.048,4.213-1.385l1.809-6.009c-1.094.547-5.132,2.1-7.212,2.95" transform="translate(-1059.555 -372.823)" fill="#529d2e"/></clipPath><clipPath id="j"><path d="M1072.425,460.551l-6.217.757,0,.012-.008.036c-.025.123-.1.5-.214,1.063-.114.588-.268,1.384-.444,2.327-.931,5.01-2.474,14.129-2.148,17.845.076.892,1.9,15.216,2.128,16.544a10.447,10.447,0,0,0,3.465,0c.652-3.275.617-14.728-.128-16.884a81.214,81.214,0,0,1,3.145-8.127,16.107,16.107,0,0,0,1.32-11.567q-.218-.969-.541-2.049Z" transform="translate(-1063.347 -460.507)" fill="#263238"/></clipPath><clipPath id="l"><path d="M1092.565,485.815c.563.97,6.23,12.026,6.791,12.91a8.461,8.461,0,0,0,3.544-1.533,47.356,47.356,0,0,0-3.52-10.909c-1-2.165-1.924-3.7-1.945-6.225-.05-6.181.8-12.378-3.256-16.92l-.228,0-5.526-.077s1.494,18.206,4.139,22.758" transform="translate(-1088.426 -463.057)" fill="#263238"/></clipPath><clipPath id="m"><path d="M1078.143,372.372a4.541,4.541,0,0,0-2.5,1.585c-1.82,2.177-2.181,5.863-2.142,7.574.082,3.653-.419,7.408-.246,9.119a1.145,1.145,0,0,0,.788,1,1.011,1.011,0,0,0,.114.029,20.679,20.679,0,0,0,3.8.336c.314,0,.629,0,.947-.019q1.223-.044,2.482-.209c.334-.04.669-.088,1.007-.142a1.045,1.045,0,0,0,.448-.192,1.191,1.191,0,0,0,.454-.788c.314-2.262,1.147-8.552,1.193-12.178a13.032,13.032,0,0,0-.064-1.716,5.318,5.318,0,0,0-3.927-4.42Z" transform="translate(-1073.222 -372.349)" fill="#529d2e"/></clipPath><clipPath id="o"><path d="M15.571,358.9c-.056,1.367,1.107,2.4,2.212,3.084,3.894,2.4,8.4,3.337,12.613,5s8.442,4.411,10.137,8.879A23.188,23.188,0,0,1,41.6,380.6l1.078-1.34c-.109-.5-.205-1-.306-1.5a23.637,23.637,0,0,0-1.147-4.061,21.93,21.93,0,0,0-4.3-6.765,24.922,24.922,0,0,0-6.253-4.9,30.944,30.944,0,0,0-8.912-3.177,43.327,43.327,0,0,0-6-.754,2.361,2.361,0,0,0-.184.806" transform="translate(-15.569 -358.098)" fill="#67c53a"/></clipPath><clipPath id="p"><path d="M17.682,344.3a3.883,3.883,0,0,0-1.025,1.251,1.692,1.692,0,0,0-.077.171,43.318,43.318,0,0,1,6,.754,30.946,30.946,0,0,1,8.912,3.177,24.921,24.921,0,0,1,6.253,4.9,21.93,21.93,0,0,1,4.3,6.765,23.637,23.637,0,0,1,1.147,4.061c.1.5.2,1,.306,1.5l.13-.162,1.459-1.817a13.844,13.844,0,0,0-1.412-7.515C40.2,349.646,32.959,344,25.032,342.851a15.292,15.292,0,0,0-2.187-.168,7.888,7.888,0,0,0-5.163,1.619" transform="translate(-16.58 -342.683)" fill="#529d2e"/></clipPath><clipPath id="r"><path d="M14.948,439.44a30.423,30.423,0,0,0-9.27,1.6,44.427,44.427,0,0,0-5.648,2.306,2.368,2.368,0,0,0,.183.806c.537,1.24,2.014,1.584,3.287,1.64,4.487.2,8.885-1.2,13.339-1.813s9.383-.272,12.806,2.852a21.442,21.442,0,0,1,2.973,3.664L33,448.772c-.312-.39-.612-.787-.916-1.181a21.74,21.74,0,0,0-2.761-3.035,19.882,19.882,0,0,0-6.72-3.869,23.16,23.16,0,0,0-7.557-1.247h-.095" transform="translate(-0.029 -439.44)" fill="#67c53a"/></clipPath><clipPath id="s"><path d="M6.271,419.009c-2.409.931-4.825,2.435-5.9,4.932A4.2,4.2,0,0,0,0,425.558a1.767,1.767,0,0,0,0,.19,44.427,44.427,0,0,1,5.648-2.306,30.423,30.423,0,0,1,9.27-1.6,23.173,23.173,0,0,1,7.651,1.247,19.881,19.881,0,0,1,6.72,3.869,21.74,21.74,0,0,1,2.761,3.035c.3.394.6.791.916,1.181l.046-.208.515-2.335a12.89,12.89,0,0,0-4.48-5.968,23.568,23.568,0,0,0-14.692-5.144,22.432,22.432,0,0,0-8.092,1.491" transform="translate(0 -417.518)" fill="#529d2e"/></clipPath><clipPath id="u"><rect width="123.186" height="84.293" fill="none"/></clipPath><clipPath id="v"><path d="M162.38,81.845a2.409,2.409,0,0,0-2.368,2.445v78.733a2.406,2.406,0,0,0,2.368,2.445h117.8a2.406,2.406,0,0,0,2.366-2.445V84.29a2.439,2.439,0,0,0-1.523-2.283,2.265,2.265,0,0,0-.843-.162Z" transform="translate(-160.012 -81.845)" fill="#f3f9ff"/></clipPath><clipPath id="w"><path d="M162.38,81.845a2.409,2.409,0,0,0-2.368,2.445v5.123H282.55V84.29a2.439,2.439,0,0,0-1.523-2.283,2.265,2.265,0,0,0-.843-.162Z" transform="translate(-160.012 -81.845)" fill="#2a5f10"/></clipPath><clipPath id="y"><rect width="47.747" height="16.058" fill="none"/></clipPath><clipPath id="z"><path d="M180.721,431.652l-42.97.437a3.38,3.38,0,0,0-3.216,3.521l.132,15.023a2.193,2.193,0,0,0,2.134,2.25l44.1-.448A2.2,2.2,0,0,0,183,450.143l-.143-16.241a2.2,2.2,0,0,0-2.113-2.25h-.02" transform="translate(-134.535 -431.652)" fill="#fc8116"/></clipPath><clipPath id="ab"><path d="M173.972,453.97l-15.129.154c-3.139.032-4.8,1.572-5.637,5.408a2.2,2.2,0,0,1-2.238,2.147l-21.432.218a3.779,3.779,0,0,0-3.857,4.019l2.761,28.493a3.814,3.814,0,0,0,3.922,3.333l39.146-.4a3.826,3.826,0,0,0,3.863-3.412l2.562-32.375q.012-.151.011-.3l-.032-3.646a3.787,3.787,0,0,0-3.9-3.636h-.043" transform="translate(-125.661 -453.97)" fill="#fc8116"/></clipPath><clipPath id="ad"><rect width="49.518" height="43.719" fill="none"/></clipPath><clipPath id="ae"><rect width="18.403" height="7.058" fill="none"/></clipPath><clipPath id="af"><rect width="16.14" height="1.897" fill="none"/></clipPath><clipPath id="ag"><rect width="1.69" height="1.879" fill="none"/></clipPath><clipPath id="ah"><path d="M938.484,203.033l-.013,11.463a2.5,2.5,0,0,0,2.4,2.585l13.027.017a2.5,2.5,0,0,0,2.406-2.579l.013-11.463a2.5,2.5,0,0,0-2.4-2.585l-13.026-.017h0a2.5,2.5,0,0,0-2.4,2.579" transform="translate(-938.471 -200.454)" fill="#fc8116"/></clipPath><clipPath id="aj"><rect width="17.591" height="16.196" fill="none"/></clipPath><clipPath id="ak"><rect width="8.376" height="3.7" fill="none"/></clipPath><clipPath id="al"><rect width="0.656" height="0.727" fill="none"/></clipPath><clipPath id="an"><path d="M942.424,98.173a1.954,1.954,0,0,0-1.879,2.02v12.416a2.115,2.115,0,0,0,.329,1.143,1.844,1.844,0,0,0,1.55.878H956.13a1.954,1.954,0,0,0,1.88-2.02V100.193a2.068,2.068,0,0,0-.764-1.626,1.783,1.783,0,0,0-1.116-.394Z" transform="translate(-940.545 -98.173)" fill="url(#a)"/></clipPath><linearGradient id="ao" x1="-7.368" y1="5.127" x2="-7.36" y2="5.127" xlink:href="#a"/><clipPath id="aq"><rect width="17.135" height="16.062" fill="none"/></clipPath><clipPath id="ar"><rect width="8.163" height="4.498" fill="none"/></clipPath><clipPath id="as"><path d="M952.642,316.367l-15.23.125a1.459,1.459,0,0,0-1.392,1.518l.073,10.224a1.456,1.456,0,0,0,1.413,1.5l15.23-.125a1.459,1.459,0,0,0,1.392-1.518l-.073-10.224a1.457,1.457,0,0,0-1.4-1.5h-.011" transform="translate(-936.02 -316.367)" fill="#e4f476"/></clipPath><clipPath id="au"><rect width="18.022" height="13.369" fill="none"/></clipPath><clipPath id="av"><rect width="2.743" height="4.366" fill="none"/></clipPath><clipPath id="aw"><rect width="0.28" height="0.312" fill="none"/></clipPath><clipPath id="ay"><rect width="0.937" height="1.916" fill="none"/></clipPath><clipPath id="az"><path d="M8.831,0h0a8.83,8.83,0,0,1,8.83,8.83v2.727a8.831,8.831,0,0,1-8.831,8.831h0A8.831,8.831,0,0,1,0,11.557V8.831A8.831,8.831,0,0,1,8.831,0Z" fill="#fc8116"/></clipPath><clipPath id="bb"><rect width="17.661" height="20.388" fill="none"/></clipPath><clipPath id="bc"><rect width="19.128" height="60.017" fill="none"/></clipPath><clipPath id="bd"><path d="M2.41,0H13.828a2.409,2.409,0,0,1,2.409,2.409v.248a2.409,2.409,0,0,1-2.409,2.409H2.41A2.41,2.41,0,0,1,0,2.656V2.41A2.41,2.41,0,0,1,2.41,0Z" fill="#fde07e"/></clipPath><clipPath id="be"><path d="M2.41,0H13.827a2.41,2.41,0,0,1,2.41,2.41V8.546a2.409,2.409,0,0,1-2.409,2.409H2.409A2.409,2.409,0,0,1,0,8.546V2.41A2.41,2.41,0,0,1,2.41,0Z" fill="#e4f476"/></clipPath><clipPath id="bf"><path d="M2.409,0H13.827a2.41,2.41,0,0,1,2.41,2.41v9.8a2.409,2.409,0,0,1-2.409,2.409H2.409A2.409,2.409,0,0,1,0,12.211v-9.8A2.409,2.409,0,0,1,2.409,0Z" fill="#3a8416"/></clipPath><clipPath id="bg"><rect width="16.237" height="17.022" rx="3.502" fill="#fc8116"/></clipPath><clipPath id="bi"><rect width="29.342" height="31.473" fill="none"/></clipPath><clipPath id="bj"><rect width="37.481" height="0.976" fill="#6d6e71"/></clipPath><clipPath id="bl"><rect width="13.73" height="4.251" fill="#fde07e"/></clipPath><clipPath id="bm"><rect width="13.73" height="4.251" fill="#dbf049"/></clipPath><clipPath id="bn"><rect width="13.73" height="4.252" fill="#fc8116"/></clipPath><clipPath id="bo"><rect width="13.73" height="4.251" fill="#3a8416"/></clipPath><clipPath id="bp"><rect width="7.363" height="7.912" fill="none"/></clipPath><clipPath id="bq"><path d="M1084.249,388.026a12.462,12.462,0,0,0,2.584,4.716c2.064-1.239,6.873-6.022,4.453-8.9a1.5,1.5,0,0,0-1.191-.586c-1.878,0-4.415,3.176-5.846,4.774" transform="translate(-1084.249 -383.252)" fill="#529d2e"/></clipPath><clipPath id="bs"><path d="M487.618,472.935l-.092.024a64.316,64.316,0,0,0-2.115,15.452,55.591,55.591,0,0,0,1.291,11.217,2.353,2.353,0,0,0,2.2,2.05,4.979,4.979,0,0,0,1.543-.287,6.453,6.453,0,0,0,2.8-2.129c1.066-1.31,2.595-.27,4.272-.046,1.243.17,2.155-1.433,1.633-2.855-1.047-2.837-2.636-6.8-2.321-11.061.442-5.968-.829-9.032-2.567-11.35a4.539,4.539,0,0,0-3.721-1.369,13.411,13.411,0,0,0-2.925.354" transform="translate(-485.411 -472.581)" fill="#263238"/></clipPath><clipPath id="bu"><path d="M467.377,343.47c-.1,2.6,0,6.431.541,7.923.456,1.258,1.721,3.811,2.7,5.7a11.159,11.159,0,0,1,.555,1.237,11.014,11.014,0,0,1,.577,2.185,25.841,25.841,0,0,1,.287,8.121,1.1,1.1,0,0,0,1.134,1.319,5.1,5.1,0,0,1,.559-.032c2.276.02,3.3,1.794,6.3.147-.621-1.69-1.385-4.772-1.12-6.521.3-1.982.4-7.781.4-7.781l-1.92-1.465H475.48l-.474.286a1.251,1.251,0,0,1-1.746-.493,24.561,24.561,0,0,0-2.654-4.108,56.594,56.594,0,0,0-1.432-7.412Z" transform="translate(-467.344 -342.573)" fill="#529d2e"/></clipPath><clipPath id="bw"><path d="M528.936,415.1c1.391,1.365,2.748,1.882,4.763,3.036a14.312,14.312,0,0,0-2.851,3.814l1.443,1.157a20.4,20.4,0,0,0,3.034-3.235c.277-.6.563-1.229.846-1.855.007-.032.007-.064.01-.092.169-2.583-6.585-8.458-6.585-8.458Z" transform="translate(-528.936 -409.469)" fill="none"/></clipPath><linearGradient id="bx" x1="-13.09" y1="4.57" x2="-13.065" y2="4.57" gradientUnits="objectBoundingBox"><stop offset="0" stop-color="#ff9cfe"/><stop offset="1" stop-color="#ff7ae4"/></linearGradient><clipPath id="bz"><path d="M0,0,2.431-.044,2.387,2.233l-2.431.044Z" transform="translate(0 2.352) rotate(-74.24)" fill="none"/></clipPath><linearGradient id="ca" x1="-17.508" y1="3.93" x2="-17.462" y2="3.93" gradientUnits="objectBoundingBox"><stop offset="0" stop-color="#565fd6"/><stop offset="1" stop-color="#3f0ba1"/></linearGradient><clipPath id="cb"><path d="M386.851,647.061l.79.282.632.225.474.17.632.225,11.345,4.053c.837.3,1.816-.54,2.16-1.852s-.081-2.576-.94-2.792L390.3,644.453l-.648-.163-.487-.121-.648-.163-.811-.2Z" transform="translate(-386.851 -643.803)" fill="#727997"/></clipPath><clipPath id="cd"><path d="M283.266,587.765a10.607,10.607,0,0,0,.865,14.219,8.93,8.93,0,0,0,13.233-.929,10.607,10.607,0,0,0-.865-14.219,8.973,8.973,0,0,0-6.18-2.5,9.087,9.087,0,0,0-7.052,3.431" transform="translate(-280.938 -584.334)" fill="#fdd85e"/></clipPath><clipPath id="ce"><path d="M284.722,601.207c-4.936-1.5-7.8-7.029-6.4-12.356s6.534-8.432,11.47-6.935,7.8,7.029,6.4,12.356a9.451,9.451,0,0,1-8.953,7.312,8.651,8.651,0,0,1-2.517-.376m-7.116-12.572c-1.508,5.743,1.593,11.727,6.914,13.341s10.876-1.746,12.384-7.488-1.593-11.727-6.914-13.341a9.318,9.318,0,0,0-2.709-.4,10.215,10.215,0,0,0-9.676,7.893" transform="translate(-277.225 -580.743)" fill="none"/></clipPath><linearGradient id="cf" x1="-1.502" y1="1.033" x2="-1.496" y2="1.033" xlink:href="#ca"/><clipPath id="ch"><path d="M790.627,641.6l.11.852.055.423.119.914.068.525.117.9.072.549.115.883.191,1.467h5.873l.159-1.352.019-.164.16-1.359.017-.145.164-1.387.015-.123.133-1.131.1-.852Z" transform="translate(-790.627 -641.604)" fill="#455a64"/></clipPath><clipPath id="ci"><path d="M787.54,633.84a.773.773,0,1,0,0,1.532h7.193a.773.773,0,1,0,0-1.532Z" transform="translate(-786.666 -633.84)" fill="#304149"/></clipPath><clipPath id="ck"><rect width="7.486" height="6.513" fill="none"/></clipPath></defs><g transform="translate(8721.289 5303.007)"><path d="M20,0H185.588a20,20,0,0,1,20,20V159.212a0,0,0,0,1,0,0H0a0,0,0,0,1,0,0V20A20,20,0,0,1,20,0Z" transform="translate(-8705.96 -5303.007)" fill="#c2e8b0"/><path d="M267.879,643.757c0,6.85-50.421,12.4-112.619,12.4s-112.619-5.553-112.619-12.4,50.421-12.4,112.619-12.4,112.619,5.553,112.619,12.4" transform="translate(-8758.306 -5793.955)" fill="#455a64"/><g transform="translate(-8721.289 -5286.223)" clip-path="url(#b)"><g clip-path="url(#c)"><path d="M202.095,666.369c0,1.464-21.011,2.65-46.929,2.65s-46.929-1.187-46.929-2.65,21.011-2.65,46.929-2.65,46.929,1.187,46.929,2.65" transform="translate(-88.372 -532.823)" fill="#d3dcf0"/><path d="M786.167,668.579c0,.706-3.251,1.279-7.262,1.279s-7.262-.573-7.262-1.279,3.251-1.279,7.262-1.279,7.262.573,7.262,1.279" transform="translate(-630.02 -535.698)" fill="#d3dcf0"/><path d="M1045.885,675.975c0,.706-7.843,1.279-17.519,1.279s-17.519-.573-17.519-1.279,7.844-1.279,17.519-1.279,17.519.573,17.519,1.279" transform="translate(-825.322 -541.635)" fill="#d3dcf0"/></g><g transform="translate(129.215 0.29)"><g clip-path="url(#d)"><path d="M0,0,24.014-.843l-.9,26.067L-.9,26.067Z" transform="matrix(0.791, -0.612, 0.612, 0.791, -10.538, 8.672)" fill="#3a8416"/></g></g><g transform="translate(139.734 0.429)"><g clip-path="url(#e)"><path d="M0,0,32.742-1.008,31.753,30.01-.989,31.018Z" transform="translate(-10.142 18.63) rotate(-59.674)" fill="#fd963d"/></g></g><g transform="translate(6.05 41.466)"><g clip-path="url(#f)"><path d="M0,0,43.766-1.573,42.192,42.218-1.573,43.791Z" transform="translate(-16.757 17.803) rotate(-44.913)" fill="#3a8416"/></g></g><g clip-path="url(#g)"><path d="M1025.155,351.645s1.6,8.332,3.641,8.849a5.537,5.537,0,0,0,3.2-.464c1.879-.748,3.591-2.028,3.643-2.365l2.261-4.815c-1.094.547-7.807,3.083-8.313,3.469a53.43,53.43,0,0,1-2.729-5.023s.145-2.185-.414-2.409c-.5-.2-.257,1.087-.391.9-.147-.2-.891-2.381-1.43-1.725-1.2,1.46.53,3.579.53,3.579" transform="translate(-836.227 -279.323)" fill="#f9cbcb"/></g><g transform="translate(194.464 73.527)"><g clip-path="url(#h)"><path d="M0,0,9.792-.255l-.26,9.5L-.26,9.5Z" transform="translate(-2.555 6.174) rotate(-66.026)" fill="#529d2e"/></g></g><g clip-path="url(#g)"><path d="M1068.781,482.237a38.215,38.215,0,0,1,.572,4.974,66.824,66.824,0,0,1-.807,13.517l-1.7-.271s-1.874-10.242-2.743-15.476c-.224-1.328-.392-2.513-.468-3.4-.446-5.088,2.568-19.3,2.761-20.219l.008-.035,0-.013,6.572-.8c3.053,10.213-1.164,12.545-4.2,21.727" transform="translate(-868.383 -369.69)" fill="#f1cccd"/></g><g transform="translate(195.16 90.819)"><g clip-path="url(#j)"><path d="M0,0,40.436-.849l-.5,22.447L-.5,22.447Z" transform="translate(-11.144 34.934) rotate(-71.525)" fill="#263238"/></g></g><g clip-path="url(#g)"><path d="M1099.529,504.491l2.836-4.865s-2.922-5.559-5.287-9.255c-.561-.885-1.091-1.658-1.544-2.231-3.238-4.085-4.93-24.673-4.93-24.673h5.354c4.2,4.7,3.14,11.169,3.265,17.561a13.967,13.967,0,0,0,1.61,6.217c.2.376.384.756.56,1.146,1.225,2.722,1.951,5.914,2.621,11.157l1.328,1.961Z" transform="translate(-890.441 -372.065)" fill="#f1cccd"/></g><g transform="translate(199.763 91.322)"><g clip-path="url(#l)"><path d="M0,0,33.373-1.188,32.1,35.1-1.275,36.285Z" transform="translate(-16.329 14.645) rotate(-39.851)" fill="#263238"/></g></g><g transform="translate(196.973 73.433)"><g clip-path="url(#m)"><path d="M0,0,21.664-.779l-.786,21.91L-.786,21.91Z" transform="matrix(0.72, -0.694, 0.694, 0.72, -9.279, 9.466)" fill="#529d2e"/></g></g><g clip-path="url(#g)"><path d="M1056.362,661.731c-2.513,1.131-5.284.97-5.492,3.714l7.772-.047a8.964,8.964,0,0,0-.339-3.639Z" transform="translate(-858 -531.227)" fill="#1c2478"/><path d="M1136.275,643.882c-1.9,2.264-4.574,3.648-3.826,6.258l7.263-4.23a3.8,3.8,0,0,0-1.66-2.725Z" transform="translate(-924.501 -516.339)" fill="#1c2478"/><path d="M1092.7,334.1c.889.3,1.248.772,2.384.22,1.729-.84,3.19-4.056.893-5.511a1.022,1.022,0,0,0-.924-.849,12.649,12.649,0,0,0-2.06.126c-.834-.015-2.015-.938-2.742.365s1.076,2.317,1.98,2.959.611,1.749.469,2.688" transform="translate(-890.019 -263.118)" fill="#1c2478"/><path d="M1102.48,361.117c-.993,1.067-1.93,1.272-2.769.019l.236-2.059.1-.867h2.2l.042.537Z" transform="translate(-897.877 -287.565)" fill="#f9cbcb"/><path d="M1103.032,355.072a2.4,2.4,0,0,1-2.446.6l.174-1.525,2.211-1Z" transform="translate(-898.591 -283.507)" fill="#f0b4b4"/><path d="M1093.463,337.205c-.4,1.225-.8,3.934.167,4.941.612.637,2.835.391,3.289-1.363.536-.417.93-1.434.436-1.9-.352-.329-.8.54-1.416.4-.233-.054.483-1.728-.245-2.018s-1.5.338-2.23-.062" transform="translate(-892.421 -270.689)" fill="#f9cbcb"/></g><g transform="translate(2.857 70.623)"><g clip-path="url(#o)"><path d="M0,0,34.088-1.107,32.92,33.851-1.169,34.958Z" transform="translate(-9.653 15.74) rotate(-56.763)" fill="#67c53a"/></g></g><g transform="translate(3.043 67.583)"><g clip-path="url(#p)"><path d="M0,0,36.472-1.185,35.225,36.13-1.247,37.315Z" transform="translate(-10.324 16.929) rotate(-56.763)" fill="#529d2e"/></g></g><g clip-path="url(#g)"><path d="M43.63,378.4l-.13.162c-.109-.5-.205-1-.306-1.5A23.619,23.619,0,0,0,42.047,373a21.931,21.931,0,0,0-4.3-6.764,24.927,24.927,0,0,0-6.253-4.9,30.947,30.947,0,0,0-8.912-3.177,43.356,43.356,0,0,0-6-.754,1.784,1.784,0,0,1,.077-.17,42.412,42.412,0,0,1,7.08,1,29.781,29.781,0,0,1,8.639,3.416,24.881,24.881,0,0,1,6.073,5.128,21.8,21.8,0,0,1,4.038,6.939,31.978,31.978,0,0,1,1.045,4.213c.031.157.065.313.1.471" transform="translate(-13.537 -286.781)" fill="#fff"/></g><g transform="translate(0.005 86.665)"><g clip-path="url(#r)"><path d="M0,0,14.545-.1l-.252,33.859-14.545.1Z" transform="translate(-1.027 10.944) rotate(-84.24)" fill="#67c53a"/></g></g><g transform="translate(0 82.341)"><g clip-path="url(#s)"><path d="M0,0,17.191-.119l-.258,34.667-17.191.119Z" transform="matrix(0.1, -0.995, 0.995, 0.1, -1.27, 13.518)" fill="#529d2e"/></g></g><g clip-path="url(#g)"><path d="M33.019,447.861l-.046.208c-.312-.39-.612-.787-.916-1.181a21.726,21.726,0,0,0-2.761-3.035,19.88,19.88,0,0,0-6.72-3.869,23.178,23.178,0,0,0-7.651-1.247,30.425,30.425,0,0,0-9.27,1.6A44.44,44.44,0,0,0,0,442.644a1.723,1.723,0,0,1,0-.19,43.39,43.39,0,0,1,6.71-2.623,29.086,29.086,0,0,1,9.131-1.252,23.027,23.027,0,0,1,7.59,1.538,19.759,19.759,0,0,1,6.562,4.155,29.479,29.479,0,0,1,2.736,3.22c.1.124.192.246.289.37" transform="translate(0 -352.073)" fill="#fff"/><g transform="translate(30.595 17.114)" style="mix-blend-mode:multiply;isolation:isolate"><g clip-path="url(#u)"><path d="M289.886,89.561v78.731a2.74,2.74,0,0,1-2.691,2.781h-117.8a2.72,2.72,0,0,1-2.65-2.293,2.646,2.646,0,0,1-.039-.392c0-.033,0-.063,0-.1V89.561a2.74,2.74,0,0,1,2.691-2.781h117.8a2.882,2.882,0,0,1,.739.108,2.046,2.046,0,0,1,.223.075c.047.018.092.039.137.06a2.8,2.8,0,0,1,1.593,2.538" transform="translate(-166.7 -86.78)" fill="#cad3e8"/></g></g></g><g transform="translate(29.368 16.141)"><g clip-path="url(#v)"><path d="M0,0H122.538V83.622H0Z" transform="translate(0 0)" fill="#f3f9ff"/></g></g><g transform="translate(29.368 16.141)"><g clip-path="url(#w)"><rect width="122.538" height="7.568" transform="translate(0 0)" fill="#2a5f10"/></g></g><g clip-path="url(#g)"><path d="M281.395,82.442a2.768,2.768,0,0,0-1.687-2.11,2.584,2.584,0,0,0-.962-.183h-117.8a2.739,2.739,0,0,0-2.691,2.778v78.734a2.79,2.79,0,0,0,1.593,2.538,2.6,2.6,0,0,0,1.1.243h117.8a2.74,2.74,0,0,0,2.691-2.781V82.927a2.8,2.8,0,0,0-.042-.486m-.608,79.219a2.079,2.079,0,0,1-2.041,2.11h-117.8a1.961,1.961,0,0,1-1.141-.363,2.122,2.122,0,0,1-.9-1.747V82.927a2.078,2.078,0,0,1,2.044-2.107h117.8a1.947,1.947,0,0,1,.728.138,2.084,2.084,0,0,1,1.2,1.271,2.166,2.166,0,0,1,.117.7Z" transform="translate(-129.207 -64.342)" fill="#fff"/><path d="M178.616,95.746a1.212,1.212,0,1,1,1.208,1.3,1.256,1.256,0,0,1-1.208-1.3" transform="translate(-145.834 -75.821)" fill="#fff"/><path d="M204.325,95.746a1.212,1.212,0,1,1,1.208,1.3,1.256,1.256,0,0,1-1.208-1.3" transform="translate(-166.824 -75.821)" fill="#fff"/><path d="M230.348,95.746a1.212,1.212,0,1,1,1.208,1.3,1.256,1.256,0,0,1-1.208-1.3" transform="translate(-188.071 -75.821)" fill="#fff"/><path d="M757.036,99.757H744.6a.218.218,0,0,1-.209-.225V98.51a.218.218,0,0,1,.209-.225h12.432a.218.218,0,0,1,.209.225v1.022a.218.218,0,0,1-.209.225" transform="translate(-607.773 -78.902)" fill="#fff"/><g transform="translate(29.044 84.042)" style="mix-blend-mode:multiply;isolation:isolate"><g clip-path="url(#y)"><path d="M206,437.828c0,.1,0,.2-.011.3l-.268,3.4-.028.336-.028.336H160.942a2.6,2.6,0,0,1-1.1-.243,2.79,2.79,0,0,1-1.593-2.538V426.584l.324,0,.324,0,.9-.009,41.932-.426a1.981,1.981,0,0,1,1.93,2.032l.022,2.7c.008,0,.014.009.022.012.092.039.184.081.273.129a.054.054,0,0,0,.022.012,3.928,3.928,0,0,1,.982.755c.011.012.025.021.036.033.048.054.095.111.139.168.028.033.056.066.081.1.039.051.075.1.109.156s.059.087.086.132.059.1.086.15.056.1.081.153.047.1.07.15.047.114.07.174.036.1.05.144c.022.066.039.132.056.2.011.045.025.09.036.138.014.075.028.15.039.228.006.039.014.078.017.117a3.021,3.021,0,0,1,.022.357Z" transform="translate(-158.251 -426.143)" fill="#98abbf"/></g></g></g><g transform="translate(24.692 85.129)"><g clip-path="url(#z)"><rect width="48.49" height="21.244" transform="translate(-0.017)" fill="#fc8116"/></g></g><g clip-path="url(#g)"><rect width="40.197" height="13.977" transform="translate(28.819 88.173)" fill="#dde6f0"/><rect width="40.197" height="13.977" transform="translate(26.417 91.966)" fill="#fff"/></g><g transform="translate(23.063 89.53)"><g clip-path="url(#ab)"><rect width="52.473" height="43.791" transform="translate(-0.191 0)" fill="#fc8116"/></g></g><g clip-path="url(#g)"><g transform="translate(25.826 89.582)" style="mix-blend-mode:multiply;isolation:isolate"><g clip-path="url(#ad)"><path d="M186.941,454.235c0,.052.009.1.01.157l.032,3.646c0,.1,0,.2-.011.3l-2.562,32.375a3.826,3.826,0,0,1-3.862,3.412l-39.146.4a4.168,4.168,0,0,1-.686-.052l.014.146a3.814,3.814,0,0,0,3.922,3.333l39.146-.4a3.826,3.826,0,0,0,3.863-3.412l2.562-32.375q.012-.152.011-.3l-.032-3.646a3.739,3.739,0,0,0-3.26-3.584" transform="translate(-140.716 -454.235)" fill="#ede0b6"/></g></g><g transform="translate(51.572 91.089)" style="mix-blend-mode:overlay;isolation:isolate"><g clip-path="url(#ae)"><path d="M281.058,467.67a14.224,14.224,0,0,1,2.478-4.192c1.112-1.366,2.435-1.281,4.022-1.322l10.858-.279c1.107-.028,1.391,1.824.269,1.853l-9.155.235-2.129.055c-.859.022-1.8-.139-2.456.564a11.341,11.341,0,0,0-2.263,3.772c-.4,1.13-2.022.447-1.625-.686" transform="translate(-280.996 -461.876)" fill="#bcbec0"/></g></g><g transform="translate(27.825 98.686)" style="mix-blend-mode:overlay;isolation:isolate"><g clip-path="url(#af)"><path d="M152.551,500.394l14.45.033c1.12,0,.915,1.866-.2,1.864l-14.45-.033c-1.12,0-.915-1.866.2-1.864" transform="translate(-151.607 -500.394)" fill="#bcbec0"/></g></g><g transform="translate(49.691 98.685)" style="mix-blend-mode:overlay;isolation:isolate"><g clip-path="url(#ag)"><path d="M271.456,500.4c1.11-.186,1.381,1.667.269,1.853s-1.381-1.667-.269-1.853" transform="translate(-270.746 -500.392)" fill="#bcbec0"/></g></g><path d="M729.913,274.381H703.941a2.249,2.249,0,0,1-2.161-2.322V229.373a2.033,2.033,0,0,0-1.954-2.1h-18.45a.111.111,0,0,1,0-.222h18.45a2.249,2.249,0,0,1,2.161,2.322v42.685a2.033,2.033,0,0,0,1.954,2.1h25.972a.111.111,0,0,1,0,.222" transform="translate(-556.235 -182.273)" fill="#525ea6"/><path d="M723.449,319.372H702.005a2.249,2.249,0,0,1-2.161-2.322v-3.087a2.033,2.033,0,0,0-1.954-2.1H674.907a.111.111,0,0,1,0-.222H697.89a2.249,2.249,0,0,1,2.161,2.322v3.087a2.033,2.033,0,0,0,1.954,2.1h21.444a.111.111,0,0,1,0,.222" transform="translate(-550.954 -250.18)" fill="#525ea6"/><path d="M711.6,269H671.279a.111.111,0,0,1,0-.222H711.6a2.033,2.033,0,0,0,1.954-2.1V242.92a2.249,2.249,0,0,1,2.161-2.322h16.548a.111.111,0,0,1,0,.222H715.719a2.033,2.033,0,0,0-1.954,2.1v23.762A2.249,2.249,0,0,1,711.6,269" transform="translate(-547.992 -193.148)" fill="#525ea6"/><path d="M710.854,195.551H681.376a.111.111,0,0,1,0-.222h29.479a2.033,2.033,0,0,0,1.954-2.1v-55.8a2.249,2.249,0,0,1,2.161-2.322h14.955a.111.111,0,0,1,0,.222H714.97a2.034,2.034,0,0,0-1.954,2.1v55.8a2.249,2.249,0,0,1-2.161,2.322" transform="translate(-556.235 -108.465)" fill="#525ea6"/></g><g transform="translate(172.241 39.533)"><g clip-path="url(#ah)"><path d="M0,0,24.205-.827,23.362,23.38l-24.205.827Z" transform="matrix(0.6, -0.8, 0.8, 0.6, -7.438, 10.654)" fill="#fc8116"/></g></g><g clip-path="url(#g)"><g transform="translate(172.495 39.982)" style="mix-blend-mode:multiply;isolation:isolate"><g clip-path="url(#aj)"><path d="M956.373,202.732a2.727,2.727,0,0,1,.254,1.157l-.013,11.463a2.5,2.5,0,0,1-2.406,2.579l-13.026-.017a2.275,2.275,0,0,1-1.328-.432A2.392,2.392,0,0,0,942,218.911l13.026.017a2.5,2.5,0,0,0,2.406-2.579l.013-11.464a2.634,2.634,0,0,0-1.072-2.153" transform="translate(-939.853 -202.732)" fill="#f1f2f2"/></g></g><path d="M976.8,233.955a.566.566,0,0,1-.808-.539l-.018-2.2-.018-2.2a.567.567,0,0,1,.8-.555l2.315,1.15,2.041,1.014a.625.625,0,0,1,.009,1.094l-2.024,1.052Z" transform="translate(-796.831 -183.353)" fill="#fff"/><path d="M964.442,225.151a5.453,5.453,0,1,1,5.068-5.432,5.268,5.268,0,0,1-5.068,5.432m.012-10.491a5.065,5.065,0,1,0,4.7,5.058,4.891,4.891,0,0,0-4.7-5.058" transform="translate(-783.307 -172.016)" fill="#fff"/><g transform="translate(173.038 40.264)" style="mix-blend-mode:overlay;isolation:isolate"><g clip-path="url(#ak)"><path d="M950.844,204.31c-.972-.037-1.944-.074-2.916-.1a21.628,21.628,0,0,0-2.817.005,2.379,2.379,0,0,0-1.969.908,4.319,4.319,0,0,0-.3,2.413.337.337,0,1,0,.671-.043c-.014-.7-.211-1.731.4-2.219a3.711,3.711,0,0,1,2.146-.384c1.606-.017,3.218.084,4.822.145.433.016.389-.7-.04-.721" transform="translate(-942.812 -204.16)" fill="#bcbec0"/></g></g><g transform="translate(181.982 40.503)" style="mix-blend-mode:overlay;isolation:isolate"><g clip-path="url(#al)"><path d="M991.766,205.4c-.409.15-.193.834.217.684s.193-.834-.217-.684" transform="translate(-991.547 -205.374)" fill="#bcbec0"/></g></g><g transform="translate(173.022 44.889)" style="mix-blend-mode:overlay;isolation:isolate"><g clip-path="url(#al)"><path d="M942.943,227.636c-.41.15-.193.834.217.684s.193-.834-.217-.684" transform="translate(-942.724 -227.615)" fill="#bcbec0"/></g></g></g><g transform="translate(172.622 19.361)"><g clip-path="url(#an)"><path d="M0,0,24.01-.853,23.15,23.14l-24.01.853Z" transform="translate(-7.605 9.186) rotate(-48.341)" fill="url(#ao)"/></g></g><g clip-path="url(#g)"><g transform="translate(172.951 19.755)" style="mix-blend-mode:multiply;isolation:isolate"><g clip-path="url(#aq)"><path d="M959.476,101.8v12.415a1.954,1.954,0,0,1-1.88,2.02H943.89a1.844,1.844,0,0,1-1.55-.877h15.373a1.038,1.038,0,0,0,1-1.073V100.171a2.068,2.068,0,0,1,.764,1.626" transform="translate(-942.34 -100.171)" fill="#f1f2f2"/></g></g><path d="M965.785,122.855a.667.667,0,0,0-.04-.121h.012v-7.064a1.136,1.136,0,0,0-.346-.825.976.976,0,0,0-.8-.266l-6.334.862a1.078,1.078,0,0,0-.895,1.091v5.806a2.2,2.2,0,0,0-1.487.007c-.934.3-1.561,1.008-1.4,1.582s1.046.8,1.979.5,1.561-1.007,1.4-1.582a.67.67,0,0,0-.1-.2v-4.483l7.589-.885v5.067a2.17,2.17,0,0,0-1.527-.1c-.948.244-1.61.914-1.48,1.5s1,.859,1.951.615,1.61-.914,1.48-1.5m-8.013-5.124v-1.2a.661.661,0,0,1,.549-.669l6.334-.862a.6.6,0,0,1,.494.163.7.7,0,0,1,.213.506v1.175Z" transform="translate(-779.286 -91.976)" fill="#fff"/><g transform="translate(173.485 20.07)" style="mix-blend-mode:overlay;isolation:isolate"><g clip-path="url(#ar)"><path d="M953.112,101.781l-4.551,0-1.145,0c-.349,0-.7-.019-1.052,0a1,1,0,0,0-.835.426,2.234,2.234,0,0,0-.228,1.043,16.9,16.9,0,0,0,.006,2.684.332.332,0,0,0,.311.334.325.325,0,0,0,.311-.334,16.965,16.965,0,0,1-.035-2.232,4.971,4.971,0,0,1,.1-.987c.069-.264.293-.268.514-.27,1.4-.015,2.8,0,4.194,0l2.415,0a.336.336,0,0,0,0-.668" transform="translate(-945.25 -101.767)" fill="#bcbec0"/></g></g></g><g transform="translate(171.791 62.393)"><g clip-path="url(#as)"><path d="M0,0,21.507-.708l-.761,22.495-21.507.708Z" transform="translate(-5.782 9.167) rotate(-55.901)" fill="#e4f476"/></g></g><g clip-path="url(#g)"><g transform="translate(171.877 62.391)" style="mix-blend-mode:multiply;isolation:isolate"><g clip-path="url(#au)"><path d="M954.432,317.246a.871.871,0,0,0-.775-.887,1,1,0,0,1,.009.116l.082,11.445a.868.868,0,0,1-.828.9l-16.367.134c-.022,0-.044,0-.065,0a.856.856,0,0,0,.832.773l15.712-.129a1.549,1.549,0,0,0,1.477-1.611Z" transform="translate(-936.487 -316.359)" fill="#f1f2f2"/></g></g><path d="M946.442,349.059l3.332-5.2a.412.412,0,0,1,.719.014l2.9,4.88a.414.414,0,0,0,.746-.033l.637-1.283a.416.416,0,0,1,.76-.006l.557,1.081a.419.419,0,0,0,.786-.067l1.478-4.285a.423.423,0,0,1,.82.016l1.526,4.9a.483.483,0,0,1-.409.648l-13.5.111a.493.493,0,0,1-.359-.772" transform="translate(-772.671 -275.879)" fill="#fff"/><path d="M982.36,330a1.282,1.282,0,1,1,1.284,1.412A1.357,1.357,0,0,1,982.36,330" transform="translate(-802.063 -263.769)" fill="#fff"/><path d="M958.255,330.357a.32.32,0,0,0-.069.008q0-.029,0-.059a.539.539,0,0,0-.512-.563.523.523,0,0,0-.49.438.283.283,0,0,0-.2-.088.3.3,0,0,0-.258.167.374.374,0,0,0-.164-.036.467.467,0,0,0,.007.928.387.387,0,0,0,.257-.1.92.92,0,0,0,.621.205.947.947,0,0,0,.591-.192.332.332,0,0,0,.225.087.4.4,0,0,0-.006-.794" transform="translate(-780.662 -264.713)" fill="#fff"/><path d="M1006.454,329.988a.323.323,0,0,0-.069.008c0-.019,0-.039,0-.059a.539.539,0,0,0-.511-.563.523.523,0,0,0-.49.438.283.283,0,0,0-.2-.088.3.3,0,0,0-.258.167.375.375,0,0,0-.165-.036.467.467,0,0,0,.007.928.387.387,0,0,0,.257-.1.918.918,0,0,0,.621.205.945.945,0,0,0,.592-.192.332.332,0,0,0,.225.087.4.4,0,0,0-.005-.794" transform="translate(-820.014 -264.417)" fill="#fff"/><g transform="translate(174.505 68.881)" style="mix-blend-mode:overlay;isolation:isolate"><g clip-path="url(#av)"><path d="M953.282,349.332q-1.282,1.988-2.453,4.054c-.1.171.143.347.24.175q1.171-2.065,2.453-4.054c.107-.165-.134-.34-.24-.175" transform="translate(-950.806 -349.266)" fill="#bcbec0"/></g></g><g transform="translate(177.236 68.512)" style="mix-blend-mode:overlay;isolation:isolate"><g clip-path="url(#aw)"><path d="M965.832,347.4c-.186-.014-.206.3-.02.311s.206-.3.02-.311" transform="translate(-965.682 -347.395)" fill="#bcbec0"/></g></g><g transform="translate(176.718 65.234)" style="mix-blend-mode:overlay;isolation:isolate"><g clip-path="url(#aw)"><path d="M963.012,330.774c-.186-.014-.206.3-.02.311s.206-.3.02-.311" transform="translate(-962.861 -330.774)" fill="#bcbec0"/></g></g><g transform="translate(180.691 65.201)" style="mix-blend-mode:overlay;isolation:isolate"><g clip-path="url(#ay)"><path d="M985.278,330.615a1.05,1.05,0,0,0-.744.791,1.138,1.138,0,0,0,.364,1.093.14.14,0,0,0,.2-.041.167.167,0,0,0-.038-.217.8.8,0,0,1-.248-.754.75.75,0,0,1,.523-.565c.181-.047.124-.353-.058-.305" transform="translate(-984.51 -330.609)" fill="#bcbec0"/></g></g></g><g transform="translate(172.241 79.711)"><g clip-path="url(#az)"><path d="M0,0,27-.958l-.954,26.636-27,.958Z" transform="matrix(0.661, -0.75, 0.75, 0.661, -9.411, 11.478)" fill="#fc8116"/></g></g><g clip-path="url(#g)"><g transform="translate(172.241 79.711)" style="mix-blend-mode:multiply;isolation:isolate"><g clip-path="url(#bb)"><path d="M954.675,404.182h-.162v17.192a1.516,1.516,0,0,1-1.459,1.567H938.471V423a1.516,1.516,0,0,0,1.458,1.567h14.745A1.516,1.516,0,0,0,956.133,423V405.749a1.516,1.516,0,0,0-1.458-1.567" transform="translate(-938.471 -404.182)" fill="#f1f2f2"/></g></g><path d="M972.8,427.845v9.511a.285.285,0,0,1-.274.294h-8.139a.285.285,0,0,1-.274-.294V426.075a.285.285,0,0,1,.274-.294h5.75Z" transform="translate(-787.166 -341.81)" fill="#fff"/><path d="M999.6,427.845h-2.4a.279.279,0,0,1-.268-.288V425.78Z" transform="translate(-813.963 -341.81)" fill="#ced5f0"/><g transform="translate(115.382 32.481)" style="mix-blend-mode:multiply;isolation:isolate"><g clip-path="url(#bc)"><path d="M646.7,164.7H629.767a1.141,1.141,0,0,0-1.1,1.179v57.658a1.141,1.141,0,0,0,1.1,1.179H646.7a1.141,1.141,0,0,0,1.1-1.179V165.879a1.141,1.141,0,0,0-1.1-1.179" transform="translate(-628.669 -164.7)" fill="#98abbf"/></g></g><path d="M637.473,217.439H620.911a1.333,1.333,0,0,1-1.283-1.379V158.8a1.333,1.333,0,0,1,1.283-1.379h16.562a1.334,1.334,0,0,1,1.283,1.379v57.26a1.334,1.334,0,0,1-1.283,1.379" transform="translate(-505.905 -126.376)" fill="#fff"/><rect width="16.237" height="56.924" transform="translate(115.168 32.584)" fill="#fff"/></g><g transform="translate(115.168 84.441)"><g clip-path="url(#bd)"><rect width="16.237" height="5.066" transform="translate(0)" fill="#fde07e"/></g></g><g transform="translate(115.168 56.085)"><g clip-path="url(#be)"><rect width="16.237" height="10.955" transform="translate(0)" fill="#e4f476"/></g></g><g transform="translate(115.168 68.43)"><g clip-path="url(#bf)"><rect width="16.237" height="14.62" transform="translate(0 0)" fill="#3a8416"/></g></g><g transform="translate(115.168 37.827)"><g clip-path="url(#bg)"><rect width="16.237" height="17.022" fill="#fc8116"/></g></g><g clip-path="url(#g)"><g transform="translate(33.99 29.536)" opacity="0.73"><g transform="translate(23.231 1.066)" clip-path="url(#bi)"><path d="M394.8,284.64l2.124,3.032a14.015,14.015,0,0,1-9.034,2.9l-.129-3.814a10.556,10.556,0,0,0,7.038-2.115" transform="translate(-373.817 -259.106)" fill="#6d6e71"/><path d="M394.8,284.64l2.124,3.032a14.015,14.015,0,0,1-9.034,2.9l-.129-3.814a10.556,10.556,0,0,0,7.038-2.115" transform="translate(-373.817 -259.106)" fill="#529d2e"/><path d="M336.971,274.861l.13,3.843a14.359,14.359,0,0,1-10.257-6.171c-.075-.108-.143-.205-.2-.3l2.835-2.293c.065.1.132.2.2.3a10.988,10.988,0,0,0,7.293,4.62" transform="translate(-323.913 -247.308)" fill="#6d6e71"/><path d="M336.971,274.861l.13,3.843a14.359,14.359,0,0,1-10.257-6.171c-.075-.108-.143-.205-.2-.3l2.835-2.293c.065.1.132.2.2.3a10.988,10.988,0,0,0,7.293,4.62" transform="translate(-323.913 -247.308)" fill="#fcd03e"/><path d="M317.247,192.213A12.75,12.75,0,0,0,316.86,205l-2.845,2.3a16.71,16.71,0,0,1,.335-17.26Z" transform="translate(-311.777 -183.165)" fill="#6d6e71"/><path d="M317.247,192.213A12.75,12.75,0,0,0,316.86,205l-2.845,2.3a16.71,16.71,0,0,1,.335-17.26Z" transform="translate(-311.777 -183.165)" fill="#fc8116"/><path d="M436.978,211.516a16.772,16.772,0,0,1-.015,9.147,15.791,15.791,0,0,1-4.885,7.735l-2.124-3.032a12.6,12.6,0,0,0,3.566-12.958Z" transform="translate(-408.264 -200.404)" fill="#6d6e71"/><path d="M436.978,211.516a16.772,16.772,0,0,1-.015,9.147,15.791,15.791,0,0,1-4.885,7.735l-2.124-3.032a12.6,12.6,0,0,0,3.566-12.958Z" transform="translate(-408.264 -200.404)" fill="#6d6e71"/><path d="M339.67,155.169l-.129,3.813a10.634,10.634,0,0,0-6.01,2.392c-.2.163-.4.333-.583.506a11.585,11.585,0,0,0-1.417,1.577l-2.9-2.175a15.351,15.351,0,0,1,2.6-2.791l.177-.146a14,14,0,0,1,8.263-3.176" transform="translate(-325.534 -155.169)" fill="#53ff00"/></g><g transform="translate(18.548 39.97)"><g clip-path="url(#bj)"><path d="M323.348,353.411H286.655a.409.409,0,0,1-.394-.423v-.13a.409.409,0,0,1,.394-.423h36.693a.409.409,0,0,1,.394.423v.13a.409.409,0,0,1-.394.423" transform="translate(-286.261 -352.435)" fill="#6d6e71"/></g></g><g transform="translate(18.548 45.073)"><g clip-path="url(#bj)"><path d="M323.348,379.287H286.655a.409.409,0,0,1-.394-.423v-.13a.409.409,0,0,1,.394-.423h36.693a.409.409,0,0,1,.394.423v.13a.409.409,0,0,1-.394.423" transform="translate(-286.261 -378.311)" fill="#6d6e71"/></g></g><g clip-path="url(#bl)"><path d="M198.143,149.765H185.987a.818.818,0,0,0-.787.845v2.56a.818.818,0,0,0,.787.845h12.156a.818.818,0,0,0,.787-.845v-2.56a.818.818,0,0,0-.787-.845" transform="translate(-185.2 -149.765)" fill="#fde07e"/></g><g transform="translate(0 9.354)"><g clip-path="url(#bm)"><path d="M198.143,197.2H185.987a.818.818,0,0,0-.787.845v2.56a.818.818,0,0,0,.787.845h12.156a.818.818,0,0,0,.787-.845v-2.56a.818.818,0,0,0-.787-.845" transform="translate(-185.2 -197.195)" fill="#dbf049"/></g></g><g transform="translate(0 18.708)"><g clip-path="url(#bn)"><path d="M198.143,244.624H185.987a.818.818,0,0,0-.787.845v2.56a.818.818,0,0,0,.787.845h12.156a.818.818,0,0,0,.787-.845v-2.56a.818.818,0,0,0-.787-.845" transform="translate(-185.2 -244.624)" fill="#fc8116"/></g></g><g transform="translate(0 28.062)" clip-path="url(#bo)"><path d="M198.143,292.054H185.987a.818.818,0,0,0-.787.845v2.56a.818.818,0,0,0,.787.845h12.156a.818.818,0,0,0,.787-.845V292.9a.818.818,0,0,0-.787-.845" transform="translate(-185.2 -292.054)" fill="#3a8416"/></g></g><g transform="translate(140.83 25.712)" style="mix-blend-mode:screen;isolation:isolate"><g clip-path="url(#bp)"><path d="M774,133.674h-.216a3.167,3.167,0,0,0-.3-.847l.179-.193a.777.777,0,0,0,0-1.043.653.653,0,0,0-.971,0l-.153.165a2.713,2.713,0,0,0-.771-.37h0v-.273a.688.688,0,1,0-1.373,0v.233a2.716,2.716,0,0,0-.788.325l-.179-.193a.653.653,0,0,0-.971,0,.777.777,0,0,0,0,1.043l.153.164a3.138,3.138,0,0,0-.344.828h-.254a.739.739,0,0,0,0,1.475h.216a3.172,3.172,0,0,0,.3.847l-.179.193a.777.777,0,0,0,0,1.043.653.653,0,0,0,.971,0l.153-.164h0a2.756,2.756,0,0,0,.771.37v.272a.688.688,0,1,0,1.373,0v-.232a2.709,2.709,0,0,0,.789-.325l.179.193a.653.653,0,0,0,.971,0,.777.777,0,0,0,0-1.043l-.153-.164a3.181,3.181,0,0,0,.344-.829H774a.739.739,0,0,0,0-1.475m-.951.658a2.049,2.049,0,1,1-2.044-2.2,2.124,2.124,0,0,1,2.044,2.2" transform="translate(-767.323 -130.376)" fill="#6d6e71"/><path d="M780.343,144.783a1.3,1.3,0,1,0,1.292-1.389,1.342,1.342,0,0,0-1.292,1.389" transform="translate(-777.953 -140.827)" fill="#6d6e71"/></g></g><path d="M1032.073,389.971a28.39,28.39,0,0,1-4.458,3.669,5.729,5.729,0,0,1-1.382.63c-2.89.766-9.166-.2-9.166-.2-2.133.839-3.788,1.846-4.868-.888-.637-1.612,2.275-.658,2.691-1.486,0,0-.95-.4-.453-.992s2.6,1.071,2.6,1.071a71.328,71.328,0,0,0,7.988-1.256c.238-.281.477-.561.721-.836a16.808,16.808,0,0,1,6.3-4.719,5.19,5.19,0,0,1,.017,5.009" transform="translate(-826.353 -309.041)" fill="#f9cbcb"/></g><g transform="translate(198.996 75.583)"><g clip-path="url(#bq)"><path d="M0,0,13.392-.481l-.48,13.424L-.48,13.424Z" transform="translate(-4.408 4.453) rotate(-43.234)" fill="#529d2e"/></g></g><g clip-path="url(#g)"><path d="M503.4,477.331s.268,17.945,3.317,21.952c1.471,1.933,6.369,12.279,6.369,12.279a1.286,1.286,0,0,0,1.453-.743c-1-5.858-2.328-10.872-4.475-13.784-1.12-8.261,2.165-11.866-1.459-19.7Z" transform="translate(-411.012 -383.194)" fill="#f9cbcb"/><path d="M492.79,477.325c-1.287,8.611-.822,13.518.189,22.5a2.742,2.742,0,0,0,.045.272L496,513.862l1.5.223a57.764,57.764,0,0,0-.588-14.112c.556-11.213,5.806-14.334.92-22.644Z" transform="translate(-401.706 -383.189)" fill="#f9cbcb"/></g><g transform="translate(89.089 93.2)"><g clip-path="url(#bs)"><path d="M0,0,31.43-1.094,30.408,27.819l-31.43,1.094Z" transform="translate(-13.235 17.712) rotate(-51.244)" fill="#263238"/></g></g><g clip-path="url(#g)"><path d="M472.515,333.155l-1.825,4.154s-.062-.106-.168-.293a78.834,78.834,0,0,1-4.007-7.71c-.538-1.492-.638-5.323-.541-7.924a18.857,18.857,0,0,1,.179-2.208s-1.131-1.111-.081-1.728c1.01-.593.3-2.329.679-2.385s.584,2.29.584,2.29.536-.611.717-.378c.273.347-.656,2.2-.656,2.2.131.428.256.866.374,1.311a42.307,42.307,0,0,1,1.238,7.5,32.561,32.561,0,0,1,3.506,5.166" transform="translate(-380.168 -252.925)" fill="#f9cbcb"/><path d="M499.1,416.719l-6.515-.005c.34-1.59,1.172-2.441-.048-6.05a8.579,8.579,0,0,1-.468-3.824,5.916,5.916,0,0,1,1.992-3.861l1.563-.942h1.911l1.92,1.465s-.1,5.8-.4,7.781c-.264,1.749-.575,3.746.046,5.435" transform="translate(-401.712 -322.749)" fill="#3e3279"/></g><g transform="translate(85.774 67.561)"><g clip-path="url(#bu)"><path d="M0,0,29.244-1.051,28.193,28.193-1.051,29.244Z" transform="translate(-13.625 14.571) rotate(-45)" fill="#529d2e"/></g></g><g clip-path="url(#g)"><path d="M536.184,417.927c0,.028,0,.06-.01.092a4.359,4.359,0,0,1-.846,1.855,20.406,20.406,0,0,1-3.034,3.235c-.487.427-.816.692-.816.692.841,2.043-.864,3.922-1.37,2.84-.105-.233.28-1.032.28-1.35,0-.2-.323-.417-.546-.767a1.088,1.088,0,0,1,.116-1.127c.3-.442.593-.936.892-1.445a14.313,14.313,0,0,1,2.851-3.814c-2.015-1.154-3.373-1.67-4.763-3.036l.661-5.632s6.754,5.875,6.585,8.458" transform="translate(-431.859 -328.715)" fill="#f9cbcb"/></g><g transform="translate(97.078 80.754)"><g clip-path="url(#bw)"><rect width="7.416" height="13.639" transform="translate(0 0)" fill="url(#bx)"/></g></g><g clip-path="url(#g)"><path d="M502.091,364.365s-.894,2.655-.209,4.315,3.432.519,3.432.519Z" transform="translate(-409.559 -292.506)" fill="#f9cbcb"/><path d="M512.094,388.975l-.416,2.5,1.909,0-.064-2.6Z" transform="translate(-417.768 -312.184)" fill="#f9cbcb"/><path d="M512.241,362.376c-.184-1.469.609-2.169.109-3.551-.476-1.317-1.926-1.936-2.573-3.167a22.54,22.54,0,0,1-.8-3.038,3.477,3.477,0,0,0-6.6-.176,3.781,3.781,0,0,0,.348,3.426c.589,1.075,2.168,2.008,2.517,3.2.648,2.206-2.158,5.213-1.365,7.364.431,1.169,1.678,1.154,1.907,2.387.206,1.106-1.692,1.929,0,4.307,1.262,1.777,2.773.351,3.756.246.822-.088,2.233.83,3.741-.086,2.752-1.67.439-3.932,1.022-6.228.752-2.959-1.865-3.1-2.063-4.684" transform="translate(-409.974 -281.098)" fill="#2b1d7a"/><path d="M502.609,659.909l.242,1.335a3.389,3.389,0,0,1,.072,1.116l-.139,1.442-.492,0,.044-.912a.244.244,0,0,0-.438-.144l-.46.6a.892.892,0,0,1-.654.5c-.854.132-2.522.187-2.6-.415-.079-.618,1.54-.669,2-1.357a7.832,7.832,0,0,0,.752-2.1,2.286,2.286,0,0,0,1.668-.054" transform="translate(-406.749 -529.765)" fill="#2b1d7a"/><path d="M552.445,647.133l.784,1.027a3.235,3.235,0,0,1,.507.977l.446,1.368-.447.221-.322-.846a.242.242,0,0,0-.453.071l-.178.751a.973.973,0,0,1-.394.752c-.72.51-2.208,1.323-2.516.814s1.128-1.31,1.275-2.145a8.009,8.009,0,0,0-.154-2.249,2.206,2.206,0,0,0,1.453-.743" transform="translate(-448.914 -519.508)" fill="#2b1d7a"/></g><g transform="translate(69.673 127.042)"><g transform="translate(0 0)" clip-path="url(#bz)"><path d="M0,0,4.119-.145,3.974,3.923l-4.119.145Z" transform="translate(-1.382 1.76) rotate(-49.851)" fill="url(#ca)"/></g></g><g transform="translate(71 126.968)"><g clip-path="url(#cb)"><path d="M0,0,17.339-.61l-.648,18.173-17.339.61Z" transform="translate(-3.904 4.974) rotate(-49.851)" fill="#727997"/></g></g><g clip-path="url(#g)"><path d="M392.27,644.887l-.893,3.4-.909-.309.877-3.337Z" transform="translate(-318.803 -517.506)" fill="#fff"/><path d="M400.967,647.073l-.922,3.511-.909-.309.906-3.449Z" transform="translate(-325.881 -519.262)" fill="#fff"/></g><g transform="translate(51.562 115.24)"><g clip-path="url(#cd)"><path d="M0,0,29.238-1l-.992,29.68-29.238,1Z" transform="matrix(0.818, -0.575, 0.575, 0.818, -10.425, 7.06)" fill="#fdd85e"/></g></g><g transform="translate(50.88 114.532)"><g clip-path="url(#ce)"><path d="M0,0,31.091-1.032l-1.024,31.8L-1.024,31.8Z" transform="translate(-10.932 6.445) rotate(-32.716)" fill="url(#cf)"/></g></g><g clip-path="url(#g)"><path d="M317.419,592.345c-2.628-.447-4.568.926-4.657.69-.106-.279,2.428-2.631,5.2-2.054,2.732.568,4.288,3.684,4.082,3.924-.189.219-1.76-2.074-4.627-2.561" transform="translate(-255.357 -474.358)" fill="#fff"/><path d="M302.571,603.658a.727.727,0,0,1-.77.7.756.756,0,0,1-.651-.831.727.727,0,0,1,.771-.7.757.757,0,0,1,.651.831" transform="translate(-245.876 -483.937)" fill="#fff"/><path d="M765.668,541.234a7.7,7.7,0,0,1-4.231.728c-1.074-.221-1.952-1.726-1.952-1.726a2.757,2.757,0,0,0,1.882-1.219,3.712,3.712,0,0,1-1.744.285c-.932-.4-.978-2.8-.978-2.8a1.863,1.863,0,0,0,1.312-.812,1.686,1.686,0,0,1-1.556-.825c-.343-3.254.828-4.281.828-4.281,1.366-.164,3.536.129,3.965,1.046a3.074,3.074,0,0,1-.279,2.321s.976-.447,1.15-1.134c0,0,1.4.625,1.366,1.655a2.5,2.5,0,0,1-1.041,2.291,3.371,3.371,0,0,0,1.826-1.6,5.557,5.557,0,0,1,.737,3.331,6.589,6.589,0,0,1-1.285,2.746" transform="translate(-619.157 -425.908)" fill="#3a8416"/><path d="M770.014,544.245a12.1,12.1,0,0,0,1.464,3.654,19,19,0,0,0,2.462,2.97,8.7,8.7,0,0,1,1.227,1.612,8.011,8.011,0,0,1,.761,1.907,16.684,16.684,0,0,1,.415,3.56,23.421,23.421,0,0,1-.06,3.884c-.024.187.243.268.267.079a22.044,22.044,0,0,0,.091-3.406,22.33,22.33,0,0,0-.3-3.534,8.257,8.257,0,0,0-1.614-3.628c-.849-1.06-1.883-1.923-2.662-3.052a11.791,11.791,0,0,1-1.787-4.124c-.041-.186-.308-.107-.266.079" transform="translate(-628.686 -436.762)" fill="#474485"/><path d="M819.28,538.5a7.7,7.7,0,0,0,4.231.728c1.075-.221,1.953-1.727,1.953-1.727a2.758,2.758,0,0,1-1.882-1.219,3.712,3.712,0,0,0,1.744.285c.931-.4.978-2.8.978-2.8a1.863,1.863,0,0,1-1.312-.812,1.686,1.686,0,0,0,1.556-.825c.343-3.254-.828-4.281-.828-4.281-1.366-.164-3.536.129-3.965,1.046a3.075,3.075,0,0,0,.278,2.321s-.976-.447-1.15-1.134c0,0-1.4.625-1.366,1.655a2.5,2.5,0,0,0,1.041,2.291,3.371,3.371,0,0,1-1.825-1.6,5.555,5.555,0,0,0-.737,3.331,6.588,6.588,0,0,0,1.285,2.746" transform="translate(-667.834 -423.714)" fill="#3a8416"/><path d="M819.812,549.351a11.835,11.835,0,0,1-1.436,3.583,18.628,18.628,0,0,1-2.418,2.91,8.413,8.413,0,0,0-1.942,3.244,12.828,12.828,0,0,0-.5,3.562c-.033,1.469.013,2.938.018,4.406a.138.138,0,1,0,.277,0c0-1.3-.039-2.595-.027-3.892a14.374,14.374,0,0,1,.4-3.673,8.049,8.049,0,0,1,1.91-3.376,20.9,20.9,0,0,0,2.389-2.825,12.064,12.064,0,0,0,1.592-3.859c.042-.186-.225-.265-.267-.079" transform="translate(-664.202 -440.925)" fill="#474485"/><path d="M829.115,573.117a8.074,8.074,0,0,0,3.734,2.259,3.7,3.7,0,0,0,2.388-.892,2.958,2.958,0,0,1-1.372-1.844,3.886,3.886,0,0,0,1.544.917c1-.029,1.821-2.264,1.821-2.264a2,2,0,0,1-.969-1.251,1.612,1.612,0,0,0,1.726-.194c1.371-2.924.6-4.324.6-4.324-1.228-.662-3.359-1.2-4.057-.5a3.04,3.04,0,0,0-.487,2.281,2.427,2.427,0,0,1-.713-1.492s-1.51.066-1.815,1.044a2.571,2.571,0,0,0,.237,2.537,3.619,3.619,0,0,1-1.195-2.184,5.262,5.262,0,0,0-1.766,2.85,6.863,6.863,0,0,0,.32,3.055" transform="translate(-676.624 -453.33)" fill="#85d161"/><path d="M822.627,573.652a11.076,11.076,0,0,1-2.5,2.826,17.315,17.315,0,0,1-3.207,1.829,7.826,7.826,0,0,0-2.868,2.319,12.3,12.3,0,0,0-1.613,3.157c-.5,1.365-.935,2.761-1.4,4.14-.061.18.2.283.26.1.414-1.219.8-2.448,1.23-3.661a13.827,13.827,0,0,1,1.558-3.3,7.487,7.487,0,0,1,2.88-2.456,19.4,19.4,0,0,0,3.153-1.76,11.282,11.282,0,0,0,2.738-3.027c.1-.159-.126-.333-.225-.173" transform="translate(-662.173 -460.468)" fill="#474485"/><path d="M756.865,569.228a7.835,7.835,0,0,1-4.058,1.479c-1.094-.024-2.194-1.351-2.194-1.351a2.852,2.852,0,0,0,1.665-1.54,3.77,3.77,0,0,1-1.675.595c-.981-.227-1.4-2.587-1.4-2.587a1.927,1.927,0,0,0,1.167-1.037,1.643,1.643,0,0,1-1.663-.533c-.845-3.146.15-4.37.15-4.37,1.321-.407,3.506-.508,4.072.318a3.077,3.077,0,0,1,.087,2.338s.893-.616.957-1.325c0,0,1.472.365,1.6,1.386a2.548,2.548,0,0,1-.67,2.446,3.49,3.49,0,0,0,1.55-1.91,5.436,5.436,0,0,1,1.245,3.151,6.751,6.751,0,0,1-.839,2.939" transform="translate(-611.017 -449.219)" fill="#85d161"/><path d="M760.11,573.172a11.751,11.751,0,0,0,2.012,3.339,18.354,18.354,0,0,0,2.89,2.486,8.4,8.4,0,0,1,1.461,1.368,7.79,7.79,0,0,1,1.047,1.743,16.466,16.466,0,0,1,.964,3.435,23.335,23.335,0,0,1,.545,3.84c.006.189.281.22.275.03a31.42,31.42,0,0,0-1.282-6.8,8.015,8.015,0,0,0-2.156-3.287c-1-.893-2.156-1.558-3.1-2.531a11.443,11.443,0,0,1-2.4-3.744c-.07-.176-.32-.05-.25.126" transform="translate(-620.594 -459.965)" fill="#474485"/><path d="M803.435,548.264a7.682,7.682,0,0,0,4.257-.521,4.175,4.175,0,0,0,1.448-2.227,2.634,2.634,0,0,1-2.118-.63,3.716,3.716,0,0,0,1.751-.23c.8-.655.24-2.981.24-2.981a1.785,1.785,0,0,1-1.468-.4,1.775,1.775,0,0,0,1.292-1.244c-.484-3.233-1.869-3.884-1.869-3.884-1.356.237-3.373,1.147-3.557,2.153,0,0,.01,1.6.849,2.155,0,0-1.052-.148-1.392-.76,0,0-1.187,1-.9,1.989,0,0,.266,1.625,1.576,1.906a3.211,3.211,0,0,1-2.16-1.017,5.633,5.633,0,0,0,.124,3.421,6.247,6.247,0,0,0,1.926,2.274" transform="translate(-654.13 -430.407)" fill="#85d161"/><path d="M813.016,550.285a12.084,12.084,0,0,1-.852,3.792,19.275,19.275,0,0,1-1.926,3.308,8.658,8.658,0,0,0-1.4,3.55,12.9,12.9,0,0,0,.073,3.6c.2,1.453.476,2.893.712,4.339a.139.139,0,1,0,.272-.05c-.208-1.278-.447-2.55-.638-3.831a14.394,14.394,0,0,1-.186-3.693,8.268,8.268,0,0,1,1.351-3.675,21.623,21.623,0,0,0,1.91-3.219,12.325,12.325,0,0,0,.962-4.093.139.139,0,1,0-.275-.029" transform="translate(-660.308 -441.656)" fill="#474485"/></g><g transform="translate(145.107 126.535)"><g clip-path="url(#ch)"><rect width="7.487" height="6.513" fill="#455a64"/></g></g><g transform="translate(144.38 125.003)"><g clip-path="url(#ci)"><rect width="8.941" height="1.532" transform="translate(0)" fill="#304149"/></g></g><g clip-path="url(#g)"><g transform="translate(145.107 126.535)" style="mix-blend-mode:multiply;isolation:isolate"><g clip-path="url(#ck)"><path d="M790.628,641.6l.15,1.157a5.962,5.962,0,0,1,6.569,5.356l.767-6.513Z" transform="translate(-790.628 -641.605)" fill="#e6e7e8"/></g></g><path d="M148.126,258.481a.079.079,0,0,1-.034-.008c-.011,0-.273-.126-.719-.378a.1.1,0,0,1-.036-.123.082.082,0,0,1,.115-.038c.44.248.7.37.707.372a.094.094,0,0,1,.045.12.085.085,0,0,1-.078.055" transform="translate(-120.288 -207.057)" fill="#3c3299"/><path d="M98.577,64.2a.08.08,0,0,1-.045-.014c-.444-.3-.885-.621-1.313-.956A.1.1,0,0,1,97.2,63.1a.081.081,0,0,1,.119-.02c.424.332.863.651,1.3.948a.1.1,0,0,1,.027.126.083.083,0,0,1-.072.043m-2.551-2a.081.081,0,0,1-.055-.021c-.406-.367-.8-.751-1.176-1.142a.1.1,0,0,1,0-.129.081.081,0,0,1,.12,0c.372.388.764.769,1.167,1.133a.1.1,0,0,1,.01.129.083.083,0,0,1-.065.033m-2.261-2.365a.083.083,0,0,1-.064-.031c-.351-.428-.688-.872-1-1.321a.1.1,0,0,1,.017-.128.081.081,0,0,1,.119.018c.31.445.644.886.992,1.31a.1.1,0,0,1-.008.129.082.082,0,0,1-.056.023m-1.887-2.715a.084.084,0,0,1-.072-.043c-.28-.484-.541-.983-.777-1.485a.1.1,0,0,1,.038-.123.083.083,0,0,1,.115.04c.233.5.492.992.77,1.47a.1.1,0,0,1-.027.126.081.081,0,0,1-.045.014M90.46,54.1a.086.086,0,0,1-.079-.058c-.193-.526-.364-1.069-.511-1.613a.093.093,0,0,1,.058-.113.085.085,0,0,1,.105.063c.145.538.315,1.075.505,1.6a.094.094,0,0,1-.048.119.079.079,0,0,1-.031.006m-.875-3.253a.087.087,0,0,1-.083-.074c-.1-.552-.174-1.119-.226-1.685a.09.09,0,0,1,.076-.1.087.087,0,0,1,.093.082c.051.561.127,1.122.224,1.669a.091.091,0,0,1-.068.107l-.016,0m-.311-3.369a.088.088,0,0,1-.085-.09q0-.125,0-.252c0-.477.016-.965.047-1.451a.088.088,0,0,1,.09-.085.089.089,0,0,1,.079.1c-.031.481-.046.965-.046,1.438q0,.125,0,.249a.089.089,0,0,1-.084.092Zm.2-3.381h-.011a.09.09,0,0,1-.074-.1c.07-.579.153-1.144.248-1.679a.086.086,0,0,1,.1-.073.091.091,0,0,1,.068.107c-.094.532-.177,1.093-.246,1.669a.087.087,0,0,1-.084.08m.6-3.326a.078.078,0,0,1-.022,0,.092.092,0,0,1-.06-.112c.142-.569.3-1.115.48-1.623a.084.084,0,0,1,.11-.054.094.094,0,0,1,.05.118c-.174.5-.334,1.043-.475,1.607a.087.087,0,0,1-.082.068M97.3,38.287a1.558,1.558,0,0,1-.649-.144.094.094,0,0,1-.045-.12.083.083,0,0,1,.111-.049,1.379,1.379,0,0,0,1.42-.158.081.081,0,0,1,.118.023.1.1,0,0,1-.021.127,1.553,1.553,0,0,1-.934.32M91.19,37.6a.079.079,0,0,1-.039-.01.1.1,0,0,1-.036-.123,10.518,10.518,0,0,1,.843-1.448A.081.081,0,0,1,92.076,36a.1.1,0,0,1,.017.128,10.367,10.367,0,0,0-.828,1.422.084.084,0,0,1-.075.049m4.4-.624a.084.084,0,0,1-.075-.049,5.521,5.521,0,0,1-.481-1.638.091.091,0,0,1,.071-.1.086.086,0,0,1,.1.076,5.335,5.335,0,0,0,.463,1.581.1.1,0,0,1-.035.124.08.08,0,0,1-.04.011m3.4-.411-.016,0a.091.091,0,0,1-.068-.107,3.261,3.261,0,0,0,.047-.558q0-.108-.007-.22a1.658,1.658,0,0,0-.261-.785.1.1,0,0,1,.023-.127.082.082,0,0,1,.118.025,1.849,1.849,0,0,1,.289.876c0,.079.007.156.007.232a3.448,3.448,0,0,1-.05.591.087.087,0,0,1-.084.075M93.1,34.934a.082.082,0,0,1-.065-.033.1.1,0,0,1,.01-.129,5.369,5.369,0,0,1,1.354-.908.083.083,0,0,1,.112.048.094.094,0,0,1-.045.12,5.2,5.2,0,0,0-1.312.88.081.081,0,0,1-.055.021m4.408-1.006a.079.079,0,0,1-.031-.006,3.469,3.469,0,0,0-1.512-.262.091.091,0,0,1-.089-.087.089.089,0,0,1,.081-.1q.09,0,.178,0a3.614,3.614,0,0,1,1.4.279.094.094,0,0,1,.048.119.085.085,0,0,1-.079.058m-2.486-.248h0a.089.089,0,0,1-.083-.094l0-.08a14.924,14.924,0,0,1,.144-1.621.087.087,0,0,1,.1-.077.091.091,0,0,1,.071.1,14.682,14.682,0,0,0-.142,1.6l0,.082a.088.088,0,0,1-.085.089m.469-3.35a.077.077,0,0,1-.022,0,.092.092,0,0,1-.06-.112c.136-.546.3-1.092.49-1.622a.084.084,0,0,1,.11-.052.094.094,0,0,1,.049.118c-.187.524-.35,1.064-.485,1.6a.086.086,0,0,1-.082.068m1.131-3.161a.078.078,0,0,1-.039-.01.1.1,0,0,1-.037-.123,16.206,16.206,0,0,1,.8-1.473.081.081,0,0,1,.118-.026.1.1,0,0,1,.024.126,16.024,16.024,0,0,0-.79,1.456.084.084,0,0,1-.076.05m1.732-2.827a.081.081,0,0,1-.054-.021.1.1,0,0,1-.011-.129,15.378,15.378,0,0,1,1.076-1.252.081.081,0,0,1,.12,0,.1.1,0,0,1,0,.129,15.19,15.19,0,0,0-1.063,1.237.083.083,0,0,1-.066.033m2.257-2.358a.083.083,0,0,1-.067-.035.1.1,0,0,1,.014-.128,15.843,15.843,0,0,1,1.295-.982.082.082,0,0,1,.117.028.1.1,0,0,1-.026.126,15.73,15.73,0,0,0-1.281.971.082.082,0,0,1-.052.02m37.52-1.753q-.327,0-.666,0a.092.092,0,0,1,0-.183h0c.229,0,.451,0,.676,0,.3,0,.606,0,.9-.009a.092.092,0,0,1,0,.183c-.294.006-.6.009-.9.009Zm-2.242-.053h0c-.514-.024-1.044-.056-1.578-.095a.089.089,0,0,1-.079-.1.087.087,0,0,1,.091-.085c.532.039,1.061.071,1.573.095a.089.089,0,0,1,.081.1.088.088,0,0,1-.085.088m-32.621-.008a.084.084,0,0,1-.076-.05.1.1,0,0,1,.037-.123c.461-.252.946-.489,1.441-.705a.083.083,0,0,1,.111.05.094.094,0,0,1-.047.119c-.491.214-.971.449-1.428.7a.08.08,0,0,1-.039.01m37.353-.013a.088.088,0,0,1-.085-.086.089.089,0,0,1,.08-.1c.537-.034,1.065-.079,1.569-.136a.087.087,0,0,1,.093.081.09.09,0,0,1-.076.1c-.506.057-1.037.1-1.577.136h0m-7.881-.21h-.008c-.512-.05-1.041-.108-1.572-.173a.09.09,0,0,1-.075-.1.087.087,0,0,1,.094-.081c.53.064,1.058.122,1.568.172a.09.09,0,0,1,.077.1.088.088,0,0,1-.085.083M143.76,19.8a.087.087,0,0,1-.084-.077.091.091,0,0,1,.07-.1c.536-.092,1.055-.2,1.543-.322a.085.085,0,0,1,.1.068.092.092,0,0,1-.064.11c-.492.122-1.015.232-1.554.325h-.014m-14.155-.231h-.011c-.511-.072-1.038-.152-1.564-.236a.091.091,0,0,1-.072-.1.086.086,0,0,1,.1-.077c.526.084,1.051.163,1.561.235a.09.09,0,0,1,.073.1.087.087,0,0,1-.084.08m-3.122-.5h-.014c-.508-.09-1.032-.187-1.557-.288a.091.091,0,0,1-.069-.106.086.086,0,0,1,.1-.074c.524.1,1.047.2,1.554.288a.091.091,0,0,1,.07.105.088.088,0,0,1-.084.077m20.346-.046a.086.086,0,0,1-.081-.063.093.093,0,0,1,.054-.115,12.286,12.286,0,0,0,1.458-.616.083.083,0,0,1,.113.044.094.094,0,0,1-.041.122,12.461,12.461,0,0,1-1.477.624.077.077,0,0,1-.026,0m-40.643-.13a.086.086,0,0,1-.081-.064.093.093,0,0,1,.055-.115c.492-.167,1-.321,1.524-.456a.086.086,0,0,1,.1.067.092.092,0,0,1-.063.11c-.516.134-1.025.286-1.513.452a.078.078,0,0,1-.026,0m17.188-.416h-.015c-.523-.1-1.046-.189-1.556-.27a.091.091,0,0,1-.072-.1.086.086,0,0,1,.1-.077c.511.081,1.036.172,1.56.27a.091.091,0,0,1,.069.106.087.087,0,0,1-.084.076M109.248,18.1a.087.087,0,0,1-.084-.076.091.091,0,0,1,.069-.106c.507-.1,1.034-.178,1.564-.246a.086.086,0,0,1,.095.08.09.09,0,0,1-.075.1c-.527.067-1.051.149-1.555.244h-.015m11-.113h-.01c-.527-.068-1.054-.127-1.567-.177a.09.09,0,0,1-.077-.1.087.087,0,0,1,.092-.083c.515.049,1.044.109,1.572.177a.091.091,0,0,1,.075.1.088.088,0,0,1-.084.08m-7.875-.287a.088.088,0,0,1-.085-.085.089.089,0,0,1,.079-.1c.515-.037,1.046-.063,1.579-.075h0a.092.092,0,0,1,0,.183c-.531.012-1.06.037-1.572.075h-.006m4.731-.013h0c-.531-.032-1.06-.053-1.574-.064a.089.089,0,0,1-.084-.093.091.091,0,0,1,.087-.09c.516.01,1.047.032,1.58.064a.089.089,0,0,1,.08.1.088.088,0,0,1-.085.086" transform="translate(-72.819 -13.997)" fill="#3c3299"/><path d="M418.5,14.747a.083.083,0,0,1-.068-.036.1.1,0,0,1,.016-.128,3.145,3.145,0,0,0,.564-.56.081.081,0,0,1,.119-.02.1.1,0,0,1,.019.128,3.22,3.22,0,0,1-.6.6.081.081,0,0,1-.051.019" transform="translate(-341.62 -11.228)" fill="#3c3299"/><path d="M417.937,10.509l2.26-1.381-1.4-.769Z" transform="translate(-341.232 -6.71)" fill="#fc8116"/><path d="M424.6,2.948,426.86.03l-3.613,2.289Z" transform="translate(-345.567 -0.024)" fill="#fd963d"/><path d="M417.442,0l-5.73.81,1.307.688Z" transform="translate(-336.149 0)" fill="#fd963d"/><path d="M422.525.03l-3.614,2.305-.973,1.488.153-2.319Z" transform="translate(-341.232 -0.024)" fill="#ca6e1e"/><path d="M930.883,23.075a.619.619,0,0,1,.065.448.566.566,0,0,1-.379.425l-1.835.575a.516.516,0,0,1-.532-.14.612.612,0,0,1-.153-.565l.454-2a.566.566,0,0,1,.379-.425.516.516,0,0,1,.532.14l1.381,1.42a.605.605,0,0,1,.089.118m-2.4.948a.137.137,0,0,0,.019.025.109.109,0,0,0,.113.03l1.835-.575a.12.12,0,0,0,.08-.09.129.129,0,0,0-.033-.12l-1.381-1.421a.108.108,0,0,0-.112-.03.118.118,0,0,0-.08.09l-.454,2a.128.128,0,0,0,.013.094" transform="translate(-757.706 -17.158)" fill="#fc8116"/><path d="M977.223,581.453a.62.62,0,0,1,.065.447.566.566,0,0,1-.379.425l-1.836.575a.516.516,0,0,1-.532-.14.611.611,0,0,1-.153-.565l.454-2a.566.566,0,0,1,.379-.425.516.516,0,0,1,.532.14l1.381,1.42a.6.6,0,0,1,.089.117m-2.4.948a.139.139,0,0,0,.019.025.109.109,0,0,0,.113.03l1.835-.575a.12.12,0,0,0,.08-.09.129.129,0,0,0-.032-.12l-1.381-1.421a.108.108,0,0,0-.113-.029.118.118,0,0,0-.08.09l-.454,2a.128.128,0,0,0,.013.094" transform="translate(-795.542 -465.415)" fill="#ff73be"/><path d="M52.63,146.264a.62.62,0,0,1,.065.448.567.567,0,0,1-.379.425l-1.836.575a.516.516,0,0,1-.532-.14.611.611,0,0,1-.153-.565l.454-2a.566.566,0,0,1,.379-.425.516.516,0,0,1,.532.14l1.381,1.421a.6.6,0,0,1,.089.117m-2.4.948a.136.136,0,0,0,.019.025.109.109,0,0,0,.113.03l1.835-.575a.12.12,0,0,0,.08-.09.129.129,0,0,0-.032-.12l-1.381-1.421a.109.109,0,0,0-.113-.03.118.118,0,0,0-.08.09l-.454,2a.127.127,0,0,0,.013.094" transform="translate(-40.643 -116.052)" fill="#fc8116"/><path d="M564.977,42.405l.675-.726a.444.444,0,0,0,0-.6.373.373,0,0,0-.555,0l-.675.725-.675-.725a.373.373,0,0,0-.555,0,.444.444,0,0,0,0,.6l.675.726-.674.724a.444.444,0,0,0,0,.6.374.374,0,0,0,.555,0l.674-.724.674.724a.374.374,0,0,0,.555,0,.444.444,0,0,0,0-.6Z" transform="translate(-459.733 -32.882)" fill="#ffac40"/><path d="M1096.282,208.453a1.661,1.661,0,1,1,1.542-1.657,1.6,1.6,0,0,1-1.542,1.657m0-2.8a1.141,1.141,0,1,0,1.06,1.139,1.1,1.1,0,0,0-1.06-1.139" transform="translate(-893.818 -164.682)" fill="#fc8116"/><path d="M58.894,561.94a1.661,1.661,0,1,1,1.542-1.657,1.6,1.6,0,0,1-1.542,1.657m0-2.8a1.141,1.141,0,1,0,1.06,1.138,1.1,1.1,0,0,0-1.06-1.138" transform="translate(-46.826 -448.456)" fill="#3a8416"/></g></g></g></svg>