<svg xmlns="http://www.w3.org/2000/svg" xmlns:xlink="http://www.w3.org/1999/xlink" width="225.238" height="180.04" viewBox="0 0 225.238 180.04"><defs><clipPath id="a"><rect width="57.828" height="57.828" fill="none"/></clipPath><clipPath id="b"><rect width="24.048" height="6.669" fill="none"/></clipPath><clipPath id="c"><rect width="27.325" height="27.325" fill="none"/></clipPath></defs><g transform="translate(-639.335 -7876.414)"><path d="M20,0H185.588a20,20,0,0,1,20,20V165.212a0,0,0,0,1,0,0H0a0,0,0,0,1,0,0V20A20,20,0,0,1,20,0Z" transform="translate(649.04 7884.629)" fill="#c2e8b0"/><path d="M267.879,643.757c0,6.85-50.421,12.4-112.619,12.4s-112.619-5.553-112.619-12.4,50.421-12.4,112.619-12.4,112.619,5.553,112.619,12.4" transform="translate(596.694 7400.294)" fill="#455a64"/><g transform="translate(-315)"><path d="M184.244,204.97c-12.146,0-176.356-.384-176.356-.405-.068-.173-20.846-27.77,5.318-56.623,12.964-14.3-11.905-32.818,0-48.721,20.393-27.241,40.57-11.9,57.38-19.561a27.122,27.122,0,0,0,8.934-6.869,33.983,33.983,0,0,1,5.49-4.939q.453-.327.916-.639a35.784,35.784,0,0,1,3.663-2.154q1.269-.649,2.587-1.2h0a40.072,40.072,0,0,1,4.287-1.513,45.214,45.214,0,0,1,6.395-1.359q1.427-.2,2.876-.318c18.782-1.53,39.919,7.076,50.827,19.656,2.2,2.533,12.182,15.64,4.311,33.655-4.97,11.374,15.851,22.237,23.25,35.226,18.811,33.022.293,55.335.122,55.765" transform="translate(971.259 7830.767)" fill="#85d161" opacity="0.28"/><g transform="translate(1065.805 7919.264)" opacity="0.8"><g clip-path="url(#a)"><path d="M1220.337,470.6a29.1,29.1,0,0,1-2.218,4.734,28.915,28.915,0,0,1-53.794-12.643,28.417,28.417,0,0,1,.037-4.41,29.112,29.112,0,0,1,4.359-12.989c.012-.02.025-.038.037-.059a28.983,28.983,0,0,1,16.479-12.307c.706-.2,1.422-.378,2.143-.525a28.749,28.749,0,0,1,15.667,1.156q1.037.377,2.025.823a28.711,28.711,0,0,1,11.717,9.673h0a29.017,29.017,0,0,1,4.623,10.49q.266,1.213.429,2.45a28.775,28.775,0,0,1-1.5,13.606" transform="translate(-1164.257 -431.812)" fill="#d7e5ff"/><path d="M1228.885,450.578c-1.708,1.323-1.255,4.863-4.212,2.867s-4.813-3.08-5.65-1.339,1.782,2.694,1.093,4.592-2.093,2.1-3.571.54-1.523-3.057-3.919-3.008-3.419-.936-3.3-2.734a2.53,2.53,0,0,0-.079-.834c.012-.02.025-.039.037-.059A28.983,28.983,0,0,1,1225.76,438.3c.706-.2,1.422-.378,2.142-.525a3.8,3.8,0,0,1,2.206,2.41c1.043,3.039,2.734,2.324,1.3,4.87s-.846,3.171.723,3.638,3.376,1.124,3.129,2.365-4.665-1.8-6.374-.476" transform="translate(-1204.781 -437.179)" fill="#aec3ff"/><path d="M1544.442,678.1a29.11,29.11,0,0,1-2.218,4.734,28.744,28.744,0,0,1-8.076,8.864,3.3,3.3,0,0,1-2.151-.848c-2.9-2.587.942-5.334,2.962-6.671s-1.731-1.78-3.622-4.385,2.537-6.135-.309-6.326-6.307-.375-6.886-3.424,2.414-2.421,1.89-4.989,1.952-3.049,4.6-2.316,2.975-1.22,6.258-.333,1.738,4.927,5.359,5.937,3.168,1.765,3.168,1.765a1.748,1.748,0,0,1,.68.422,28.967,28.967,0,0,1-1.655,7.571" transform="translate(-1488.362 -639.311)" fill="#aec3ff"/><path d="M1610.09,561.621c-3.448.361-3.215-3.944-6.143-3.689-2.952.257-1.689-1.841-3.15-4.009s-6.39-.992-5.388-3.186,3.753-.477,5.042-2.053,4.016-.074,4.016-.074a2.079,2.079,0,0,1,.569.072s0,0,0,0a29.016,29.016,0,0,1,4.623,10.49q.266,1.213.429,2.45" transform="translate(-1552.505 -536.437)" fill="#aec3ff"/><path d="M1463.74,470.773s2.341-1.658.14-3.2-2.468-.668-4.291-1.56-3.1.306-2.263,2.426.873,5.617,2.757,4.445,2.087-2.5,3.657-2.113" transform="translate(-1428.006 -462.352)" fill="#aec3ff"/></g></g><path d="M157.857,1581.816h10.082c.54-.458-.374-1.5-1.329-1.569a5.885,5.885,0,0,0-1.539.182c-.139-1.843-.931-10.126-3.917-9.793-3.357.373,0,3.648.949,5.587a46.048,46.048,0,0,1,1.784,4.468c-.273.059-.555.117-.843.17-.445-1.366-2.1-5.962-4.206-5.694-2.472.313-1.478,2.156.274,3.25,1.285.8,2.864,1.948,3.614,2.5a10.724,10.724,0,0,1-1.972.158,4.248,4.248,0,0,0-2.9.742" transform="translate(808.531 6461.646)" fill="#a8d29f"/><path d="M1692.948,1589.044h-9.364c-.5-.426.347-1.392,1.234-1.457a5.475,5.475,0,0,1,1.429.169c.129-1.712.865-9.406,3.638-9.1,3.118.346,0,3.388-.881,5.189a42.812,42.812,0,0,0-1.657,4.15c.253.055.515.109.783.158.413-1.269,1.951-5.538,3.907-5.289,2.3.291,1.373,2-.254,3.019-1.194.747-2.66,1.809-3.357,2.322a9.945,9.945,0,0,0,1.831.147,3.946,3.946,0,0,1,2.691.689" transform="translate(-566.111 6454.417)" fill="#a8d29f"/><path d="M1825.821,1045.361s.223-2.217-.936-2.141-1.466.608-1.337,1.034a12.084,12.084,0,0,0,1.257,1.835Z" transform="translate(-692.296 6936.717)" fill="#ffb27d"/><path d="M1851.975,1066.068a18.919,18.919,0,0,1-4.043,3.248c-.261.165-.535.332-.823.5a30.567,30.567,0,0,1-3.781,1.86c-.16.066-.348.138-.558.214a27.251,27.251,0,0,1-6.583,1.52c-.164.006-.32.006-.464,0-2.87-.116-3.22-11.255-3.22-11.255a1.412,1.412,0,0,1,1.794-.834s2.239,6.291,3.042,6.8c.713.456,4.81-5.755,8.337-6.189,2.374-.292,6.3,4.133,6.3,4.133" transform="translate(-700.387 6920.451)" fill="#529d2e"/><path d="M1888.031,1648.38s.212,2.452-.307,2.707l-6.634-.014s0-.766,1.065-.936,2.937-.794,3.254-2.183,2.621.425,2.621.425" transform="translate(-744.153 6392.462)" fill="#1c3154"/><path d="M1901.767,1288.185c.033,1.6.11,3.257.26,4.744.717,7.053.968,15.575,1.071,17.218.178,2.852.742,7.409.742,7.409a3.642,3.642,0,0,0,3.3.555,74.162,74.162,0,0,0,2.208-13.473q.01-.17.018-.341c.047-.913.1-1.958.146-3.085.332-7.545.692-18.753.692-18.753l-8.324-1.955s-.192,3.684-.11,7.681" transform="translate(-762.759 6722.978)" fill="#2a4e96"/><path d="M1901.767,1288.185c2.11,3.64,6.131,10.346,7.742,13.027.332-7.545.692-18.753.692-18.753l-8.324-1.955s-.192,3.684-.11,7.681" transform="translate(-762.759 6722.978)" fill="#233862"/><path d="M1876.216,1143.009a27.238,27.238,0,0,1-6.582,1.52c.288-.054,2.388-.47,3.165-1.407.834-1.008,2.238-3.745,3.355-2.628.526.526.372,1.565.063,2.516" transform="translate(-733.833 6849.332)" fill="#3a8416"/><path d="M2060.032,1344.835a12.93,12.93,0,0,1,.432,2.477,8.868,8.868,0,0,1-.9,2.354c-.315.378-.327-1.645-.536-1.962s-.1.755-.263.843-.447-.813-.572-1.132.447-1.431.5-2.227,1.344-.351,1.344-.351" transform="translate(-903.661 6665.142)" fill="#ffb27d"/><path d="M2078.732,1624.276s1.181,1.078.95,1.843-1.3,1.276-1.44,2.212-.72,1.446-1.238,1.446h-2.471s-.382-.658.54-.857,1.269-1.3,1.211-2.319a18.006,18.006,0,0,1,.086-2.382l1.959-.454Z" transform="translate(-918.329 6413.778)" fill="#1c3154"/><path d="M1916.276,1278.925s7.792,16.673,11.939,23.989,5.443,9.357,5.443,9.357,2.376-.936,2.592-1.574c0,0-1.586-14.123-4.363-17.566-1.569-1.945-3.412-7.783-3.5-9.825s-1.907-6.914-1.907-6.914Z" transform="translate(-775.847 6726.682)" fill="#2a4e96"/><path d="M1901.536,1086.115a13.5,13.5,0,0,0,6.849,3.556c1.892.362,5.733.712,6.686-.635a2.409,2.409,0,0,0,.176-1.516c-.128-1.9-.607-5.575,1.552-12.958a12.591,12.591,0,0,0,.415-1.974c.471-3.777.42-6.629-2.857-8.152-4.91-2.283-6.926-.4-6.926-.4a8.225,8.225,0,0,0-3.805,4.777c-2.387,7.114-2.09,17.307-2.09,17.307" transform="translate(-762.56 6918.625)" fill="#529d2e"/><path d="M1967.063,1023.828a3.646,3.646,0,0,1-3.668.24,4.2,4.2,0,0,1-.067-1.507c.027-.707.093-1.4.093-1.4l1.747-1.147,1.667-1.094c-.2,3.762.6,4.642.227,4.908" transform="translate(-818.213 6958.605)" fill="#ffb27d"/><path d="M1966.713,1030.4a5.369,5.369,0,0,1-3.215,2.089c.027-.707.1-1.486.1-1.486l1.739-1.062Z" transform="translate(-818.383 6948.676)" fill="#ed985f"/><path d="M1944.542,974.875s4.227,1.578,5.168-1.027,2.12-4.155-.54-5.272-3.546-.311-4.074.482-1.629,5.34-.554,5.818" transform="translate(-800.898 7004.447)" fill="#ffb27d"/><path d="M1947.559,953.288c.049-.038.147-.056.353-.027a.842.842,0,0,0-.359-.182,1.043,1.043,0,0,0-.5-1.04.623.623,0,0,1,.209.5c-.45-.691-1.576-1.352-4.976-1.749-4.481-.523-3.585,2.589-3.08,3.039s2.125-.19,3.172.105.946,1.873,1.266,2.155.251-.119.783-.243.419.694.174,1.193.289,1.325.289,1.325l.823-.6c.823-.6,2.073-3.564,1.9-4.285-.016-.064-.031-.128-.047-.193" transform="translate(-796.114 7020.028)" fill="#2c3a64"/><path d="M2016.038,1170.549c-.128-1.9-.606-5.575,1.552-12.958a12.593,12.593,0,0,0,.415-1.974h0c-1.6-.529-4.525.648-4.525.648s-.687,9.76,2.559,14.285" transform="translate(-863.35 6835.596)" fill="#3a8416"/><path d="M1975.851,1079.679s1.973.718,3.232,5.942c.832,3.452,2.363,8.525,2.535,10.12s-1.75,10.928-1.75,10.928a1.251,1.251,0,0,1-.935.065,1.546,1.546,0,0,1-.932-.557s-.46-6.221-.341-9.159c.049-1.221-5.65-8.938-8.725-9.932-1.208-.391,6.917-7.407,6.917-7.407" transform="translate(-823.169 6903.875)" fill="#529d2e"/><path d="M1761.626,926.322a65.632,65.632,0,0,1,12.284,1.049l.688-1.733.754-1.9s-6.607-2.844-10.578-6.805Z" transform="translate(-636.543 7050.469)" fill="#aec3ff"/><path d="M1758.866,915.456l-3.274,9.666a.871.871,0,0,1-.574-1.126l2.882-8.121a.719.719,0,0,1,.966-.418" transform="translate(-630.546 7051.855)" fill="#f99746"/><path d="M1817.137,1011.6h0a1.184,1.184,0,0,0,1.389-.926l1.127-5.641a1.18,1.18,0,0,0-2.315-.463l-1.127,5.641a1.184,1.184,0,0,0,.926,1.389" transform="translate(-685.69 6972.385)" fill="#f99746"/><path d="M1761.626,1001.46a65.628,65.628,0,0,1,12.284,1.049l.688-1.733c-6.184-1.263-12.972.683-12.972.683" transform="translate(-636.543 6975.331)" fill="#739af0"/><path d="M1867.084,979.86l1.782.313a1.965,1.965,0,0,0,2.207-1.164,1.215,1.215,0,0,0,.106-.322c.428-1.859-.592-2.2-.592-2.2l-2.293-.894-.729,2.579v.009Z" transform="translate(-731.536 6997.631)" fill="#f99746"/><path d="M1867.084,1003.267l1.782.313a1.965,1.965,0,0,0,2.207-1.164,8.635,8.635,0,0,0-3.508-.838v.009Z" transform="translate(-731.536 6974.224)" fill="#ed7d2b"/><path d="M1820.24,1028.531s.872.348.712.731-1.268.912-1.443.609.183-1.664.732-1.34" transform="translate(-688.642 6949.991)" fill="#ffb27d"/><path d="M1844.517,1042.6a12.216,12.216,0,0,0,.175-1.3c.01-.41.058-.744-.038-.756s-.166.064-.206.2-.19.949-.19.949l.076.789Z" transform="translate(-710.976 6939.124)" fill="#ffb27d"/><path d="M932.743,1050.381l-4.939,58.726s-.517,3.56,2.131,3.566c4.354.01,21.67,0,21.67,0s-3.277-.741-3.237-2.408c.047-1.965,5.773-60.44,5.773-60.44Z" transform="translate(114.573 6930.766)" fill="#7599ea"/><path d="M966.156,1101.959c-.856,0-17.621.031-21.86-.024-1.848-.023-2.172-1.643-2.187-2.691a5.24,5.24,0,0,1,.056-.874l.128-1.526.327-3.89.289-3.437.372-4.417.313-3.728,3.509-41.729,21.4-.555s-2.412,24.471-4.117,42.284c-.19,1.985-.371,3.888-.539,5.664q-.082.851-.157,1.662c-.158,1.685-.3,3.233-.429,4.6-.066.72-.128,1.39-.183,2-.218,2.4-.345,3.936-.347,4.228a2.468,2.468,0,0,0,.042.475c.351,1.872,3.064,1.957,3.386,1.957" transform="translate(101.652 6940.438)" fill="#90aff4"/><path d="M454.288,733.388l12.031,48.324,1.647,6.618,5.6,22.508h104.1l-20.653-77.45Z" transform="translate(541.064 7215.802)" fill="#aec3ff"/><path d="M439.151,733.387l-1.667.556,18.732,78.576,2.217-1.681Z" transform="translate(556.201 7215.803)" fill="#90aff4"/><path d="M626.252,1515.569H729.711l2.857-1.681h-104.1Z" transform="translate(386.165 6512.753)" fill="#7599ea"/><rect width="22.4" height="1.064" transform="translate(1048.749 8042.396)" fill="#aec3ff"/><path d="M968.454,1530.822l-.116.814-21.066,4.256.289-3.437.138-1.633Z" transform="translate(97.001 6497.499)" fill="#5888dd"/><g transform="translate(1043.761 8035.737)" opacity="0.4"><g clip-path="url(#b)"><path d="M966.162,1612.215c-.856,0-17.621.031-21.861-.024-1.848-.023-2.172-1.643-2.187-2.691l20.967-3.945c-.218,2.4-.345,3.936-.347,4.228a2.468,2.468,0,0,0,.042.475c.351,1.872,3.064,1.956,3.386,1.956" transform="translate(-942.114 -1605.555)" fill="#5888dd"/></g></g><path d="M454.286,733.387H557.014l16.668,62.246h-103.9Z" transform="translate(541.066 7215.803)" fill="#aec3ff"/><path d="M607.46,823.2H511.276l-3.437-13.692-1.33-5.3-.542-2.161-3.533-14.071-.183-.732-1.867-7.438-.835-3.328-.713-2.839-1.671-6.655h94.8l1.835,6.655.782,2.839.917,3.328,6.044,21.925h0l.513,1.857.238.862,4.173,15.137Z" transform="translate(502.442 7185.534)" fill="#a4dc88"/><path d="M593.8,773.643H498.84l-1.67-6.655h94.8Z" transform="translate(502.438 7185.537)" fill="#529d2e"/><path d="M536.456,789.746a.629.629,0,0,1,.625-.832,1.136,1.136,0,0,1,1.039.832.629.629,0,0,1-.624.832,1.137,1.137,0,0,1-1.039-.832" transform="translate(467.074 7165.786)" fill="#e9f3fe"/><path d="M564.314,789.746a.629.629,0,0,1,.625-.832,1.136,1.136,0,0,1,1.039.832.629.629,0,0,1-.625.832,1.136,1.136,0,0,1-1.039-.832" transform="translate(441.98 7165.786)" fill="#e9f3fe"/><path d="M594.311,789.746a.629.629,0,0,1,.625-.832,1.136,1.136,0,0,1,1.039.832.629.629,0,0,1-.624.832,1.136,1.136,0,0,1-1.039-.832" transform="translate(414.959 7165.786)" fill="#e9f3fe"/><path d="M1211.406,37.417c3.888-4.564,9.882-13.733,13.918-18.429a1.489,1.489,0,0,0-1.134-2.458h-7.344L1223.773.866A.614.614,0,0,0,1222.72.25l-16.75,22.419a.927.927,0,0,0,.856,1.475l8.315-1.024-4.947,13.588a.713.713,0,0,0,1.213.709" transform="translate(-135.857 7876.416)" fill="#f77d48"/><path d="M831.083,391.047c.875-4.486,1.427-12.818,2.351-17.446a1.135,1.135,0,0,0-1.672-1.208l-4.878,2.747-1.258-13a.468.468,0,0,0-.93-.015l-2.739,21.156a.707.707,0,0,0,1.12.659l5.139-3.79,1.8,10.875a.544.544,0,0,0,1.071.017" transform="translate(209.887 7550.587)" fill="#f6f6f6"/><path d="M809.911,539.8l-83.577,7.041a8.366,8.366,0,0,1-8.341-11.749L753.4,455.848a8.366,8.366,0,0,1,14.6-1.23l48.168,72.2a8.366,8.366,0,0,1-6.257,12.979" transform="translate(304.193 7470.264)" fill="#e6efff"/><path d="M781.356,514.149l-83.576,7.042a11.538,11.538,0,0,1-11.5-16.2l35.408-79.244a11.538,11.538,0,0,1,20.133-1.7l48.168,72.2a11.538,11.538,0,0,1-8.63,17.9m-49.573-88.875a5.128,5.128,0,0,0-4.306,3.056l-35.409,79.244a5.193,5.193,0,0,0,5.178,7.294l83.576-7.041a5.193,5.193,0,0,0,3.884-8.057l-48.168-72.2a5.128,5.128,0,0,0-4.756-2.293" transform="translate(333.015 7499.075)" fill="#fc8116"/><path d="M1095.451,712.715a7.648,7.648,0,0,1,.325-3.035,7.006,7.006,0,0,1,1.43-2.512,7.508,7.508,0,0,1,2.4-1.78,9.365,9.365,0,0,1,3.288-.844,9.577,9.577,0,0,1,3.408.28,7.465,7.465,0,0,1,2.69,1.351,7.014,7.014,0,0,1,1.83,2.237,7.662,7.662,0,0,1,.829,2.938,7.481,7.481,0,0,1-.327,3.011,7.061,7.061,0,0,1-1.432,2.487,7.446,7.446,0,0,1-2.426,1.782,9.576,9.576,0,0,1-3.313.846,9.364,9.364,0,0,1-3.383-.282,7.487,7.487,0,0,1-2.665-1.353,7.051,7.051,0,0,1-1.828-2.213,7.464,7.464,0,0,1-.826-2.914m12.921-15.12-12.038,1.014-5.171-40.99,15.45-1.3Z" transform="translate(-32.612 7285.224)" fill="#fc8116"/><path d="M611.385,1081.215s.262-.589.432-.869.895-1.1,1.018-.911.617,1.431.355,1.78.017.956-1.287,1.323Z" transform="translate(399.557 6904.119)" fill="#ffb27d"/><path d="M465.311,1060.115s6.677,5.574,9.281,5.058c2.036-.4,5.254-1.424,5.254-1.424a2.054,2.054,0,0,1,.609,1.777s-4.1,3.858-7.022,3.883c-4.566.039-6.72-2.263-6.72-2.263Z" transform="translate(531.135 6921.497)" fill="#4b9228"/><path d="M347.3,1643.429s.194,3.127.8,3.172c.08.006,3.068.006,3.068.006l3.814-.022a1.237,1.237,0,0,0-1.14-1.113,5.17,5.17,0,0,1-3.656-2.451c-.71-1.55-2.885.409-2.885.409" transform="translate(637.432 6396.973)" fill="#113c68"/><path d="M345.088,1304.338a7.953,7.953,0,0,0,2.065.388,7.585,7.585,0,0,0,1.927-.275,52.775,52.775,0,0,1,1.42-6.762c.63-2.438,1.529-5.572,2.809-9.467a128.184,128.184,0,0,0,4.712-17.658c.005-.031.007-.047.007-.047l-.012-.005-10.876-4.776s1.344,14.836-.371,20.531a23.99,23.99,0,0,0-.622,2.728,109.362,109.362,0,0,0-1.058,15.344" transform="translate(639.429 6736.281)" fill="#2a4e96"/><path d="M365.661,1297.688c.63-2.438,1.529-5.572,2.809-9.467a128.2,128.2,0,0,0,4.712-17.658c0-.018,0-.034,0-.052l-10.876-4.776s1.344,14.836-.371,20.531c-.24.8,3.731,11.423,3.731,11.423" transform="translate(624.267 6736.281)" fill="#233862"/><path d="M432.911,1643.429s.194,3.127.8,3.172c.08.006,3.068.006,3.068.006l3.814-.022a1.238,1.238,0,0,0-1.14-1.113,5.17,5.17,0,0,1-3.656-2.451c-.711-1.55-2.885.409-2.885.409" transform="translate(560.32 6396.973)" fill="#15447c"/><path d="M390.082,1269.258a154.829,154.829,0,0,1-1.522,21.418c-1.663,11.8-1.1,16.815-1.1,16.815a11.313,11.313,0,0,1-1.6.408,7.276,7.276,0,0,1-2.38-.275s-2.381-11.808-1.7-17.717-3.26-20.274-3.26-20.274Z" transform="translate(609.315 6733.107)" fill="#2a4e96"/><path d="M417.334,999.4l2.123,1.392,1.934-.547a4.62,4.62,0,0,0,.452-2.319,14.412,14.412,0,0,0-.076-1.544l-2.864-1.264-1.069-.471c0,.017.083.878.095,1a7.311,7.311,0,0,1-.595,3.749" transform="translate(574.352 6980.469)" fill="#ffb27d"/><path d="M373.871,1060.388c-2.643,2.552-12.644,2.122-13.26-.689s.672-23.93,5.186-25.257c.937-.275,5.945,1.343,5.945,1.343a31.753,31.753,0,0,1,1.3,4.673c.1.509.392,5.906.61,10.955.1,2.361.188,4.647.232,6.321a18.223,18.223,0,0,1-.015,2.653" transform="translate(625.575 6944.651)" fill="#529d2e"/><path d="M424.746,999.961c.581.983,2.62,1.842,3.7,2.236a14.419,14.419,0,0,0-.076-1.544l-2.864-1.264c-.633-.008-1.019.133-.76.572" transform="translate(567.749 6976.197)" fill="#fca56b"/><path d="M414.473,941.423s-4.615,1.44-5.468-1.448-2.022-4.647.889-5.688,3.811-.109,4.33.786,1.427,5.9.249,6.351" transform="translate(582.727 7035.253)" fill="#ffb27d"/><path d="M395.816,920.48s-.294,3.361-.989,3.215-1.46-.458-1.358.555-.676,2.75-1.678,2.745c-2.149-.009-4.485-5.524-3.9-6.57,1.7-3.018,10.376-3.627,7.922.055" transform="translate(600.953 7049.567)" fill="#163560"/><path d="M418.9,1022.6c-.06-.025-3.436-1.54-3.831-1.409s-.887,1.336-.887,1.336l5.945,1.344a2.953,2.953,0,0,0-1.227-1.271" transform="translate(577.191 6956.566)" fill="#3a8416"/><path d="M485.672,1183.858l-18.926,17.819c-.371.349-.839.46-1.039.247l-.639-.679c-.2-.213-.062-.673.309-1.023L484.3,1182.4c.371-.349.839-.461,1.039-.247l.639.678c.2.213.062.674-.309,1.023" transform="translate(531.437 6811.663)" fill="#1f4d84"/><path d="M475.053,1287.856l-8.305,7.819c-.371.349-.839.461-1.039.247l-.639-.679c-.2-.213-.062-.673.309-1.023l8.305-7.819Z" transform="translate(531.436 6717.665)" fill="#739af0"/><path d="M623.862,958.546a14.834,14.834,0,1,0,24.587-14.907q-.114-.114-.233-.225a14.835,14.835,0,0,0-24.354,15.132m4.24-13.691a13.664,13.664,0,1,1,.588,19.314,13.648,13.648,0,0,1-.588-19.314" transform="translate(388.896 7030.248)" fill="#1f4d84"/><g transform="translate(1013.287 7970.803)" opacity="0.5"><g clip-path="url(#c)"><path d="M658.63,974.211a13.664,13.664,0,1,1-.589-19.313,13.607,13.607,0,0,1,.589,19.313" transform="translate(-635.017 -951.187)" fill="#b3cff9"/></g></g><path d="M408.742,1111.991c-10.428-7.431-9.561-17.347-9.561-17.347,3.812,2.15,7.594,6.9,9.329,11.026.1,2.361.188,4.647.232,6.321" transform="translate(590.719 6890.395)" fill="#3a8416"/><path d="M588.078,1227.883a2.845,2.845,0,0,0,1.332-.823s.314.021-.051.69c-.031.056-.1.2-.15.3a.065.065,0,0,0,.055.094,6.942,6.942,0,0,1,1.669.035c.113.024.146.294.141.409a1.043,1.043,0,0,1-.22.712,3.643,3.643,0,0,1-1.318.69,3.983,3.983,0,0,1-2.039-.256l-.668-.309.207-1.241.168.035c.266.056.6-.269.874-.337" transform="translate(421.676 6771.118)" fill="#ffb27d"/><path d="M400.6,1048.272s-9.37,1.784,2.757,15.353c1.939,2.17,12.418,5,12.418,5s1.063-.9.527-1.637c0,0-7.215-5.239-8.8-6.072-.714-.375-2.772-8.362-3.936-10.286a5.249,5.249,0,0,0-2.964-2.355" transform="translate(592.532 6932.165)" fill="#529d2e"/><path d="M613.945,1078.546a4.771,4.771,0,0,0,.366-.895,4.937,4.937,0,0,1,.6-1.369c.064-.064.273.019.3.292a1.589,1.589,0,0,1-.151.593,6.673,6.673,0,0,0-.2,1.178c-.145.472-.921.2-.921.2" transform="translate(397.25 6906.952)" fill="#ffb27d"/><path d="M650.2,818.978a.565.565,0,0,0-.1.6,0,0,0,0,0,0,0,3.755,3.755,0,0,0,1.187,1.3c.072.058.135.11.19.159l.043.038.033.03c.522.481.325.591,1.262,1.568,1.068,1.112,1.8,1.133,2.014,1.031.177-.086-.182-.676-.581-1.339l-.058-.1c-.053-.088-.106-.178-.159-.266-.467-.8-.347-1.172-.236-2.36.09-.965,1.5-5.39,1.5-5.39l-2.048-.354s-.618,3.524-1.3,4.067c-.364.289-.77.293-1.12.507l-.073.046a2.688,2.688,0,0,0-.561.45" transform="translate(364.724 7143.272)" fill="#ffb27d"/><path d="M650.2,860.91a.565.565,0,0,0-.1.6,0,0,0,0,0,0,0,4.349,4.349,0,0,0,1.189,1.3c.071.059.133.113.188.163l.043.038.033.03c.522.481.325.591,1.262,1.568,1.068,1.113,1.8,1.133,2.014,1.032.177-.086-.182-.676-.581-1.339a4.556,4.556,0,0,1-1.9-1.4c-.62-.792-1.041-1.8-1.463-2.42l-.12-.023a2.689,2.689,0,0,0-.561.45" transform="translate(364.724 7101.339)" fill="#233862"/><path d="M803.118,812.089c.126.632,1.028.527,2.035.281s.768.047,2.2-.111,1.867-.692,1.911-.905c.039-.189-.669-.256-1.428-.344l-.287-.035a6.2,6.2,0,0,1-2.264-1.116,9.1,9.1,0,0,1-1.838-2.185l-1.965.155s1.031,1.567,1.429,2.248a2.375,2.375,0,0,1,.193,1.339,2.525,2.525,0,0,0,.015.672" transform="translate(228.324 7148.888)" fill="#ffb27d"/><path d="M819.738,842.649c1.007-.246.768.047,2.2-.111s1.868-.692,1.911-.905c.039-.189-.669-.256-1.428-.344l-.007.015a4.04,4.04,0,0,1-2.053.637c-.972.023-2-.255-2.673-.245a2.518,2.518,0,0,0,.015.672c.126.632,1.027.527,2.035.281" transform="translate(213.739 7118.609)" fill="#233862"/><path d="M680.881,696.887l-1.839,4.943-2.4,6.454a3.886,3.886,0,0,1-1.274-.117,5.526,5.526,0,0,1-1.232-.6,70.13,70.13,0,0,1,1.912-10.909,7.091,7.091,0,0,1,1.07-2.312c1.927-2.276,3.764,2.541,3.764,2.541" transform="translate(343.033 7251.52)" fill="#233862"/><path d="M561.99,637.352c-1.046-.338-3.775-.007-6.734.528a2.008,2.008,0,0,1-2.073-.937l-7.449-.584s-2.46,5.45-1.115,8.924a1.307,1.307,0,0,0,1.3.84h0s4.5.008,5.941.008c3.7,0,7.841-2.544,8.376-2.65.876-.175,1.225,1.576,2.1,3.416s8.228,8.146,8.228,8.146a6.475,6.475,0,0,0,1.6-.163,1.574,1.574,0,0,0,.686-.433s-8.145-16.218-10.859-17.094" transform="translate(460.059 7303.203)" fill="#2a4e96"/><path d="M516.543,417.8a2.642,2.642,0,0,0-1.423-.371,3.96,3.96,0,0,1-.687-.042c-2.843-.418-4.556,3.711-4.657,4.959-.185,2.291-1.4,2.639-3.1,4.073-3.421,2.875-2.419,6.218-.55,7.461,1.122.746,3.1,0,3.1,0,.028.019,5.41-3.006,8.063-4.466,3.977-.564.854-10.664-.744-11.616" transform="translate(495.916 7500.468)" fill="#233862"/><path d="M578.825,488.47a3.506,3.506,0,0,1-2.185.066,3.9,3.9,0,0,1-1.443-1.73c.377-.017.791-.346,1.11-2.508l.16.058,2.7.972s-.2.866-.323,1.69c-.107.692-.164,1.355-.017,1.453" transform="translate(432.154 7440.174)" fill="#ffb27d"/><path d="M590.7,485.851s-.108.467-.265,1.339A3.046,3.046,0,0,1,588,484.879Z" transform="translate(420.621 7439.651)" fill="#ed975d"/><path d="M588.648,444.392s-3.691-.5-3.346-2.79.1-3.9,2.472-3.682,2.7,1.164,2.767,1.958-.924,4.585-1.893,4.515" transform="translate(423.072 7481.969)" fill="#ffb27d"/><path d="M580.8,436.78s-2.363,2.035-3.971,2.2a3.08,3.08,0,0,1-2.215-.353,6.274,6.274,0,0,0,1.518-2.055,1.131,1.131,0,0,1,.932-.666c1.148-.1,3.323-.143,3.736.875" transform="translate(432.681 7483.808)" fill="#233862"/><path d="M622.069,439.31a5.818,5.818,0,0,1,1.039,1.331,4.466,4.466,0,0,1,.12,2.375s1.232-2.394.536-3.558a.984.984,0,0,0-1.695-.149" transform="translate(389.933 7481.096)" fill="#233862"/><path d="M553.159,515.885c-.114,7.471-.033,5.91-.85,6.619a3.138,3.138,0,0,1-1.479.32c-2.291.151-6.318-.228-6.471-.651-.528-1.465-.155-1.92-.595-4.163-.046-.239-.1-.5-.169-.778-.367-1.541-.725-2.065.58-4.539A19.315,19.315,0,0,1,546.7,508.7c3.12,1.853,3.372.3,3.372.3s3.145,3.246,3.089,6.891" transform="translate(460.927 7418.197)" fill="#529d2e"/><path d="M679.041,728.361l-2.4,6.454a3.885,3.885,0,0,1-1.274-.117,5.519,5.519,0,0,1-1.232-.6,70.119,70.119,0,0,1,1.912-10.909Z" transform="translate(343.034 7224.989)" fill="#2a4e96"/><path d="M611.933,511.7s3.211.545,3.587,1.928,1.615,9.773,1.615,9.773-.906.884-1.659.13-2.37-7.851-2.37-7.851Z" transform="translate(399.063 7415.493)" fill="#529d2e"/><path d="M555.449,579.124c-2.291.151-6.318-.228-6.471-.651-.528-1.465-.155-1.92-.595-4.163l1.106-3.111s-.184,3.465.838,4.377,4.183,1.761,4.68,2.522a2.786,2.786,0,0,1,.443,1.026" transform="translate(456.307 7361.896)" fill="#3a8416"/><path d="M593.143,633.2a9.613,9.613,0,0,1,2.625-.3,5.307,5.307,0,0,1,1.367,1.186c.112.254-.812-.193-1.112-.274a2.677,2.677,0,0,0-.96.21,3.191,3.191,0,0,1-1.72.172Z" transform="translate(415.988 7306.361)" fill="#ffb27d"/><path d="M511.434,508.7s-3.035.186-4.086,1.651c-1.48,2.062-4.416,10.852-2.735,12.025,1.893,1.321,8.618.348,8.618.348a2.731,2.731,0,0,0-.087-1.552c-.311-.506-5.37-1.325-5.6-1.559s2.92-4.552,2.921-5.253.974-5.661.974-5.661" transform="translate(496.188 7418.196)" fill="#529d2e"/><path d="M620.7,639.669a4.373,4.373,0,0,0,.629.684.463.463,0,0,0,.256.055l-.319-.574Z" transform="translate(391.168 7300.221)" fill="#ffb27d"/><path d="M619.6,633.329l1.377.669a.245.245,0,0,1-.228.088,3.284,3.284,0,0,1-.6-.164Z" transform="translate(392.16 7305.932)" fill="#ffb27d"/><path d="M607.52,649.165l-14.382,0v.317l14.255.005Z" transform="translate(415.993 7291.672)" fill="#233862"/><path d="M627.029,578.424l10.892,0,3.279-8.146-10.875,0Z" transform="translate(385.465 7362.727)" fill="#233862"/><path d="M699.489,606.639a.377.377,0,0,0-.37-.519.743.743,0,0,0-.667.518.377.377,0,0,0,.37.519.743.743,0,0,0,.668-.518" transform="translate(321.149 7330.441)" fill="#fff"/><path d="M1390.853,960.287a3.127,3.127,0,0,0-2.483.128c-4.225.174-4.382,4.5-3.886,6.115.7,2.263-1.768,4.048.965,4.964,3.172,1.063,5.833-.2,5.651.349,10.029.79,3.089-10.448-.248-11.556" transform="translate(-296.504 7011.588)" fill="#163560"/><path d="M1351.106,1092.739a11.067,11.067,0,0,1-1.13,1.708c-.877,1.1-5.484-1.51-5.087-1.708s2.711-6.866,3.262-7.7,2.43-1.273,2.43-1.273Z" transform="translate(-261.139 6900.196)" fill="#f99746"/><path d="M1522.586,1622.449s1.271,1.16,1.023,1.984-1.4,1.374-1.55,2.382-.775,1.557-1.333,1.557h-2.661s-.411-.709.581-.923,1.366-1.4,1.3-2.5a19.365,19.365,0,0,1,.093-2.565l2.108-.489Z" transform="translate(-417.075 6415.46)" fill="#1f447f"/><path d="M1390.207,1632.4s.457,4.915-.1,5.19l-7.143-.015s0-.824,1.147-1.007,3.163-.855,3.5-2.351,2.593-1.817,2.593-1.817" transform="translate(-295.456 6406)" fill="#1c3154"/><path d="M1394.185,1085.9a28.448,28.448,0,0,1,0,3.3c-.071,1.194-1.278,2.792-1.449,3.188-.43.992-.915,1.154-.915,1.154l-3.75.919-1.319.323-4.158-1.242s-1.894-5.287-1.133-8.263a22.869,22.869,0,0,1,1.923-5.043,29.678,29.678,0,0,1,7.811-.282Z" transform="translate(-293.94 6903.726)" fill="#f99746"/><path d="M1450.037,1145.164c-.071,1.194-1.635,2.751-1.807,3.146-.43.992-.915,1.153-.915,1.153l-3.75.919-.677-1.941s5.48-1.44,4.6-6.511Z" transform="translate(-349.435 6847.8)" fill="#ed7d2b"/><path d="M1377.261,1225.927s-2.059,6.41-2.192,8.592,3.937,31,4.1,32.008c.154.948,1.331,1.552,1.331,1.552a1.781,1.781,0,0,0,1.314.1,3.247,3.247,0,0,0,1.411-.665s1.6-20.554.611-27.9a116.31,116.31,0,0,1-1-13.692Z" transform="translate(-288.343 6772.139)" fill="#233862"/><path d="M1412.063,1224s3.141,4.215,3.434,7.064.459,12.857,1.083,15.635,2.916,8.123,2.916,16.786a1.728,1.728,0,0,1-.974.761,8.021,8.021,0,0,1-.857.237,1.347,1.347,0,0,1-1.506-.715c-1.55-3.12-6.486-13.184-6.739-15.273-.179-1.479-1.738-11.263-5.138-17-.816-1.378.5-6.86.5-6.86Z" transform="translate(-314.419 6773.873)" fill="#2a4e96"/><path d="M1392.808,1215.956a4.317,4.317,0,0,0,2.469.687c1.962.039,6.823-.5,6.823-.5a4.023,4.023,0,0,1,.207,1.241s-5.937,1.5-9.376.219a2.175,2.175,0,0,1-.122-1.646" transform="translate(-304.219 6781.12)" fill="#233862"/><path d="M1405.881,1221.522a1.021,1.021,0,1,1,.9-1.013.961.961,0,0,1-.9,1.013m0-1.73a.728.728,0,1,0,.6.716.666.666,0,0,0-.6-.716" transform="translate(-315.293 6777.932)" fill="#fff"/><path d="M1336.375,1164.82l-8.923.084-4.391-10.319,8.923-.083Z" transform="translate(-241.498 6836.476)" fill="#b5453c"/><path d="M1403.917,1196.671l-.654-.8a2.3,2.3,0,0,0-.764-.462c-.321-.067-1-.458-1.065-.348s.521.9.521.9l.03,0c-.674.507-2.374.059-2.584.266-.254.25.35.792.675,1.1a2.381,2.381,0,0,0,1.975.586c.529-.165,1.361-.332,1.361-.332Z" transform="translate(-310.207 6799.962)" fill="#ffb27d"/><path d="M1329.3,1169.872s.561-.637.918-.332-.094,1.81-.433,1.657-.68-1.138-.484-1.325" transform="translate(-247.07 6823.005)" fill="#ffb27d"/><path d="M1440.065,1080.923s2.554.282,4.387,3.612c1.446,2.626,3.917,7.468,2.984,8.836-.409.6-4.333,2.737-11.9,1.516a2.289,2.289,0,0,1,.73-1.4s6.369-2.045,6.359-2.452c-.021-.769-.861-1.434-4.419-4.993-.967-.968,1.861-5.12,1.861-5.12" transform="translate(-342.812 6902.754)" fill="#f99746"/><path d="M1426.36,1046.832c.088-.118-.025-.493-.165-1.192a13.045,13.045,0,0,1-.338-2.714l-.188.032-3.166.533s.072.846.074,1.644v.02c0,.692-.187,1.739.047,1.876a4.026,4.026,0,0,0,3.737-.2" transform="translate(-331.071 6936.98)" fill="#ffb27d"/><path d="M1422.5,1043.777s.063,1.194.065,1.991c1.771-.042,2.717-1.763,3.1-2.524Z" transform="translate(-331.071 6936.694)" fill="#e8945b"/><path d="M1400.849,996.512s4.15-.591,3.742-3.17-.147-4.392-2.814-4.124-3.025,1.334-3.1,2.227,1.08,5.153,2.17,5.066" transform="translate(-309.609 6985.382)" fill="#ffb27d"/><path d="M1410.831,985.357s1.615,2.844,3.426,3.015a3.467,3.467,0,0,0,2.491-.416,4.987,4.987,0,0,1-2.074-2.653s-3.217-1.521-3.842.055" transform="translate(-320.559 6989.48)" fill="#163560"/><path d="M1396.889,990.376a2.6,2.6,0,0,0-1.038,1.116,4.221,4.221,0,0,0-.182,2.456s-1.181-1.92-.407-3.236c.821-1.4,1.628-.336,1.628-.336" transform="translate(-306.297 6984.662)" fill="#163560"/></g></g></svg>