<svg xmlns="http://www.w3.org/2000/svg" xmlns:xlink="http://www.w3.org/1999/xlink" width="471.457" height="417.849" viewBox="0 0 471.457 417.849"><defs><clipPath id="a"><rect width="471.457" height="417.849" fill="none"/></clipPath><clipPath id="e"><rect width="6.692" height="22.004" fill="none"/></clipPath><clipPath id="f"><rect width="4.175" height="2.672" fill="none"/></clipPath><clipPath id="j"><rect width="19.656" height="20.534" fill="none"/></clipPath><clipPath id="k"><rect width="6.641" height="18.039" fill="none"/></clipPath><clipPath id="l"><rect width="16.692" height="24.712" fill="none"/></clipPath><clipPath id="n"><rect width="85.117" height="57.592" fill="none"/></clipPath><clipPath id="o"><rect width="3.571" height="16.398" fill="none"/></clipPath></defs><g transform="translate(-877.476 -10056.828)"><g transform="translate(860.746 10042)"><g transform="translate(16.73 14.828)" clip-path="url(#a)"><rect width="16.084" height="37.071" transform="translate(26.649 343.747)" fill="#fff"/><rect width="16.084" height="37.071" transform="translate(81.23 343.747)" fill="#ebebeb"/><rect width="16.084" height="70.815" transform="translate(53.939 310.003)" fill="#f5f5f5"/><rect width="16.084" height="70.815" transform="translate(108.52 310.003)" fill="#f5f5f5"/><rect width="16.084" height="68.788" transform="translate(135.811 312.03)" fill="#fff"/><rect width="16.084" height="68.788" transform="translate(190.391 312.03)" fill="#fff"/><rect width="16.084" height="68.788" transform="translate(244.973 312.03)" fill="#fff"/><rect width="16.084" height="104.887" transform="translate(163.101 275.931)" fill="#f5f5f5"/><rect width="16.084" height="94.623" transform="translate(217.682 286.195)" fill="#f5f5f5"/><rect width="16.084" height="68.788" transform="translate(325.594 312.03)" fill="#fff"/><rect width="16.084" height="55.587" transform="translate(298.303 325.231)" fill="#f5f5f5"/><rect width="16.084" height="105.498" transform="translate(382.673 275.32)" fill="#ebebeb"/><rect width="16.084" height="55.587" transform="translate(355.382 325.231)" fill="#f5f5f5"/><rect width="16.084" height="55.587" transform="translate(409.994 325.231)" fill="#f5f5f5"/><rect width="16.084" height="80.127" transform="translate(272.264 300.691)" fill="#fff"/><g clip-path="url(#a)"><path d="M185.716,295.221a4.137,4.137,0,1,1-4.136-4.136,4.137,4.137,0,0,1,4.136,4.136" transform="translate(-11.759 -19.29)" fill="#e0e0e0"/><path d="M181.34,302.5a7.514,7.514,0,1,1,7.514-7.514,7.523,7.523,0,0,1-7.514,7.514m0-14.422a6.909,6.909,0,1,0,6.909,6.909,6.916,6.916,0,0,0-6.909-6.909" transform="translate(-11.519 -19.05)" fill="#e0e0e0"/><path d="M185,283.313l-.213-8.144,2.034.033-3.8-4.642-3.8,4.685,2.106.013.209,8.035Z" transform="translate(-11.877 -17.93)" fill="#ebebeb"/><path d="M41.47,349.708a4.136,4.136,0,1,1-4.136-4.136,4.136,4.136,0,0,1,4.136,4.136" transform="translate(-2.2 -22.901)" fill="#e0e0e0"/><path d="M37.094,357.149a7.514,7.514,0,1,1,7.515-7.514,7.522,7.522,0,0,1-7.515,7.514m0-14.422A6.909,6.909,0,1,0,44,349.636a6.916,6.916,0,0,0-6.909-6.909" transform="translate(-1.96 -22.672)" fill="#e0e0e0"/><path d="M34.817,322.527l.221,8.468-2.115-.034,3.95,4.826,3.95-4.871-2.19-.013-.218-8.355Z" transform="translate(-2.182 -21.374)" fill="#ebebeb"/><path d="M269.274,303.563l.221,8.468L267.381,312l3.95,4.826,3.95-4.871-2.19-.013-.218-8.355Z" transform="translate(-17.719 -20.117)" fill="#ebebeb"/><path d="M301.379,377.936,252.93,332.489c-30.695-14.82-78.09-36.664-83.617-36.356-6.191.365-123.683,46.7-168.433,64.521L0,358.444c6.584-2.623,161.333-64.225,169.174-64.686.053,0,.11,0,.17,0,8.6,0,76.965,32.9,84.785,36.672l.3.2L301.77,375.04c8.982-4.741,60.471-31.906,61.348-32.295.3-.134,1.122-.467,71.926-.461v2.38c-27.159-.02-67.984.061-71.087.321-2.687,1.362-41.327,21.738-61.827,32.556Z" transform="translate(0 -19.467)" fill="#e0e0e0"/><path d="M275.454,332.794a4.137,4.137,0,1,1-4.136-4.136,4.136,4.136,0,0,1,4.136,4.136" transform="translate(-17.706 -21.78)" fill="#e0e0e0"/><path d="M271.078,340.235a7.514,7.514,0,1,1,7.514-7.514,7.523,7.523,0,0,1-7.514,7.514m0-14.422a6.909,6.909,0,1,0,6.909,6.909,6.917,6.917,0,0,0-6.909-6.909" transform="translate(-17.466 -21.551)" fill="#e0e0e0"/><path d="M393.247,346.007a4.136,4.136,0,1,1-4.136-4.136,4.136,4.136,0,0,1,4.136,4.136" transform="translate(-25.512 -22.656)" fill="#e0e0e0"/><path d="M388.871,353.448a7.514,7.514,0,1,1,7.515-7.514,7.522,7.522,0,0,1-7.515,7.514m0-14.422a6.909,6.909,0,1,0,6.909,6.909,6.917,6.917,0,0,0-6.909-6.909" transform="translate(-25.272 -22.427)" fill="#e0e0e0"/><path d="M386.882,319.974l.221,8.468-2.115-.034,3.95,4.826,3.95-4.871-2.19-.013L390.48,320Z" transform="translate(-25.513 -21.205)" fill="#ebebeb"/><path d="M424.892,233.791a36.2,36.2,0,1,1,36.781,35.781,36.336,36.336,0,0,1-36.781-35.781m53.507-.864a17.311,17.311,0,1,0-17.03,17.667,17.368,17.368,0,0,0,17.03-17.667" transform="translate(-28.157 -13.044)" fill="#f5f5f5"/><path d="M424.893,233.792a36.335,36.335,0,0,1,35.617-36.95l.3,18.977a17.39,17.39,0,0,0,.556,34.776l.3,18.977a36.32,36.32,0,0,1-36.78-35.781" transform="translate(-28.157 -13.045)" fill="#a4dc88"/><path d="M459.557,193.716a41.365,41.365,0,0,1,42.355,41.206l-22.1.356c-.179-11.216-8.715-18.279-19.879-18.1Z" transform="translate(-30.455 -12.837)" fill="#529d2e"/><rect width="16.307" height="50.929" transform="translate(87.675 8.474)" fill="#ebebeb"/><rect width="16.307" height="39.296" transform="translate(112.022 20.107)" fill="#ebebeb"/><rect width="16.307" height="23.336" transform="translate(134.563 36.067)" fill="#ebebeb"/><path d="M309.628,40.091V11.539a28.552,28.552,0,1,1-28.543,29.212Z" transform="translate(-18.627 -0.765)" fill="#529d2e"/><path d="M303.946,28.54l-28.552.645a30.118,30.118,0,0,1,8.09-20.557A29.35,29.35,0,0,1,303.5,0Z" transform="translate(-18.25)" fill="#a4dc88"/><path d="M35.2,210.295l19.986-15.842a25.5,25.5,0,1,1-30.118-7.561Z" transform="translate(-0.646 -12.385)" fill="#a4dc88"/><path d="M31.2,184.084l7.028,18.49,14.874-12.637s-7.878-8.114-21.9-5.853" transform="translate(-2.068 -12.173)" fill="#529d2e"/></g><g clip-path="url(#a)"><path d="M418.634,432.815c0,.134-87.83.243-196.149.243-108.357,0-196.168-.108-196.168-.243s87.812-.243,196.168-.243c108.318,0,196.149.108,196.149.243" transform="translate(-1.744 -28.666)" fill="#263238"/></g><g clip-path="url(#a)"><path d="M51.93,75.021a17.649,17.649,0,1,0-16.676,24.7l1.782,4.08,14.176-6.19s-.914-2.327-1.775-4.385A17.645,17.645,0,0,0,51.93,75.021" transform="translate(-1.2 -4.27)" fill="#fcd03e"/><path d="M46.848,100.989s-.028-.069-.071-.206-.108-.35-.189-.613c-.162-.54-.4-1.335-.681-2.368s-.607-2.3-.892-3.8a26.115,26.115,0,0,1-.5-5.142,16.766,16.766,0,0,1,.274-3,3.25,3.25,0,0,1,.671-1.476,1.821,1.821,0,0,1,1.558-.62,1.2,1.2,0,0,1,.791.416,1.233,1.233,0,0,1,.3.86,2.505,2.505,0,0,1-.78,1.622,4.826,4.826,0,0,1-3.466,1.23,4.887,4.887,0,0,1-3.462-1.7,3.706,3.706,0,0,1-.91-1.825,1.586,1.586,0,0,1,.979-1.766,1.14,1.14,0,0,1,1.072.211,1.6,1.6,0,0,1,.566.941,3.451,3.451,0,0,1-.436,2.1,5.265,5.265,0,0,1-3.292,2.74,4.587,4.587,0,0,1-4.146-.966,2.669,2.669,0,0,1-.965-1.911,1.35,1.35,0,0,1,.4-1.024,1.324,1.324,0,0,1,1.036-.344,1.761,1.761,0,0,1,.993.412,2.756,2.756,0,0,1,.653.824,5.078,5.078,0,0,1,.562,1.956,5.255,5.255,0,0,1-1.1,3.708,5.348,5.348,0,0,1-3.146,1.922,2.8,2.8,0,0,1-1.793-.136,1.367,1.367,0,0,1-.77-1.519,1.149,1.149,0,0,1,.571-.672,1.671,1.671,0,0,1,.838-.188,2.56,2.56,0,0,1,1.474.678c.79.7,1.488,1.41,2.174,2.079,2.717,2.7,4.808,4.981,6.235,6.573.713.8,1.258,1.425,1.625,1.851l.415.489c.092.111.135.172.135.172s-.054-.051-.152-.157-.246-.272-.43-.474c-.385-.424-.94-1.037-1.655-1.824-1.445-1.575-3.552-3.843-6.279-6.521-.685-.662-1.4-1.378-2.173-2.06a2.393,2.393,0,0,0-1.374-.632,1.057,1.057,0,0,0-.549,2.038,2.62,2.62,0,0,0,1.673.116,5.168,5.168,0,0,0,3.026-1.859A5.055,5.055,0,0,0,36.7,87.562a4.894,4.894,0,0,0-.54-1.874,1.918,1.918,0,0,0-1.478-1.123,1.109,1.109,0,0,0-.872.286,1.131,1.131,0,0,0-.33.867,2.455,2.455,0,0,0,.894,1.754,4.375,4.375,0,0,0,3.948.917,5.049,5.049,0,0,0,3.154-2.628A3.248,3.248,0,0,0,41.9,83.8a1.385,1.385,0,0,0-.487-.815.924.924,0,0,0-.876-.176,1.233,1.233,0,0,0-.69.611,1.522,1.522,0,0,0-.146.925,3.5,3.5,0,0,0,.859,1.716A4.7,4.7,0,0,0,43.871,87.7a4.644,4.644,0,0,0,3.322-1.166,2.328,2.328,0,0,0,.728-1.491A1.041,1.041,0,0,0,47,83.945a1.647,1.647,0,0,0-1.4.557,3.087,3.087,0,0,0-.639,1.4,16.649,16.649,0,0,0-.284,2.966,26.335,26.335,0,0,0,.463,5.119c.273,1.491.587,2.762.854,3.8l.641,2.377.167.618c.037.14.05.213.05.213" transform="translate(-1.992 -5.47)" fill="#263238"/><path d="M52.656,103.158l-12.172,5.314a1,1,0,0,1-.8-1.826l12.172-5.315a1,1,0,0,1,.8,1.827" transform="translate(-2.59 -6.71)" fill="#263238"/><path d="M53.086,104.142l-12.172,5.314a1,1,0,1,0,.8,1.827l1.335-.584,3.246,2.6a1.283,1.283,0,0,0,1.314.174l4.349-1.9a1.28,1.28,0,0,0,.765-1.094l.255-4.115.908-.4a1,1,0,1,0-.8-1.826" transform="translate(-2.672 -6.896)" fill="#263238"/><g transform="translate(18.518 66.309)" opacity="0.2"><g clip-path="url(#e)"><path d="M20.98,76.751a12.963,12.963,0,0,1,2.3-3.567,9.362,9.362,0,0,1,2.177-1.813c.585-.331.959-.424,1.045-.308.2.263-.838,1.234-2.008,3.059a14.514,14.514,0,0,0-.359,15.709c1.085,1.876,2.076,2.893,1.866,3.147-.092.112-.461,0-1.029-.355a9.392,9.392,0,0,1-2.092-1.91,12.971,12.971,0,0,1-2.134-3.67,13.75,13.75,0,0,1-.909-5.17" transform="translate(-19.832 -71.015)" fill="#fff"/></g></g><g transform="translate(26.893 63.065)" opacity="0.2"><g clip-path="url(#f)"><path d="M31.288,69.832c-1.03.438-2.056.553-2.4.056a.914.914,0,0,1,.175-1,3.542,3.542,0,0,1,3.064-1.319c.467.067.78.275.85.564" transform="translate(-28.802 -67.541)" fill="#fff"/></g></g><path d="M53.09,111.347c0,.036-.369.03-.949.107a7.395,7.395,0,0,0-4.06,1.914,9.539,9.539,0,0,1-.686.663,2.752,2.752,0,0,1,.579-.772,6.464,6.464,0,0,1,4.151-1.957,2.7,2.7,0,0,1,.965.045" transform="translate(-3.141 -7.375)" fill="#455a64"/><path d="M53.223,106.561c.024.055-2.157,1.06-4.871,2.245s-4.934,2.1-4.958,2.047,2.157-1.06,4.871-2.245,4.934-2.1,4.958-2.047" transform="translate(-2.876 -7.062)" fill="#455a64"/><path d="M53.2,108.464a7.528,7.528,0,0,1-1.146.645c-.721.371-1.729.861-2.856,1.373s-2.161.947-2.915,1.245a7.537,7.537,0,0,1-1.24.437,8.425,8.425,0,0,1,1.18-.578l2.885-1.3,2.88-1.314a8.445,8.445,0,0,1,1.212-.507" transform="translate(-2.985 -7.188)" fill="#455a64"/></g><g clip-path="url(#a)"><path d="M311.823,274.044H240.286a4.955,4.955,0,0,1-4.955-4.955v-43.8a4.955,4.955,0,0,1,4.955-4.955h71.537a4.955,4.955,0,0,1,4.955,4.955v43.8a4.955,4.955,0,0,1-4.955,4.955" transform="translate(-15.595 -14.601)" fill="#fff"/><path d="M311.808,274.028c0-.015.231-.009.67-.073a4.746,4.746,0,0,0,1.839-.667,4.928,4.928,0,0,0,2.025-2.39c.517-1.173.3-2.683.335-4.332-.016-6.636-.04-16.217-.069-28.053q-.007-4.443-.015-9.3,0-1.212,0-2.448a15.046,15.046,0,0,0-.1-2.455,4.8,4.8,0,0,0-3.124-3.55,6.968,6.968,0,0,0-2.543-.263l-2.677,0-5.482.006-11.442.009-50.947.017a4.741,4.741,0,0,0-4.635,3.74,7.536,7.536,0,0,0-.107,1.617v1.665q0,1.662,0,3.313,0,6.6,0,13c0,8.522-.009,16.743-.013,24.574a5.393,5.393,0,0,0,.5,2.747,4.747,4.747,0,0,0,1.861,1.991,4.858,4.858,0,0,0,2.622.652l2.8,0,10.794.01,19.373.027,28.052.07,7.627.041,1.983.021c.447.007.676.022.676.022s-.229.015-.676.022l-1.983.021-7.627.041-28.052.07-19.373.027-10.794.01-2.8,0a5.253,5.253,0,0,1-2.821-.7,5.138,5.138,0,0,1-2.02-2.153,5.806,5.806,0,0,1-.546-2.925c0-7.831-.008-16.052-.013-24.574q0-6.392,0-13v-4.978a7.85,7.85,0,0,1,.117-1.709,5.175,5.175,0,0,1,5.063-4.086l50.947.017,11.442.009,5.482.006,2.677,0a7.3,7.3,0,0,1,2.662.289,5.157,5.157,0,0,1,3.348,3.824,14.939,14.939,0,0,1,.1,2.525q0,1.237,0,2.448-.008,4.849-.014,9.3c-.03,11.836-.053,21.417-.07,28.053q-.006,1.242-.01,2.345a5.2,5.2,0,0,1-.375,2.036,5.006,5.006,0,0,1-2.1,2.418,4.634,4.634,0,0,1-1.879.634,3.8,3.8,0,0,1-.676.029" transform="translate(-15.58 -14.586)" fill="#263238"/><rect width="3.125" height="12.437" transform="translate(256.239 236.919)" fill="#529d2e"/><rect width="3.125" height="14.239" transform="translate(230.135 235.117)" fill="#529d2e"/><rect width="3.125" height="17.208" transform="translate(236.66 232.149)" fill="#529d2e"/><rect width="3.125" height="16.264" transform="translate(243.186 233.093)" fill="#529d2e"/><rect width="3.125" height="21.766" transform="translate(249.713 227.591)" fill="#529d2e"/><rect width="3.125" height="21.66" transform="translate(262.765 227.697)" fill="#529d2e"/><rect width="3.125" height="14.546" transform="translate(269.292 234.811)" fill="#529d2e"/><rect width="3.125" height="20.705" transform="translate(275.817 228.651)" fill="#529d2e"/><rect width="3.125" height="25.369" transform="translate(282.343 223.987)" fill="#529d2e"/><rect width="3.125" height="20.812" transform="translate(288.87 228.544)" fill="#529d2e"/><path d="M269.528,231.616c0,.134-5.548.243-12.392.243s-12.392-.108-12.392-.243,5.547-.243,12.392-.243,12.392.108,12.392.243" transform="translate(-16.219 -15.333)" fill="#263238"/></g><g clip-path="url(#a)"><path d="M436.981,52.713H476.1a3.578,3.578,0,0,1,3.578,3.578V95.409a3.578,3.578,0,0,1-3.578,3.578H449.035l-10.885,8.964V98.987h-1.169a3.578,3.578,0,0,1-3.578-3.578V56.291a3.578,3.578,0,0,1,3.578-3.578" transform="translate(-28.721 -3.493)" fill="#fff"/><path d="M433.4,67.323h46.274V57.087a4.373,4.373,0,0,0-4.373-4.374H437.742a4.339,4.339,0,0,0-4.339,4.339Z" transform="translate(-28.721 -3.493)" fill="#fc8116"/><path d="M454.421,74.71V90.44H450.78V77.632h-3.146V74.71Z" transform="translate(-29.665 -4.951)" fill="#263238"/><path d="M470.133,74.71v2.36L464.29,90.44h-3.954l5.64-12.764h-5.213v2.562h-3.236V74.71Z" transform="translate(-30.32 -4.951)" fill="#263238"/><path d="M451.261,61.579c0,.082,3.179.148,7.1.148s7.1-.066,7.1-.148-3.178-.148-7.1-.148-7.1.066-7.1.148" transform="translate(-29.905 -4.071)" fill="#263238"/><path d="M436.972,52.7s-.081,0-.242,0a3.04,3.04,0,0,0-.707.107,3.555,3.555,0,0,0-2.177,1.65,3.672,3.672,0,0,0-.5,1.967q0,1.12-.009,2.442c0,1.761-.01,3.782-.017,6.042-.009,4.524-.02,10-.031,16.273,0,3.135-.008,6.466-.013,9.973q0,1.315,0,2.663,0,.674,0,1.356a4.118,4.118,0,0,0,.19,1.391,3.7,3.7,0,0,0,3.241,2.524c.493.028.957.008,1.441.015l-.132-.132c0,2.826,0,5.855-.007,8.964v.292l.226-.186,10.889-8.958-.092.033,20.969,0h4.919l1.221,0a3.728,3.728,0,0,0,3.141-1.8,3.741,3.741,0,0,0,.459-1.158,5.94,5.94,0,0,0,.079-1.223q0-1.2,0-2.383,0-2.373,0-4.707c0-6.221-.007-12.223-.009-17.94q0-4.287-.006-8.354,0-2.031,0-4a13.353,13.353,0,0,0-.071-1.974,3.718,3.718,0,0,0-2.491-2.816,5.666,5.666,0,0,0-1.876-.179l-3.61,0-6.786.009-20.479.047-5.568.028-1.448.015c-.326,0-.493.015-.493.015s.167.01.493.015l1.448.015,5.568.028,20.479.047,6.786.009,3.61,0a5.436,5.436,0,0,1,1.8.172,3.468,3.468,0,0,1,1.508.991,3.432,3.432,0,0,1,.813,1.642,13.481,13.481,0,0,1,.062,1.927q0,1.971,0,4,0,4.063-.007,8.354c0,5.717-.006,11.718-.008,17.94q0,2.333,0,4.707v2.383a5.665,5.665,0,0,1-.073,1.162,3.469,3.469,0,0,1-.424,1.066,3.391,3.391,0,0,1-1.753,1.447,6.629,6.629,0,0,1-2.358.214H470l-20.969,0h-.052l-.04.033-10.881,8.968.226.106c0-3.108,0-6.137-.007-8.964v-.13h-.132c-.475-.006-.966.013-1.422-.012a3.444,3.444,0,0,1-3.02-2.345,3.847,3.847,0,0,1-.18-1.311q0-.682,0-1.356,0-1.347,0-2.663c0-3.507-.008-6.839-.012-9.973-.012-6.268-.022-11.749-.031-16.273-.007-2.261-.012-4.281-.018-6.042.049-1.742-.229-3.318.464-4.367a3.528,3.528,0,0,1,2.117-1.651,5.109,5.109,0,0,1,.938-.15" transform="translate(-28.713 -3.485)" fill="#263238"/><path d="M450.684,58.307h.1a1.456,1.456,0,0,0,1.456-1.456v-7.54a1.456,1.456,0,0,0-1.456-1.456h-.1a1.456,1.456,0,0,0-1.456,1.456v7.54a1.456,1.456,0,0,0,1.456,1.456" transform="translate(-29.77 -3.171)" fill="#e0e0e0"/><path d="M450.673,58.3a1.851,1.851,0,0,1-.855-.352,1.406,1.406,0,0,1-.5-.915c-.021-.416.007-.933.007-1.479.009-1.121.02-2.433.032-3.882,0-.732.006-1.5.008-2.291a1.32,1.32,0,0,1,1.41-1.384,1.322,1.322,0,0,1,.99.453,1.381,1.381,0,0,1,.322,1.03c0,.794.006,1.56.008,2.292.012,1.449.022,2.761.032,3.882q.006.412.01.788a3.832,3.832,0,0,1-.018.683,1.429,1.429,0,0,1-.565.881,1.932,1.932,0,0,1-.879.294.652.652,0,0,0,.251.022,1.441,1.441,0,0,0,.692-.221,1.527,1.527,0,0,0,.663-.941,3.8,3.8,0,0,0,.044-.718c0-.251.007-.514.01-.788.009-1.121.021-2.433.032-3.882,0-.732.006-1.5.009-2.292a1.682,1.682,0,0,0-.389-1.223,1.614,1.614,0,0,0-1.213-.556,1.608,1.608,0,0,0-1.7,1.68c0,.794.006,1.559.008,2.291.011,1.449.022,2.761.032,3.882.014.557,0,1.041.038,1.5a1.509,1.509,0,0,0,.6.984,1.4,1.4,0,0,0,.674.267.551.551,0,0,0,.252-.007" transform="translate(-29.76 -3.161)" fill="#263238"/><path d="M465.813,58.307h.1a1.456,1.456,0,0,0,1.456-1.456v-7.54a1.456,1.456,0,0,0-1.456-1.456h-.1a1.456,1.456,0,0,0-1.456,1.456v7.54a1.456,1.456,0,0,0,1.456,1.456" transform="translate(-30.773 -3.171)" fill="#e0e0e0"/><path d="M465.8,58.3a1.851,1.851,0,0,1-.855-.352,1.4,1.4,0,0,1-.5-.915c-.021-.416.007-.933.007-1.479.009-1.121.02-2.433.032-3.882,0-.732.006-1.5.008-2.291a1.32,1.32,0,0,1,1.41-1.384,1.322,1.322,0,0,1,.99.453,1.381,1.381,0,0,1,.322,1.03c0,.794.006,1.56.008,2.292.011,1.449.022,2.761.032,3.882,0,.275.007.537.01.788a3.838,3.838,0,0,1-.018.683,1.429,1.429,0,0,1-.565.881,1.932,1.932,0,0,1-.879.294.648.648,0,0,0,.251.022,1.441,1.441,0,0,0,.692-.221,1.531,1.531,0,0,0,.663-.941,3.793,3.793,0,0,0,.044-.718q0-.377.01-.788c.009-1.121.02-2.433.032-3.882,0-.732.006-1.5.008-2.292a1.674,1.674,0,0,0-.389-1.223A1.61,1.61,0,0,0,465.9,47.7a1.609,1.609,0,0,0-1.7,1.68c0,.794.007,1.559.009,2.291.011,1.449.022,2.761.032,3.882.014.557,0,1.041.037,1.5a1.51,1.51,0,0,0,.6.984,1.4,1.4,0,0,0,.674.267.556.556,0,0,0,.252-.007" transform="translate(-30.762 -3.161)" fill="#263238"/></g><g clip-path="url(#a)"><path d="M362.2,185.435l3.359,4.2v-7.224h10.579s1.176,16.545.924,20.071a28.617,28.617,0,0,1-1.3,5.4,6.211,6.211,0,0,1-10.255,2.568,35.733,35.733,0,0,1-3.312-3.682c-4.7-6.046-12.514-20.772-12.514-20.772l8.148-4.922Z" transform="translate(-23.174 -11.999)" fill="#ffbe9d"/><path d="M362.376,184.914a12.057,12.057,0,0,0,1.382,1.846c.892,1.106,2.129,2.63,3.543,4.279s2.748,3.1,3.784,4.084a7.636,7.636,0,0,0,1.8,1.457,17.641,17.641,0,0,0-1.546-1.7c-.963-1.038-2.247-2.518-3.658-4.162a51.936,51.936,0,0,0-5.3-5.8" transform="translate(-24.014 -12.254)" fill="#eb996e"/><path d="M421.692,83.33l.477,38.431c.081,6.535-1.134,16.152-11.474,15.809-8.947-.974-11.321-9.445-11.391-15.543-.033-2.894-.066-5.305-.09-5.6,0,0-9.794-.8-10.621-10.473-.4-4.675-.438-14.371-.372-23.144A18.084,18.084,0,0,1,405,64.918l.935-.068c10.117-.148,15.894,8.362,15.761,18.48" transform="translate(-25.726 -4.297)" fill="#ffbe9d"/><path d="M400,119.755a23.454,23.454,0,0,0,12.336-4.648s-2.559,7.3-12.285,7.131Z" transform="translate(-26.508 -7.628)" fill="#eb996e"/><path d="M405.936,88.207c.191.2,1.308-.7,2.929-.746,1.619-.068,2.832.751,3,.543.083-.094-.117-.451-.645-.823a4.061,4.061,0,0,0-2.409-.683,3.9,3.9,0,0,0-2.326.846c-.487.406-.646.774-.551.862" transform="translate(-26.9 -5.732)" fill="#263238"/><path d="M404.987,92.427a1.312,1.312,0,0,0,1.358,1.228,1.255,1.255,0,0,0,1.262-1.278,1.312,1.312,0,0,0-1.357-1.228,1.254,1.254,0,0,0-1.263,1.278" transform="translate(-26.838 -6.04)" fill="#263238"/><path d="M401.314,99.521a9.875,9.875,0,0,0-2.448-.26c-.383-.011-.748-.061-.831-.316a1.942,1.942,0,0,1,.171-1.144q.436-1.419.913-2.976c1.26-4.234,2.141-7.7,1.97-7.753s-1.331,3.343-2.59,7.575c-.3,1.044-.59,2.038-.864,2.99a2.206,2.206,0,0,0-.088,1.505.953.953,0,0,0,.665.51,2.552,2.552,0,0,0,.652.043,9.7,9.7,0,0,0,2.45-.176" transform="translate(-26.338 -5.77)" fill="#263238"/><path d="M406.675,80.856c.157.359,1.454.089,3.008.169,1.556.047,2.831.422,3.011.077.079-.165-.162-.5-.69-.817a4.907,4.907,0,0,0-2.275-.641,4.854,4.854,0,0,0-2.311.454c-.548.276-.811.587-.743.758" transform="translate(-26.95 -5.278)" fill="#263238"/><path d="M390.189,83.453c.17.293,1.435-.033,2.967-.079,1.533-.075,2.8.148,2.966-.158.071-.146-.181-.408-.715-.641a5.365,5.365,0,0,0-2.267-.374,5.512,5.512,0,0,0-2.254.556c-.528.275-.772.557-.7.7" transform="translate(-25.857 -5.447)" fill="#263238"/><path d="M423.783,92.349c.159-.084,6.509-2.454,6.781,4.181s-6.446,5.54-6.465,5.35-.316-9.532-.316-9.532" transform="translate(-28.084 -6.088)" fill="#ffbe9d"/><path d="M426.182,99.433c.028-.022.119.077.317.158a1.158,1.158,0,0,0,.866-.018,2.862,2.862,0,0,0,1.218-2.62,3.811,3.811,0,0,0-.391-1.642,1.335,1.335,0,0,0-.906-.852.59.59,0,0,0-.669.345c-.081.189-.034.319-.068.332-.018.018-.147-.106-.1-.382a.734.734,0,0,1,.244-.426.871.871,0,0,1,.632-.2,1.625,1.625,0,0,1,1.25.979,3.921,3.921,0,0,1,.476,1.832,3,3,0,0,1-1.569,2.936,1.241,1.241,0,0,1-1.064-.133c-.212-.156-.253-.3-.231-.316" transform="translate(-28.243 -6.238)" fill="#eb996e"/><path d="M403.266,105.021c-.073-.167,1.228-.557,2.141-1.776a7.429,7.429,0,0,0,.919-1.733c.193-.482.34-.784.412-.762s.05.347-.056.871a4.91,4.91,0,0,1-.853,1.941,3.969,3.969,0,0,1-1.7,1.3c-.506.205-.849.218-.867.162" transform="translate(-26.724 -6.677)" fill="#263238"/><path d="M374.462,73.71a1.57,1.57,0,0,1,.736-.915,4.824,4.824,0,0,1,2.473-.4,13.972,13.972,0,0,0,7.276-2.211,32.6,32.6,0,0,1,3.386-4.1c2.933-3.023,5.346-5.081,7.841-6.086a22.469,22.469,0,0,1,11.994-.943c3.366.883,6.389,3.614,6.856,7.063,1.888-1.6,4.723-1.583,7.022-.658l.057-.025c2.561.913,4.016,3.618,4.771,6.229s1.078,5.4,2.46,7.744c.289.489.632,1.076.38,1.585a1.08,1.08,0,0,1-1.131.493,3.176,3.176,0,0,1-1.191-.54q.429,1.025.856,2.051a6.053,6.053,0,0,1-2.785-.186,59.352,59.352,0,0,1-1.821,6.885,3.949,3.949,0,0,0-2.711.667c-.9.807-1.3,2.324-2.788,1.748-.758-.293-1.45-1.884-1.7-2.657A37.756,37.756,0,0,1,414.8,73.466a12.158,12.158,0,0,0-3.748-2.705l.115.1c-2.7-.939-5.762-1.863-8.328-.594-1.989.985-3.159,3.05-4.647,4.7a15.19,15.19,0,0,1-10.826,5c-.143,2.725.086,6.574-.057,9.3L385.021,84.9l0,.022c-.188-.319-.343-.641-.492-.965l-.051-.1v-.012a17.029,17.029,0,0,0-.767-1.55l-.026.023a1.7,1.7,0,0,1-2.487-2.276,3.839,3.839,0,0,1,.823-.827,2.69,2.69,0,0,1-2.565.665A2.112,2.112,0,0,1,377.96,77.8a1.8,1.8,0,0,1,1.071-1.442,6.059,6.059,0,0,1-3.451-.76c-.682-.388-1.35-1.028-1.119-1.885" transform="translate(-24.812 -3.884)" fill="#263238"/><path d="M414.644,67.835a8.43,8.43,0,0,1,.971.888,6.949,6.949,0,0,1,1.486,3.213,12.18,12.18,0,0,1,.246,2.459c0,.892-.067,1.846-.135,2.852a25.452,25.452,0,0,0-.073,3.174,11.205,11.205,0,0,0,.218,1.674,3.483,3.483,0,0,0,.683,1.624,1.461,1.461,0,0,0,1.366.459,2.174,2.174,0,0,0,1.229-.695,5.017,5.017,0,0,0,.933-2.46l-.2.024a8.12,8.12,0,0,0,1.177,2.027,2.883,2.883,0,0,0,1.882,1.025,1.857,1.857,0,0,0,1-.175,1.607,1.607,0,0,0,.678-.668,1.662,1.662,0,0,0,.205-.858,1.2,1.2,0,0,0-.311-.753l-.1.091a6.24,6.24,0,0,0,2.079,1.56,5.772,5.772,0,0,0,.644.25,1.147,1.147,0,0,0,.231.057,1.154,1.154,0,0,0-.219-.093c-.144-.059-.358-.145-.625-.28A6.439,6.439,0,0,1,426,81.649l-.1.092a1.24,1.24,0,0,1,.064,1.438,1.444,1.444,0,0,1-.613.59,1.675,1.675,0,0,1-.9.148,2.7,2.7,0,0,1-1.747-.974,8,8,0,0,1-1.135-1.984l-.139-.31-.063.335a4.859,4.859,0,0,1-.888,2.351,1.958,1.958,0,0,1-1.1.621,1.232,1.232,0,0,1-1.161-.389,3.3,3.3,0,0,1-.631-1.519,11.165,11.165,0,0,1-.217-1.64,25.9,25.9,0,0,1,.06-3.148c.063-1,.127-1.964.115-2.867a12.062,12.062,0,0,0-.278-2.491,6.852,6.852,0,0,0-1.576-3.238,3.944,3.944,0,0,0-1.036-.829" transform="translate(-27.478 -4.495)" fill="#455a64"/><path d="M382.581,76.865s.024.025.078.066l.242.176a3.3,3.3,0,0,0,.41.262,5.049,5.049,0,0,0,.589.31,8.571,8.571,0,0,0,4.142.745,10.962,10.962,0,0,0,5.84-2.157,18.988,18.988,0,0,0,5.018-5.784c.7-1.172,1.277-2.373,1.91-3.483a12.806,12.806,0,0,1,2.163-2.946,6.606,6.606,0,0,1,2.788-1.692,4.724,4.724,0,0,1,1.471-.17,5.225,5.225,0,0,1,1.346.259,5.6,5.6,0,0,1,3.109,2.631,6.654,6.654,0,0,1,.5,1.451.317.317,0,0,0-.007-.1c-.012-.08-.027-.177-.046-.3a4.864,4.864,0,0,0-.367-1.093,5.511,5.511,0,0,0-1.084-1.469,5.664,5.664,0,0,0-2.053-1.275,5.334,5.334,0,0,0-1.388-.281,4.869,4.869,0,0,0-1.53.162,6.766,6.766,0,0,0-2.883,1.724,12.942,12.942,0,0,0-2.21,2.986c-.64,1.118-1.214,2.316-1.911,3.476A19.013,19.013,0,0,1,393.76,76.1a10.9,10.9,0,0,1-5.728,2.165,8.7,8.7,0,0,1-4.1-.666,13.921,13.921,0,0,1-1.355-.735" transform="translate(-25.354 -4.11)" fill="#455a64"/><path d="M381.638,73.365a1.509,1.509,0,0,0,.347.242,7.466,7.466,0,0,0,1.027.522,10.024,10.024,0,0,0,1.628.534,10.506,10.506,0,0,0,4.176.134,9.978,9.978,0,0,0,1.658-.429,7.5,7.5,0,0,0,1.059-.456,1.506,1.506,0,0,0,.361-.218c-.019-.038-.554.236-1.471.522a11.338,11.338,0,0,1-1.641.375,11.307,11.307,0,0,1-4.1-.132,11.427,11.427,0,0,1-1.613-.479c-.9-.344-1.413-.653-1.434-.615" transform="translate(-25.291 -4.862)" fill="#455a64"/><path d="M390.11,88.207c.192.2,1.309-.7,2.931-.746,1.618-.067,2.83.751,3,.542.084-.092-.117-.449-.645-.821a4.06,4.06,0,0,0-2.409-.683,3.9,3.9,0,0,0-2.326.846c-.487.406-.646.774-.552.862" transform="translate(-25.851 -5.732)" fill="#263238"/><path d="M390.478,92.427a1.312,1.312,0,0,0,1.358,1.228,1.254,1.254,0,0,0,1.261-1.278,1.31,1.31,0,0,0-1.356-1.228,1.254,1.254,0,0,0-1.263,1.278" transform="translate(-25.877 -6.04)" fill="#263238"/><path d="M443.312,397.838,445.32,422l7.1,18.653a2.484,2.484,0,0,1-3.836,2.853c-4.054-3.138-18.668-14.673-18.831-16.176-.211-1.946-3.936-25.7-3.936-25.7Z" transform="translate(-28.219 -26.365)" fill="#455a64"/><path d="M451.07,445.813,429.6,426.477l.21,1.79c.145.979.161,1.511.8,2.123A208.692,208.692,0,0,0,448.6,445.815a2.761,2.761,0,0,0,2.466,0" transform="translate(-28.469 -28.262)" fill="#263238"/><path d="M433.978,418.4a1.5,1.5,0,0,1,.616,1.909,1.444,1.444,0,0,1-1.886.627,1.585,1.585,0,0,1-.642-2.024,1.5,1.5,0,0,1,2.035-.435" transform="translate(-28.622 -27.716)" fill="#fff"/><path d="M445.493,436.3c.144.052.553-1.268,1.915-2.1a7.573,7.573,0,0,1,2.72-.825c.014-.062-.311-.217-.883-.236a3.962,3.962,0,0,0-3.586,2.262c-.228.526-.228.886-.166.9" transform="translate(-29.52 -28.704)" fill="#263238"/><path d="M447.7,439.645c.126.092.816-.774,2.025-1.263a20.109,20.109,0,0,1,2.322-.554,2.751,2.751,0,0,0-2.528.063c-1.374.566-1.952,1.7-1.82,1.754" transform="translate(-29.668 -28.998)" fill="#263238"/><path d="M441.6,432.215a24.594,24.594,0,0,1,2.994-2.161,24.842,24.842,0,0,1,3.487-1.214,6.794,6.794,0,0,0-6.482,3.375" transform="translate(-29.264 -28.413)" fill="#263238"/><path d="M440.289,424.549c.08.138,1.353-.56,3.079-.807,1.724-.271,3.144.024,3.18-.131a6.165,6.165,0,0,0-6.26.937" transform="translate(-29.177 -28.041)" fill="#263238"/><path d="M439.466,416.965a7.888,7.888,0,0,1,6.465-.461c.034-.055-.261-.33-.852-.592a5.413,5.413,0,0,0-4.855.346c-.546.344-.8.657-.758.707" transform="translate(-29.123 -27.535)" fill="#263238"/><path d="M442.409,414.321a2.081,2.081,0,0,0-.064-.915,6.375,6.375,0,0,0-.979-2.312,2.829,2.829,0,0,0-1.347-1.214,1,1,0,0,0-1.1.34,1.622,1.622,0,0,0-.266,1.129,3.512,3.512,0,0,0,3.4,2.907,4.075,4.075,0,0,0,3.754-2.542,1.411,1.411,0,0,0-.058-1.176.98.98,0,0,0-1.074-.408,3.474,3.474,0,0,0-1.5.994,7.108,7.108,0,0,0-1.447,2.048,2.176,2.176,0,0,0-.282.873,11.309,11.309,0,0,1,1.988-2.647,3.239,3.239,0,0,1,1.33-.835.522.522,0,0,1,.586.219.969.969,0,0,1-.008.775,3.635,3.635,0,0,1-3.279,2.165,3.047,3.047,0,0,1-2.924-2.425,1.175,1.175,0,0,1,.152-.8.54.54,0,0,1,.6-.2,2.555,2.555,0,0,1,1.16,1.007,9.427,9.427,0,0,1,1.349,3.009" transform="translate(-29.069 -27.159)" fill="#263238"/><path d="M381.865,399.158l.895,20.462s-20.5,7.782-20.7,11.579l39.737-.31-.086-31.939Z" transform="translate(-23.994 -26.438)" fill="#455a64"/><path d="M397.237,419.136a1.622,1.622,0,0,1,1.136,1.843,1.56,1.56,0,0,1-1.817,1.143,1.712,1.712,0,0,1-1.193-1.959,1.62,1.62,0,0,1,2.022-.979" transform="translate(-26.197 -27.772)" fill="#e0e0e0"/><path d="M401.795,432.928l-.134-3.22-38.049,1.5s-1.764.784-1.554,2.028Z" transform="translate(-23.992 -28.477)" fill="#263238"/><path d="M383.538,420.864c.007.194.979.275,1.938.891.976.592,1.474,1.429,1.653,1.35.178-.039-.12-1.2-1.3-1.923s-2.34-.495-2.3-.317" transform="translate(-25.417 -27.878)" fill="#263238"/><path d="M379.089,422.752c-.043.188.8.512,1.466,1.327.689.8.862,1.683,1.055,1.672.183.029.308-1.108-.539-2.107s-1.979-1.078-1.982-.893" transform="translate(-25.122 -28.01)" fill="#263238"/><path d="M376.483,427.883c.176.04.439-.932-.067-1.991s-1.417-1.474-1.5-1.312c-.108.161.486.726.888,1.6.423.866.485,1.684.678,1.7" transform="translate(-24.845 -28.135)" fill="#263238"/><path d="M383.874,415.807c.083.176.971-.1,2.068-.033,1.1.044,1.955.405,2.054.238.112-.141-.727-.852-2.021-.912s-2.2.556-2.1.707" transform="translate(-25.439 -27.508)" fill="#263238"/><path d="M375.863,241.456c.022,1.185,4.615,164.712,4.615,164.712h24.563l4.976-139.886s5.811,73.14,5.811,74.72,5.126,65.953,5.126,65.953l22.773-1.858-1.493-147.279-2.783-21.592Z" transform="translate(-24.908 -15.655)" fill="#263238"/><path d="M414.836,261.624a4.5,4.5,0,0,1-1,.419c-.652.239-1.6.568-2.773.964l-.224.076-.016-.231c-.136-1.967-.291-4.6-.435-7.481-.156-3.126-.271-5.956-.329-8.007-.03-1.025-.045-1.854-.044-2.429a3.179,3.179,0,0,1,.049-.894,3.2,3.2,0,0,1,.139.885c.058.571.125,1.4.2,2.422.146,2.046.315,4.874.471,8,.144,2.883.253,5.516.313,7.487l-.239-.155c1.187-.356,2.153-.636,2.825-.82a4.567,4.567,0,0,1,1.062-.236" transform="translate(-27.172 -16.173)" fill="#455a64"/><path d="M413.1,244.627c-.016-.021.079-.131.326-.214a1.5,1.5,0,0,1,1.085.094,1.354,1.354,0,0,1,.822,1.344,1.647,1.647,0,0,1-1.307,1.447,1.8,1.8,0,0,1-1.811-.82,1.462,1.462,0,0,1,.02-1.553,1.635,1.635,0,0,1,.812-.68c.242-.085.387-.071.391-.045.036.069-.554.188-.9.876a1.161,1.161,0,0,0,.059,1.181,1.377,1.377,0,0,0,1.331.587,1.25,1.25,0,0,0,.957-1.035,1.018,1.018,0,0,0-.542-1.018,1.927,1.927,0,0,0-1.245-.166" transform="translate(-27.303 -16.182)" fill="#455a64"/><path d="M425.223,246.228c-.134.013-.319-.7-.416-1.583s-.066-1.618.068-1.631.319.7.415,1.584.065,1.617-.068,1.63" transform="translate(-28.148 -16.104)" fill="#455a64"/><path d="M427.062,246.04c-.134,0-.246-.754-.252-1.686s.1-1.688.235-1.689.246.754.251,1.686-.1,1.688-.234,1.689" transform="translate(-28.285 -16.081)" fill="#455a64"/><path d="M395.332,247.215a7.831,7.831,0,0,1-.444-3.847,4.092,4.092,0,0,1,.464,1.9,4.051,4.051,0,0,1-.02,1.949" transform="translate(-26.162 -16.128)" fill="#455a64"/><path d="M397.539,247.371a4.189,4.189,0,0,1-.173-4.019,71.053,71.053,0,0,0,.173,4.019" transform="translate(-26.305 -16.127)" fill="#455a64"/><path d="M388.492,245.316a2.309,2.309,0,0,1-.082.721,14.036,14.036,0,0,1-.494,1.917,20.3,20.3,0,0,1-3.041,5.827,21.3,21.3,0,0,1-4.8,4.643,15.487,15.487,0,0,1-1.744,1.071,2.675,2.675,0,0,1-.69.31c-.039-.063.891-.587,2.246-1.614a24.111,24.111,0,0,0,4.629-4.65,23.111,23.111,0,0,0,3.1-5.679c.578-1.553.794-2.56.869-2.545" transform="translate(-25.026 -16.257)" fill="#455a64"/><path d="M445.143,256.419a2.385,2.385,0,0,1-.744.117,11.654,11.654,0,0,1-2.057-.038,13.483,13.483,0,0,1-6.292-2.327,12.531,12.531,0,0,1-4.192-5.03,10.119,10.119,0,0,1-.643-1.856,2.074,2.074,0,0,1-.1-.711c.078-.02.287.983,1.026,2.445a13.293,13.293,0,0,0,4.171,4.818,14.228,14.228,0,0,0,6.072,2.37c1.687.242,2.757.136,2.761.213" transform="translate(-28.569 -16.34)" fill="#455a64"/><path d="M402,345.48c-.031.111-4.1-.825-9.092-2.091s-9.01-2.381-8.98-2.492,4.1.825,9.093,2.091,9.01,2.381,8.979,2.492" transform="translate(-25.443 -22.591)" fill="#455a64"/><path d="M444.53,339.432c.059.1-3.485,2.069-7.912,4.4s-8.066,4.134-8.124,4.034,3.484-2.069,7.913-4.4,8.065-4.133,8.123-4.033" transform="translate(-28.396 -22.494)" fill="#455a64"/><path d="M388.941,130.906,400.1,126.53l20.552-1.163,9.66,3.673-13.237,7.35-11.414-.418Z" transform="translate(-25.775 -8.308)" fill="#ffbe9d"/><path d="M374.027,235.9c1.009.174,68.35,3.034,68.35,3.034l-2.365-60.549-.194-11.888-3.826-36.015s-10.066-3.46-15.2-5.113c0,0-5.405,5.633-15.682,5.481-10.048-.148-12.147-2.414-12.147-2.414l-14.047,5.385s-9.988,3.582-11.707,8c-1.673,4.3-4.739,28.872-4.739,28.872H377.03l-.275,43.4Z" transform="translate(-24.021 -8.308)" fill="#529d2e"/><g transform="translate(392.346 146.02)" opacity="0.2"><g clip-path="url(#j)"><path d="M420.192,157.143l2.088,15.265,10.1,4.511,7.467-6.363v-14.17Z" transform="translate(-420.192 -156.384)"/></g></g><path d="M439.629,161.818c0,.127-4.2.23-9.376.23s-9.377-.1-9.377-.23,4.2-.23,9.377-.23,9.376.1,9.376.23" transform="translate(-27.891 -10.708)" fill="#263238"/><path d="M369.988,149.744a1.892,1.892,0,0,1,.107.4c.069.3.159.688.269,1.17a38.52,38.52,0,0,0,1.341,4.3c.67,1.808,1.618,3.929,2.777,6.313,1.1,2.429,2.088,5.223,3.124,8.251l.011.031v.035c-.024,3.627-.051,7.6-.079,11.744-.1,9.259-.186,17.639-.25,23.757-.053,3.006-.1,5.453-.126,7.2-.024.818-.043,1.469-.057,1.956a3.846,3.846,0,0,1-.049.681,4.016,4.016,0,0,1-.038-.683c-.007-.488-.015-1.14-.025-1.959,0-1.744-.008-4.193-.013-7.2.032-6.118.075-14.5.122-23.754.038-4.147.074-8.116.106-11.742l.01.065c-1.017-3.022-1.991-5.826-3.05-8.236a67.83,67.83,0,0,1-2.7-6.372,33.056,33.056,0,0,1-1.234-4.353c-.1-.516-.172-.915-.205-1.186a1.97,1.97,0,0,1-.04-.415" transform="translate(-24.519 -9.923)" fill="#263238"/><path d="M446.342,142.157a7.662,7.662,0,0,1-.013,1.292c-.034.909-.077,2.092-.131,3.516-.12,3.045-.281,7.107-.458,11.6-.2,4.491-.387,8.553-.525,11.6-.082,1.423-.149,2.605-.2,3.514a7.184,7.184,0,0,1-.134,1.286,7.3,7.3,0,0,1-.036-1.292c.016-.91.037-2.093.063-3.518.075-2.971.209-7.074.4-11.6s.394-8.63.586-11.6c.1-1.484.19-2.684.27-3.511a6.992,6.992,0,0,1,.182-1.281" transform="translate(-29.48 -9.421)" fill="#263238"/><g transform="translate(345.477 142.02)" opacity="0.3"><g clip-path="url(#k)"><path d="M370.026,152.1a25.308,25.308,0,0,0,6.612,18.039c-1.37-6.247-4.79-12.061-6.612-18.039" transform="translate(-369.997 -152.1)"/></g></g><g transform="translate(375.083 177.252)" opacity="0.3"><g clip-path="url(#l)"><path d="M401.7,214.544a12.6,12.6,0,0,0,8.081-4.5,38.211,38.211,0,0,0,5.428-7.859,30.99,30.99,0,0,0,3.183-12.356c-3.924,10.514-9.675,18.836-16.692,24.712" transform="translate(-401.704 -189.832)"/></g></g><path d="M419.426,184.92a1.3,1.3,0,0,1-.056.388c-.066.3-.147.661-.242,1.093-.1.476-.25,1.052-.454,1.713s-.405,1.422-.708,2.239a52.086,52.086,0,0,1-2.324,5.655,59.646,59.646,0,0,1-3.7,6.508,58.49,58.49,0,0,1-4.568,5.938,49.068,49.068,0,0,1-4.341,4.307c-.641.59-1.268,1.068-1.809,1.5s-1.016.789-1.421,1.06l-.925.631a1.332,1.332,0,0,1-.339.2c-.008-.012.091-.1.289-.267l.874-.7c.388-.29.852-.659,1.369-1.113s1.133-.938,1.756-1.539a54.342,54.342,0,0,0,4.245-4.344,62.852,62.852,0,0,0,4.506-5.912,64.367,64.367,0,0,0,3.707-6.444,58.114,58.114,0,0,0,2.394-5.582c.319-.806.547-1.555.765-2.207s.4-1.219.524-1.685c.127-.424.232-.777.321-1.07a1.349,1.349,0,0,1,.141-.367" transform="translate(-26.411 -12.255)" fill="#263238"/><path d="M416.609,164.625a3.268,3.268,0,0,1-.078.618c-.078.444-.181,1.028-.31,1.758-.13.765-.31,1.7-.584,2.764s-.522,2.3-.94,3.624q-.3,1-.617,2.089c-.219.726-.5,1.462-.762,2.234-.506,1.553-1.185,3.16-1.872,4.862a80.869,80.869,0,0,1-12.426,20.3c-1.2,1.387-2.325,2.722-3.478,3.88-.569.585-1.1,1.171-1.643,1.7l-1.579,1.5c-.989.975-1.967,1.764-2.8,2.486s-1.573,1.314-2.2,1.778l-1.425,1.076a3.313,3.313,0,0,1-.514.351,3.409,3.409,0,0,1,.461-.421l1.372-1.138c.6-.484,1.334-1.085,2.143-1.83s1.774-1.54,2.745-2.525l1.554-1.514c.538-.529,1.058-1.119,1.618-1.706,1.136-1.163,2.243-2.5,3.432-3.888a83.786,83.786,0,0,0,12.365-20.206c.693-1.689,1.382-3.284,1.9-4.825.269-.767.557-1.5.783-2.217l.641-2.073c.436-1.313.712-2.533,1-3.594s.5-1.982.655-2.74c.162-.723.291-1.3.389-1.74a3.393,3.393,0,0,1,.165-.6" transform="translate(-25.539 -10.91)" fill="#263238"/><path d="M359.386,144.182c4.15,6.308,20.957,31.864,25.926,39.421a1.167,1.167,0,0,1-1.124,1.8l-29.857-3.756a1.17,1.17,0,0,1-.8-.47l-28.518-38.949a1.169,1.169,0,0,1,1.03-1.855l30.72,2.272a3.437,3.437,0,0,1,2.621,1.539" transform="translate(-21.524 -9.302)" fill="#e0e0e0"/><path d="M359.372,144.168a2.049,2.049,0,0,0-.238-.358,3.343,3.343,0,0,0-.965-.814,4.206,4.206,0,0,0-1.99-.483l-2.778-.229L335.692,140.9l-5.868-.45-3.122-.238c-.275-.016-.508-.051-.824-.051a1.333,1.333,0,0,0-.859.357,1.37,1.37,0,0,0-.226,1.754l8.3,11.386,19.042,26.04c.434.585.82,1.135,1.289,1.743a1.42,1.42,0,0,0,.53.359,2.317,2.317,0,0,0,.579.114l1.053.133,4.177.525,8.167,1.023,15.44,1.928c.32.035.586.085.948.106a1.372,1.372,0,0,0,.99-.412,1.416,1.416,0,0,0,.409-.981,1.641,1.641,0,0,0-.359-.957q-1-1.513-1.968-2.983l-3.766-5.7-6.767-10.233c-4.138-6.233-7.492-11.283-9.827-14.8-1.158-1.726-2.063-3.072-2.692-4.009l-.711-1.035a2.7,2.7,0,0,0-.257-.344,2.672,2.672,0,0,0,.214.372l.669,1.063c.611.95,1.489,2.314,2.614,4.061l9.695,14.884,6.714,10.266q1.814,2.766,3.745,5.717l1.96,2.989a1.181,1.181,0,0,1,.283.71.964.964,0,0,1-.281.663.916.916,0,0,1-.664.275c-.253-.014-.6-.071-.894-.1l-15.436-1.957-8.166-1.031-4.177-.527-1.053-.133a1.941,1.941,0,0,1-.463-.085.915.915,0,0,1-.345-.233q-.623-.847-1.252-1.7l-19.073-26.017-8.325-11.339a.96.96,0,0,1,.156-1.232.925.925,0,0,1,.6-.252c.221,0,.522.032.777.046l3.122.224,5.871.418,17.721,1.232,2.782.183a4.157,4.157,0,0,1,1.951.423,3.938,3.938,0,0,1,1.252,1.084" transform="translate(-21.509 -9.288)" fill="#263238"/><path d="M325.033,142.358a3.444,3.444,0,0,0,.626.093l1.812.183,6.747.6,22.944,1.873L356.98,145c1.436,2.134,2.918,4.349,4.405,6.638,6.054,9.306,11.343,17.861,15.337,23.948,1.986,3.05,3.637,5.491,4.786,7.171l1.347,1.918a5.06,5.06,0,0,0,.5.65,5.1,5.1,0,0,0-.415-.706l-1.269-1.97-4.652-7.253c-3.917-6.132-9.157-14.714-15.217-24.031-1.488-2.29-2.976-4.506-4.418-6.64l-.066-.1-.117-.008-22.958-1.7-6.758-.453-1.818-.1a3.43,3.43,0,0,0-.633,0" transform="translate(-21.54 -9.433)" fill="#263238"/><path d="M344.857,148.324h0l-.012,0Z" transform="translate(-22.853 -9.829)" fill="#fff"/><path d="M344.065,148.768a.6.6,0,0,1,.739-.445,1.607,1.607,0,0,1,.8.45.8.8,0,0,1,.146,1.023c-.3.369-.911.232-1.271-.077a1.043,1.043,0,0,1-.415-.951" transform="translate(-22.8 -9.828)" fill="#fff"/><path d="M357.751,172.225s1.178-2.809-1.812-3.172a103.571,103.571,0,0,0-10.841,0s-4.292.454-3.387,3.534c0,0-2.537,2.265-1.177,4.713s1.9,1.722,1.9,1.722-.362,2.99,1.9,3.443c0,0,2.456,2.9,4.717,2.719s11.866-4.8,12.5-5.709,1.541-1.422,1-2.432c0,0,1.177-2.652-1.36-3.055,0,0-.181-2.215-3.444-1.762" transform="translate(-22.54 -11.192)" fill="#ffbe9d"/><path d="M344.41,173.462a8.164,8.164,0,0,0,2.021.145c1.247.026,2.969.028,4.871,0a28.907,28.907,0,0,0,4.893-.291c1.29-.3,1.8-1.056,1.735-1.072a5.137,5.137,0,0,1-1.808.727,48.219,48.219,0,0,1-4.828.138c-1.9.029-3.623.083-4.868.148a8.183,8.183,0,0,0-2.015.206" transform="translate(-22.824 -11.414)" fill="#eb996e"/><path d="M346.7,178.074a1.509,1.509,0,0,0,.65.224,6.942,6.942,0,0,0,1.868.116,13.19,13.19,0,0,0,2.725-.494c1-.276,2.07-.663,3.2-1.008a14.32,14.32,0,0,1,3.217-.663,4.939,4.939,0,0,0,2.74-.554,1.569,1.569,0,0,0,.654-.934,1.29,1.29,0,0,0-.114-.849c-.236-.431-.557-.457-.549-.432-.025.039.232.13.373.512a1.171,1.171,0,0,1-.561,1.412,4.923,4.923,0,0,1-2.567.388,13.327,13.327,0,0,0-3.336.645l-3.178,1.043a15.206,15.206,0,0,1-2.628.585,17.146,17.146,0,0,1-2.487.01" transform="translate(-22.976 -11.496)" fill="#eb996e"/><path d="M350.142,182.195a8.045,8.045,0,0,0,2.018-.39c1.228-.31,2.91-.791,4.747-1.391s3.478-1.21,4.652-1.686a7.986,7.986,0,0,0,1.857-.878c-.051-.132-3,.9-6.664,2.091s-6.646,2.119-6.61,2.255" transform="translate(-23.204 -11.785)" fill="#eb996e"/><path d="M349.318,186.011a4.412,4.412,0,0,0,1.674-.193,19.955,19.955,0,0,0,3.826-1.346c1.44-.655,2.7-1.324,3.607-1.807a5.976,5.976,0,0,0,1.433-.867,31.411,31.411,0,0,0-5.246,2.221c-2.827,1.356-5.313,1.863-5.294,1.993" transform="translate(-23.149 -12.047)" fill="#eb996e"/><path d="M448.161,156.169s-6.1,24.458-13.732,33.485c-7.387,8.743-18.964,4.724-22.973-6.587S400.3,145.919,400.3,145.919l8.772-6.707,15.155,29.372,6.83-20.023Z" transform="translate(-26.528 -9.226)" fill="#ffbe9d"/><path d="M399.927,145.042l-6.432-9.323a16.76,16.76,0,0,1-2.741-.85c-.729-.427-1.446-4.13-1.431-4.853s-1.247-2.413-.736-2.888,2.235-.512,2.142-1.206c-.02-.148-1.278-1.693-.28-2.827a5.333,5.333,0,0,1,1.814-.77l-.1-3.558s1.922-4.2,3.885-2.68c0,0,7.4,5.687,8.15,6.6s3.594,12.752,4.1,14.974" transform="translate(-25.743 -7.671)" fill="#ffbe9d"/><path d="M408.277,137.642a3.326,3.326,0,0,0-.1-.628c-.1-.449-.223-1.041-.381-1.781-.346-1.543-.865-3.776-1.566-6.527-.355-1.374-.746-2.88-1.239-4.485-.131-.4-.257-.807-.428-1.219a2.748,2.748,0,0,0-.873-1.073c-.674-.594-1.384-1.176-2.116-1.769-1.465-1.186-3.021-2.409-4.643-3.67a5.441,5.441,0,0,0-1.355-.894,1.854,1.854,0,0,0-1.669.4,7.624,7.624,0,0,0-1.973,2.665l-.022.044,0,.057c.01.345.021.716.032,1.089.024.832.049,1.657.073,2.469l.173-.227a8.568,8.568,0,0,0-1.3.439,1.914,1.914,0,0,0-.632.412,1.8,1.8,0,0,0-.359.658,2.209,2.209,0,0,0,.113,1.416,4.227,4.227,0,0,0,.29.612l.163.279.034.059c-.008-.01,0-.037-.007-.013a.1.1,0,0,1-.01.061c-.019.08-.192.19-.366.259s-.376.134-.574.194-.4.12-.608.2a1.2,1.2,0,0,0-.617.434,1.019,1.019,0,0,0-.017.757,4.736,4.736,0,0,0,.218.6c.161.377.34.733.471,1.086a1.479,1.479,0,0,1,.112.5,5.25,5.25,0,0,0,.058.607c.056.388.128.767.205,1.139a15.169,15.169,0,0,0,.6,2.15,2.707,2.707,0,0,0,.565.991,3.29,3.29,0,0,0,1,.441c.653.2,1.287.361,1.9.505l-.1-.07c1.985,2.823,3.607,5.127,4.764,6.771l1.321,1.833a4.682,4.682,0,0,0,.489.621,4.746,4.746,0,0,0-.407-.678l-1.245-1.886c-1.126-1.664-2.705-4-4.639-6.856l-.036-.054-.066-.017c-.607-.148-1.238-.315-1.871-.519a3.175,3.175,0,0,1-.867-.375,2.519,2.519,0,0,1-.452-.844,15.071,15.071,0,0,1-.57-2.094c-.073-.366-.14-.738-.191-1.113a4.687,4.687,0,0,1-.05-.551,1.94,1.94,0,0,0-.134-.643c-.144-.387-.322-.745-.474-1.109a4.351,4.351,0,0,1-.2-.542.656.656,0,0,1-.019-.438.955.955,0,0,1,.395-.236c.18-.07.377-.126.577-.187s.406-.12.617-.207a1.032,1.032,0,0,0,.607-.5.532.532,0,0,0,.043-.249.352.352,0,0,0-.041-.166l-.045-.08-.16-.275a3.9,3.9,0,0,1-.261-.551,1.769,1.769,0,0,1-.1-1.132,1.324,1.324,0,0,1,.267-.487,1.55,1.55,0,0,1,.476-.3,8.272,8.272,0,0,1,1.228-.411l.178-.047-.006-.181c-.023-.811-.048-1.637-.071-2.469-.011-.373-.022-.744-.033-1.089l-.021.1a7.267,7.267,0,0,1,1.83-2.493,1.406,1.406,0,0,1,1.267-.329,5.32,5.32,0,0,1,1.214.816c1.625,1.254,3.185,2.469,4.653,3.642.734.587,1.447,1.163,2.115,1.742a2.372,2.372,0,0,1,.781.928c.163.385.294.789.427,1.181.5,1.585.913,3.085,1.287,4.452.711,2.707,1.289,4.91,1.7,6.487.191.731.345,1.317.462,1.76a3.406,3.406,0,0,0,.187.608" transform="translate(-25.728 -7.656)" fill="#eb996e"/><path d="M392.532,122.777c0,.078.752.019,1.919.132a13.728,13.728,0,0,1,2.024.462,9.288,9.288,0,0,0,2.618.022,4.941,4.941,0,0,1,4.124,1.338,5.318,5.318,0,0,1,1,1.584,2.442,2.442,0,0,0-.759-1.8,4.8,4.8,0,0,0-1.77-1.243,5.386,5.386,0,0,0-2.621-.33,10.031,10.031,0,0,1-2.5.021,11.17,11.17,0,0,0-2.082-.373,5.108,5.108,0,0,0-1.944.19" transform="translate(-26.013 -8.124)" fill="#eb996e"/><path d="M395.326,122.445c.109.056.408-.377.37-.992s-.384-1.009-.486-.94.006.472.03.967-.034.914.086.965" transform="translate(-26.187 -7.986)" fill="#eb996e"/><path d="M390.644,126.705a16.144,16.144,0,0,0,5.576-.437,5.537,5.537,0,0,1,2.05-.26,2.227,2.227,0,0,1,1.328.876,13.056,13.056,0,0,1,.732,1.415,2.487,2.487,0,0,0-.467-1.6,2.456,2.456,0,0,0-1.509-1.1,5.379,5.379,0,0,0-2.23.225c-2.988.653-5.484.748-5.48.883" transform="translate(-25.888 -8.32)" fill="#eb996e"/><path d="M389.591,130.3a3,3,0,0,0,1.371.007c.842-.093,1.972-.384,3.206-.626a7.245,7.245,0,0,1,1.726-.173,2.075,2.075,0,0,1,1.243.449,1.983,1.983,0,0,1,.606,1.088c.026,0,.09-.124.077-.377a1.563,1.563,0,0,0-.462-.946,2.269,2.269,0,0,0-1.427-.632,6.549,6.549,0,0,0-1.846.143c-1.269.249-2.367.585-3.177.756a6.561,6.561,0,0,0-1.316.311" transform="translate(-25.818 -8.554)" fill="#eb996e"/><path d="M391.953,133.249c-.078.058.55.716,1.7.713l-.228-.2c.023.2.045.4.068.6a6.489,6.489,0,0,0,.528,2.35,6.476,6.476,0,0,0-.075-2.4c-.027-.2-.054-.39-.082-.591l-.029-.209-.2.012a7.856,7.856,0,0,1-1.688-.272" transform="translate(-25.974 -8.829)" fill="#eb996e"/><path d="M440.192,130.843s12.5,3.03,12.477,19.61c-.026,16.517-3.776,24.772-3.776,24.772L425.844,162.68l5.143-12.913Z" transform="translate(-28.221 -8.671)" fill="#529d2e"/><path d="M448.872,175.472a2.271,2.271,0,0,1-.479-.209l-1.337-.679-4.913-2.589-16.436-8.855-.186-.1.076-.2c.395-1.033.812-2.125,1.236-3.232,1.473-3.826,2.875-7.469,4.154-10.792l1.826-4.7a28.416,28.416,0,0,1,1.824-4.024,12.476,12.476,0,0,1,4.16-4.813,5.042,5.042,0,0,1,1.62-.649,3.035,3.035,0,0,1,.45-.059c.1,0,.155,0,.156,0a6.187,6.187,0,0,0-2.126.864,12.73,12.73,0,0,0-3.958,4.818,29.151,29.151,0,0,0-1.748,4c-.56,1.481-1.157,3.06-1.784,4.72l-4.119,10.8c-.425,1.107-.843,2.2-1.24,3.232l-.11-.3L442.3,171.71l4.842,2.719,1.3.754a2.219,2.219,0,0,1,.436.289" transform="translate(-28.199 -8.918)" fill="#263238"/></g><g clip-path="url(#a)"><path d="M91.634,380.65l-21.649,19.8,24.5,27.06c2.442-2.5-5.042-21.2-5.042-21.2l13.524-13.08Z" transform="translate(-4.638 -25.226)" fill="#455a64"/><path d="M83.81,398.023a1.491,1.491,0,0,0-1.953.377,1.434,1.434,0,0,0,.358,1.939,1.573,1.573,0,0,0,2.066-.411,1.487,1.487,0,0,0-.6-1.976" transform="translate(-5.409 -26.363)" fill="#fff"/><path d="M69.986,401.708l2.261-2.092,22.565,26.919s.556,1.684-.42,2.309Z" transform="translate(-4.638 -26.482)" fill="#263238"/><path d="M91.128,408.368c-.136.115-.794-.491-1.808-.756-1.007-.292-1.882-.109-1.94-.278-.084-.145.884-.663,2.106-.32s1.79,1.274,1.642,1.355" transform="translate(-5.79 -26.965)" fill="#fff"/><path d="M92.633,412.595c-.1.147-.844-.222-1.809-.165-.966.029-1.673.462-1.787.326-.133-.105.5-.89,1.7-.938s2.022.661,1.9.778" transform="translate(-5.899 -27.291)" fill="#fff"/><path d="M90.811,417.576c-.168-.116.223-.836,1.388-1.191,1.029-.324,1.879.041,1.819.2-.041.174-.793.123-1.635.4-.848.252-1.44.719-1.571.6" transform="translate(-6.016 -27.585)" fill="#fff"/><path d="M94.387,404.932c-.171.053-.537-.718-1.264-1.418-.712-.716-1.489-1.07-1.438-1.242.026-.162,1.029-.038,1.873.8s.992,1.832.829,1.861" transform="translate(-6.076 -26.654)" fill="#fff"/><path d="M97.22,400.915c-.053.051-.608-.4-1.22-1.361a8.261,8.261,0,0,1-.848-1.812,8.548,8.548,0,0,1-.291-1.152,2.23,2.23,0,0,1-.051-.7.776.776,0,0,1,.648-.7.977.977,0,0,1,.826.305,2.39,2.39,0,0,1,.389.571,6.466,6.466,0,0,1,.785,3.1,3.057,3.057,0,0,1-.379,1.794c-.1-.021.039-.7-.06-1.774a7.294,7.294,0,0,0-.413-1.825,6.839,6.839,0,0,0-.465-.994c-.184-.356-.4-.6-.6-.559-.073.018-.1.032-.125.167a1.815,1.815,0,0,0,.04.512,9.631,9.631,0,0,0,.239,1.087,10.127,10.127,0,0,0,.683,1.765,12.594,12.594,0,0,1,.838,1.576" transform="translate(-6.282 -26.189)" fill="#fff"/><path d="M97.021,401.1c-.063-.028.174-.719.985-1.543A5.891,5.891,0,0,1,100.793,398a1.508,1.508,0,0,1,1.467.245.85.85,0,0,1,.134.908,2.455,2.455,0,0,1-.371.589,4.048,4.048,0,0,1-.912.827,4.2,4.2,0,0,1-1.923.689,2.359,2.359,0,0,1-1.8-.354,15.13,15.13,0,0,0,1.739-.08,4.2,4.2,0,0,0,1.661-.725,3.737,3.737,0,0,0,.761-.734c.249-.3.384-.62.257-.7a1.046,1.046,0,0,0-.873-.072,6,6,0,0,0-1.038.329,6.571,6.571,0,0,0-1.59.962c-.828.683-1.2,1.272-1.28,1.218" transform="translate(-6.429 -26.369)" fill="#fff"/><path d="M87.572,401.085l.275,29.337,36.5-.155c-.229-3.486-19.141-10.406-19.141-10.406l.595-18.8Z" transform="translate(-5.803 -26.578)" fill="#455a64"/><path d="M94.288,419.549a1.49,1.49,0,0,0-1.023,1.706,1.433,1.433,0,0,0,1.682,1.029,1.572,1.572,0,0,0,1.074-1.811,1.485,1.485,0,0,0-1.867-.877" transform="translate(-6.178 -27.799)" fill="#fff"/><path d="M87.861,432.349l-.044-3.141,35.105,1.19s1.624.712,1.437,1.855Z" transform="translate(-5.82 -28.443)" fill="#263238"/><path d="M106.855,420.981c-.006.178-.9.263-1.77.839-.89.555-1.339,1.329-1.5,1.259-.164-.035.1-1.1,1.168-1.781s2.143-.481,2.106-.317" transform="translate(-6.861 -27.888)" fill="#fff"/><path d="M111.027,422.667c.041.173-.729.479-1.331,1.235-.624.739-.773,1.555-.951,1.547-.168.029-.3-1.014.471-1.94s1.807-1.012,1.811-.842" transform="translate(-7.198 -28.005)" fill="#fff"/><path d="M113.533,427.35c-.162.038-.414-.851.04-1.829s1.286-1.37,1.361-1.221c.1.146-.438.672-.8,1.481-.379.8-.428,1.551-.6,1.57" transform="translate(-7.509 -28.116)" fill="#fff"/><path d="M106.458,416.343c-.074.162-.893-.079-1.9-.007-1.008.052-1.791.393-1.884.241-.1-.129.659-.791,1.846-.861s2.025.487,1.938.627" transform="translate(-6.804 -27.549)" fill="#fff"/><path d="M88.268,221.862s-5.115,5.477-7.627,10.726-6.375,16.429-6.375,16.429-4.809,17.077-3.735,25.127,8.267,63.1,8.267,63.1-1.415,43.644,4.74,63.061l1.136,5.15,20.578-3.654,4.558-108.035,12.556-71.429Z" transform="translate(-4.664 -14.703)" fill="#263238"/><path d="M117.428,226.659c-.087.031-.058-.672-.792-1.185a1.52,1.52,0,0,0-1.41-.143,1.463,1.463,0,0,0,.047,2.731,1.522,1.522,0,0,0,1.4-.192c.715-.537.663-1.238.751-1.211.029,0,.08.149.049.434a1.68,1.68,0,0,1-.581,1.053,1.844,1.844,0,0,1-1.771.349,1.9,1.9,0,0,1-.063-3.593,1.849,1.849,0,0,1,1.782.288,1.68,1.68,0,0,1,.617,1.034c.042.283,0,.436-.034.435" transform="translate(-7.542 -14.897)" fill="#455a64"/><path d="M139.646,236.741s7.547,68.489,8.632,80.249-41.607,74.486-41.607,74.486L88.659,370.195l27.483-51.088-9.255-50.888L119.072,222.3l18.944.226Z" transform="translate(-5.875 -14.732)" fill="#263238"/><path d="M81.1,386.592a14.241,14.241,0,0,0,.147,1.5c.126.981.368,2.425.709,4.289.684,3.727,1.795,9.133,3.285,15.886l.031.14.143-.024L106,404.772l.156-.027.007-.159c.571-14.124,1.256-31,1.99-49.107.759-19.479,1.463-37.54,2.041-52.357v.017L113.9,274.5c.431-3.421.768-6.108,1-7.96q.161-1.353.248-2.092c.053-.473.066-.719.066-.719s-.052.241-.124.711q-.106.735-.3,2.084c-.257,1.849-.63,4.53-1.106,7.946-.932,6.883-2.263,16.719-3.873,28.614l0,.008v.009c-.6,14.816-1.333,32.876-2.124,52.353-.707,18.1-1.366,34.986-1.918,49.11l.162-.186-20.569,3.7.174.115c-1.529-6.741-2.684-12.135-3.418-15.85-.366-1.857-.633-3.294-.786-4.27-.084-.487-.132-.859-.165-1.109s-.064-.376-.064-.376" transform="translate(-5.374 -17.478)" fill="#455a64"/><path d="M114.476,249.971a7.182,7.182,0,0,1,1.126.056,5.172,5.172,0,0,0,2.9-.494,2.684,2.684,0,0,0,1.164-1.558,10.879,10.879,0,0,0,.354-2.358c.147-1.708.292-3.587.423-5.562.264-3.95.409-7.531.5-10.123.044-1.218.081-2.246.111-3.072a5.043,5.043,0,0,1,.1-1.127,5.038,5.038,0,0,1,.093,1.128c.026.726.045,1.778.043,3.078,0,2.6-.092,6.191-.357,10.15-.132,1.979-.291,3.862-.462,5.572a10.746,10.746,0,0,1-.418,2.444,3.019,3.019,0,0,1-1.372,1.726,3.845,3.845,0,0,1-1.748.457,7.5,7.5,0,0,1-1.34-.071,3.914,3.914,0,0,1-1.108-.244" transform="translate(-7.586 -14.959)" fill="#455a64"/><path d="M141.685,237.03a7.231,7.231,0,0,1-1.966-1.041,20.408,20.408,0,0,1-7.029-8.007,7.23,7.23,0,0,1-.778-2.085,27.589,27.589,0,0,0,9.773,11.133" transform="translate(-8.741 -14.97)" fill="#455a64"/><path d="M72.992,154.95l8.2,29.783,3.626,15.845c0,13.653-3.626,19.874-3.626,19.874l55.826-2.785s.916-37.778,0-44.924l-6.8-24.735-17.7-4.346-22.1.423Z" transform="translate(-4.837 -9.52)" fill="#529d2e"/><path d="M155.116,199.956a3.548,3.548,0,0,1-.209-1.471,10.106,10.106,0,0,1,2.445-6.628,3.546,3.546,0,0,1,1.114-.982,13.4,13.4,0,0,0-3.35,9.081" transform="translate(-10.266 -12.649)" fill="#263238"/><path d="M170.079,177.515l-14.5,8.662L147.352,165.1a98.073,98.073,0,0,0-4.753-9.037c-4.816-8.453-10.932-8.01-10.932-8.01l-7.376,10.954,7.831,16.778s4.764,31.118,14.007,33.532c14.106,3.685,23.95-31.8,23.95-31.8" transform="translate(-8.237 -9.811)" fill="#529d2e"/><g transform="translate(71.296 171.975)" opacity="0.3"><g clip-path="url(#n)"><path d="M76.356,241.773c6.57-.261,13.4-3.054,19.049-6.412s10.777-7.52,16.108-11.369c12.77-9.22,38.116-29.427,49.959-39.811l-3.432.773L78.321,236.546Z" transform="translate(-76.356 -184.181)"/></g></g><path d="M141.194,210.244a2.231,2.231,0,0,1-.045-.55c-.008-.414-.02-.937-.032-1.578-.007-1.435-.017-3.4-.028-5.8.024-4.956.058-11.692.094-19.136.008-1.871.07-3.691-.049-5.436a31.716,31.716,0,0,0-.686-4.991,26,26,0,0,0-3.429-7.774c-1.249-2.1-2.244-3.827-2.836-5.068-.3-.619-.507-1.109-.638-1.447a2.472,2.472,0,0,1-.171-.525,2.274,2.274,0,0,1,.261.486c.159.324.395.8.716,1.4.64,1.207,1.672,2.893,2.961,4.978a25.6,25.6,0,0,1,3.572,7.85,31.556,31.556,0,0,1,.725,5.062c.126,1.773.068,3.606.059,5.471-.092,7.443-.174,14.178-.236,19.134-.052,2.4-.094,4.364-.127,5.8-.024.641-.044,1.163-.058,1.577a2.522,2.522,0,0,1-.054.549" transform="translate(-8.839 -10.466)" fill="#263238"/><path d="M133.964,118.492a3.73,3.73,0,0,1-3.5-1.565,4.447,4.447,0,0,0,2.692-.148c.815-.416,1.276-1.615.638-2.271-.5-.511-1.32-.422-2.032-.474a4.4,4.4,0,0,1-3.739-2.869c-.6-1.731-.051-3.619.165-5.44A14.982,14.982,0,0,0,121.913,91.9L110.51,85.3c-4.135,5.293-5.425,12.426-4.567,19.088s3.684,12.924,7.08,18.718a22.252,22.252,0,0,0,3.44,4.734,8.813,8.813,0,0,0,5.125,2.629,5.289,5.289,0,0,0-.844-4.772,11.5,11.5,0,0,0,8.479-3.037l-2.444-1.874a8.925,8.925,0,0,0,7.184-2.3" transform="translate(-7.004 -5.653)" fill="#263238"/><path d="M88.938,99.919a10.685,10.685,0,0,1,7.754-10.064l14.3-4.085c6.2-.85,10.577,6.687,11.164,12.921.651,6.926,1.138,14.241.475,19.445-1.333,10.462-9.273,12.033-9.273,12.033s.134,4.744.217,7.785l-.135,23.228L92.338,138.4,88.9,100.047c-.009-.178.022.11.033-.128" transform="translate(-5.892 -5.68)" fill="#ae7461"/><path d="M122.384,108.052a1.336,1.336,0,0,1-1.247,1.388,1.278,1.278,0,0,1-1.413-1.162,1.335,1.335,0,0,1,1.245-1.387,1.278,1.278,0,0,1,1.415,1.162" transform="translate(-7.934 -7.083)" fill="#263238"/><path d="M122.585,103.937c-.161.179-1.2-.538-2.631-.49-1.436.027-2.468.8-2.629.627-.079-.076.08-.395.528-.743a3.668,3.668,0,0,1,2.1-.718,3.518,3.518,0,0,1,2.1.608c.453.325.613.636.533.716" transform="translate(-7.774 -6.8)" fill="#263238"/><path d="M108.907,108.07a1.336,1.336,0,0,1-1.247,1.387,1.277,1.277,0,0,1-1.413-1.162,1.337,1.337,0,0,1,1.245-1.388,1.279,1.279,0,0,1,1.415,1.162" transform="translate(-7.041 -7.084)" fill="#263238"/><path d="M107.969,104.354c-.161.179-1.2-.538-2.632-.49-1.436.027-2.468.8-2.629.627-.078-.075.078-.395.529-.743a3.672,3.672,0,0,1,2.1-.718,3.522,3.522,0,0,1,2.1.608c.451.325.612.636.533.716" transform="translate(-6.805 -6.828)" fill="#263238"/><path d="M113.427,115.549a9.622,9.622,0,0,1,2.321-.492c.365-.049.711-.133.765-.385a1.873,1.873,0,0,0-.278-1.08q-.559-1.315-1.171-2.76c-1.629-3.932-2.821-7.169-2.662-7.234s1.608,3.071,3.237,7q.59,1.455,1.126,2.78a2.118,2.118,0,0,1,.234,1.434.92.92,0,0,1-.586.556,2.533,2.533,0,0,1-.621.1,9.187,9.187,0,0,1-2.365.076" transform="translate(-7.448 -6.865)" fill="#263238"/><path d="M100.184,129.78s3.593,7.055,13.984,5.76l-.066-2.449a26.251,26.251,0,0,1-13.917-3.311" transform="translate(-6.639 -8.6)" fill="#6f4439"/><path d="M107.238,99.413c-.13.395-1.57.254-3.249.509-1.685.221-3.029.756-3.263.414-.106-.165.12-.54.658-.935a5.716,5.716,0,0,1,4.962-.7c.627.231.948.528.893.715" transform="translate(-6.673 -6.522)" fill="#263238"/><path d="M121.976,99.237c-.243.334-1.243.027-2.434.048-1.191-.021-2.191.287-2.433-.048-.107-.162.042-.495.472-.817a3.526,3.526,0,0,1,3.923,0c.43.322.579.655.472.817" transform="translate(-7.759 -6.483)" fill="#263238"/><path d="M107.726,119.3a1.875,1.875,0,0,1,1.9-1.479,1.958,1.958,0,0,1,1.538,1.029,2.406,2.406,0,0,1,.139,1.873l-.026.135a2.135,2.135,0,0,1-2.388.58,2,2,0,0,1-1.159-2.138" transform="translate(-7.137 -7.808)" fill="#6f4439"/><path d="M112.353,120.789c0-.218-1.456-.107-2.583-1.268s-1.089-2.719-1.293-2.714c-.092-.013-.255.367-.221,1.022a3.621,3.621,0,0,0,1,2.271,3.155,3.155,0,0,0,2.159.971c.611.007.958-.182.941-.281" transform="translate(-7.174 -7.741)" fill="#263238"/><path d="M94.086,82.741A14.5,14.5,0,0,1,102.468,77c3.389-.592,5.432-.011,7.662,2.024a8.438,8.438,0,0,0,3.36,1.99c1.626.317,2.985.049,4.925,1.04,2.649,1.356,3.811,4.9,5.038,7.609,1.526,3.369,3.7,6.469,4.694,10.031s.466,7.938-2.535,10.1c.573-3.04,1.046-6.422-.624-9.026-1.274-1.986-3.542-3.086-5.175-4.789-1.97-2.054-2.228-4.8-4.291-6.762-4.713-4.475-13.012,3.4-21.438-6.473" transform="translate(-6.235 -5.088)" fill="#263238"/><path d="M124.219,97.41a30.423,30.423,0,0,0-4.646-8.415,16.361,16.361,0,0,0-21.752-2.788L97,86.276a13.8,13.8,0,0,0,10.732,5.171c2.448-.011,5.1-.64,7.2.619,2.019,1.21,2.783,3.752,4.445,5.418,1.131,1.134,2.648,1.832,3.746,3a12.268,12.268,0,0,1,2.318,4.494c.731-2.5-.232-5.157-1.225-7.568" transform="translate(-6.428 -5.519)" fill="#263238"/><path d="M100.985,88.176l-6.675-5.87c-5.2-.271-8.542,4.646-10.328,8.442-1.328,2.822-1.74,5.979-2.741,8.933-1.027,3.033-2.668,5.836-3.6,8.9s-1.063,6.622.781,9.239l1.165-2.14a12.931,12.931,0,0,0,3.5,7.991q.224-1.115.447-2.231a12.559,12.559,0,0,0,5.023,5.411l3.127,8.358c4.618-14.067-7.272-15.133,9.3-47.031" transform="translate(-5.101 -5.454)" fill="#263238"/><path d="M100.262,89.418A30.266,30.266,0,0,1,98.695,95a10.736,10.736,0,0,1-3.435,4.6c-2.283,1.656-5.224,2-7.968,2.656s-5.664,1.926-6.794,4.511a64.72,64.72,0,0,1,2.34-11.2c1.223-4.028,2.987-8.134,6.345-10.674a11.628,11.628,0,0,1,10.959-1.635" transform="translate(-5.335 -5.471)" fill="#263238"/><path d="M93.6,109.563c-.139-.349-6.617-2.48-6.507,4.337.106,6.623,6.749,5.129,6.757,4.939s-.25-9.276-.25-9.276" transform="translate(-5.772 -7.222)" fill="#ae7461"/><path d="M91.877,116.524c-.03-.021-.114.083-.307.176a1.146,1.146,0,0,1-.862.035,2.853,2.853,0,0,1-1.37-2.535,3.8,3.8,0,0,1,.291-1.658,1.331,1.331,0,0,1,.851-.9.586.586,0,0,1,.686.3c.092.183.053.316.089.327.019.016.14-.114.081-.386a.733.733,0,0,0-.269-.411.867.867,0,0,0-.641-.156,1.623,1.623,0,0,0-1.186,1.05,3.93,3.93,0,0,0-.364,1.853,3,3,0,0,0,1.738,2.828,1.235,1.235,0,0,0,1.051-.2c.2-.167.234-.317.211-.328" transform="translate(-5.89 -7.376)" fill="#6f4439"/><path d="M91.213,118.17a1.3,1.3,0,1,0,.312.09" transform="translate(-5.945 -7.83)" fill="#fff"/><path d="M91.516,118.255a1.791,1.791,0,0,1,.621.872,1.123,1.123,0,0,1-.23,1.047,1.158,1.158,0,0,1-2.054-.59,1.124,1.124,0,0,1,.361-1.008,1.788,1.788,0,0,1,.99-.41c0-.016-.1-.065-.313-.063a1.349,1.349,0,0,0-.817.312,1.325,1.325,0,0,0-.5,1.209,1.423,1.423,0,0,0,2.543.731,1.326,1.326,0,0,0,.22-1.289,1.354,1.354,0,0,0-.527-.7c-.176-.112-.293-.127-.3-.111" transform="translate(-5.935 -7.827)" fill="#263238"/><path d="M101.664,89.844a19.377,19.377,0,0,0-2.588-4.275,19.332,19.332,0,0,0-3.887-3.143,3.692,3.692,0,0,1,1.4.559,10.744,10.744,0,0,1,4.713,5.4,3.683,3.683,0,0,1,.366,1.459" transform="translate(-6.308 -5.462)" fill="#455a64"/><path d="M277.81,112.568a5.136,5.136,0,0,1,.2.806c.1.534.3,1.313.443,2.337a55.419,55.419,0,0,1,.693,8.719,59.544,59.544,0,0,1-1.339,12.9,54.1,54.1,0,0,1-2.1,7.382,48.241,48.241,0,0,1-8,14.351,57.7,57.7,0,0,1-5.267,5.589,53.26,53.26,0,0,1-10.579,7.511,42.115,42.115,0,0,1-8.084,3.342c-.982.325-1.777.46-2.3.593a5.407,5.407,0,0,1-.814.157,5.251,5.251,0,0,1,.791-.252c.517-.162,1.3-.328,2.271-.679a45.077,45.077,0,0,0,7.976-3.463,54.336,54.336,0,0,0,10.44-7.538,58.376,58.376,0,0,0,5.2-5.559,48.444,48.444,0,0,0,7.922-14.213,54.828,54.828,0,0,0,2.108-7.316,62.463,62.463,0,0,0,.9-21.5c-.11-1.024-.283-1.807-.351-2.346a5.225,5.225,0,0,1-.1-.824" transform="translate(-15.948 -7.46)" fill="#263238"/><path d="M277.778,99.789a59.427,59.427,0,0,0-105.657,4.131,59.665,59.665,0,0,0,2.1,54.309,59.06,59.06,0,0,0,35.827,28.054,59.733,59.733,0,0,0,16.042,2.207,59.509,59.509,0,0,0,51.689-88.7M240.447,77.137a53.49,53.49,0,0,1,32.447,25.409,54.029,54.029,0,0,1,1.9,49.188,53.817,53.817,0,1,1-48.877-76.595,54.13,54.13,0,0,1,14.53,2" transform="translate(-11.039 -4.608)" fill="#263238"/><path d="M180.983,149.993a1.948,1.948,0,0,1-.238-.438l-.6-1.3a19.2,19.2,0,0,1-.846-2.1c-.289-.832-.669-1.765-.939-2.843q-.226-.805-.47-1.679c-.158-.585-.261-1.209-.4-1.847-.3-1.273-.464-2.661-.668-4.116a47.625,47.625,0,0,1,1.663-18.93c.455-1.4.855-2.736,1.375-3.937.249-.6.459-1.2.718-1.749l.754-1.571c.454-1.014.992-1.867,1.421-2.636a19.132,19.132,0,0,1,1.2-1.915l.814-1.172a1.862,1.862,0,0,1,.311-.389,1.926,1.926,0,0,1-.23.444c-.2.326-.44.728-.736,1.219a22.378,22.378,0,0,0-1.121,1.948c-.4.777-.917,1.634-1.347,2.651l-.721,1.572c-.247.548-.447,1.143-.686,1.744-.5,1.2-.882,2.529-1.32,3.917a49.118,49.118,0,0,0-1.648,18.755c.19,1.443.334,2.821.617,4.086.131.634.224,1.254.372,1.838s.3,1.138.435,1.673c.247,1.077.6,2.01.866,2.846a22.369,22.369,0,0,0,.765,2.114c.205.534.374.973.512,1.328a1.968,1.968,0,0,1,.148.478" transform="translate(-11.699 -6.851)" fill="#263238"/><path d="M189.8,163.975c-.059.115-1.01-.284-1.931-1.137s-1.4-1.767-1.289-1.835.741.673,1.618,1.477,1.67,1.374,1.6,1.495" transform="translate(-12.364 -10.669)" fill="#263238"/><path d="M172.071,99.036a58.586,58.586,0,1,1,2.069,53.541,58.289,58.289,0,0,1-2.069-53.541m102.673,47.814a54.641,54.641,0,1,0-22.681,24.55,54.656,54.656,0,0,0,22.681-24.55" transform="translate(-11.039 -4.316)" fill="#455a64"/><path d="M225.212,183.277a59.8,59.8,0,0,1-16.068-2.209,59.158,59.158,0,0,1-35.882-28.1,59.754,59.754,0,0,1-2.1-54.394,59.516,59.516,0,1,1,54.054,84.7M225.033,66a57.849,57.849,0,1,0,15.563,2.14A57.978,57.978,0,0,0,225.033,66m.175,113.352a55.858,55.858,0,0,1-15.01-2.064,55.622,55.622,0,1,1,63.365-80.918,55.809,55.809,0,0,1,1.964,50.807,55.652,55.652,0,0,1-50.319,32.175m-.169-109.425a53.92,53.92,0,1,0,14.506,2,53.993,53.993,0,0,0-14.506-2" transform="translate(-10.975 -4.25)" fill="#455a64"/><path d="M53.981,240.2l-1.054-1.671c-2.257-3.578.3-9.25,2.8-10.825l110.588-69.8c.557-.351,1.416.011,1.921.809l7.407,11.737a1.523,1.523,0,0,1-.1,2.082L65.6,241.924c-2.5,1.575-9.359,1.85-11.617-1.728" transform="translate(-3.45 -10.455)" fill="#455a64"/><path d="M164.464,184.864l3.354-3.552s-.394-8.089.987-10.062l.72-1.192s-.718-3.934,1.4-4.843c.6-1.486,1.369-2.092,2.42-1.264,0,0-.592-2.96,2.17-3.354s3.552,12.134,3.552,12.134,1.381,5.623-1.776,5.623a7.085,7.085,0,0,1-3.749,2.17s-.592,3.354-3.354,3.157Z" transform="translate(-10.899 -10.642)" fill="#ae7461"/><path d="M173.1,180.377c.018-.015.165.1.316.4a2.266,2.266,0,0,1,.159,1.388,3.117,3.117,0,0,1-1.036,1.8,6.426,6.426,0,0,1-2.2,1.2,15.723,15.723,0,0,1-4.4.872,5.414,5.414,0,0,1-1.853-.1,28.569,28.569,0,0,0,6.1-1.187,6.5,6.5,0,0,0,2.082-1.1,2.937,2.937,0,0,0,1-1.557,2.8,2.8,0,0,0-.172-1.725" transform="translate(-10.874 -11.953)" fill="#6f4439"/><path d="M176.211,174.832c-.134,0-.141-2.517-.746-5.54-.587-3.027-1.537-5.359-1.412-5.409a5.219,5.219,0,0,1,.732,1.487,23.032,23.032,0,0,1,1.539,7.81,5.232,5.232,0,0,1-.113,1.653" transform="translate(-11.534 -10.86)" fill="#6f4439"/><path d="M173.652,176.32c-.13.009-.368-2.449-1-5.417s-1.4-5.317-1.273-5.361a26.538,26.538,0,0,1,2.272,10.777" transform="translate(-11.356 -10.97)" fill="#6f4439"/><path d="M178.479,176.981c.1-.064.514.711.244,1.689s-1.007,1.442-1.063,1.336c-.083-.1.426-.62.64-1.45.234-.824.06-1.534.179-1.575" transform="translate(-11.773 -11.728)" fill="#6f4439"/><path d="M170.244,177.145a16.92,16.92,0,0,1-.253-3.073,16.968,16.968,0,0,1-.127-3.081,12.872,12.872,0,0,1,.38,6.154" transform="translate(-11.254 -11.331)" fill="#6f4439"/><path d="M90.751,208.343a10.139,10.139,0,0,1,3.244-2.967c2.2-1.3,6.6-1.813,7.433-3.294s2.185.035,1.454,1.936c-.465,1.211-3.649,4.022-3.649,4.022s2.891,1.316,5.122.523,9.677-1.585,10.25-.459c.649,1.274-1.269,1.307-2.146,1.612-.667.232-5.787,1.7-5.787,1.7s9.4,1.4,10.5,2.056c1.191.718-.327,1.608-.92,1.523-.373-.053-2.236,1.083-3.564,1.931a4.314,4.314,0,0,1-3.039.617l-2.177-.367,6.469,1.9s.949,1.252-.738,1.5c-.752.113-21.273-.676-22.84-.87-2.709-.335-7.075-.458-7.075-.458l3.362-12.245Z" transform="translate(-5.519 -13.352)" fill="#ae7461"/><path d="M118.079,216.1a14.569,14.569,0,0,1-4.689.532,14.542,14.542,0,0,1-4.684-.578c.02-.128,2.1.133,4.685.139s4.669-.221,4.687-.093" transform="translate(-7.204 -14.316)" fill="#6f4439"/><path d="M72.093,198.982l9.4-19.376-8.3-25.159a16.879,16.879,0,0,0-6.246,5.429c-2.962,4.015-6.16,12.551-6.16,12.551s-10.245,23.438-11.929,26.935-4.4,9.975,0,13.6,33.883,3.749,33.883,3.749l3.126-13.034Z" transform="translate(-3.079 -10.235)" fill="#529d2e"/><path d="M75.1,168.54c.128-.041,2.323,6.51,4.9,14.63s4.568,14.737,4.44,14.777-2.323-6.508-4.9-14.631S74.969,168.58,75.1,168.54" transform="translate(-4.976 -11.169)" fill="#263238"/><path d="M86.708,206.763a5,5,0,0,1-1.093-.239l-2.927-.821c-2.468-.7-5.865-1.726-9.646-2.713s-7.262-1.723-9.806-1.642a12.639,12.639,0,0,0-4.011.793,3.76,3.76,0,0,1,.993-.523,9.495,9.495,0,0,1,3-.613c2.613-.17,6.149.535,9.941,1.515s7.18,2.066,9.624,2.854c1.223.394,2.205.731,2.883.969a4.937,4.937,0,0,1,1.037.42" transform="translate(-3.925 -13.319)" fill="#263238"/><g transform="translate(72.174 163.776)" opacity="0.3"><g clip-path="url(#o)"><path d="M77.378,175.4a97.048,97.048,0,0,0,.844,16.4l2.645-5.3c-.431-2.715-2.4-8.169-3.345-10.749" transform="translate(-77.297 -175.4)"/></g></g><rect width="12.205" height="43.986" transform="translate(224.709 100.153)" fill="#529d2e"/><rect width="12.205" height="19.969" transform="translate(186.472 126.038)" fill="#529d2e"/><rect width="12.205" height="30.826" transform="translate(205.332 115.18)" fill="#529d2e"/><path d="M245.45,91.695a2.206,2.206,0,0,1-.293.387l-.906,1.07L240.806,97.1l-11.969,13.492-.134.15-.169-.111-7.489-4.892.318-.046-.286.337-15.838,18.579-.1.122-.128-.094-5.955-4.422-1.6-1.222a3.918,3.918,0,0,1-.541-.453,3.688,3.688,0,0,1,.6.373c.418.289.969.67,1.658,1.148l6.047,4.3-.233.028,15.73-18.671.286-.337.139-.164.179.119,7.479,4.907-.3.04,12.1-13.378,3.545-3.857.964-1.018a2.2,2.2,0,0,1,.354-.333" transform="translate(-13.049 -6.077)" fill="#263238"/><path d="M248.6,100.937a16.317,16.317,0,0,1-.17-2.807c-.044-1.736-.072-4.139-.073-6.807l.282.24-.243.04c-2.686.444-5.123.818-6.891,1.065a17.245,17.245,0,0,1-2.878.3,17.055,17.055,0,0,1,2.822-.641c1.754-.334,4.181-.762,6.869-1.205l.242-.04.283-.047v.287c0,2.668-.029,5.071-.073,6.807a16.318,16.318,0,0,1-.17,2.807" transform="translate(-15.814 -6.033)" fill="#263238"/></g></g></g></g></svg>