<svg xmlns="http://www.w3.org/2000/svg" xmlns:xlink="http://www.w3.org/1999/xlink" width="93.267" height="93.267" viewBox="0 0 93.267 93.267"><defs><filter id="a" x="0" y="0" width="93.267" height="93.267" filterUnits="userSpaceOnUse"><feOffset dy="3" input="SourceAlpha"/><feGaussianBlur stdDeviation="3" result="b"/><feFlood flood-opacity="0.161"/><feComposite operator="in" in2="b"/><feComposite in="SourceGraphic"/></filter></defs><g transform="translate(-262.139 -9781.623)"><g transform="matrix(1, 0, 0, 1, 262.14, 9781.62)" filter="url(#a)"><path d="M37.633,0A37.633,37.633,0,1,1,0,37.633,37.633,37.633,0,0,1,37.633,0Z" transform="translate(9 6)" fill="#fc8116"/></g><g transform="translate(270.829 9787.623)"><g transform="translate(1.191 1.986)"><g transform="translate(4.765)"><path d="M18.092,13.33l-2.049,1.227a5.958,5.958,0,0,0-2.895,5.111v1.394H11.957a3.532,3.532,0,0,0-3.05,1.716l-.8-.8a7.19,7.19,0,0,1,0-10.174l.584-.584A4.313,4.313,0,0,1,6,7.218V6.313A4.312,4.312,0,0,1,10.313,2H27.944A13.769,13.769,0,0,1,41.323,19.131l-.715,2.895a3.544,3.544,0,0,0-2.442-.965H36.975V19.87A3.569,3.569,0,0,0,33.4,16.3H22.071a4.14,4.14,0,0,1-2.943-1.215,4.018,4.018,0,0,1-1.036-1.751Z" transform="translate(-6 -2)" fill="#656d78"/></g><g transform="translate(36.931)"><path d="M48.487,28.209H33a3.579,3.579,0,0,0,3.574-3.574,3.3,3.3,0,0,0-.214-1.191H47.3a1.2,1.2,0,0,0,1.191-1.191V11.531H43.722L50.87,2l7.148,9.531H53.253V23.444A4.764,4.764,0,0,1,48.487,28.209Z" transform="translate(-33 -2)" fill="#b4dd7f"/></g><g transform="translate(28.628 30.975)"><path d="M48.63,32.765H26.471l-.441-2.2A11.933,11.933,0,0,0,29.735,28H49.821a4.764,4.764,0,0,1,4.765,4.765V58.975h4.765L52.2,68.505l-7.148-9.531h4.765V33.957A1.2,1.2,0,0,0,48.63,32.765Z" transform="translate(-26.03 -28)" fill="#b4dd7f"/></g><g transform="translate(32.333 21.444)"><path d="M33.739,24.765H58.757V20l9.531,7.148L58.757,34.3V29.531H29.14A11.936,11.936,0,0,0,32,24.765Z" transform="translate(-29.14 -20)" fill="#b4dd7f"/></g><g transform="translate(19.86 50.036)"><path d="M26.6,53.531,22.637,65.444,18.67,53.531,20.254,44H25.02Z" transform="translate(-18.67 -44)" fill="#ff826e"/></g><g transform="translate(20.312 42.888)"><path d="M26.079,40.514l-1.132,4.634H20.182L19.05,40.514,22.564,38Z" transform="translate(-19.05 -38)" fill="#fc6e51"/></g><g transform="translate(16.131 45.402)"><path d="M19.722,40.11l1.132,4.634-1.584,9.531-1.99-5.957L15.54,43.1Z" transform="translate(-15.54 -40.11)" fill="#ccd1d9"/></g><g transform="translate(26.209 45.402)"><path d="M29.313,43.1l-1.739,5.218-1.99,5.957L24,44.744l1.132-4.634Z" transform="translate(-24 -40.11)" fill="#ccd1d9"/></g><g transform="translate(13.379 39.314)"><path d="M20.164,41.088l-4.182,2.99L13.23,35.822,17.721,35l5.957,3.574Z" transform="translate(-13.23 -35)" fill="#b4dd7f"/></g><g transform="translate(23.827 39.314)"><path d="M25.514,41.088,22,38.574,27.957,35l4.491.822L29.7,44.078Z" transform="translate(-22 -35)" fill="#b4dd7f"/></g><g transform="translate(0 40.827)"><path d="M9.148,66.923H2V46.789a10.532,10.532,0,0,1,8.637-10.353l.893-.167v10.4l4.694,1.346-2.311,4.61,11.913,14.3Z" transform="translate(-2 -36.27)" fill="#fcd770"/></g><g transform="translate(23.827 40.827)"><path d="M38.679,66.923H22l11.913-14.3L31.6,48.017,36.3,46.67V36.27l.894.167a10.532,10.532,0,0,1,8.637,10.353V66.923Z" transform="translate(-22 -36.27)" fill="#fcd770"/></g><g transform="translate(11.913 52.574)"><path d="M19.946,53.123l3.967,11.913L12,50.74l2.311-4.61,3.645,1.036Z" transform="translate(-12 -46.13)" fill="#ffc729"/></g><g transform="translate(9.531 40.136)"><path d="M16.6,43.946l1.739,5.218-3.645-1.036L10,46.781v-10.4l3.848-.691Z" transform="translate(-10 -35.69)" fill="#ffc729"/></g><g transform="translate(23.827 52.574)"><path d="M31.6,46.13l2.311,4.61L22,65.036l3.967-11.913,1.99-5.957Z" transform="translate(-22 -46.13)" fill="#ffc729"/></g><g transform="translate(29.783 40.136)"><path d="M35.339,36.381v10.4l-4.694,1.346L27,49.164l1.739-5.218,2.752-8.256Z" transform="translate(-27 -35.69)" fill="#ffc729"/></g><g transform="translate(17.87 33.536)"><path d="M28.2,32.354l.715,3.574L22.957,39.5,17,35.928l1.156-5.778a11.888,11.888,0,0,0,9.6,0Z" transform="translate(-17 -30.15)" fill="#f0d0b4"/></g><g transform="translate(35.192 19.061)"><path d="M36.853,21.574a3.579,3.579,0,0,1-3.574,3.574H31.54a11.8,11.8,0,0,0,.548-3.574V18h1.191a3.544,3.544,0,0,1,2.442.965,3.685,3.685,0,0,1,1.132,2.609Z" transform="translate(-31.54 -18)" fill="#f0d0b4"/></g><g transform="translate(11.913 11.33)"><path d="M35.827,19.242v3.574a11.8,11.8,0,0,1-.548,3.574,11.916,11.916,0,0,1-6.564,7.327,11.888,11.888,0,0,1-9.6,0A11.9,11.9,0,0,1,12,22.816V17.848a5.958,5.958,0,0,1,2.895-5.111l2.049-1.227a4.018,4.018,0,0,0,1.036,1.751,4.14,4.14,0,0,0,2.943,1.215h11.33a3.569,3.569,0,0,1,3.574,3.574Z" transform="translate(-12 -11.51)" fill="#f0d0b4"/></g><g transform="translate(7.148 19.061)"><path d="M13.313,25.148H11.574A3.579,3.579,0,0,1,8,21.574,3.581,3.581,0,0,1,11.574,18h1.191v3.574A11.8,11.8,0,0,0,13.313,25.148Z" transform="translate(-8 -18)" fill="#f0d0b4"/></g></g><path d="M18.574,19.383a1.193,1.193,0,0,1,1.191,1.191h2.383a3.574,3.574,0,1,0-7.148,0h2.383A1.193,1.193,0,0,1,18.574,19.383Z" transform="translate(1.679 2.856)"/><path d="M26.574,19.383a1.193,1.193,0,0,1,1.191,1.191h2.383a3.574,3.574,0,1,0-7.148,0h2.383A1.193,1.193,0,0,1,26.574,19.383Z" transform="translate(3.209 2.856)"/><path d="M28.782,24.62l.061-.183-2.261-.752-.061.182a3.768,3.768,0,0,1-7.148,0l-.061-.183-2.261.752.062.185a6.15,6.15,0,0,0,11.669,0Z" transform="translate(2.071 4.135)"/><path d="M60.567,38.059a5.9,5.9,0,0,0-1.222-3.574h3.6v5.957l12.708-9.531L62.949,21.38v5.957h-3.6a5.9,5.9,0,0,0,1.222-3.574V13.041h5.957L56.993.333,47.462,13.041h5.957v9.531H43.226a4.725,4.725,0,0,0-.36-.531l.574-2.3A14.979,14.979,0,0,0,28.907,1.128H11.267a5.508,5.508,0,0,0-5.5,5.5v.91a5.468,5.468,0,0,0,2.02,4.224,8.367,8.367,0,0,0,.435,11.374l.223.223a4.69,4.69,0,0,0-.3,1.594,4.77,4.77,0,0,0,4.765,4.765h.91a13.17,13.17,0,0,0,6.046,6.8l-.817,4.086-8.435,1.533A11.711,11.711,0,0,0,1,53.663V74.99H51.036V67.842l5.957,7.943,9.531-12.708H60.567Zm4.765-8.339V26.146l6.353,4.765-6.353,4.765V32.1H36.988a13,13,0,0,0,1.225-2.383ZM39.123,24.954V22.572a2.383,2.383,0,0,1,0,4.765H38.9A13.092,13.092,0,0,0,39.123,24.954Zm14.3,0A2.385,2.385,0,0,0,55.8,22.572V10.658H52.227L56.993,4.3l4.765,6.353H58.184v13.1a3.578,3.578,0,0,1-3.574,3.574H43.226a4.716,4.716,0,0,0,.662-2.383ZM12.913,27.337a2.383,2.383,0,0,1,0-4.765v2.383a13.092,13.092,0,0,0,.228,2.383Zm0-7.349v.2a4.718,4.718,0,0,0-3.088,1.166,5.98,5.98,0,0,1,.08-8.387L10,12.878a5.456,5.456,0,0,0,1.271.163h.174A5.472,5.472,0,0,0,16.361,10L14.23,8.933a3.1,3.1,0,0,1-2.789,1.725h-.174A3.123,3.123,0,0,1,8.148,7.539v-.91A3.123,3.123,0,0,1,11.267,3.51h17.64A12.6,12.6,0,0,1,41.129,19.164l-.336,1.343a4.72,4.72,0,0,0-1.67-.318,4.77,4.77,0,0,0-4.765-4.765H23.024a2.962,2.962,0,0,1-.938-5.772l.734-.244-.753-2.261-.734.245a5.334,5.334,0,0,0-3.655,5.069,5.57,5.57,0,0,0,.033.6l-1.328.8a7.179,7.179,0,0,0-3.47,6.128ZM15.3,24.954V19.988A4.789,4.789,0,0,1,17.61,15.9l.919-.552a5.347,5.347,0,0,0,4.5,2.457H34.357a2.385,2.385,0,0,1,2.383,2.383v4.765a10.722,10.722,0,1,1-21.444,0ZM48.47,46.346a11.712,11.712,0,0,0-7.051-4.205l-8.435-1.534-.27-1.356H53.419V63.077H51.036V53.663A11.756,11.756,0,0,0,48.47,46.346ZM36.517,59.339l-7.372,8.847L32.906,56.9,35,56.3Zm-23.6-15.2,1.851-.337,3.452,10.356-5.3-1.514ZM32.2,42.885l2.7.491L33.1,48.8l-4.907-3.5ZM24.644,53.546h2.747l1.374,8.243-2.747,8.242-2.747-8.243Zm5.732,3.412-.76-4.559.654-2.691,2.037,1.456Zm-2.2-8.743-.716,2.949H24.572l-.716-2.949,2.162-1.544Zm-6.414,1.493L22.42,52.4l-.76,4.559-1.932-5.8Zm-4.73,6.6,2.093.6,3.761,11.283-7.372-8.847Zm16.782-2.142L37.27,43.807l1.853.337v8.5Zm-7.8-16.1a13.073,13.073,0,0,0,3.908-.6l.716,3.58-4.624,2.775-4.624-2.775.716-3.58a13.073,13.073,0,0,0,3.908.6Zm-6.185,4.826,4.015,2.409L18.94,48.8l-1.807-5.423ZM3.383,53.663A9.31,9.31,0,0,1,10.531,44.6v9.844l4.174,1.194-2.015,4.029,10.784,12.94H10.531V57.12H8.148V72.608H3.383ZM48.653,72.608H43.888V57.12H41.505V72.608H28.561l10.784-12.94-2.015-4.029,4.174-1.194V44.6a9.308,9.308,0,0,1,7.148,9.061Zm13.1-7.148-4.765,6.353L52.227,65.46H55.8V39.25a2.385,2.385,0,0,0-2.383-2.383H32.237l-.069-.348a13.151,13.151,0,0,0,2.818-2.035H54.61a3.578,3.578,0,0,1,3.574,3.574v27.4Z" transform="translate(-1 -0.333)"/></g></g></svg>