<svg xmlns="http://www.w3.org/2000/svg" xmlns:xlink="http://www.w3.org/1999/xlink" width="963" height="521.408" viewBox="0 0 963 521.408"><defs><filter id="a" x="0" y="0" width="963" height="521.408" filterUnits="userSpaceOnUse"><feOffset dy="3" input="SourceAlpha"/><feGaussianBlur stdDeviation="3" result="b"/><feFlood flood-opacity="0.161"/><feComposite operator="in" in2="b"/><feComposite in="SourceGraphic"/></filter></defs><g transform="translate(-466 -7555)"><g transform="matrix(1, 0, 0, 1, 466, 7555)" filter="url(#a)"><path d="M945,0H0L116.814,503.408H945Z" transform="translate(9 6)" fill="#ffead8"/></g><path d="M84.759,108.569a71.734,71.734,0,0,1,17.5-7.6l3.6-17.318,29.264-.512,4.212,17.18a71.58,71.58,0,0,1,17.755,6.983L171.878,97.6l21.056,20.331-9.168,15.118a71.687,71.687,0,0,1,7.6,17.5l17.318,3.606.515,29.261-17.183,4.212a71.624,71.624,0,0,1-6.983,17.755l9.692,14.789L174.4,241.231l-15.121-9.168a71.754,71.754,0,0,1-17.5,7.6l-3.6,17.318-29.264.515L104.7,240.318a71.8,71.8,0,0,1-17.755-6.983L72.16,243.026,51.1,222.7l9.168-15.118a71.755,71.755,0,0,1-7.6-17.5l-17.318-3.6-.515-29.264L52.017,153A71.748,71.748,0,0,1,59,135.246l-9.692-14.789L69.637,99.4Zm15.6,38.984a31.4,31.4,0,1,0,44.394-.781,31.4,31.4,0,0,0-44.394.781" transform="translate(1192.981 7785.683)" fill="#fdcca2" opacity="0.63"/><path d="M84.759,108.569a71.734,71.734,0,0,1,17.5-7.6l3.6-17.318,29.264-.512,4.212,17.18a71.58,71.58,0,0,1,17.755,6.983L171.878,97.6l21.056,20.331-9.168,15.118a71.687,71.687,0,0,1,7.6,17.5l17.318,3.606.515,29.261-17.183,4.212a71.624,71.624,0,0,1-6.983,17.755l9.692,14.789L174.4,241.231l-15.121-9.168a71.754,71.754,0,0,1-17.5,7.6l-3.6,17.318-29.264.515L104.7,240.318a71.8,71.8,0,0,1-17.755-6.983L72.16,243.026,51.1,222.7l9.168-15.118a71.755,71.755,0,0,1-7.6-17.5l-17.318-3.6-.515-29.264L52.017,153A71.748,71.748,0,0,1,59,135.246l-9.692-14.789L69.637,99.4Zm15.6,38.984a31.4,31.4,0,1,0,44.394-.781,31.4,31.4,0,0,0-44.394.781" transform="translate(687.981 7498.683)" fill="#fffaf5" opacity="0.63"/><g transform="translate(728.808 7871.319)" opacity="0.4"><path d="M434.163,199.428,271.73,221.793l17.2,118.968,161.1-22.694Z" transform="translate(-265.715 -171.398)" fill="#ebebeb"/><path d="M435.694,179.188,275.141,212.468,300.333,330l159.2-33.519Z" transform="translate(-266.625 -166)" fill="#e0e0e0"/><path d="M418.5,161.2,263.83,215.622,304.49,328.741l153.3-54.476Z" transform="translate(-263.608 -161.203)" fill="#fff"/><g transform="translate(0 0)"><path d="M418.42,161.2c.424,1.213,15.546,44.546,39.44,113.011l.051.147-.146.051-153.292,54.51-.179.064-.064-.179-.3-.825c-14.47-40.277-28.191-78.465-40.347-112.3l-.059-.164.164-.058L418.42,161.2,263.806,215.785l.106-.221,40.38,112.288.3.825-.243-.115,153.315-54.444-.1.2C433.851,205.789,418.841,162.416,418.42,161.2Z" transform="translate(-263.527 -161.203)" fill="#263238"/></g><g transform="translate(127.125 21.928)"><path d="M469.02,277.677c-.3.11-7.727-19.182-16.595-43.083s-15.819-43.376-15.522-43.486,7.726,19.177,16.6,43.088S469.317,277.567,469.02,277.677Z" transform="translate(-436.895 -191.107)" fill="#263238"/></g><g transform="translate(113.915 27.966)"><path d="M451.006,285.911c-.3.11-7.728-19.182-16.6-43.083s-15.819-43.376-15.522-43.486,7.726,19.177,16.6,43.088S451.3,285.8,451.006,285.911Z" transform="translate(-418.879 -199.341)" fill="#263238"/></g><g transform="translate(72.903 45.144)"><path d="M395.075,309.338c-.3.11-7.728-19.182-16.6-43.083s-15.819-43.376-15.522-43.486,7.726,19.177,16.6,43.088S395.371,309.228,395.075,309.338Z" transform="translate(-362.948 -222.768)" fill="#263238"/></g><g transform="translate(85.974 39.881)"><path d="M412.9,302.16c-.3.11-7.727-19.182-16.595-43.083s-15.819-43.376-15.523-43.486,7.726,19.177,16.6,43.087S413.2,302.05,412.9,302.16Z" transform="translate(-380.775 -215.59)" fill="#263238"/></g><g transform="translate(99.046 34.617)"><path d="M430.727,294.982c-.3.11-7.727-19.182-16.595-43.083s-15.819-43.376-15.522-43.486,7.725,19.178,16.6,43.088S431.023,294.871,430.727,294.982Z" transform="translate(-398.602 -208.411)" fill="#263238"/></g><g transform="translate(57.761 49.501)"><path d="M374.426,315.279c-.3.11-7.727-19.182-16.595-43.083s-15.819-43.376-15.523-43.486,7.726,19.178,16.6,43.088S374.722,315.17,374.426,315.279Z" transform="translate(-342.3 -228.709)" fill="#263238"/></g><g transform="translate(43.281 54.811)"><path d="M354.678,322.521c-.3.11-7.727-19.181-16.595-43.084s-15.819-43.376-15.523-43.486,7.726,19.177,16.6,43.088S354.974,322.412,354.678,322.521Z" transform="translate(-322.552 -235.951)" fill="#263238"/></g><g transform="translate(28.8 60.121)"><path d="M334.93,329.763c-.3.111-7.727-19.181-16.595-43.083s-15.819-43.376-15.523-43.486,7.726,19.177,16.6,43.088S335.226,329.653,334.93,329.763Z" transform="translate(-302.804 -243.193)" fill="#263238"/></g></g></g></svg>