<svg xmlns="http://www.w3.org/2000/svg" width="1240" height="483.99" viewBox="0 0 1240 483.99"><g transform="translate(-180 -10017.686)"><path d="M0,0H1131a109,109,0,0,1,109,109V481.6a0,0,0,0,1,0,0H0a0,0,0,0,1,0,0V0A0,0,0,0,1,0,0Z" transform="translate(180 10020.08)" fill="#e1f3d7"/><g transform="translate(1330.333 10396.719)"><path d="M390.53,292.224l-18.884,1.758,6.95,6.95L362.52,317.009a2.242,2.242,0,1,0,3.171,3.171L381.767,304.1l7,7.007Z" transform="translate(-361.863 -229.307)" fill="#529d2e"/><path d="M663.961,258.188l-36.605,3.407,13.47,13.474-31.162,31.163a4.347,4.347,0,1,0,6.146,6.148l31.164-31.164,13.578,13.58Z" transform="translate(-574.295 -208.697)" fill="#fc8116"/><path d="M579.972,168.785l-26.787,2.494,9.859,9.859-22.806,22.805a3.18,3.18,0,1,0,4.5,4.5l22.805-22.8,9.936,9.938Z" transform="translate(-490.305 -168.785)" fill="#fcd03e"/></g><g transform="translate(180 10023.686)"><path d="M393.58,292.224l-20.893,1.945,7.689,7.689L362.59,319.646a2.481,2.481,0,1,0,3.508,3.508l17.787-17.787,7.75,7.752Z" transform="translate(-361.863 -254.419)" fill="#529d2e"/><path d="M566.383,168.785l-17.836,1.661,6.564,6.564L539.927,192.2a2.118,2.118,0,1,0,2.995,2.995l15.185-15.184,6.616,6.617Z" transform="translate(-511.976 -168.785)" fill="#fcd03e"/></g></g></svg>