<svg xmlns="http://www.w3.org/2000/svg" xmlns:xlink="http://www.w3.org/1999/xlink" width="93.267" height="93.267" viewBox="0 0 93.267 93.267"><defs><filter id="a" x="0" y="0" width="93.267" height="93.267" filterUnits="userSpaceOnUse"><feOffset dy="3" input="SourceAlpha"/><feGaussianBlur stdDeviation="3" result="b"/><feFlood flood-opacity="0.161"/><feComposite operator="in" in2="b"/><feComposite in="SourceGraphic"/></filter></defs><g transform="translate(-262.139 -9649.055)"><g transform="matrix(1, 0, 0, 1, 262.14, 9649.05)" filter="url(#a)"><ellipse cx="37.633" cy="37.633" rx="37.633" ry="37.633" transform="translate(9 6)" fill="#fc8116"/></g><g transform="translate(269.944 9654.869)"><g transform="translate(1.22 1.22)"><path d="M15.127,15.188,8.783,18.006a4.894,4.894,0,0,0-2.9,4.465v5.368H4.66a3.524,3.524,0,0,0-1.476.317L1.659,22.825A17.12,17.12,0,0,1,18.116,1H27.8A17.121,17.121,0,0,1,44.259,22.825l-1.525,5.331a3.524,3.524,0,0,0-1.476-.317h-1.22v-4.88a4.878,4.878,0,0,0-4.88-4.88H24.435a16.444,16.444,0,0,1-9.308-2.891Z" transform="translate(-1 -1)" fill="#b27946"/><g transform="translate(4.88 46.492)"><path d="M39.159,48.369a7.681,7.681,0,0,0-3.953-6.71l-4.563-2.55h-.012a16.689,16.689,0,0,1-4.892,1.915v.39h2.44a1.224,1.224,0,0,1,1.22,1.22v6.1h-2.44v7.32H29.4v3.66a1.224,1.224,0,0,1-1.22,1.22H15.98a1.224,1.224,0,0,1-1.22-1.22V42.636a1.224,1.224,0,0,1,1.22-1.22h2.44v-.39a16.689,16.689,0,0,1-4.892-1.915h-.012L9.306,41.465l-.354.2a7.667,7.667,0,0,0,2.037,14.2L9.88,65.815h24.4l-1.11-9.955a7.638,7.638,0,0,0,5.99-7.491Z" transform="translate(-5 -39.11)" fill="#fcd770"/></g><g transform="translate(51.238 31.719)"><path d="M60.079,30.147V42.859a1.224,1.224,0,0,1-1.22,1.22H44.22A1.224,1.224,0,0,1,43,42.859V28.22A1.224,1.224,0,0,1,44.22,27H58.859a1.224,1.224,0,0,1,1.22,1.22Z" transform="translate(-43 -27)" fill="#b4dd7f"/></g><g transform="translate(51.238 7.32)"><path d="M60.079,10.147V22.859a1.224,1.224,0,0,1-1.22,1.22H44.22A1.224,1.224,0,0,1,43,22.859V8.22A1.224,1.224,0,0,1,44.22,7H58.859a1.224,1.224,0,0,1,1.22,1.22Z" transform="translate(-43 -7)" fill="#b4dd7f"/></g><g transform="translate(14.639 48.798)"><path d="M27.639,55.639V59.3a1.224,1.224,0,0,1-1.22,1.22H14.22A1.224,1.224,0,0,1,13,59.3V42.22A1.224,1.224,0,0,1,14.22,41h2.44v1.22a1.224,1.224,0,0,0,1.22,1.22h4.88a1.224,1.224,0,0,0,1.22-1.22V41h2.44a1.224,1.224,0,0,1,1.22,1.22v6.1h-6.1a3.66,3.66,0,0,0,0,7.32h6.1Z" transform="translate(-13 -41)" fill="#e6e9ed"/></g><g transform="translate(18.299 46.358)"><path d="M23.32,41.05v1.61a1.224,1.224,0,0,1-1.22,1.22H17.22A1.224,1.224,0,0,1,16,42.66V40.22A1.224,1.224,0,0,1,17.22,39H22.1a1.224,1.224,0,0,1,1.22,1.22Z" transform="translate(-16 -39)" fill="#b4dd7f"/></g><g transform="translate(19.519 56.118)"><path d="M24.32,47v7.32H20.66a3.66,3.66,0,0,1,0-7.32Z" transform="translate(-17 -47)" fill="#f0d0b4"/></g><g transform="translate(38.868 26.839)"><path d="M35.727,23.317a3.656,3.656,0,0,1-1.476,7H32.86a17.811,17.811,0,0,0,.171-2.44V23h1.22A3.524,3.524,0,0,1,35.727,23.317Z" transform="translate(-32.86 -23)" fill="#f0d0b4"/></g><g transform="translate(4.88 14.188)"><path d="M39.159,25.281v4.88a17.81,17.81,0,0,1-.171,2.44,17.1,17.1,0,0,1-8.344,12.334h-.012a16.689,16.689,0,0,1-4.892,1.915v-.83a1.224,1.224,0,0,0-1.22-1.22h-4.88a1.224,1.224,0,0,0-1.22,1.22v.83a16.689,16.689,0,0,1-4.892-1.915h-.012A17.1,17.1,0,0,1,5.171,32.6,17.811,17.811,0,0,1,5,30.161V19.913a4.894,4.894,0,0,1,2.9-4.465l6.344-2.818a16.444,16.444,0,0,0,9.308,2.891H34.279a4.878,4.878,0,0,1,4.88,4.88Z" transform="translate(-5 -12.63)" fill="#f0d0b4"/></g><g transform="translate(0 26.839)"><path d="M5.88,23v4.88a17.811,17.811,0,0,0,.171,2.44H4.66a3.655,3.655,0,0,1-1.476-7A3.524,3.524,0,0,1,4.66,23Z" transform="translate(-1 -23)" fill="#f0d0b4"/></g><g transform="translate(17.079 36.599)"><path d="M24.76,31l-.329,1.33a4.691,4.691,0,0,1-9.1,0L15,31Z" transform="translate(-15 -31)" fill="#ff826e"/></g></g><path d="M14.43,32.845a5.908,5.908,0,0,0,11.463,0L26.6,30H13.719Zm9.043-.405a3.468,3.468,0,0,1-6.624,0Z" transform="translate(3.017 6.599)"/><path d="M17.76,24.88a4.88,4.88,0,1,0-9.76,0h2.44a2.44,2.44,0,1,1,4.88,0Z" transform="translate(1.76 4.399)"/><path d="M26.88,20A4.885,4.885,0,0,0,22,24.88h2.44a2.44,2.44,0,1,1,4.88,0h2.44A4.885,4.885,0,0,0,26.88,20Z" transform="translate(4.839 4.399)"/><path d="M44.44,25.9H59.079a2.442,2.442,0,0,0,2.44-2.44V11.29l5.7-5.229-1.649-1.8L61.4,8.093a2.436,2.436,0,0,0-2.317-1.71H44.44A2.442,2.442,0,0,0,42,8.822V23.462A2.442,2.442,0,0,0,44.44,25.9Zm0-17.079H59.079v1.394L51.8,16.893l-2.834-2.834-1.725,1.725,4.486,4.486,7.356-6.744v9.935H44.44Z" transform="translate(9.238 0.937)"/><path d="M65.574,24.263,61.4,28.094a2.435,2.435,0,0,0-2.317-1.712H44.44A2.442,2.442,0,0,0,42,28.822V43.461a2.442,2.442,0,0,0,2.44,2.44H59.079a2.442,2.442,0,0,0,2.44-2.44V31.29l5.7-5.229Zm-6.494,19.2H44.44V28.822H59.079v1.394L51.8,36.893l-2.834-2.834-1.725,1.725,4.486,4.486,7.356-6.744Z" transform="translate(9.238 5.337)"/><path d="M42,46h7.32v2.44H42Z" transform="translate(9.238 10.118)"/><path d="M50,46h9.76v2.44H50Z" transform="translate(10.997 10.118)"/><path d="M42,50H61.519v2.44H42Z" transform="translate(9.238 10.998)"/><path d="M42,54h2.44v2.44H42Z" transform="translate(9.238 11.877)"/><path d="M46,54h2.44v2.44H46Z" transform="translate(10.118 11.877)"/><path d="M50,54h2.44v2.44H50Z" transform="translate(10.997 11.877)"/><path d="M46.358,18.341A18.361,18.361,0,0,0,28.017,0H18.341A18.339,18.339,0,0,0,.706,23.379l1.269,4.442A4.864,4.864,0,0,0,4.88,36.6h.39a18.484,18.484,0,0,0,7.02,11.025l-1.546.859L9.516,46.846,7.564,48.31l1.067,1.422a8.879,8.879,0,0,0,2.13,15.607l-1.144,10.3H36.741L35.6,65.339A8.892,8.892,0,0,0,36.9,49.2L34.07,47.623A18.493,18.493,0,0,0,41.089,36.6h.389a4.864,4.864,0,0,0,2.9-8.778l1.269-4.442a18.321,18.321,0,0,0,.706-5.038ZM4.88,34.159a2.44,2.44,0,0,1,0-4.88v3.66c0,.41.026.815.054,1.22Zm9.758,14.951c.248.132.5.251.756.372a2.427,2.427,0,0,0-.755,1.757v2.441L12.22,50.454Zm10.981,4.569a2.442,2.442,0,0,0,2.44-2.44h1.22v4.88H24.4a4.88,4.88,0,0,0,0,9.76h4.88v2.44h-12.2V51.238H18.3a2.442,2.442,0,0,0,2.44,2.44Zm-4.88-2.44V48.8h4.88v2.44Zm3.66,12.2a2.44,2.44,0,0,1,0-4.88h2.44v4.88ZM7.32,56.977A6.453,6.453,0,0,1,10.1,51.684l3.36,4.48A5.327,5.327,0,0,0,10.117,57.7l1.726,1.725a2.92,2.92,0,0,1,2.081-.863h.715v4.88h-.86A6.467,6.467,0,0,1,7.32,56.977Zm26.7,16.22H12.342l.816-7.351c.206.015.412.032.621.032h.86v2.44a2.442,2.442,0,0,0,2.44,2.44h12.2a2.442,2.442,0,0,0,2.44-2.44v-2.44h.86c.21,0,.415-.017.621-.032Zm1.7-21.868a6.46,6.46,0,0,1-3.136,12.108h-3.3v-4.88h3.155a2.925,2.925,0,0,1,2.082.863L36.242,57.7a5.349,5.349,0,0,0-3.809-1.577h-.715v-4.88a2.427,2.427,0,0,0-.755-1.757c.254-.121.509-.24.756-.372Zm3.323-18.391a15.96,15.96,0,0,1-11.1,15.132,2.435,2.435,0,0,0-2.317-1.713h-4.88a2.435,2.435,0,0,0-2.317,1.713A15.96,15.96,0,0,1,7.32,32.939V22.691a3.659,3.659,0,0,1,2.174-3.344l5.77-2.564a17.614,17.614,0,0,0,9.392,2.736H35.379a3.664,3.664,0,0,1,3.66,3.66Zm2.44,1.22h-.054c.028-.405.054-.81.054-1.22v-3.66a2.44,2.44,0,0,1,0,4.88Zm0-7.32v-3.66a6.107,6.107,0,0,0-6.1-6.1H24.656A15.186,15.186,0,0,1,11.995,10.3l-2.03,1.354A17.692,17.692,0,0,0,13,15.115l-4.5,2A6.106,6.106,0,0,0,4.88,22.691v4.148a4.846,4.846,0,0,0-.629.063l-1.2-4.193A15.9,15.9,0,0,1,18.341,2.44h9.677a15.9,15.9,0,0,1,15.29,20.27l-1.2,4.193a4.887,4.887,0,0,0-.631-.063Z" transform="translate(0)"/></g></g></svg>