<svg xmlns="http://www.w3.org/2000/svg" xmlns:xlink="http://www.w3.org/1999/xlink" width="93.267" height="93.267" viewBox="0 0 93.267 93.267"><defs><filter id="a" x="0" y="0" width="93.267" height="93.267" filterUnits="userSpaceOnUse"><feOffset dy="3" input="SourceAlpha"/><feGaussianBlur stdDeviation="3" result="b"/><feFlood flood-opacity="0.161"/><feComposite operator="in" in2="b"/><feComposite in="SourceGraphic"/></filter></defs><g transform="translate(-262.139 -9518.366)"><g transform="matrix(1, 0, 0, 1, 262.14, 9518.37)" filter="url(#a)"><ellipse cx="37.633" cy="37.633" rx="37.633" ry="37.633" transform="translate(9 6)" fill="#fc8116"/></g><g transform="translate(269.944 9531.584)"><path d="M6,54.2V17.306A2.3,2.3,0,0,1,8.306,15H63.64a2.3,2.3,0,0,1,2.306,2.306V54.2Z" transform="translate(-0.236 -4.625)" fill="#a8b0bc"/><path d="M10,19H60.723V53.584H10Z" transform="translate(0.375 -4.014)" fill="#e7e4dd"/><path d="M66.557,58.222H6.611A4.611,4.611,0,0,1,2,53.611V51.306A2.3,2.3,0,0,1,4.306,49H68.862a2.3,2.3,0,0,1,2.306,2.306v2.306A4.611,4.611,0,0,1,66.557,58.222Z" transform="translate(-0.847 0.57)" fill="#8892a0"/><path d="M24,49l3.458,4.611H38.986L42.445,49" transform="translate(2.514 0.57)" fill="#a8b0bc"/><path d="M50.375,46.528H41.153A1.153,1.153,0,0,1,40,45.375V36.153A1.153,1.153,0,0,1,41.153,35h9.222a1.153,1.153,0,0,1,1.153,1.153v9.222A1.153,1.153,0,0,1,50.375,46.528Z" transform="translate(4.959 -1.569)" fill="#f2c351"/><g transform="translate(46.112 25.36)"><path d="M50.221,36.069H47.916V32.61a2.305,2.305,0,1,0-4.61,0v1.153H41V32.61a4.611,4.611,0,1,1,9.222,0v3.458Z" transform="translate(-41 -27.999)" fill="#cbc3b6"/></g><path d="M46.457,39.473V38H44.152v1.473a2.306,2.306,0,1,0,2.306,0Z" transform="translate(5.417 -1.11)" fill="#f7d881"/><g transform="translate(13.834 43.806)"><path d="M13,44H31.445v2.306H13Z" transform="translate(-13 -44)" fill="#cbc3b6"/></g><g transform="translate(34.584 43.806)"><path d="M31,44h2.306v2.306H31Z" transform="translate(-31 -44)" fill="#cbc3b6"/></g><g transform="translate(13.834 39.195)"><path d="M13,40H31.445v2.306H13Z" transform="translate(-13 -40)" fill="#cbc3b6"/></g><g transform="translate(34.584 39.195)"><path d="M31,40h2.306v2.306H31Z" transform="translate(-31 -40)" fill="#cbc3b6"/></g><g transform="translate(13.834 34.584)"><path d="M13,36H31.445v2.306H13Z" transform="translate(-13 -36)" fill="#cbc3b6"/></g><g transform="translate(34.584 34.584)"><path d="M31,36h2.306v2.306H31Z" transform="translate(-31 -36)" fill="#cbc3b6"/></g><g transform="translate(13.834 29.973)"><path d="M13,32H31.445v2.306H13Z" transform="translate(-13 -32)" fill="#cbc3b6"/></g><g transform="translate(34.584 29.973)"><path d="M31,32h2.306v2.306H31Z" transform="translate(-31 -32)" fill="#cbc3b6"/></g><ellipse cx="11.511" cy="11.511" rx="11.511" ry="11.511" transform="translate(17.141 0.751)" fill="#f2c351"/><path d="M36.055,10.79A11.52,11.52,0,1,0,21.9,28.582,20.24,20.24,0,0,0,36.055,10.79Z" transform="translate(1.292 -5.847)" fill="#f7d881"/><g transform="translate(26.514 17.291)"><path d="M26.306,25.61A2.306,2.306,0,1,1,28.611,23.3,2.308,2.308,0,0,1,26.306,25.61Z" transform="translate(-24 -20.999)" fill="#c66b60"/></g><path d="M24,12.152a2.068,2.068,0,0,0,.022.3l.968,6.777a1.329,1.329,0,0,0,2.631,0l.968-6.777a2.056,2.056,0,0,0,.022-.3A2.152,2.152,0,0,0,26.459,10h-.305A2.153,2.153,0,0,0,24,12.152Z" transform="translate(2.514 -5.389)" fill="#e47c6e"/><path d="M26.306,21A2.308,2.308,0,0,0,24,23.306a2.284,2.284,0,0,0,.542,1.466,20.245,20.245,0,0,0,3.712-2.687A2.3,2.3,0,0,0,26.306,21Z" transform="translate(2.514 -3.708)" fill="#e47c6e"/><path d="M24,49l3.458,4.611H35.22A13.445,13.445,0,0,0,38.735,49Z" transform="translate(2.514 0.57)" fill="#c1c8d1"/><path d="M69.015,54.417H67.862V18.681A3.463,3.463,0,0,0,64.4,15.222h-22.4a12.666,12.666,0,0,0-24.378,0H9.07a3.463,3.463,0,0,0-3.458,3.458V54.417H4.458A3.463,3.463,0,0,0,1,57.876v2.306a5.771,5.771,0,0,0,5.764,5.764H66.709a5.771,5.771,0,0,0,5.764-5.764V57.876a3.463,3.463,0,0,0-3.458-3.458ZM64.4,17.528a1.154,1.154,0,0,1,1.153,1.153V54.417H63.251V20.986A1.152,1.152,0,0,0,62.1,19.834H42.442c.035-.38.059-.764.059-1.153s-.024-.772-.059-1.153ZM12.528,54.417V22.139h5.1a12.665,12.665,0,0,0,24.377,0H60.945V54.417Zm31.124,2.306-1.729,2.306H31.548L29.82,56.723ZM29.82,8.306A10.375,10.375,0,1,1,19.445,18.681,10.387,10.387,0,0,1,29.82,8.306ZM7.917,18.681A1.154,1.154,0,0,1,9.07,17.528H17.2c-.035.38-.059.763-.059,1.153s.024.772.059,1.153H11.375a1.152,1.152,0,0,0-1.153,1.153V54.417H7.917Zm62.251,41.5a3.463,3.463,0,0,1-3.458,3.458H6.764a3.463,3.463,0,0,1-3.458-3.458V57.876a1.155,1.155,0,0,1,1.153-1.153h22.48l3.113,4.15a1.152,1.152,0,0,0,.922.461H42.5a1.152,1.152,0,0,0,.922-.461l3.113-4.15H69.015a1.155,1.155,0,0,1,1.153,1.153Z" transform="translate(-1 -6)"/><path d="M50.528,34.917V32.611a4.611,4.611,0,1,0-9.222,0v1.153h2.306V32.611a2.306,2.306,0,1,1,4.611,0v2.306H41.306A2.308,2.308,0,0,0,39,37.222v9.222a2.308,2.308,0,0,0,2.306,2.306h9.222a2.308,2.308,0,0,0,2.306-2.306V37.222A2.308,2.308,0,0,0,50.528,34.917ZM41.306,46.445V37.222h9.222v9.222Z" transform="translate(4.806 -2.638)"/><path d="M46.458,39.473V38H44.153v1.473a2.306,2.306,0,1,0,2.306,0Z" transform="translate(5.417 -1.11)"/><path d="M26.306,21a2.306,2.306,0,1,0,2.306,2.306A2.308,2.308,0,0,0,26.306,21Z" transform="translate(2.514 -3.708)"/><path d="M24,19.549a2.482,2.482,0,0,0,4.914,0l.967-6.775a3.2,3.2,0,0,0,.033-.469A3.309,3.309,0,0,0,26.611,9h-.305A3.309,3.309,0,0,0,23,12.305a3.158,3.158,0,0,0,.033.467Zm2.3-8.244h.305a1,1,0,0,1,1,1,.987.987,0,0,1-.009.142l-.968,6.776a.183.183,0,0,1-.349,0l-.968-6.778a.935.935,0,0,1-.009-.139,1,1,0,0,1,1-1Z" transform="translate(2.361 -5.542)"/><path d="M13,44H31.445v2.306H13Z" transform="translate(0.834 -0.194)"/><path d="M31,44h2.306v2.306H31Z" transform="translate(3.584 -0.194)"/><path d="M13,40H31.445v2.306H13Z" transform="translate(0.834 -0.805)"/><path d="M31,40h2.306v2.306H31Z" transform="translate(3.584 -0.805)"/><path d="M13,36H31.445v2.306H13Z" transform="translate(0.834 -1.416)"/><path d="M31,36h2.306v2.306H31Z" transform="translate(3.584 -1.416)"/><path d="M13,32H31.445v2.306H13Z" transform="translate(0.834 -2.027)"/><path d="M31,32h2.306v2.306H31Z" transform="translate(3.584 -2.027)"/></g></g></svg>