<svg xmlns="http://www.w3.org/2000/svg" xmlns:xlink="http://www.w3.org/1999/xlink" width="540.998" height="363.358" viewBox="0 0 540.998 363.358"><defs><clipPath id="a"><rect width="540.998" height="363.358" fill="none"/></clipPath><clipPath id="e"><rect width="69.842" height="69.841" fill="#fdcca2"/></clipPath><clipPath id="g"><rect width="130.131" height="51.369" fill="none"/></clipPath><clipPath id="h"><rect width="196.73" height="56.869" fill="#fc8116"/></clipPath><clipPath id="l"><rect width="28.439" height="3.179" fill="none"/></clipPath><clipPath id="m"><rect width="16.761" height="14.443" fill="none"/></clipPath><clipPath id="n"><rect width="2.202" height="2.216" fill="none"/></clipPath><clipPath id="o"><rect width="21.697" height="10.289" fill="none"/></clipPath><clipPath id="p"><rect width="4.073" height="10.431" fill="none"/></clipPath><clipPath id="q"><rect width="5.278" height="10.712" fill="none"/></clipPath><clipPath id="r"><rect width="4.924" height="26.311" fill="none"/></clipPath><clipPath id="s"><rect width="9.406" height="19.085" fill="none"/></clipPath></defs><g clip-path="url(#a)"><g clip-path="url(#a)"><path d="M237.463,336.152a30.541,30.541,0,0,1,7.833,2.069l5.757-4.825,9.89,7.527-3.116,6.836a30.421,30.421,0,0,1,4.082,7l7.48.659,1.669,12.316-7.032,2.629a30.4,30.4,0,0,1-2.07,7.834l4.826,5.758-7.526,9.888-6.836-3.115a30.421,30.421,0,0,1-7,4.08l-.658,7.48-12.316,1.672-2.629-7.034a30.4,30.4,0,0,1-7.833-2.069l-5.759,4.825-9.889-7.527,3.117-6.836a30.538,30.538,0,0,1-4.082-7l-7.479-.66-1.672-12.315,7.034-2.628a30.374,30.374,0,0,1,2.07-7.835l-4.826-5.758,7.526-9.889,6.836,3.116a30.466,30.466,0,0,1,7-4.081l.658-7.479,12.315-1.671Zm-3.694,16.983a13.334,13.334,0,1,0,13.392,10.2,13.337,13.337,0,0,0-13.392-10.2" transform="translate(-38.141 -63.974)" fill="#e0e0e0" fill-rule="evenodd"/><path d="M76.3,105.247V69.459a35.788,35.788,0,1,1-35.778,36.615Z" transform="translate(-7.877 -13.502)" fill="#fdb373"/><path d="M65.471,93.276l-35.788.809a37.751,37.751,0,0,1,10.14-25.768A36.8,36.8,0,0,1,64.916,57.5Z" transform="translate(-5.77 -11.177)" fill="#f5f5f5"/><path d="M563.883,7.033A30.534,30.534,0,0,1,571.716,9.1l5.757-4.825,9.89,7.527-3.116,6.835a30.443,30.443,0,0,1,4.082,7l7.48.659,1.669,12.315-7.032,2.629a30.4,30.4,0,0,1-2.07,7.834l4.826,5.758-7.526,9.888-6.836-3.115a30.421,30.421,0,0,1-7,4.08l-.658,7.48-12.316,1.672L556.237,67.8a30.4,30.4,0,0,1-7.834-2.069l-5.759,4.825-9.889-7.527,3.117-6.836a30.5,30.5,0,0,1-4.081-7l-7.479-.66-1.671-12.315,7.033-2.628a30.372,30.372,0,0,1,2.07-7.835L526.918,20l7.526-9.889,6.836,3.116a30.453,30.453,0,0,1,7-4.081l.658-7.479L561.253,0Zm-3.694,16.983a13.334,13.334,0,1,0,13.392,10.2,13.337,13.337,0,0,0-13.392-10.2" transform="translate(-101.591)" fill="#fdb373" fill-rule="evenodd"/></g><g clip-path="url(#a)"><path d="M541,435.5c0,.116-121.116.209-270.487.209C121.09,435.713,0,435.619,0,435.5s121.09-.209,270.512-.209c149.371,0,270.487.093,270.487.209" transform="translate(0 -84.613)" fill="#263238"/></g><g clip-path="url(#a)"><path d="M98.679,218.848a28.47,28.47,0,0,1,6.186,4.358l6.61-2.353,6.213,9.807-4.951,4.972a28.407,28.407,0,0,1,1.3,7.457l6.336,3.009-2.542,11.327-7.014.016a28.383,28.383,0,0,1-4.359,6.186l2.353,6.611-9.805,6.213L94.033,271.5a28.473,28.473,0,0,1-7.457,1.3l-3.008,6.336-11.329-2.54-.014-7.015a28.386,28.386,0,0,1-6.187-4.358l-6.612,2.353-6.213-9.807,4.952-4.972a28.512,28.512,0,0,1-1.3-7.456l-6.335-3.009L53.072,231l7.014-.014a28.413,28.413,0,0,1,4.359-6.188l-2.353-6.611,9.805-6.212,4.973,4.951a28.445,28.445,0,0,1,7.457-1.3l3.008-6.335,11.328,2.541Zm-9.987,13.329a12.454,12.454,0,1,0,9.426,14.877,12.454,12.454,0,0,0-9.426-14.877" transform="translate(-9.822 -40.683)" fill="#e8505b" fill-rule="evenodd"/><g transform="translate(40.71 168.61)" opacity="0.8"><g clip-path="url(#e)"><path d="M98.679,218.848a28.47,28.47,0,0,1,6.186,4.358l6.61-2.353,6.213,9.807-4.951,4.972a28.407,28.407,0,0,1,1.3,7.457l6.336,3.009-2.542,11.327-7.014.016a28.383,28.383,0,0,1-4.359,6.186l2.353,6.611-9.805,6.213L94.033,271.5a28.473,28.473,0,0,1-7.457,1.3l-3.008,6.336-11.329-2.54-.014-7.015a28.386,28.386,0,0,1-6.187-4.358l-6.612,2.353-6.213-9.807,4.952-4.972a28.512,28.512,0,0,1-1.3-7.456l-6.335-3.009L53.072,231l7.014-.014a28.413,28.413,0,0,1,4.359-6.188l-2.353-6.611,9.805-6.212,4.973,4.951a28.445,28.445,0,0,1,7.457-1.3l3.008-6.335,11.328,2.541Zm-9.987,13.329a12.454,12.454,0,1,0,9.426,14.877,12.454,12.454,0,0,0-9.426-14.877" transform="translate(-50.532 -209.293)" fill="#fdcca2" fill-rule="evenodd"/></g></g><path d="M119.414,347.46a8.512,8.512,0,0,1,2.663.833,11.213,11.213,0,0,1,5.307,5.373,11.349,11.349,0,0,1,1.084,5.189,11.53,11.53,0,0,1-1.785,5.817,11.54,11.54,0,0,1-5.1,4.379,11.493,11.493,0,0,1-13.36-3,11.54,11.54,0,0,1-2.738-6.137,11.53,11.53,0,0,1,.871-6.023,11.347,11.347,0,0,1,3.2-4.229,11.216,11.216,0,0,1,7.093-2.59,8.507,8.507,0,0,1,2.764.384c-.012.079-.984-.2-2.758-.132a11.224,11.224,0,0,0-6.805,2.688,11,11,0,0,0-3.77,9.826,11,11,0,0,0,2.625,5.8,10.914,10.914,0,0,0,12.627,2.833,11.007,11.007,0,0,0,4.848-4.12,11.007,11.007,0,0,0,.789-10.495,11.228,11.228,0,0,0-5.006-5.339c-1.575-.814-2.572-.981-2.55-1.058" transform="translate(-20.487 -67.465)" fill="#263238"/><path d="M123.419,330.456a2.436,2.436,0,0,1-.024-.395c-.007-.295-.016-.69-.028-1.2-.015-1.1-.037-2.688-.065-4.748l.08.1-10.259-2.239.184-.09c-.818,1.74-1.726,3.674-2.7,5.742l-.048.1-.116,0a25.7,25.7,0,0,0-6.688,1.187l-.122.039-.092-.091L99.031,324.4l.285.031-8.856,5.64.1-.3,2.14,5.976.055.151-.11.119a25.539,25.539,0,0,0-3.891,5.544l-.077.15h-.17l-6.343.023.28-.226-2.286,10.25L80,351.425l5.733,2.716.168.08.007.186a25.594,25.594,0,0,0,1.166,6.662l.057.18-.134.135-4.477,4.5.044-.393,5.623,8.868-.379-.131,5.979-2.13.184-.066.143.133a25.488,25.488,0,0,0,5.521,3.89h0v0c.078.127-.172-.286.176.286v.793l0,.8,0,1.591q0,1.588.006,3.163l-.252-.314,10.247,2.3-.359.176q1.376-2.894,2.724-5.73l.083-.173.192-.008a25.419,25.419,0,0,0,6.662-1.154l.181-.057.135.134,4.495,4.482-.382-.042,8.875-5.611-.122.351q-1.079-3.045-2.121-5.983l-.059-.166.12-.128a25.473,25.473,0,0,0,3.907-5.529l.079-.15h.168l6.344,0-.262.21c.816-3.6,1.587-7,2.32-10.241l.135.277-5.725-2.736-.127-.06,0-.14a25.618,25.618,0,0,0-1.146-6.69l-.039-.123.091-.09,4.493-4.482-.026.237c-2.162-3.446-4-6.382-5.581-8.895l.171.059-5.992,2.09-.06.021-.046-.043a26.667,26.667,0,0,0-4.075-3.139l-1.091-.657a2.674,2.674,0,0,1-.359-.222,3.18,3.18,0,0,1,.386.175c.251.128.629.324,1.12.613a24.936,24.936,0,0,1,4.161,3.077l-.106-.022,5.966-2.166.108-.039.063.1,5.659,8.846.082.128-.108.11-4.463,4.512.052-.214a25.955,25.955,0,0,1,1.2,6.8l-.133-.2,5.738,2.708.178.085-.043.193-2.278,10.251-.047.209h-.216l-6.343.025.247-.151a26,26,0,0,1-3.979,5.664l.06-.294,2.136,5.977.081.224-.2.127-8.863,5.629-.208.131-.175-.173L119,378.3l.314.077a26,26,0,0,1-6.827,1.192l.275-.18-2.719,5.732-.11.231-.25-.056L99.433,383l-.252-.056v-.259q0-1.575-.007-3.163l0-1.591,0-.8,0-.4v-.393c.347.571.1.158.172.285h0l0,0a26.1,26.1,0,0,1-5.661-3.99l.327.067-5.981,2.128-.242.086-.138-.217-5.615-8.873-.135-.214.178-.179,4.482-4.495-.077.314a26.156,26.156,0,0,1-1.183-6.826l.175.265-5.727-2.728-.218-.1.053-.234c.8-3.556,1.585-7.026,2.311-10.243l.051-.226h.23l6.344,0-.247.151a25.971,25.971,0,0,1,3.994-5.65l-.056.271c-.74-2.091-1.462-4.131-2.117-5.984l-.068-.193.172-.108,8.882-5.6.156-.1.13.13,4.486,4.491-.213-.052a25.956,25.956,0,0,1,6.8-1.161l-.164.108,2.744-5.719.057-.119.127.029,10.232,2.358.082.019,0,.081c-.019,2.042-.033,3.615-.044,4.706-.009.518-.016.918-.022,1.217a3.175,3.175,0,0,1-.023.421" transform="translate(-15.457 -62.518)" fill="#263238"/><path d="M52.689,302.642a16.6,16.6,0,0,1,3.6,2.537l3.848-1.37,3.616,5.709-2.882,2.895a16.585,16.585,0,0,1,.756,4.341l3.689,1.751-1.48,6.594-4.083.01a16.529,16.529,0,0,1-2.538,3.6l1.37,3.848-5.708,3.617-2.9-2.883a16.539,16.539,0,0,1-4.341.756l-1.751,3.688L37.3,336.258l-.009-4.084a16.532,16.532,0,0,1-3.6-2.537l-3.848,1.37L26.221,325.3,29.1,322.4a16.579,16.579,0,0,1-.756-4.341l-3.688-1.751,1.479-6.595,4.083-.008a16.515,16.515,0,0,1,2.538-3.6l-1.37-3.849,5.708-3.616,2.9,2.883a16.579,16.579,0,0,1,4.341-.756l1.751-3.688,6.594,1.479Zm-5.814,7.76a7.25,7.25,0,1,0,5.487,8.66,7.249,7.249,0,0,0-5.487-8.66" transform="translate(-4.794 -57.747)" fill="#fc8116" fill-rule="evenodd"/><path d="M578.73,161.148a20.9,20.9,0,0,1,5.375,1.42l3.952-3.311,6.787,5.166-2.138,4.69a20.906,20.906,0,0,1,2.8,4.8l5.133.452,1.146,8.453-4.826,1.8a20.86,20.86,0,0,1-1.42,5.377l3.311,3.952-5.165,6.787-4.691-2.138a20.921,20.921,0,0,1-4.8,2.8l-.451,5.133-8.453,1.147-1.8-4.827a20.855,20.855,0,0,1-5.376-1.42l-3.952,3.312-6.787-5.166,2.14-4.692a20.934,20.934,0,0,1-2.8-4.8l-5.133-.453-1.147-8.452,4.827-1.8a20.807,20.807,0,0,1,1.42-5.377l-3.312-3.952,5.165-6.787,4.691,2.139a20.908,20.908,0,0,1,4.8-2.8l.453-5.133,8.451-1.146ZM576.194,172.8a9.151,9.151,0,1,0,9.19,7,9.154,9.154,0,0,0-9.19-7" transform="translate(-106.992 -30.386)" fill="#263238" fill-rule="evenodd"/><path d="M624.281,99.5a8.333,8.333,0,0,1,2.733-.143,11,11,0,0,1,6.712,3.127,11.123,11.123,0,0,1,2.766,4.4,11.307,11.307,0,0,1,.345,5.957,11.331,11.331,0,0,1-3.189,5.765,11.271,11.271,0,0,1-13.3,1.805,11.325,11.325,0,0,1-4.611-4.706,11.3,11.3,0,0,1-1.255-5.834,11.133,11.133,0,0,1,1.494-4.978,10.994,10.994,0,0,1,5.637-4.8,8.337,8.337,0,0,1,2.671-.591c.016.077-.972.156-2.58.819a11.007,11.007,0,0,0-5.339,4.794,10.788,10.788,0,0,0-.112,10.319,10.8,10.8,0,0,0,4.391,4.433,10.7,10.7,0,0,0,12.574-1.706,10.8,10.8,0,0,0,3.05-5.442,10.791,10.791,0,0,0-2.857-9.916,11.008,11.008,0,0,0-6.423-3.2c-1.726-.211-2.7-.024-2.705-.1" transform="translate(-119.44 -19.305)" fill="#263238"/><path d="M623.531,80.524a2.346,2.346,0,0,1-.157-.355l-.436-1.094c-.39-1.008-.951-2.459-1.681-4.342l.109.065-10.194,1.443.138-.145c-.157,1.878-.333,3.965-.52,6.2l-.009.112-.1.044a25.2,25.2,0,0,0-5.743,3.374l-.1.077-.116-.052-5.67-2.565.273-.069L593.1,91.422l-.007-.312,4.007,4.763.1.121-.06.147a25.036,25.036,0,0,0-1.685,6.424l-.02.164-.155.058-5.824,2.186.181-.3c.439,3.2.912,6.66,1.4,10.2l-.267-.255,6.2.541.181.016.07.168a25.14,25.14,0,0,0,3.346,5.726l.114.147-.077.169-2.579,5.665-.094-.376,8.2,6.233-.393.009,4.77-4,.147-.123.177.073a24.955,24.955,0,0,0,6.4,1.692h0c.115.09-.256-.2.259.2l0,.006,0,.011.008.023.018.045.034.092.068.184.138.367.273.733.546,1.461,1.085,2.905-.338-.2,10.2-1.382-.271.284q.277-3.13.548-6.2l.017-.189.174-.072a24.932,24.932,0,0,0,5.73-3.336l.147-.114.169.077,5.661,2.586-.365.092q3.2-4.193,6.243-8.187l.008.364-3.991-4.775-.11-.133.065-.159a24.982,24.982,0,0,0,1.705-6.415l.021-.166.155-.057,5.83-2.168-.169.282c-.479-3.59-.932-6.979-1.362-10.206l.219.209-6.2-.561-.138-.013-.052-.126a25.159,25.159,0,0,0-3.336-5.759l-.077-.1.052-.114,2.6-5.654.057.226L634.7,78.354l.177,0-4.8,3.966-.048.04-.056-.024a26.119,26.119,0,0,0-4.818-1.494l-1.227-.232a2.56,2.56,0,0,1-.406-.081,3.037,3.037,0,0,1,.414.029c.274.032.689.083,1.239.181a24.424,24.424,0,0,1,4.875,1.409l-.1.016,4.743-4.028.086-.073.092.068,8.221,6.2.119.089-.062.138-2.563,5.671-.025-.213a25.423,25.423,0,0,1,3.427,5.839l-.189-.139,6.2.531.193.017.027.193,1.4,10.2.028.209-.2.074-5.823,2.188.176-.223a25.473,25.473,0,0,1-1.724,6.564l-.045-.29,4,4.765.15.178-.142.186-6.227,8.2-.146.192-.22-.1-5.665-2.576.316-.037a25.535,25.535,0,0,1-5.869,3.425l.191-.26q-.27,3.068-.543,6.2l-.022.25-.249.034-10.2,1.387-.251.035-.089-.238-1.086-2.905-.546-1.461-.274-.732-.137-.367-.068-.183-.034-.092-.018-.046-.008-.023,0-.011,0-.006.256.2h0a25.575,25.575,0,0,1-6.565-1.736l.323-.05-4.772,4-.193.162-.2-.152-8.19-6.24-.2-.151.1-.226,2.586-5.661.037.315a25.7,25.7,0,0,1-3.417-5.871l.251.184-6.2-.553-.235-.021-.031-.234-1.372-10.2-.031-.224.212-.079,5.829-2.169-.175.222a25.484,25.484,0,0,1,1.743-6.557l.041.268-3.988-4.778-.128-.153.121-.159,6.253-8.178.11-.144.164.076,5.656,2.6-.214.025a25.442,25.442,0,0,1,5.856-3.388l-.114.155c.205-2.232.4-4.317.57-6.194l.012-.129.126-.016,10.21-1.325.081-.01.027.075q1.019,2.825,1.566,4.341c.167.48.3.851.395,1.127a2.987,2.987,0,0,1,.123.395" transform="translate(-114.5 -14.498)" fill="#263238"/></g><rect width="370.615" height="256.206" transform="translate(94.871 34.926)" fill="#fafafa"/><g clip-path="url(#a)"><path d="M488.326,299.51c0-1.386-.066-100.341-.169-256.206l.169.168-370.586.04h-.03l.209-.209c-.006,91.518-.013,178.447-.019,256.206l-.191-.192,370.615.192L117.71,299.7h-.192v-.192c-.006-77.759-.012-164.689-.019-256.206v-.209h.24l370.586.039h.169v.17c-.1,155.865-.168,254.822-.169,256.206" transform="translate(-22.84 -8.377)" fill="#263238"/><rect width="370.615" height="14.867" transform="translate(94.871 34.926)" fill="#263238"/><path d="M129.784,51.679A2.283,2.283,0,1,1,127.5,49.4a2.283,2.283,0,0,1,2.283,2.283" transform="translate(-24.34 -9.602)" fill="#fff"/><path d="M140.006,51.679a2.283,2.283,0,1,1-2.283-2.283,2.283,2.283,0,0,1,2.283,2.283" transform="translate(-26.327 -9.602)" fill="#fff"/><path d="M150.227,51.679a2.283,2.283,0,1,1-2.283-2.283,2.283,2.283,0,0,1,2.283,2.283" transform="translate(-28.314 -9.602)" fill="#fff"/><path d="M478.733,321.258c0-.926-.046-30.585-.124-83.22l.124.124-342.143.086h-.02l.209-.21c0,28.508,0,56.36,0,83.22l-.206-.205,342.163.205c-2.035,0-147.052.089-342.163.206h-.205v-.207c0-26.859,0-54.712,0-83.22v-.209h.229l342.143.086h.124v.123c-.078,52.634-.122,82.294-.124,83.22" transform="translate(-26.506 -46.229)" fill="#e0e0e0"/><path d="M302.948,201.258s-.012-.725-.018-2.12-.011-3.461-.019-6.159c-.01-5.4-.024-13.329-.043-23.469-.022-20.266-.052-49.37-.089-84.748l.17.168-165.42.041h-.014l.209-.209c-.006,41.675-.013,81.235-.019,116.5l-.191-.191,119.307.1,33.981.051,9.024.023,2.327.012c.524,0,.8.01.8.01s-.257.007-.773.012l-2.3.011-8.986.023-33.938.052-119.432.094h-.191v-.192c-.006-35.261-.012-74.821-.019-116.5v-.21h.224l165.42.04h.17v.17c-.037,35.421-.067,64.562-.089,84.853-.019,10.126-.033,18.042-.043,23.432-.009,2.684-.015,4.739-.019,6.128s-.018,2.083-.018,2.083" transform="translate(-26.689 -16.435)" fill="#e0e0e0"/><path d="M159.767,189.675l11.913-17.234a7.631,7.631,0,0,1,10.716-1.867l1.674,1.2a7.63,7.63,0,0,0,11.659-3.738l5.785-16.925a7.631,7.631,0,0,1,14.442,0l2.8,8.19a7.631,7.631,0,0,0,14.2.624l2.427-5.479a7.632,7.632,0,0,1,13.277-1.216,7.63,7.63,0,0,0,13.52-1.838l2.707-7.918a7.631,7.631,0,0,1,14.661.773L289.9,189.675s-129.768-.363-130.131,0" transform="translate(-31.056 -26.884)" fill="#d66d12"/><path d="M159.351,194.574l9.681-28.322a7.454,7.454,0,0,1,14.044-.172l4.637,12.548a7.453,7.453,0,0,0,12.8,2.088l3.757-4.671a7.453,7.453,0,0,1,10.208-1.345l8.748,6.4a7.457,7.457,0,0,0,4.4,1.437H238.76a7.45,7.45,0,0,1,4.4,1.438l8.283,6.058A7.453,7.453,0,0,0,262,188.221l7.775-11.373q.149-.218.309-.421a6.987,6.987,0,0,1,11.64,1.379l8.318,16.5s-130.689-.267-130.689.267" transform="translate(-30.975 -31.336)" fill="#fc8116"/><path d="M289.91,197.212l-10.115-8.235c-13.874-10.2-20.453,9.22-31.36-5.356l-3.757-4.671a7.453,7.453,0,0,0-10.208-1.345l-4.348,3.18a24.145,24.145,0,0,1-14.253,4.656h-5.681a7.457,7.457,0,0,0-4.4,1.437l-8.283,6.059c-3.4,2.485-5.767,2.819-11.205-1.746,0,0-5.9-4.8-6.042-4.968-2.894-3.524-8.94-3.522-11.547,0a30.6,30.6,0,0,1-1.987,2.378l-7.814,8.61s131-.536,131,0" transform="translate(-30.889 -34.244)" fill="#fdb373"/><path d="M198.964,121.062c0,.116-4.629.209-10.338.209s-10.339-.093-10.339-.209,4.628-.209,10.339-.209,10.338.093,10.338.209" transform="translate(-34.656 -23.492)" fill="#263238"/><rect width="3.538" height="3.538" transform="translate(137.835 95.802)" fill="#fc8116"/><path d="M247.381,121.062c0,.116-4.629.209-10.338.209s-10.339-.093-10.339-.209,4.628-.209,10.339-.209,10.338.093,10.338.209" transform="translate(-44.067 -23.492)" fill="#263238"/><rect width="3.538" height="3.538" transform="translate(176.841 95.802)" fill="#fc8116"/><path d="M295.8,121.062c0,.116-4.629.209-10.338.209s-10.339-.093-10.339-.209,4.628-.209,10.339-.209,10.338.093,10.338.209" transform="translate(-53.478 -23.492)" fill="#263238"/><rect width="3.538" height="3.538" transform="translate(215.846 95.802)" fill="#fc8116"/><path d="M301.424,310.007l8.515-12.142a3.052,3.052,0,0,1,4.336-.683l4.479,3.381a3.05,3.05,0,0,0,4.48-.91l12.921-22.379a3.051,3.051,0,0,1,5.038-.363l8.068,10.229a3.051,3.051,0,0,0,4.97-.251l5.9-9.267a3.051,3.051,0,0,1,5.216.113l4.868,8.431a3.051,3.051,0,0,0,5.214.115l16.643-26.086a3.051,3.051,0,0,1,5.108-.056l27.5,41.134a3.052,3.052,0,0,0,4.8.356l16.706-18.39a3.051,3.051,0,0,1,4.42-.1l13.289,13.337a3.051,3.051,0,0,0,4.8-.628l23.774-41.178a3.051,3.051,0,0,1,5.693,1.527v53.813Z" transform="translate(-58.591 -49.205)" fill="#fc8116"/><path d="M497.778,331.07a1.424,1.424,0,0,1-.015-.236c0-.172-.007-.409-.014-.724-.006-.665-.015-1.652-.027-3l.055.055c-11.361.089-50.885.155-97.822.155-46.954,0-86.474-.065-97.833-.155l.056-.055c-.013,1.35-.022,2.338-.027,3-.006.315-.01.552-.014.724a1.424,1.424,0,0,1-.015.236,1.438,1.438,0,0,1-.014-.236c0-.172-.007-.409-.014-.724-.006-.665-.014-1.652-.027-3v-.055h.056c11.359-.089,50.879-.155,97.833-.155,46.938,0,86.461.066,97.822.155h.056v.055c-.011,1.35-.021,2.338-.027,3-.006.315-.01.552-.014.724a1.457,1.457,0,0,1-.014.236" transform="translate(-58.716 -63.543)" fill="#263238"/><path d="M329.07,331.285c-.116,0-.21-.373-.21-.834s.094-.834.21-.834.209.373.209.834-.093.834-.209.834" transform="translate(-63.924 -64.071)" fill="#263238"/><path d="M356.055,331.285c-.116,0-.209-.373-.209-.834s.093-.834.209-.834.209.373.209.834-.093.834-.209.834" transform="translate(-69.17 -64.071)" fill="#263238"/><path d="M383.04,331.285c-.116,0-.209-.373-.209-.834s.093-.834.209-.834.209.373.209.834-.093.834-.209.834" transform="translate(-74.415 -64.071)" fill="#263238"/><path d="M410.025,331.285c-.116,0-.209-.373-.209-.834s.093-.834.209-.834.21.373.21.834-.093.834-.21.834" transform="translate(-79.66 -64.071)" fill="#263238"/><path d="M437.009,331.285c-.116,0-.209-.373-.209-.834s.093-.834.209-.834.209.373.209.834-.093.834-.209.834" transform="translate(-84.906 -64.071)" fill="#263238"/><path d="M463.994,331.285c-.116,0-.209-.373-.209-.834s.093-.834.209-.834.209.373.209.834-.093.834-.209.834" transform="translate(-90.151 -64.071)" fill="#263238"/><path d="M490.979,331.285c-.116,0-.209-.373-.209-.834s.093-.834.209-.834.209.373.209.834-.093.834-.209.834" transform="translate(-95.396 -64.071)" fill="#263238"/><path d="M517.964,331.285c-.116,0-.209-.373-.209-.834s.093-.834.209-.834.209.373.209.834-.093.834-.209.834" transform="translate(-100.642 -64.071)" fill="#263238"/><path d="M522.714,177.156s-.01-.483-.016-1.411-.01-2.309-.017-4.11c-.009-3.611-.022-8.924-.039-15.761-.019-13.664-.047-33.418-.082-57.8l.154.154-165.423.056h-.011l.209-.209c0,27.844-.008,54.6-.011,79.086l-.2-.2,118.822.1,34.283.054,9.153.025,2.365.012c.533,0,.81.012.81.012s-.261.008-.786.012l-2.343.012-9.112.025-34.239.054-118.954.1h-.2v-.2c0-24.487-.007-51.242-.011-79.086v-.21h.222l165.423.056h.155v.154c-.035,24.426-.063,44.211-.082,57.9-.017,6.822-.03,12.124-.039,15.726-.007,1.789-.013,3.156-.017,4.082s-.016,1.38-.016,1.38" transform="translate(-69.408 -19.022)" fill="#e0e0e0"/><path d="M488.248,140.011H374.288a1.9,1.9,0,0,1,0-3.8h113.96a1.9,1.9,0,1,1,0,3.8" transform="translate(-72.385 -26.477)" fill="#e0e0e0"/><path d="M488.248,121.34H374.288a1.9,1.9,0,0,1,0-3.8h113.96a1.9,1.9,0,1,1,0,3.8" transform="translate(-72.385 -22.848)" fill="#e0e0e0"/><path d="M425.781,140.011H374.288a1.9,1.9,0,0,1,0-3.8h51.494a1.9,1.9,0,1,1,0,3.8" transform="translate(-72.385 -26.477)" fill="#455a64"/><path d="M533.191,138.769h-.842v1.088h-.615v-1.088h-2.462v-.443l2.266-2.9h.684l-2.171,2.8h1.7v-.962h.6v.962h.842Z" transform="translate(-102.88 -26.324)" fill="#263238"/><path d="M537.646,138.528c0,.767-.545,1.381-1.677,1.381a2.542,2.542,0,0,1-1.627-.538l.292-.5a1.989,1.989,0,0,0,1.329.475c.671,0,1.051-.309,1.051-.79,0-.5-.317-.811-1.342-.811h-1.007l.234-2.317h2.5v.55H535.43l-.12,1.216h.494c1.322,0,1.842.551,1.842,1.336" transform="translate(-103.866 -26.324)" fill="#263238"/><path d="M538.931,136.588a1.072,1.072,0,0,1,1.031-1.209c.615,0,1.026.481,1.026,1.209s-.411,1.209-1.026,1.209a1.073,1.073,0,0,1-1.031-1.209m1.652,0c0-.532-.234-.849-.621-.849s-.62.323-.62.849.24.848.62.848.621-.317.621-.848m2.051-1.171h.487l-3.027,4.432h-.487Zm-.893,3.26a1.042,1.042,0,1,1,1.025,1.209,1.068,1.068,0,0,1-1.025-1.209m1.646,0c0-.525-.241-.848-.621-.848s-.62.317-.62.848.234.848.62.848.621-.323.621-.848" transform="translate(-104.758 -26.315)" fill="#263238"/><path d="M488.248,157.3H374.288a1.9,1.9,0,0,1,0-3.8h113.96a1.9,1.9,0,1,1,0,3.8" transform="translate(-72.385 -29.838)" fill="#e0e0e0"/><path d="M442.558,157.3H374.4a1.794,1.794,0,0,1-2.016-1.9c0-1.049.6-1.9,1.341-1.9h68.154a1.977,1.977,0,0,1,2.182,1.9,1.911,1.911,0,0,1-1.507,1.9" transform="translate(-72.385 -29.838)" fill="#455a64"/><path d="M532.552,152.715v.431l-1.792,4h-.671l1.754-3.881h-2.026v.791h-.607v-1.342Z" transform="translate(-102.868 -29.685)" fill="#263238"/><path d="M533.892,154.919c0-1.444.773-2.266,1.812-2.266s1.8.823,1.8,2.266-.773,2.266-1.8,2.266-1.812-.823-1.812-2.266m2.982,0c0-1.134-.482-1.7-1.171-1.7s-1.179.57-1.179,1.7.481,1.7,1.179,1.7,1.171-.57,1.171-1.7" transform="translate(-103.778 -29.673)" fill="#263238"/><path d="M539.049,153.878a1.072,1.072,0,0,1,1.031-1.209c.615,0,1.026.481,1.026,1.209s-.411,1.209-1.026,1.209a1.073,1.073,0,0,1-1.031-1.209m1.651,0c0-.533-.234-.849-.62-.849s-.62.323-.62.849.241.848.62.848.62-.316.62-.848m2.051-1.171h.488l-3.027,4.432h-.487Zm-.892,3.26a1.042,1.042,0,1,1,1.025,1.209,1.068,1.068,0,0,1-1.025-1.209m1.646,0c0-.525-.241-.848-.621-.848s-.62.317-.62.848.234.848.62.848.621-.323.621-.848" transform="translate(-104.781 -29.676)" fill="#263238"/><path d="M488.248,174.178H374.288a1.9,1.9,0,0,1,0-3.8h113.96a1.9,1.9,0,1,1,0,3.8" transform="translate(-72.385 -33.119)" fill="#e0e0e0"/><path d="M416.616,174.178H374.288a1.9,1.9,0,1,1,0-3.8h42.328a1.9,1.9,0,1,1,0,3.8" transform="translate(-72.385 -33.119)" fill="#455a64"/><path d="M532.412,172.7c0,.766-.545,1.38-1.677,1.38a2.538,2.538,0,0,1-1.627-.538l.292-.5a1.989,1.989,0,0,0,1.329.475c.671,0,1.051-.31,1.051-.791,0-.5-.317-.81-1.342-.81H529.43l.234-2.318h2.5v.551H530.2l-.12,1.216h.494c1.323,0,1.842.551,1.842,1.336" transform="translate(-102.848 -32.966)" fill="#263238"/><path d="M533.861,171.8c0-1.444.773-2.266,1.811-2.266s1.8.823,1.8,2.266-.773,2.266-1.8,2.266-1.811-.823-1.811-2.266m2.982,0c0-1.133-.481-1.7-1.171-1.7s-1.178.57-1.178,1.7.481,1.7,1.178,1.7,1.171-.57,1.171-1.7" transform="translate(-103.772 -32.954)" fill="#263238"/><path d="M539.017,170.757a1.072,1.072,0,0,1,1.031-1.209c.615,0,1.026.481,1.026,1.209s-.411,1.209-1.026,1.209a1.073,1.073,0,0,1-1.031-1.209m1.652,0c0-.532-.234-.848-.621-.848s-.619.322-.619.848.24.848.619.848.621-.316.621-.848m2.051-1.171h.487l-3.027,4.432h-.487Zm-.893,3.26a1.042,1.042,0,1,1,1.025,1.209,1.068,1.068,0,0,1-1.025-1.209m1.646,0c0-.525-.241-.848-.621-.848s-.62.317-.62.848.234.848.62.848.621-.323.621-.848" transform="translate(-104.775 -32.957)" fill="#263238"/><path d="M449.734,121.34H374.288a1.9,1.9,0,0,1,0-3.8h75.446a1.9,1.9,0,1,1,0,3.8" transform="translate(-72.385 -22.848)" fill="#fc8116"/><path d="M532.782,119.827a1.434,1.434,0,0,1-1.571,1.4c-1.19,0-1.861-.8-1.861-2.21a2.044,2.044,0,0,1,2.1-2.323,2.136,2.136,0,0,1,1.1.259l-.241.494a1.541,1.541,0,0,0-.848-.209c-.9,0-1.475.563-1.475,1.671a1.369,1.369,0,0,0,.006.159,1.472,1.472,0,0,1,1.272-.582,1.37,1.37,0,0,1,1.52,1.342m-.615.025c0-.519-.392-.854-1.013-.854a.919.919,0,0,0-1.02.86c0,.456.368.855,1.051.855a.877.877,0,0,0,.981-.861" transform="translate(-102.896 -22.683)" fill="#263238"/><path d="M534.2,118.96c0-1.444.773-2.266,1.811-2.266s1.8.823,1.8,2.266-.773,2.267-1.8,2.267-1.811-.823-1.811-2.267m2.982,0c0-1.134-.481-1.7-1.171-1.7s-1.178.57-1.178,1.7.481,1.7,1.178,1.7,1.171-.57,1.171-1.7" transform="translate(-103.838 -22.683)" fill="#263238"/><path d="M539.355,117.918a1.072,1.072,0,0,1,1.031-1.209c.615,0,1.026.481,1.026,1.209s-.411,1.209-1.026,1.209a1.073,1.073,0,0,1-1.031-1.209m1.652,0c0-.532-.234-.849-.621-.849s-.619.323-.619.849.24.848.619.848.621-.317.621-.848m2.051-1.171h.487l-3.027,4.432h-.487Zm-.893,3.26a1.042,1.042,0,1,1,1.025,1.209,1.068,1.068,0,0,1-1.025-1.209m1.646,0c0-.525-.241-.848-.621-.848s-.62.317-.62.848.234.848.62.848.621-.323.621-.848" transform="translate(-104.84 -22.686)" fill="#263238"/><path d="M482.843,206.3c0,.116-27.893.209-62.294.209s-62.3-.093-62.3-.209,27.887-.209,62.3-.209,62.294.093,62.294.209" transform="translate(-69.637 -40.059)" fill="#e0e0e0"/><path d="M482.843,215.466c0,.116-27.893.209-62.294.209s-62.3-.093-62.3-.209,27.887-.209,62.3-.209,62.294.093,62.294.209" transform="translate(-69.637 -41.842)" fill="#e0e0e0"/><path d="M482.843,223.759c0,.116-27.893.209-62.294.209s-62.3-.093-62.3-.209,27.887-.209,62.3-.209,62.294.093,62.294.209" transform="translate(-69.637 -43.454)" fill="#e0e0e0"/><path d="M164.348,306.522h0a2.239,2.239,0,0,1-2.239-2.24V262.271a2.239,2.239,0,1,1,4.478,0v42.011a2.239,2.239,0,0,1-2.239,2.24" transform="translate(-31.511 -50.545)" fill="#e0e0e0"/><path d="M164.348,310.369h0a2.239,2.239,0,0,1-2.239-2.24V281.046a2.239,2.239,0,0,1,4.478,0v27.083a2.239,2.239,0,0,1-2.239,2.24" transform="translate(-31.511 -54.195)" fill="#fc8116"/><path d="M162.834,320.16V323.9h-.384V320.5h-.88v-.342Z" transform="translate(-31.406 -62.233)" fill="#263238"/><path d="M164.243,322.021c0-1.191.624-1.9,1.489-1.9s1.494.709,1.494,1.9-.629,1.9-1.494,1.9-1.489-.71-1.489-1.9m2.588,0c0-1-.448-1.548-1.1-1.548s-1.1.549-1.1,1.548.449,1.547,1.1,1.547,1.1-.549,1.1-1.547" transform="translate(-31.926 -62.225)" fill="#263238"/><path d="M175.46,306.522h0a2.239,2.239,0,0,1-2.24-2.24V262.271a2.239,2.239,0,0,1,4.478,0v42.011a2.239,2.239,0,0,1-2.239,2.24" transform="translate(-33.671 -50.545)" fill="#e0e0e0"/><path d="M175.46,308.31h0a2.239,2.239,0,0,1-2.24-2.24V270.458a2.239,2.239,0,1,1,4.478,0v35.613a2.239,2.239,0,0,1-2.239,2.24" transform="translate(-33.671 -52.136)" fill="#fc8116"/><path d="M174.678,323.546v.342h-2.619v-.272l1.552-1.521c.421-.415.5-.666.5-.922,0-.432-.3-.7-.875-.7a1.271,1.271,0,0,0-1.019.416l-.272-.234a1.679,1.679,0,0,1,1.324-.534c.757,0,1.237.385,1.237,1.009a1.536,1.536,0,0,1-.614,1.168l-1.269,1.249Z" transform="translate(-33.423 -62.225)" fill="#263238"/><path d="M175.9,322.021c0-1.191.624-1.9,1.489-1.9s1.494.709,1.494,1.9-.63,1.9-1.494,1.9-1.489-.71-1.489-1.9m2.588,0c0-1-.448-1.548-1.1-1.548s-1.1.549-1.1,1.548.449,1.547,1.1,1.547,1.1-.549,1.1-1.547" transform="translate(-34.192 -62.225)" fill="#263238"/><path d="M186.571,306.522h0a2.239,2.239,0,0,1-2.239-2.24V262.271a2.239,2.239,0,1,1,4.478,0v42.011a2.239,2.239,0,0,1-2.239,2.24" transform="translate(-35.831 -50.545)" fill="#e0e0e0"/><path d="M186.571,311.912h0a2.239,2.239,0,0,1-2.239-2.24V288.987a2.239,2.239,0,1,1,4.478,0v20.686a2.239,2.239,0,0,1-2.239,2.24" transform="translate(-35.831 -55.738)" fill="#fc8116"/><path d="M185.738,322.823c0,.624-.454,1.1-1.355,1.1a1.939,1.939,0,0,1-1.345-.481l.187-.3a1.633,1.633,0,0,0,1.158.433c.619,0,.96-.288.96-.752,0-.449-.315-.742-1.009-.742h-.267V321.8l1.035-1.3h-1.91v-.342h2.4v.272l-1.056,1.328c.8.043,1.2.464,1.2,1.062" transform="translate(-35.579 -62.233)" fill="#263238"/><path d="M187.055,322.021c0-1.191.624-1.9,1.489-1.9s1.494.709,1.494,1.9-.63,1.9-1.494,1.9-1.489-.71-1.489-1.9m2.588,0c0-1-.448-1.548-1.1-1.548s-1.1.549-1.1,1.548.449,1.547,1.1,1.547,1.1-.549,1.1-1.547" transform="translate(-36.36 -62.225)" fill="#263238"/><path d="M197.682,306.522h0a2.239,2.239,0,0,1-2.239-2.24V262.271a2.239,2.239,0,1,1,4.478,0v42.011a2.239,2.239,0,0,1-2.239,2.24" transform="translate(-37.99 -50.545)" fill="#e0e0e0"/><path d="M197.682,308.31h0a2.239,2.239,0,0,1-2.239-2.24V270.458a2.239,2.239,0,1,1,4.478,0v35.613a2.239,2.239,0,0,1-2.239,2.24" transform="translate(-37.99 -52.136)" fill="#fc8116"/><path d="M197.465,322.913h-.747v.982h-.384v-.982h-2.107v-.277l1.979-2.476h.427l-1.91,2.411h1.622v-.864h.374v.864h.747Z" transform="translate(-37.754 -62.233)" fill="#263238"/><path d="M198.679,322.021c0-1.191.624-1.9,1.489-1.9s1.494.709,1.494,1.9-.63,1.9-1.494,1.9-1.489-.71-1.489-1.9m2.588,0c0-1-.448-1.548-1.1-1.548s-1.1.549-1.1,1.548.449,1.547,1.1,1.547,1.1-.549,1.1-1.547" transform="translate(-38.619 -62.225)" fill="#263238"/><path d="M208.794,306.522h0a2.239,2.239,0,0,1-2.239-2.24V262.271a2.239,2.239,0,0,1,4.478,0v42.011a2.239,2.239,0,0,1-2.239,2.24" transform="translate(-40.15 -50.545)" fill="#e0e0e0"/><path d="M208.794,309.957h0a2.239,2.239,0,0,1-2.239-2.24v-28.79a2.239,2.239,0,0,1,4.478,0v28.79a2.239,2.239,0,0,1-2.239,2.24" transform="translate(-40.15 -53.783)" fill="#fc8116"/><path d="M208.437,322.8c0,.635-.442,1.131-1.355,1.131a1.93,1.93,0,0,1-1.339-.48l.187-.3a1.618,1.618,0,0,0,1.147.432c.635,0,.971-.309.971-.763,0-.48-.3-.779-1.249-.779H206l.193-1.872h2.043v.341h-1.707l-.128,1.19h.48c1.125,0,1.552.443,1.552,1.1" transform="translate(-39.993 -62.233)" fill="#263238"/><path d="M209.686,322.021c0-1.191.624-1.9,1.489-1.9s1.494.709,1.494,1.9-.629,1.9-1.494,1.9-1.489-.71-1.489-1.9m2.588,0c0-1-.448-1.548-1.1-1.548s-1.1.549-1.1,1.548.449,1.547,1.1,1.547,1.1-.549,1.1-1.547" transform="translate(-40.759 -62.225)" fill="#263238"/><path d="M219.9,306.522h0a2.239,2.239,0,0,1-2.24-2.24V262.271a2.239,2.239,0,0,1,4.478,0v42.011a2.239,2.239,0,0,1-2.239,2.24" transform="translate(-42.31 -50.545)" fill="#e0e0e0"/><path d="M219.9,311.667h0a2.208,2.208,0,0,1-2.24-2.041V288.94a2.29,2.29,0,0,1,2.24-2.437,2.239,2.239,0,0,1,2.239,2.239v20.686a2.239,2.239,0,0,1-2.239,2.24" transform="translate(-42.31 -55.691)" fill="#fc8116"/><path d="M219.4,322.772a1.163,1.163,0,0,1-1.274,1.147c-.993,0-1.531-.688-1.531-1.867,0-1.27.694-1.932,1.707-1.932a1.724,1.724,0,0,1,.886.2l-.156.309a1.313,1.313,0,0,0-.725-.176c-.806,0-1.324.517-1.324,1.531,0,.085.006.192.016.3a1.193,1.193,0,0,1,1.142-.64,1.13,1.13,0,0,1,1.259,1.12m-.379.01c0-.491-.363-.806-.939-.806a.864.864,0,0,0-.96.817c0,.41.341.8.987.8a.817.817,0,0,0,.912-.811" transform="translate(-42.103 -62.225)" fill="#263238"/><path d="M220.627,322.021c0-1.191.624-1.9,1.489-1.9s1.494.709,1.494,1.9-.63,1.9-1.494,1.9-1.489-.71-1.489-1.9m2.588,0c0-1-.448-1.548-1.1-1.548s-1.1.549-1.1,1.548.449,1.547,1.1,1.547,1.1-.549,1.1-1.547" transform="translate(-42.886 -62.225)" fill="#263238"/><path d="M231.017,306.522h0a2.239,2.239,0,0,1-2.24-2.24V262.271a2.239,2.239,0,1,1,4.478,0v42.011a2.239,2.239,0,0,1-2.238,2.24" transform="translate(-44.47 -50.545)" fill="#e0e0e0"/><path d="M231.017,307.8h0a2.239,2.239,0,0,1-2.24-2.24V267.811a2.239,2.239,0,1,1,4.478,0v37.746a2.239,2.239,0,0,1-2.238,2.24" transform="translate(-44.47 -51.622)" fill="#fc8116"/><path d="M230.3,320.16v.272l-1.564,3.463h-.416l1.536-3.393h-1.921v.7h-.379v-1.04Z" transform="translate(-44.233 -62.233)" fill="#263238"/><path d="M231.458,322.021c0-1.191.624-1.9,1.489-1.9s1.494.709,1.494,1.9-.63,1.9-1.494,1.9-1.489-.71-1.489-1.9m2.588,0c0-1-.448-1.548-1.1-1.548s-1.1.549-1.1,1.548.449,1.547,1.1,1.547,1.1-.549,1.1-1.547" transform="translate(-44.991 -62.225)" fill="#263238"/><path d="M242.128,306.522h0a2.239,2.239,0,0,1-2.239-2.24V262.271a2.239,2.239,0,1,1,4.478,0v42.011a2.239,2.239,0,0,1-2.239,2.24" transform="translate(-46.63 -50.545)" fill="#e0e0e0"/><path d="M242.128,312.941h0a2.239,2.239,0,0,1-2.239-2.24v-16.42a2.239,2.239,0,1,1,4.478,0V310.7a2.239,2.239,0,0,1-2.239,2.24" transform="translate(-46.63 -56.767)" fill="#fc8116"/><path d="M241.417,322.847c0,.661-.56,1.073-1.451,1.073s-1.44-.412-1.44-1.073a.932.932,0,0,1,.72-.918.844.844,0,0,1-.587-.822c0-.609.518-.988,1.308-.988s1.318.379,1.318.988a.847.847,0,0,1-.6.822.94.94,0,0,1,.731.918m-.395-.006c0-.459-.395-.747-1.056-.747s-1.051.288-1.051.747.39.752,1.051.752,1.056-.288,1.056-.752m-1.056-1.051c.582,0,.928-.26.928-.666,0-.422-.368-.678-.928-.678s-.923.255-.923.672.342.672.923.672" transform="translate(-46.365 -62.225)" fill="#263238"/><path d="M242.774,322.021c0-1.191.624-1.9,1.489-1.9s1.494.709,1.494,1.9-.63,1.9-1.494,1.9-1.489-.71-1.489-1.9m2.588,0c0-1-.448-1.548-1.1-1.548s-1.1.549-1.1,1.548.449,1.547,1.1,1.547,1.1-.549,1.1-1.547" transform="translate(-47.191 -62.225)" fill="#263238"/><path d="M253.239,306.522h0a2.239,2.239,0,0,1-2.239-2.24V262.271a2.239,2.239,0,0,1,4.478,0v42.011a2.239,2.239,0,0,1-2.24,2.24" transform="translate(-48.79 -50.545)" fill="#e0e0e0"/><path d="M253.239,315.269h0A2.207,2.207,0,0,1,251,313.228V307.47a2.29,2.29,0,0,1,2.239-2.437,2.239,2.239,0,0,1,2.24,2.239v5.758a2.239,2.239,0,0,1-2.24,2.24" transform="translate(-48.79 -59.293)" fill="#fc8116"/><path d="M252.265,321.988c0,1.27-.694,1.931-1.707,1.931a1.713,1.713,0,0,1-.885-.2l.155-.309a1.316,1.316,0,0,0,.726.175c.806,0,1.323-.516,1.323-1.531,0-.085-.006-.192-.016-.3a1.192,1.192,0,0,1-1.142.64,1.131,1.131,0,0,1-1.259-1.121,1.163,1.163,0,0,1,1.275-1.146c.993,0,1.531.688,1.531,1.867m-.528-.742c0-.411-.342-.8-.987-.8a.817.817,0,0,0-.913.811c0,.491.363.806.939.806a.865.865,0,0,0,.96-.817" transform="translate(-48.49 -62.225)" fill="#263238"/><path d="M253.628,322.021c0-1.191.624-1.9,1.489-1.9s1.494.709,1.494,1.9-.63,1.9-1.494,1.9-1.489-.71-1.489-1.9m2.588,0c0-1-.448-1.548-1.1-1.548s-1.1.549-1.1,1.548.449,1.547,1.1,1.547,1.1-.549,1.1-1.547" transform="translate(-49.3 -62.225)" fill="#263238"/><path d="M264.351,306.522h0a2.239,2.239,0,0,1-2.24-2.24V262.271a2.24,2.24,0,0,1,4.479,0v42.011a2.239,2.239,0,0,1-2.24,2.24" transform="translate(-50.949 -50.545)" fill="#e0e0e0"/><path d="M264.351,311.667h0a2.208,2.208,0,0,1-2.24-2.041V288.94a2.29,2.29,0,0,1,2.24-2.437,2.239,2.239,0,0,1,2.24,2.239v20.686a2.239,2.239,0,0,1-2.24,2.24" transform="translate(-50.949 -55.691)" fill="#fc8116"/><path d="M260.6,320.16V323.9h-.384V320.5h-.88v-.342Z" transform="translate(-50.411 -62.233)" fill="#263238"/><path d="M262.012,322.021c0-1.191.624-1.9,1.489-1.9s1.494.709,1.494,1.9-.63,1.9-1.494,1.9-1.489-.71-1.489-1.9m2.588,0c0-1-.448-1.548-1.1-1.548s-1.1.549-1.1,1.548.449,1.547,1.1,1.547,1.1-.549,1.1-1.547" transform="translate(-50.93 -62.225)" fill="#263238"/><path d="M266.393,322.021c0-1.191.624-1.9,1.489-1.9s1.494.709,1.494,1.9-.63,1.9-1.494,1.9-1.489-.71-1.489-1.9m2.588,0c0-1-.448-1.548-1.1-1.548s-1.1.549-1.1,1.548.449,1.547,1.1,1.547,1.1-.549,1.1-1.547" transform="translate(-51.782 -62.225)" fill="#263238"/><path d="M287.864,313.736c-.116,0-.209-13.827-.209-30.879s.093-30.882.209-30.882.209,13.824.209,30.882-.093,30.879-.209,30.879" transform="translate(-55.915 -48.979)" fill="#e0e0e0"/><path d="M343.391,256.926c0,.116-8.525.209-19.038.209s-19.04-.093-19.04-.209,8.523-.209,19.04-.209,19.038.093,19.038.209" transform="translate(-59.347 -49.901)" fill="#263238"/></g><g clip-path="url(#a)"><path d="M103.1,312.006a37.678,37.678,0,1,1,4.03-.215,37.714,37.714,0,0,1-4.03.215m.089-69.69a32.557,32.557,0,0,0-3.465.185,31.921,31.921,0,1,0,3.465-.185" transform="translate(-12.725 -46.006)" fill="#455a64"/><path d="M172.2,361.942a2.815,2.815,0,0,1-2.148-.99l-35.612-41.793a2.82,2.82,0,1,1,4.292-3.658l35.613,41.793a2.82,2.82,0,0,1-2.145,4.648" transform="translate(-26.002 -61.135)" fill="#455a64"/></g><g clip-path="url(#a)"><path d="M604.971,362.439c5.8,2.025,13.36.215,18.319-3.406s8.527-8.81,11.691-14.073a20.9,20.9,0,0,0,3.094-7.173c.427-2.585-.2-5.494-2.206-7.181-3.116-2.622-7.891-1.292-11.43.723a39.415,39.415,0,0,0-19.468,31.111" transform="translate(-117.595 -63.98)" fill="#fc8116"/><path d="M612.7,385.477c3.481,4.594,9.464,6.638,15.221,6.9s11.447-1.325,16.828-3.39c1.953-.749,4.089-1.776,4.759-3.757a4.777,4.777,0,0,0-1.02-4.432,9.935,9.935,0,0,0-3.885-2.648,26.545,26.545,0,0,0-16.938-.917c-5.573,1.445-10.441,4.676-14.964,8.239" transform="translate(-119.097 -73.142)" fill="#fc8116"/><path d="M604.287,331.289c4.8.1,8.432-4.108,10.6-8.388a31.093,31.093,0,0,0,2.858-19.386c-.439-2.452-1.366-5.1-3.561-6.276-2.23-1.2-5.132-.409-7,1.3a14.391,14.391,0,0,0-3.641,6.562c-2.576,8.335-2.021,17.915.741,26.19" transform="translate(-116.995 -57.666)" fill="#fc8116"/><path d="M583.421,360.067c8.182-13.925,9.546-30.963,4.713-46.375-.784-2.5-2.263-5.361-4.878-5.527-2.9-.184-4.71,3.045-5.51,5.834-2.805,9.786-2.209,20.182-1.589,30.343.382,6.259,2.532,11.611,7.264,15.725" transform="translate(-111.893 -59.9)" fill="#fc8116"/><path d="M568.117,374.442a33.465,33.465,0,0,0-19.855-21.055c-2.173-.819-4.935-1.285-6.556.378-1.589,1.631-1.1,4.357-.08,6.393,1.647,3.289,4.322,5.932,6.986,8.468,2.423,2.306,4.942,4.622,8.008,5.962s8.694,1.681,11.5-.146" transform="translate(-105.098 -68.547)" fill="#fc8116"/><path d="M628.642,335.293c0,.006-.044.048-.143.127l-.441.342-1.715,1.283-1.245.918c-.447.346-.914.746-1.426,1.162-1.013.847-2.211,1.757-3.415,2.9l-1.929,1.753c-.667.613-1.31,1.305-2,1.991-1.408,1.354-2.772,2.934-4.239,4.566a90.142,90.142,0,0,0-14.956,24.2c-.8,2.042-1.608,3.969-2.19,5.834-.3.928-.635,1.812-.885,2.683s-.481,1.71-.706,2.509c-.487,1.59-.765,3.068-1.07,4.352-.143.645-.292,1.241-.4,1.795s-.185,1.063-.265,1.523q-.242,1.338-.38,2.107c-.044.222-.08.4-.109.547a.735.735,0,0,1-.05.184.692.692,0,0,1,.01-.19c.019-.147.043-.329.071-.553q.112-.773.309-2.121.105-.695.233-1.532c.1-.557.238-1.158.371-1.805.285-1.292.546-2.779,1.017-4.378q.327-1.207.684-2.525c.243-.876.569-1.766.867-2.7.57-1.876,1.366-3.815,2.165-5.869A88.159,88.159,0,0,1,611.818,350.1c1.48-1.632,2.858-3.21,4.281-4.56.7-.683,1.352-1.373,2.027-1.982l1.952-1.74c1.22-1.137,2.433-2.035,3.461-2.868.52-.408.995-.8,1.449-1.139l1.266-.893,1.76-1.225.462-.31a.68.68,0,0,1,.165-.1" transform="translate(-114.893 -65.174)" fill="#263238"/><path d="M639.56,382.841a3.219,3.219,0,0,1-.562-.093c-.367-.066-.9-.208-1.594-.323a44.867,44.867,0,0,0-5.924-.725,43.23,43.23,0,0,0-35.1,14.605,44.979,44.979,0,0,0-3.661,4.713c-.408.576-.682,1.051-.893,1.357a3.205,3.205,0,0,1-.329.465,3.1,3.1,0,0,1,.263-.5c.191-.32.444-.81.835-1.4a39.886,39.886,0,0,1,3.581-4.81,42.533,42.533,0,0,1,35.321-14.7,39.882,39.882,0,0,1,5.937.849c.694.139,1.221.3,1.582.395a3.114,3.114,0,0,1,.543.169" transform="translate(-114.976 -74.121)" fill="#263238"/><path d="M609.259,304.279a.9.9,0,0,1-.031.216c-.034.163-.077.368-.13.626-.129.575-.309,1.378-.538,2.4-.471,2.081-1.19,5.083-2.094,8.789-1.8,7.413-4.422,17.621-7.151,28.933-1.356,5.66-2.584,11.066-3.642,16-1.038,4.934-1.923,9.387-2.582,13.142-.353,1.874-.619,3.578-.87,5.071s-.456,2.782-.61,3.836c-.16,1.033-.287,1.845-.378,2.427-.044.259-.08.466-.107.63a.954.954,0,0,1-.05.213.86.86,0,0,1,.01-.218c.018-.164.041-.374.07-.635.073-.585.176-1.4.305-2.438.131-1.059.308-2.352.545-3.849s.479-3.206.815-5.084c.624-3.765,1.483-8.227,2.5-13.169,1.039-4.938,2.258-10.35,3.614-16.012,2.73-11.317,5.392-21.513,7.262-28.909l2.212-8.758.608-2.38c.069-.254.124-.457.168-.617a.885.885,0,0,1,.07-.207" transform="translate(-114.893 -59.146)" fill="#263238"/><path d="M588.959,388.719a.606.606,0,0,1-.052-.168c-.031-.136-.068-.3-.114-.5q-.149-.712-.4-1.938c-.346-1.685-.806-4.13-1.33-7.16-1.049-6.058-2.294-14.472-3.058-23.83-.371-4.681-.577-9.15-.668-13.217-.067-4.067-.031-7.732.1-10.8.038-1.537.139-2.925.206-4.145s.148-2.269.227-3.125q.116-1.247.182-1.972c.023-.205.042-.374.057-.512a.632.632,0,0,1,.032-.173.579.579,0,0,1,.007.176c0,.139-.011.308-.019.515q-.04.726-.11,1.976c-.056.857-.119,1.906-.162,3.126s-.128,2.606-.148,4.142c-.092,3.07-.1,6.729-.012,10.789.11,4.06.326,8.52.7,13.194.764,9.342,1.963,17.751,2.943,23.817.49,3.033.908,5.485,1.209,7.177.139.822.25,1.473.331,1.951.031.2.056.372.077.51a.624.624,0,0,1,.013.176" transform="translate(-113.382 -62.429)" fill="#263238"/><path d="M583.111,397.985a2.709,2.709,0,0,1-.213-.481q-.207-.534-.539-1.4l-.384-1.013-.526-1.177q-.282-.637-.6-1.353c-.211-.479-.485-.963-.744-1.483l-.835-1.623-.995-1.71c-.657-1.2-1.506-2.394-2.327-3.695a87.483,87.483,0,0,0-6.163-7.876,97.038,97.038,0,0,0-7.073-7.08c-1.176-.992-2.253-1.983-3.341-2.815l-1.549-1.234-1.47-1.084c-.927-.7-1.8-1.293-2.569-1.808s-1.426-.966-1.984-1.3l-1.268-.8a2.67,2.67,0,0,1-.429-.3,2.7,2.7,0,0,1,.468.236l1.307.743c.572.316,1.25.738,2.024,1.249s1.669,1.074,2.61,1.767l1.49,1.068,1.568,1.221c1.1.824,2.19,1.811,3.378,2.8a91.86,91.86,0,0,1,7.125,7.089,83.314,83.314,0,0,1,6.169,7.933c.817,1.312,1.66,2.518,2.309,3.732l.98,1.731.818,1.643c.252.527.52,1.016.723,1.5l.576,1.372.5,1.193q.192.559.354,1.029c.2.59.352,1.065.472,1.428a2.617,2.617,0,0,1,.139.505" transform="translate(-106.929 -69.927)" fill="#263238"/><path d="M629.78,355.312c0,.061-.992.061-2.584.15a46.288,46.288,0,0,0-12.2,2.317c-1.515.5-2.435.864-2.46.808a2.43,2.43,0,0,1,.615-.333c.4-.195,1-.447,1.754-.732a36.769,36.769,0,0,1,12.279-2.332c.8-.01,1.453,0,1.9.038a2.433,2.433,0,0,1,.694.085" transform="translate(-119.066 -69.041)" fill="#263238"/><path d="M639.628,390.637a18.78,18.78,0,0,0-8.186-8.815,5.746,5.746,0,0,1,1.663.736,14.7,14.7,0,0,1,5.912,6.367,5.739,5.739,0,0,1,.611,1.713" transform="translate(-122.74 -74.218)" fill="#263238"/><path d="M614.029,318.312c.078.083-1.429,1.577-3.073,3.6s-2.812,3.794-2.909,3.734a23.031,23.031,0,0,1,5.982-7.333" transform="translate(-118.192 -61.873)" fill="#263238"/><path d="M609.33,307.715a28.484,28.484,0,0,1,1.11,6.524,28.362,28.362,0,0,1-1.11-6.524" transform="translate(-118.436 -59.814)" fill="#263238"/><path d="M589.1,340.97a80.709,80.709,0,0,1-5.133,9.9,80.845,80.845,0,0,1,5.133-9.9" transform="translate(-113.51 -66.278)" fill="#263238"/><path d="M579.026,329.68a45.063,45.063,0,0,1,3.715,7.464,45.132,45.132,0,0,1-3.715-7.464" transform="translate(-112.55 -64.083)" fill="#263238"/><path d="M560.632,368.1c-.026.11-1.65-.205-3.675-.344s-3.678-.065-3.687-.178a14.747,14.747,0,0,1,7.363.522" transform="translate(-107.545 -71.402)" fill="#263238"/><path d="M573.759,402.428l4.555,23.956a3.358,3.358,0,0,0,3.3,2.73H595.07a3.358,3.358,0,0,0,3.313-2.808l3.96-23.878Z" transform="translate(-111.528 -78.224)" fill="#263238"/><path d="M575.239,410.214h25.735l1.368-7.785H573.759Z" transform="translate(-111.528 -78.224)" fill="#455a64"/><path d="M575.6,412.093l.54,2.839h24.8l.394-2.839Z" transform="translate(-111.885 -80.103)" fill="#fafafa"/></g><g clip-path="url(#a)"><path d="M467.122,407.186l.408,14.645s15.022,4.5,15.362,7.2l-28.367,1.811-1.573-22.791Z" transform="translate(-88.045 -79.149)" fill="#fc8116"/><path d="M459.88,424.518a1.161,1.161,0,0,0-.717,1.373,1.117,1.117,0,0,0,1.355.723,1.226,1.226,0,0,0,.752-1.458,1.159,1.159,0,0,0-1.493-.6" transform="translate(-89.245 -82.505)" fill="#e0e0e0"/><g transform="translate(366.412 348.516)" opacity="0.6"><g clip-path="url(#l)"><path d="M454.888,435.786l-.068-2.3,27.223-.876s1.3.469,1.212,1.367Z" transform="translate(-454.82 -432.607)" fill="#fff"/></g></g><path d="M471.007,425.123c0,.139-.684.246-1.337.735-.666.472-.979,1.094-1.11,1.047-.129-.019.024-.86.826-1.438s1.643-.473,1.622-.344" transform="translate(-91.071 -82.616)" fill="#263238"/><path d="M474.971,426.428c.04.132-.545.406-.978,1.022-.45.6-.529,1.244-.667,1.246-.129.031-.276-.775.276-1.53s1.357-.871,1.369-.739" transform="translate(-91.982 -82.88)" fill="#263238"/><path d="M477.728,430.133c-.124.038-.361-.642-.054-1.424s.936-1.125,1-1.013c.085.109-.309.543-.552,1.188s-.259,1.225-.4,1.248" transform="translate(-92.821 -83.132)" fill="#263238"/><path d="M470.323,420.918c-.05.13-.7-.021-1.478.082-.781.088-1.374.389-1.453.276-.087-.1.475-.646,1.4-.755s1.6.284,1.535.4" transform="translate(-90.85 -81.737)" fill="#263238"/><path d="M469.8,416.856a2.666,2.666,0,0,1-1.421.084,6.474,6.474,0,0,1-1.515-.362,6.781,6.781,0,0,1-.843-.381,1.749,1.749,0,0,1-.45-.307.6.6,0,0,1-.11-.732.764.764,0,0,1,.586-.356,1.86,1.86,0,0,1,.537.039,5.139,5.139,0,0,1,.9.247,5.024,5.024,0,0,1,1.365.776c.7.567.955,1.071.909,1.1-.06.05-.408-.363-1.109-.824a5.7,5.7,0,0,0-1.313-.632,5.226,5.226,0,0,0-.831-.2c-.305-.06-.562-.045-.63.093-.024.052-.027.073.042.157a1.426,1.426,0,0,0,.33.223,7.427,7.427,0,0,0,.778.381,7.9,7.9,0,0,0,1.407.439,9.866,9.866,0,0,1,1.367.254" transform="translate(-90.46 -80.628)" fill="#263238"/><path d="M470.535,416.509a2.269,2.269,0,0,1-.462-1.348,4.623,4.623,0,0,1,.094-1.568,4.674,4.674,0,0,1,.307-.886,1.176,1.176,0,0,1,.86-.775.664.664,0,0,1,.619.358,1.891,1.891,0,0,1,.179.512,3.163,3.163,0,0,1,.062.956,3.271,3.271,0,0,1-.512,1.507c-.508.77-1.075.973-1.09.926-.05-.066.416-.364.794-1.1a3.282,3.282,0,0,0,.364-1.364,2.932,2.932,0,0,0-.078-.819c-.064-.3-.193-.534-.3-.5-.141.006-.367.249-.467.5a4.775,4.775,0,0,0-.3.793,5.123,5.123,0,0,0-.185,1.435c.014.835.2,1.345.122,1.37" transform="translate(-91.368 -80.071)" fill="#263238"/><path d="M394.219,406.393l-1.709,18.815L386.867,439.7a1.936,1.936,0,0,0,2.972,2.245c3.178-2.421,14.823-11.384,14.871-12.768.055-1.6,3.12-19.727,3.12-19.727Z" transform="translate(-75.174 -78.995)" fill="#fc8116"/><g transform="translate(312.919 348.916)" opacity="0.6"><g clip-path="url(#m)"><path d="M388.421,447.441,405.182,433.1l-.09.8a2.918,2.918,0,0,1-.9,1.8c-1.352,1.265-5.16,4.676-13.968,11.448a1.933,1.933,0,0,1-1.8.3" transform="translate(-388.421 -433.103)" fill="#fff"/></g></g><g transform="translate(325.925 342.295)" opacity="0.6"><g clip-path="url(#n)"><path d="M405.158,425.011a1.171,1.171,0,0,0-.492,1.483,1.126,1.126,0,0,0,1.466.5,1.235,1.235,0,0,0,.512-1.573,1.167,1.167,0,0,0-1.583-.35" transform="translate(-404.565 -424.885)" fill="#fff"/></g></g><path d="M394.04,440.728c-.112.039-.424-.992-1.48-1.647a5.905,5.905,0,0,0-2.114-.66c-.01-.048.243-.167.69-.179a3.088,3.088,0,0,1,2.779,1.784c.176.411.173.692.125.7" transform="translate(-75.895 -85.186)" fill="#263238"/><path d="M392.077,443.866c-.1.071-.632-.608-1.572-1a15.845,15.845,0,0,0-1.806-.446,2.151,2.151,0,0,1,1.971.064c1.067.45,1.511,1.339,1.407,1.378" transform="translate(-75.555 -85.962)" fill="#263238"/><path d="M397.238,437.02a9.951,9.951,0,0,0-5.031-2.668,5.294,5.294,0,0,1,5.031,2.668" transform="translate(-76.238 -84.416)" fill="#263238"/><path d="M398.514,430.363c-.063.106-1.051-.445-2.394-.647-1.341-.222-2.451,0-2.477-.122a4.805,4.805,0,0,1,4.872.769" transform="translate(-76.516 -83.435)" fill="#263238"/><path d="M399.271,423.514a6.148,6.148,0,0,0-5.035-.4c-.026-.043.205-.255.667-.455a4.216,4.216,0,0,1,3.781.3c.425.271.62.517.587.555" transform="translate(-76.631 -82.096)" fill="#263238"/><path d="M396.949,420.739a1.617,1.617,0,0,1,.056-.713,4.951,4.951,0,0,1,.776-1.795,2.2,2.2,0,0,1,1.057-.938.778.778,0,0,1,.852.271,1.266,1.266,0,0,1,.2.881,2.737,2.737,0,0,1-2.669,2.244,3.174,3.174,0,0,1-2.91-2,1.1,1.1,0,0,1,.052-.917.763.763,0,0,1,.839-.311,2.716,2.716,0,0,1,1.163.784,5.562,5.562,0,0,1,1.115,1.6,1.693,1.693,0,0,1,.214.682,8.813,8.813,0,0,0-1.533-2.074,2.529,2.529,0,0,0-1.03-.659.408.408,0,0,0-.458.167.755.755,0,0,0,0,.6,2.833,2.833,0,0,0,2.543,1.707,2.375,2.375,0,0,0,2.293-1.872.917.917,0,0,0-.114-.621.422.422,0,0,0-.468-.156,1.993,1.993,0,0,0-.91.777,7.347,7.347,0,0,0-1.069,2.336" transform="translate(-76.632 -81.107)" fill="#263238"/><path d="M390.438,239.511l-1.12,146.732,20.634,1.318,4.345-122.57L439.028,386.87l18.756-1.975-19.95-145.408Z" transform="translate(-75.676 -46.552)" fill="#263238"/><path d="M418.451,91.622a12.505,12.505,0,0,0-13.457,11.709c-.35,5.808-.667,12.09-.628,15.254.084,6.793,6.878,7.849,6.878,7.849s-.166,2.012-.354,4.51a8.946,8.946,0,1,0,17.857,1.075l1.229-27.366a12.508,12.508,0,0,0-11.525-13.032" transform="translate(-78.6 -17.802)" fill="#b78876"/><path d="M412.885,134.115a15.8,15.8,0,0,0,8.855-2.517s-2.093,4.888-8.871,4.276Z" transform="translate(-80.254 -25.58)" fill="#aa6550"/><path d="M435.315,110.653c.116-.05,4.667-1.381,4.519,3.264s-4.78,3.537-4.784,3.4.265-6.667.265-6.667" transform="translate(-84.565 -21.467)" fill="#b78876"/><path d="M436.879,115.973c.021-.014.079.059.213.126a.809.809,0,0,0,.6.031,2,2,0,0,0,.984-1.766,2.661,2.661,0,0,0-.189-1.166.933.933,0,0,0-.589-.64.412.412,0,0,0-.484.206c-.066.128-.039.222-.064.229s-.1-.081-.054-.271a.513.513,0,0,1,.193-.285.61.61,0,0,1,.451-.1,1.139,1.139,0,0,1,.822.747,2.756,2.756,0,0,1,.239,1.3,2.1,2.1,0,0,1-1.245,1.968.87.87,0,0,1-.736-.147c-.14-.119-.161-.224-.145-.232" transform="translate(-84.92 -21.834)" fill="#aa6550"/><path d="M407.286,111.315a.97.97,0,0,0,.935.979.928.928,0,0,0,1-.875.97.97,0,0,0-.934-.98.929.929,0,0,0-1,.876" transform="translate(-79.168 -21.467)" fill="#263238"/><path d="M407.315,108.923c.12.126.855-.417,1.9-.415s1.809.525,1.922.4c.056-.056-.067-.285-.4-.528a2.661,2.661,0,0,0-1.539-.475,2.559,2.559,0,0,0-1.511.488c-.321.246-.43.475-.371.532" transform="translate(-79.171 -20.974)" fill="#263238"/><path d="M420.023,111.316a.971.971,0,0,0,.935.979.928.928,0,0,0,1-.875.969.969,0,0,0-.935-.979.928.928,0,0,0-1,.875" transform="translate(-81.644 -21.467)" fill="#263238"/><path d="M420.051,109.165c.12.126.856-.417,1.9-.414,1.042-.013,1.809.524,1.921.4.056-.056-.065-.284-.4-.528a2.664,2.664,0,0,0-1.539-.475,2.559,2.559,0,0,0-1.511.488c-.32.247-.429.475-.371.532" transform="translate(-81.647 -21.021)" fill="#263238"/><path d="M414.711,116.921a6.888,6.888,0,0,0-1.7-.306c-.266-.027-.519-.081-.563-.262a1.354,1.354,0,0,1,.178-.79q.376-.968.788-2.029a34.986,34.986,0,0,0,1.771-5.31A35,35,0,0,0,413,113.378c-.263.713-.516,1.392-.756,2.042a1.542,1.542,0,0,0-.138,1.046.67.67,0,0,0,.438.39,1.8,1.8,0,0,0,.453.063,6.762,6.762,0,0,0,1.718,0" transform="translate(-80.095 -21.037)" fill="#263238"/><path d="M418.363,119.916c-.17-.01-.172,1.123-1.142,1.927s-2.176.68-2.185.839c-.016.071.269.22.778.234a2.821,2.821,0,0,0,1.824-.636,2.455,2.455,0,0,0,.885-1.616c.043-.474-.083-.754-.16-.748" transform="translate(-80.675 -23.309)" fill="#263238"/><path d="M419.72,104.144c.1.284,1.146.149,2.369.3,1.229.123,2.215.482,2.378.227.073-.122-.1-.388-.5-.664a4.157,4.157,0,0,0-3.617-.4c-.45.181-.676.4-.632.539" transform="translate(-81.584 -20.092)" fill="#263238"/><path d="M407.789,105.158c.184.237.9-.009,1.767-.02.864-.043,1.6.159,1.765-.089.074-.12-.041-.358-.362-.582a2.558,2.558,0,0,0-2.846.089c-.305.243-.406.487-.325.6" transform="translate(-79.261 -20.23)" fill="#263238"/><path d="M431.206,106.693a7.893,7.893,0,0,1-.115,2.229,2.433,2.433,0,0,1-1.186,1.7c-1.167.582-2.631-.31-3.153-1.5a7.807,7.807,0,0,1-.258-3.858,18.81,18.81,0,0,0-.08-5.314,7.622,7.622,0,0,0-2.551-4.557,4.836,4.836,0,0,0-5-.722,27.305,27.305,0,0,0-2.645,1.95,4.074,4.074,0,0,1-2.807.707,2.637,2.637,0,0,1-2.151-1.792,2.873,2.873,0,0,1,1.1-2.85,6.572,6.572,0,0,1,2.968-1.187,15.916,15.916,0,0,1,8.813.686,11.5,11.5,0,0,1,6.4,5.95c1.35,3.178,1.175,5.119.784,8.569" transform="translate(-79.926 -17.721)" fill="#263238"/><path d="M318.4,154.594l9.906,2,13.623,8.677-4.645,8.845s-4.79-1.337-6.189-2.572a5.67,5.67,0,0,0-2.947-1.374s.094,2.189-1.565,1.81-4.426-.848-3.956-3.182a1.8,1.8,0,0,1-1.165-1.969s-1.367-.1-1-2.369,2.008-5.192,6.526-4.37c.234.048.545-.4.135-.553l-6.986-1.648s-4.374-1.728-1.742-3.289" transform="translate(-61.727 -30.05)" fill="#b78876"/><path d="M324.193,166.7a6.951,6.951,0,0,1,1.659.4,14.6,14.6,0,0,1,1.777.6,1.508,1.508,0,0,1,.8.918,1.228,1.228,0,0,1-.475,1.242,2.939,2.939,0,0,1-2.335.306,14.745,14.745,0,0,1-1.825-.375,4.636,4.636,0,0,1-1.59-.643,13.854,13.854,0,0,1,1.66.354c.51.1,1.121.2,1.807.28a6.4,6.4,0,0,0,1.048.074,1.736,1.736,0,0,0,.972-.323.823.823,0,0,0,.34-.816,1.146,1.146,0,0,0-.587-.679c-.571-.286-1.212-.463-1.689-.661a6.962,6.962,0,0,1-1.564-.686" transform="translate(-62.631 -32.401)" fill="#aa6550"/><path d="M327.145,165.079c-.012.119-.605.134-1.183.511-.59.358-.858.887-.972.847-.114-.013.023-.75.748-1.2s1.445-.265,1.407-.155" transform="translate(-63.165 -32.062)" fill="#aa6550"/><path d="M327.976,170.5c.019-.018.1.011.229.134.151.126.18.427.214.674a1.321,1.321,0,0,1-.284,1.058,1.364,1.364,0,0,1-1.286.376,14.454,14.454,0,0,1-2.17-.437c-.546-.177-.848-.372-.827-.422s.358.037.9.135,1.31.181,2.149.309a1.025,1.025,0,0,0,.946-.218,1.092,1.092,0,0,0,.278-.773c0-.306.024-.485-.052-.606s-.119-.207-.1-.229" transform="translate(-62.95 -33.141)" fill="#aa6550"/><path d="M328.877,172.741c-.008-.051.18-.138.483-.052a1.78,1.78,0,0,1,.888.707,1.292,1.292,0,0,1,.105,1.166c-.1.271-.217.406-.268.387s-.039-.193-.022-.448a1.359,1.359,0,0,0-.158-.862,2.525,2.525,0,0,0-.663-.678c-.2-.129-.362-.158-.365-.221" transform="translate(-63.927 -33.56)" fill="#aa6550"/><path d="M335.958,166.354l-4.783-.2-5.021.98s-.413.912,1.911,1.533a11.193,11.193,0,0,0,4.474.213s2.071,3.019,4.764,3.716" transform="translate(-63.393 -32.298)" fill="#b78876"/><path d="M337.253,172.556a1.312,1.312,0,0,1-.443-.079,5.65,5.65,0,0,1-1.166-.5,10.916,10.916,0,0,1-3.307-3.033l.187.077a10.488,10.488,0,0,1-5.5-.516,2.673,2.673,0,0,1-.794-.5.948.948,0,0,1-.313-.995l.032-.1.117-.023,5.028-.942.022,0,.018,0c1.453.079,2.648.153,3.479.217a6.513,6.513,0,0,1,1.3.15,6.448,6.448,0,0,1-1.305.043c-.833-.006-2.03-.03-3.485-.071l.039,0-5.013,1.017.149-.118a.591.591,0,0,0,.227.524,2.3,2.3,0,0,0,.673.419,10.527,10.527,0,0,0,5.262.537l.12-.017.067.093a11.677,11.677,0,0,0,3.114,3.055,15.792,15.792,0,0,0,1.5.765" transform="translate(-63.343 -32.257)" fill="#aa6550"/><path d="M330.8,162.534c-.061.094-.522-.114-.868-.607s-.394-.993-.284-1.02.321.354.627.777.6.752.526.849" transform="translate(-64.066 -31.277)" fill="#aa6550"/><path d="M396.234,221.167c8.225,3.551,17.847,4.608,28.707,3.457l7.955-81.011-5.639-4.33-13,9.659-4.453-9.308-10.433,14.989Z" transform="translate(-77.02 -27.074)" fill="#f5f5f5"/><path d="M412.995,227.4a.7.7,0,0,1-.045-.193c-.024-.153-.053-.341-.09-.571q-.112-.81-.307-2.209c-.081-.964-.142-2.146-.229-3.518-.071-1.373-.067-2.937-.1-4.667-.048-6.919.414-16.465,1.184-26.983s1.725-20.027,2.492-26.9c.381-3.435.73-6.211.993-8.125.126-.959.248-1.7.33-2.2.04-.23.073-.417.1-.57a.71.71,0,0,1,.048-.193.719.719,0,0,1-.006.2c-.016.155-.035.343-.059.576q-.092.808-.251,2.21c-.208,1.958-.5,4.728-.861,8.137-.691,6.875-1.6,16.379-2.368,26.9s-1.279,20.046-1.306,26.952c.019,1.726-.006,3.289.043,4.658s.114,2.537.157,3.513q.144,1.4.228,2.21c.02.233.035.422.049.578a.7.7,0,0,1,0,.2" transform="translate(-80.127 -29.404)" fill="#263238"/><path d="M425.911,237s-6.057-63.327-2.3-70.4c2.909-5.477,7.408-16.916,9.292-21.8a5.886,5.886,0,0,0-.116-4.516l-.448-1,5.64,4.33,11.578,6.223-6.989,53.651,7.915,27.219Z" transform="translate(-82.103 -27.074)" fill="#fc8116"/><g transform="translate(341.652 182.531)" opacity="0.3"><g clip-path="url(#o)"><path d="M424.681,235.635c4.924-1.029,2.8,1.831,7.775,1.106,2.69-.392,2.826-1.964,5.04-3.541a15.3,15.3,0,0,1,8.286-2.836l-1.1-3.793-20.593.766Z" transform="translate(-424.086 -226.572)"/></g></g><path d="M389.114,153.121l2.006,50.59-4.06,28.316,10.143,3.749,4.435-78.243a21.076,21.076,0,0,1,1.914-8.42l3.974-8.671-13.458,4.583Z" transform="translate(-75.237 -27.299)" fill="#fc8116"/><path d="M450.831,152.382s6.352,5.5,7.782,12.881c1.042,5.388,4.108,24.293,4.961,34a11.458,11.458,0,0,1-9.695,12.359l-.274.039c-9.211,1.257-24.674-.481-24.674-.481l2.7-11.764s13.677-1.975,16.133-3.627L444.5,173.967s2.678-20.957,6.331-21.585" transform="translate(-83.376 -29.62)" fill="#fc8116"/><path d="M347.431,161.585l22.395,14.187s8.065-23.7,13.248-29.269l6.238-2.123-5.689,45.471a9.242,9.242,0,0,1-14.939,5.661l-27.4-22.221Z" transform="translate(-66.339 -28.065)" fill="#fc8116"/><path d="M456.357,213.626a9.647,9.647,0,0,1-.136-1.32,8.047,8.047,0,0,0-3.036-5.318c-.638-.5-1.1-.725-1.067-.789a2.819,2.819,0,0,1,1.24.547,7.1,7.1,0,0,1,3.16,5.534,2.821,2.821,0,0,1-.16,1.345" transform="translate(-87.883 -40.08)" fill="#263238"/><path d="M453.959,215.136a13.045,13.045,0,0,0-1.82-9.173,3.469,3.469,0,0,1,.91,1.109,9.845,9.845,0,0,1,1.327,6.691,3.487,3.487,0,0,1-.417,1.372" transform="translate(-87.886 -40.035)" fill="#263238"/><path d="M452.729,155.133a17.739,17.739,0,0,0-2.444,2.431A15.62,15.62,0,0,0,447.3,165.2a32.21,32.21,0,0,0,.3,8.321c.151.993.277,1.834.38,2.516a4.07,4.07,0,0,1,.1.932,4.016,4.016,0,0,1-.258-.9c-.138-.587-.321-1.439-.512-2.5a28.859,28.859,0,0,1-.419-8.419,15.068,15.068,0,0,1,3.173-7.773,10.075,10.075,0,0,1,1.868-1.762,3.283,3.283,0,0,1,.807-.483" transform="translate(-86.836 -30.155)" fill="#263238"/><g transform="translate(364.557 165.982)" opacity="0.3"><g clip-path="url(#p)"><path d="M452.518,206.03a7.437,7.437,0,0,1,1.635,4.516,13.9,13.9,0,0,1-.78,4.8,1.048,1.048,0,0,0-.022.877.7.7,0,0,0,1.019.035,2.026,2.026,0,0,0,.505-1.024c-.193.218.087.588.378.569a.953.953,0,0,0,.668-.51,5.277,5.277,0,0,0,.19-4.793,13.64,13.64,0,0,0-2.9-4.022" transform="translate(-452.518 -206.03)"/></g></g><path d="M381.282,192.2a24.529,24.529,0,0,1-4.56-8.929c.116-.042.931,2.052,2.192,4.51s2.47,4.35,2.368,4.42" transform="translate(-73.226 -35.624)" fill="#263238"/><path d="M378,193.874a5.713,5.713,0,0,1-.562-1.515,38.344,38.344,0,0,1-.893-3.786,37.6,37.6,0,0,1-.511-3.856,5.639,5.639,0,0,1-.014-1.615c.122-.01.389,2.428.938,5.4s1.16,5.342,1.043,5.377" transform="translate(-73.083 -35.591)" fill="#263238"/><path d="M392.048,164.081c.116,0,.209,9.9.209,22.112s-.093,22.113-.209,22.113-.209-9.9-.209-22.113.093-22.112.209-22.112" transform="translate(-76.166 -31.894)" fill="#263238"/><path d="M407,141.612a2.15,2.15,0,0,1-.267.392l-.8,1.095a49.046,49.046,0,0,0-2.709,4.207,25.7,25.7,0,0,0-2.87,6.829c-.25,1.351-.411,2.858-.637,4.386-.669,1.61.917,2.659,2.21,3.533l.324.219-.36.153a6.653,6.653,0,0,0-1.31.838c-.578.449-1.134.927-1.635,1.386l.066-.168c.253,3.2.8,6.225,1.166,8.964.384,2.726.729,5.175,1.02,7.244.27,2.015.49,3.656.649,4.848.064.537.114.972.155,1.314a2.11,2.11,0,0,1,.027.461,2,2,0,0,1-.107-.449c-.06-.34-.135-.771-.23-1.3-.191-1.187-.454-2.822-.777-4.83-.317-2.065-.692-4.509-1.111-7.23-.385-2.742-.948-5.739-1.21-8.987l-.008-.1.074-.068c.513-.47,1.07-.952,1.664-1.412a6.932,6.932,0,0,1,1.414-.9l-.036.372a8.937,8.937,0,0,1-1.929-1.575,2.291,2.291,0,0,1-.583-1.154,1.4,1.4,0,0,1,0-.348l.041-.289.083-.575c.234-1.529.4-2.985.669-4.412a19.322,19.322,0,0,1,1.351-3.807,32.673,32.673,0,0,1,1.641-3.086A40.776,40.776,0,0,1,405.8,143c.365-.466.657-.821.865-1.051a2.092,2.092,0,0,1,.331-.341" transform="translate(-77.476 -27.527)" fill="#263238"/><path d="M437.306,143.454a1.15,1.15,0,0,1,.11.338,8.09,8.09,0,0,1,.2,1,14.448,14.448,0,0,1-.011,3.74,35.216,35.216,0,0,1-1.209,5.406,43.967,43.967,0,0,1-2.3,6.376c-.877,1.979-1.814,3.825-2.671,5.518l-.043.085-.093.019-1.942.391.1-.3,1.254,1.488.081.1-.064.1-2.814,4.518-.8,1.237a2.065,2.065,0,0,1-.312.418,2,2,0,0,1,.225-.47l.722-1.287,2.688-4.593.017.2-1.277-1.469-.205-.237.309-.065,1.938-.412-.135.1c.842-1.7,1.768-3.545,2.639-5.511a46.659,46.659,0,0,0,2.312-6.316,38.142,38.142,0,0,0,1.286-5.336,16.112,16.112,0,0,0,.143-3.682c-.075-.87-.189-1.345-.147-1.354" transform="translate(-82.96 -27.885)" fill="#263238"/><g transform="translate(301.99 147.063)" opacity="0.3"><g clip-path="url(#q)"><path d="M379.954,191.69c-1-2.855-2.378-5.733-3.6-8.5l-1.016-.644a12.225,12.225,0,0,0,.383,7.829.821.821,0,0,0,.421.555.58.58,0,0,0,.681-.486,1.685,1.685,0,0,0-.171-.919,24.261,24.261,0,0,0,2.26,3.341.948.948,0,0,0,.484.381.665.665,0,0,0,.719-.564,1.908,1.908,0,0,0-.157-.994" transform="translate(-374.855 -182.547)"/></g></g><g transform="translate(319.214 132.511)" opacity="0.3"><g clip-path="url(#r)"><path d="M401.036,190.593c-1.932-5.467-3.876-10.983-4.64-16.73a9.842,9.842,0,0,1,.052-3.814,3.941,3.941,0,0,1,2.387-2.8,2.131,2.131,0,0,1-.033-2.759l2.357,2.5a2.93,2.93,0,0,0-2.6,2.211,8.58,8.58,0,0,0-.034,3.635l2.41,17.959" transform="translate(-396.234 -164.484)"/></g></g><g transform="translate(343.832 127.152)" opacity="0.3"><g clip-path="url(#s)"><path d="M432.686,170.118q1.756-6.144,3.511-12.286l-2.951,7.046a9.759,9.759,0,0,1-1.545,2.785,3.3,3.3,0,0,1-2.821,1.212l1.833,1.249c-1.315,2.116-2.605,4.439-3.921,6.555l2.826.238,3.1-4.924-.946-1.7.915-.177" transform="translate(-426.792 -157.832)"/></g></g><path d="M412.215,139.767l.151-1.966,3.64,5.139,1.161,5.553,2.977-5.553,10.268-5.967v5.222l-1.962,5.074-3.826,2.953-4.382,1.921-5.209-.973-3.148-1.782-.7-3.683Z" transform="translate(-79.926 -26.625)" fill="#f5f5f5"/><path d="M415.722,144.2a19.25,19.25,0,0,1-.533,1.872,15.145,15.145,0,0,0-.607,4.638l.037.794-.421-.666-.256-.406a36.308,36.308,0,0,1-2.027-4.681c-.491-1.194-.918-1.874-.864-1.911a5.867,5.867,0,0,1,1.134,1.789c.6,1.167,1.128,2.907,2.116,4.587l.246.39-.383.128a13.22,13.22,0,0,1,.75-4.747,6.26,6.26,0,0,1,.807-1.788" transform="translate(-79.9 -27.959)" fill="#263238"/><path d="M432.569,141.187c.014,0,.023.072.027.211a2.514,2.514,0,0,1-.063.607,4.719,4.719,0,0,1-1.089,1.945,12.938,12.938,0,0,1-2.513,2.126,34.483,34.483,0,0,0-3.2,2.352,31.273,31.273,0,0,1-2.9,2.135l-.375.231.079-.436a11.915,11.915,0,0,0,.088-2.634c-.043-.8-.111-1.511-.169-2.1a13.1,13.1,0,0,1-.154-1.868,8.82,8.82,0,0,1,.394,1.837c.092.585.191,1.293.26,2.105a11.4,11.4,0,0,1-.033,2.732l-.3-.2a35.505,35.505,0,0,0,2.844-2.129,30.471,30.471,0,0,1,3.247-2.344,13.877,13.877,0,0,0,2.508-2,5.046,5.046,0,0,0,1.152-1.79c.151-.483.15-.775.193-.773" transform="translate(-82.085 -27.444)" fill="#263238"/><path d="M446.214,220.357a1.269,1.269,0,0,1-.328.044l-.955.06c-.835.043-2.054.085-3.595.113s-3.4.037-5.516.014c-1.058-.012-2.179-.033-3.356-.071l-1.808-.077-.934-.064-.479-.05c-.082-.013-.16-.02-.248-.039a.932.932,0,0,1-.135-.031l-.079-.027a.307.307,0,0,1-.159-.181l0-.046.006-.028c.7-3.18,1.476-6.667,2.285-10.322.153-.686.3-1.367.454-2.036l.031-.141.143-.021c6.3-.924,12.04-1.868,16.1-3.563l-.093.167c-.392-2.819-.712-5.121-.942-6.769-.1-.768-.175-1.382-.234-1.847a3.577,3.577,0,0,1-.052-.649,3.427,3.427,0,0,1,.141.636q.12.692.317,1.834l1.078,6.748.019.118-.111.048c-4.1,1.776-9.859,2.757-16.165,3.691l.174-.161-.454,2.037c-.82,3.653-1.6,7.137-2.315,10.315l-.172-.045c5.038.228,9.44.321,12.5.325l3.593,0h.955a1.291,1.291,0,0,1,.33.021" transform="translate(-83.315 -37.864)" fill="#263238"/><path d="M444.051,187.516l-6.969,16.909-10.26,1.821L424.067,218.6l6.779.393-.05.451-26.6.758,11.254-32.687Z" transform="translate(-78.568 -36.449)" fill="#455a64"/><path d="M410.817,180.564l3.75,5.6-11.254,32.687-3.663-6.269Z" transform="translate(-77.684 -35.098)" fill="#455a64"/><path d="M445.861,186.164l-4.108-3.989-28.242-1.612,3.75,5.6Z" transform="translate(-80.379 -35.098)" fill="#ebebeb"/><path d="M415.451,187.516c.11.038-2.321,7.386-5.428,16.411s-5.716,16.314-5.825,16.276,2.32-7.384,5.429-16.413,5.715-16.312,5.825-16.274" transform="translate(-78.568 -36.449)" fill="#263238"/><path d="M425.807,209.8l-4.872-.421a25.2,25.2,0,0,0-3.127-4.223c-1.24-1.092-7.647-4.159-7.647-4.159a1.77,1.77,0,0,0,0,2.248,27.821,27.821,0,0,0,3.451,2.21,1.747,1.747,0,0,1-1.994,2.2c-1.876-.344-4.062-.734-4.35-.734-.321,0-2.2-1.772-3.57-3.117a1.168,1.168,0,0,0-1.968,1.07.573.573,0,0,0,.165.278s-1.977-.07-.214,2.587c0,0-.407,2.453,1.04,3.578,0,0,.624,2.965,1.555,3.987s10.016,2.964,10.016,2.964l9.466.918Z" transform="translate(-77.937 -39.07)" fill="#b78876"/><path d="M411.058,211.465a5.455,5.455,0,0,1-1.626.039,8.511,8.511,0,0,1-3.821-1,7.919,7.919,0,0,1-2.661-2.92,5.375,5.375,0,0,1-.694-1.472,7.551,7.551,0,0,1,.945,1.314,8.826,8.826,0,0,0,2.624,2.717,9.674,9.674,0,0,0,3.634,1.07,7.326,7.326,0,0,1,1.6.255" transform="translate(-78.19 -40.063)" fill="#aa6550"/><path d="M410.041,214.221a3.058,3.058,0,0,1-1.484.116,10.677,10.677,0,0,1-1.6-.233,5.007,5.007,0,0,1-1.873-.765,8.621,8.621,0,0,1-1.393-1.431l-1-1.245a5.223,5.223,0,0,1-.844-1.214,5.234,5.234,0,0,1,1.07,1.022c.309.331.677.735,1.069,1.188A9.861,9.861,0,0,0,405.333,213a5.128,5.128,0,0,0,1.714.724,14.9,14.9,0,0,0,1.542.313c.889.139,1.444.119,1.453.179" transform="translate(-78.11 -40.713)" fill="#aa6550"/><path d="M409.016,217.409c-.027.168-1.652-.174-3.571-.711a1.654,1.654,0,0,1-.7-.425,5.766,5.766,0,0,1-.494-.5,6.749,6.749,0,0,1-.7-.95c-.353-.577-.45-.993-.4-1.011s.246.334.644.843a10.549,10.549,0,0,0,.742.855c.147.153.308.309.48.455a1.335,1.335,0,0,0,.536.329c.98.263,1.84.539,2.468.741a4.527,4.527,0,0,1,1,.376" transform="translate(-78.361 -41.56)" fill="#aa6550"/></g></g></svg>