<svg xmlns="http://www.w3.org/2000/svg" xmlns:xlink="http://www.w3.org/1999/xlink" width="241.821" height="222.834" viewBox="0 0 241.821 222.834"><defs><clipPath id="a"><rect width="222.953" height="222.834" fill="none"/></clipPath><filter id="c" x="168.728" y="168.479" width="54.677" height="54.678" filterUnits="userSpaceOnUse"><feOffset dy="3" input="SourceAlpha"/><feGaussianBlur stdDeviation="3" result="d"/><feFlood flood-opacity="0.161"/><feComposite operator="in" in2="d"/><feComposite in="SourceGraphic"/></filter><filter id="e" x="193.532" y="151.295" width="37.433" height="37.433" filterUnits="userSpaceOnUse"><feOffset dy="3" input="SourceAlpha"/><feGaussianBlur stdDeviation="3" result="f"/><feFlood flood-opacity="0.161"/><feComposite operator="in" in2="f"/><feComposite in="SourceGraphic"/></filter><filter id="h" x="155.178" y="135.726" width="31.004" height="31.004" filterUnits="userSpaceOnUse"><feOffset dy="3" input="SourceAlpha"/><feGaussianBlur stdDeviation="3" result="i"/><feFlood flood-opacity="0.161"/><feComposite operator="in" in2="i"/><feComposite in="SourceGraphic"/></filter><filter id="j" x="171.46" y="136.516" width="31.392" height="19.112" filterUnits="userSpaceOnUse"><feOffset dy="3" input="SourceAlpha"/><feGaussianBlur stdDeviation="3" result="k"/><feFlood flood-opacity="0.161"/><feComposite operator="in" in2="k"/><feComposite in="SourceGraphic"/></filter><filter id="l" x="171.46" y="139.088" width="31.392" height="19.112" filterUnits="userSpaceOnUse"><feOffset dy="3" input="SourceAlpha"/><feGaussianBlur stdDeviation="3" result="m"/><feFlood flood-opacity="0.161"/><feComposite operator="in" in2="m"/><feComposite in="SourceGraphic"/></filter><filter id="n" x="171.46" y="141.659" width="31.392" height="19.112" filterUnits="userSpaceOnUse"><feOffset dy="3" input="SourceAlpha"/><feGaussianBlur stdDeviation="3" result="o"/><feFlood flood-opacity="0.161"/><feComposite operator="in" in2="o"/><feComposite in="SourceGraphic"/></filter><filter id="p" x="171.46" y="144.231" width="31.392" height="19.112" filterUnits="userSpaceOnUse"><feOffset dy="3" input="SourceAlpha"/><feGaussianBlur stdDeviation="3" result="q"/><feFlood flood-opacity="0.161"/><feComposite operator="in" in2="q"/><feComposite in="SourceGraphic"/></filter><filter id="r" x="171.46" y="146.804" width="31.392" height="19.112" filterUnits="userSpaceOnUse"><feOffset dy="3" input="SourceAlpha"/><feGaussianBlur stdDeviation="3" result="s"/><feFlood flood-opacity="0.161"/><feComposite operator="in" in2="s"/><feComposite in="SourceGraphic"/></filter><filter id="t" x="151.761" y="123.503" width="53.515" height="26.696" filterUnits="userSpaceOnUse"><feOffset dy="3" input="SourceAlpha"/><feGaussianBlur stdDeviation="3" result="u"/><feFlood flood-opacity="0.161"/><feComposite operator="in" in2="u"/><feComposite in="SourceGraphic"/></filter><clipPath id="w"><rect width="73.022" height="26.37" fill="none"/></clipPath><clipPath id="x"><rect width="22.652" height="7.516" fill="none"/></clipPath></defs><g transform="translate(-710.185 -11272.618)"><path d="M20,0H198.666a20,20,0,0,1,20,20V183.167a0,0,0,0,1,0,0H0a0,0,0,0,1,0,0V20A20,20,0,0,1,20,0Z" transform="translate(733.084 11302.937)" fill="#c2e8b0"/><path d="M261.563,644.546c0,7.286-49.007,13.192-109.461,13.192S42.641,651.832,42.641,644.546,91.648,631.353,152.1,631.353s109.461,5.906,109.461,13.193" transform="translate(690.443 10837.714)" fill="#455a64"/><g transform="translate(710.185 11272.618)"><g transform="translate(0)" clip-path="url(#a)"><g clip-path="url(#a)"><path d="M114.092,46.283H100.717a5.208,5.208,0,0,1-5.208-5.208V27.7a5.208,5.208,0,0,1,5.208-5.208h13.374A5.208,5.208,0,0,1,119.3,27.7V41.075a5.208,5.208,0,0,1-5.208,5.208" transform="translate(-46.533 -10.958)" fill="#529d2e"/><path d="M107.89,45.46l.867-3.234a5.983,5.983,0,1,1,2.384,2.363Zm3.412-2.083.2.122a4.859,4.859,0,1,0-1.662-1.647l.126.206-.484,1.806Z" transform="translate(-52.565 -16.258)" fill="#fff"/><path d="M119.108,43.322a1.007,1.007,0,0,0-.856-.193c-.222.091-.364.439-.508.616a.213.213,0,0,1-.275.059,3.875,3.875,0,0,1-1.933-1.655.238.238,0,0,1,.03-.324,1.315,1.315,0,0,0,.352-.57,1.261,1.261,0,0,0-.157-.674,1.612,1.612,0,0,0-.5-.751.683.683,0,0,0-.741.11A1.507,1.507,0,0,0,114,41.132a1.733,1.733,0,0,0,.047.378,3.114,3.114,0,0,0,.363.836,6.482,6.482,0,0,0,.378.576,5.859,5.859,0,0,0,1.644,1.526,4.941,4.941,0,0,0,1.025.488,2.272,2.272,0,0,0,1.193.188,1.443,1.443,0,0,0,1.081-.8.7.7,0,0,0,.05-.411c-.062-.283-.444-.451-.673-.588" transform="translate(-55.542 -19.373)" fill="#fff" fill-rule="evenodd"/><g transform="matrix(1, 0, 0, 1, 0, 0)" filter="url(#c)"><path d="M357.094,345.605a15.1,15.1,0,0,1,3.681-1.6l.758-3.643,6.155-.108.886,3.614a15.085,15.085,0,0,1,3.735,1.47l3.111-2.039,4.429,4.276-1.928,3.18a15.063,15.063,0,0,1,1.6,3.681l3.643.758.108,6.155-3.614.886a15.06,15.06,0,0,1-1.469,3.734l2.039,3.112-4.276,4.429-3.18-1.929a15.083,15.083,0,0,1-3.681,1.6l-.758,3.643-6.155.108-.886-3.614a15.09,15.09,0,0,1-3.735-1.469l-3.111,2.039-4.429-4.276,1.928-3.18a15.084,15.084,0,0,1-1.6-3.681l-3.643-.758-.108-6.155,3.614-.886a15.091,15.091,0,0,1,1.469-3.735l-2.039-3.111,4.276-4.428Zm3.281,8.2a6.6,6.6,0,1,0,9.338-.164,6.6,6.6,0,0,0-9.338.164" transform="translate(-168.86 -165.78)" fill="#fff"/></g><path d="M371.6,364.651a4.984,4.984,0,0,1,1.23-1.079,6.576,6.576,0,0,1,4.308-1.019,6.658,6.658,0,0,1,2.928,1.04,6.753,6.753,0,0,1,2.368,2.668,6.766,6.766,0,0,1,.638,3.887,6.738,6.738,0,0,1-5.574,5.774,6.772,6.772,0,0,1-3.907-.5,6.763,6.763,0,0,1-2.75-2.273,6.657,6.657,0,0,1-1.142-2.89,6.573,6.573,0,0,1,.867-4.341,4.987,4.987,0,0,1,1.035-1.267c.036.03-.4.433-.908,1.34a6.587,6.587,0,0,0-.73,4.228,6.456,6.456,0,0,0,3.77,4.885,6.454,6.454,0,0,0,3.7.454,6.4,6.4,0,0,0,5.27-5.459,6.46,6.46,0,0,0-.584-3.684,6.452,6.452,0,0,0-5.014-3.6,6.581,6.581,0,0,0-4.2.878c-.889.54-1.276.989-1.308.954" transform="translate(-180.088 -176.622)" fill="#ebebeb"/><path d="M356.964,345.5a1.481,1.481,0,0,1-.205-.108l-.61-.353-2.4-1.416.075-.01-4.25,4.454.012-.119,2.051,3.1.037.056-.033.059a15.058,15.058,0,0,0-1.445,3.71l-.018.073-.073.018-3.612.9.1-.133c.038,1.938.079,3.995.122,6.154l-.118-.143,3.644.751.092.02.026.091a15.01,15.01,0,0,0,1.589,3.64l.052.084-.051.085-1.924,3.183-.027-.209,4.434,4.27-.219-.02,3.109-2.042.091-.059.1.053a14.991,14.991,0,0,0,3.691,1.449l.108.026.026.108.889,3.614-.184-.141,6.155-.11-.181.15c.239-1.151.5-2.393.757-3.643l.023-.112.11-.031a14.945,14.945,0,0,0,3.632-1.577l0,0,.1-.059.1.059,3.18,1.929-.234.03,4.277-4.428-.022.233-2.038-3.112-.062-.094.055-.1a14.9,14.9,0,0,0,1.453-3.688l.027-.108.108-.026,3.615-.884-.137.178q-.052-3.152-.1-6.155l.138.167-3.642-.762-.1-.022-.028-.1a14.942,14.942,0,0,0-1.576-3.643l-.051-.085.051-.085,1.934-3.177.025.195-4.42-4.285.18.016-3.116,2.032-.069.045-.072-.04a15,15,0,0,0-3.7-1.467l-.074-.018-.017-.073-.874-3.617.111.085-6.156.081.082-.068c-.312,1.453-.568,2.645-.781,3.638l-.008.036-.035.01a15.581,15.581,0,0,0-2.814,1.083l-.662.346a1.537,1.537,0,0,1-.221.112,1.966,1.966,0,0,1,.205-.139c.141-.087.354-.217.649-.374a14.6,14.6,0,0,1,2.811-1.145l-.043.046c.2-1,.441-2.191.735-3.648l.013-.066h.069l6.154-.135.089,0,.022.088c.278,1.116.572,2.3.9,3.611l-.091-.091a15.2,15.2,0,0,1,3.771,1.471l-.141.005,3.106-2.047.1-.064.084.081,4.438,4.267.09.087-.065.108-1.923,3.183v-.169a15.266,15.266,0,0,1,1.622,3.719l-.129-.119,3.644.754.136.028,0,.139q.056,3,.114,6.154l0,.144-.141.034-3.613.889.134-.134a15.275,15.275,0,0,1-1.485,3.781l-.007-.192,2.04,3.11.082.125-.1.108-4.275,4.43-.1.109-.129-.078-3.18-1.928h.2l0,0a15.284,15.284,0,0,1-3.724,1.617l.133-.143-.759,3.643-.031.147-.15,0-6.155.106-.148,0-.035-.144c-.305-1.248-.607-2.482-.884-3.615l.134.134a15.335,15.335,0,0,1-3.778-1.49l.186-.007-3.113,2.036-.118.077-.1-.1-4.424-4.281-.1-.094.07-.115,1.933-3.177v.169a15.251,15.251,0,0,1-1.61-3.723l.118.11-3.642-.765-.116-.025,0-.119c-.033-2.16-.065-4.217-.094-6.155l0-.108.1-.026,3.616-.876-.091.091a15.21,15.21,0,0,1,1.493-3.759l0,.115-2.027-3.119-.042-.065.053-.055,4.3-4.4.034-.035.041.026,2.343,1.458.6.383a1.814,1.814,0,0,1,.2.139" transform="translate(-168.735 -165.668)" fill="#ebebeb"/><path d="M10.768,44.822a15.1,15.1,0,0,1,3.681-1.6l.758-3.643,6.155-.108.886,3.614a15.087,15.087,0,0,1,3.735,1.47l3.111-2.039,4.428,4.276-1.928,3.18a15.061,15.061,0,0,1,1.6,3.681l3.643.758.108,6.155-3.614.886a15.069,15.069,0,0,1-1.469,3.735L33.9,68.3l-4.276,4.429L26.444,70.8a15.081,15.081,0,0,1-3.681,1.6L22,76.042l-6.155.108-.886-3.614a15.089,15.089,0,0,1-3.735-1.469L8.118,73.106,3.689,68.83l1.928-3.18a15.094,15.094,0,0,1-1.6-3.681L.375,61.21.267,55.055l3.614-.886A15.089,15.089,0,0,1,5.35,50.434L3.311,47.323l4.276-4.429Zm3.281,8.2a6.6,6.6,0,1,0,9.338-.164,6.6,6.6,0,0,0-9.338.164" transform="translate(-0.13 -19.231)" fill="#fff"/><path d="M25.272,63.868a4.985,4.985,0,0,1,1.23-1.079,6.575,6.575,0,0,1,4.308-1.019,6.658,6.658,0,0,1,2.928,1.04,6.754,6.754,0,0,1,2.368,2.668,6.766,6.766,0,0,1,.638,3.887A6.738,6.738,0,0,1,31.17,75.14a6.77,6.77,0,0,1-3.907-.5,6.763,6.763,0,0,1-2.75-2.273,6.658,6.658,0,0,1-1.142-2.89,6.573,6.573,0,0,1,.867-4.341,5,5,0,0,1,1.035-1.267c.036.03-.4.433-.908,1.34a6.584,6.584,0,0,0-.73,4.228A6.453,6.453,0,0,0,27.4,74.32a6.454,6.454,0,0,0,3.7.454,6.4,6.4,0,0,0,5.27-5.459,6.46,6.46,0,0,0-.584-3.684,6.452,6.452,0,0,0-5.014-3.6,6.581,6.581,0,0,0-4.2.878c-.889.54-1.276.989-1.308.954" transform="translate(-11.353 -30.076)" fill="#ebebeb"/><path d="M10.637,44.714a1.34,1.34,0,0,1-.205-.108l-.61-.352-2.4-1.416.075-.01L3.25,47.282l.012-.119,2.051,3.1.037.056-.033.059a15.058,15.058,0,0,0-1.445,3.71l-.018.073-.073.018-3.612.9.1-.133C.31,56.882.351,58.939.393,61.1l-.118-.144,3.644.751.093.019.026.091a14.98,14.98,0,0,0,1.589,3.64l.051.084-.051.085L3.7,68.809,3.676,68.6l4.434,4.27-.219-.021L11,70.808l.091-.059.1.053a15.012,15.012,0,0,0,3.691,1.449l.108.026.026.108L15.9,76l-.184-.142,6.155-.11-.181.149c.239-1.15.5-2.392.757-3.642l.023-.113.11-.031a14.956,14.956,0,0,0,3.632-1.577l0,0,.1-.059.1.059,3.18,1.929-.234.03,4.277-4.428-.022.233-2.038-3.112-.062-.095.055-.1A14.905,14.905,0,0,0,33.022,61.3l.027-.108.108-.026,3.615-.884-.137.179q-.052-3.153-.1-6.155l.138.168-3.642-.763-.1-.022-.028-.1a14.962,14.962,0,0,0-1.577-3.643l-.051-.085.051-.085L33.257,46.6l.025.195-4.42-4.285.181.016-3.116,2.032-.069.045-.072-.04a15,15,0,0,0-3.7-1.467l-.073-.018L22,43.008l-.874-3.617.111.085-6.155.081.081-.068c-.312,1.453-.568,2.645-.781,3.638l-.008.036-.035.01a15.572,15.572,0,0,0-2.815,1.083l-.662.346a1.421,1.421,0,0,1-.221.112,2.133,2.133,0,0,1,.205-.139c.141-.087.354-.217.649-.374a14.579,14.579,0,0,1,2.81-1.145l-.043.046c.2-1,.441-2.191.735-3.648l.013-.066.069,0,6.154-.135.089,0,.022.088.9,3.611-.091-.091a15.177,15.177,0,0,1,3.771,1.471l-.141.005,3.106-2.047.1-.064.084.081L33.5,46.571l.09.087-.065.107C32.9,47.8,32.263,48.858,31.6,49.949V49.78A15.265,15.265,0,0,1,33.227,53.5L33.1,53.38l3.644.754.136.028,0,.14q.056,3,.115,6.154l0,.144-.141.034-3.613.889.134-.134a15.277,15.277,0,0,1-1.485,3.781l-.007-.192q1.011,1.538,2.04,3.11l.082.125-.1.107-4.275,4.43-.105.109-.129-.079-3.18-1.928h.2l0,0a15.279,15.279,0,0,1-3.724,1.617l.133-.143c-.26,1.251-.519,2.492-.759,3.643l-.031.147-.15,0-6.155.106-.148,0-.035-.144c-.305-1.248-.607-2.483-.884-3.615l.134.134a15.325,15.325,0,0,1-3.778-1.49l.186-.007L8.084,73.145l-.118.077-.1-.1L3.442,68.843l-.1-.094.07-.115,1.933-3.177v.169A15.252,15.252,0,0,1,3.737,61.9l.118.11L.214,61.248.1,61.223l0-.119C.063,58.944.031,56.888,0,54.949l0-.108.1-.026,3.616-.876-.091.091a15.226,15.226,0,0,1,1.493-3.758l0,.115L3.1,47.267,3.058,47.2l.053-.055,4.3-4.4.034-.035.041.026,2.343,1.458.6.383a1.968,1.968,0,0,1,.2.139" transform="translate(0 -19.123)" fill="#ebebeb"/><g transform="matrix(1, 0, 0, 1, 0, 0)" filter="url(#e)"><path d="M400.528,309.58a7.972,7.972,0,0,1,1.95-.848l.4-1.93,3.261-.057.469,1.915a7.978,7.978,0,0,1,1.979.778l1.648-1.08,2.346,2.266-1.021,1.684a8,8,0,0,1,.848,1.951l1.93.4.057,3.261-1.915.47a7.981,7.981,0,0,1-.778,1.978l1.08,1.649-2.265,2.346-1.685-1.021a8,8,0,0,1-1.951.847l-.4,1.93-3.261.057-.469-1.915a8.009,8.009,0,0,1-1.979-.779l-1.648,1.08-2.347-2.266,1.022-1.685a7.981,7.981,0,0,1-.848-1.95l-1.93-.4L394.964,315l1.915-.47a7.982,7.982,0,0,1,.778-1.978l-1.08-1.649,2.266-2.346Zm1.738,4.344a3.5,3.5,0,1,0,4.947-.087,3.5,3.5,0,0,0-4.947.087" transform="translate(-192.43 -149.45)" fill="#fff"/></g><path d="M44.314,2.835a7.973,7.973,0,0,1,1.95-.848l.4-1.93L49.927,0,50.4,1.915a7.978,7.978,0,0,1,1.979.778l1.648-1.08,2.347,2.266L55.348,5.563A7.994,7.994,0,0,1,56.2,7.514l1.93.4.057,3.261-1.915.47a7.982,7.982,0,0,1-.778,1.978l1.08,1.649L54.3,17.62,52.619,16.6a8,8,0,0,1-1.951.847l-.4,1.93-3.261.057-.469-1.915a8.007,8.007,0,0,1-1.979-.779L42.91,17.82l-2.347-2.265,1.021-1.685a7.982,7.982,0,0,1-.848-1.95l-1.93-.4L38.75,8.256l1.915-.47a7.982,7.982,0,0,1,.778-1.978L40.363,4.16l2.265-2.347ZM46.052,7.18A3.5,3.5,0,1,0,51,7.092a3.5,3.5,0,0,0-4.947.087" transform="translate(-18.88)" fill="#fff"/><path d="M408.213,319.671a2.648,2.648,0,0,1,.651-.572,3.487,3.487,0,0,1,2.283-.54,3.535,3.535,0,0,1,1.552.551,3.583,3.583,0,0,1,1.254,1.414,3.584,3.584,0,0,1,.338,2.059,3.571,3.571,0,0,1-2.953,3.06,3.592,3.592,0,0,1-2.071-.266,3.579,3.579,0,0,1-1.457-1.2,3.521,3.521,0,0,1-.605-1.531,3.482,3.482,0,0,1,.459-2.3,2.644,2.644,0,0,1,.549-.671c.019.016-.211.23-.481.71a3.492,3.492,0,0,0-.387,2.24,3.419,3.419,0,0,0,2,2.588,3.419,3.419,0,0,0,1.962.24,3.391,3.391,0,0,0,2.792-2.892,3.415,3.415,0,0,0-.31-1.952,3.419,3.419,0,0,0-2.656-1.9,3.488,3.488,0,0,0-2.225.465c-.471.287-.676.524-.693.506" transform="translate(-198.378 -155.196)" fill="#ebebeb"/><path d="M400.46,309.523a.791.791,0,0,1-.109-.057l-.323-.187-1.27-.75.04-.005-2.252,2.359.006-.063,1.087,1.644.02.03-.017.031a7.961,7.961,0,0,0-.766,1.966l-.009.038-.039.01-1.914.475.054-.071c.021,1.027.042,2.117.065,3.261l-.063-.076,1.931.4.049.01.014.048a7.952,7.952,0,0,0,.842,1.928l.027.045-.027.045-1.019,1.687-.014-.111,2.35,2.263L399,324.43l1.648-1.082.048-.032.05.028a7.945,7.945,0,0,0,1.955.767l.057.014.014.057.471,1.915-.1-.075,3.261-.059-.1.079.4-1.93.012-.059.058-.016a7.939,7.939,0,0,0,1.924-.836h0l.053-.031.051.031,1.685,1.022-.124.016,2.266-2.346-.012.123-1.079-1.649-.033-.05.029-.052a7.885,7.885,0,0,0,.77-1.954l.014-.057.057-.014,1.915-.468-.073.094q-.028-1.67-.054-3.261l.073.089-1.929-.4-.054-.011-.014-.052a7.911,7.911,0,0,0-.835-1.93l-.027-.045.027-.045,1.025-1.683.013.1-2.342-2.27.1.009-1.651,1.076-.037.024-.038-.022a7.973,7.973,0,0,0-1.959-.777l-.039-.01-.009-.038-.463-1.916.058.045-3.261.043.043-.036-.414,1.928,0,.02-.019.005a8.247,8.247,0,0,0-1.491.574l-.351.183a.82.82,0,0,1-.117.059,1.012,1.012,0,0,1,.109-.074c.075-.046.188-.115.344-.2a7.779,7.779,0,0,1,1.489-.606l-.023.024c.106-.527.233-1.16.389-1.933l.007-.035h.036l3.261-.071h.047l.012.046c.147.592.3,1.218.476,1.913l-.048-.048a8.064,8.064,0,0,1,2,.779l-.074,0,1.646-1.084.051-.034.044.043,2.351,2.261.048.046-.034.057-1.019,1.687v-.09a8.1,8.1,0,0,1,.859,1.971l-.068-.064,1.931.4.072.015v.074q.03,1.591.06,3.261l0,.076-.074.018-1.914.471.071-.071a8.084,8.084,0,0,1-.787,2l0-.1,1.081,1.648.044.066-.055.057-2.265,2.347-.055.057-.069-.042-1.685-1.021h.1a8.088,8.088,0,0,1-1.973.857l.071-.076c-.138.663-.275,1.321-.4,1.93l-.016.078-.079,0-3.261.056-.078,0-.018-.076c-.162-.661-.322-1.315-.468-1.915l.071.071a8.111,8.111,0,0,1-2-.79l.1,0-1.65,1.079-.063.041-.053-.052-2.344-2.269-.051-.05.037-.061,1.024-1.683v.089a8.118,8.118,0,0,1-.853-1.973l.063.058-1.93-.405-.062-.013v-.063c-.017-1.144-.034-2.234-.05-3.261v-.057l.055-.013,1.916-.464-.048.048a8.066,8.066,0,0,1,.791-1.992l0,.061-1.073-1.653-.023-.034.028-.029,2.279-2.334.018-.018.022.013,1.241.773.319.2a.987.987,0,0,1,.108.074" transform="translate(-192.364 -149.393)" fill="#ebebeb"/><path d="M289.783,363.967a15.323,15.323,0,0,1,8.681-.955,7.579,7.579,0,0,1,4.289,1.734,2.609,2.609,0,0,1,.044,3.878,4.444,4.444,0,0,1-2.7.622c-2.3-.025-4.842-.39-6.675.86-1.046.714-1.742,1.9-2.993,2.251a3.081,3.081,0,0,1-3.253-1.311,4.193,4.193,0,0,1-.368-3.378,5.149,5.149,0,0,1,2.979-3.7" transform="translate(-139.644 -176.756)" fill="#ebebeb"/><path d="M279.545,323.85c1.615,2.089,4.753,1.4,6.208.123a10.258,10.258,0,0,0,2.63-4.885c1.279-4.026,2.569-8.249,1.618-12.349a6.6,6.6,0,0,0-1.741-3.357,4.211,4.211,0,0,0-3.751-1.13c-1.582.378-2.565,1.782-3.276,3.117A27.165,27.165,0,0,0,278.021,318a9.447,9.447,0,0,0,1.525,5.848" transform="translate(-135.455 -147.215)" fill="#ebebeb"/><path d="M254.678,333.231a7.029,7.029,0,0,0,1.306-6.993,13.54,13.54,0,0,0-4.574-6.009,25.291,25.291,0,0,0-8.19-4.377,9.56,9.56,0,0,0-3.683-.567,3.94,3.94,0,0,0-3.091,1.694c-.862,1.489-.035,3.295.858,4.768a56.376,56.376,0,0,0,5.379,7.419,14.272,14.272,0,0,0,5.917,4.59c2.457.851,5.009.751,6.312-.793" transform="translate(-115.022 -153.6)" fill="#ebebeb"/><path d="M280.753,387.652a4.147,4.147,0,0,0,.146-.949c.074-.691.167-1.558.278-2.59a34.018,34.018,0,0,1,.643-3.8,27.277,27.277,0,0,1,1.525-4.484,16.174,16.174,0,0,1,2.528-4.057,9.3,9.3,0,0,1,3.2-2.407,9.655,9.655,0,0,1,2.692-.759,5.563,5.563,0,0,0,1.043-.136,5.364,5.364,0,0,0-1.062-.015,8.835,8.835,0,0,0-2.806.661,9.33,9.33,0,0,0-3.372,2.428,15.848,15.848,0,0,0-2.621,4.139,25.5,25.5,0,0,0-1.514,4.557,29.3,29.3,0,0,0-.558,3.847c-.091,1.1-.125,1.991-.142,2.606a4.032,4.032,0,0,0,.022.958" transform="translate(-136.772 -179.511)" fill="#e0e0e0"/><path d="M280.95,361.337a1.71,1.71,0,0,0,.028-.44c0-.331,0-.748,0-1.259,0-1.093,0-2.674.061-4.627.107-3.906.478-8.109,1.2-14.035.679-5.573,1.591-12.058,2.553-16.275.206-.959.414-1.822.61-2.578s.346-1.41.5-1.938c.132-.5.239-.9.325-1.224a1.724,1.724,0,0,0,.085-.435,1.772,1.772,0,0,0-.169.413l-.4,1.207c-.179.523-.363,1.172-.572,1.927s-.448,1.613-.673,2.571a130.464,130.464,0,0,0-2.684,15.1A141.314,141.314,0,0,0,280.73,355c-.026,1.958.021,3.543.075,4.637.035.511.063.928.085,1.258a1.7,1.7,0,0,0,.059.437" transform="translate(-136.772 -155.189)" fill="#e0e0e0"/><path d="M266.584,353.937a7.648,7.648,0,0,0-.01-1.316,33.111,33.111,0,0,0-.445-3.564,43.3,43.3,0,0,0-1.28-5.192,39.855,39.855,0,0,0-2.4-6.144,32.609,32.609,0,0,0-7.041-9.93,17.4,17.4,0,0,0-1.656-1.394c-.254-.195-.479-.389-.708-.543l-.643-.4a9.57,9.57,0,0,0-1.223-.709,42.4,42.4,0,0,1,4.008,3.239,34.262,34.262,0,0,1,6.865,9.893,45.653,45.653,0,0,1,2.411,6.088,48.706,48.706,0,0,1,1.362,5.141c.3,1.481.474,2.691.578,3.529a7.705,7.705,0,0,0,.178,1.3" transform="translate(-122.378 -158.219)" fill="#e0e0e0"/><path d="M257.429,396.772l1.154,14.318h20.309l1.154-14.318Z" transform="translate(-125.423 -193.312)" fill="#e0e0e0"/><rect width="27.002" height="5.643" transform="translate(130.045 197.816)" fill="#e0e0e0"/><path d="M253.6,423.625v1.564h26.556v-1.564Z" transform="translate(-123.559 -206.395)" fill="#ebebeb"/><path d="M257.322,429.428l-1.243-2.753H280.4l-1.451,2.753Z" transform="translate(-124.765 -207.882)" fill="#e0e0e0"/><path d="M279.994,403.986a.579.579,0,0,1-.095.132l-.3.364-1.184,1.371-.052.061-.051-.064L275.4,402.21h.167l-2.861,3.669-.09.115-.1-.108-3.394-3.657.2,0-.187.212-3.035,3.445L266,406l-.093-.12-2.863-3.669.167.007-3.526,3.639-.063.065-.048-.073-1.1-1.68-.283-.447a.652.652,0,0,1-.087-.16.769.769,0,0,1,.118.142l.313.431,1.159,1.649-.11-.008,3.47-3.683.088-.093.079.1,2.889,3.653-.194-.005,3.028-3.451.187-.212.1-.11.1.108,3.384,3.664-.19.007,2.89-3.651.085-.107.083.107,2.845,3.68-.1,0,1.231-1.336.329-.345a.628.628,0,0,1,.122-.112" transform="translate(-125.748 -195.847)" fill="#f5f5f5"/><path d="M280.49,396.479c0,.063-5.089.114-11.365.114s-11.366-.051-11.366-.114,5.088-.114,11.366-.114,11.365.051,11.365.114" transform="translate(-125.584 -193.114)" fill="#f5f5f5"/><path d="M280.615,426.867c0,.063-5.53.114-12.352.114s-12.353-.051-12.353-.114,5.529-.114,12.353-.114,12.352.051,12.352.114" transform="translate(-124.683 -207.919)" fill="#f5f5f5"/><path d="M207.167,266.121H192.719a4.93,4.93,0,0,1-4.93-4.93V246.743a4.93,4.93,0,0,1,4.93-4.93h14.448a4.931,4.931,0,0,1,4.93,4.93v14.447a4.931,4.931,0,0,1-4.93,4.93" transform="translate(-91.493 -117.814)" fill="#67c53a"/><path d="M200.488,265.811a.54.54,0,0,1-.382-.921L202.995,262a4.976,4.976,0,0,1,.359-6.582,4.941,4.941,0,1,1,.4,7.346l-2.888,2.888a.535.535,0,0,1-.382.158m6.359-10.759a3.857,3.857,0,1,0,2.73,1.131,3.834,3.834,0,0,0-2.73-1.131" transform="translate(-97.418 -123.738)" fill="#fff"/><path d="M404.064,56.491H391.646a5.325,5.325,0,0,1-5.325-5.325V38.748a5.325,5.325,0,0,1,5.325-5.325h12.418a5.325,5.325,0,0,1,5.325,5.325V51.166a5.325,5.325,0,0,1-5.325,5.325" transform="translate(-188.221 -16.284)" fill="#529d2e"/><path d="M408.813,62.776a.972.972,0,1,1-.968-.977.972.972,0,0,1,.968.977" transform="translate(-198.232 -30.109)" fill="#fff"/><path d="M404.1,59.416a2.693,2.693,0,0,1,3.9-.051.547.547,0,0,0,.777-.77,3.8,3.8,0,0,0-5.444.044c-.485.509.283,1.288.77.777" transform="translate(-196.432 -27.999)" fill="#fff"/><path d="M397.634,49.421a7.96,7.96,0,0,1,5.219-2.087,7.743,7.743,0,0,1,5.325,2.037c.513.482,1.291-.287.777-.77a8.879,8.879,0,0,0-6.1-2.361,9.138,9.138,0,0,0-5.994,2.4c-.533.461.239,1.235.77.777" transform="translate(-193.27 -22.529)" fill="#fff"/><path d="M400.2,54.605a5.349,5.349,0,0,1,7.86-.112c.491.505,1.268-.265.777-.77a6.44,6.44,0,0,0-9.407.105c-.477.516.291,1.295.77.777" transform="translate(-194.536 -25.205)" fill="#fff"/></g><g clip-path="url(#a)"><path d="M348.88,229.577c.074,0,.133,2.585.133,5.773s-.059,5.773-.133,5.773-.133-2.584-.133-5.773.059-5.773.133-5.773" transform="translate(-169.914 -111.853)" fill="#263238"/><path d="M264.164,91.153c-.074,0-.133-4.307-.133-9.62s.059-9.621.133-9.621.133,4.306.133,9.621-.059,9.62-.133,9.62" transform="translate(-128.639 -35.036)" fill="#263238"/><path d="M213.109,141.233a1.742,1.742,0,0,1-.355.027l-1.018.025-3.744.043-12.352.039h-1.787a6.722,6.722,0,0,1-.891-.033,3.121,3.121,0,0,1-.858-.249,4,4,0,0,1-2.12-2.51,5.071,5.071,0,0,1-.223-1.541q.008-.742.016-1.44c.012-.927.024-1.792.034-2.585.028-1.557.051-2.828.068-3.743.013-.42.024-.758.032-1.018a1.708,1.708,0,0,1,.03-.355,1.863,1.863,0,0,1,.024.355c0,.26.011.6.018,1.018,0,.915.01,2.187.017,3.744,0,.793,0,1.658,0,2.585a9.553,9.553,0,0,0,.219,2.907,3.766,3.766,0,0,0,1.991,2.345,2.871,2.871,0,0,0,.789.226,6.542,6.542,0,0,0,.855.029h1.787l12.352.039,3.744.043,1.018.025a1.746,1.746,0,0,1,.355.027" transform="translate(-92.454 -62.31)" fill="#263238"/><path d="M258.013,42.012h-20.6a5.325,5.325,0,0,1-5.325-5.325v-20.6a5.325,5.325,0,0,1,5.325-5.325h20.6a5.325,5.325,0,0,1,5.325,5.325v20.6a5.325,5.325,0,0,1-5.325,5.325" transform="translate(-113.075 -5.242)" fill="#fff"/><path d="M257.887,41.885a9.44,9.44,0,0,0,1.161-.158,5.309,5.309,0,0,0,2.815-1.71A5.123,5.123,0,0,0,262.97,37.9a11.262,11.262,0,0,0,.168-2.87c-.006-2.083-.013-4.454-.02-7.073s-.01-5.492-.016-8.573q0-1.155,0-2.35a9.02,9.02,0,0,0-.175-2.381,5.2,5.2,0,0,0-3.177-3.546,5.037,5.037,0,0,0-1.236-.306,11.293,11.293,0,0,0-1.307-.04l-2.691,0-5.551,0-11.673,0a5.234,5.234,0,0,0-2.756.8,4.941,4.941,0,0,0-1.1.923,4.861,4.861,0,0,0-.8,1.177,5.085,5.085,0,0,0-.449,1.34,7.272,7.272,0,0,0-.092,1.414q0,1.438,0,2.853c0,3.772-.005,7.409-.008,10.875q0,2.6-.006,5.064a13.251,13.251,0,0,0,.1,2.4,5.248,5.248,0,0,0,.938,2.079,5.191,5.191,0,0,0,3.7,2.074c1.411.05,2.8.018,4.1.032l12.414.043,3.375.025.878.013c.2,0,.3.014.3.014s-.1.009-.3.014l-.878.013-3.375.025-12.414.043c-1.314-.008-2.675.03-4.122-.016a5.4,5.4,0,0,1-3.858-2.146,5.469,5.469,0,0,1-.986-2.167,13.4,13.4,0,0,1-.113-2.442q0-2.462-.006-5.064c0-3.466-.005-7.1-.008-10.875q0-1.415,0-2.853a7.564,7.564,0,0,1,.1-1.462,5.325,5.325,0,0,1,.472-1.41,5.124,5.124,0,0,1,.841-1.238,5.228,5.228,0,0,1,1.154-.97,5.5,5.5,0,0,1,2.9-.837l11.673,0,5.551,0,2.691,0a11.471,11.471,0,0,1,1.336.044,5.32,5.32,0,0,1,1.294.323,5.44,5.44,0,0,1,3.316,3.718,9.244,9.244,0,0,1,.176,2.44q0,1.195,0,2.35c-.006,3.081-.011,5.951-.016,8.573s-.014,4.99-.02,7.073a11.3,11.3,0,0,1-.194,2.9,5.2,5.2,0,0,1-1.152,2.154,5.3,5.3,0,0,1-2.881,1.694,4.736,4.736,0,0,1-.874.1c-.2.006-.3,0-.3,0" transform="translate(-112.95 -5.115)" fill="#263238"/><path d="M333.26,62.93h-20.6a5.325,5.325,0,0,1-5.325-5.324V37a5.325,5.325,0,0,1,5.325-5.325h20.6A5.325,5.325,0,0,1,338.585,37v20.6a5.325,5.325,0,0,1-5.325,5.324" transform="translate(-149.737 -15.434)" fill="#fff"/><path d="M333.134,62.8a9.45,9.45,0,0,0,1.161-.158,5.306,5.306,0,0,0,2.815-1.71,5.12,5.12,0,0,0,1.107-2.118,11.259,11.259,0,0,0,.168-2.869c-.006-2.084-.013-4.455-.02-7.074s-.01-5.492-.016-8.573q0-1.156,0-2.351a9.023,9.023,0,0,0-.175-2.381,5.2,5.2,0,0,0-3.177-3.546,5.038,5.038,0,0,0-1.236-.306,11.293,11.293,0,0,0-1.307-.04l-2.691,0-5.551,0-11.673,0a5.234,5.234,0,0,0-2.756.8,4.954,4.954,0,0,0-1.1.923,4.876,4.876,0,0,0-.8,1.177,5.087,5.087,0,0,0-.449,1.34,7.272,7.272,0,0,0-.092,1.414q0,1.438,0,2.853c0,3.772-.005,7.409-.008,10.875q0,2.6-.006,5.064a13.249,13.249,0,0,0,.1,2.4,5.248,5.248,0,0,0,.938,2.079,5.191,5.191,0,0,0,3.7,2.074c1.411.05,2.8.018,4.1.032l12.414.043,3.375.026.878.012c.2,0,.3.014.3.014s-.1.009-.3.014l-.878.013-3.375.025-12.414.043c-1.314-.008-2.675.03-4.122-.016a5.4,5.4,0,0,1-3.858-2.146,5.467,5.467,0,0,1-.986-2.167,13.408,13.408,0,0,1-.113-2.442q0-2.462-.006-5.064c0-3.466-.005-7.1-.008-10.875q0-1.415,0-2.853a7.563,7.563,0,0,1,.1-1.462,5.324,5.324,0,0,1,.472-1.41,5.125,5.125,0,0,1,.841-1.238,5.228,5.228,0,0,1,1.154-.97,5.492,5.492,0,0,1,2.9-.836l11.673,0,5.551,0,2.691,0a11.358,11.358,0,0,1,1.336.044,5.3,5.3,0,0,1,1.294.322A5.44,5.44,0,0,1,338.4,35.51a9.245,9.245,0,0,1,.176,2.44q0,1.195,0,2.351c-.006,3.08-.011,5.951-.016,8.573s-.014,4.99-.019,7.074a11.3,11.3,0,0,1-.194,2.9A5.2,5.2,0,0,1,337.189,61a5.3,5.3,0,0,1-2.881,1.695,4.77,4.77,0,0,1-.874.1c-.2.006-.3,0-.3,0" transform="translate(-149.611 -15.307)" fill="#263238"/><path d="M399.543,136.523h-20.6a5.324,5.324,0,0,1-5.325-5.324V110.6a5.325,5.325,0,0,1,5.325-5.325h20.6a5.325,5.325,0,0,1,5.325,5.325v20.6a5.324,5.324,0,0,1-5.325,5.324" transform="translate(-182.031 -51.29)" fill="#fff"/><path d="M399.417,136.4a9.361,9.361,0,0,0,1.161-.158,5.313,5.313,0,0,0,2.815-1.71,5.122,5.122,0,0,0,1.107-2.119,11.259,11.259,0,0,0,.168-2.869c-.006-2.083-.013-4.454-.02-7.073s-.01-5.492-.016-8.573q0-1.155,0-2.35a9.02,9.02,0,0,0-.175-2.381,5.2,5.2,0,0,0-3.177-3.547,5.036,5.036,0,0,0-1.236-.306,11.067,11.067,0,0,0-1.306-.04l-2.692,0-5.551,0-11.673,0a5.239,5.239,0,0,0-2.756.8,4.969,4.969,0,0,0-1.1.923,4.832,4.832,0,0,0-.8,1.177,5.077,5.077,0,0,0-.45,1.34,7.262,7.262,0,0,0-.092,1.414q0,1.438,0,2.853c0,3.772-.005,7.41-.008,10.876q0,2.6-.006,5.064a13.252,13.252,0,0,0,.1,2.4,5.252,5.252,0,0,0,.938,2.079,5.191,5.191,0,0,0,3.7,2.074c1.411.049,2.8.018,4.1.032l12.414.043,3.375.025.878.013c.2,0,.3.013.3.013s-.1.009-.3.014l-.878.013-3.375.026-12.414.043c-1.314-.008-2.675.03-4.122-.016a5.4,5.4,0,0,1-3.858-2.146,5.467,5.467,0,0,1-.986-2.168,13.4,13.4,0,0,1-.113-2.441q0-2.462-.006-5.064c0-3.466-.005-7.1-.008-10.876q0-1.414,0-2.853a7.555,7.555,0,0,1,.1-1.462,5.325,5.325,0,0,1,.472-1.41,5.125,5.125,0,0,1,.841-1.238,5.228,5.228,0,0,1,1.154-.97,5.5,5.5,0,0,1,2.9-.837l11.673,0,5.551,0,2.692,0a11.356,11.356,0,0,1,1.336.044,5.32,5.32,0,0,1,1.294.323,5.439,5.439,0,0,1,3.316,3.718,9.245,9.245,0,0,1,.176,2.44q0,1.194,0,2.35c-.006,3.081-.011,5.951-.016,8.573s-.014,4.99-.02,7.073a11.3,11.3,0,0,1-.194,2.9,5.215,5.215,0,0,1-1.152,2.154,5.294,5.294,0,0,1-2.881,1.694,4.82,4.82,0,0,1-.873.1c-.2.006-.3,0-.3,0" transform="translate(-181.905 -51.162)" fill="#263238"/><path d="M174.823,93.4h-20.6a5.325,5.325,0,0,1-5.325-5.325v-20.6a5.325,5.325,0,0,1,5.325-5.325h20.6a5.325,5.325,0,0,1,5.325,5.325v20.6a5.325,5.325,0,0,1-5.325,5.325" transform="translate(-72.544 -30.281)" fill="#fff"/><path d="M174.7,93.276a9.452,9.452,0,0,0,1.161-.158,5.313,5.313,0,0,0,2.815-1.71,5.124,5.124,0,0,0,1.107-2.118,11.265,11.265,0,0,0,.168-2.87c-.006-2.083-.013-4.454-.02-7.073s-.01-5.492-.016-8.573q0-1.155,0-2.35a9.064,9.064,0,0,0-.175-2.381,5.2,5.2,0,0,0-3.177-3.547,5.06,5.06,0,0,0-1.236-.306,11.288,11.288,0,0,0-1.306-.04l-2.692,0-5.551,0-11.673,0a5.23,5.23,0,0,0-2.756.8,4.952,4.952,0,0,0-1.1.923,4.845,4.845,0,0,0-.8,1.177,5.07,5.07,0,0,0-.45,1.34,7.273,7.273,0,0,0-.092,1.414q0,1.438,0,2.853c0,3.772-.005,7.409-.008,10.875q0,2.6-.006,5.064a13.254,13.254,0,0,0,.1,2.4,5.247,5.247,0,0,0,.938,2.079,5.191,5.191,0,0,0,3.7,2.074c1.411.05,2.8.018,4.1.032l12.414.043,3.375.025.878.013c.2,0,.3.014.3.014s-.1.009-.3.014l-.878.013-3.375.025-12.414.043c-1.314-.008-2.675.03-4.122-.016a5.4,5.4,0,0,1-3.858-2.146,5.472,5.472,0,0,1-.986-2.167,13.4,13.4,0,0,1-.113-2.442q0-2.463-.006-5.064c0-3.466-.005-7.1-.008-10.875q0-1.415,0-2.853a7.56,7.56,0,0,1,.1-1.462,5.326,5.326,0,0,1,.472-1.41,5.138,5.138,0,0,1,.841-1.238,5.229,5.229,0,0,1,1.154-.97,5.5,5.5,0,0,1,2.9-.837l11.673,0,5.551,0,2.692,0a11.58,11.58,0,0,1,1.336.044,5.32,5.32,0,0,1,1.294.323,5.439,5.439,0,0,1,3.316,3.718,9.245,9.245,0,0,1,.176,2.44q0,1.194,0,2.35c-.006,3.081-.011,5.951-.016,8.573s-.014,4.99-.019,7.073a11.3,11.3,0,0,1-.194,2.9,5.208,5.208,0,0,1-1.152,2.154,5.294,5.294,0,0,1-2.881,1.694,4.728,4.728,0,0,1-.873.1c-.2.006-.3,0-.3,0" transform="translate(-72.419 -30.154)" fill="#263238"/><path d="M359.977,136.854c0,.074-3.547.133-7.923.133s-7.924-.059-7.924-.133,3.546-.133,7.924-.133,7.923.059,7.923.133" transform="translate(-167.665 -66.612)" fill="#263238"/><rect width="3.943" height="3.019" transform="translate(81.333 53.72)" fill="#529d2e"/><rect width="3.943" height="9.981" transform="translate(86.324 46.758)" fill="#529d2e"/><rect width="3.943" height="5.684" transform="translate(91.808 51.055)" fill="#529d2e"/><rect width="3.943" height="12.878" transform="translate(97.045 43.862)" fill="#529d2e"/><path d="M160.073,94.967A1.963,1.963,0,1,1,162.036,93a1.966,1.966,0,0,1-1.963,1.963m0-3.413a1.45,1.45,0,1,0,1.45,1.45,1.452,1.452,0,0,0-1.45-1.45" transform="translate(-77.033 -44.356)" fill="#529d2e"/><path d="M171.073,80.4a1.963,1.963,0,1,1,1.963-1.963,1.965,1.965,0,0,1-1.963,1.963m0-3.413a1.45,1.45,0,1,0,1.45,1.45,1.452,1.452,0,0,0-1.45-1.45" transform="translate(-82.393 -37.261)" fill="#529d2e"/><path d="M181.023,89.626a1.963,1.963,0,1,1,1.963-1.962,1.965,1.965,0,0,1-1.963,1.962m0-3.413a1.45,1.45,0,1,0,1.45,1.45,1.452,1.452,0,0,0-1.45-1.45" transform="translate(-87.24 -41.755)" fill="#529d2e"/><path d="M191.655,76.255a1.963,1.963,0,1,1,1.963-1.963,1.965,1.965,0,0,1-1.963,1.963m0-3.413a1.45,1.45,0,1,0,1.45,1.45,1.452,1.452,0,0,0-1.45-1.45" transform="translate(-92.42 -35.24)" fill="#529d2e"/><rect width="5.508" height="0.513" transform="translate(94.698 44.657) rotate(-54.896)" fill="#529d2e"/><rect width="0.513" height="3.489" transform="translate(89.807 42.729) rotate(-43.726)" fill="#529d2e"/><rect width="5.797" height="0.513" transform="matrix(0.613, -0.79, 0.79, 0.613, 83.782, 47.07)" fill="#529d2e"/><path d="M191.333,122.4a1.494,1.494,0,1,1-1.494-1.494,1.494,1.494,0,0,1,1.494,1.494" transform="translate(-91.764 -58.905)" fill="#263238"/><path d="M264.315,70.285a1.494,1.494,0,1,1-1.494-1.494,1.495,1.495,0,0,1,1.494,1.494" transform="translate(-127.322 -33.516)" fill="#263238"/><path d="M373.474,135.561a1.494,1.494,0,1,1-1.494-1.494,1.494,1.494,0,0,1,1.494,1.494" transform="translate(-180.505 -65.319)" fill="#263238"/><path d="M338.639,91.636a1.494,1.494,0,1,1-1.494-1.494,1.494,1.494,0,0,1,1.494,1.494" transform="translate(-163.534 -43.918)" fill="#263238"/><path d="M188.7,26.437h-9.613a5.325,5.325,0,0,1-5.325-5.325V11.5a5.325,5.325,0,0,1,5.325-5.325H188.7a5.325,5.325,0,0,1,5.325,5.325v9.613a5.325,5.325,0,0,1-5.325,5.325" transform="translate(-84.659 -3.008)" fill="#fff"/><path d="M188.576,26.31c0-.017.253-.012.724-.082a5.094,5.094,0,0,0,1.942-.7,5.249,5.249,0,0,0,2.566-4.394c.012-.727,0-1.506,0-2.318-.005-1.628-.01-3.409-.016-5.32q0-.717,0-1.458a8.728,8.728,0,0,0-.073-1.483,4.812,4.812,0,0,0-.452-1.439,4.895,4.895,0,0,0-.875-1.278,5.235,5.235,0,0,0-2.764-1.558,8.353,8.353,0,0,0-1.673-.1l-1.739,0-7.244,0a5.195,5.195,0,0,0-5.081,4.109,8.025,8.025,0,0,0-.116,1.7q0,.861,0,1.707,0,1.688,0,3.3t-.006,3.143a12.8,12.8,0,0,0,.042,1.49,5.479,5.479,0,0,0,.36,1.376,5.255,5.255,0,0,0,3.91,3.121,15.9,15.9,0,0,0,2.3.091l2.07.01,3.314.023,2.095.025.545.013a.963.963,0,0,1,.186.014.962.962,0,0,1-.186.014l-.545.013-2.095.025-3.314.023-2.07.01a15.87,15.87,0,0,1-2.332-.075,5.45,5.45,0,0,1-4.082-3.221,5.679,5.679,0,0,1-.383-1.435,12.929,12.929,0,0,1-.05-1.518q0-1.528-.006-3.143t0-3.3q0-.845,0-1.707a8.238,8.238,0,0,1,.119-1.758,5.454,5.454,0,0,1,5.337-4.322l7.244,0,1.739,0a8.587,8.587,0,0,1,1.725.112,5.477,5.477,0,0,1,2.893,1.64,5.12,5.12,0,0,1,.912,1.341,5.033,5.033,0,0,1,.468,1.507,8.951,8.951,0,0,1,.07,1.52q0,.741,0,1.458c-.006,1.911-.011,3.693-.016,5.32-.006.814,0,1.586-.017,2.323a5.352,5.352,0,0,1-2.683,4.478,4.967,4.967,0,0,1-1.988.663,3.99,3.99,0,0,1-.731.029" transform="translate(-84.535 -2.881)" fill="#263238"/><path d="M190.363,21.165a2.489,2.489,0,0,0,1.483-2.3,2.339,2.339,0,1,0-4.668-.022,2.485,2.485,0,0,0,1.487,2.324c-3.592.541-3.428,4.445-3.428,4.445l8.493.039s.193-3.946-3.367-4.484" transform="translate(-90.249 -7.972)" fill="#455a64"/><path d="M193.73,25.65h-.012l-8.506-.039V25.6a5.594,5.594,0,0,1,.368-2.024,3.928,3.928,0,0,1,1.014-1.508,3.848,3.848,0,0,1,2.013-.919,2.488,2.488,0,0,1-1.454-2.318,2.568,2.568,0,0,1,.694-1.766,2.258,2.258,0,0,1,1.652-.725h.011a2.433,2.433,0,0,1,2.337,2.513,2.5,2.5,0,0,1-1.45,2.3,3.747,3.747,0,0,1,1.991.924,3.925,3.925,0,0,1,.994,1.521,5.751,5.751,0,0,1,.349,2.046Zm-8.493-.065,8.469.039a5.735,5.735,0,0,0-.349-2.023,3.877,3.877,0,0,0-.987-1.511,3.733,3.733,0,0,0-2.021-.924l-.045-.007.042-.018a2.467,2.467,0,0,0,1.475-2.29,2.407,2.407,0,0,0-2.311-2.487H189.5a2.233,2.233,0,0,0-1.633.717,2.542,2.542,0,0,0-.687,1.748,2.459,2.459,0,0,0,1.479,2.312l.042.018-.045.007a3.835,3.835,0,0,0-2.044.919,3.9,3.9,0,0,0-1.007,1.5,5.6,5.6,0,0,0-.367,2" transform="translate(-90.237 -7.961)" fill="#263238"/><path d="M395.4,207.66H382.979a5.325,5.325,0,0,1-5.325-5.325V189.917a5.325,5.325,0,0,1,5.325-5.325H395.4a5.325,5.325,0,0,1,5.325,5.325v12.418a5.325,5.325,0,0,1-5.325,5.325" transform="translate(-183.998 -89.936)" fill="#fff"/><path d="M395.273,207.533c0-.023.293,0,.836-.1a5.355,5.355,0,0,0,2.2-.917,5.291,5.291,0,0,0,2.064-3.075,9.7,9.7,0,0,0,.142-2.362q0-1.271-.01-2.682c-.005-1.881-.01-3.941-.016-6.151q0-.829,0-1.686a8.9,8.9,0,0,0-.093-1.714,5.2,5.2,0,0,0-1.744-3.012,5.263,5.263,0,0,0-3.432-1.242l-3.982,0-8.375,0a5.2,5.2,0,0,0-5.2,5.2c0,2.705-.005,5.315-.008,7.8q0,1.864-.006,3.633a12.314,12.314,0,0,0,.057,1.721,4.869,4.869,0,0,0,.486,1.569,5.255,5.255,0,0,0,2.125,2.241,5.409,5.409,0,0,0,2.786.67l8.907.043,2.421.025.63.013a1.279,1.279,0,0,1,.214.014,1.28,1.28,0,0,1-.214.014l-.63.013-2.421.025-8.907.043a5.6,5.6,0,0,1-2.886-.679,5.456,5.456,0,0,1-2.222-2.321,5.083,5.083,0,0,1-.514-1.635,12.527,12.527,0,0,1-.066-1.754q0-1.767-.006-3.633c0-2.487-.005-5.1-.008-7.8a5.461,5.461,0,0,1,5.458-5.471l8.375,0,3.982,0a5.513,5.513,0,0,1,3.592,1.31,5.434,5.434,0,0,1,1.816,3.157,9.119,9.119,0,0,1,.09,1.756q0,.857,0,1.686c-.006,2.21-.011,4.269-.016,6.151q0,1.41-.009,2.682a9.763,9.763,0,0,1-.167,2.4,5.376,5.376,0,0,1-2.15,3.124,5.256,5.256,0,0,1-2.249.886,3.853,3.853,0,0,1-.63.049,1.264,1.264,0,0,1-.215,0" transform="translate(-183.874 -89.809)" fill="#263238"/><path d="M190.058,197.575H177.64a5.325,5.325,0,0,1-5.325-5.325V179.832a5.325,5.325,0,0,1,5.325-5.325h12.418a5.325,5.325,0,0,1,5.325,5.325V192.25a5.325,5.325,0,0,1-5.325,5.325" transform="translate(-83.954 -85.022)" fill="#fff"/><path d="M189.934,197.448c0-.023.293,0,.836-.1a5.356,5.356,0,0,0,2.2-.917,5.291,5.291,0,0,0,2.064-3.075,9.706,9.706,0,0,0,.142-2.362q0-1.271-.01-2.682c-.005-1.881-.01-3.941-.016-6.151q0-.828,0-1.686a8.89,8.89,0,0,0-.093-1.713,5.2,5.2,0,0,0-1.744-3.012,5.26,5.26,0,0,0-3.432-1.242l-3.982,0-8.375,0a5.2,5.2,0,0,0-5.2,5.2c0,2.705-.005,5.315-.008,7.8q0,1.864-.006,3.633a12.318,12.318,0,0,0,.057,1.721,4.868,4.868,0,0,0,.486,1.569,5.255,5.255,0,0,0,2.124,2.241,5.41,5.41,0,0,0,2.786.67l8.907.043,2.421.025.63.013a1.28,1.28,0,0,1,.214.014,1.276,1.276,0,0,1-.214.014l-.63.013-2.421.025-8.907.043a5.6,5.6,0,0,1-2.886-.679,5.456,5.456,0,0,1-2.222-2.321,5.082,5.082,0,0,1-.514-1.635,12.439,12.439,0,0,1-.066-1.754q0-1.767-.006-3.633c0-2.487-.005-5.1-.008-7.8a5.461,5.461,0,0,1,5.458-5.471l8.375,0,3.982,0a5.514,5.514,0,0,1,3.592,1.31,5.434,5.434,0,0,1,1.816,3.157,9.124,9.124,0,0,1,.09,1.756q0,.857,0,1.686c-.006,2.21-.011,4.269-.016,6.151q0,1.41-.009,2.682a9.76,9.76,0,0,1-.167,2.4,5.376,5.376,0,0,1-2.15,3.124,5.255,5.255,0,0,1-2.249.886,3.789,3.789,0,0,1-.63.049,1.235,1.235,0,0,1-.215,0" transform="translate(-83.83 -84.895)" fill="#263238"/><path d="M191.213,191.574a2.833,2.833,0,0,0,1.688-2.621,2.663,2.663,0,1,0-5.314-.025,2.828,2.828,0,0,0,1.693,2.645c-4.089.616-3.9,5.06-3.9,5.06l9.669.044s.22-4.492-3.833-5.1" transform="translate(-90.317 -90.674)" fill="#529d2e"/><path d="M254.848,38.181a5.7,5.7,0,1,1,5.427-3.949,5.667,5.667,0,0,1-5.427,3.949m.008-10.371a4.673,4.673,0,1,0,1.432.226,4.68,4.68,0,0,0-1.432-.226" transform="translate(-121.391 -13.05)" fill="#263238"/><path d="M270.455,50.327a.511.511,0,0,1-.378-.166l-4.235-4.611a.513.513,0,0,1,.756-.693l4.235,4.611a.513.513,0,0,1-.377.859" transform="translate(-129.456 -21.773)" fill="#263238"/><path d="M395.84,136.195a9.5,9.5,0,1,1,9.5-9.5,9.515,9.515,0,0,1-9.5,9.5m0-18.5a8.991,8.991,0,1,0,8.991,8.992,9,9,0,0,0-8.991-8.992" transform="translate(-188.228 -57.095)" fill="#529d2e"/><path d="M399.874,136.188a8.889,8.889,0,0,1-2.437-2.243,11.231,11.231,0,0,1-2.224-7.423,11.65,11.65,0,0,1,2.6-7.228,8.394,8.394,0,0,1,2.439-2.056l.227.46c-.045.022-4.516,2.312-4.757,8.843a10.1,10.1,0,0,0,4.4,9.2Z" transform="translate(-192.548 -57.12)" fill="#529d2e"/><path d="M404.579,136.179l-.27-.436a10.683,10.683,0,0,0,4.251-9.4c-.239-6.526-4.521-8.625-4.564-8.646l.218-.464c.188.088,4.607,2.238,4.859,9.09a11.2,11.2,0,0,1-4.494,9.855" transform="translate(-196.832 -57.118)" fill="#529d2e"/><path d="M397.767,127.177a12.258,12.258,0,0,1-7.733-2.4l.315-.4a11.752,11.752,0,0,0,7.418,2.295,10.962,10.962,0,0,0,7.129-2.283l.325.4a11.467,11.467,0,0,1-7.454,2.4" transform="translate(-190.03 -60.594)" fill="#529d2e"/><path d="M404.934,143.919a12,12,0,0,0-7.422-2.227,11.185,11.185,0,0,0-7.132,2.215l-.318-.4a11.691,11.691,0,0,1,7.451-2.326,12.5,12.5,0,0,1,7.731,2.331Z" transform="translate(-190.043 -68.785)" fill="#529d2e"/><rect width="18.278" height="0.513" transform="translate(198.594 69.367)" fill="#529d2e"/><g transform="matrix(1, 0, 0, 1, 0, 0)" filter="url(#h)"><rect width="13.004" height="13.004" transform="translate(164.18 141.73)" fill="#fff"/></g><g transform="matrix(1, 0, 0, 1, 0, 0)" filter="url(#j)"><rect width="13.392" height="1.113" transform="translate(180.46 142.52)" fill="#fff"/></g><g transform="matrix(1, 0, 0, 1, 0, 0)" filter="url(#l)"><rect width="13.392" height="1.113" transform="translate(180.46 145.09)" fill="#fff"/></g><g transform="matrix(1, 0, 0, 1, 0, 0)" filter="url(#n)"><rect width="13.392" height="1.113" transform="translate(180.46 147.66)" fill="#fff"/></g><g transform="matrix(1, 0, 0, 1, 0, 0)" filter="url(#p)"><rect width="13.392" height="1.113" transform="translate(180.46 150.23)" fill="#fff"/></g><g transform="matrix(1, 0, 0, 1, 0, 0)" filter="url(#r)"><rect width="13.392" height="1.113" transform="translate(180.46 152.8)" fill="#fff"/></g><g transform="matrix(1, 0, 0, 1, 0, 0)" filter="url(#t)"><path d="M349.019,261.243H313.5v-5.131a3.564,3.564,0,0,1,3.564-3.564H345.4a3.616,3.616,0,0,1,3.616,3.616Z" transform="translate(-152.74 -123.04)" fill="#fff"/></g><path d="M345.579,283.672a3.848,3.848,0,0,0,1.255-.276,3.327,3.327,0,0,0,1.24-.921,3.239,3.239,0,0,0,.757-1.938c-.008-3.242-.019-7.918-.033-13.692,0-2.892-.01-6.059-.016-9.457q0-.638,0-1.286a3.794,3.794,0,0,0-.142-1.26,3.242,3.242,0,0,0-2.871-2.29c-.441-.024-.916-.006-1.378-.011l-2.831,0-24.872.01a3.241,3.241,0,0,0-1.522.373,3.206,3.206,0,0,0-1.145,1.055,3.108,3.108,0,0,0-.5,1.463c-.025.52-.007,1.074-.013,1.607q0,3.223,0,6.346c0,4.16-.005,8.174-.008,12q0,1.434,0,2.831,0,.7,0,1.388a6.719,6.719,0,0,0,.064,1.34,3.266,3.266,0,0,0,2.583,2.548,6.759,6.759,0,0,0,1.261.061l9.458.016,13.694.043,3.723.025.969.013c.218,0,.33.014.33.014s-.112.009-.33.014l-.969.013-3.723.025-13.694.043-9.458.016a6.945,6.945,0,0,1-1.3-.061A3.491,3.491,0,0,1,313.331,281a6.893,6.893,0,0,1-.072-1.387q0-.689,0-1.388,0-1.4,0-2.831c0-3.823-.005-7.836-.008-12q0-3.121,0-6.346c.006-.542-.014-1.066.013-1.627a3.38,3.38,0,0,1,.538-1.588,3.4,3.4,0,0,1,2.891-1.55l24.872.011,2.831,0c.469.006.919-.012,1.4.014a3.475,3.475,0,0,1,3.072,2.46A4.024,4.024,0,0,1,349,256.1q0,.648,0,1.286c-.006,3.4-.011,6.566-.016,9.457-.016,5.784-.017,10.459-.052,13.7a3.337,3.337,0,0,1-2.08,2.9,3.374,3.374,0,0,1-.945.224c-.219.007-.331,0-.331,0" transform="translate(-152.616 -122.917)" fill="#263238"/><path d="M349.083,251.127a1.494,1.494,0,1,1-1.494-1.494,1.495,1.495,0,0,1,1.494,1.494" transform="translate(-168.622 -121.624)" fill="#263238"/><path d="M389.118,206.17a7.426,7.426,0,0,0,11.424-6.594,5.3,5.3,0,0,0,1.3-1.352,5.22,5.22,0,0,1-1.5.411,2.613,2.613,0,0,0,1.148-1.445,5.219,5.219,0,0,1-1.657.634,2.613,2.613,0,0,0-4.45,2.382A7.409,7.409,0,0,1,390,197.477a2.614,2.614,0,0,0,.808,3.486,2.6,2.6,0,0,1-1.183-.327,2.615,2.615,0,0,0,2.094,2.594,2.612,2.612,0,0,1-1.179.044,2.613,2.613,0,0,0,2.439,1.814,5.25,5.25,0,0,1-3.866,1.081" transform="translate(-189.583 -95.981)" fill="#455a64"/><path d="M339.6,57.144a4.1,4.1,0,0,1-3.818,5.436h-14.81a3.635,3.635,0,0,1-3.463-5.014,3.917,3.917,0,0,1,4.249-2.308,6.724,6.724,0,0,1,13.016-1.432s3.816-.207,4.826,3.317" transform="translate(-154.565 -24.04)" fill="#529d2e"/><path d="M334,69.35V63.664h-2.227a.322.322,0,0,1-.263-.508l3.666-5.174a.322.322,0,0,1,.525,0l3.662,5.132a.322.322,0,0,1-.262.509h-2.168V69.35Z" transform="translate(-161.488 -28.184)" fill="#fff"/></g><g clip-path="url(#a)"><path d="M292.895,204.74,286.2,181.18H227.693l-7.624,23.481a2.2,2.2,0,0,0,2.067,2.889h26.723l1.082-1.082h12.622l1.082,1.082H290.8a2.2,2.2,0,0,0,2.09-2.81" transform="translate(-107.167 -88.273)" fill="#e0e0e0"/><g transform="translate(112.792 92.906)" opacity="0.3"><g clip-path="url(#w)"><path d="M292.895,204.74,286.2,181.18H227.693l-7.624,23.481a2.2,2.2,0,0,0,2.067,2.889h26.723l1.082-1.082h12.622l1.082,1.082H290.8a2.2,2.2,0,0,0,2.09-2.81" transform="translate(-219.959 -181.179)"/></g></g><path d="M234.991,144.795V110.226a2.474,2.474,0,0,1,2.467-2.481h53.765a2.474,2.474,0,0,1,2.467,2.481v34.569Z" transform="translate(-114.491 -52.495)" fill="#e0e0e0"/><rect width="51.6" height="30.74" transform="translate(124.05 58.671)" fill="#fff"/><path d="M293.386,145.028s-.007-.193-.011-.558-.006-.911-.011-1.615c-.006-1.419-.015-3.5-.026-6.161-.013-5.328-.032-13-.055-22.406l.1.1-51.6.03h0l.133-.134c0,10.887-.007,21.28-.01,30.74l-.124-.124,37.112.061,10.656.034,2.842.015.735.008c.166,0,.254.007.254.007s-.078.005-.24.007l-.721.008-2.817.015-10.628.034-37.194.061h-.124v-.124c0-9.46-.006-19.853-.01-30.74v-.133h.137l51.6.03h.1v.1c-.023,9.433-.042,17.126-.055,22.47-.011,2.654-.02,4.723-.026,6.138q-.008,1.043-.011,1.6c0,.358-.011.537-.011.537" transform="translate(-117.736 -55.618)" fill="#263238"/><path d="M292.273,110.367a.951.951,0,1,1-.951-.933.942.942,0,0,1,.951.933" transform="translate(-141.473 -53.318)" fill="#263238"/><path d="M292.895,203.041l-6.693-23.56H227.693l-7.624,23.481a2.2,2.2,0,0,0,2.067,2.889h26.723l1.082-1.082h12.622l1.082,1.082H290.8a2.2,2.2,0,0,0,2.09-2.81" transform="translate(-107.167 -87.445)" fill="#e0e0e0"/><path d="M287.574,182.264l-50.992-.172a1.185,1.185,0,0,0-1.151.71l-4.088,11.6c-.222.631.351,1.261,1.147,1.261h59c.792,0,1.365-.626,1.149-1.254l-3.927-11.424a1.182,1.182,0,0,0-1.144-.716" transform="translate(-112.69 -88.717)" fill="#ebebeb"/><g transform="translate(137.657 108.28)" opacity="0.1"><g clip-path="url(#x)"><path d="M289.838,218.676H269.711a1.356,1.356,0,0,1-1.221-1.727l1.137-4.759a1.287,1.287,0,0,1,1.221-1.03h17.979a1.291,1.291,0,0,1,1.229,1.067l1.011,4.759a1.353,1.353,0,0,1-1.229,1.69" transform="translate(-268.448 -211.16)"/></g></g><path d="M305.868,187l-.524-2.427a.362.362,0,0,0-.354-.286H301.85a.362.362,0,0,0-.358.413l.347,2.431a.362.362,0,0,0,.359.311l3.316,0a.362.362,0,0,0,.353-.438" transform="translate(-146.889 -89.788)" fill="#263238"/><path d="M287.634,187.06l-.224-2.439a.363.363,0,0,0-.361-.329h-3.208a.362.362,0,0,0-.361.375l.09,2.444a.362.362,0,0,0,.363.349l3.341,0a.362.362,0,0,0,.361-.395" transform="translate(-138.115 -89.789)" fill="#263238"/><path d="M296.765,187.034l-.347-2.433a.362.362,0,0,0-.358-.311h-3.691a.362.362,0,0,0-.361.395l.224,2.438a.362.362,0,0,0,.361.329l3.815-.005a.362.362,0,0,0,.358-.413" transform="translate(-142.269 -89.789)" fill="#263238"/><path d="M251.7,187.1l.5-2.216a.487.487,0,0,0-.475-.593h-3.041a.487.487,0,0,0-.468.353l-.634,2.22a.487.487,0,0,0,.469.62l3.179,0a.487.487,0,0,0,.474-.38" transform="translate(-120.612 -89.788)" fill="#263238"/><path d="M334.8,186.927l-.923-2.4a.362.362,0,0,0-.338-.232h-5.966a.362.362,0,0,0-.339.488l.9,2.412a.362.362,0,0,0,.34.235l5.992-.008a.362.362,0,0,0,.337-.492" transform="translate(-159.422 -89.789)" fill="#263238"/><path d="M278.171,184.291H274.7a.362.362,0,0,0-.362.345l-.118,2.451a.361.361,0,0,0,.362.379l3.678,0a.362.362,0,0,0,.361-.375l-.09-2.446a.362.362,0,0,0-.362-.349" transform="translate(-133.604 -89.789)" fill="#263238"/><path d="M243.364,184.291h-2.419a.487.487,0,0,0-.458.323l-.8,2.225a.487.487,0,0,0,.459.651l2.582,0a.486.486,0,0,0,.468-.353l.635-2.222a.487.487,0,0,0-.468-.62" transform="translate(-116.765 -89.789)" fill="#263238"/><path d="M260.548,187.158l.321-2.459a.362.362,0,0,0-.358-.409h-3.087a.363.363,0,0,0-.353.283l-.551,2.463a.362.362,0,0,0,.354.442l3.317-.005a.362.362,0,0,0,.358-.315" transform="translate(-124.975 -89.788)" fill="#263238"/><path d="M265.583,184.605l-.321,2.457a.362.362,0,0,0,.359.409l3.435-.005a.362.362,0,0,0,.361-.345l.118-2.453a.362.362,0,0,0-.362-.379h-3.232a.362.362,0,0,0-.359.315" transform="translate(-129.238 -89.788)" fill="#263238"/><path d="M314.7,186.97l-.717-2.42a.362.362,0,0,0-.347-.259h-3.346a.362.362,0,0,0-.354.438l.524,2.424a.362.362,0,0,0,.354.286l3.54,0a.362.362,0,0,0,.347-.465" transform="translate(-150.999 -89.789)" fill="#263238"/><path d="M323.479,186.94l-.9-2.414a.362.362,0,0,0-.339-.236h-3.073a.362.362,0,0,0-.347.465l.717,2.418a.362.362,0,0,0,.348.259l3.254,0a.362.362,0,0,0,.339-.488" transform="translate(-155.327 -89.788)" fill="#263238"/><path d="M278.134,191.548h-3.786a.362.362,0,0,0-.361.345l-.122,2.529a.362.362,0,0,0,.362.379l4-.005a.362.362,0,0,0,.361-.375L278.5,191.9a.362.362,0,0,0-.362-.349" transform="translate(-133.43 -93.324)" fill="#263238"/><path d="M325.943,194.277l-.927-2.488a.362.362,0,0,0-.338-.236h-3.355a.362.362,0,0,0-.347.465l.739,2.493a.363.363,0,0,0,.348.259l3.542,0a.362.362,0,0,0,.339-.488" transform="translate(-156.376 -93.327)" fill="#263238"/><path d="M316.586,194.307l-.74-2.495a.362.362,0,0,0-.347-.259h-3.646a.362.362,0,0,0-.354.438l.54,2.5a.362.362,0,0,0,.354.285l3.846,0a.362.362,0,0,0,.347-.465" transform="translate(-151.762 -93.327)" fill="#263238"/><path d="M264.654,194.806l3.748-.005a.362.362,0,0,0,.361-.344l.122-2.531a.362.362,0,0,0-.361-.379h-3.539a.361.361,0,0,0-.359.315l-.331,2.536a.362.362,0,0,0,.359.409" transform="translate(-128.766 -93.324)" fill="#263238"/><path d="M284.2,194.794l3.55,0a.362.362,0,0,0,.36-.4l-.231-2.516a.363.363,0,0,0-.361-.329h-3.412a.362.362,0,0,0-.361.375l.093,2.522a.362.362,0,0,0,.362.349" transform="translate(-138.245 -93.325)" fill="#263238"/><path d="M292.673,191.945l.231,2.515a.362.362,0,0,0,.361.329l4.008-.006a.362.362,0,0,0,.358-.413l-.358-2.509a.362.362,0,0,0-.358-.311h-3.881a.362.362,0,0,0-.361.395" transform="translate(-142.593 -93.326)" fill="#263238"/><path d="M307.192,194.339l-.541-2.5a.362.362,0,0,0-.354-.285h-3.412a.362.362,0,0,0-.358.413l.358,2.508a.361.361,0,0,0,.359.311l3.595,0a.362.362,0,0,0,.353-.438" transform="translate(-147.394 -93.326)" fill="#263238"/><path d="M245.891,191.543h-7.56a.362.362,0,0,0-.338.232l-.984,2.556a.362.362,0,0,0,.338.492l7.974-.01a.363.363,0,0,0,.353-.283l.57-2.545a.362.362,0,0,0-.353-.441" transform="translate(-115.462 -93.322)" fill="#263238"/><path d="M255.215,194.812l3.671,0a.362.362,0,0,0,.358-.315l.332-2.538a.362.362,0,0,0-.359-.409h-3.433a.362.362,0,0,0-.353.283l-.569,2.543a.362.362,0,0,0,.354.441" transform="translate(-124.168 -93.323)" fill="#263238"/><path d="M338.367,194.761l2.363,0a.362.362,0,0,0,.336-.5l-1-2.478a.362.362,0,0,0-.336-.227h-2.173a.362.362,0,0,0-.344.473l.8,2.481a.362.362,0,0,0,.345.25" transform="translate(-164.288 -93.329)" fill="#263238"/><path d="M333.944,194.289l-.805-2.483a.361.361,0,0,0-.344-.25h-2.517a.362.362,0,0,0-.339.488l.926,2.487a.362.362,0,0,0,.339.236l2.4,0a.362.362,0,0,0,.344-.474" transform="translate(-160.739 -93.328)" fill="#263238"/><path d="M263.8,202.675l3.716.006a.545.545,0,0,0,.545-.519l.128-2.641a.545.545,0,0,0-.545-.571h-3.5a.545.545,0,0,0-.54.475l-.344,2.635a.545.545,0,0,0,.539.616" transform="translate(-128.261 -96.931)" fill="#263238"/><path d="M339.075,198.951H333.37a.545.545,0,0,0-.511.735l1,2.695a.545.545,0,0,0,.51.355l5.757.009a.545.545,0,0,0,.509-.743l-1.054-2.7a.545.545,0,0,0-.508-.347" transform="translate(-162.156 -96.931)" fill="#263238"/><path d="M253.689,199.376,253.1,202a.545.545,0,0,0,.531.664l3.676.006a.545.545,0,0,0,.542-.474l.344-2.633a.546.546,0,0,0-.54-.616h-3.432a.545.545,0,0,0-.532.426" transform="translate(-123.308 -96.931)" fill="#263238"/><path d="M243.777,199.354,243,202.067a.47.47,0,0,0,.451.6l3.754.006a.471.471,0,0,0,.46-.368l.619-2.766a.47.47,0,0,0-.465-.573l-3.6.047a.47.47,0,0,0-.446.341" transform="translate(-118.385 -96.939)" fill="#263238"/><path d="M313.186,199.611l.578,2.678a.545.545,0,0,0,.532.43l3.806.006a.545.545,0,0,0,.524-.7l-.8-2.684a.545.545,0,0,0-.523-.39h-3.588a.545.545,0,0,0-.533.66" transform="translate(-152.582 -96.931)" fill="#263238"/><path d="M273.607,199.469l-.128,2.643a.545.545,0,0,0,.544.571l19.373.032a.545.545,0,0,0,.534-.66l-.578-2.675a.545.545,0,0,0-.533-.43H274.152a.545.545,0,0,0-.545.519" transform="translate(-133.242 -96.931)" fill="#263238"/><path d="M235.256,199.234l-1.044,2.836a.432.432,0,0,0,.405.582l3.147.005a.432.432,0,0,0,.416-.313l.812-2.841a.432.432,0,0,0-.415-.551h-2.916a.432.432,0,0,0-.406.283" transform="translate(-114.098 -96.931)" fill="#263238"/><path d="M323.3,199.651l.8,2.686a.544.544,0,0,0,.522.39l3.474.006A.545.545,0,0,0,328.6,202l-1-2.692a.546.546,0,0,0-.511-.355H323.82a.545.545,0,0,0-.523.7" transform="translate(-157.504 -96.931)" fill="#263238"/><path d="M293.88,179.526c0,.074-13.117.133-29.293.133s-29.3-.059-29.3-.133,13.113-.133,29.3-.133,29.293.059,29.293.133" transform="translate(-114.637 -87.403)" fill="#263238"/><path d="M265.722,128.25a7.832,7.832,0,0,1,1.768-1.1l.11-1.93,3.154-.528.732,1.789a7.834,7.834,0,0,1,2.032.468l1.441-1.286,2.6,1.857-.746,1.781a7.819,7.819,0,0,1,1.1,1.769l1.93.11.528,3.154-1.788.733a7.858,7.858,0,0,1-.468,2.031l1.286,1.441-1.856,2.6-1.782-.746A7.832,7.832,0,0,1,274,141.5l-.11,1.93-3.154.528-.733-1.789a7.838,7.838,0,0,1-2.032-.468l-1.441,1.286-2.6-1.856.747-1.782a7.836,7.836,0,0,1-1.1-1.768l-1.93-.11-.528-3.154,1.789-.733a7.83,7.83,0,0,1,.468-2.031l-1.287-1.442,1.857-2.6Zm2.315,3.96a3.43,3.43,0,1,0,4.784-.8,3.43,3.43,0,0,0-4.784.8" transform="translate(-127.218 -60.75)" fill="#f5f5f5"/><path d="M301.024,145.006a5.316,5.316,0,0,1,1.2-.748l.074-1.307,2.135-.357.5,1.211a5.324,5.324,0,0,1,1.376.317l.976-.871,1.762,1.257-.505,1.207a5.308,5.308,0,0,1,.748,1.2l1.306.074.358,2.135-1.211.5a5.281,5.281,0,0,1-.317,1.375l.871.976-1.257,1.762-1.207-.505a5.289,5.289,0,0,1-1.2.747l-.074,1.307-2.135.358-.5-1.211a5.3,5.3,0,0,1-1.375-.317l-.976.871-1.762-1.257.505-1.206a5.309,5.309,0,0,1-.748-1.2l-1.307-.074-.357-2.135,1.211-.5a5.3,5.3,0,0,1,.316-1.375l-.871-.976,1.257-1.762Zm1.568,2.681a2.322,2.322,0,1,0,3.239-.543,2.322,2.322,0,0,0-3.239.543" transform="translate(-145.143 -69.474)" fill="#f5f5f5"/><path d="M299.412,120.92a4.706,4.706,0,0,1,1.059-.661l.066-1.157,1.89-.316.439,1.072a4.733,4.733,0,0,1,1.217.28l.864-.771,1.56,1.113-.447,1.068a4.7,4.7,0,0,1,.662,1.06l1.156.066.316,1.89-1.072.439a4.687,4.687,0,0,1-.281,1.217l.771.864-1.113,1.56-1.068-.448a4.7,4.7,0,0,1-1.06.662l-.066,1.156-1.89.317-.439-1.072a4.691,4.691,0,0,1-1.217-.281l-.864.771-1.56-1.113.447-1.068a4.686,4.686,0,0,1-.662-1.059l-1.156-.066-.316-1.89,1.072-.439A4.687,4.687,0,0,1,298,122.9l-.771-.864,1.112-1.56Zm1.388,2.374a2.056,2.056,0,1,0,2.868-.48,2.056,2.056,0,0,0-2.868.48" transform="translate(-144.532 -57.874)" fill="#f5f5f5"/></g><path d="M328.443,154.435l1.918,4.924.8-1.292,1.108,1.455,1.321-1.256-1.259-1.213,1.161-.786Z" transform="translate(-160.022 -75.243)" fill="#fcd03e"/><g clip-path="url(#a)"><path d="M325.672,155.854a5.209,5.209,0,0,1-.7.485,5.123,5.123,0,0,1-.737.425,10.4,10.4,0,0,1,1.436-.91" transform="translate(-157.972 -75.934)" fill="#263238"/><path d="M325.412,153.158a1.35,1.35,0,0,1-.308-.082c-.187-.059-.443-.151-.721-.264s-.526-.224-.7-.307a1.439,1.439,0,0,1-.282-.149,1.439,1.439,0,0,1,.3.1l.71.288.712.282a1.546,1.546,0,0,1,.291.128" transform="translate(-157.564 -74.23)" fill="#263238"/><path d="M328.45,149.561a1.085,1.085,0,0,1,.07.272c.033.169.072.405.1.667s.053.5.063.672a1.077,1.077,0,0,1,0,.281,9.2,9.2,0,0,1-.132-.944,9.379,9.379,0,0,1-.1-.947" transform="translate(-160.024 -72.868)" fill="#263238"/><path d="M332.228,151.708c.008.02-.347.173-.747.429s-.716.48-.729.463a.881.881,0,0,1,.191-.169c.124-.1.3-.226.5-.353a2.613,2.613,0,0,1,.785-.369" transform="translate(-161.146 -73.913)" fill="#263238"/><path d="M284.726,142.251H249.878a3.24,3.24,0,0,1-3.239-3.24v-.306a3.24,3.24,0,0,1,3.239-3.24h34.847a3.24,3.24,0,0,1,3.239,3.24v.306a3.24,3.24,0,0,1-3.239,3.24" transform="translate(-120.166 -66)" fill="#fff"/><path d="M309.375,135.345v6.848h5.774a3.424,3.424,0,0,0,0-6.848Z" transform="translate(-150.732 -65.942)" fill="#fcd03e"/><path d="M317.072,140.25a3.078,3.078,0,0,0-.058-.35,1.44,1.44,0,0,0-.528-.779,1.416,1.416,0,0,0-1.341-.2,1.413,1.413,0,0,0-.655.493,1.406,1.406,0,0,0,0,1.668,1.412,1.412,0,0,0,.655.493,1.424,1.424,0,0,0,.743.064,1.409,1.409,0,0,0,.6-.262,1.44,1.44,0,0,0,.528-.779,3.078,3.078,0,0,0,.058-.35,1.122,1.122,0,0,1-.032.356A1.459,1.459,0,0,1,315.9,141.7a1.471,1.471,0,0,1-.776-.061,1.48,1.48,0,0,1-.689-.513,1.469,1.469,0,0,1,0-1.75,1.377,1.377,0,0,1,.313-.313,1.394,1.394,0,0,1,.375-.2,1.477,1.477,0,0,1,.776-.061,1.459,1.459,0,0,1,1.141,1.092,1.122,1.122,0,0,1,.032.356" transform="translate(-153.056 -67.613)" fill="#fff"/><path d="M320.927,144.489a14.189,14.189,0,0,1-1.625-1.164,14.309,14.309,0,0,1,1.625,1.164" transform="translate(-155.568 -69.83)" fill="#fff"/><rect width="25.263" height="1.452" transform="translate(130.403 72.222)" fill="#ebebeb"/><path d="M284.715,142.218s.079-.007.234-.015a2.043,2.043,0,0,0,.285-.036,2.983,2.983,0,0,0,.388-.088,3.267,3.267,0,0,0,.991-.5l.134-.1c.044-.037.086-.077.13-.117a2.654,2.654,0,0,0,.256-.263c.088-.092.157-.2.24-.31l.106-.176.054-.09.046-.1a3.116,3.116,0,0,0,.284-.855l.036-.238c0-.081.008-.163.013-.246.007-.166.006-.338,0-.511a3.2,3.2,0,0,0-3.1-3.12c-.923-.009-1.9,0-2.926,0l-32.064.01a3.2,3.2,0,0,0-2.11.8,3.147,3.147,0,0,0-1.045,1.968,2.248,2.248,0,0,0-.023.282c-.006.093-.008.188-.006.284a5.39,5.39,0,0,0,.023.564,3.081,3.081,0,0,0,.319,1.065,3.158,3.158,0,0,0,2.628,1.741c.179.013.363.011.545.011h2.7l4.167,0,14.415.007,9.718.011,2.642.007.687,0c.155,0,.234,0,.234,0s-.079,0-.234,0l-.687,0-2.642.007-9.718.011-14.415.007-4.167,0h-2.7c-.182,0-.364,0-.549-.011a3.306,3.306,0,0,1-1.077-.258,3.273,3.273,0,0,1-1.608-1.52,3.141,3.141,0,0,1-.327-1.088,5.623,5.623,0,0,1-.023-.572c0-.095,0-.19.007-.287a2.344,2.344,0,0,1,.023-.287,3.221,3.221,0,0,1,1.068-2.012,3.271,3.271,0,0,1,2.157-.82l32.064.01c1.026,0,2,0,2.927.008a3.234,3.234,0,0,1,3.13,3.164c0,.175.006.345,0,.513,0,.084-.009.167-.013.248s-.025.161-.037.241a3.143,3.143,0,0,1-.289.861l-.047.1-.055.09-.108.177c-.084.107-.155.219-.244.311a2.629,2.629,0,0,1-.259.264c-.044.04-.087.08-.131.117l-.136.1a3.266,3.266,0,0,1-1,.494,2.911,2.911,0,0,1-.39.085,2.074,2.074,0,0,1-.287.032c-.155.007-.234.008-.234.008" transform="translate(-120.132 -65.967)" fill="#263238"/></g><g clip-path="url(#a)"><path d="M67.935,116.971c-2.344-1.44-2.955-4.852-1.732-7.316a8.973,8.973,0,0,1,6.581-4.467,12.661,12.661,0,0,1,10.96,3.455c1.522,1.521,2.765,3.517,4.808,4.195,1.8.6,3.763.006,5.643.221a8.509,8.509,0,0,1,6.022,4.209,18.369,18.369,0,0,1,2.225,7.216c.307,2.307.525,4.84,2.153,6.5,1.587,1.622,4.062,1.934,6.023,3.076a8.182,8.182,0,0,1,2.594,11.139c-.753,1.134-1.843,2.18-1.912,3.539-.064,1.241.754,2.334,1.147,3.513a5.524,5.524,0,0,1-4.625,6.927c-1.611.116-3.348-.487-4.783.255s-1.935,2.477-2.834,3.806a6.908,6.908,0,0,1-8.388,2.3c-1.194-.565-2.329-1.509-3.645-1.4s-2.334,1.246-3.624,1.516c-1.69.352-3.317-.872-4.345-2.259s-1.754-3.027-3.061-4.155c-1.71-1.477-4.088-1.814-6.235-2.518a17.484,17.484,0,0,1-10.231-24.345" transform="translate(-28.695 -51.161)" fill="#263238"/><path d="M124.463,185.5a4.745,4.745,0,0,1,1.867-1.268l-.144-.007a2.771,2.771,0,0,1,.4-.074,1.873,1.873,0,0,1,1.475.16h-.014a3.489,3.489,0,0,1,1.931,1.632,4.127,4.127,0,0,1-.424,4.259,3.154,3.154,0,0,1-5.8-1,3.916,3.916,0,0,1,.709-3.7" transform="translate(-60.206 -89.684)" fill="#455a64"/><path d="M63.393,184.677,60.263,139.41a3.847,3.847,0,0,1,3.27-4.045l20.17-6.032c6.5-.972,11.189,6.883,11.884,13.419.772,7.262,1.429,16.158.8,21.628-1.265,11-10.235,12.794-10.235,12.794,0-.037.1,11.181.222,15.152L89.051,204.6Z" transform="translate(-29.357 -62.972)" fill="#ffc09d"/><path d="M118.772,172.774a1.4,1.4,0,0,1-1.29,1.472,1.342,1.342,0,0,1-1.5-1.2,1.4,1.4,0,0,1,1.289-1.472,1.342,1.342,0,0,1,1.5,1.2" transform="translate(-56.507 -83.589)" fill="#263238"/><path d="M120.39,162.047c-.166.19-1.261-.55-2.769-.48-1.507.047-2.58.87-2.752.693-.084-.078.079-.416.546-.787a3.847,3.847,0,0,1,2.193-.781,3.7,3.7,0,0,1,2.213.611c.479.336.65.66.568.745" transform="translate(-55.956 -78.29)" fill="#263238"/><path d="M92.3,173.673a1.4,1.4,0,0,1-1.29,1.472,1.341,1.341,0,0,1-1.5-1.2,1.4,1.4,0,0,1,1.289-1.473,1.342,1.342,0,0,1,1.5,1.2" transform="translate(-43.609 -84.027)" fill="#263238"/><path d="M91.514,163.84c-.166.19-1.263-.549-2.77-.48-1.507.047-2.58.87-2.751.693-.084-.078.077-.415.546-.787a3.851,3.851,0,0,1,2.193-.781,3.7,3.7,0,0,1,2.214.611c.478.336.65.659.569.745" transform="translate(-41.887 -79.163)" fill="#263238"/><path d="M107.2,174.568a9.973,9.973,0,0,1,2.43-.547c.384-.056.745-.149.8-.414a1.96,1.96,0,0,0-.306-1.13l-1.265-2.883c-1.76-4.106-3.053-7.488-2.887-7.558s1.728,3.2,3.488,7.308q.637,1.519,1.218,2.9a2.23,2.23,0,0,1,.265,1.5.97.97,0,0,1-.609.59,2.6,2.6,0,0,1-.65.119,9.8,9.8,0,0,1-2.482.11" transform="translate(-51.625 -78.945)" fill="#263238"/><path d="M97.2,218.114A26.25,26.25,0,0,1,83.056,214.8s3.282,8.083,14.173,6.59Z" transform="translate(-40.466 -104.652)" fill="#ff9b6c"/><path d="M103.181,192.063a3.713,3.713,0,0,0-3.124-1.489,2.419,2.419,0,0,0-1.937,1.165,2.216,2.216,0,0,0,2.625,3.21,5.506,5.506,0,0,0,2.161-1.469,1.713,1.713,0,0,0,.453-.585.769.769,0,0,0-.092-.762" transform="translate(-47.671 -92.845)" fill="#ff9b6c"/><path d="M99.62,188.882c.245-.025.318,1.612,1.769,2.713s3.185.847,3.207,1.075c.027.1-.375.334-1.11.386a4.079,4.079,0,0,1-2.674-.8,3.551,3.551,0,0,1-1.378-2.279c-.092-.682.073-1.095.186-1.09" transform="translate(-48.433 -92.025)" fill="#263238"/><path d="M91.046,152.009c-.131.417-1.645.288-3.4.577-1.766.254-3.17.833-3.421.475-.112-.171.12-.568.68-.99a6,6,0,0,1,5.2-.8c.66.233,1,.542.946.738" transform="translate(-41.02 -73.568)" fill="#263238"/><path d="M119.295,151.884c-.25.354-1.3.044-2.554.08-1.251-.007-2.3.33-2.556-.018-.114-.17.037-.519.486-.864a3.7,3.7,0,0,1,4.117-.05c.456.333.616.679.507.851" transform="translate(-55.615 -73.292)" fill="#263238"/><path d="M111.128,133.758a7.508,7.508,0,0,0-2.943-4.094,27.74,27.74,0,0,1-2.454-1.38c-1.6-1.252-2-3.466-3-5.232a8.256,8.256,0,0,0-6.349-4.08c-2.17-.19-4.392.493-6.51-.009-1.566-.37-2.944-1.363-4.529-1.641-3.087-.54-5.917,1.711-8.117,3.944.024,2.2,1.8,3.652,3.512,5.042a7.643,7.643,0,0,0,6.212,1.542c1.677-.332,3.508-1.209,4.978-.334,1.545.92,1.642,3.227,3.017,4.387,1.966,1.656,5.028.03,7.5.725,1.911.536,3.126,2.337,4.413,3.849s3.2,2.938,5.1,2.346a22.345,22.345,0,0,0-.829-5.065" transform="translate(-37.626 -57.122)" fill="#263238"/><path d="M63.387,125.731c-1.386-.375-4.223-1.227-4.981-2.413a8.437,8.437,0,0,0-7.4-4.11,6.963,6.963,0,0,0-6.188,5.6,10.014,10.014,0,0,0-8.525,5.665,10.5,10.5,0,0,0-.528,1.292,7.618,7.618,0,0,0-.416,6.4c.5,1.239,1.329,2.614.706,3.795-.635,1.2-2.284,1.262-3.562,1.724a5.058,5.058,0,0,0-3.1,5.7,6.173,6.173,0,0,1,.438,2.482,5.423,5.423,0,0,1-1.456,2.172,6.3,6.3,0,0,0,3.841,10.192,8.116,8.116,0,0,1,2.906.618c.984.586,1.427,1.752,2.128,2.656a5.43,5.43,0,0,0,5.91,1.756,4.975,4.975,0,0,0,1.174-.612,3.9,3.9,0,0,0,3.477,1.479l-.743-23.04a1.908,1.908,0,0,0,1.413,1.074c3.711.783,4.14-6.847,3.284-8.9a21.5,21.5,0,0,0,3.655-3.957,15.513,15.513,0,0,0,1.593-7.5c1.334.058,6.986-1.9,6.377-2.064" transform="translate(-13.139 -58.072)" fill="#263238"/><path d="M61.688,175.08c-.151-2.34-3.025-2.8-5.038-1.6-1.105.66-1.939,1.969-1.8,4.454.37,6.627,6.948,4.888,6.949,4.7,0-.118.067-4.815-.11-7.556" transform="translate(-26.716 -84.21)" fill="#ffc09d"/><path d="M61.245,182.349c-.03-.02-.111.087-.3.188a1.156,1.156,0,0,1-.862.066,2.86,2.86,0,0,1-1.465-2.49,3.814,3.814,0,0,1,.231-1.671,1.334,1.334,0,0,1,.819-.934.588.588,0,0,1,.7.277c.1.18.065.315.1.325.019.016.136-.119.067-.389a.732.732,0,0,0-.284-.4.871.871,0,0,0-.648-.134,1.626,1.626,0,0,0-1.149,1.095,3.924,3.924,0,0,0-.3,1.87A3,3,0,0,0,60,182.919a1.237,1.237,0,0,0,1.046-.234c.2-.175.223-.326.2-.336" transform="translate(-28.327 -86.321)" fill="#ff9b6c"/><path d="M65.5,128.71a3.951,3.951,0,0,0-1.307,1.127,6.117,6.117,0,0,0-.421,4.593l.038.167-.163.043a6.411,6.411,0,0,0-4.217,3.826,4.983,4.983,0,0,0-.32,1.622,9.751,9.751,0,0,0,.233,1.75,13.16,13.16,0,0,1,.28,1.883,3.117,3.117,0,0,1-.5,1.965,8.039,8.039,0,0,1-3.254,2.52,11.152,11.152,0,0,0-3.05,2.062,8.29,8.29,0,0,0-2.4,5.593,8.653,8.653,0,0,0,.934,4.085c.454.9.83,1.326.793,1.353-.013.01-.111-.091-.288-.294a7.064,7.064,0,0,1-.665-.973,8.418,8.418,0,0,1-1.1-4.176,8.532,8.532,0,0,1,2.418-5.89,11.425,11.425,0,0,1,3.143-2.165,7.716,7.716,0,0,0,3.072-2.364c.72-1.017.372-2.327.162-3.512a10.078,10.078,0,0,1-.231-1.837,5.39,5.39,0,0,1,.362-1.775,6.722,6.722,0,0,1,4.538-4.008l-.125.21a6.162,6.162,0,0,1,.6-4.788,2.792,2.792,0,0,1,1.025-.861,1.626,1.626,0,0,1,.439-.155" transform="translate(-24.407 -62.708)" fill="#455a64"/><path d="M58.588,190.822a4.743,4.743,0,0,1,1.867-1.268l-.145-.007a2.77,2.77,0,0,1,.4-.074,1.871,1.871,0,0,1,1.475.161h-.014a3.485,3.485,0,0,1,1.931,1.632,4.128,4.128,0,0,1-.424,4.259,3.154,3.154,0,0,1-5.8-1,3.916,3.916,0,0,1,.709-3.7" transform="translate(-28.111 -92.276)" fill="#455a64"/><path d="M246.864,272.633l4.518-1.732a29.571,29.571,0,0,1,2.052-5.1,41.087,41.087,0,0,1,5.438-4.8c.256-.1,3.121-6.523,4.427-6.314a2.145,2.145,0,0,1,1.841,2.87c-.365,1.745-3.259,5.223-2.457,5.8a5.862,5.862,0,0,0,2.107.788s.355-2,1.455-2.652,2.353.428,2.353.428l.033.864,1.086-.994s1.142-4.024,2.873-4a7.042,7.042,0,0,1,1.708-2.3,1.49,1.49,0,0,1,2.3.67l-3.107,9.118-8.547,9.415s-4.006,1.539-5.026,2.012-5.654,3.679-7.7,4.364-4.432,1.729-4.432,1.729Z" transform="translate(-120.275 -124.087)" fill="#ffc09d"/><path d="M262.408,284.05a5.189,5.189,0,0,0-1.622-.166,7.5,7.5,0,0,0-3.869.85,4.7,4.7,0,0,0-1.6,1.544,7.347,7.347,0,0,0-.765,1.622,4.833,4.833,0,0,0-.372,1.589,7.983,7.983,0,0,0,.66-1.477,5.788,5.788,0,0,1,2.3-2.9,8.3,8.3,0,0,1,3.656-.919,7.2,7.2,0,0,0,1.614-.144" transform="translate(-123.833 -138.311)" fill="#ff9b6c"/><path d="M275.591,271.235c.067-.1-.4-.519-1.126-.735s-1.347-.123-1.344-.005.561.225,1.218.425,1.184.42,1.251.315" transform="translate(-133.068 -131.727)" fill="#ff9b6c"/><path d="M293.518,268.14a9.285,9.285,0,0,1,.2-1.978c.178-1.23.456-2.95.8-4.925l.128.257a10.251,10.251,0,0,0-.935-.44,1.194,1.194,0,0,0-.911.116,2.632,2.632,0,0,0-1.056,1.277,9.478,9.478,0,0,0-.56,1.577c-.247,1.054-.412,2.033-.564,2.847a16.293,16.293,0,0,1-.553,2.636,13.153,13.153,0,0,1,.207-2.689c.109-.826.236-1.806.465-2.9a9.294,9.294,0,0,1,.564-1.676,3.054,3.054,0,0,1,1.269-1.514,1.683,1.683,0,0,1,1.276-.149,9.088,9.088,0,0,1,1.015.484l.163.076-.034.182c-.368,1.97-.707,3.679-.968,4.894a9.267,9.267,0,0,1-.5,1.923" transform="translate(-141.311 -126.927)" fill="#ff9b6c"/><path d="M274.922,279.244c-.021,0-.007-.138.039-.392a5.4,5.4,0,0,1,.368-1.046,13.345,13.345,0,0,1,2.242-3.269l-.048.082c.591-1.751.054-4.284,1.639-6.548a2.077,2.077,0,0,1,1.647-.732,3.047,3.047,0,0,1,1.6.559l.114.077-.017.142c-.318,2.561-.612,4.774-.84,6.343a4.12,4.12,0,0,1-.575,1.785c-.222.379-.383.558-.4.544a3.279,3.279,0,0,1,.259-.617,4.482,4.482,0,0,0,.422-1.763c.145-1.579.375-3.792.663-6.344l.1.219a2.615,2.615,0,0,0-1.328-.453,1.587,1.587,0,0,0-1.262.571,3.755,3.755,0,0,0-.738,1.533,14.5,14.5,0,0,0-.357,1.675c-.1.557-.121,1.07-.186,1.621a9.733,9.733,0,0,1-.334,1.511l-.014.046-.034.036a15.293,15.293,0,0,0-2.327,3.089c-.46.814-.564,1.345-.619,1.332" transform="translate(-133.941 -130.249)" fill="#ff9b6c"/><path d="M60.7,231.478c.272-.393,2.086-3.895,2.086-3.895l10.285,8.866s10.082,8.444,10.082,7.9l1.609-8.123,1.981-7.39,3.7,5.589s11.622,22.785,11.622,23.058,7.193,23.855,7.193,23.855L107.7,290.9l-.182,33.871-21.67-.91-4.279-6.829L74.2,273.6Z" transform="translate(-29.572 -110.881)" fill="#fff"/><path d="M105.087,404.035h23.087l3.658,15.516h-35.5Z" transform="translate(-46.932 -196.851)" fill="#263238"/><path d="M72.821,314.391c-.727-11.124-.423-32.11-4.681-43.059s-21.351-37.85-21.351-37.85l-4.2,6.524-11,4.129,14.925,60.5s-5.748,13.535-8.486,21.443c-.818,2.363-1.922,6.376-3.132,10.379H72.668c.334-8.8.5-16.81.153-22.065" transform="translate(-15.392 -113.755)" fill="#529d2e"/><path d="M197.644,264.01l-29.115,16.185L148.352,251.4q-.082-.112-.174-.233c-2.3-3.039-4.552-6.384-8.267-7.22l-.563-.127,1.08,34.464s14.346,15.814,22.39,22.353c2.395,1.947,8.466.731,11.358-.865,11.588-6.395,31.379-22.791,31.379-22.791Z" transform="translate(-67.893 -118.794)" fill="#529d2e"/><path d="M135.954,303.817s2.121-16.451,2.816-20.582c3.641-21.622-12.4-45.527-12.4-45.527L119.04,236.5l-6.325-5.224,2.794,7.805s9.188,25.7,11.013,33.916,2.737,33.455,3.022,32.847c.167-.358,1.273,15.241,2.66,29.539h15.564Z" transform="translate(-54.916 -112.678)" fill="#529d2e"/><path d="M140.605,290.463a3,3,0,0,1,.005-.536q.031-.574.083-1.527.032-.5.069-1.1,0-.609,0-1.314c0-.942.023-2.015-.069-3.2a66.626,66.626,0,0,0-3.6-18.108,62.544,62.544,0,0,0-2.921-7.189l0-.008,0-.006a61.753,61.753,0,0,0-3.372-6.571c-1.113-1.935-2.14-3.62-3-5.014l-2.032-3.252-.541-.87a1.688,1.688,0,0,1-.172-.31,1.57,1.57,0,0,1,.22.278l.588.84c.506.737,1.23,1.822,2.117,3.2s1.936,3.053,3.07,4.982a59.26,59.26,0,0,1,3.435,6.587l-.006-.013a60.735,60.735,0,0,1,2.956,7.23,64.016,64.016,0,0,1,3.516,18.212c.076,1.189.038,2.267.017,3.213-.011.47-.022.91-.032,1.317q-.055.6-.1,1.1c-.063.636-.112,1.143-.15,1.525a2.991,2.991,0,0,1-.076.529" transform="translate(-60.925 -117.642)" fill="#263238"/><path d="M90.894,257.362a1.6,1.6,0,0,1-.409-.18l-1.11-.586-3.916-2.167.23-.116c-.191,1.76-.514,3.816-.838,6.006-.131.892-.253,1.762-.354,2.594l-.039.321-.246-.209c-2.094-1.782-3.915-3.35-5.206-4.481L77.5,257.2a3.278,3.278,0,0,1-.517-.516,3.357,3.357,0,0,1,.6.424l1.572,1.261c1.33,1.084,3.179,2.618,5.285,4.387l-.285.112c.1-.838.216-1.711.348-2.6.325-2.195.664-4.245.884-5.991l.03-.234.2.118,3.852,2.277,1.068.66a1.581,1.581,0,0,1,.362.262" transform="translate(-37.507 -123.773)" fill="#263238"/><path d="M110.27,240.921a4.658,4.658,0,0,1,.032.927c-.012.665-.027,1.512-.046,2.523-.053,2.13-.152,5.071-.284,8.318,0,.08-.006.159-.009.237l-.023.568-.3-.479-3.893-6.136.244-.03c-.429,1.181-.788,2.168-1.066,2.931a6.435,6.435,0,0,1-.445,1.065,6.5,6.5,0,0,1,.3-1.114l.953-2.97.087-.271.157.241,3.962,6.091-.327.089c0-.077.007-.157.01-.237.131-3.247.27-6.187.388-8.314.064-1.009.116-1.854.158-2.518a4.635,4.635,0,0,1,.106-.921" transform="translate(-50.901 -117.38)" fill="#263238"/><path d="M19.708,254.256a16.446,16.446,0,0,0-2.554,1.965A17.394,17.394,0,0,0,12.7,263.23c-1.038,2.966-2.068,6.617-2.665,8.915L7.255,314.374A24.85,24.85,0,0,0,9.03,325.364l8.623,21.213H36.245L26.21,318.2l3.437-31.31Z" transform="translate(-3.508 -123.877)" fill="#529d2e"/><path d="M53.926,244.834,58.016,257.1h4.357l-2.828,1.8L81.9,301.632" transform="translate(-26.274 -119.286)" fill="#529d2e"/><path d="M81.9,301.631a.642.642,0,0,1-.1-.149l-.258-.454-.96-1.762-3.472-6.512L65.782,271.206,59.4,258.975l-.07-.134.127-.081,2.832-1.792.083.286-4.357-.016h-.1l-.031-.095-2.927-8.972-.783-2.466-.194-.647a.994.994,0,0,1-.053-.226,1.008,1.008,0,0,1,.093.212c.06.165.137.373.233.634l.854,2.442,3.042,8.933-.132-.095,4.357-.016.532,0-.449.288-2.823,1.807.057-.214L66.1,271.04l11.241,21.6L80.71,299.2l.9,1.794.226.47a.678.678,0,0,1,.066.166" transform="translate(-26.272 -119.286)" fill="#263238"/><path d="M37.841,265.915a27.271,27.271,0,0,1,6.033,23.206" transform="translate(-18.437 -129.557)" fill="#529d2e"/><path d="M43.872,289.121c-.072-.013.234-1.375.363-3.608a28.384,28.384,0,0,0-.057-3.92,28.172,28.172,0,0,0-2.4-9.251,28.446,28.446,0,0,0-1.859-3.452c-1.2-1.888-2.131-2.928-2.074-2.975a5.078,5.078,0,0,1,.673.711,10.514,10.514,0,0,1,.725.89c.267.36.59.757.888,1.236a25.674,25.674,0,0,1,1.947,3.453,26.731,26.731,0,0,1,2.434,9.361,25.68,25.68,0,0,1-.018,3.963c-.027.564-.116,1.068-.174,1.512a10.611,10.611,0,0,1-.2,1.131,5.125,5.125,0,0,1-.242.949" transform="translate(-18.434 -129.556)" fill="#263238"/><path d="M54.175,377.58a.669.669,0,0,1-.064-.142l-.164-.424-.606-1.639-2.184-6.053c-1.828-5.139-4.348-12.222-7.143-20.08l-.01-.029,0-.03c.024-.218.05-.455.076-.692.943-8.447,1.8-16.092,2.416-21.647.32-2.755.58-4.99.763-6.556.094-.759.168-1.356.221-1.781l.064-.463a.731.731,0,0,1,.031-.157.714.714,0,0,1,0,.16c-.01.119-.022.273-.037.465-.041.427-.1,1.025-.171,1.787-.162,1.569-.393,3.807-.678,6.566l-2.338,21.655c-.026.237-.052.473-.076.692l-.007-.059c2.765,7.868,5.258,14.961,7.067,20.107l2.105,6.081L54,377l.139.432a.674.674,0,0,1,.039.15" transform="translate(-21.439 -154.879)" fill="#263238"/><path d="M148.88,265.209a41.3,41.3,0,0,1,3.018,5.741c.433.907.792,1.947,1.232,3.042.369,1.12.813,2.3,1.147,3.589.385,1.271.681,2.633,1,4.041l.4,2.167c.136.733.214,1.487.325,2.244a72.471,72.471,0,0,1,.208,15.648l-.3,2.689c-.084.792-.211,1.467-.29,2.021q-.128.8-.2,1.274a2.81,2.81,0,0,1-.089.441,2.841,2.841,0,0,1,.036-.449q.057-.474.154-1.28c.063-.556.174-1.233.245-2.025s.165-1.7.262-2.687a76.255,76.255,0,0,0-.284-15.6c-.111-.754-.188-1.5-.323-2.235l-.391-2.158c-.315-1.4-.605-2.759-.982-4.026-.326-1.281-.76-2.461-1.119-3.58-.429-1.094-.776-2.135-1.2-3.042l-.567-1.309c-.183-.412-.381-.788-.552-1.147-.348-.714-.641-1.333-.92-1.818q-.383-.716-.609-1.136a2.891,2.891,0,0,1-.2-.406" transform="translate(-72.536 -129.213)" fill="#263238"/><path d="M195.738,323.6a4.832,4.832,0,0,1-.535-1.264,12.652,12.652,0,0,1-.29-6.566,4.813,4.813,0,0,1,.422-1.306,12.643,12.643,0,0,1-.236,1.342,15.151,15.151,0,0,0,.287,6.477,12.535,12.535,0,0,1,.354,1.316" transform="translate(-94.818 -153.209)" fill="#263238"/></g><g clip-path="url(#a)"><path d="M220.317,434.166c0,.074-48.354.133-107.987.133-59.654,0-108-.059-108-.133s48.343-.133,108-.133c59.633,0,107.987.059,107.987.133" transform="translate(-2.111 -211.466)" fill="#263238"/></g></g></g></g></svg>