<svg xmlns="http://www.w3.org/2000/svg" xmlns:xlink="http://www.w3.org/1999/xlink" width="685.817" height="175.966" viewBox="0 0 685.817 175.966"><defs><filter id="a" x="1.047" y="91.669" width="70.704" height="83.486" filterUnits="userSpaceOnUse"><feOffset dy="3" input="SourceAlpha"/><feGaussianBlur stdDeviation="3" result="b"/><feFlood flood-opacity="0.161"/><feComposite operator="in" in2="b"/><feComposite in="SourceGraphic"/></filter><filter id="c" x="0" y="4.674" width="171.292" height="171.292" filterUnits="userSpaceOnUse"><feOffset dy="3" input="SourceAlpha"/><feGaussianBlur stdDeviation="3" result="d"/><feFlood flood-opacity="0.161"/><feComposite operator="in" in2="d"/><feComposite in="SourceGraphic"/></filter><clipPath id="e"><g transform="matrix(1, 0, 0, 1, 0, 0)" filter="url(#a)"><path d="M54.286,316.483,21.543,283.74v15.313l-19.961.362v34.136L21.4,333.16l.146,16.066Z" transform="translate(-1.58 -283.74)" fill="#529d2e"/></g></clipPath><filter id="g" x="344.468" y="0" width="169.669" height="169.67" filterUnits="userSpaceOnUse"><feOffset dy="3" input="SourceAlpha"/><feGaussianBlur stdDeviation="3" result="h"/><feFlood flood-opacity="0.161"/><feComposite operator="in" in2="h"/><feComposite in="SourceGraphic"/></filter><filter id="i" x="516.148" y="5.485" width="169.669" height="169.67" filterUnits="userSpaceOnUse"><feOffset dy="3" input="SourceAlpha"/><feGaussianBlur stdDeviation="3" result="j"/><feFlood flood-opacity="0.161"/><feComposite operator="in" in2="j"/><feComposite in="SourceGraphic"/></filter></defs><g transform="translate(-275.189 -12298.05)"><g transform="matrix(1, 0, 0, 1, 275.19, 12298.05)" filter="url(#c)"><path d="M0,0H152.478V152.478H0Z" transform="translate(9 11.49) rotate(-0.31)" fill="#c2e8b0"/></g><g transform="translate(285.236 12395.719)"><g clip-path="url(#e)"><rect width="55.499" height="67.714" transform="matrix(0.999, -0.043, 0.043, 0.999, -2.842, 0.124)" fill="#529d2e"/></g></g><rect width="152.478" height="152.478" transform="translate(456.799 12309.539) rotate(-0.306)" fill="#c2e8b0"/><g transform="translate(457.846 12395.719)"><g clip-path="url(#e)"><rect width="55.499" height="67.714" transform="matrix(0.999, -0.043, 0.043, 0.999, -2.842, 0.124)" fill="#529d2e"/></g></g><rect width="152.478" height="152.478" transform="translate(627.213 12309.539) rotate(-0.306)" fill="#c2e8b0"/><g transform="matrix(1, 0, 0, 1, 275.19, 12298.05)" filter="url(#g)"><rect width="151.669" height="151.67" transform="translate(353.47 6)" fill="#c2e8b0"/></g><path d="M54.286,316.483,21.543,283.74v15.313l-19.961.362v34.136L21.4,333.16l.146,16.066Z" transform="translate(626.679 12111.979)" fill="#529d2e"/><rect width="152.478" height="152.478" transform="translate(799.526 12309.539) rotate(-0.306)" fill="#c2e8b0"/><g transform="matrix(1, 0, 0, 1, 275.19, 12298.05)" filter="url(#i)"><rect width="151.669" height="151.67" transform="translate(525.15 11.49)" fill="#c2e8b0"/></g><path d="M54.286,316.483,21.543,283.74v15.313l-19.961.362v34.136L21.4,333.16l.146,16.066Z" transform="translate(798.992 12111.979)" fill="#529d2e"/><path d="M46.393,311.579,18.554,283.74v13.019l-16.972.308v29.023l16.848-.333.124,13.66Z" transform="translate(798.992 12113.523)" fill="#61b837"/><path d="M46.393,311.579,18.554,283.74v13.019l-16.972.308v29.023l16.848-.333.124,13.66Z" transform="translate(626.679 12113.523)" fill="#61b837"/><path d="M46.393,311.579,18.554,283.74v13.019l-16.972.308v29.023l16.848-.333.124,13.66Z" transform="translate(456.264 12113.523)" fill="#61b837"/><path d="M46.393,311.579,18.554,283.74v13.019l-16.972.308v29.023l16.848-.333.124,13.66Z" transform="translate(283.654 12113.523)" fill="#61b837"/><text transform="translate(300.133 12331.535)" fill="#12263f" font-size="16" font-family="Roboto-Bold, Roboto" font-weight="700"><tspan x="34.339" y="17">Control </tspan><tspan x="1.471" y="41">de la comunidad</tspan></text><text transform="translate(472.743 12331.535)" fill="#12263f" font-size="16" font-family="Roboto-Bold, Roboto" font-weight="700"><tspan x="35.678" y="17">Mejora </tspan><tspan x="29.456" y="41">continua</tspan></text><text transform="translate(643.157 12331.535)" fill="#12263f" font-size="16" font-family="Roboto-Bold, Roboto" font-weight="700"><tspan x="20.206" y="17">Prevención</tspan></text><text transform="translate(815.47 12331.535)" fill="#12263f" font-size="16" font-family="Roboto-Bold, Roboto" font-weight="700"><tspan x="21.374" y="17">Innovación</tspan></text><g transform="translate(342.383 12386.485)"><g transform="translate(17.005 9.005)"><path d="M42.1,229.881l-.009,4.249v10.05H32.04v-2.191a2.009,2.009,0,0,0-.578-1.411l-6.888-6.992A2.012,2.012,0,0,1,24,232.179V210.01A2.01,2.01,0,0,1,26.01,208h2.01a2.01,2.01,0,0,1,2.01,2.01v9.951a2.011,2.011,0,0,1,2.534.254L41.45,228.4A2.005,2.005,0,0,1,42.1,229.881Z" transform="translate(-24 -183.88)" fill="#ffdaaa"/><path d="M344,229.881l.009,4.249v10.05h10.05v-2.191a2.009,2.009,0,0,1,.578-1.411l6.888-6.992a2.012,2.012,0,0,0,.574-1.407V210.01a2.01,2.01,0,0,0-2.01-2.01h-2.01a2.01,2.01,0,0,0-2.01,2.01v9.951a2.011,2.011,0,0,0-2.534.254l-8.887,8.184A2.005,2.005,0,0,0,344,229.881Z" transform="translate(-303.8 -183.88)" fill="#ffdaaa"/><path d="M172.14,56v8.04c0,2.775-6.3,5.025-14.07,5.025S144,66.815,144,64.04V56c0,2.775,6.3,5.025,14.07,5.025S172.14,58.775,172.14,56Z" transform="translate(-128.925 -50.975)" fill="#ffde55"/><path d="M172.14,120v8.04c0,2.775-6.3,5.025-14.07,5.025S144,130.815,144,128.04V120c0,2.775,6.3,5.025,14.07,5.025S172.14,122.775,172.14,120Z" transform="translate(-128.925 -106.935)" fill="#ffda44"/><path d="M172.14,184v8.04c0,2.775-6.3,5.025-14.07,5.025S144,194.815,144,192.04V184c0,2.775,6.3,5.025,14.07,5.025S172.14,186.775,172.14,184Z" transform="translate(-128.925 -162.895)" fill="#ebbf00"/><path d="M172.14,248v8.04c0,2.775-6.3,5.025-14.07,5.025S144,258.815,144,256.04V248c0,2.775,6.3,5.025,14.07,5.025S172.14,250.775,172.14,248Z" transform="translate(-128.925 -218.855)" fill="#cca400"/><ellipse cx="14.07" cy="5.025" rx="14.07" ry="5.025" transform="translate(15.075 0)" fill="#ffeb99"/></g><g transform="translate(16 8)"><path d="M35.136,220.665l-8.873-8.172a3.018,3.018,0,0,0-2.224-.864v-8.614A3.018,3.018,0,0,0,21.025,200h-2.01A3.019,3.019,0,0,0,16,203.015v22.169a3.006,3.006,0,0,0,.863,2.112l6.888,6.993a1,1,0,0,1,.289.705v2.191a1,1,0,0,0,1,1.005H35.1a1,1,0,0,0,1-1.005V227.137l.009-4.249A3.017,3.017,0,0,0,35.136,220.665Zm-1.038,2.22-.009,4.25v9.045H26.05v-1.186a3,3,0,0,0-.867-2.116L18.3,225.889a1,1,0,0,1-.288-.7V203.015a1.006,1.006,0,0,1,1-1h2.01a1.006,1.006,0,0,1,1,1v9.48l-.015.013-1.421,1.421a3.015,3.015,0,0,0,0,4.264l6.4,6.4a1.005,1.005,0,0,0,1.422-1.421l-6.4-6.4a1.006,1.006,0,0,1,0-1.422l1.421-1.421a1,1,0,0,1,1.421,0l.03.029,8.888,8.185a1,1,0,0,1,.323.74Z" transform="translate(-16 -175.88)"/><path d="M353.094,200h-2.01a3.018,3.018,0,0,0-3.015,3.015v8.614a3.015,3.015,0,0,0-2.224.864l-8.872,8.171a3.018,3.018,0,0,0-.973,2.225l.009,4.246v10.05a1,1,0,0,0,1,1.005h10.05a1,1,0,0,0,1.005-1.005v-2.191a1.011,1.011,0,0,1,.289-.705l6.891-7a3,3,0,0,0,.86-2.109V203.015A3.018,3.018,0,0,0,353.094,200Zm1,25.184a1,1,0,0,1-.285.7l-6.887,6.992a3,3,0,0,0-.868,2.117v1.186h-8.04v-9.047l-.009-4.249h0a1,1,0,0,1,.324-.741l8.887-8.185.03-.029a1,1,0,0,1,1.422,0l1.421,1.421a1.006,1.006,0,0,1,0,1.422l-6.4,6.4a1.005,1.005,0,0,0,1.421,1.421l6.4-6.4a3.015,3.015,0,0,0,0-4.264l-1.421-1.421-.015-.013v-9.48a1.006,1.006,0,0,1,1.005-1h2.01a1.006,1.006,0,0,1,1.005,1Z" transform="translate(-295.8 -175.88)"/><path d="M161.362,9.53a35.348,35.348,0,0,0-20.575,0C136.83,10.943,136,12.757,136,14.03V46.19c0,2.305,2.6,3.72,4.788,4.5a35.348,35.348,0,0,0,20.575,0c2.183-.78,4.788-2.195,4.788-4.5V14.03C166.15,12.757,165.319,10.943,161.362,9.53Zm2.778,36.66c0,.663-.907,1.7-3.453,2.607a33.39,33.39,0,0,1-19.223,0c-2.546-.91-3.453-1.943-3.453-2.607v-4.9a12.089,12.089,0,0,0,2.778,1.355,35.348,35.348,0,0,0,20.575,0,12.089,12.089,0,0,0,2.778-1.355Zm0-8.04c0,.663-.907,1.7-3.453,2.607a29.718,29.718,0,0,1-9.611,1.413c-7.976,0-13.065-2.381-13.065-4.02v-4.9a12.089,12.089,0,0,0,2.778,1.355,35.348,35.348,0,0,0,20.575,0,12.089,12.089,0,0,0,2.778-1.355Zm0-8.04c0,.663-.907,1.7-3.453,2.607a29.718,29.718,0,0,1-9.611,1.413c-7.976,0-13.065-2.381-13.065-4.02v-4.9a12.089,12.089,0,0,0,2.778,1.355,31.745,31.745,0,0,0,10.287,1.53,31.745,31.745,0,0,0,10.287-1.53,12.089,12.089,0,0,0,2.778-1.355Zm0-8.04c0,.663-.907,1.7-3.453,2.607a29.718,29.718,0,0,1-9.611,1.413c-7.976,0-13.065-2.381-13.065-4.02v-4.9a12.089,12.089,0,0,0,2.778,1.355,31.745,31.745,0,0,0,10.287,1.53,31.745,31.745,0,0,0,10.287-1.53,12.089,12.089,0,0,0,2.778-1.355Zm-3.453-5.433a29.718,29.718,0,0,1-9.611,1.413c-7.976,0-13.065-2.381-13.065-4.02,0-.663.907-1.7,3.453-2.607a29.718,29.718,0,0,1,9.611-1.413c7.976,0,13.065,2.381,13.065,4.02C164.14,14.693,163.233,15.727,160.686,16.637Z" transform="translate(-120.925 -8)"/><circle cx="1.005" cy="1.005" r="1.005" transform="translate(19.095 12.06)"/><circle cx="1.005" cy="1.005" r="1.005" transform="translate(19.095 20.1)"/><circle cx="1.005" cy="1.005" r="1.005" transform="translate(19.095 28.14)"/><circle cx="1.005" cy="1.005" r="1.005" transform="translate(19.095 36.18)"/><path d="M232.294,36.73a1,1,0,0,0,1.421,0l3.015-3.015a1.005,1.005,0,1,0-1.421-1.421l-3.015,3.015A1,1,0,0,0,232.294,36.73Z" transform="translate(-204.865 -28.985)"/><path d="M209,36.02a1,1,0,0,0,.711-.294l2.01-2.01a1.005,1.005,0,0,0-1.421-1.421l-2.01,2.01A1,1,0,0,0,209,36.02Z" transform="translate(-183.88 -28.985)"/><path d="M264.294,50.72a1,1,0,0,0,1.421,0l1.005-1a1.005,1.005,0,0,0-1.421-1.421l-1.005,1A1,1,0,0,0,264.294,50.72Z" transform="translate(-232.845 -42.975)"/></g></g><g transform="translate(529.993 12396)"><g transform="translate(1.961 1.961)"><g transform="translate(7.685)"><path d="M59.95,3.921v9.606H53.034l1.114-5.591a1.414,1.414,0,0,0,.038-.346,1.742,1.742,0,0,0-1.748-1.748,1.414,1.414,0,0,0-.346.038L43.908,7.514a1.557,1.557,0,0,0-.8,2.622l1.95,1.95L43.5,13.527H10V3.921A1.927,1.927,0,0,1,11.921,2H58.029A1.927,1.927,0,0,1,59.95,3.921Z" transform="translate(-10 -2)" fill="#ffde55"/></g><g transform="translate(7.685 11.527)"><path d="M43.5,14,32.093,24.566l-6.724-6.724L23.16,20.052A13.473,13.473,0,0,0,10,19.139V14Z" transform="translate(-10 -14)" fill="#e6e9ed"/></g><g transform="translate(16.33 11.527)"><path d="M60.3,14V46.659a1.927,1.927,0,0,1-1.921,1.921H19v-4.15a13.465,13.465,0,0,0,9.731-17.819l3.717,3.717L48.3,15.441l1.95,1.95a1.557,1.557,0,0,0,2.622-.8L53.388,14Z" transform="translate(-19 -14)" fill="#e6e9ed"/></g><g transform="translate(26.896 3.842)"><path d="M30,6h3.842V9.842H30Z" transform="translate(-30 -6)" fill="#e6e9ed"/></g><g transform="translate(19.211 3.842)"><path d="M22,6h3.842V9.842H22Z" transform="translate(-22 -6)" fill="#e6e9ed"/></g><g transform="translate(49.95 19.211)"><path d="M54,22h3.842V45.054H54Z" transform="translate(-54 -22)" fill="#529d2e"/></g><g transform="translate(5.014 3.842)"><path d="M54.077,7.748a1.414,1.414,0,0,1-.038.346l-1.114,5.591-.519,2.594a1.557,1.557,0,0,1-2.622.8l-1.95-1.95L31.984,30.014,28.266,26.3,25.26,23.29l-1.921,1.921L9.89,38.659a9.5,9.5,0,0,1-2.67-3.093L20.245,22.541l2.8-2.8,2.209-2.209,6.724,6.724L43.4,13.685l1.556-1.441L43,10.294a1.557,1.557,0,0,1,.8-2.622l8.184-1.633A1.414,1.414,0,0,1,52.328,6a1.742,1.742,0,0,1,1.748,1.748Z" transform="translate(-7.22 -6)" fill="#529d2e"/></g><g transform="translate(42.265 21.133)"><path d="M46,24h3.842V45.133H46Z" transform="translate(-46 -24)" fill="#529d2e"/></g><g transform="translate(34.581 26.896)"><path d="M38,30h3.842V45.369H38Z" transform="translate(-38 -30)" fill="#529d2e"/></g><g transform="translate(26.896 32.659)"><path d="M30,36h3.842v9.606H30Z" transform="translate(-30 -36)" fill="#529d2e"/></g><g transform="translate(0 15.369)"><path d="M18.33,44.589A13.451,13.451,0,0,1,9.685,19.3a13.473,13.473,0,0,1,13.16.913l-2.8,2.8L20.03,23a9.609,9.609,0,1,0,3.1,2.68l1.921-1.921L28.06,26.77A13.465,13.465,0,0,1,18.33,44.589Z" transform="translate(-2 -18)" fill="#fcd770"/></g><g transform="translate(7.685 23.054)"><path d="M23.448,26A9.606,9.606,0,0,1,10,39.448Z" transform="translate(-10 -26)" fill="#69d6f4"/></g><g transform="translate(3.842 19.211)"><path d="M20.2,23.172,7.172,36.2A9.508,9.508,0,0,1,6,31.606a9.607,9.607,0,0,1,14.188-8.443Z" transform="translate(-6 -22)" fill="#69d6f4"/></g><g transform="translate(10.566 41.958)"><path d="M18.763,49.83v8.645a2.882,2.882,0,0,1-5.763,0V45.68a13.662,13.662,0,0,0,5.763,0Z" transform="translate(-13 -45.68)" fill="#969faa"/></g><g transform="translate(11.527 3.842)"><path d="M14,6h3.842V9.842H14Z" transform="translate(-14 -6)" fill="#e6e9ed"/></g></g><g transform="translate(1 1)"><path d="M57.674,1H11.566A2.885,2.885,0,0,0,8.685,3.882V18.044A14.391,14.391,0,0,0,11.566,44.65V56.713a3.842,3.842,0,0,0,7.685,0V49.029H57.674a2.885,2.885,0,0,0,2.882-2.882V3.882A2.885,2.885,0,0,0,57.674,1ZM11.566,2.921H57.674a.962.962,0,0,1,.961.961v8.645H53.851l.889-4.446a2.707,2.707,0,0,0-2.655-3.239,2.673,2.673,0,0,0-.532.053L43.367,6.532a2.517,2.517,0,0,0-1.285,4.249l1.239,1.24-.548.506H10.606V3.882a.962.962,0,0,1,.961-.961ZM25.014,21.735,9.593,37.156a8.728,8.728,0,0,1-1.407-1.64L25.014,18.688l6.7,6.7L46.092,12.073,43.44,9.422a.6.6,0,0,1,.3-1.007l8.185-1.637a.8.8,0,0,1,.941.772.761.761,0,0,1-.015.155l-1.637,8.185a.621.621,0,0,1-1.007.3l-2.6-2.6L31.758,28.48Zm-.961,9.043A8.633,8.633,0,0,1,11.165,38.3L22.934,26.532A8.554,8.554,0,0,1,24.054,30.778Zm-17.29,0a8.621,8.621,0,0,1,11.569-8.125L7.283,33.7a8.58,8.58,0,0,1-.52-2.924Zm3.842-16.33H40.7L31.764,22.72l-6.75-6.749L22.656,18.33a14.285,14.285,0,0,0-12.05-1.12ZM2.921,30.778A12.479,12.479,0,0,1,21.243,19.743L19.8,21.187a10.5,10.5,0,1,0,4.541,3.939l.675-.675,2.163,2.163A12.486,12.486,0,1,1,2.921,30.778ZM15.409,58.634a1.923,1.923,0,0,1-1.921-1.921V45.043a14.4,14.4,0,0,0,1.921.143,14.4,14.4,0,0,0,1.921-.143v11.67A1.923,1.923,0,0,1,15.409,58.634ZM57.674,47.107H19.251V44.65A14.45,14.45,0,0,0,27.9,37.936v7.25H56.713V20.211H50.95V43.265H49.029V22.133H43.265V43.265H41.344V27.9H35.581V43.265H33.659V33.659H29.527a13.908,13.908,0,0,0,.188-4.507l2,2L47.567,16.265l1.287,1.287a2.5,2.5,0,0,0,1.78.738A2.524,2.524,0,0,0,53.1,16.267l.364-1.819h5.168v31.7a.962.962,0,0,1-.961.961ZM29.817,43.265V35.581h1.921v7.685Zm9.606,0H37.5V29.817h1.921Zm7.685,0H45.186V24.054h1.921Zm5.763,0V22.133h1.921V43.265Z" transform="translate(-1 -1)"/><path d="M18.763,5H13v5.763h5.763ZM16.842,8.842H14.921V6.921h1.921Z" transform="translate(-1.473 -1.158)"/><path d="M26.763,5H21v5.763h5.763ZM24.842,8.842H22.921V6.921h1.921Z" transform="translate(-1.789 -1.158)"/><path d="M34.763,5H29v5.763h5.763ZM32.842,8.842H30.921V6.921h1.921Z" transform="translate(-2.104 -1.158)"/></g></g><g transform="translate(699.409 12393.72)"><path d="M49,33.4c.49-.26.8-.4.8-.4l6-10.39a3,3,0,1,1,5.2,3L55,36v4L50,50V61H30V50l-.1-.21,1-1.03A13.615,13.615,0,0,0,35,39V29h2V6a3,3,0,0,1,6,0v6a3,3,0,0,1,6,0Z" fill="#ffc477"/><path d="M61.4,24.11a3.012,3.012,0,0,1-.4,1.5L55,36v4L50,50V61H47V50l5-10V36l6-10.39a3.006,3.006,0,0,0-1.1-4.1,3,3,0,0,1,4.5,2.6Z" fill="#ffa733"/><path d="M37,12V29H35V27l-4-1.5V12a3,3,0,0,1,6,0Z" fill="#ffc477"/><path d="M35,27V39a13.615,13.615,0,0,1-4.1,9.76l-1,1.03L19,61,7.1,48.76A13.615,13.615,0,0,1,3,39V27l16-6Z" fill="#898890"/><path d="M31,30v8.86a9.992,9.992,0,0,1-2.931,7.071L19,55,9.93,45.93A9.991,9.991,0,0,1,7,38.86V30l12-5Z" fill="#fee9ab"/><path d="M31,30v8.86a9.992,9.992,0,0,1-2.931,7.071L19,55l-2-2,7.07-7.07A9.991,9.991,0,0,0,27,38.86V30L17,25.83,19,25Z" fill="#ffde55"/><path d="M31,18v7.5l-6-2.25V18a3,3,0,0,1,6,0Z" fill="#ffc477"/><path d="M15,9l-4.59,1.41L9,15,7.59,10.41,3,9,7.59,7.59,9,3l1.41,4.59Z" fill="#ffcd00"/><path d="M49,12V33H46V12a2.993,2.993,0,0,0-.88-2.12,3.3,3.3,0,0,0-.62-.48A3,3,0,0,1,49,12Z" fill="#ffa733"/><path d="M32,30a1,1,0,0,0-.615-.923l-12-5a1.007,1.007,0,0,0-.77,0l-12,5A1,1,0,0,0,6,30v8.858a10.931,10.931,0,0,0,3.222,7.778l9.071,9.071a1,1,0,0,0,1.414,0l9.071-9.071A10.931,10.931,0,0,0,32,38.858Zm-2,8.858a8.945,8.945,0,0,1-2.636,6.364L19,53.586l-8.364-8.364A8.945,8.945,0,0,1,8,38.858V30.667l11-4.584,11,4.584Z"/><path d="M16.172,38.757l-1.414,1.414,3.535,3.536a1,1,0,0,0,1.414,0l8.485-8.485-1.414-1.414L19,41.586Z"/><path d="M60.4,20.64a4.006,4.006,0,0,0-5.47,1.47L50,30.65V12a4,4,0,0,0-4-4,3.906,3.906,0,0,0-2,.56V6a4,4,0,0,0-8,0V8.55A3.953,3.953,0,0,0,34,8a4,4,0,0,0-4,4v2.55A3.953,3.953,0,0,0,28,14a4,4,0,0,0-4,4v3.81l-4.65-1.75a1.051,1.051,0,0,0-.7,0l-16,6A1.007,1.007,0,0,0,2,27V39A14.538,14.538,0,0,0,6.39,49.46L18.28,61.7a1.014,1.014,0,0,0,1.44,0L29,52.15V61a1,1,0,0,0,1,1H50a1,1,0,0,0,1-1V50.24l4.89-9.79A1,1,0,0,0,56,40V36.27l5.87-10.16a4.019,4.019,0,0,0-1.47-5.47ZM32,12a2,2,0,0,1,4,0V27a1.007,1.007,0,0,0-.65-.94L32,24.81Zm-6,6a2,2,0,1,1,4,0v6.06l-4-1.5ZM19,59.57,7.82,48.06a.01.01,0,0,1-.01-.01A12.582,12.582,0,0,1,4,39V27.69l15-5.62,15,5.62V39a12.591,12.591,0,0,1-3.82,9.06ZM60.13,25.11l-6,10.39A1.063,1.063,0,0,0,54,36v3.76l-4.89,9.79A1,1,0,0,0,49,50V60H31V50.09l.61-.63A14.538,14.538,0,0,0,36,39V29h2V6a2,2,0,0,1,4,0V29h2V12a2,2,0,0,1,4,0V32.8c-2.42,1.33-7,4.36-7,8.2h2c0-3.09,5.21-6.17,7.22-7.09a1.049,1.049,0,0,0,.45-.41l6-10.39a2,2,0,0,1,3.73,1A1.949,1.949,0,0,1,60.13,25.11Z"/><path d="M2.7,9.956l4.081,1.258,1.258,4.08a1,1,0,0,0,1.912,0l1.258-4.08L15.3,9.956a1,1,0,0,0,0-1.912L11.214,6.786,9.956,2.706a1,1,0,0,0-1.912,0L6.786,6.786,2.7,8.044a1,1,0,0,0,0,1.912ZM7.881,8.542a1,1,0,0,0,.661-.662L9,6.394,9.458,7.88a1,1,0,0,0,.661.662L11.606,9l-1.487.458a1,1,0,0,0-.661.662L9,11.606,8.542,10.12a1,1,0,0,0-.661-.662L6.394,9Z"/><path d="M58,2h2V4H58Z"/><path d="M56,4h2V6H56Z"/><path d="M60,4h2V6H60Z"/><path d="M58,6h2V8H58Z"/><path d="M25,2h2V4H25Z"/><path d="M23,4h2V6H23Z"/><path d="M27,4h2V6H27Z"/><path d="M25,6h2V8H25Z"/><path d="M18,12h2v2H18Z"/><path d="M16,14h2v2H16Z"/><path d="M20,14h2v2H20Z"/><path d="M18,16h2v2H18Z"/><path d="M54,12h2v2H54Z"/><path d="M52,14h2v2H52Z"/><path d="M56,14h2v2H56Z"/><path d="M54,16h2v2H54Z"/></g><g transform="translate(865.723 12394.485)"><g transform="translate(23.159 11.623)"><path d="M149.263,97.185a14.169,14.169,0,0,0-13.441,8.918,15.8,15.8,0,0,0-1.057,5.792,14.7,14.7,0,0,0,.217,2.562c.806,4.461,3.661,6.9,5.862,9.85a12.164,12.164,0,0,1,2.743,7.728l5.95,2.366,5.4-2.366a12.163,12.163,0,0,1,2.743-7.728c2.2-2.952,5.056-5.389,5.859-9.85a14.365,14.365,0,0,0,.22-2.562,15.8,15.8,0,0,0-1.057-5.792,14.171,14.171,0,0,0-13.445-8.918Z" transform="translate(-134.765 -97.183)" fill="#ffde55" fill-rule="evenodd"/></g><g transform="translate(35.29 11.623)"><path d="M238.56,97.182a14.184,14.184,0,0,0-2.367.163,14.086,14.086,0,0,1,11.074,8.755,15.8,15.8,0,0,1,1.057,5.792,14.377,14.377,0,0,1-.217,2.562c-.8,4.461-3.661,6.9-5.862,9.85a12.163,12.163,0,0,0-2.743,7.728h4.738a12.163,12.163,0,0,1,2.743-7.728c2.2-2.952,5.056-5.389,5.859-9.85a14.364,14.364,0,0,0,.22-2.562A15.8,15.8,0,0,0,252,106.1,14.171,14.171,0,0,0,238.56,97.182Z" transform="translate(-236.193 -97.18)" fill="#e7c640" fill-rule="evenodd"/></g><g transform="translate(32.78 53.05)"><path d="M224.951,445.287l-5.175-1.718-4.565,1.718v2.779a2.788,2.788,0,0,0,2.78,2.783h4.182a2.787,2.787,0,0,0,2.777-2.783v-2.779Z" transform="translate(-215.211 -443.569)" fill="#9d9696" fill-rule="evenodd"/></g><g transform="translate(28.225 46.475)"><path d="M178.867,388.589a1.745,1.745,0,0,0-1.741,1.739v4.813a1.745,1.745,0,0,0,1.741,1.742h15.368a1.745,1.745,0,0,0,1.741-1.742v-4.813a1.744,1.744,0,0,0-1.741-1.739H178.867Z" transform="translate(-177.126 -388.589)" fill="#eee1dc" fill-rule="evenodd"/></g><g transform="translate(55.612 46.512)"><path d="M408.911,388.9a2.791,2.791,0,1,0,2.8,2.793A2.795,2.795,0,0,0,408.911,388.9Z" transform="translate(-406.117 -388.901)" fill="#80d261" fill-rule="evenodd"/></g><g transform="translate(60.828 26.108)"><path d="M452.517,218.294a2.79,2.79,0,1,0,2.794,2.789A2.79,2.79,0,0,0,452.517,218.294Z" transform="translate(-449.723 -218.294)" fill="#80d261" fill-rule="evenodd"/></g><g transform="translate(60.13 7.195)"><path d="M446.688,60.156a2.79,2.79,0,1,0,2.794,2.79A2.793,2.793,0,0,0,446.688,60.156Z" transform="translate(-443.891 -60.156)" fill="#80d261" fill-rule="evenodd"/></g><g transform="translate(9.596 7.195)"><path d="M24.153,60.156a2.79,2.79,0,1,0,2.794,2.79A2.792,2.792,0,0,0,24.153,60.156Z" transform="translate(-21.359 -60.156)" fill="#80d261" fill-rule="evenodd"/></g><g transform="translate(8.902 26.108)"><path d="M18.349,218.294a2.79,2.79,0,1,0,2.794,2.789A2.79,2.79,0,0,0,18.349,218.294Z" transform="translate(-15.555 -218.294)" fill="#80d261" fill-rule="evenodd"/></g><g transform="translate(14.114 46.512)"><path d="M61.927,388.9a2.791,2.791,0,1,0,2.8,2.793A2.795,2.795,0,0,0,61.927,388.9Z" transform="translate(-59.133 -388.901)" fill="#80d261" fill-rule="evenodd"/></g><g transform="translate(40.962 46.475)"><path d="M284.845,389.094a1.732,1.732,0,0,1,.515,1.234v4.813a1.738,1.738,0,0,1-1.737,1.742h4.372a1.745,1.745,0,0,0,1.741-1.742v-4.813a1.744,1.744,0,0,0-1.741-1.739h-4.372A1.735,1.735,0,0,1,284.845,389.094Z" transform="translate(-283.622 -388.589)" fill="#cdbeb9" fill-rule="evenodd"/></g><g transform="translate(32.78 54.768)"><path d="M223.538,457.937h-8.327v1.813h5.9c1.585,0,1.412.6,1.412,2.108v.671a2.758,2.758,0,0,1-.173.963,2.788,2.788,0,0,0,2.6-2.776v-2.779Z" transform="translate(-215.211 -457.937)" fill="#746e6e" fill-rule="evenodd"/></g><g transform="translate(61.718 7.195)"><path d="M457.171,60.431a2.788,2.788,0,0,1,0,5.03,2.79,2.79,0,1,0,0-5.03Z" transform="translate(-457.171 -60.156)" fill="#4fc122" fill-rule="evenodd"/></g><g transform="translate(62.413 26.107)"><path d="M462.976,218.568a2.791,2.791,0,0,1,0,5.033,2.823,2.823,0,0,0,1.209.271,2.789,2.789,0,1,0-1.209-5.3Z" transform="translate(-462.976 -218.293)" fill="#4fc122" fill-rule="evenodd"/></g><g transform="translate(57.197 46.512)"><path d="M419.369,389.175a2.788,2.788,0,0,1,0,5.033,2.791,2.791,0,1,0,0-5.033Z" transform="translate(-419.369 -388.901)" fill="#4fc122" fill-rule="evenodd"/></g><g transform="translate(15.699 46.512)"><path d="M72.385,389.175a2.788,2.788,0,0,1,0,5.033,2.791,2.791,0,1,0,0-5.033Z" transform="translate(-72.385 -388.901)" fill="#4fc122" fill-rule="evenodd"/></g><g transform="translate(10.487 26.108)"><path d="M30.016,218.294a2.776,2.776,0,0,0-1.209.275,2.791,2.791,0,0,1,0,5.033,2.823,2.823,0,0,0,1.209.271,2.79,2.79,0,1,0,0-5.579Z" transform="translate(-28.807 -218.294)" fill="#4fc122" fill-rule="evenodd"/></g><g transform="translate(11.181 7.195)"><path d="M34.612,60.431a2.788,2.788,0,0,1,0,5.03,2.79,2.79,0,1,0,0-5.03Z" transform="translate(-34.612 -60.156)" fill="#4fc122" fill-rule="evenodd"/></g><g transform="translate(7.998 0)"><path d="M249.418,4.994a.9.9,0,0,0,.9-.9V.9a.9.9,0,0,0-1.808,0V4.09A.9.9,0,0,0,249.418,4.994Z" transform="translate(-219.749 0)"/><path d="M146.034,35.283a.9.9,0,0,0,1.279-1.278l-2.252-2.254a.9.9,0,1,0-1.279,1.278Z" transform="translate(-127.31 -27.721)"/><path d="M335.582,35.548a.9.9,0,0,0,.64-.265l2.249-2.254a.9.9,0,1,0-1.28-1.277l-2.249,2.254a.9.9,0,0,0,.64,1.542Z" transform="translate(-295.608 -27.721)"/><path d="M63.621,71.512a3.7,3.7,0,0,0-3.585,2.79H52.979a16.128,16.128,0,0,0,.083-1.66,17.189,17.189,0,0,0-.689-4.888h9.014a2.448,2.448,0,0,0,2.445-2.446V59.874a3.7,3.7,0,1,0-1.808,0v5.434a.646.646,0,0,1-.637.639H51.71a14.685,14.685,0,0,0-3.152-4.565,15.313,15.313,0,0,0-10.9-4.356,15.483,15.483,0,0,0-8.523,2.453A.9.9,0,0,0,30.114,61a13.67,13.67,0,0,1,7.531-2.164h.212a13.511,13.511,0,0,1,9.433,3.837,12.9,12.9,0,0,1,2.946,4.439.9.9,0,0,0,.049.127,14.965,14.965,0,0,1,.97,5.409,13.49,13.49,0,0,1-.2,2.359.9.9,0,0,0-.016.09c-.587,3.193-2.307,5.27-4.108,7.445-2.071,2.5-4.207,5.078-4.474,9.341h-3.9V78.59h2.53a.9.9,0,0,0,0-1.808H34.226a.9.9,0,0,0,0,1.808h2.527V91.879h-3.9c-.266-4.263-2.4-6.842-4.474-9.341-2.224-2.685-4.325-5.221-4.32-9.894a13.823,13.823,0,0,1,3.391-9.371.9.9,0,0,0-1.349-1.2,14.726,14.726,0,0,0-2.493,3.877H13.931a.646.646,0,0,1-.637-.639V59.874a3.7,3.7,0,1,0-1.807,0v5.435a2.448,2.448,0,0,0,2.445,2.446h9.018a17.115,17.115,0,0,0-.694,4.888,16.162,16.162,0,0,0,.083,1.66H15.281a3.693,3.693,0,1,0,0,1.808H22.64c.77,3.257,2.583,5.448,4.351,7.582l.38.46H18.449A2.446,2.446,0,0,0,16,86.594v5.435a3.7,3.7,0,1,0,1.808,0V86.594a.637.637,0,0,1,.637-.635H28.78a11.2,11.2,0,0,1,2.264,5.92H29.966a2.647,2.647,0,0,0-2.645,2.643v4.813a2.648,2.648,0,0,0,2.645,2.646h1.91v1.876a3.689,3.689,0,0,0,3.684,3.686h4.182a3.688,3.688,0,0,0,3.681-3.687v-1.876h1.91a2.648,2.648,0,0,0,2.645-2.646V94.522a2.647,2.647,0,0,0-2.645-2.643h-1.06a11.2,11.2,0,0,1,2.264-5.92H56.869a.635.635,0,0,1,.634.635v5.435a3.7,3.7,0,1,0,1.808,0V86.594a2.445,2.445,0,0,0-2.441-2.443H47.946l.38-.46c1.768-2.134,3.581-4.325,4.351-7.582h7.359a3.7,3.7,0,1,0,3.585-4.6Zm-2.588-15.22a1.892,1.892,0,1,1,1.893,1.886A1.892,1.892,0,0,1,61.034,56.292Zm-50.534,0a1.89,1.89,0,1,1,1.89,1.886A1.89,1.89,0,0,1,10.5,56.292Zm1.2,20.8a1.886,1.886,0,1,1,1.89-1.886A1.89,1.89,0,0,1,11.7,77.091ZM18.8,95.613a1.892,1.892,0,1,1-1.893-1.889A1.892,1.892,0,0,1,18.8,95.613Zm22.815,8.243a1.878,1.878,0,0,1-1.873,1.879H35.561a1.88,1.88,0,0,1-1.877-1.879V101.98h7.932Zm3.718-10.169a.837.837,0,0,1,.837.835v1.5H39.926a.9.9,0,1,0,0,1.808h6.245v1.5a.839.839,0,0,1-.837.838H29.966a.839.839,0,0,1-.837-.838v-1.5h5.917a.9.9,0,1,0,0-1.808H29.129v-1.5a.837.837,0,0,1,.837-.835H45.334ZM60.3,95.613a1.892,1.892,0,1,1-1.893-1.889A1.892,1.892,0,0,1,60.3,95.613Zm3.322-18.522a1.886,1.886,0,1,1,1.89-1.886A1.89,1.89,0,0,1,63.621,77.091Z" transform="translate(-7.998 -46.308)"/></g></g></g></svg>