<svg xmlns="http://www.w3.org/2000/svg" xmlns:xlink="http://www.w3.org/1999/xlink" width="230.777" height="216.58" viewBox="0 0 230.777 216.58"><defs><clipPath id="a"><rect width="230.777" height="216.58" fill="none"/></clipPath><clipPath id="f"><rect width="11.22" height="1.326" fill="none"/></clipPath><clipPath id="g"><rect width="1.429" height="1.427" fill="none"/></clipPath><clipPath id="h"><rect width="18.371" height="1.49" fill="none"/></clipPath><clipPath id="i"><rect width="15.247" height="9.056" fill="none"/></clipPath><clipPath id="j"><rect width="4.222" height="16.443" fill="none"/></clipPath></defs><g transform="translate(-721.229 -11886.985)"><path d="M20,0H198.666a20,20,0,0,1,20,20V183.167a0,0,0,0,1,0,0H0a0,0,0,0,1,0,0V20A20,20,0,0,1,20,0Z" transform="translate(733.084 11911.05)" fill="#c2e8b0"/><path d="M261.563,644.546c0,7.286-49.007,13.192-109.461,13.192S42.641,651.832,42.641,644.546,91.648,631.353,152.1,631.353s109.461,5.906,109.461,13.193" transform="translate(690.443 11445.827)" fill="#455a64"/><g transform="translate(721.229 11886.985)"><g clip-path="url(#a)"><rect width="106.186" height="40.241" transform="translate(0.734 27.395)" fill="#fafafa"/><g clip-path="url(#a)"><path d="M115.445,73.96c0,.072-18.046.13-40.3.13s-40.3-.058-40.3-.13,18.042-.13,40.3-.13,40.3.058,40.3.13" transform="translate(-17.481 -37.046)" fill="#ebebeb"/><path d="M115.445,83.517c0,.072-18.046.13-40.3.13s-40.3-.058-40.3-.13,18.042-.13,40.3-.13,40.3.058,40.3.13" transform="translate(-17.481 -41.841)" fill="#ebebeb"/><path d="M115.445,93.074c0,.072-18.046.13-40.3.13s-40.3-.058-40.3-.13,18.042-.13,40.3-.13,40.3.058,40.3.13" transform="translate(-17.481 -46.637)" fill="#ebebeb"/><path d="M115.445,102.631c0,.072-18.046.13-40.3.13s-40.3-.058-40.3-.13,18.042-.13,40.3-.13,40.3.058,40.3.13" transform="translate(-17.481 -51.432)" fill="#ebebeb"/><path d="M115.445,112.188c0,.072-18.046.13-40.3.13s-40.3-.058-40.3-.13,18.042-.13,40.3-.13,40.3.058,40.3.13" transform="translate(-17.481 -56.228)" fill="#ebebeb"/><path d="M107.773,91.8s-.055.073-.175.21a2.112,2.112,0,0,1-.678.43,3.2,3.2,0,0,1-2.942-.541,5.391,5.391,0,0,1-1.385-1.746c-.386-.721-.692-1.555-1.055-2.427a7.644,7.644,0,0,0-1.577-2.533,3.5,3.5,0,0,0-1.369-.835,3.623,3.623,0,0,0-1.685-.094,6.449,6.449,0,0,0-3.216,1.7c-.96.866-1.8,1.934-2.837,2.9a6.5,6.5,0,0,1-3.894,1.914,3.578,3.578,0,0,1-2.229-.594,5.321,5.321,0,0,1-1.552-1.79c-.8-1.383-1.207-2.992-2.249-4.255a3.65,3.65,0,0,0-1.952-1.35,2.706,2.706,0,0,0-2.292.55,5.18,5.18,0,0,0-1.507,2,12.656,12.656,0,0,0-.713,2.508,15.537,15.537,0,0,1-.707,2.6,6.21,6.21,0,0,1-.651,1.217,5.575,5.575,0,0,1-.952,1.013A6.021,6.021,0,0,1,69.7,93.916a5.846,5.846,0,0,1-2.712.039,6.114,6.114,0,0,1-2.4-1.182c-.707-.527-1.349-1.112-2.021-1.637a6,6,0,0,0-2.177-1.186,3.148,3.148,0,0,0-2.332.3,5.492,5.492,0,0,0-1.74,1.619,15.435,15.435,0,0,0-1.176,2.062,16.113,16.113,0,0,1-1.164,2.043,5.46,5.46,0,0,1-1.673,1.587,3.4,3.4,0,0,1-2.182.51,3.138,3.138,0,0,1-1.9-1.057A5.347,5.347,0,0,1,47.183,95.2a13.58,13.58,0,0,1-.477-1.949,9.224,9.224,0,0,0-1.121-3.508,3.932,3.932,0,0,0-2.591-1.927A2.883,2.883,0,0,0,41.5,88a3.965,3.965,0,0,0-1.2.79c-1.361,1.3-2.015,2.877-3.025,3.789a4.069,4.069,0,0,1-2.7,1.36,2.258,2.258,0,0,1-.789-.14c-.166-.071-.249-.113-.249-.113a2.758,2.758,0,0,0,1.037.2,4.053,4.053,0,0,0,2.635-1.38c.983-.9,1.615-2.476,3-3.822a4.1,4.1,0,0,1,1.239-.827,3.037,3.037,0,0,1,1.575-.205,4.1,4.1,0,0,1,2.721,1.992,6.212,6.212,0,0,1,.752,1.692c.172.607.287,1.239.411,1.877a13.42,13.42,0,0,0,.476,1.917,5.139,5.139,0,0,0,1.008,1.741,2.921,2.921,0,0,0,1.765.983,3.182,3.182,0,0,0,2.036-.487,5.224,5.224,0,0,0,1.6-1.526,15.917,15.917,0,0,0,1.142-2.016,15.641,15.641,0,0,1,1.192-2.1,5.742,5.742,0,0,1,1.819-1.694,3.4,3.4,0,0,1,2.511-.329,6.244,6.244,0,0,1,2.274,1.23c.682.532,1.323,1.115,2.017,1.631a5.866,5.866,0,0,0,2.3,1.136,5.6,5.6,0,0,0,2.594-.039,5.771,5.771,0,0,0,2.354-1.176,5.308,5.308,0,0,0,.906-.965,5.973,5.973,0,0,0,.622-1.163,15.356,15.356,0,0,0,.695-2.559,12.9,12.9,0,0,1,.732-2.559,5.431,5.431,0,0,1,1.586-2.1,2.963,2.963,0,0,1,2.5-.593,3.894,3.894,0,0,1,2.088,1.439c1.08,1.32,1.485,2.95,2.264,4.292a5.1,5.1,0,0,0,1.476,1.715,3.344,3.344,0,0,0,2.085.56,6.29,6.29,0,0,0,3.76-1.844c1.02-.948,1.87-2.015,2.849-2.892a6.626,6.626,0,0,1,3.32-1.737,3.8,3.8,0,0,1,1.768.108,3.668,3.668,0,0,1,1.431.883,7.77,7.77,0,0,1,1.6,2.6c.359.88.656,1.71,1.03,2.425a5.327,5.327,0,0,0,1.337,1.723,3.162,3.162,0,0,0,2.863.571,2.209,2.209,0,0,0,.871-.59" transform="translate(-16.828 -41.382)" fill="#e0e0e0"/><path d="M112.21,86.982s-.093.011-.28.019c-.092,0-.206-.027-.343-.046a3.01,3.01,0,0,1-.45-.162,7.614,7.614,0,0,1-2.4-2.022q-.336-.389-.687-.839a9.426,9.426,0,0,0-.745-.919,3.95,3.95,0,0,0-2.373-1.081,3.34,3.34,0,0,0-1.447.182,3.734,3.734,0,0,0-1.291.871,30.364,30.364,0,0,0-2.122,2.745,6.284,6.284,0,0,1-1.359,1.32,4.2,4.2,0,0,1-1.858.7,8.328,8.328,0,0,1-4.091-.766c-1.338-.556-2.616-1.321-4.055-1.811a7.515,7.515,0,0,0-2.238-.449,4.868,4.868,0,0,0-2.259.494,25.226,25.226,0,0,0-3.921,2.974,8.024,8.024,0,0,1-2.27,1.244,8.507,8.507,0,0,1-2.6.45,9.591,9.591,0,0,1-5.164-1.431,12.52,12.52,0,0,1-3.918-3.9,35.364,35.364,0,0,1-2.385-4.989,10.206,10.206,0,0,0-1.387-2.27,6.046,6.046,0,0,0-2.043-1.578,3.649,3.649,0,0,0-2.462-.26A4.1,4.1,0,0,0,56.018,76.8a6.9,6.9,0,0,0-1.224,2.123,16.855,16.855,0,0,0-.633,2.348c-.168.788-.319,1.574-.535,2.338a10.219,10.219,0,0,1-.877,2.178,9.863,9.863,0,0,1-2.958,3.34,8.685,8.685,0,0,1-3.86,1.562,8.112,8.112,0,0,1-3.816-.442,7.511,7.511,0,0,1-4.6-4.514c-.318-.926-.479-1.818-.708-2.613a6.025,6.025,0,0,0-.918-2.041,3.267,3.267,0,0,0-2.662-1.365,2.066,2.066,0,0,0-1.009.367,1.7,1.7,0,0,1,1-.419,3.306,3.306,0,0,1,2.745,1.355,6.09,6.09,0,0,1,.958,2.069c.238.8.406,1.69.726,2.6a7.364,7.364,0,0,0,4.527,4.39,7.933,7.933,0,0,0,3.726.416,8.488,8.488,0,0,0,3.762-1.539,9.661,9.661,0,0,0,2.883-3.273,15.068,15.068,0,0,0,1.379-4.456,17.043,17.043,0,0,1,.638-2.383,7.137,7.137,0,0,1,1.265-2.2A4.352,4.352,0,0,1,58,75.211a3.9,3.9,0,0,1,2.63.271,6.288,6.288,0,0,1,2.133,1.643,10.428,10.428,0,0,1,1.425,2.326,35.334,35.334,0,0,0,2.369,4.957,12.274,12.274,0,0,0,3.834,3.823,9.342,9.342,0,0,0,5.025,1.4,8.282,8.282,0,0,0,2.524-.434,7.776,7.776,0,0,0,2.2-1.2A25.142,25.142,0,0,1,84.11,85a5.107,5.107,0,0,1,2.368-.512,7.727,7.727,0,0,1,2.307.467c1.463.5,2.75,1.279,4.063,1.828a8.136,8.136,0,0,0,3.984.766,4,4,0,0,0,1.776-.656,6.129,6.129,0,0,0,1.323-1.275,29.976,29.976,0,0,1,2.15-2.749,3.883,3.883,0,0,1,1.352-.9,3.485,3.485,0,0,1,1.515-.181,4.078,4.078,0,0,1,2.446,1.137,9.575,9.575,0,0,1,.747.938q.345.451.674.841a7.749,7.749,0,0,0,2.345,2.04,2.077,2.077,0,0,0,1.05.237" transform="translate(-16.166 -37.679)" fill="#e0e0e0"/><path d="M21.585,74.435a2.3,2.3,0,0,1-1.066.13,2.3,2.3,0,0,1-1.067-.13,2.3,2.3,0,0,1,1.067-.13,2.3,2.3,0,0,1,1.066.13" transform="translate(-9.761 -37.284)" fill="#e0e0e0"/><path d="M21.585,83.517a2.3,2.3,0,0,1-1.066.13,2.3,2.3,0,0,1-1.067-.13,2.3,2.3,0,0,1,1.067-.13,2.3,2.3,0,0,1,1.066.13" transform="translate(-9.761 -41.841)" fill="#e0e0e0"/><path d="M21.585,92.6a2.292,2.292,0,0,1-1.066.13,2.293,2.293,0,0,1-1.067-.13,2.316,2.316,0,0,1,1.067-.129,2.315,2.315,0,0,1,1.066.129" transform="translate(-9.761 -46.399)" fill="#e0e0e0"/><path d="M21.585,101.682a2.3,2.3,0,0,1-1.066.13,2.3,2.3,0,0,1-1.067-.13,2.3,2.3,0,0,1,1.067-.13,2.3,2.3,0,0,1,1.066.13" transform="translate(-9.761 -50.956)" fill="#e0e0e0"/><path d="M21.585,110.764a2.3,2.3,0,0,1-1.066.13,2.3,2.3,0,0,1-1.067-.13,2.3,2.3,0,0,1,1.067-.13,2.3,2.3,0,0,1,1.066.13" transform="translate(-9.761 -55.513)" fill="#e0e0e0"/><path d="M39.1,122.437a8.873,8.873,0,0,1-2.132.13,8.867,8.867,0,0,1-2.131-.13,8.867,8.867,0,0,1,2.131-.13,8.873,8.873,0,0,1,2.132.13" transform="translate(-17.482 -61.371)" fill="#e0e0e0"/><path d="M76.826,122.437a8.873,8.873,0,0,1-2.132.13,8.873,8.873,0,0,1-2.132-.13,8.873,8.873,0,0,1,2.132-.13,8.872,8.872,0,0,1,2.132.13" transform="translate(-36.41 -61.371)" fill="#e0e0e0"/><path d="M114.548,122.437a17.6,17.6,0,0,1-4.263,0,17.6,17.6,0,0,1,4.263,0" transform="translate(-55.338 -61.371)" fill="#e0e0e0"/><path d="M152.271,122.437a17.6,17.6,0,0,1-4.263,0,17.6,17.6,0,0,1,4.263,0" transform="translate(-74.267 -61.371)" fill="#e0e0e0"/><path d="M189.994,122.437a17.6,17.6,0,0,1-4.263,0,17.6,17.6,0,0,1,4.263,0" transform="translate(-93.195 -61.371)" fill="#e0e0e0"/><rect width="86.445" height="53.502" transform="translate(144.332 144.701)" fill="#fafafa"/><path d="M364.521,344.976c-5.994-2.273-12.889,4.012-18.765,1.449-3.419-1.492-4.97-5.359-6.645-8.692s-4.562-6.849-8.272-6.462c-3.743.39-6.768,4.723-10.384,3.679-2.278-.658-3.416-3.185-3.987-5.487s-.967-4.846-2.7-6.46-5.357-1.182-5.629,1.173V352.54h67.6s-9.139-6.777-11.214-7.564" transform="translate(-154.614 -161.592)" fill="#ebebeb"/><path d="M373.729,383.146c0,.061-16.386.11-36.593.11s-36.6-.049-36.6-.11,16.382-.11,36.6-.11,36.593.049,36.593.11" transform="translate(-150.803 -192.198)" fill="#e0e0e0"/><path d="M373.729,358.28c0,.061-16.386.11-36.593.11s-36.6-.049-36.6-.11,16.382-.11,36.6-.11,36.593.049,36.593.11" transform="translate(-150.803 -179.721)" fill="#e0e0e0"/><path d="M373.729,333.415c0,.061-16.386.11-36.593.11s-36.6-.049-36.6-.11,16.382-.11,36.6-.11,36.593.049,36.593.11" transform="translate(-150.803 -167.244)" fill="#e0e0e0"/><path d="M373.729,309.784c0,.061-16.386.11-36.593.11s-36.6-.049-36.6-.11,16.382-.11,36.6-.11,36.593.049,36.593.11" transform="translate(-150.803 -155.387)" fill="#e0e0e0"/></g><g clip-path="url(#a)"><path d="M434.88,17.235s7.618.107,4.358,15.189-2.839,17.935-2.839,23.9a10.405,10.405,0,0,0,5.634,9.495H431.7l-7.6-35.205V17.235Z" transform="translate(-212.804 -8.648)" fill="#e0e0e0"/><path d="M345.165,147.608H240.844l.929-102.063,98.259-5.135Z" transform="translate(-120.849 -20.277)" fill="#e0e0e0"/><path d="M337.978,145.5H233.656l.929-102.063L335.878,41.46Z" transform="translate(-117.243 -20.803)" fill="#ebebeb"/><path d="M333.849,141.534H229.739V39.471l104.173-.243Z" transform="translate(-115.277 -19.683)" fill="#fafafa"/><path d="M333.718,141.421c0-.953-.019-40.942-.049-102.306l.112.112-104.01.261h-.163l.13-.13c-.006,37.336-.012,72.346-.017,102.063l-.112-.113,104.11.113-104.11.113H229.5v-.113c0-29.717-.011-64.727-.017-102.063v-.13h.293L333.781,39h.113v.113c-.1,61.364-.173,101.354-.175,102.306" transform="translate(-115.146 -19.57)" fill="#263238"/><path d="M333.559,27.545c-5.377-6.263.862-10.9,2.966-11l-99.131-.056a8.349,8.349,0,0,0-8.234,9.775,11.49,11.49,0,0,0,.4,1.552" transform="translate(-114.923 -8.276)" fill="#f5f5f5"/><path d="M439.244,65.719a.647.647,0,0,1,.136-.011l.4-.011,1.557-.02,5.871-.037-.023.154a6.291,6.291,0,0,1-2.395-1.371A7.8,7.8,0,0,1,443,61.876a17.046,17.046,0,0,1-1.069-3.26c-.135-.58-.255-1.177-.366-1.785-.054-.3-.117-.609-.144-.928a7.508,7.508,0,0,1-.072-.958,35.366,35.366,0,0,1,.133-3.966c.1-1.357.251-2.746.416-4.165.34-2.836.766-5.79,1.269-8.817.206-1.294.468-2.57.682-3.821s.372-2.5.531-3.728.292-2.431.434-3.611c.063-.592.145-1.174.158-1.746a10.512,10.512,0,0,0-.1-1.7,10.2,10.2,0,0,0-.939-3.129,6.239,6.239,0,0,0-1.9-2.374,3.741,3.741,0,0,0-2.709-.605,4.971,4.971,0,0,0-2.413,1,5.943,5.943,0,0,0-1.507,1.865,8.045,8.045,0,0,0-.732,2.03,5.3,5.3,0,0,0,.4,3.375,11.184,11.184,0,0,0,1.1,1.907l.334.467a1.066,1.066,0,0,1,.11.163,1.142,1.142,0,0,1-.13-.147c-.084-.1-.2-.251-.356-.453a10.433,10.433,0,0,1-1.147-1.9,5.379,5.379,0,0,1-.446-3.446,8.125,8.125,0,0,1,.727-2.077,6.1,6.1,0,0,1,1.538-1.931,5.153,5.153,0,0,1,2.5-1.057,3.946,3.946,0,0,1,2.86.627,6.441,6.441,0,0,1,1.986,2.449,10.425,10.425,0,0,1,.972,3.2,10.752,10.752,0,0,1,.1,1.739c-.012.592-.094,1.177-.155,1.767-.132,1.182-.272,2.388-.428,3.616s-.323,2.475-.528,3.738-.474,2.527-.681,3.822c-.5,3.023-.931,5.973-1.275,8.8-.166,1.416-.32,2.8-.423,4.154a35.389,35.389,0,0,0-.144,3.939,7.432,7.432,0,0,0,.066.937c.024.307.086.614.139.918.109.606.225,1.2.356,1.777a16.965,16.965,0,0,0,1.039,3.225,7.645,7.645,0,0,0,1.728,2.5,6.145,6.145,0,0,0,2.319,1.352l.487.158-.511,0-5.871-.037-1.557-.02-.4-.011a.648.648,0,0,1-.136-.011" transform="translate(-217.979 -8.547)" fill="#263238"/><path d="M313.941,22.867c.04.029-.257.425-.552,1.149a6.572,6.572,0,0,0-.374,1.314,6.76,6.76,0,0,0,.254,3.3,6.526,6.526,0,0,0,.57,1.241c.4.671.756,1.017.72,1.051-.012.012-.108-.066-.271-.22a4.253,4.253,0,0,1-.6-.733,5.834,5.834,0,0,1-.641-1.261,6.405,6.405,0,0,1-.263-3.425,5.813,5.813,0,0,1,.441-1.344,4.226,4.226,0,0,1,.486-.817c.137-.177.219-.27.234-.259" transform="translate(-156.886 -11.474)" fill="#263238"/><path d="M307.625,15.784a10.622,10.622,0,0,0-1.317,1.608,6.859,6.859,0,0,0-.941,4.779,6.858,6.858,0,0,0,2.6,4.119,10.631,10.631,0,0,0,1.808,1.026,1.97,1.97,0,0,1-.548-.15,5.959,5.959,0,0,1-1.369-.727,6.578,6.578,0,0,1-1.706-9.146,5.956,5.956,0,0,1,1.014-1.172,1.954,1.954,0,0,1,.457-.337" transform="translate(-153.045 -7.92)" fill="#263238"/><path d="M339.615,131.489s-.111.009-.326.013l-.957.012-3.679.024-13.533.041-44.647.038-19.254-.006h-.124v-.124c.019-12.756.035-23.727.046-31.518.015-3.885.027-6.977.036-9.107.009-1.054.015-1.868.02-2.43,0-.27.008-.477.01-.627s.01-.212.01-.212.007.071.011.212.006.357.01.627c0,.561.011,1.376.02,2.43.008,2.13.02,5.222.036,9.107.011,7.791.027,18.762.046,31.518l-.124-.124,19.254-.006,44.647.038,13.533.041,3.679.024.957.012c.215,0,.326.013.326.013" transform="translate(-129.003 -43.953)" fill="#263238"/><rect width="8.323" height="8.323" transform="translate(134.911 76.692)" fill="#529d2e"/><rect width="8.323" height="14.274" transform="translate(147.113 70.742)" fill="#529d2e"/><rect width="8.323" height="21.033" transform="translate(159.364 63.982)" fill="#529d2e"/><rect width="8.323" height="28.557" transform="translate(171.24 56.458)" fill="#529d2e"/><rect width="8.323" height="38.191" transform="translate(183.393 46.824)" fill="#529d2e"/><rect width="8.323" height="45.143" transform="translate(195.455 39.477)" fill="#529d2e"/><path d="M270.783,99.164a.651.651,0,0,1,.106-.082l.324-.224,1.268-.848,4.77-3.144,16.517-10.795.191-.125v.229c0,1.179,0,2.441,0,3.726l-.2-.106,6.509-4.365,22.969-15.345,6.977-4.626,1.9-1.247.5-.319a1.108,1.108,0,0,1,.175-.1,1.192,1.192,0,0,1-.16.123l-.485.34-1.877,1.287-6.931,4.694L300.418,83.646l-6.512,4.36-.2.133V87.9c0-1.285,0-2.547,0-3.726l.191.1L277.336,95l-4.809,3.084-1.29.815-.335.206a.628.628,0,0,1-.118.064" transform="translate(-135.872 -31.006)" fill="#263238"/><path d="M391.044,65.165a4.3,4.3,0,0,1-.088-1.026c-.023-.637-.038-1.523-.041-2.516l.129.13h-.318c-1.066,0-2.031-.015-2.73-.038a4.937,4.937,0,0,1-1.131-.092A4.936,4.936,0,0,1,388,61.532c.7-.023,1.664-.038,2.73-.038h.447v.129c0,.993-.018,1.878-.041,2.516a4.3,4.3,0,0,1-.088,1.026" transform="translate(-194.119 -30.856)" fill="#263238"/><path d="M295.4,189.039c0,.072-2.573.13-5.746.13s-5.746-.058-5.746-.13,2.572-.13,5.746-.13,5.746.058,5.746.13" transform="translate(-142.458 -94.79)" fill="#263238"/><path d="M295,194.354a7.054,7.054,0,0,1,0-2.691,7.054,7.054,0,0,1,0,2.691" transform="translate(-147.958 -96.172)" fill="#263238"/><path d="M292.319,199.636c0,.072-6.907.13-15.425.13s-15.426-.058-15.426-.13,6.905-.13,15.426-.13,15.425.058,15.425.13" transform="translate(-131.198 -100.107)" fill="#263238"/><path d="M261.754,203.7a13.469,13.469,0,0,1,0-3.727,13.516,13.516,0,0,1,0,3.727" transform="translate(-131.276 -100.342)" fill="#263238"/><path d="M283.779,203.391a10,10,0,0,1,0-3.209,10,10,0,0,1,0,3.209" transform="translate(-142.328 -100.446)" fill="#263238"/><path d="M306.428,203.494a12.02,12.02,0,0,1,0-3.52,12.02,12.02,0,0,1,0,3.52" transform="translate(-153.693 -100.342)" fill="#263238"/><path d="M323.675,203.39a12.737,12.737,0,0,1,0-3.624,12.734,12.734,0,0,1,0,3.624" transform="translate(-162.347 -100.238)" fill="#263238"/><path d="M262.065,209.4a53.67,53.67,0,0,1-7.454,0,53.689,53.689,0,0,1,7.454,0" transform="translate(-127.757 -105.007)" fill="#263238"/><path d="M282.954,209.4a31.341,31.341,0,0,1-5.694,0,31.352,31.352,0,0,1,5.694,0" transform="translate(-139.122 -105.007)" fill="#263238"/><path d="M306.848,210.025a36.074,36.074,0,0,1-6.108,0,36.07,36.07,0,0,1,6.108,0" transform="translate(-150.904 -105.32)" fill="#263238"/><path d="M326.171,208.986a41.123,41.123,0,0,1-6.523,0,41.118,41.118,0,0,1,6.523,0" transform="translate(-160.391 -104.799)" fill="#263238"/><path d="M261.961,214.615a4.626,4.626,0,0,1,0-2.174,4.626,4.626,0,0,1,0,2.174" transform="translate(-131.38 -106.597)" fill="#263238"/><path d="M262.76,216.675c0,.072-3.013.13-6.73.13s-6.729-.058-6.729-.13,3.013-.13,6.729-.13,6.73.058,6.73.13" transform="translate(-125.093 -108.657)" fill="#263238"/><path d="M276.183,219.91a9.338,9.338,0,0,1,0-3.106,9.408,9.408,0,0,1,0,3.106" transform="translate(-138.516 -108.787)" fill="#263238"/><path d="M249.171,220.118a10.654,10.654,0,0,1,0-3.313,10.654,10.654,0,0,1,0,3.313" transform="translate(-124.962 -108.787)" fill="#263238"/><path d="M306.982,214.615a4.626,4.626,0,0,1,0-2.174,4.643,4.643,0,0,1,0,2.174" transform="translate(-153.971 -106.597)" fill="#263238"/><path d="M317.054,216.675c0,.072-5.089.13-11.366.13s-11.367-.058-11.367-.13,5.088-.13,11.367-.13,11.366.058,11.366.13" transform="translate(-147.683 -108.657)" fill="#263238"/><path d="M321.2,219.91a9.375,9.375,0,0,1,0-3.106,9.373,9.373,0,0,1,0,3.106" transform="translate(-161.107 -108.787)" fill="#263238"/><path d="M340.75,219.91a9.373,9.373,0,0,1,0-3.106,9.373,9.373,0,0,1,0,3.106" transform="translate(-170.914 -108.787)" fill="#263238"/><path d="M294.191,220.118a10.656,10.656,0,0,1,0-3.313,10.654,10.654,0,0,1,0,3.313" transform="translate(-147.552 -108.787)" fill="#263238"/><path d="M249.282,227.155a27.228,27.228,0,0,1-5.305,0,27.221,27.221,0,0,1,5.305,0" transform="translate(-122.421 -113.915)" fill="#263238"/><path d="M275.3,226.393a31.779,31.779,0,0,1-5.733,0,31.779,31.779,0,0,1,5.733,0" transform="translate(-135.264 -113.533)" fill="#263238"/><path d="M295.112,226.393a24.658,24.658,0,0,1-5.049,0,24.658,24.658,0,0,1,5.049,0" transform="translate(-145.546 -113.533)" fill="#263238"/><path d="M320.447,226.393a29,29,0,0,1-5.476,0,29,29,0,0,1,5.476,0" transform="translate(-158.044 -113.533)" fill="#263238"/><path d="M340.97,225.706a29.915,29.915,0,0,1-5.562,0,29.915,29.915,0,0,1,5.562,0" transform="translate(-168.299 -113.188)" fill="#263238"/><path d="M387.175,207.971H352.027V186.207h35.148Zm-35.122-.025h35.1V186.232h-35.1Z" transform="translate(-176.638 -93.434)" fill="#263238"/><path d="M382.456,208.394c-2.435-.924-5.237,1.63-7.625.589-1.389-.606-2.019-2.177-2.7-3.531s-1.853-2.783-3.361-2.626-2.75,1.919-4.219,1.495a2.83,2.83,0,0,1-1.62-2.23,5.058,5.058,0,0,0-1.1-2.625c-.706-.656-2.177-.48-2.287.477v11.524h27.466a48.206,48.206,0,0,0-4.556-3.073" transform="translate(-180.411 -99.891)" fill="#fcd03e"/><path d="M386.2,223.9c0,.025-6.657.045-14.868.045s-14.87-.02-14.87-.045,6.656-.045,14.87-.045,14.868.02,14.868.045" transform="translate(-178.862 -112.326)" fill="#e0e0e0"/><path d="M386.2,213.8c0,.024-6.657.045-14.868.045s-14.87-.02-14.87-.045,6.656-.045,14.87-.045,14.868.02,14.868.045" transform="translate(-178.862 -107.256)" fill="#263238"/><path d="M386.2,203.7c0,.024-6.657.045-14.868.045s-14.87-.02-14.87-.045,6.656-.045,14.87-.045,14.868.02,14.868.045" transform="translate(-178.862 -102.187)" fill="#263238"/><path d="M386.2,194.095c0,.024-6.657.045-14.868.045s-14.87-.02-14.87-.045,6.656-.045,14.87-.045,14.868.02,14.868.045" transform="translate(-178.862 -97.369)" fill="#263238"/><path d="M254.256,54.055a.275.275,0,0,1,.048,0h.143a3.254,3.254,0,0,1,.547.049,3,3,0,0,1,.828.283,2.749,2.749,0,0,1,.883.757,3.181,3.181,0,0,1,.58,1.295,3.062,3.062,0,0,1-.2,1.621,4.764,4.764,0,0,1-.4.8,8.564,8.564,0,0,0-.455.805,7.039,7.039,0,0,0-.608,1.847l-.008.044h-.042l-1.3-.031-1.365-.034h-.048v-.049a3.909,3.909,0,0,0-.561-1.826c-.147-.276-.31-.537-.462-.8a7.641,7.641,0,0,1-.432-.773,2.543,2.543,0,0,1-.142-1.613,3.427,3.427,0,0,1,.561-1.293,2.539,2.539,0,0,1,.889-.737,3.206,3.206,0,0,1,.822-.28,3.428,3.428,0,0,1,.542-.066c.062,0,.11,0,.141,0a.168.168,0,0,1,.048,0,.173.173,0,0,1-.048,0l-.141.009a3.88,3.88,0,0,0-.535.082,3.31,3.31,0,0,0-.805.29,2.509,2.509,0,0,0-.86.731,3.375,3.375,0,0,0-.538,1.269A2.47,2.47,0,0,0,251.476,58a7.674,7.674,0,0,0,.431.763c.15.258.316.521.466.8a3.981,3.981,0,0,1,.575,1.873l-.048-.05,1.365.032,1.3.032-.05.043a7.088,7.088,0,0,1,.621-1.876,8.515,8.515,0,0,1,.462-.811,4.788,4.788,0,0,0,.4-.783,2.989,2.989,0,0,0,.209-1.577,3.118,3.118,0,0,0-.556-1.267,2.715,2.715,0,0,0-.854-.752,3.038,3.038,0,0,0-.81-.294,3.7,3.7,0,0,0-.541-.065l-.141-.01a.144.144,0,0,1-.048-.006" transform="translate(-126.037 -27.121)" fill="#263238"/><path d="M256,63.879s0-.014-.006-.042l-.015-.123c-.012-.11-.03-.269-.053-.473-.043-.411-.107-1.007-.136-1.746-.006-.185-.011-.379-.011-.58s0-.412.022-.63a1.766,1.766,0,0,1,.175-.653,1,1,0,0,1,.523-.483.673.673,0,0,1,.711.165.5.5,0,0,1,.139.367.64.64,0,0,1-.15.372.856.856,0,0,1-.327.243,1.675,1.675,0,0,1-.4.114,4.684,4.684,0,0,1-.835.063,4.828,4.828,0,0,1-.835-.074,1.577,1.577,0,0,1-.392-.131,1.026,1.026,0,0,1-.322-.249.766.766,0,0,1-.177-.36.594.594,0,0,1,.063-.388.529.529,0,0,1,.286-.257.474.474,0,0,1,.374.032.712.712,0,0,1,.271.249.985.985,0,0,1,.127.334,3.966,3.966,0,0,1,.039.675c.005.434.01.84.014,1.209.007.738.013,1.336.017,1.751,0,.205,0,.365,0,.476,0,.053,0,.094,0,.124s0,.042,0,.042,0-.014,0-.042,0-.071,0-.124c0-.111-.006-.271-.01-.476-.007-.415-.017-1.012-.03-1.75-.006-.37-.012-.775-.019-1.209a3.958,3.958,0,0,0-.041-.668.944.944,0,0,0-.123-.321.669.669,0,0,0-.256-.235.437.437,0,0,0-.344-.03.491.491,0,0,0-.265.239.559.559,0,0,0-.058.363.733.733,0,0,0,.168.341,1.188,1.188,0,0,0,.692.366,4.818,4.818,0,0,0,.827.073,4.644,4.644,0,0,0,.828-.063,1.63,1.63,0,0,0,.387-.111.821.821,0,0,0,.313-.232.6.6,0,0,0,.142-.348.464.464,0,0,0-.128-.338.637.637,0,0,0-.671-.157.965.965,0,0,0-.5.464,1.731,1.731,0,0,0-.173.64c-.021.215-.021.425-.024.626s0,.4.008.579c.025.738.085,1.334.123,1.746.02.2.035.364.045.474,0,.053.008.094.011.123s0,.042,0,.042" transform="translate(-127.404 -29.599)" fill="#263238"/><path d="M254.565,68.785c.006.006.011.164.016.439q.005.478.013,1.143l-.01-.028.846,1.058-.045-.021,1.027-.016-.044.02.536-.6.269-.3-.015.039c.01-.6.02-1.171.029-1.69l.054.055-1.916-.056-.554-.023a1.475,1.475,0,0,1-.206-.016.925.925,0,0,1,.183-.01l.542-.006,1.953,0h.055v.055c-.005.52-.011,1.089-.017,1.69v.023l-.015.017-.268.3-.537.6-.018.02h-.026l-1.027.009h-.028l-.017-.021-.828-1.072-.01-.013v-.015l.036-1.171a3.55,3.55,0,0,1,.025-.411" transform="translate(-127.704 -34.507)" fill="#263238"/><path d="M257.238,71.612a.615.615,0,0,1-.1-.045,2.754,2.754,0,0,0-.261-.116,2.6,2.6,0,0,0-1.844-.018c-.113.042-.2.082-.264.111a.563.563,0,0,1-.1.043.531.531,0,0,1,.089-.057,2.25,2.25,0,0,1,.262-.124,2.459,2.459,0,0,1,1.864.018,2.146,2.146,0,0,1,.259.129.511.511,0,0,1,.088.059" transform="translate(-127.79 -35.742)" fill="#263238"/><path d="M257.271,70.788a.623.623,0,0,1-.1-.045,2.722,2.722,0,0,0-.262-.116,2.6,2.6,0,0,0-1.844-.018c-.113.042-.2.082-.264.111a.525.525,0,0,1-.1.043.477.477,0,0,1,.089-.057,2.158,2.158,0,0,1,.261-.124,2.46,2.46,0,0,1,1.865.018,2.086,2.086,0,0,1,.259.129.473.473,0,0,1,.088.059" transform="translate(-127.806 -35.328)" fill="#263238"/><path d="M257.254,70a.621.621,0,0,1-.1-.045c-.06-.03-.149-.072-.262-.116a2.6,2.6,0,0,0-1.844-.018c-.113.041-.2.081-.264.111a.609.609,0,0,1-.1.043.421.421,0,0,1,.089-.057,2.076,2.076,0,0,1,.261-.124,2.466,2.466,0,0,1,1.865.018,2.082,2.082,0,0,1,.259.129.475.475,0,0,1,.088.059" transform="translate(-127.798 -34.935)" fill="#263238"/><path d="M278.556,91.92s-1.005,9.19.287,14.222l12.28-.537s-2.631-9.066-1.015-13.082Z" transform="translate(-139.585 -46.123)" fill="#ebebeb"/><path d="M279.029,91.327s.084,9.922.588,12.949l12.445-.588s-1.093-9.754-.673-12.361Z" transform="translate(-140.01 -45.826)" fill="#fcd03e"/><path d="M291.663,99.678c0,.046-1.865.2-4.17.334s-4.178.214-4.181.168,1.864-.2,4.171-.334,4.178-.214,4.181-.168" transform="translate(-142.159 -50.009)" fill="#fff"/><path d="M291.67,103.9c0,.046-1.865.2-4.171.335s-4.178.213-4.181.168,1.864-.2,4.171-.334,4.178-.214,4.181-.169" transform="translate(-142.162 -52.126)" fill="#fff"/><path d="M291.043,108.03a2.933,2.933,0,0,1-.693.1c-.429.041-1.023.086-1.681.126s-1.253.066-1.684.077a2.929,2.929,0,0,1-.7-.017,2.984,2.984,0,0,1,.693-.1c.43-.041,1.024-.086,1.681-.126s1.252-.066,1.684-.077a2.95,2.95,0,0,1,.7.016" transform="translate(-143.651 -54.195)" fill="#fff"/><path d="M303.239,58.86c0,.072-7.279.13-16.256.13s-16.258-.058-16.258-.13,7.278-.13,16.258-.13,16.256.058,16.256.13" transform="translate(-135.843 -29.469)" fill="#263238"/><path d="M282.408,64.808c0,.072-2.73.13-6.1.13s-6.1-.058-6.1-.13,2.729-.13,6.1-.13,6.1.058,6.1.13" transform="translate(-135.587 -32.454)" fill="#263238"/><path d="M302.956,64.808a21.375,21.375,0,0,1-4.7,0,21.374,21.374,0,0,1,4.7,0" transform="translate(-149.658 -32.454)" fill="#263238"/><path d="M441.45,83.294a.373.373,0,0,1-.02-.113c-.009-.09-.02-.2-.033-.333q-.037-.473-.1-1.282c-.078-1.138-.188-2.745-.323-4.72-.249-4.007-.59-9.5-.968-15.577-.348-6.076-.662-11.575-.892-15.583-.1-1.977-.182-3.585-.241-4.725q-.033-.81-.052-1.285c0-.135-.005-.244-.007-.334a.383.383,0,0,1,.006-.115.359.359,0,0,1,.02.113c.009.09.02.2.033.333q.037.474.1,1.283c.078,1.138.188,2.744.323,4.719.249,4.007.59,9.5.968,15.579.348,6.074.662,11.572.892,15.581.1,1.977.182,3.585.241,4.725q.033.811.052,1.285c0,.134.005.244.007.335a.378.378,0,0,1-.006.114" transform="translate(-220.186 -19.684)" fill="#263238"/><path d="M333.738,16.3s-.1.008-.288.012l-.848.011-3.258.017-11.984.015-39.538-.049-40.931-.131.021,0a9.851,9.851,0,0,0-5.2,3.244,9.613,9.613,0,0,0-2.023,4.174,10.015,10.015,0,0,0-.192,2.933c.03.335.061.59.091.76s.033.259.033.259a6.8,6.8,0,0,1-.173-1.013,9.823,9.823,0,0,1,2.158-7.2A9.969,9.969,0,0,1,236.87,16l.01,0h.011l40.931.048,39.537.125,11.985.067,3.258.032.848.014c.191,0,.288.014.288.014" transform="translate(-115.103 -8.028)" fill="#263238"/></g><g clip-path="url(#a)"><path d="M43.769,322.615a27.282,27.282,0,0,0-26.022-7.142A47.4,47.4,0,0,0,44.076,323.7" transform="translate(-8.905 -157.864)" fill="#529d2e"/><path d="M44.562,245.922a26.4,26.4,0,0,0-7.637-21.868,35.625,35.625,0,0,0,7.637,21.868" transform="translate(-18.524 -112.425)" fill="#529d2e"/><path d="M42.538,278.92a40.946,40.946,0,0,0-18.8-17.971A25.84,25.84,0,0,0,42.608,279" transform="translate(-11.909 -130.938)" fill="#529d2e"/><path d="M37.656,294.341a48.562,48.562,0,0,1-13.8-1.218,22.837,22.837,0,0,1-11.749-7.01,46.1,46.1,0,0,1,25.477,7.778" transform="translate(-6.076 -143.564)" fill="#529d2e"/><path d="M58.665,264.166c2.351-8.811,6.23-14.905,13.155-19.843a18.325,18.325,0,0,1-13.155,19.843" transform="translate(-29.437 -122.595)" fill="#529d2e"/><path d="M85.775,302.482A13.045,13.045,0,0,0,77.852,290.4c.385,4.55,3.959,9.813,7.923,12.079" transform="translate(-39.064 -145.717)" fill="#529d2e"/><path d="M98.2,283.043a19.434,19.434,0,0,1,12.73-16.577c-1.6,7.363-5.856,13.492-12.73,16.577" transform="translate(-49.272 -133.706)" fill="#529d2e"/><path d="M91.5,320.8a12.258,12.258,0,0,1,7.056-4.511,36.469,36.469,0,0,1,8.489-.845,19.846,19.846,0,0,1-15.329,6.384" transform="translate(-45.914 -158.284)" fill="#529d2e"/><path d="M84.858,362.935a21.745,21.745,0,0,1,26.554,12.579,56.808,56.808,0,0,1-26.554-12.579" transform="translate(-42.58 -181.634)" fill="#529d2e"/><path d="M60.628,350.792c1.6,4.737,1.294,10.462-2.268,14.544a17.377,17.377,0,0,1,2.268-14.544" transform="translate(-28.936 -176.018)" fill="#529d2e"/><path d="M39.821,345.512a17.818,17.818,0,0,1-9.842,14.459,1.107,1.107,0,0,1-.87.143c-.434-.177-.473-.769-.42-1.235.7-6.068,5.194-11.937,11.132-13.367" transform="translate(-14.386 -173.369)" fill="#529d2e"/><path d="M21.347,343.606a14.805,14.805,0,0,1-10.65,4.687A14.8,14.8,0,0,1,0,343.715c6.786-.743,14.615-1.238,21.347-.109" transform="translate(0 -172.079)" fill="#529d2e"/><path d="M40.808,235.4a1.248,1.248,0,0,0,.062.2l.207.574.819,2.2c.365.95.786,2.122,1.274,3.484l.786,2.178q.4,1.164.847,2.455c1.2,3.436,2.537,7.56,3.978,12.152,1.415,4.6,2.9,9.679,4.363,15.037,1.443,5.365,2.721,10.5,3.81,15.19,1.057,4.7,1.967,8.934,2.624,12.514q.253,1.34.481,2.551.206,1.212.388,2.283c.246,1.425.456,2.652.6,3.66s.273,1.774.356,2.317c.042.255.075.454.1.6a1.238,1.238,0,0,0,.043.2,1.2,1.2,0,0,0-.016-.208c-.018-.148-.042-.349-.073-.605-.072-.545-.176-1.326-.308-2.325s-.322-2.242-.555-3.669q-.173-1.072-.368-2.288l-.464-2.556c-.634-3.587-1.526-7.833-2.571-12.534-1.076-4.694-2.349-9.835-3.792-15.2-1.463-5.361-2.957-10.441-4.385-15.039-1.454-4.591-2.808-8.711-4.033-12.142l-.865-2.449-.805-2.173c-.5-1.357-.936-2.525-1.316-3.47l-.864-2.18-.231-.564a1.26,1.26,0,0,0-.087-.189" transform="translate(-20.476 -118.117)" fill="#263238"/><path d="M96.88,274.356a.736.736,0,0,0-.117.11l-.324.341c-.283.3-.694.753-1.207,1.35a47.6,47.6,0,0,0-3.995,5.327,35.764,35.764,0,0,0-4.178,8.938,87.439,87.439,0,0,0-2.506,11.828c-1.38,8.461-3.073,16.039-4.3,21.521l-1.47,6.489-.391,1.766-.1.461a.743.743,0,0,0-.024.159.7.7,0,0,0,.05-.153c.031-.116.07-.266.121-.455.1-.418.251-1.006.438-1.755l1.55-6.471c1.271-5.472,2.994-13.05,4.375-21.519a89.6,89.6,0,0,1,2.478-11.8,36.162,36.162,0,0,1,4.1-8.909,51.27,51.27,0,0,1,3.917-5.36c.5-.605.9-1.067,1.168-1.38l.305-.358a.744.744,0,0,0,.1-.128" transform="translate(-39.276 -137.665)" fill="#263238"/><path d="M38.778,343.689a.91.91,0,0,0,.245.045l.7.078.507.05.6.09c.43.064.922.127,1.457.246l.842.167.9.229c.628.142,1.277.372,1.968.58a28.956,28.956,0,0,1,4.3,1.893,24.29,24.29,0,0,1,3.852,2.676,19.445,19.445,0,0,1,1.478,1.419,15.4,15.4,0,0,1,1.169,1.349,14.127,14.127,0,0,1,.866,1.194,8.825,8.825,0,0,1,.593.943l.36.608a.892.892,0,0,0,.141.2.891.891,0,0,0-.1-.228l-.318-.634a7.84,7.84,0,0,0-.559-.973,13.07,13.07,0,0,0-.842-1.226,14.728,14.728,0,0,0-1.158-1.385,18.558,18.558,0,0,0-1.478-1.452,23.421,23.421,0,0,0-3.884-2.722,27.645,27.645,0,0,0-4.347-1.893c-.7-.2-1.357-.428-1.992-.562l-.913-.215-.851-.152c-.541-.108-1.037-.159-1.472-.209l-.605-.069-.512-.027-.708-.029a.881.881,0,0,0-.247.007" transform="translate(-19.458 -172.45)" fill="#263238"/><path d="M34.9,274.681a3.363,3.363,0,0,0,.489.471l1.4,1.212c1.187,1.014,2.837,2.4,4.671,3.922s3.5,2.887,4.721,3.865l1.449,1.148a3.373,3.373,0,0,0,.554.393,3.439,3.439,0,0,0-.49-.472l-1.4-1.212c-1.186-1.014-2.837-2.4-4.67-3.922s-3.5-2.884-4.718-3.862l-1.45-1.148a3.434,3.434,0,0,0-.555-.395" transform="translate(-17.511 -137.828)" fill="#263238"/><path d="M31.551,292.695c-.02.069,3.543,1.182,7.957,2.486s8.011,2.306,8.031,2.238-3.542-1.181-7.958-2.486-8.01-2.306-8.03-2.237" transform="translate(-15.831 -146.865)" fill="#263238"/><path d="M57.955,272.75a2.943,2.943,0,0,0,.368-.512l.939-1.431c.8-1.205,1.928-2.849,3.265-4.6s2.628-3.274,3.577-4.363l1.128-1.288a2.952,2.952,0,0,0,.394-.491,2.943,2.943,0,0,0-.467.422c-.29.283-.7.7-1.191,1.234-.986,1.06-2.3,2.571-3.647,4.329s-2.454,3.425-3.213,4.658c-.38.617-.677,1.122-.871,1.478a2.956,2.956,0,0,0-.281.564" transform="translate(-29.08 -130.494)" fill="#263238"/><path d="M82.79,295.524a11.841,11.841,0,0,0,.836,1.375c.532.837,1.255,2,2,3.314s1.379,2.531,1.826,3.415a11.723,11.723,0,0,0,.754,1.421,8.516,8.516,0,0,0-.589-1.5c-.406-.908-1.015-2.143-1.766-3.465s-1.5-2.474-2.076-3.288a8.552,8.552,0,0,0-.988-1.272" transform="translate(-41.541 -148.286)" fill="#263238"/><path d="M91.289,322.206c.018.035.7-.3,1.811-.8s2.666-1.155,4.421-1.771,3.379-1.071,4.561-1.373,1.92-.466,1.913-.506a2.113,2.113,0,0,0-.531.056c-.339.05-.826.142-1.424.272a39.754,39.754,0,0,0-9.018,3.156c-.549.273-.986.5-1.283.676a2.086,2.086,0,0,0-.449.287" transform="translate(-45.806 -159.44)" fill="#263238"/><path d="M84.6,363.947a.783.783,0,0,0,.22.074l.641.163,2.37.547a78.209,78.209,0,0,1,7.739,2.043,34.345,34.345,0,0,1,7.221,3.392c.863.55,1.536,1.035,1.989,1.385a7,7,0,0,0,.717.53c.006-.006-.049-.064-.159-.168s-.272-.259-.495-.44a20.794,20.794,0,0,0-1.953-1.46,31.658,31.658,0,0,0-7.237-3.484,64.738,64.738,0,0,0-7.785-1.977l-2.387-.466a5.962,5.962,0,0,0-.882-.139" transform="translate(-42.45 -182.617)" fill="#263238"/><path d="M60.4,361.853c.071.01.5-2.489.948-5.581s.762-5.609.691-5.619-.495,2.488-.947,5.582-.762,5.609-.691,5.619" transform="translate(-30.302 -175.948)" fill="#263238"/><path d="M35.224,354.76a13.019,13.019,0,0,0,1.13-1.343c.679-.844,1.618-2.007,2.68-3.272s2.047-2.39,2.762-3.2a13.173,13.173,0,0,0,1.128-1.345,1.663,1.663,0,0,0-.359.308c-.22.209-.529.521-.9.913-.75.783-1.759,1.893-2.825,3.161s-1.984,2.452-2.626,3.327c-.321.437-.575.8-.744,1.048a1.675,1.675,0,0,0-.241.407" transform="translate(-17.674 -173.411)" fill="#263238"/><path d="M75,387.346v6.2h-1.55l-5.511,17.395H55.713l-5.339-17.222-2.067-.172v-6.2Z" transform="translate(-24.239 -194.361)" fill="#d4d4d4"/><path d="M50.382,400.006c0,.072,5.4.13,12.052.13s12.053-.058,12.053-.13-5.4-.13-12.053-.13-12.052.058-12.052.13" transform="translate(-25.28 -200.648)" fill="#263238"/><path d="M32.739,320.087a4.78,4.78,0,0,0,.783.212l2.145.517c1.808.447,4.29,1.127,6.984,2.031s5.082,1.866,6.793,2.6l2.022.885a4.926,4.926,0,0,0,.752.3,4.908,4.908,0,0,0-.708-.4c-.463-.242-1.142-.572-1.991-.961a70.507,70.507,0,0,0-13.809-4.644c-.911-.2-1.652-.35-2.167-.437a4.977,4.977,0,0,0-.8-.113" transform="translate(-16.428 -160.61)" fill="#263238"/><path d="M58.525,419.394c0,.072,3.786.13,8.455.13s8.456-.058,8.456-.13-3.786-.13-8.456-.13-8.455.058-8.455.13" transform="translate(-29.366 -210.376)" fill="#fafafa"/><path d="M57.571,416.508c0,.072,4.012.13,8.961.13s8.962-.058,8.962-.13-4.011-.13-8.962-.13-8.961.058-8.961.13" transform="translate(-28.888 -208.928)" fill="#fafafa"/></g><path d="M128.734,366.5,127.3,393.165l9.658,2.333,1.923-26.045Z" transform="translate(-63.874 -183.902)" fill="#aa6550"/><path d="M123.418,426.8h11.113l.476-4.71-9.945-2.525Z" transform="translate(-61.928 -210.525)" fill="#529d2e"/><g clip-path="url(#a)"><path d="M135.062,431.607a7.776,7.776,0,0,1-1.619.093c-1,.011-2.383-.016-3.906-.072l-3.9-.165a9.145,9.145,0,0,1-1.615-.13,7.9,7.9,0,0,1,1.619-.088c1-.008,2.383.019,3.907.076l3.9.162a9.211,9.211,0,0,1,1.615.125" transform="translate(-62.231 -216.387)" fill="#263238"/><path d="M136.35,422.392a17.817,17.817,0,0,1-.314,4.665,17.815,17.815,0,0,1,.314-4.665" transform="translate(-68.228 -211.946)" fill="#263238"/><g transform="translate(61.49 214.946)" opacity="0.6"><g clip-path="url(#f)"><path d="M123.418,432.748h11.114l.106-1.051-11.02-.275-.2,1.2" transform="translate(-123.418 -431.422)" fill="#fff"/></g></g><path d="M203.783,392.521l2.344,17.666,8.549-.595-1.8-16.2Z" transform="translate(-102.253 -196.957)" fill="#aa6550"/><path d="M216.995,422.936h0s9.6,3.245,9.763,5l-18.366.536-.165-4.8.68.135a13.649,13.649,0,0,0,8.088-.865" transform="translate(-104.483 -212.219)" fill="#529d2e"/><g transform="translate(105.38 212.25)" opacity="0.6"><g clip-path="url(#g)"><path d="M212.023,426.047a.75.75,0,0,0-.494.871.722.722,0,0,0,.859.5.791.791,0,0,0,.518-.925.748.748,0,0,0-.951-.418" transform="translate(-211.51 -426.011)" fill="#fff"/></g></g><g transform="translate(103.908 214.76)" opacity="0.6"><g clip-path="url(#h)"><path d="M208.557,432.54l.007-1.49,17.606.043s.828.332.752.911Z" transform="translate(-208.557 -431.05)" fill="#fff"/></g></g><path d="M224.76,422.656c0,.09-.448.144-.881.445s-.657.685-.74.652c-.083-.015.035-.555.565-.91s1.073-.269,1.056-.186" transform="translate(-111.953 -212.04)" fill="#263238"/><path d="M229.139,424.184c.023.086-.361.25-.655.638s-.37.792-.459.791c-.084.016-.161-.507.213-.983s.9-.532.9-.446" transform="translate(-114.382 -212.828)" fill="#263238"/><path d="M232.541,427.2c-.081.021-.219-.423,0-.921s.63-.705.67-.632-.212.344-.383.755-.195.786-.283.8" transform="translate(-116.624 -213.573)" fill="#263238"/><path d="M223.168,421.216a1.72,1.72,0,0,1-.92.022,4.128,4.128,0,0,1-.971-.268,4.3,4.3,0,0,1-.537-.265,1.115,1.115,0,0,1-.284-.208.392.392,0,0,1-.055-.476.493.493,0,0,1,.387-.217,1.207,1.207,0,0,1,.346.038,3.239,3.239,0,0,1,1.442.711c.437.382.592.713.562.731s-.256-.244-.7-.557a3.682,3.682,0,0,0-.834-.438,3.348,3.348,0,0,0-.533-.147c-.2-.045-.362-.042-.409.046-.017.034-.019.047.023.1a.926.926,0,0,0,.209.152,4.929,4.929,0,0,0,.494.264,5.126,5.126,0,0,0,.9.315,6.432,6.432,0,0,1,.877.194" transform="translate(-110.563 -210.647)" fill="#263238"/><path d="M225.506,419.944a1.465,1.465,0,0,1-.269-.881,2.982,2.982,0,0,1,.1-1.01,3.016,3.016,0,0,1,.218-.566.761.761,0,0,1,.573-.481.429.429,0,0,1,.392.245,1.239,1.239,0,0,1,.1.334,2.038,2.038,0,0,1,.019.62,2.113,2.113,0,0,1-.365.962c-.345.486-.716.6-.724.574-.031-.044.276-.226.538-.692a2.122,2.122,0,0,0,.266-.873,1.91,1.91,0,0,0-.032-.531c-.034-.194-.112-.349-.185-.327-.091,0-.242.153-.313.31a3.074,3.074,0,0,0-.213.505,3.317,3.317,0,0,0-.151.923c-.009.54.1.873.048.888" transform="translate(-113.014 -209.242)" fill="#263238"/><path d="M136.009,213.036s-6.778,11.325-6.778,18.1l-1.671,82.509,10.712,2.553,8.171-80.631s19.791,80.84,20.426,80.84,10.38-1.748,10.38-1.748L162.471,213.4Z" transform="translate(-64.006 -106.896)" fill="#263238"/><path d="M144.693,253.808a1.1,1.1,0,0,1-.02.208c-.022.151-.051.352-.088.606-.087.549-.211,1.329-.369,2.326-.331,2.018-.791,4.942-1.335,8.557-1.089,7.213-2.448,17.23-3.589,28.343s-1.833,21.185-2.23,28.487c-.2,3.651-.342,6.607-.426,8.65-.047,1.008-.084,1.8-.111,2.353-.015.257-.027.459-.036.611a1.128,1.128,0,0,1-.022.208,1.112,1.112,0,0,1-.007-.209c0-.153,0-.356.007-.613.013-.556.031-1.346.055-2.355.049-2.045.16-5,.333-8.657.343-7.307,1.01-17.4,2.144-28.506s2.531-21.119,3.676-28.345c.571-3.613,1.062-6.533,1.428-8.545.181-.993.323-1.771.423-2.317l.118-.6a1.083,1.083,0,0,1,.05-.2" transform="translate(-68.472 -127.354)" fill="#455a64"/><path d="M187.014,256.548c.08-.014,3.348,18.094,7.3,40.44s7.089,40.481,7.008,40.5-3.348-18.09-7.3-40.444-7.088-40.477-7.007-40.491" transform="translate(-93.838 -128.729)" fill="#455a64"/><path d="M162.669,235.613a.8.8,0,0,1-.112-.205c-.064-.139-.159-.343-.273-.61a21.614,21.614,0,0,1-.795-2.328,23.65,23.65,0,0,1-.765-8.054c.053-.793.161-1.561.284-2.3s.323-1.438.511-2.1c.377-1.32.769-2.491,1.107-3.471s.629-1.766.838-2.307l.248-.62a.779.779,0,0,1,.1-.21.807.807,0,0,1-.055.227l-.2.636L162.8,216.6c-.314.985-.689,2.16-1.05,3.477-.18.658-.363,1.353-.491,2.079s-.223,1.492-.276,2.276a24.97,24.97,0,0,0,.684,7.988c.251,1,.527,1.791.711,2.339a6.248,6.248,0,0,1,.291.851" transform="translate(-80.612 -107.083)" fill="#455a64"/><path d="M170.776,230.047a.957.957,0,0,1,.016.158c.007.12.014.263.023.436.017.406.041.951.07,1.629.05,1.416.119,3.385.2,5.74l-.069-.1,4.123,1.68-.113.009,3.348-2.038.218-.133-.062.1c.252-2.723.489-5.282.694-7.491l.114.125-6.165-.058-1.757-.03-.471-.013a1,1,0,0,1-.171-.013,5.079,5.079,0,0,1,.594-.026l1.731-.03,6.239-.058h.125l-.011.126c-.2,2.21-.422,4.77-.663,7.494l-.005.065-.056.034-.218.133-3.352,2.032-.054.033-.059-.024-4.112-1.707-.068-.028v-.072c-.036-2.385-.067-4.38-.089-5.815,0-.669-.008-1.205-.011-1.6a4.57,4.57,0,0,1,.011-.55" transform="translate(-85.686 -115.374)" fill="#455a64"/><path d="M138.266,225.788c.006.01-.019.2-.071.555l-.232,1.509c-.212,1.312-.506,3.131-.858,5.306l-.043-.108,3.114,2.31-.109-.02,3.786-1.054.194-.053-.09.089,1.992-6.789.084.143-5.594-1.334-1.593-.394c-.371-.094-.573-.148-.58-.158a4.5,4.5,0,0,1,.545.1l1.58.329,5.693,1.237.118.026-.034.117c-.578,2-1.248,4.326-1.962,6.8l-.02.07-.07.019-.193.053-3.788,1.045-.059.016-.049-.037-3.1-2.332-.055-.042.012-.066c.4-2.2.741-4.033.984-5.358.118-.611.213-1.1.284-1.474a3.9,3.9,0,0,1,.112-.5" transform="translate(-68.679 -113.294)" fill="#455a64"/><path d="M173.859,254.754a42.489,42.489,0,0,1-4.557,1.123,42.582,42.582,0,0,1-4.613.869,42.443,42.443,0,0,1,4.558-1.123,42.387,42.387,0,0,1,4.612-.869" transform="translate(-82.637 -127.825)" fill="#455a64"/><path d="M148.6,253.691a4.132,4.132,0,0,1-1.169,0,19.235,19.235,0,0,1-2.786-.437,18.858,18.858,0,0,1-2.7-.823,4.222,4.222,0,0,1-1.052-.511,6.872,6.872,0,0,1,1.114.339c.681.22,1.629.5,2.693.743s2.039.409,2.748.508a7.073,7.073,0,0,1,1.149.183" transform="translate(-70.7 -126.404)" fill="#455a64"/><path d="M140.528,82.962c.37,1.067-.894,1.975-1.995,2.228s-2.434.41-2.938,1.42c-.437.876.006,1.989-.392,2.884-.757,1.7-3.815,1.346-4.414,3.11-.412,1.211.725,2.459.583,3.729-.123,1.095-1.125,1.839-2,2.5s-1.8,1.577-1.666,2.669c.16,1.262,1.7,2.136,1.559,3.4-.139,1.244-1.817,1.825-2.059,3.053-.286,1.457,1.538,2.394,2.125,3.759.448,1.043.171,2.385.928,3.231.776.866,2.152.7,3.289.455l11.342-2.4c-.767-1.793-.045-3.891,1.047-5.5s2.548-2.978,3.488-4.687,1.247-3.995.018-5.508" transform="translate(-63.812 -41.628)" fill="#263238"/><path d="M191.674,98.257a11.7,11.7,0,0,0-.372-1.791,1.8,1.8,0,0,0-.453-.736c-.224-.213-.515-.078-.7.228a5.537,5.537,0,0,0,0,4.6c.185.306.476.44.7.228a1.807,1.807,0,0,0,.454-.736,11.733,11.733,0,0,0,.371-1.791,1.384,1.384,0,0,1,.039.5,4.787,4.787,0,0,1-.213,1.358,1.941,1.941,0,0,1-.494.855.609.609,0,0,1-.6.141.992.992,0,0,1-.479-.406,5.558,5.558,0,0,1,0-4.9.992.992,0,0,1,.479-.406.609.609,0,0,1,.6.141,1.937,1.937,0,0,1,.494.855,4.792,4.792,0,0,1,.213,1.359,1.384,1.384,0,0,1-.039.5" transform="translate(-95.013 -47.854)" fill="#263238"/><path d="M153.425,99.226c-2.052-3.467-2.64-8.085-3.158-12.08-.244-1.88-.673-4.557.649-5.734,1.416-1.26,1.553-3.2,3.18-4.175a5,5,0,0,1,5.37.06" transform="translate(-75.266 -38.379)" fill="#263238"/><path d="M163.651,113.44h0a5.563,5.563,0,0,0,6-5.317c.126-3.028.236-6.089.236-6.089s4.59-.417,4.936-4.957.225-15.025.225-15.025a15.825,15.825,0,0,0-16,.982l.236,15.985-.025,8.6c.022,2.884,1.513,5.594,4.388,5.823" transform="translate(-79.808 -40.311)" fill="#aa6550"/><path d="M167.926,87.69a2.328,2.328,0,0,0-3.1-.687,2.64,2.64,0,0,0-.889,3.3,3.478,3.478,0,0,0,2.223,1.691,1.745,1.745,0,0,1,1.361,1.882c-.134,1.139-2.032,1.562-2.89,2.5-1.336,1.464-4.259,2.076-6.227,2.3-1.935.223-1.7.242-2.822-1.351a6.1,6.1,0,0,1-1.094-3.691q-.089-5.023-.178-10.046a14.367,14.367,0,0,1,.24-3.6,4.84,4.84,0,0,1,1.91-2.975c1.107-.724,2.506-.782,3.766-1.185a31.108,31.108,0,0,0,4.387-2.292,5.387,5.387,0,0,1,4.755-.447c1.059.536,1.767,1.6,2.8,2.186,1.466.84,3.465.656,4.172,2.816A3.661,3.661,0,0,1,176.3,80.4a5.337,5.337,0,0,1-7.264,2.831,7.187,7.187,0,0,1-.095,3.177c-.169.5-.231,1.268-1.016,1.28" transform="translate(-77.422 -36.482)" fill="#263238"/><path d="M178.249,106.245c.018.007.018.086-.063.2a.679.679,0,0,1-.507.251,1.251,1.251,0,0,1-1.174-1.257,1.312,1.312,0,0,1,.337-.96,1.356,1.356,0,0,1,.712-.408c.468-.1.737.077.717.106-.011.052-.28-.022-.655.115a1.139,1.139,0,0,0-.787,1.132,1.058,1.058,0,0,0,.851,1.042c.38.023.535-.247.568-.218" transform="translate(-88.565 -52.204)" fill="#995037"/><path d="M187.831,100.706a33.1,33.1,0,0,1-6.159,1.008,33.1,33.1,0,0,1,6.159-1.008" transform="translate(-91.158 -50.521)" fill="#263238"/><path d="M156.49,120.919a1.319,1.319,0,0,0,1.578.633,3.773,3.773,0,0,0,1.526-1.035,4,4,0,0,1,1.513-1.057c1.211-.368,2.694.44,3.713-.311.928-.684.807-2.234,1.717-2.94.484-.375,1.157-.423,1.65-.787a2.138,2.138,0,0,0-.005-3.044,6.2,6.2,0,0,0-3.041-1.492l-9.759,4.16Z" transform="translate(-77.967 -55.64)" fill="#263238"/><path d="M157.839,95.623s-.025.024-.081.06a2.488,2.488,0,0,1-.258.144,5.224,5.224,0,0,1-1.069.386,12.342,12.342,0,0,1-1.773.281,17.888,17.888,0,0,0-2.329.322,4.387,4.387,0,0,0-2.41,1.316,13.309,13.309,0,0,0-1.414,2.925,3.794,3.794,0,0,1-1.136,1.431,5.965,5.965,0,0,1-1.7.837,10.066,10.066,0,0,0-3.518,1.49,2.52,2.52,0,0,0-.9,1.6,11.05,11.05,0,0,0,0,1.9,3.1,3.1,0,0,1-1.68,3.141c-1.021.6-2.091.919-2.945,1.464a3.451,3.451,0,0,0-1.051.969,2.556,2.556,0,0,0-.4,1.243,8.7,8.7,0,0,0,.317,2.308,6.028,6.028,0,0,1,.163,1.793,2.542,2.542,0,0,1-.325,1.091,1.277,1.277,0,0,1-.247.311,2.706,2.706,0,0,0,.457-1.41,6.172,6.172,0,0,0-.209-1.748,8.615,8.615,0,0,1-.365-2.358,2.759,2.759,0,0,1,.415-1.354,3.673,3.673,0,0,1,1.111-1.053c.887-.575,1.96-.9,2.935-1.49a2.835,2.835,0,0,0,1.532-2.9,11.094,11.094,0,0,1,0-1.947,2.817,2.817,0,0,1,1-1.777,10.167,10.167,0,0,1,3.617-1.54,5.706,5.706,0,0,0,1.622-.788,3.525,3.525,0,0,0,1.062-1.326,13.113,13.113,0,0,1,1.471-2.963,4.581,4.581,0,0,1,2.55-1.361,17.159,17.159,0,0,1,2.361-.282A13.421,13.421,0,0,0,156.4,96.1a7.967,7.967,0,0,0,1.434-.478" transform="translate(-67.722 -47.98)" fill="#455a64"/><path d="M162.524,98.858c0,.032-.35,0-.95.137a4.319,4.319,0,0,0-2.189,1.308,3.956,3.956,0,0,0-.871,1.525,6.856,6.856,0,0,0-.178,2.039A5.324,5.324,0,0,1,158,106.2a2.375,2.375,0,0,1-.852.959,10.311,10.311,0,0,1-1.126.6,2.924,2.924,0,0,0-.971.69,1.742,1.742,0,0,0-.381,1.045,5.742,5.742,0,0,1-.261,2.326,3.833,3.833,0,0,1-1.518,1.505c-.573.341-1.128.592-1.6.877a3.942,3.942,0,0,0-1.125.932,2.558,2.558,0,0,0-.485.983,2.281,2.281,0,0,0,.017.942.581.581,0,0,1-.1-.234,1.7,1.7,0,0,1-.03-.73,2.575,2.575,0,0,1,.466-1.06,4,4,0,0,1,1.148-1.01c.477-.3,1.032-.568,1.58-.907a3.626,3.626,0,0,0,1.4-1.414,5.7,5.7,0,0,0,.218-2.23,2.03,2.03,0,0,1,.444-1.212,3.189,3.189,0,0,1,1.063-.766,3.432,3.432,0,0,0,1.851-1.424,5.159,5.159,0,0,0,.325-2.2,6.935,6.935,0,0,1,.216-2.11,4.123,4.123,0,0,1,.953-1.6,4.27,4.27,0,0,1,2.318-1.278,2.976,2.976,0,0,1,.723-.054.807.807,0,0,1,.251.03" transform="translate(-75.036 -49.588)" fill="#455a64"/><path d="M169.891,129.562l-1.181-2.43-10.26-.387-1.61,3.156h12.884" transform="translate(-78.699 -63.597)" fill="#529d2e"/><path d="M220.291,156.465c-.074-.369,2.714-14.855,3.483-18.833a.842.842,0,0,0-.828-1H202.406a.843.843,0,0,0-.82.648l-4.206,17.733-10.367.773.365.68Z" transform="translate(-93.838 -68.558)" fill="#455a64"/><path d="M230.547,156.174l3.324-17.562-20.193.122L209.243,156.2Z" transform="translate(-104.993 -69.552)" fill="#ebebeb"/><path d="M209.211,156.2l0-.015,4.437-17.475h.009l20.208-.122,0,.015-3.326,17.572h-.01Zm4.461-17.465-4.429,17.44,21.278-.025,3.319-17.537Z" transform="translate(-104.977 -69.539)" fill="#263238"/><path d="M225.382,173.976c0,.072-5.909.13-13.2.13s-13.2-.058-13.2-.13,5.907-.13,13.2-.13,13.2.058,13.2.13" transform="translate(-99.848 -87.232)" fill="#263238"/><path d="M232.958,155.4a1.015,1.015,0,0,1-.264.026l-.756.024-2.783.041c-2.35.023-5.6.038-9.182.038l-2.947,0h-.163l.04-.157c.715-2.765,1.339-5.182,1.8-6.951.227-.837.411-1.519.55-2.029a4.891,4.891,0,0,1,.228-.725,4.954,4.954,0,0,1-.143.746c-.12.515-.28,1.2-.477,2.047l-1.709,6.973-.123-.157,2.947,0c3.586,0,6.832.014,9.182.038l2.783.041.756.024a1.03,1.03,0,0,1,.264.026" transform="translate(-108.816 -73.091)" fill="#455a64"/><path d="M219.809,162.162l.378-1.694h2.6l-.332,1.694Z" transform="translate(-110.294 -80.519)" fill="#fcd03e"/><path d="M226.9,160.51l.785-3.334h2.6l-.739,3.334Z" transform="translate(-113.853 -78.867)" fill="#fcd03e"/><path d="M233.994,162.162l.378-1.694h2.6l-.332,1.694Z" transform="translate(-117.412 -80.519)" fill="#fcd03e"/><path d="M241.087,157.344l1.488-6.477h2.6l-1.443,6.477Z" transform="translate(-120.971 -75.701)" fill="#fcd03e"/><path d="M221.787,167.527a4.305,4.305,0,0,1-2.1-.019,4.3,4.3,0,0,1,2.1.019" transform="translate(-110.234 -83.991)" fill="#455a64"/><path d="M228.663,167.516a4.3,4.3,0,0,1-2.1-.02,4.312,4.312,0,0,1,2.1.02" transform="translate(-113.685 -83.985)" fill="#455a64"/><path d="M235.539,167.505a4.3,4.3,0,0,1-2.1-.02,4.314,4.314,0,0,1,2.1.02" transform="translate(-117.135 -83.98)" fill="#455a64"/><path d="M242.414,167.494a4.3,4.3,0,0,1-2.1-.02,4.312,4.312,0,0,1,2.1.02" transform="translate(-120.584 -83.974)" fill="#455a64"/><path d="M228.559,144a32.707,32.707,0,0,1-5.816,0,32.714,32.714,0,0,1,5.816,0" transform="translate(-111.767 -72.193)" fill="#455a64"/><path d="M225.682,142.561a6.478,6.478,0,0,1-2.578,0,6.481,6.481,0,0,1,2.578,0" transform="translate(-111.948 -71.468)" fill="#455a64"/><path d="M212.855,186.139l11.888-8.6-.442-.719a5.737,5.737,0,0,0-2.779-2.331l-1.859.334L208.642,176.5Z" transform="translate(-104.691 -87.552)" fill="#529d2e"/><path d="M131.9,181.717l9.876-3.925-2.2-8.18-8.049,2.736Z" transform="translate(-65.992 -85.108)" fill="#529d2e"/><path d="M166.978,165.014c2.461-1.222,3.093-4.159,1.891-6.63l-10.234-21.871a3.955,3.955,0,0,0-1.03-1.41,11.57,11.57,0,0,0-8.465-2.9l-10.673-.279s-8.384,0-11.529,6.607c-.23.484-5.1,10.149-8.316,16.518a5.51,5.51,0,1,0,9.948,4.736L132.061,152l2.2,11.146-3.164,9.186,26.462.363-2.035-12.288-.643-8.762,5.367,11.067a5.005,5.005,0,0,0,6.731,2.3" transform="translate(-59.225 -66.196)" fill="#529d2e"/><g transform="translate(75.779 88.696)" opacity="0.2"><g clip-path="url(#i)"><path d="M152.247,186.068c2,1.5,4.954,1,7.423.589a10.717,10.717,0,0,0,6.464-3.5,4.349,4.349,0,0,0,1.2-3.056,2.189,2.189,0,0,0-2.2-2.065c-1.279.153-1.9,1.587-2.511,2.718a9.916,9.916,0,0,1-10.331,4.852s-.4.2-.042.463" transform="translate(-152.098 -178.024)"/></g></g><g transform="translate(92.267 79.52)" opacity="0.2"><g clip-path="url(#j)"><path d="M185.191,159.606c.623,5.034.345,4.651,1.395,9.614.517,2.44,1.144,4.988,2.827,6.829l-.834-10.51Z" transform="translate(-185.191 -159.606)"/></g></g><path d="M143.489,207.472l-.758-2.209,1.971-1.313,24.274-2,1.711,3.216-.737,2.672Z" transform="translate(-71.619 -101.332)" fill="#529d2e"/><path d="M150.982,126.624a3.62,3.62,0,0,0-1.686,5.4,1.772,1.772,0,0,1,.463,1c-.047.9-1.5.921-1.953,1.693a1.391,1.391,0,0,0,.388,1.622,11.046,11.046,0,0,0,1.494,1,1.824,1.824,0,0,1,.917,1.458c.506-.013.806-.627.728-1.127a4.919,4.919,0,0,0-.622-1.377,1.446,1.446,0,0,1-.063-1.444c.331-.472,1.006-.491,1.543-.7a2.152,2.152,0,0,0,1.14-2.772c-.325-.728-1.084-1.464-.714-2.171.206-.4.679-.546,1.068-.761a2.78,2.78,0,0,0,.361-4.627" transform="translate(-74.099 -62.132)" fill="#263238"/><path d="M141.331,174.367a6.545,6.545,0,0,1-.538,1.243c-.368.75-.907,1.773-1.556,2.871s-1.288,2.062-1.769,2.745a6.567,6.567,0,0,1-.831,1.069,7.508,7.508,0,0,1,.678-1.171c.44-.707,1.051-1.683,1.7-2.776s1.209-2.1,1.618-2.823a7.5,7.5,0,0,1,.7-1.157" transform="translate(-68.56 -87.492)" fill="#263238"/><path d="M140.278,182.793a4.24,4.24,0,0,1-1.1,3.419c-.064-.044.384-.725.68-1.667s.337-1.753.415-1.752" transform="translate(-69.835 -91.721)" fill="#263238"/><path d="M210.125,163.857c-.065.03-2.135-4.3-4.623-9.675s-4.453-9.754-4.387-9.784,2.134,4.3,4.623,9.676,4.453,9.754,4.387,9.783" transform="translate(-100.913 -72.455)" fill="#263238"/><path d="M189.346,138.608c.015.041-.446.2-1.106.615a6.881,6.881,0,0,0-3.208,4.887c-.115.768-.081,1.257-.125,1.259a3.271,3.271,0,0,1-.057-1.281,6.416,6.416,0,0,1,3.3-5.023,3.272,3.272,0,0,1,1.2-.457" transform="translate(-92.741 -69.548)" fill="#263238"/><path d="M145.437,171.951c-.07.015-1.26-5.055-2.658-11.324s-2.475-11.366-2.405-11.381,1.26,5.054,2.659,11.325,2.475,11.365,2.4,11.38" transform="translate(-70.434 -74.888)" fill="#263238"/><path d="M239.344,178.517l4.825-2.076h-6.428l1.4,1.82" transform="translate(-119.292 -88.534)" fill="#aa6550"/><path d="M218.738,179.424a49.168,49.168,0,0,1-2.3-2.238,5.642,5.642,0,0,1,2.3,2.238" transform="translate(-108.6 -88.905)" fill="#263238"/><path d="M194.071,176.689a4.516,4.516,0,0,1-.406-.671c-.248-.439-.593-1.082-1.011-1.881-.838-1.6-1.952-3.823-3.17-6.287s-2.337-4.687-3.165-6.286l-.982-1.894a4.492,4.492,0,0,1-.335-.708,4.584,4.584,0,0,1,.424.66c.26.432.62,1.067,1.055,1.857.871,1.579,2.016,3.792,3.236,6.257l3.1,6.319.937,1.917a4.515,4.515,0,0,1,.316.717" transform="translate(-92.828 -79.763)" fill="#263238"/><path d="M170.434,180.96c.008,0,.005.061-.008.174a3.844,3.844,0,0,1-.083.491,6.421,6.421,0,0,1-.659,1.709,9.685,9.685,0,0,1-4.468,3.965,19.49,19.49,0,0,1-5.833,1.456c-.765.086-1.385.137-1.814.165a3.288,3.288,0,0,1-.669.017,3.336,3.336,0,0,1,.658-.118l1.8-.246a21.245,21.245,0,0,0,5.75-1.51,9.908,9.908,0,0,0,4.416-3.82,9.613,9.613,0,0,0,.909-2.283" transform="translate(-78.729 -90.801)" fill="#263238"/><path d="M158.594,206.707c0,.071-3.278.36-7.331.644s-7.345.457-7.35.385,3.277-.36,7.331-.644,7.344-.456,7.349-.385" transform="translate(-72.212 -103.712)" fill="#263238"/><path d="M181.859,202.773a12,12,0,0,1,.529,5.025c-.075,0-.107-1.131-.255-2.514s-.347-2.5-.274-2.512" transform="translate(-91.244 -101.746)" fill="#263238"/><path d="M184.8,199.594a3.285,3.285,0,0,1,.221,1,12.693,12.693,0,0,1-.345,4.918,3.267,3.267,0,0,1-.358.962c-.078-.022.386-1.516.512-3.423s-.111-3.449-.03-3.46" transform="translate(-92.48 -100.151)" fill="#263238"/><path d="M172.439,132.123c0,.072-2.375,0-5.294-.167s-5.284-.355-5.28-.427,2.374,0,5.294.168,5.283.355,5.279.426" transform="translate(-81.22 -65.984)" fill="#263238"/></g><g clip-path="url(#a)"><path d="M79.682,148.765a7.825,7.825,0,0,1,2.014.532l1.48-1.241,2.542,1.936-.8,1.757a7.825,7.825,0,0,1,1.049,1.8l1.923.169.429,3.166-1.808.676a7.827,7.827,0,0,1-.532,2.014l1.241,1.48L85.284,163.6l-1.757-.8a7.833,7.833,0,0,1-1.8,1.049l-.169,1.923-3.166.429-.676-1.808a7.833,7.833,0,0,1-2.014-.532l-1.48,1.241-2.542-1.935.8-1.757a7.861,7.861,0,0,1-1.049-1.8l-1.923-.169-.429-3.166,1.808-.676a7.786,7.786,0,0,1,.532-2.014l-1.241-1.48,1.935-2.542,1.758.8a7.841,7.841,0,0,1,1.8-1.049l.169-1.923,3.166-.429Zm-1.3,4.4a3.428,3.428,0,1,0,3.857,2.936,3.428,3.428,0,0,0-3.857-2.936" transform="translate(-34.662 -73.739)" fill="#529d2e"/><path d="M84.65,159.337a.668.668,0,0,1,.216-.046,2.67,2.67,0,0,1,.634-.013,3.41,3.41,0,0,1,2.1.966,3.527,3.527,0,0,1-.017,5.051,3.534,3.534,0,0,1-4.174.566A3.526,3.526,0,0,1,82.047,161a3.411,3.411,0,0,1,1.768-1.49,2.662,2.662,0,0,1,.615-.156.656.656,0,0,1,.22-.013c.005.029-.3.059-.795.269a3.422,3.422,0,0,0-1.638,1.487,3.336,3.336,0,0,0-.026,3.171,3.27,3.27,0,0,0,1.349,1.358,3.285,3.285,0,0,0,3.856-.523,3.271,3.271,0,0,0,.938-1.669,3.336,3.336,0,0,0-.871-3.049,3.416,3.416,0,0,0-1.975-1c-.533-.07-.835-.017-.838-.047" transform="translate(-40.93 -79.915)" fill="#529d2e"/><path d="M79.545,148.716a.507.507,0,0,1-.051-.108l-.138-.338-.529-1.347.047.028-3.163.455.061-.063c-.048.584-.1,1.231-.158,1.924l0,.048-.046.019a7.787,7.787,0,0,0-1.775,1.046l-.043.034-.05-.023-1.761-.794.119-.03-1.926,2.548,0-.135,1.245,1.477.045.053-.026.064a7.728,7.728,0,0,0-.52,1.985l-.008.072-.068.025-1.807.68.079-.132c.137.994.284,2.067.435,3.165l-.116-.111,1.923.167.079.007.031.074a7.765,7.765,0,0,0,1.033,1.768l.05.064-.033.074-.8,1.758-.041-.164,2.543,1.933-.171,0,1.48-1.241.064-.054.077.032a7.724,7.724,0,0,0,1.976.522h0l.113.089h0l0,0,0,.007.005.014.01.029.021.057.042.114.085.228.17.453.336.9-.148-.088,3.167-.428-.118.124.17-1.923.007-.082.076-.031a7.717,7.717,0,0,0,1.77-1.03l.064-.05.073.034,1.757.8-.16.04,1.939-2.539,0,.159L85.747,159.6l-.048-.058.029-.069a7.717,7.717,0,0,0,.528-1.981l.009-.072.068-.025,1.81-.672-.074.123c-.148-1.114-.287-2.166-.42-3.167l.1.091-1.922-.176-.06-.005-.023-.055a7.746,7.746,0,0,0-1.029-1.782l-.034-.044.023-.049.809-1.753.025.1L83,148.057l.077,0-1.491,1.227-.021.017-.024-.01a8.276,8.276,0,0,0-1.491-.469l-.38-.075a.539.539,0,0,1-.126-.028.723.723,0,0,1,.129.005c.085.009.214.024.385.053a7.464,7.464,0,0,1,1.517.432l-.045.007L83,147.96l.037-.032.04.03,2.554,1.919.052.039-.027.06-.793,1.761-.011-.093a7.913,7.913,0,0,1,1.069,1.817l-.083-.061,1.924.163.084.007.012.084c.139,1,.284,2.052.438,3.165l.012.091-.086.032-1.807.68.077-.1a7.941,7.941,0,0,1-.536,2.046l-.02-.127,1.243,1.478.066.078-.062.081-1.931,2.545-.064.084-.1-.044-1.758-.8.138-.016a7.968,7.968,0,0,1-1.83,1.069l.083-.114q-.083.952-.168,1.923l-.009.109-.109.015-3.166.43-.109.015-.039-.1-.337-.9-.169-.453-.085-.227-.043-.114-.021-.057-.011-.028,0-.014,0-.007v-.005l.112.089h0a7.98,7.98,0,0,1-2.047-.541l.141-.022-1.481,1.24-.084.07L74,165.158l-2.541-1.937-.086-.066.045-.1.8-1.756.016.137a8,8,0,0,1-1.065-1.831l.11.08-1.923-.172-.1-.009-.013-.1c-.147-1.1-.291-2.172-.424-3.167l-.013-.1.092-.034,1.81-.672-.077.1a7.933,7.933,0,0,1,.545-2.043l.018.117-1.237-1.484-.056-.067.053-.069,1.943-2.536.048-.063.071.033,1.754.808-.094.011a7.928,7.928,0,0,1,1.825-1.052l-.05.068c.065-.692.126-1.339.18-1.922l.005-.056.055-.007,3.169-.4.035,0,.012.033.479,1.347.12.352a.717.717,0,0,1,.036.125" transform="translate(-34.526 -73.691)" fill="#529d2e"/><path d="M74.975,198.963a.4.4,0,0,1,.136-.029,1.682,1.682,0,0,1,.4-.009,2.146,2.146,0,0,1,1.32.607,2.214,2.214,0,0,1-.011,3.172,2.219,2.219,0,0,1-2.621.356A2.214,2.214,0,0,1,73.341,200a2.143,2.143,0,0,1,1.111-.936,1.677,1.677,0,0,1,.386-.1.418.418,0,0,1,.139-.008c0,.018-.188.037-.5.169a2.146,2.146,0,0,0-1.028.934,2.1,2.1,0,0,0-.017,1.992,2.057,2.057,0,0,0,.847.853,2.064,2.064,0,0,0,2.422-.329,2.058,2.058,0,0,0,.589-1.048,2.1,2.1,0,0,0-.547-1.915,2.148,2.148,0,0,0-1.24-.626c-.334-.044-.525-.011-.526-.029" transform="translate(-36.65 -99.812)" fill="#263238"/><path d="M71.77,192.293a.3.3,0,0,1-.032-.068l-.087-.212-.332-.846.029.018-1.986.286.038-.04c-.03.366-.064.773-.1,1.208l0,.03-.028.012a4.885,4.885,0,0,0-1.115.657l-.027.021-.032-.014-1.106-.5.075-.019-1.21,1.6,0-.085.782.928.028.033-.016.04a4.86,4.86,0,0,0-.326,1.247l-.005.045-.043.016-1.134.427.05-.083.273,1.988-.073-.07,1.208.105.05,0,.019.046a4.845,4.845,0,0,0,.649,1.11l.031.04-.021.046-.5,1.1-.026-.1,1.6,1.214-.108,0,.93-.779.04-.034.049.02a4.847,4.847,0,0,0,1.241.328h0l.071.056h0v.007l0,.009.006.018.013.035.027.072.053.143.106.285q.107.284.212.566l-.093-.056,1.989-.269-.074.078q.054-.61.107-1.208l0-.052.048-.019a4.841,4.841,0,0,0,1.111-.647l.04-.031.046.021,1.1.5-.1.025,1.217-1.595,0,.1-.777-.931-.03-.036.018-.043a4.844,4.844,0,0,0,.331-1.245l.006-.045.042-.016,1.136-.421-.046.077-.264-1.989.06.057-1.207-.111-.038,0-.014-.035a4.9,4.9,0,0,0-.647-1.119l-.021-.027.014-.031.508-1.1.015.062-1.589-1.225h.048l-.937.77-.013.011-.015-.006a5.154,5.154,0,0,0-.937-.294l-.239-.047a.359.359,0,0,1-.079-.018.455.455,0,0,1,.081,0c.053.005.135.015.242.033a4.7,4.7,0,0,1,.953.271l-.029,0,.923-.787.023-.02.025.019,1.6,1.205.033.024-.017.038-.5,1.106-.006-.059a4.97,4.97,0,0,1,.672,1.141l-.052-.038,1.208.1.053,0,.007.053c.087.628.178,1.288.275,1.987l.008.057-.054.02-1.134.427.048-.061a4.987,4.987,0,0,1-.337,1.285l-.012-.08.781.928.041.049-.038.051-1.213,1.6-.04.052-.06-.027-1.1-.5.087-.01a5.01,5.01,0,0,1-1.149.671l.052-.071q-.052.6-.106,1.208l-.006.068-.068.009-1.988.271-.069.009-.024-.065-.212-.566-.107-.284-.053-.143-.027-.072-.013-.035-.007-.018,0-.009,0,0v0h0l.07.056h0a5.026,5.026,0,0,1-1.286-.34l.089-.014-.93.779-.053.044-.055-.042-1.6-1.216-.054-.041.028-.062.5-1.1.01.086a5.024,5.024,0,0,1-.669-1.149l.069.05-1.207-.108-.064-.006-.009-.064c-.092-.691-.183-1.364-.267-1.989l-.008-.062.058-.021,1.136-.422-.048.061a4.982,4.982,0,0,1,.342-1.283l.011.074-.776-.932-.035-.042.033-.043,1.221-1.593.03-.039.045.021,1.1.507-.059.007a4.975,4.975,0,0,1,1.145-.661l-.031.043.114-1.207,0-.036.035,0,1.99-.253.022,0,.007.02.3.846.075.221a.417.417,0,0,1,.023.079" transform="translate(-32.628 -95.903)" fill="#263238"/><path d="M168.026,10.311a10.833,10.833,0,1,1,10.1,11.519,10.833,10.833,0,0,1-10.1-11.519" transform="translate(-84.299 -0.094)" fill="#f5f5f5"/><path d="M168,10.217a.9.9,0,0,1,.01.176c0,.129,0,.3,0,.515v.379c.006.139.027.29.042.455a7.852,7.852,0,0,0,.156,1.127,10.351,10.351,0,0,0,1.015,2.936,10.733,10.733,0,0,0,12.564,5.4,9.853,9.853,0,0,0,2.8-1.279,12.1,12.1,0,0,0,1.279-.952A12.057,12.057,0,0,0,187,17.807a10.37,10.37,0,0,0,1.72-2.843,11.45,11.45,0,0,0,.773-3.334,11.439,11.439,0,0,0-.329-3.408,10.361,10.361,0,0,0-1.333-3.045,12.124,12.124,0,0,0-.966-1.308,12.013,12.013,0,0,0-1.144-1.111,11.112,11.112,0,0,0-1.255-.929,11.155,11.155,0,0,0-1.354-.705A10.761,10.761,0,0,0,169.95,4.838a10.345,10.345,0,0,0-1.39,2.777,7.89,7.89,0,0,0-.3,1.1c-.036.161-.076.309-.1.446s-.035.262-.05.376c-.03.213-.054.382-.072.51a.913.913,0,0,1-.033.173.863.863,0,0,1,.007-.175c.011-.129.027-.3.047-.515q.017-.171.038-.379c.02-.139.057-.287.089-.451a7.7,7.7,0,0,1,.283-1.112,10.238,10.238,0,0,1,1.367-2.827A10.909,10.909,0,0,1,177.5.072a10.958,10.958,0,0,1,5.707.836,11.421,11.421,0,0,1,1.386.717,11.344,11.344,0,0,1,1.286.947,12.261,12.261,0,0,1,1.173,1.134,12.284,12.284,0,0,1,.99,1.337,10.584,10.584,0,0,1,1.368,3.115,11.681,11.681,0,0,1,.338,3.489,11.685,11.685,0,0,1-.792,3.413,10.6,10.6,0,0,1-1.764,2.909,12.315,12.315,0,0,1-1.156,1.195,12.154,12.154,0,0,1-1.31.971,10.061,10.061,0,0,1-2.866,1.3,10.956,10.956,0,0,1-5.766.083,10.908,10.908,0,0,1-6.99-5.646,10.262,10.262,0,0,1-.986-2.982,7.676,7.676,0,0,1-.135-1.139c-.01-.166-.027-.319-.029-.459s.008-.266.012-.381c.008-.216.015-.387.02-.516a.886.886,0,0,1,.015-.175" transform="translate(-84.275 0)" fill="#263238"/><path d="M194.534,16.171a2.172,2.172,0,0,1-.383.025l-1.053.021c-.893.012-2.138.021-3.543.023h-.07v-.07c0-.225,0-.462,0-.7,0-1.569.008-2.99.02-4.018.009-.5.016-.906.022-1.218a2.686,2.686,0,0,1,.027-.446,2.808,2.808,0,0,1,.027.446c.006.311.013.721.022,1.218.012,1.028.02,2.448.02,4.018,0,.241,0,.478,0,.7l-.069-.069c1.4,0,2.65.01,3.543.023l1.053.021a2.171,2.171,0,0,1,.383.025" transform="translate(-95.079 -4.911)" fill="#263238"/><path d="M189.621,3.76a3.005,3.005,0,0,1,.07.91,3.007,3.007,0,0,1-.07.91,3.007,3.007,0,0,1-.07-.91,3.005,3.005,0,0,1,.07-.91" transform="translate(-95.112 -1.887)" fill="#263238"/><path d="M198.32,6.691a2.926,2.926,0,0,1-.584.684,2.917,2.917,0,0,1-.684.585,2.929,2.929,0,0,1,.585-.684,2.941,2.941,0,0,1,.684-.584" transform="translate(-98.874 -3.356)" fill="#263238"/><path d="M203.847,13.017a3.756,3.756,0,0,1-.746.5,3.779,3.779,0,0,1-.786.433,2.392,2.392,0,0,1,.713-.553,2.4,2.4,0,0,1,.819-.379" transform="translate(-101.516 -6.529)" fill="#263238"/><path d="M206.288,22.341a10.994,10.994,0,0,1-2.482,0,10.994,10.994,0,0,1,2.482,0" transform="translate(-102.265 -11.175)" fill="#263238"/><path d="M171.89,22.009a9.813,9.813,0,0,1-2.344,0,9.813,9.813,0,0,1,2.344,0" transform="translate(-85.074 -11.008)" fill="#263238"/><path d="M174.82,29.069a5.107,5.107,0,0,1-.885.8,5.153,5.153,0,0,1-.974.695,5.121,5.121,0,0,1,.885-.8,5.152,5.152,0,0,1,.974-.694" transform="translate(-86.787 -14.585)" fill="#263238"/><path d="M181.464,34.477a7.925,7.925,0,0,1-.6,1.045,7.992,7.992,0,0,1-.639,1.022,3.922,3.922,0,0,1,.519-1.095,3.932,3.932,0,0,1,.723-.973" transform="translate(-90.429 -17.299)" fill="#263238"/><path d="M189.621,38.952a5.537,5.537,0,0,1-.07-1.241,5.534,5.534,0,0,1,.07-1.241,5.534,5.534,0,0,1,.07,1.241,5.537,5.537,0,0,1-.07,1.241" transform="translate(-95.112 -18.3)" fill="#263238"/><path d="M198.556,36.5a5.35,5.35,0,0,1-1.857-1.619,11.477,11.477,0,0,1,.926.812,11.441,11.441,0,0,1,.931.807" transform="translate(-98.698 -17.503)" fill="#263238"/><path d="M203.909,31.15a4.331,4.331,0,0,1-.822-.722,4.3,4.3,0,0,1-.722-.822,4.362,4.362,0,0,1,.822.723,4.309,4.309,0,0,1,.722.822" transform="translate(-101.541 -14.854)" fill="#263238"/><path d="M175.1,14.02a3.315,3.315,0,0,1-.725-.626,3.332,3.332,0,0,1-.626-.725,3.321,3.321,0,0,1,.725.626,3.31,3.31,0,0,1,.626.725" transform="translate(-87.182 -6.356)" fill="#263238"/><path d="M181.344,7.5a3.194,3.194,0,0,1-.713-.611,3.2,3.2,0,0,1-.614-.71,3.182,3.182,0,0,1,.713.611,3.188,3.188,0,0,1,.614.71" transform="translate(-90.327 -3.1)" fill="#263238"/><path d="M257.82,284.734a2.433,2.433,0,0,1-.423.028l-1.213.026-4.461.044-14.716.041H235.82v-.139c.017-5.5.032-10.426.043-14.015.018-1.76.033-3.19.043-4.211.01-.475.019-.855.025-1.141a2.218,2.218,0,0,1,.027-.4,2.187,2.187,0,0,1,.027.4c.006.286.014.666.025,1.141.01,1.021.025,2.451.043,4.211.011,3.589.026,8.518.043,14.015l-.139-.138h1.049l14.716.041,4.461.044,1.213.026a2.441,2.441,0,0,1,.423.028" transform="translate(-118.328 -132.955)" fill="#263238"/><path d="M257.582,274.593a5.653,5.653,0,0,1-.652.623l-1.846,1.62c-1.566,1.359-3.742,3.221-6.157,5.265l-.366.309-.094.08-.09-.084-2.738-2.544.171,0-4.022,3.317-1.167.934a2.616,2.616,0,0,1-.436.312,2.547,2.547,0,0,1,.382-.376l1.12-.99,3.957-3.394.086-.074.085.078,2.751,2.53-.184,0,.366-.309c2.414-2.044,4.611-3.883,6.209-5.2l1.9-1.553a5.644,5.644,0,0,1,.722-.541" transform="translate(-120.519 -137.784)" fill="#263238"/><path d="M269.905,278.926a6.888,6.888,0,0,1-.1-1.364c-.025-.845-.041-2.017-.042-3.323l.138.138h-.236c-1.36,0-2.591-.016-3.482-.041a7.443,7.443,0,0,1-1.442-.1,7.441,7.441,0,0,1,1.442-.1c.891-.025,2.122-.041,3.482-.041h.375v.139c0,1.306-.017,2.478-.043,3.323a6.86,6.86,0,0,1-.1,1.364" transform="translate(-132.842 -137.536)" fill="#263238"/></g></g></g></g></svg>