<svg xmlns="http://www.w3.org/2000/svg" width="1240" height="1074.503" viewBox="0 0 1240 1074.503"><g transform="translate(-180 -416)"><g transform="translate(0 1)"><g transform="translate(0 -4)"><g transform="translate(0 3)"><rect width="424" height="48" rx="10" transform="translate(588.333 416)" fill="#3a8416"/><text transform="translate(800.333 446)" fill="#fff" font-size="18" font-family="Roboto-Black, Roboto" font-weight="800"><tspan x="-184.627" y="0">Modelamiento y relacionamiento de los datos</tspan></text></g><path d="M-11940.42-9620.857v43" transform="translate(12740.253 10087.856)" fill="none" stroke="#3a8416" stroke-width="2"/><path d="M-11870-9620.857v61.325h-499.332v46.849" transform="translate(12670.333 10163.857)" fill="none" stroke="#3a8416" stroke-width="2"/><path d="M-12369.332-9620.857v61.325H-11870v46.849" transform="translate(13170.333 10163.857)" fill="none" stroke="#3a8416" stroke-width="2"/><g transform="translate(-19 3)"><g transform="translate(663.333 504)" fill="#f6fbd1" stroke="#d2ed1b" stroke-width="2"><rect width="312" height="46" rx="10" stroke="none"/><rect x="1" y="1" width="310" height="44" rx="9" fill="none"/></g><text transform="translate(819.333 534)" fill="#12263f" font-size="16" font-family="Roboto-Regular, Roboto"><tspan x="-130.254" y="0">Bases de datos en una organización </tspan></text></g><path d="M-12086.228-9593h-83.333" transform="translate(12731.561 10123)" fill="none" stroke="#3a8416" stroke-width="2"/><path d="M5,0H236a5,5,0,0,1,5,5V34a0,0,0,0,1,0,0H0a0,0,0,0,1,0,0V5A5,5,0,0,1,5,0Z" transform="translate(329.333 511)" fill="#d2ed1b"/><path d="M5,0H236a5,5,0,0,1,5,5V34a0,0,0,0,1,0,0H0a0,0,0,0,1,0,0V5A5,5,0,0,1,5,0Z" transform="translate(180 643.003)" fill="#d2ed1b"/><path d="M5,0H236a5,5,0,0,1,5,5V60.5a0,0,0,0,1,0,0H0a0,0,0,0,1,0,0V5A5,5,0,0,1,5,0Z" transform="translate(1179 643.003)" fill="#d2ed1b"/><path d="M0,0H241a0,0,0,0,1,0,0V30a5,5,0,0,1-5,5H5a5,5,0,0,1-5-5V0A0,0,0,0,1,0,0Z" transform="translate(329.333 545)" fill="#f6fbd1"/><path d="M0,0H241a0,0,0,0,1,0,0V48a5,5,0,0,1-5,5H5a5,5,0,0,1-5-5V0A0,0,0,0,1,0,0Z" transform="translate(180 677.003)" fill="#f6fbd1"/><path d="M0,0H241a0,0,0,0,1,0,0V48a5,5,0,0,1-5,5H5a5,5,0,0,1-5-5V0A0,0,0,0,1,0,0Z" transform="translate(1179 703.503)" fill="#f6fbd1"/><text transform="translate(341.333 553)" fill="#12263f" font-size="16" font-family="Roboto-Regular, Roboto"><tspan x="3.73" y="17">Estadística, científica y digital </tspan></text><text transform="translate(192 684.003)" fill="#12263f" font-size="16" font-family="Roboto-Regular, Roboto"><tspan x="0.824" y="17">Análisis para planes de acción </tspan><tspan x="62.32" y="35">o estrategias </tspan></text><text transform="translate(1191 710.503)" fill="#12263f" font-size="16" font-family="Roboto-Regular, Roboto"><tspan x="37.246" y="17">Asociación, minería, </tspan><tspan x="37.855" y="35">agrupación, análisis</tspan></text><text transform="translate(450.333 535)" fill="#12263f" font-size="16" font-family="Roboto-Black, Roboto" font-weight="800"><tspan x="-72.504" y="0">Ciencia de los datos</tspan></text><text transform="translate(301 667.003)" fill="#12263f" font-size="16" font-family="Roboto-Black, Roboto" font-weight="800"><tspan x="-46.215" y="0">Ciclo de vida</tspan></text><text transform="translate(1300 667.003)" fill="#12263f" font-size="16" font-family="Roboto-Black, Roboto" font-weight="800"><tspan x="-107.406" y="0">Técnicas de gestión de datos </tspan><tspan x="-30.098" y="24">masivos</tspan><tspan x="0" y="48"></tspan></text><path d="M-12458.333-9393v27.82" transform="translate(12759.333 10123)" fill="none" stroke="#3a8416" stroke-width="2"/><path d="M-12458.333-9393v27.82" transform="translate(13758.333 10149.5)" fill="none" stroke="#3a8416" stroke-width="2"/><path d="M-12458.333-9393v27.82" transform="translate(13758.333 10261)" fill="none" stroke="#3a8416" stroke-width="2"/><path d="M-12458.333-9393v27.82" transform="translate(13758.333 10395.5)" fill="none" stroke="#3a8416" stroke-width="2"/><path d="M-12458.333-9393v37.74" transform="translate(12759.333 10228)" fill="none" stroke="#3a8416" stroke-width="2"/><path d="M-12458.333-9393v37.74" transform="translate(12759.333 10362)" fill="none" stroke="#3a8416" stroke-width="2"/><path d="M-12458.333-9393v37.74" transform="translate(12759.333 10463.5)" fill="none" stroke="#3a8416" stroke-width="2"/><path d="M-12458.333-9393v37.74" transform="translate(12759.166 10598)" fill="none" stroke="#3a8416" stroke-width="2"/><path d="M-12458.333-9393v37.74" transform="translate(12759.166 10735.5)" fill="none" stroke="#3a8416" stroke-width="2"/><path d="M5,0H236a5,5,0,0,1,5,5V55a0,0,0,0,1,0,0H0a0,0,0,0,1,0,0V5A5,5,0,0,1,5,0Z" transform="translate(180 869.003)" fill="#d2ed1b"/><path d="M5,0H236a5,5,0,0,1,5,5V39a0,0,0,0,1,0,0H0a0,0,0,0,1,0,0V5A5,5,0,0,1,5,0Z" transform="translate(180 1003.003)" fill="#d2ed1b"/><path d="M5,0H236a5,5,0,0,1,5,5V54a0,0,0,0,1,0,0H0a0,0,0,0,1,0,0V5A5,5,0,0,1,5,0Z" transform="translate(180 1104.503)" fill="#d2ed1b"/><path d="M5,0H236a5,5,0,0,1,5,5V54a0,0,0,0,1,0,0H0a0,0,0,0,1,0,0V5A5,5,0,0,1,5,0Z" transform="translate(180 1239.003)" fill="#d2ed1b"/><path d="M5,0H236a5,5,0,0,1,5,5V54a0,0,0,0,1,0,0H0a0,0,0,0,1,0,0V5A5,5,0,0,1,5,0Z" transform="translate(180 1376.503)" fill="#d2ed1b"/><path d="M0,0H241a0,0,0,0,1,0,0V48a5,5,0,0,1-5,5H5a5,5,0,0,1-5-5V0A0,0,0,0,1,0,0Z" transform="translate(180 924.003)" fill="#f6fbd1"/><path d="M0,0H241a0,0,0,0,1,0,0V34a5,5,0,0,1-5,5H5a5,5,0,0,1-5-5V0A0,0,0,0,1,0,0Z" transform="translate(180 1042.003)" fill="#f6fbd1"/><path d="M0,0H241a0,0,0,0,1,0,0V50a5,5,0,0,1-5,5H5a5,5,0,0,1-5-5V0A0,0,0,0,1,0,0Z" transform="translate(180 1158.503)" fill="#f6fbd1"/><path d="M0,0H241a0,0,0,0,1,0,0V53a5,5,0,0,1-5,5H5a5,5,0,0,1-5-5V0A0,0,0,0,1,0,0Z" transform="translate(180 1293.003)" fill="#f6fbd1"/><path d="M0,0H241a0,0,0,0,1,0,0V58a5,5,0,0,1-5,5H5a5,5,0,0,1-5-5V0A0,0,0,0,1,0,0Z" transform="translate(180 1430.503)" fill="#f6fbd1"/><text transform="translate(192 931.003)" fill="#12263f" font-size="16" font-family="Roboto-Regular, Roboto"><tspan x="33.195" y="17">Actividad de tomar la </tspan><tspan x="9.418" y="35">información y transformarla</tspan></text><text transform="translate(192 1049.003)" fill="#12263f" font-size="16" font-family="Roboto-Regular, Roboto"><tspan x="17.133" y="17">Extracción de datos útiles</tspan></text><text transform="translate(192 1165.503)" fill="#12263f" font-size="16" font-family="Roboto-Regular, Roboto"><tspan x="2.141" y="17">Procesos de recolección de la </tspan><tspan x="65.629" y="35">información </tspan></text><text transform="translate(192 1300.003)" fill="#12263f" font-size="16" font-family="Roboto-Regular, Roboto"><tspan x="8.207" y="17">Limpiar y recopilar los datos </tspan><tspan x="25.016" y="35">que van a ser utilizados</tspan></text><text transform="translate(192 1438.503)" fill="#12263f" font-size="16" font-family="Roboto-Regular, Roboto"><tspan x="5.727" y="17">Conjunto de información que </tspan><tspan x="18.266" y="35">está disponible al público </tspan></text><text transform="translate(301 893.003)" fill="#12263f" font-size="16" font-family="Roboto-Black, Roboto" font-weight="800"><tspan x="-90.547" y="0">Modelos y metodologías </tspan><tspan x="-41.68" y="20">de analítica</tspan></text><text transform="translate(301 1029.003)" fill="#12263f" font-size="16" font-family="Roboto-Black, Roboto" font-weight="800"><tspan x="-60.441" y="0">Minería de datos</tspan></text><text transform="translate(301 1128.503)" fill="#12263f" font-size="16" font-family="Roboto-Black, Roboto" font-weight="800"><tspan x="-97.301" y="0">Métodos de recopilación e </tspan><tspan x="-73.738" y="20">integración de datos</tspan></text><text transform="translate(301 1263.003)" fill="#12263f" font-size="16" font-family="Roboto-Black, Roboto" font-weight="800"><tspan x="-78.66" y="0">Preparación de datos </tspan><tspan x="-50.406" y="20">estructurados</tspan><tspan x="0" y="40"></tspan></text><text transform="translate(301 1400.503)" fill="#12263f" font-size="16" font-family="Roboto-Black, Roboto" font-weight="800"><tspan x="-76.48" y="0">Ecosistema de datos </tspan><tspan x="-29.75" y="20">abiertos</tspan></text><path d="M5,0H236a5,5,0,0,1,5,5V34a0,0,0,0,1,0,0H0a0,0,0,0,1,0,0V5A5,5,0,0,1,5,0Z" transform="translate(180 757.003)" fill="#d2ed1b"/><path d="M5,0H236a5,5,0,0,1,5,5V34a0,0,0,0,1,0,0H0a0,0,0,0,1,0,0V5A5,5,0,0,1,5,0Z" transform="translate(1179 783.503)" fill="#d2ed1b"/><path d="M5,0H236a5,5,0,0,1,5,5V34a0,0,0,0,1,0,0H0a0,0,0,0,1,0,0V5A5,5,0,0,1,5,0Z" transform="translate(1179 895.003)" fill="#d2ed1b"/><path d="M5,0H236a5,5,0,0,1,5,5V62a0,0,0,0,1,0,0H0a0,0,0,0,1,0,0V5A5,5,0,0,1,5,0Z" transform="translate(1179 1029.503)" fill="#d2ed1b"/><path d="M0,0H241a0,0,0,0,1,0,0V48a5,5,0,0,1-5,5H5a5,5,0,0,1-5-5V0A0,0,0,0,1,0,0Z" transform="translate(180 791.003)" fill="#f6fbd1"/><path d="M0,0H241a0,0,0,0,1,0,0V48a5,5,0,0,1-5,5H5a5,5,0,0,1-5-5V0A0,0,0,0,1,0,0Z" transform="translate(1179 817.503)" fill="#f6fbd1"/><path d="M0,0H241a0,0,0,0,1,0,0V72a5,5,0,0,1-5,5H5a5,5,0,0,1-5-5V0A0,0,0,0,1,0,0Z" transform="translate(1179 929.003)" fill="#f6fbd1"/><path d="M0,0H241a0,0,0,0,1,0,0V40a5,5,0,0,1-5,5H5a5,5,0,0,1-5-5V0A0,0,0,0,1,0,0Z" transform="translate(1179 1091.503)" fill="#f6fbd1"/><text transform="translate(192 798.003)" fill="#12263f" font-size="16" font-family="Roboto-Regular, Roboto"><tspan x="12.371" y="17">Métodos de recolección de </tspan><tspan x="88.414" y="35">datos </tspan></text><text transform="translate(1191 824.503)" fill="#12263f" font-size="16" font-family="Roboto-Regular, Roboto"><tspan x="16.359" y="17">Utilizan para el análisis de </tspan><tspan x="56.5" y="35">datos masivos </tspan></text><text transform="translate(1191 936.003)" fill="#12263f" font-size="16" font-family="Roboto-Regular, Roboto"><tspan x="0.434" y="17">Actividad de guardar los datos </tspan><tspan x="28.684" y="35">con herramientas para </tspan><tspan x="20.195" y="53">conservar la información</tspan></text><text transform="translate(1191 1100.503)" fill="#12263f" font-size="16" font-family="Roboto-MediumItalic, Roboto" font-weight="500" font-style="italic"><tspan x="5.32" y="17">Select, insert, delete y update</tspan></text><text transform="translate(301 781.003)" fill="#12263f" font-size="16" font-family="Roboto-Black, Roboto" font-weight="800"><tspan x="-106.207" y="0">Técnicas de análisis de datos</tspan></text><text transform="translate(1300 807.503)" fill="#12263f" font-size="16" font-family="Roboto-Black, Roboto" font-weight="800"><tspan x="-49.398" y="0">Metodologías</tspan></text><text transform="translate(1300 919.003)" fill="#12263f" font-size="16" font-family="Roboto-Black, Roboto" font-weight="800"><tspan x="-61.133" y="0">Almacenamiento</tspan></text><text transform="translate(1300 1053.503)" fill="#12263f" font-size="16" font-family="Roboto-Black, Roboto" font-weight="800"><tspan x="-82.969" y="0">Lenguajes de consulta </tspan><tspan x="-87.609" y="24">y manipulación de datos</tspan></text><path d="M-11940.42-9620.856v38.491" transform="translate(12570.666 10225.368)" fill="none" stroke="#3a8416" stroke-width="2"/><path d="M-11940.42-9620.855v38.614" transform="translate(12910.834 10225.245)" fill="none" stroke="#3a8416" stroke-width="2"/><path d="M5,0H236a5,5,0,0,1,5,5V34a0,0,0,0,1,0,0H0a0,0,0,0,1,0,0V5A5,5,0,0,1,5,0Z" transform="translate(509.333 643.003)" fill="#d2ed1b"/><path d="M5,0H236a5,5,0,0,1,5,5V34a0,0,0,0,1,0,0H0a0,0,0,0,1,0,0V5A5,5,0,0,1,5,0Z" transform="translate(849.501 643.003)" fill="#d2ed1b"/><path d="M0,0H241a0,0,0,0,1,0,0V48a5,5,0,0,1-5,5H5a5,5,0,0,1-5-5V0A0,0,0,0,1,0,0Z" transform="translate(509.833 677.003)" fill="#f6fbd1"/><path d="M0,0H241a0,0,0,0,1,0,0V86a5,5,0,0,1-5,5H5a5,5,0,0,1-5-5V0A0,0,0,0,1,0,0Z" transform="translate(850.001 677.003)" fill="#f6fbd1"/><text transform="translate(521.333 684.003)" fill="#12263f" font-size="16" font-family="Roboto-Regular, Roboto"><tspan x="39.57" y="17">Guardar los datos y </tspan><tspan x="4.77" y="35">entrelazarlos de forma lógica </tspan></text><text transform="translate(861.501 684.003)" fill="#12263f" font-size="16" font-family="Roboto-Regular, Roboto"><tspan x="35.094" y="17">Conjunto de grandes </tspan><tspan x="36.945" y="35">volúmenes de datos </tspan><tspan x="42.371" y="53">estructurados y no </tspan><tspan x="59.094" y="71">estructurados</tspan></text><text transform="translate(630.333 667.003)" fill="#12263f" font-size="16" font-family="Roboto-Black, Roboto" font-weight="800"><tspan x="-54.762" y="0">Bases de datos</tspan></text><text transform="translate(970.501 667.003)" fill="#12263f" font-size="16" font-family="Roboto-Black, Roboto" font-weight="800"><tspan x="-32.355" y="0">Big Data </tspan></text><path d="M-12458.333-9393v27.82" transform="translate(13088.666 10123)" fill="none" stroke="#3a8416" stroke-width="2"/><path d="M-12458.333-9393v27.82" transform="translate(13428.834 10165)" fill="none" stroke="#3a8416" stroke-width="2"/><path d="M-12458.333-9393v27.82" transform="translate(13428.834 10280)" fill="none" stroke="#3a8416" stroke-width="2"/><path d="M-12458.333-9393v27.82" transform="translate(13088.666 10258)" fill="none" stroke="#3a8416" stroke-width="2"/><path d="M-12458.333-9393v27.82" transform="translate(13088.666 10373)" fill="none" stroke="#3a8416" stroke-width="2"/><path d="M-12458.333-9393v27.82" transform="translate(13429.334 10398)" fill="none" stroke="#3a8416" stroke-width="2"/><path d="M5,0H236a5,5,0,0,1,5,5V34a0,0,0,0,1,0,0H0a0,0,0,0,1,0,0V5A5,5,0,0,1,5,0Z" transform="translate(509.333 757.003)" fill="#d2ed1b"/><path d="M5,0H236a5,5,0,0,1,5,5V34a0,0,0,0,1,0,0H0a0,0,0,0,1,0,0V5A5,5,0,0,1,5,0Z" transform="translate(849.501 799.003)" fill="#d2ed1b"/><path d="M5,0H236a5,5,0,0,1,5,5V34a0,0,0,0,1,0,0H0a0,0,0,0,1,0,0V5A5,5,0,0,1,5,0Z" transform="translate(849.501 914.003)" fill="#d2ed1b"/><path d="M5,0H236a5,5,0,0,1,5,5V34a0,0,0,0,1,0,0H0a0,0,0,0,1,0,0V5A5,5,0,0,1,5,0Z" transform="translate(509.333 892.003)" fill="#d2ed1b"/><path d="M5,0H236a5,5,0,0,1,5,5V60.5a0,0,0,0,1,0,0H0a0,0,0,0,1,0,0V5A5,5,0,0,1,5,0Z" transform="translate(509.333 1007.003)" fill="#d2ed1b"/><path d="M5,0H236a5,5,0,0,1,5,5V60.5a0,0,0,0,1,0,0H0a0,0,0,0,1,0,0V5A5,5,0,0,1,5,0Z" transform="translate(850.001 1032.003)" fill="#d2ed1b"/><path d="M0,0H241a0,0,0,0,1,0,0V68a5,5,0,0,1-5,5H5a5,5,0,0,1-5-5V0A0,0,0,0,1,0,0Z" transform="translate(509.333 791.003)" fill="#f6fbd1"/><path d="M0,0H241a0,0,0,0,1,0,0V50a5,5,0,0,1-5,5H5a5,5,0,0,1-5-5V0A0,0,0,0,1,0,0Z" transform="translate(849.501 833.003)" fill="#f6fbd1"/><path d="M0,0H241a0,0,0,0,1,0,0V50a5,5,0,0,1-5,5H5a5,5,0,0,1-5-5V0A0,0,0,0,1,0,0Z" transform="translate(849.501 948.003)" fill="#f6fbd1"/><path d="M0,0H241a0,0,0,0,1,0,0V50a5,5,0,0,1-5,5H5a5,5,0,0,1-5-5V0A0,0,0,0,1,0,0Z" transform="translate(509.333 926.003)" fill="#f6fbd1"/><path d="M0,0H241a0,0,0,0,1,0,0V69a5,5,0,0,1-5,5H5a5,5,0,0,1-5-5V0A0,0,0,0,1,0,0Z" transform="translate(509.333 1067.503)" fill="#f6fbd1"/><path d="M0,0H241a0,0,0,0,1,0,0V62a5,5,0,0,1-5,5H5a5,5,0,0,1-5-5V0A0,0,0,0,1,0,0Z" transform="translate(850.001 1092.503)" fill="#f6fbd1"/><text transform="translate(521.333 798.003)" fill="#12263f" font-size="16" font-family="Roboto-Regular, Roboto"><tspan x="32.918" y="17">Tablas para hacer las </tspan><tspan x="23.215" y="35">respectivas relaciones y </tspan><tspan x="53.527" y="53">comparaciones</tspan></text><text transform="translate(861.501 840.003)" fill="#12263f" font-size="16" font-family="Roboto-Regular, Roboto"><tspan x="6.781" y="17">Metodología conocida como </tspan><tspan x="84.539" y="35">las 3 V</tspan></text><text transform="translate(861.501 955.003)" fill="#12263f" font-size="16" font-family="Roboto-Regular, Roboto"><tspan x="3.121" y="17">Estructurado, no estructurado </tspan><tspan x="82.719" y="35">y mixto</tspan></text><text transform="translate(521.333 933.003)" fill="#12263f" font-size="16" font-family="Roboto-Regular, Roboto"><tspan x="5.973" y="17">Ubicar donde se almacena la </tspan><tspan x="65.629" y="35">información</tspan></text><text transform="translate(521.333 1076.503)" fill="#12263f" font-size="16" font-family="Roboto-Regular, Roboto"><tspan x="22.152" y="17" xml:space="preserve">Software  diseñado para </tspan><tspan x="2.176" y="35">extraer, modificar y programar </tspan><tspan x="27.598" y="53">los datos recolectados</tspan></text><text transform="translate(862.001 1101.503)" fill="#12263f" font-size="16" font-family="Roboto-Regular, Roboto"><tspan x="12.527" y="17">Herramientas para analizar </tspan><tspan x="6.285" y="35">grandes volúmenes de datos</tspan></text><text transform="translate(630.333 781.003)" fill="#12263f" font-size="16" font-family="Roboto-Black, Roboto" font-weight="800"><tspan x="-54.77" y="0">Características</tspan></text><text transform="translate(970.501 823.003)" fill="#12263f" font-size="16" font-family="Roboto-Black, Roboto" font-weight="800"><tspan x="-54.77" y="0">Características</tspan></text><text transform="translate(970.501 938.003)" fill="#12263f" font-size="16" font-family="Roboto-Black, Roboto" font-weight="800"><tspan x="-53.141" y="0">Tipos de datos</tspan></text><text transform="translate(630.333 916.003)" fill="#12263f" font-size="16" font-family="Roboto-Black, Roboto" font-weight="800"><tspan x="-31.148" y="0">Modelos</tspan></text><text transform="translate(630.333 1032.003)" fill="#12263f" font-size="16" font-family="Roboto-Black, Roboto" font-weight="800"><tspan x="-87.176" y="0">Sistemas de Gestión de </tspan><tspan x="-56.098" y="24">bases de datos </tspan></text><text transform="translate(971.001 1057.003)" fill="#12263f" font-size="16" font-family="Roboto-Black, Roboto" font-weight="800"><tspan x="-95.16" y="0">Tecnologías para analizar </tspan><tspan x="-103.512" y="24">grandes volúmenes de datos</tspan></text></g></g></g></svg>